<?xml version="1.0" encoding="UTF-8"?>
<svg xmlns="http://www.w3.org/2000/svg" xmlns:xlink="http://www.w3.org/1999/xlink" viewBox="0 0 120 120">
  <defs>
    <style>.uuid-e129f713-892d-48f9-af65-473692eaaf9d{clip-path:url(#uuid-32a5d126-da9c-432b-96c3-cc31ef713d1c);}.uuid-6ad9cde7-e64c-416f-95a8-8fbf5a965bad{fill:#fff;}.uuid-33f1540c-89da-40c9-a80e-3a25adf83974{fill:#1e6466;}.uuid-74d621e0-30d7-4be3-bf15-fe04356ae480{fill:#121a1c;}.uuid-8a725e72-b7a8-4036-813b-bd3919ebe6b0{opacity:.1;}.uuid-8a725e72-b7a8-4036-813b-bd3919ebe6b0,.uuid-c631a39f-df89-4b46-bc62-b40f044dfe6b{mix-blend-mode:multiply;}.uuid-e854dfb8-ea43-4369-b712-8a2b4212b338{fill:#f5f5f5;}.uuid-dd07da85-5e41-461c-a453-4acce01692b6{isolation:isolate;}.uuid-39533fb1-9cf7-431f-90de-4a7ddf2bf517{fill:#1a5557;}.uuid-062211ff-ec0c-460e-8ac0-0f9671fa75a1{fill:#1d2d2e;}.uuid-16ef8ba5-47c7-44cd-91a3-a7559f082b4e{fill:#172224;}.uuid-bfcaa104-cc11-481a-b29b-5ea85b337b8e{clip-path:url(#uuid-50c3b921-bd39-4e64-a68e-bd354bd6581b);}.uuid-c631a39f-df89-4b46-bc62-b40f044dfe6b{opacity:.3;}.uuid-95cba62f-569f-4ece-b37b-bf1ee7707c3b{clip-path:url(#uuid-ec609ae7-dd11-40d2-b859-946eeba12b88);}.uuid-1b3a6357-40cc-465c-a3e3-ae6c484306b0{fill:none;}.uuid-372c9562-0465-4437-a381-c68699ee2ac9{clip-path:url(#uuid-7c390275-8a57-4c46-baa1-e5d2f5ef8f1a);}.uuid-1abcd743-a3cd-4d6a-9a56-1f31ab225b41{fill:#237578;}.uuid-6309a591-56a6-4408-827f-d3482848665d{fill:#103436;}</style>
    <clipPath id="uuid-50c3b921-bd39-4e64-a68e-bd354bd6581b">
      <rect class="uuid-1b3a6357-40cc-465c-a3e3-ae6c484306b0" x="37.21" y="49.44" width="18.61" height="62.56"></rect>
    </clipPath>
    <clipPath id="uuid-ec609ae7-dd11-40d2-b859-946eeba12b88">
      <rect class="uuid-1b3a6357-40cc-465c-a3e3-ae6c484306b0" x="37.21" y="49.44" width="18.61" height="62.56"></rect>
    </clipPath>
    <clipPath id="uuid-7c390275-8a57-4c46-baa1-e5d2f5ef8f1a">
      <rect class="uuid-1b3a6357-40cc-465c-a3e3-ae6c484306b0" x="37.21" y="49.44" width="48.92" height="11.97"></rect>
    </clipPath>
    <clipPath id="uuid-32a5d126-da9c-432b-96c3-cc31ef713d1c">
      <rect class="uuid-1b3a6357-40cc-465c-a3e3-ae6c484306b0" x="37.21" y="49.44" width="48.92" height="11.96"></rect>
    </clipPath>
  </defs>
  <g class="uuid-dd07da85-5e41-461c-a453-4acce01692b6">
    <g id="uuid-a7d181ee-a4d5-4a5c-ba30-1290f6b90d29">
      <circle class="uuid-e854dfb8-ea43-4369-b712-8a2b4212b338" cx="59.8" cy="60.98" r="50"></circle>
      <g>
        <path class="uuid-6ad9cde7-e64c-416f-95a8-8fbf5a965bad" d="M36.07,49.36c.17-1.73,1.77-1.36,1.77-1.36,3.75-.66,13.05-1.69,13.05-1.69l.86-1.15c3.57-.14,12.56,0,16.87,.07,.23-.14,.5-.21,.78-.19l7.39,.57c.73,.06,1.27,.69,1.22,1.42l-.02,.23c1.17,.13,2.25,.27,3.06,.42,.66,.12,.63,.58,.63,.58v1.55c.19,0,.4,.01,.61,.02,.45,.01,.91,.02,1.36,.04,.23,0,.46,.01,.69,.02,0,0,.2,.12,.41,.33,.29,.29,.6,.74,.4,1.32,0,0,.07,.03,.16,.1,0,0,.02,.01,.02,.02,.04,.03,.09,.06,.14,.11,.02,.02,.04,.04,.06,.06,.04,.04,.08,.08,.13,.13,.03,.03,.05,.06,.07,.09,.04,.05,.08,.1,.11,.16,.03,.04,.04,.09,.07,.14,.03,.06,.06,.12,.08,.19,.02,.06,.03,.12,.05,.18,.02,.07,.04,.14,.05,.23,.01,.07,.01,.15,.02,.22,0,.06,.01,.12,.01,.19,0,.05,0,.1,0,.15l-4.09,1.76-1.49,3.37s-.04,1.01-.12,2.76c-.44,10.31-1.99,46.17-2.48,49.65,0,0-2.86,1.5-8.53,1.28,0,0-9.54-.23-13.59-.33-.2,0-.38-.01-.55-.02,0,0-1.16,.09-2.56-.41-1.22,1.22-2.92,1.97-4.78,1.92-3.6-.09-6.45-3.08-6.36-6.69,.08-3.39,2.74-6.11,6.05-6.35-1.16-10.21-3.37-30.74-3.88-42.8-.05-1.11-.08-2.16-.09-3.11,0,0-5.36-1.37-6.42-3.79-1.16-.16-1.15-1.4-1.15-1.4m2.65,.4l3.43,.09h.27s0,0,0,0c0,0,.02-.04,.07-.07,.01,0,.03-.02,.04-.03,.02-.01,.05-.03,.08-.04,.02-.01,.05-.02,.08-.03-1.56-.13-3.89-.17-3.89-.17-.03,.09-.06,.18-.09,.26m38.5-2.78c.02-.3-.2-.56-.5-.58l-5.22-.41,.57,.8c1.39,.06,3.32,.21,5.14,.4l.02-.21Z"></path>
        <path class="uuid-6ad9cde7-e64c-416f-95a8-8fbf5a965bad" d="M30.71,53.25l2.48,2.75c1.22,1.3,2.75,2.28,4.24,3.02,.51,10.51,2.12,26.34,3.33,37.32-3.29,2.27-5.45,6.02-5.55,10.3-.18,7.11,5.46,13.04,12.57,13.22,.11,0,.21,0,.32,0"></path>
        <path class="uuid-6ad9cde7-e64c-416f-95a8-8fbf5a965bad" d="M48.08,119.87c2.13,0,4.23-.54,6.09-1.54,.45,.03,.83,.04,1.12,.03h.34s13.57,.34,13.57,.34c6.98,.26,10.96-1.62,11.69-2l2.9-1.52,.45-3.24c.49-3.5,1.79-32.99,2.53-50.26l.07-1.54,5.34-2.31,.28-3.86c.01-.16,.02-.33,.02-.49,0-.31,0-.57-.03-.76-.01-.25-.04-.49-.07-.71-.05-.37-.13-.7-.18-.86-.05-.2-.12-.46-.23-.77-.13-.35-.26-.63-.33-.78-.11-.23-.22-.45-.34-.65-.06-.09-.11-.18-.17-.27-.39-1.1-1.04-2.13-1.93-3.01-.66-.65-1.3-1.07-1.62-1.26l-1.4-.83c-1.03-1.1-2.43-1.89-4.05-2.17-.04,0-.09-.02-.14-.03-1.24-1.19-2.88-1.98-4.72-2.12l-7.39-.57c-.75-.06-1.5,0-2.23,.15-2.06-.04-4.6-.07-7.11-.1l-2.19-.17,.11,.15c-2.8-.01-5.37,0-6.98,.06l-3.03,.12-1.03,1.37c-2.82,.33-7.16,.87-9.9,1.3-1.65-.02-3.28,.49-4.6,1.43-1.83,1.31-2.97,3.33-3.21,5.7"></path>
        <path class="uuid-6ad9cde7-e64c-416f-95a8-8fbf5a965bad" d="M48.48,106.79l-.29,.29c-.05,.05-.08,.05-.11,.05-.08,0-.15-.07-.15-.16,0-.11,.1-.15,.14-.15l.41-.03Z"></path>
        <path class="uuid-6ad9cde7-e64c-416f-95a8-8fbf5a965bad" d="M71.94,105.93c-.66,.05-1.42,.06-2.29,.03h-.09s-14.6-.36-14.6-.36c-.04,0-.08-.02-.13-.03l-.24-.08-.65-5.75c-1.22-10.79-3.35-30.64-3.84-42.34-.04-1.06-.08-2.04-.09-2.95v-.76s3.15-1.22,3.15-1.22l1.18-.13,.34-.46,1.05-.4c3.84,0,8.95,.07,11.95,.12l1.01,1.42,3.09,.14c.95,.04,2.2,.13,3.47,.25v1.44s-1.04,2.32-1.04,2.32l-.17,3.97c-.9,21.12-1.67,37.36-2.11,44.8"></path>
        <polyline class="uuid-6ad9cde7-e64c-416f-95a8-8fbf5a965bad" points="79.92 53.97 79.94 53.97 79.92 53.97"></polyline>
        <path class="uuid-39533fb1-9cf7-431f-90de-4a7ddf2bf517" d="M37.23,49.73l-.03,1.01c1.03,2.44,6.44,3.81,6.44,3.81,.02,.96,.05,2,.09,3.11,.69,16.5,4.59,48.94,4.59,48.94,1.64,5.79,6.94,5.38,6.94,5.38,.17,0,.36,0,.55,.01,4.05,.1,13.59,.34,13.59,.34,5.67,.22,8.53-1.28,8.53-1.28,.49-3.48,2.04-39.34,2.48-49.65,.07-1.75,.12-2.76,.12-2.76l1.49-3.37,4.09-1.76c0-.05,0-.1,0-.15,.03-1.36-.97-1.82-.97-1.82,.34-1-.82-1.65-.82-1.65-12.94-.37-25.98-.45-33.39-.46-3.85,0-6.17,.01-6.17,.01-2.28,.02-2.34,.41-2.34,.41l-5.21-.13Z"></path>
        <g class="uuid-8a725e72-b7a8-4036-813b-bd3919ebe6b0">
          <g class="uuid-bfcaa104-cc11-481a-b29b-5ea85b337b8e">
            <g class="uuid-95cba62f-569f-4ece-b37b-bf1ee7707c3b">
              <path class="uuid-39533fb1-9cf7-431f-90de-4a7ddf2bf517" d="M37.23,49.73l-.03,1.01c1.03,2.44,6.44,3.81,6.44,3.81,.02,.96,.05,2,.09,3.11,.69,16.5,4.59,48.94,4.59,48.94,1.64,5.79,6.94,5.38,6.94,5.38,.17,0,.36,0,.55,.01l-4.87-62.56c-3.85,0-6.17,.01-6.17,.01-2.28,.02-2.34,.41-2.34,.41l-5.21-.13Z"></path>
            </g>
          </g>
        </g>
        <path class="uuid-39533fb1-9cf7-431f-90de-4a7ddf2bf517" d="M36.07,49.36s-.04,1.41,1.35,1.43c0,0,.88,.07,1.17-.68,0,0,.13-.31,.22-.6,0,0,3.2,.05,4.62,.25l19.1,.32,19.12,.22,.02-2.02s.04-.46-.63-.58c-2.22-.39-6.46-.79-8.97-.9l-1.08-1.5s-14.48-.31-19.25-.12l-.86,1.14s-9.3,1.04-13.05,1.7c0,0-1.6-.38-1.77,1.36"></path>
        <path class="uuid-1abcd743-a3cd-4d6a-9a56-1f31ab225b41" d="M50.89,46.31c6.3-.15,21.18,.48,21.18,.48l-1.08-1.5s-14.48-.31-19.25-.12l-.86,1.14Z"></path>
        <path class="uuid-6309a591-56a6-4408-827f-d3482848665d" d="M36.65,49.21c-.01,.42,.32,.76,.73,.77,.42,0,.76-.32,.77-.73,.01-.42-.32-.76-.73-.77-.42-.01-.76,.32-.77,.73"></path>
        <path class="uuid-39533fb1-9cf7-431f-90de-4a7ddf2bf517" d="M77.19,47.53l.04-.54c.02-.3-.2-.56-.5-.58l-7.39-.57c-.3-.02-.56,.2-.58,.5l-.04,.54-.77-.06,.04-.54c.06-.73,.69-1.27,1.42-1.22l7.39,.57c.73,.06,1.27,.69,1.22,1.42l-.04,.54-.77-.06Z"></path>
        <g class="uuid-c631a39f-df89-4b46-bc62-b40f044dfe6b">
          <g class="uuid-372c9562-0465-4437-a381-c68699ee2ac9">
            <g class="uuid-e129f713-892d-48f9-af65-473692eaaf9d">
              <path class="uuid-39533fb1-9cf7-431f-90de-4a7ddf2bf517" d="M37.23,49.73l-.03,1.01c1.03,2.44,6.44,3.82,6.44,3.82,.01,.95,.05,2,.09,3.11,4.64-2.48,8.92-2.73,12.01-3.04,6.88-.7,11.88,.02,15.75,.75,8.86,1.67,8.92,6.03,8.92,6.03,.07-1.75,.12-2.76,.12-2.76l1.49-3.37,4.09-1.76c.11-1.47-.96-1.97-.96-1.97,.34-1-.81-1.65-.81-1.65-19.65-.57-39.56-.44-39.56-.44-2.28,.02-2.34,.41-2.34,.41l-5.21-.13Z"></path>
            </g>
          </g>
        </g>
        <path class="uuid-33f1540c-89da-40c9-a80e-3a25adf83974" d="M41.35,51.67l27.09,.37,10.44,1.35,7.23-.02c.03-1.36-.97-1.82-.97-1.82,.34-1-.81-1.65-.81-1.65-19.66-.57-39.56-.44-39.56-.44-2.28,.02-2.34,.41-2.34,.41h-.27s-.81,1.81-.81,1.81Z"></path>
        <path class="uuid-16ef8ba5-47c7-44cd-91a3-a7559f082b4e" d="M41.56,106.81c-.09,3.6,2.76,6.6,6.36,6.69,3.6,.09,6.6-2.76,6.69-6.36,.09-3.6-2.76-6.6-6.36-6.69-3.6-.09-6.6,2.76-6.69,6.36"></path>
        <path class="uuid-74d621e0-30d7-4be3-bf15-fe04356ae480" d="M43.62,106.86c-.06,2.46,1.89,4.51,4.35,4.58,2.46,.06,4.51-1.89,4.57-4.36,.06-2.46-1.89-4.51-4.35-4.57-2.47-.06-4.52,1.89-4.58,4.35"></path>
        <path class="uuid-062211ff-ec0c-460e-8ac0-0f9671fa75a1" d="M46.92,106.94c-.02,.64,.49,1.18,1.14,1.2,.64,.01,1.18-.49,1.19-1.14,.02-.64-.49-1.18-1.14-1.19-.64-.02-1.18,.49-1.19,1.14"></path>
        <polygon class="uuid-6ad9cde7-e64c-416f-95a8-8fbf5a965bad" points="64.93 68.26 64.41 66.9 63.68 67.17 64.64 65.6 66.82 65.98 66.08 66.26 66.88 68.31 65.9 70.06 65.63 70.05 62.34 69.99 62.39 68.2 64.93 68.26"></polygon>
        <polygon class="uuid-6ad9cde7-e64c-416f-95a8-8fbf5a965bad" points="58.16 66.06 57.44 65.75 59.6 65.37 60.51 67.09 59.81 66.78 59.21 68.12 61.76 68.18 61.71 69.97 58.43 69.87 58.15 69.87 57.27 68.07 58.16 66.06"></polygon>
        <polygon class="uuid-6ad9cde7-e64c-416f-95a8-8fbf5a965bad" points="59.98 63.48 59.98 63.48 61.34 61.76 63.39 61.8 63.48 61.95 65.17 64.94 63.51 65.69 62.28 63.46 61.37 64.6 61.97 65.09 59.85 64.98 59.36 62.98 59.98 63.48"></polygon>
      </g>
    </g>
  </g>
</svg>
