<?xml version="1.0" encoding="UTF-8"?>
<svg xmlns="http://www.w3.org/2000/svg" id="uuid-57a30f38-2b71-4845-b101-da76af877083" viewBox="0 0 120 120">
  <defs>
    <style>.uuid-eaa2aacc-4514-4a31-b3f1-a27036c2d327{fill:#f7f9ff;}.uuid-ce8fd5fa-9e6a-4560-aab6-c6d79d866b5b{fill:#fb8d88;}.uuid-e6e11401-03be-48e1-b933-31ec9caa5926{fill:#f5f5f5;}.uuid-19875cf1-1d00-4cb9-ba5b-153ca33a7d36{fill:#f03137;}.uuid-4853d25d-3108-452c-9ab3-db5bb091d9eb{fill:none;stroke:#fff;stroke-miterlimit:10;stroke-width:7.57px;}.uuid-74a66c79-1386-45b6-aacf-78ab06773609{fill:#c6c7c8;}</style>
  </defs>
  <circle class="uuid-e6e11401-03be-48e1-b933-31ec9caa5926" cx="60.33" cy="60.39" r="50"></circle>
  <g>
    <path class="uuid-eaa2aacc-4514-4a31-b3f1-a27036c2d327" d="M20.72,82.47c.4-.59,.91-1.05,1.5-1.43,2.06-1.32,5.07-1.49,7.61-1.57,1.14-.04,2.19-.06,3-.16,2.06-.25,5.43-.78,7.78-1.23l2.91-.93c.41-.36,1.05-1,1.87-1.81l1.87-1.91c.66-.67,1.36-1.4,2.08-2.15l1.85-1.93c.81-.84,1.62-1.7,2.41-2.53l1.84-1.94c2.75-2.91,4.87-5.17,4.87-5.17l1.72-4.22s6.62,1.53,7.18,3.32c.56,1.79-1.8,6.95-4.86,10.02,1.52,.94,3.4,1.91,5.39,2.58,4.38,1.47,10.31,2.67,14.54-1.51,4.22-4.18,2.03-6.41,8.79-7.55,.94-.16,2.07,4.59,3.15,9.39,.9,3.95,1.76,7.93,2.49,9.23,0,.01,.01,.03,.02,.04,1.62,2.91,7.29,9.15-1.6,13.72-8.93,4.59-14.44,5.11-19.53,4.03-5.09-1.09-11.05-2.77-18.82-1.05-7.77,1.72-15.2,3.69-20.29,3.15-5.09-.53-15.84-4.06-18.38-9.23-2.05-4.14-.88-6.98,.59-9.14"></path>
    <path class="uuid-4853d25d-3108-452c-9ab3-db5bb091d9eb" d="M20.72,82.47c.4-.59,.91-1.05,1.5-1.43,2.06-1.32,5.07-1.49,7.61-1.57,1.14-.04,2.19-.06,3-.16,2.06-.25,5.43-.78,7.78-1.23l2.91-.93c.41-.36,1.05-1,1.87-1.81l1.87-1.91c.66-.67,1.36-1.4,2.08-2.15l1.85-1.93c.81-.84,1.62-1.7,2.41-2.53l1.84-1.94c2.75-2.91,4.87-5.17,4.87-5.17l1.72-4.22s6.62,1.53,7.18,3.32c.56,1.79-1.8,6.95-4.86,10.02,1.52,.94,3.4,1.91,5.39,2.58,4.38,1.47,10.31,2.67,14.54-1.51,4.22-4.18,2.03-6.41,8.79-7.55,.94-.16,2.07,4.59,3.15,9.39,.9,3.95,1.76,7.93,2.49,9.23,0,.01,.01,.03,.02,.04,1.62,2.91,7.29,9.15-1.6,13.72-8.93,4.59-14.44,5.11-19.53,4.03-5.09-1.09-11.05-2.77-18.82-1.05-7.77,1.72-15.2,3.69-20.29,3.15-5.09-.53-15.84-4.06-18.38-9.23-2.05-4.14-.88-6.98,.59-9.14Z"></path>
    <path class="uuid-ce8fd5fa-9e6a-4560-aab6-c6d79d866b5b" d="M59.53,59.69l1.72-4.22s6.62,1.53,7.18,3.32c.56,1.79-1.8,6.95-4.86,10.02,0,0-6.41-1.92-6.32-3.33,.09-1.41,2.28-5.79,2.28-5.79"></path>
    <path class="uuid-74a66c79-1386-45b6-aacf-78ab06773609" d="M19.34,91.61c2.54,5.17,13.29,8.7,18.38,9.23,5.09,.54,12.52-1.43,20.29-3.15,7.77-1.71,13.73-.03,18.81,1.05,5.09,1.08,10.61,.56,19.53-4.03,8.89-4.57,3.22-10.81,1.6-13.72-.17,1.07-.49,2.22-1.12,2.97-1.48,1.73-6.17,3.49-9.27,3.78-2.09,.19-7.5,.64-12.42,1.04-1.99,.16-3.89,.32-5.46,.44-.3,.02-.59,.04-.88,.07-5.25,.4-12.24,2.11-17.45,4.32-5.2,2.22-15.29,4.84-25.91-.72-6.7-3.51-5.2-9.21-4.03-11.86-.59,.38-1.1,.84-1.5,1.43-1.47,2.16-2.63,5-.59,9.14"></path>
    <path class="uuid-ce8fd5fa-9e6a-4560-aab6-c6d79d866b5b" d="M75.14,88.79c4.92-.4,10.33-.85,12.42-1.04,3.1-.29,7.79-2.04,9.27-3.78,.63-.75,.96-1.91,1.12-2.97,0-.01-.02-.03-.02-.04-.73-1.3-1.59-5.29-2.49-9.23-4.62,2.11-16.94,8.43-20.3,17.07"></path>
    <path class="uuid-19875cf1-1d00-4cb9-ba5b-153ca33a7d36" d="M33.63,87.55c5.61,1.97,20.68-2.88,26.7-2.46,3.47,.25,6.99,2.38,9.35,4.14,1.57-.12,3.47-.28,5.46-.44,3.37-8.63,15.68-14.96,20.3-17.07-1.09-4.8-2.21-9.55-3.15-9.39-6.76,1.13-4.57,3.37-8.79,7.55-4.23,4.18-10.16,2.97-14.54,1.51-4.38-1.47-8.28-4.42-8.81-5.3-.52-.89-.62-6.4-.62-6.4,0,0-2.12,2.26-4.87,5.17l5.44,5.13-1.81,1.97-5.47-5.16c-.79,.83-1.6,1.69-2.41,2.53l4.67,4.4-1.81,1.97-4.71-4.43c-.73,.75-1.43,1.48-2.08,2.15l3.77,3.55-1.82,1.96-3.82-3.6c-.82,.81-1.46,1.45-1.87,1.82l2.87,2.71-1.82,1.97-3.97-3.75c-2.34,.45-5.72,.98-7.77,1.23-.82,.1-1.86,.12-3,.16-.92,3.68,.85,6.78,4.59,8.09"></path>
    <path class="uuid-ce8fd5fa-9e6a-4560-aab6-c6d79d866b5b" d="M25.45,92.89c10.62,5.57,20.7,2.94,25.91,.72,5.21-2.21,12.2-3.92,17.45-4.32,.28-.02,.57-.04,.88-.07-2.36-1.76-5.88-3.89-9.35-4.14-6.02-.42-21.1,4.43-26.7,2.46-3.74-1.31-5.51-4.41-4.59-8.09-2.54,.09-5.55,.26-7.61,1.57-1.17,2.64-2.67,8.35,4.03,11.86"></path>
    <polygon class="uuid-eaa2aacc-4514-4a31-b3f1-a27036c2d327" points="52.82 66.8 58.29 71.96 60.1 69.99 54.66 64.86 52.82 66.8"></polygon>
    <polygon class="uuid-eaa2aacc-4514-4a31-b3f1-a27036c2d327" points="48.56 71.26 53.26 75.7 55.08 73.73 50.41 69.33 48.56 71.26"></polygon>
    <polygon class="uuid-eaa2aacc-4514-4a31-b3f1-a27036c2d327" points="44.6 75.33 48.42 78.93 50.24 76.97 46.47 73.42 44.6 75.33"></polygon>
    <polygon class="uuid-eaa2aacc-4514-4a31-b3f1-a27036c2d327" points="39.82 78.08 43.79 81.82 45.61 79.86 42.73 77.14 39.82 78.08"></polygon>
  </g>
</svg>
