<?xml version="1.0" encoding="UTF-8"?>
<svg xmlns="http://www.w3.org/2000/svg" xmlns:xlink="http://www.w3.org/1999/xlink" viewBox="0 0 120 120">
  <defs>
    <style>.uuid-609e30d0-b138-4ab0-98ec-560a78725fbb{fill:#88a023;}.uuid-22c7cd72-7a1e-4191-9a9a-e7c9104b0fda{fill:#ffdbb5;}.uuid-1781a59c-b2c2-4819-b17d-1f4a5b33e3a7{fill:#fff;}.uuid-16243f9a-51ae-42fd-b742-80f8614e874e{clip-path:url(#uuid-e21880be-bc5f-4a5a-8f18-397eb400f7e6);}.uuid-1c830fc4-3432-4f04-9b9a-2f0df6cc5b0c{fill:#a3cf6f;}.uuid-dceb202f-ef7a-4c81-9567-c8896211b1ea{fill:#9e774c;}.uuid-fa4fa9e3-46e6-49a3-94eb-e002ae1b3418{fill:#dd5357;}.uuid-6648aea9-3073-4c0e-91d5-c92609abfb32{fill:#522921;}.uuid-69ba8923-02f5-4126-9596-f71f6268111f{fill:#89a70b;}.uuid-e07012eb-cd5d-4be5-9ea5-c398db26daa9{fill:#5c3128;}.uuid-94928bc4-8afc-4b5c-9626-a848dfea21e6{clip-path:url(#uuid-345b9d05-c0e1-4907-88e7-9b59c151193b);}.uuid-acdd582a-fa1d-4c45-8607-7972c45ee2b0{fill:#f5f5f5;}.uuid-aecd9c56-3b70-4e52-9227-452621efa4c4{clip-path:url(#uuid-0c7f10c2-021e-4041-8b3c-c559b9509e94);}.uuid-07584e21-5a4f-4c51-8ae8-e6e394f3ce1a{isolation:isolate;}.uuid-fce6d2e4-a89f-4c35-913f-92b830d42ea2{fill:#322a2b;}.uuid-264a63b8-c832-4d81-8d99-d5c08dfb9fda{clip-path:url(#uuid-d3fbb796-6003-442a-a135-e9d489f981f2);}.uuid-4d5f44fb-f612-438a-83f4-b6e38eec02f8{fill:#ffe2c4;}.uuid-c2bdc1d2-7f11-41c9-b284-17793b099e30{clip-path:url(#uuid-1934176c-4f50-4bca-8a7a-486a9a53ae2c);}.uuid-d2063085-119e-4577-8395-896260134f23{fill:#d6d2b8;}.uuid-9d4dcbb6-1a4d-4870-927b-cc115368093c{clip-path:url(#uuid-b7d87041-88bb-4ad6-b77c-495ed18cdf6b);}.uuid-0f53235c-2ed1-4ec5-8bfe-17212a263ff4{clip-path:url(#uuid-ffbeb59d-1fb5-49e4-ab2d-07f82fc3ace1);}.uuid-cc1deba7-c1f5-412a-9b35-964bc9dac99a{fill:#afac9d;}.uuid-39663a81-c059-4a2d-bd89-60dd993f7fd2{clip-path:url(#uuid-b4ad5561-9ace-41e8-b700-d2eb8fc548e7);}.uuid-9be6ff90-6dfe-4853-ba7c-d67515b9d21f{fill:#394c1e;}.uuid-3e63d728-ae99-4c57-ba61-c619dcf4eaa7{clip-path:url(#uuid-7922a834-f0af-452e-ad97-e43784c1f824);}.uuid-54775698-80ae-44ce-928f-c1cb9d4c49b0{fill:#bfbdb1;}.uuid-e086905e-5e4c-4eda-be9a-6f0fb8ef208e{clip-path:url(#uuid-5378df11-9809-49c7-99cb-b4b83b75439d);}.uuid-fb567227-24f7-4f93-8727-4288e2ac8611{clip-path:url(#uuid-44dfc67b-6d92-4fed-a070-62eda34e6792);}.uuid-73e69cf5-52ff-4098-9433-668e64c7c635{fill:#865040;}.uuid-cf3ca45d-7372-454d-8f29-973b3615f9dc{clip-path:url(#uuid-db9481c4-4f86-4495-bc80-ce05ae6d268b);}.uuid-b619df22-7ef6-46e7-9886-6e81c176a45b,.uuid-f17edad6-0093-4843-a353-e4f1b960bee3{mix-blend-mode:screen;}.uuid-3816d549-24b9-4d1a-a251-8c35871a8f89{opacity:.58;}.uuid-3816d549-24b9-4d1a-a251-8c35871a8f89,.uuid-557f13b9-f241-4a7d-beba-ea728375f7f9,.uuid-c3564a30-327c-4187-bae4-baf55bb5d836{mix-blend-mode:multiply;}.uuid-77596bf6-60b4-4085-9251-17d87ff64161{fill:#ffd2a2;}.uuid-557f13b9-f241-4a7d-beba-ea728375f7f9,.uuid-f17edad6-0093-4843-a353-e4f1b960bee3{opacity:.5;}.uuid-f6812e63-7f88-44d4-8793-4a45598790df{fill:#ffc699;}.uuid-ace9b796-d142-474d-8509-4460165d0889{fill:#848483;}.uuid-0c184409-b4ef-4650-bad7-b9a0a188e3d5{clip-path:url(#uuid-37fa3b52-0089-4eec-aee6-086333b44744);}.uuid-7a17d9f8-4249-416f-9ae8-d5aa7da68d3e{clip-path:url(#uuid-409cadb6-f67e-4a3c-b34a-a9f60b5f3820);}.uuid-30f54a2d-b1c4-4f49-a91d-2f75c0423578{fill:#a9b88a;}.uuid-0842cef5-0912-4a70-b476-a450e20a862d{fill:none;}.uuid-6a4dcf5c-483a-4cf2-ab27-f3ae363bdf0b{fill:#423839;}.uuid-fd503145-1d1c-4638-b517-c630299b37ff{fill:#ef5a32;}.uuid-5e36617f-677a-40f4-9841-f21e3652378d{clip-path:url(#uuid-8a2aea1a-9b4e-4058-9e31-0ad4353a0ed9);}.uuid-d7ff8420-7174-4d85-8d80-0d8072eea74e{fill:#432918;}.uuid-217e5a7d-ce71-4951-b790-5c91c1fb5222{clip-path:url(#uuid-86e74822-b41f-4162-a86d-0c645f1974fd);}.uuid-9c143d58-3abd-45be-ac05-e021f5f0040a{clip-path:url(#uuid-0de7dbff-d5d5-49ca-9b69-96b1f4f26dbd);}.uuid-38dc6d56-2132-43ae-bde6-a361bd4df89e{clip-path:url(#uuid-79d55b28-2628-4b4a-b861-8ec98cb8a454);}.uuid-753e295f-5274-4900-b8ce-9478e0794dcd{fill:#3e1f19;}.uuid-783d1391-cdec-4a36-bbca-24cd9893be37{clip-path:url(#uuid-4edfd06a-bad7-4853-b4a7-9ac1153207b6);}.uuid-3271e23a-cc09-40c6-b47f-df5b9965c105{clip-path:url(#uuid-cf56e93e-b9e1-4506-839e-042434c7a3bf);}.uuid-99b7eaa5-16e8-45ab-a046-a8bee9527d2b{clip-path:url(#uuid-b959d67e-48cd-4136-872c-f64e00f2692f);}.uuid-c7fc8a06-4388-4819-b2e0-58ce3afa9d68{clip-path:url(#uuid-e654d733-d1e8-44a1-aa64-60ae97085a49);}.uuid-9ce7cbd5-9b69-4639-bf9d-b7d8518f7f8f{clip-path:url(#uuid-bd7f4868-191c-420c-8b7e-fb042c874fbe);}.uuid-1ce8e2a9-0ae6-4ba8-9e31-a5615ceb70fc{clip-path:url(#uuid-fbb46195-fe49-4825-ba01-eeeb49879f87);}.uuid-2dc61e6c-698a-470f-8ec1-12913a551a55{clip-path:url(#uuid-a5f82258-9fd6-4e58-a676-48ca2cc27074);}.uuid-fa17a1f3-705b-4bff-bc0d-fa2614946535{clip-path:url(#uuid-fafd3d7e-394d-45ff-8263-a8a1d2be3355);}.uuid-bef8b433-97cf-4d44-a6fb-debda8965502{fill:#838176;}</style>
    <clipPath id="uuid-ffbeb59d-1fb5-49e4-ab2d-07f82fc3ace1">
      <rect class="uuid-0842cef5-0912-4a70-b476-a450e20a862d" x="71.11" y="62.85" width="2.99" height=".64"></rect>
    </clipPath>
    <clipPath id="uuid-b4ad5561-9ace-41e8-b700-d2eb8fc548e7">
      <rect class="uuid-0842cef5-0912-4a70-b476-a450e20a862d" x="71.11" y="62.85" width="2.99" height=".64"></rect>
    </clipPath>
    <clipPath id="uuid-86e74822-b41f-4162-a86d-0c645f1974fd">
      <rect class="uuid-0842cef5-0912-4a70-b476-a450e20a862d" x="64.06" y="54.76" width="7.25" height=".46"></rect>
    </clipPath>
    <clipPath id="uuid-0c7f10c2-021e-4041-8b3c-c559b9509e94">
      <rect class="uuid-0842cef5-0912-4a70-b476-a450e20a862d" x="64.06" y="54.76" width="7.25" height=".45"></rect>
    </clipPath>
    <clipPath id="uuid-0de7dbff-d5d5-49ca-9b69-96b1f4f26dbd">
      <rect class="uuid-0842cef5-0912-4a70-b476-a450e20a862d" x="66.14" y="43.88" width="4.37" height="7.14"></rect>
    </clipPath>
    <clipPath id="uuid-b959d67e-48cd-4136-872c-f64e00f2692f">
      <rect class="uuid-0842cef5-0912-4a70-b476-a450e20a862d" x="66.14" y="43.88" width="4.37" height="7.14"></rect>
    </clipPath>
    <clipPath id="uuid-e654d733-d1e8-44a1-aa64-60ae97085a49">
      <rect class="uuid-0842cef5-0912-4a70-b476-a450e20a862d" x="64.86" y="41.62" width="3.1" height="6.03"></rect>
    </clipPath>
    <clipPath id="uuid-db9481c4-4f86-4495-bc80-ce05ae6d268b">
      <rect class="uuid-0842cef5-0912-4a70-b476-a450e20a862d" x="64.86" y="41.62" width="3.1" height="6.03"></rect>
    </clipPath>
    <clipPath id="uuid-409cadb6-f67e-4a3c-b34a-a9f60b5f3820">
      <rect class="uuid-0842cef5-0912-4a70-b476-a450e20a862d" x="29.08" y="47.15" width="60.35" height="62.36"></rect>
    </clipPath>
    <clipPath id="uuid-79d55b28-2628-4b4a-b861-8ec98cb8a454">
      <rect class="uuid-0842cef5-0912-4a70-b476-a450e20a862d" x="29.08" y="47.15" width="60.35" height="62.36"></rect>
    </clipPath>
    <clipPath id="uuid-b7d87041-88bb-4ad6-b77c-495ed18cdf6b">
      <rect class="uuid-0842cef5-0912-4a70-b476-a450e20a862d" x="53.5" y="93.63" width="11.13" height="5.88"></rect>
    </clipPath>
    <clipPath id="uuid-44dfc67b-6d92-4fed-a070-62eda34e6792">
      <rect class="uuid-0842cef5-0912-4a70-b476-a450e20a862d" x="53.5" y="93.63" width="11.13" height="5.88"></rect>
    </clipPath>
    <clipPath id="uuid-d3fbb796-6003-442a-a135-e9d489f981f2">
      <rect class="uuid-0842cef5-0912-4a70-b476-a450e20a862d" x="58.76" y="83.86" width=".93" height=".77"></rect>
    </clipPath>
    <clipPath id="uuid-e21880be-bc5f-4a5a-8f18-397eb400f7e6">
      <rect class="uuid-0842cef5-0912-4a70-b476-a450e20a862d" x="58.77" y="83.86" width=".93" height=".77"></rect>
    </clipPath>
    <clipPath id="uuid-1934176c-4f50-4bca-8a7a-486a9a53ae2c">
      <rect class="uuid-0842cef5-0912-4a70-b476-a450e20a862d" x="51.96" y="51.97" width="12.85" height="8.28"></rect>
    </clipPath>
    <clipPath id="uuid-345b9d05-c0e1-4907-88e7-9b59c151193b">
      <rect class="uuid-0842cef5-0912-4a70-b476-a450e20a862d" x="51.96" y="51.97" width="12.85" height="8.28"></rect>
    </clipPath>
    <clipPath id="uuid-37fa3b52-0089-4eec-aee6-086333b44744">
      <rect class="uuid-0842cef5-0912-4a70-b476-a450e20a862d" x="59.96" y="49.6" width="2.26" height=".86"></rect>
    </clipPath>
    <clipPath id="uuid-fbb46195-fe49-4825-ba01-eeeb49879f87">
      <rect class="uuid-0842cef5-0912-4a70-b476-a450e20a862d" x="59.96" y="49.6" width="2.26" height=".86"></rect>
    </clipPath>
    <clipPath id="uuid-bd7f4868-191c-420c-8b7e-fb042c874fbe">
      <rect class="uuid-0842cef5-0912-4a70-b476-a450e20a862d" x="43.86" y="89.5" width="32.84" height="18.55"></rect>
    </clipPath>
    <clipPath id="uuid-cf56e93e-b9e1-4506-839e-042434c7a3bf">
      <rect class="uuid-0842cef5-0912-4a70-b476-a450e20a862d" x="43.86" y="89.5" width="32.84" height="18.55"></rect>
    </clipPath>
    <clipPath id="uuid-4edfd06a-bad7-4853-b4a7-9ac1153207b6">
      <rect class="uuid-0842cef5-0912-4a70-b476-a450e20a862d" x="43.52" y="107.25" width="35.89" height="1.13"></rect>
    </clipPath>
    <clipPath id="uuid-5378df11-9809-49c7-99cb-b4b83b75439d">
      <rect class="uuid-0842cef5-0912-4a70-b476-a450e20a862d" x="43.52" y="107.25" width="35.89" height="1.13"></rect>
    </clipPath>
    <clipPath id="uuid-7922a834-f0af-452e-ad97-e43784c1f824">
      <rect class="uuid-0842cef5-0912-4a70-b476-a450e20a862d" x="47.33" y="89.5" width="35.82" height="1.42"></rect>
    </clipPath>
    <clipPath id="uuid-8a2aea1a-9b4e-4058-9e31-0ad4353a0ed9">
      <rect class="uuid-0842cef5-0912-4a70-b476-a450e20a862d" x="47.33" y="89.5" width="35.82" height="1.42"></rect>
    </clipPath>
    <clipPath id="uuid-fafd3d7e-394d-45ff-8263-a8a1d2be3355">
      <rect class="uuid-0842cef5-0912-4a70-b476-a450e20a862d" x="50.91" y="72.59" width="17.23" height="4.58"></rect>
    </clipPath>
    <clipPath id="uuid-a5f82258-9fd6-4e58-a676-48ca2cc27074">
      <rect class="uuid-0842cef5-0912-4a70-b476-a450e20a862d" x="50.91" y="72.59" width="17.23" height="4.58"></rect>
    </clipPath>
  </defs>
  <g class="uuid-07584e21-5a4f-4c51-8ae8-e6e394f3ce1a">
    <g id="uuid-bfb8f46b-bdc0-4921-806c-436d83ef44cb">
      <circle class="uuid-acdd582a-fa1d-4c45-8607-7972c45ee2b0" cx="60.2" cy="60.52" r="50"></circle>
      <g>
        <path class="uuid-1781a59c-b2c2-4819-b17d-1f4a5b33e3a7" d="M28.28,96.12c0-.15,.44-.28,1.24-.4-.05-.19-.08-.39-.1-.59-.12-1.23,.24-2.61,.76-3.82,.25-.58,.55-1.07,.89-1.46,.86-1.01,1.98-1.43,3.23-1.45,0,0,0,0,0,0,2.29-.38,7.47-.44,10.47,.13,.6,.11,1.25,.31,1.93,.54-1.23-2.8-2.17-5.6-2.46-8.07-.68-5.66,.14-11.62,.69-14.66,.41-2.25,.86-8.15,3.97-9.66h0s2.42-.99,2.42-.99c-.16-.37-.31-.8-.45-1.3-1-3.64-1.44-9.57,1.21-14.8h0c.42-3.99,3.25-5.79,4.91-6.26,.2-.34,.45-.62,.77-.8,.09-.05,.18-.09,.27-.13,0,0,.01,0,.02,0,1.28-.44,2.68-.66,4.1-.64,.5,0,1,.04,1.49,.11,.16,.02,.33,.05,.49,.08,.1,.02,.2,.04,.3,.06,1.41,.28,2.76,.83,3.95,1.66,1.23,.86,2.27,2.02,2.99,3.5,.57,1.18,.94,2.56,1.04,4.15,0,0,0,0,0,.02,.02,.35,.03,.68,.03,1.01,0,0,0,0,0,0,.42,1.66,.57,3.32,.55,4.91-.05,2.91-.69,5.61-1.48,7.68,.06,.02,.09,.03,.09,.05,0,.02-.05,.04-.13,.06-.11,.29-.22,.56-.34,.82-.12,.28-.25,.53-.37,.77,4.52,1.31,4.14,7.3,4.95,14.02,.27,2.21,.73,4.46,1.12,6.36,.6,2.91,.08,7.81-.7,12.48h5.88c.56,0,1,.25,1.24,.65,1.17-.27,2.12-.48,2.72-.62,2.78-.62,5.7,.5,6.77,3.56,.68,1.95,.17,4-1.39,5.15h0s0,0,0,0c0,0-.02,0-.03,.02-.38,.28-.83,.5-1.34,.66-.01,0-.03,.01-.04,.02,0,0,0,0,0,0-.06,.03-.12,.06-.19,.09-1.69,.76-4.67,1.95-8.7,3l-.94,4.25c-.08,.36-.26,.69-.51,.97h.13v2.27H43.82v-2.27h.48c-.13-.28-.16-.61-.08-.97l1.07-4.85c-3.9-.66-8.37-1.66-13.2-3.14-.08-.02-.16-.05-.24-.08-1-.36-1.64-.94-2.02-1.65-1-.13-1.55-.27-1.55-.44m44.47-18.24c-.41-1.99-.79-4.3-1.16-6.53-.43-2.62-1.18-4.47-1.74-6.53h0s0,0,0,0c0,.02,0,.03,0,.05-.05,.63,.02,1.28,.1,1.92,.02,.2,.05,.41,.07,.61,.04,.37,.06,.74,.05,1.1-.08,2.8-1.62,4.23-1.62,4.23,0,.02,0,.04,0,.06l-.45,3.54c-.09,.75-.16,1.42-.22,1.98-.02,.14-.03,.28-.04,.41-.07,.71-.1,1.21-.1,1.42,0,.08,0,.17,0,.28,0,.06,0,.14,.02,.21,0,.06,0,.13,.02,.2,.33,1.69,1.32,3.54,2.44,4.83,0,0,.99,1.65,1.85,3.43,.77-4.46,1.27-8.91,.8-11.22m-23.84-21.21s0,0,0,0c0,0,.03,.24,.08,.62-.04-.34-.07-.56-.08-.61h0Zm.88,8.18h0s0,.04,0,.06c0,0,0,0,0,0,0-.02,0-.04,0-.06m-.18,3.68c0-.36,.02-.72,.06-1.1,0-.05,.01-.11,.02-.16,.01-.12,.03-.23,.04-.35,0-.02,0-.03,0-.05,.04-.37,.07-.73,.08-1.1-.88,4.28-2.19,8.23-1.42,14.71,.16,1.38,.58,2.9,1.15,4.48,.99-1.24,2.08-2.66,2.47-4.09,0-.02,0-.04,0-.06,0,0,0,0,0,0h0s0-.02,0-.03v-.02s0-.05,0-.08c0-.07,0-.13,.02-.19,0-.12,0-.22,0-.31,0-.34-.09-1.45-.27-3.01h0s-.55-4.4-.55-4.4c0,0,0,0,0,0h0s-1.54-1.44-1.62-4.23"></path>
        <path class="uuid-1781a59c-b2c2-4819-b17d-1f4a5b33e3a7" d="M37.28,116.11h48.99v-7.58c.09-.28,.17-.56,.23-.84l.09-.42c2.46-.8,4.4-1.59,5.76-2.2l.46-.18c.26-.1,.51-.22,.76-.34l3.12-2.31c1.43-1.54,2.37-3.45,2.73-5.52l-.26-5.12c-.07-.25-.15-.49-.23-.74-2.07-5.93-8.1-9.22-14.35-7.81l-.4,.09c-.2-.06-.41-.1-.62-.14,.21-3,.11-5.41-.3-7.36-.38-1.84-.8-3.89-1.04-5.81-.13-1.08-.23-2.18-.33-3.24-.35-3.88-.79-8.69-3.32-12.2,.52-1.96,.94-4.36,.99-7.05,.03-1.97-.15-3.91-.54-5.76l.16-1.07-.31-.78c-.24-1.97-.77-3.82-1.59-5.51-1.18-2.44-2.92-4.47-5.15-6.03-1.86-1.3-3.98-2.2-6.3-2.68-.17-.04-.35-.07-.52-.1-.26-.05-.52-.09-.79-.12-.74-.1-1.5-.16-2.26-.17-2.12-.03-4.3,.31-6.28,1l-.43,.16c-.35,.14-.69,.31-1.01,.5-.47,.27-.92,.59-1.33,.95-3.21,1.57-6.46,4.78-7.41,9.86-.37,.82-.68,1.64-.94,2.46l-2.42,13.56c-2.67,3.32-3.36,7.85-3.78,10.63-.05,.33-.09,.63-.14,.87-.61,3.37-1.51,9.93-.78,16.38-1.54,.04-2.96,.14-4.07,.3-2.97,.19-5.63,1.5-7.53,3.72-.78,.9-1.43,1.96-1.94,3.14-.38,.89-.79,2.03-1.05,3.32-1.23,1.58-1.39,3.36-1.39,4.13,0,1.2,.37,4.72,4.5,6.32,.97,.85,2.11,1.52,3.41,1.99l.22,.07c.11,.04,.24,.08,.37,.12,2.31,.71,4.66,1.35,7.04,1.91v9.59Zm34.05-13.21h-19.67l1.06-4.78,6.05,2.09-4.63-10.51,.49-.61c.5-.63,1.02-1.3,1.52-2.02l14.72,14.86,.46,.97Zm6.29-6.81l-.25,.07v-.07h.25Zm-16.35-18.47c-.02,.14-.03,.28-.04,.42v.07s-.01,.04-.01,.07l-3.45-6.98v-1.34l-1.62-1.51c0-.08,.01-.15,.02-.23l.02-.21s0-.08,.01-.12l.06-.56c.04-.42,.07-.85,.08-1.27l-4.65-.55c.02-.11,.04-.23,.06-.35l4.58-.15v-1.62s-1.05-2.11-1.05-2.11l4.72-1.92-2.67-6.21s-.07-.18-.15-.44c-.74-2.68-.93-6.73,.73-10.01l.72-1.42v-1.13c.05-.23,.13-.33,.24-.39l2.44-.7,.35-.6c.14,0,.27-.01,.41,0,.25,0,.46,.02,.67,.05l.43,.07c.58,.12,1.1,.33,1.51,.62,.39,.27,.65,.57,.84,.97,.22,.45,.35,1,.39,1.66v.12c.01,.16,.02,.32,.02,.47v.95s.22,.8,.22,.8c.23,.97,.35,2.01,.33,3.11-.04,2.41-.67,4.43-1.05,5.42l-.06,.16c-.06,.16-.12,.31-.19,.46-.04,.09-.08,.18-.13,.27l-3.94,7.25,7.09,2.05c.12,.44,.22,1.05,.32,1.72l-5-1.26-.19,.79v.63c-.06,1.09,.03,2.04,.14,2.92l.06,.55c0,.08,.02,.15,.02,.23l-1.27,1.18-.76,6.04c-.09,.77-.17,1.48-.23,2.07"></path>
        <g class="uuid-c3564a30-327c-4187-bae4-baf55bb5d836">
          <g class="uuid-0f53235c-2ed1-4ec5-8bfe-17212a263ff4">
            <g class="uuid-39663a81-c059-4a2d-bd89-60dd993f7fd2">
              <path class="uuid-1c830fc4-3432-4f04-9b9a-2f0df6cc5b0c" d="M71.11,63.17c0,.18,.67,.32,1.49,.32s1.49-.14,1.49-.32-.67-.32-1.49-.32-1.49,.14-1.49,.32"></path>
            </g>
          </g>
        </g>
        <g class="uuid-c3564a30-327c-4187-bae4-baf55bb5d836">
          <g class="uuid-217e5a7d-ce71-4951-b790-5c91c1fb5222">
            <g class="uuid-aecd9c56-3b70-4e52-9227-452621efa4c4">
              <path class="uuid-1c830fc4-3432-4f04-9b9a-2f0df6cc5b0c" d="M64.06,54.99c0,.13,1.62,.23,3.62,.23s3.62-.1,3.62-.23-1.62-.23-3.62-.23-3.62,.1-3.62,.23"></path>
            </g>
          </g>
        </g>
        <path class="uuid-609e30d0-b138-4ab0-98ec-560a78725fbb" d="M64.91,48.17s0-.02,0-.03c0,0,0,.02,0,.03"></path>
        <path class="uuid-73e69cf5-52ff-4098-9433-668e64c7c635" d="M67.75,46.46s.3,6.61,.5,8.57h-1.03c.2-2.22,.25-7.58,.52-8.57"></path>
        <path class="uuid-69ba8923-02f5-4126-9596-f71f6268111f" d="M64.86,46.32c0,2.59,0,4.69,2.82,4.69,2.61,0,2.82-2.1,2.82-4.69s-1.26-4.69-2.82-4.69-2.82,2.1-2.82,4.69"></path>
        <path class="uuid-69ba8923-02f5-4126-9596-f71f6268111f" d="M64.86,46.32c0,.46,0,.91,.02,1.34,0,.17,.01,.33,.03,.49h0s0,.02,0,.03h0c.09,1.15,.38,2.06,1.23,2.52,1.17,.11,2.17-.32,3.02-1.54,.85-1.22,.99-3.94,.94-5.27-.45-1.22-1.22-2.08-2.12-2.23-.09-.02-.19-.02-.28-.02-1.56,0-2.82,2.1-2.82,4.69"></path>
        <g class="uuid-3816d549-24b9-4d1a-a251-8c35871a8f89">
          <g class="uuid-9c143d58-3abd-45be-ac05-e021f5f0040a">
            <g class="uuid-99b7eaa5-16e8-45ab-a046-a8bee9527d2b">
              <path class="uuid-609e30d0-b138-4ab0-98ec-560a78725fbb" d="M66.14,50.69c.39,.21,.89,.32,1.54,.32,2.61,0,2.82-2.1,2.82-4.69,0-.89-.15-1.73-.41-2.44,0,0,0,0,0,0,.06,1.33-.08,4.05-.94,5.27-.85,1.22-1.85,1.65-3.02,1.54"></path>
            </g>
          </g>
        </g>
        <path class="uuid-609e30d0-b138-4ab0-98ec-560a78725fbb" d="M64.86,46.32c0,.46,0,.91,.02,1.34,0-.77,.24-1.69,.62-2.81,.45-1.33,1.62-2.8,2.47-3.2-.09-.02-.19-.02-.28-.02-1.56,0-2.82,2.1-2.82,4.69"></path>
        <g class="uuid-b619df22-7ef6-46e7-9886-6e81c176a45b">
          <g class="uuid-c7fc8a06-4388-4819-b2e0-58ce3afa9d68">
            <g class="uuid-cf3ca45d-7372-454d-8f29-973b3615f9dc">
              <path class="uuid-9be6ff90-6dfe-4853-ba7c-d67515b9d21f" d="M64.86,46.32c0,.46,0,.91,.02,1.34,0-.77,.24-1.69,.62-2.81,.45-1.33,1.62-2.8,2.47-3.2-.09-.02-.19-.02-.28-.02-1.56,0-2.82,2.1-2.82,4.69"></path>
            </g>
          </g>
        </g>
        <path class="uuid-609e30d0-b138-4ab0-98ec-560a78725fbb" d="M86.05,51.86s0-.01,0-.02c0,0,0,.01,0,.02"></path>
        <g class="uuid-b619df22-7ef6-46e7-9886-6e81c176a45b">
          <g class="uuid-7a17d9f8-4249-416f-9ae8-d5aa7da68d3e">
            <g class="uuid-38dc6d56-2132-43ae-bde6-a361bd4df89e">
              <path class="uuid-ace9b796-d142-474d-8509-4460165d0889" d="M29.1,95.13c.13,1.33,.81,2.49,2.43,3.08,.08,.02,.16,.05,.24,.08,4.83,1.48,9.31,2.47,13.2,3.14l-1.07,4.85c-.08,.36-.04,.69,.08,.97h-.48v2.26h35.91v-2.26h-.13c.25-.28,.43-.61,.51-.97l.94-4.25c4.03-1.05,7-2.24,8.7-3h-.1s0-.01,0-.01l-4.74-.65-1.37-.19h0l-1.58-.22-3.22-.44c-.88-1.76-2.1-3.57-2.1-3.57-.43-.43-.84-.92-1.19-1.43-.12-.17-.23-.34-.33-.51-.22-.36-.41-.73-.56-1.09-.2-.48-.34-.97-.4-1.42h-2c-.89-1.92-2.03-3.82-2.03-3.82-1.12-1.29-2.11-3.14-2.44-4.83,0-.07-.01-.13-.02-.2,0-.08-.01-.15-.02-.21,0-.11,0-.2,0-.28,0-.21,.04-.71,.1-1.42,.01-.13,.02-.27,.04-.41,.08-.86,.21-1.97,.37-3.23,.09-.73,.2-1.52,.31-2.34,0,0,1.54-1.43,1.62-4.23,0-.36-.02-.73-.05-1.1-.02-.2-.05-.41-.07-.61-.08-.64-.15-1.29-.1-1.92,0-.02,0-.03,0-.05,.32-4.03,.88-7.89,.92-8.17h0c.13-.24,.25-.5,.38-.78,.95-2.16,1.81-5.25,1.86-8.62-.52-.05-1.05-.08-1.57-.09-.66-.02-1.3-.01-1.93,.02h0c-.19,0-.37,.02-.56,.03,0,0-.02,0-.03,0,0,0-.02,0-.03,0-.13,.01-.25,.03-.38,.06-.46,.09-.84,.28-1.15,.53-1.71,.07-4.41,.64-6.14,2.3-.1,.1-.21,.21-.3,.32-.44,.48-.79,1.06-1.03,1.72,0,0,0,0,0,0-.2,.18-.39,.36-.57,.55-.29,.29-.55,.58-.8,.88-.23,.28-.45,.56-.65,.85-.45,.65-.82,1.31-1.12,1.97-.28,.61-.49,1.23-.66,1.84-.11,.42-.2,.84-.27,1.25-.23,1.46-.19,2.86,.02,4.07h0c.04,.26,.09,.5,.15,.74,.11,.44,.24,.83,.39,1.17l-3.37,.38s0,0,0,0h0c0,.21,.15,3.55-.05,6.99,0,.01,0,.03,0,.04-.03,.55-.24,1.1-.44,1.64,0,.01,0,.03-.02,.04-.03,.1-.07,.19-.11,.28-.02,.05-.03,.09-.05,.13-.11,.31-.2,.61-.24,.91-.05,.33-.05,.64-.02,.92,.16,1.81,1.51,2.91,1.51,2.91,.02,.54,.03,1.07,.04,1.57,.04,2.43-.02,4.27-.09,4.75,0,.01,0,.02,0,.03-.01,.07-.03,.16-.06,.25-.02,.05-.03,.1-.05,.15,0,.02-.01,.04-.02,.06v.02s0,.01,0,.01h0s0,.02,0,.02c0,.01,0,.03-.01,.05-.71,1.08-2.27,2.03-3.72,2.87-.26,.15-.52,.3-.77,.44-.09,.05-.17,.1-.26,.15-.27,.14-.52,.28-.77,.43-.69,.42-1.27,.87-1.75,1.29-.31,.27-.57,.54-.79,.77l-.02,.02c-.07-.03-.14-.05-.22-.08h0c-.68-.25-1.34-.47-1.96-.66-.18-.05-.35-.1-.52-.14-.88-.23-1.9-.45-3.01-.66-2.79-.53-6.06-.97-8.55-1.2-.34,.39-.64,.88-.89,1.46-.52,1.21-.88,2.59-.76,3.82"></path>
            </g>
          </g>
        </g>
        <path class="uuid-fce6d2e4-a89f-4c35-913f-92b830d42ea2" d="M39.84,93.07l6.78,.92,1.11,.15,.97,.13,5.05,.69,.38,.05,2.03,.27,1.69,.23,.64,.09,4.97,.67,.81,.11h.03s2.81,.38,2.81,.38c0,0,.37-.2,.92-.51,1.62-.93,4.83-2.85,4.83-3.55,0-.08,0-.16-.01-.24-.02-.17-.05-.36-.1-.56-.07-.3-.18-.63-.31-.97-.17-.45-.38-.94-.6-1.42-.89-1.92-2.03-3.82-2.03-3.82,0,0-.04,0-.12,.01-.02,0-.05,0-.08,0-.88,.08-4.66,.43-8.72,.51-.15,0-.3,0-.45,0-.36,0-.72,0-1.09,0-1.85,0-3.58-.05-5.08-.13-.16,0-.32-.02-.48-.02-.14,0-.27-.01-.4-.02-.05,0-.09,0-.14,0-.17-.01-.33-.02-.49-.03,0,0,0,0,0,0-.3-.02-.59-.04-.87-.06h0c-.18-.01-.36-.03-.53-.04-.08,0-.17-.01-.25-.02h-.02c-.21-.02-.41-.03-.59-.05-1.15-.1-1.82-.18-1.82-.18-1.02,1.15-1.7,2.48-2.11,3.46-.21,.5-.35,.91-.42,1.16-.05,.16-.08,.26-.08,.26l-1.82,.75-1.4,.57h-.01s-.09,.04-.09,.04l-.11,.05-2.78,1.13Z"></path>
        <path class="uuid-fce6d2e4-a89f-4c35-913f-92b830d42ea2" d="M61.63,104.18c.65,.02,1.28,.02,1.91,.02,6.84,0,12.67-1,17.19-2.18,4.03-1.05,7-2.24,8.7-3,.07-.03,.13-.06,.19-.09,0,0,0,0,0,0,.86-.39,1.35-.65,1.41-.69,0,0,0,0,0,0l-7.83-.07h-1.63s-11.95-.12-11.95-.12l-4.19-.04s-.08,.02-.24,.07c-.26,.07-.71,.19-1.28,.36-.21,.06-.43,.13-.67,.2-.51,.15-1.09,.33-1.7,.53-.31,.1-.63,.2-.95,.31-.59,.2-1.2,.41-1.78,.63-2.14,.81-4.02,1.71-4.23,2.47-.24,.82,1.5,1.47,7.03,1.61"></path>
        <g class="uuid-557f13b9-f241-4a7d-beba-ea728375f7f9">
          <g class="uuid-9d4dcbb6-1a4d-4870-927b-cc115368093c">
            <g class="uuid-fb567227-24f7-4f93-8727-4288e2ac8611">
              <path class="uuid-77596bf6-60b4-4085-9251-17d87ff64161" d="M64.63,99.42s-3.9,.28-6.53-.22c-2.63-.5-3.83-1.54-4.39-2.44-.79-1.26,.88-3.14,.88-3.14l10.04,5.8Z"></path>
            </g>
          </g>
        </g>
        <path class="uuid-fce6d2e4-a89f-4c35-913f-92b830d42ea2" d="M32.77,89.3l27.1,7.24s0,0,0,0c-.2-.14-2.13-1.48-4.69-3.04-1.68-1.03-3.65-2.14-5.56-3.07-.16-.08-.32-.16-.48-.23h0c-1.69-.79-3.32-1.42-4.68-1.67-3.01-.57-8.18-.51-10.47-.13-1.9,.31-1.21,.91-1.21,.91"></path>
        <path class="uuid-6a4dcf5c-483a-4cf2-ab27-f3ae363bdf0b" d="M63.11,94.68s18.63-4.27,22.55-5.15c2.78-.62,5.7,.5,6.77,3.56,.88,2.52-.22,5.21-3.01,5.9-11.78,2.93-21.16,1.88-25.01,1.66l-1.3-5.96Z"></path>
        <path class="uuid-6a4dcf5c-483a-4cf2-ab27-f3ae363bdf0b" d="M29.1,95.13c.13,1.33,.81,2.49,2.43,3.08,.08,.02,.16,.05,.24,.08,4.83,1.48,9.31,2.47,13.2,3.14,3.84,.65,7.11,.98,9.62,1.15,1.41,.09,2.58,.13,3.47,.14l.77-2.61,.22-.75,.79-2.69,.03-.12h0s0,0,0,0c0,0,0,0,0,0,0,0,0,0,0,0,0,0,0,0,0,0-.06-.02-.26-.09-.59-.2-.63-.21-1.73-.59-3.11-1.05h0c-.67-.23-1.42-.48-2.2-.75-2.11-.71-4.55-1.53-6.94-2.34-.4-.13-.8-.27-1.2-.4-.53-.18-1.06-.35-1.58-.53-3.29-1.1-6.17-2.04-7.48-2.44-.27-.08-.54-.15-.82-.22-.68-.15-1.33-.24-1.95-.22h0c-1.25,.03-2.37,.44-3.23,1.45-.34,.39-.64,.88-.89,1.46-.52,1.21-.88,2.59-.76,3.82"></path>
        <path class="uuid-753e295f-5274-4900-b8ce-9478e0794dcd" d="M50.57,54.37c.14,.5,.29,.93,.45,1.3,.42,.98,.91,1.56,1.44,1.91,.38,.25,.78,.39,1.19,.47,.1,.02,.2,.04,.32,.05,.48,.07,1.13,.1,1.83,.12,.47,.01,.96,.02,1.44,.01,.02,0,.04,0,.06,0h.02s.03,0,.05,0t0,0c.11,0,.22,0,.33,0,.7,0,1.35-.02,1.85-.04,.49-.01,.83-.03,.94-.03,.12,.02,.54,.1,1.13,.21,.47,.08,1.05,.18,1.67,.28,.07,.01,.15,.02,.22,.03h0s.07,.01,.11,.02h0c.93,.14,1.91,.27,2.69,.33,.38,.03,.71,.04,.96,.02,1.06-.05,2.16-.46,3.2-2.41h0c.13-.24,.25-.5,.38-.78,.95-2.16,1.81-5.25,1.86-8.62,.02-1.6-.13-3.26-.55-4.91,0-.04-.02-.07-.03-.11,0,0,0-.01,0-.02-.55-2.12-1.53-4.24-3.09-6.2-1.61-2.02-3.51-2.81-4.89-3.11-.1-.02-.2-.04-.3-.06-.17-.03-.33-.06-.49-.08-.59-.07-1-.06-1.12-.06-.06,0-.19-.03-.37-.05-.71-.08-2.29-.16-4.1,.64,0,0-.01,0-.02,0-.02,.01-.05,.02-.07,.03-.06,.03-.13,.06-.2,.09-.36,.18-.72,.38-1.09,.64-.38,.26-.77,.57-1.15,.93-1.49,1.4-2.62,2.96-3.44,4.58h0c-2.65,5.23-2.21,11.16-1.21,14.8"></path>
        <path class="uuid-f6812e63-7f88-44d4-8793-4a45598790df" d="M48.67,85.65s.67,.08,1.82,.18c.19,.02,.39,.03,.59,.05h.02c.08,0,.17,.01,.25,.02,.17,.01,.35,.03,.53,.04h0c.27,.02,.56,.04,.87,.06,0,0,0,0,0,0,.16,.01,.32,.02,.49,.03,.04,0,.09,0,.14,0,.13,.01,.27,.02,.4,.02,.16,0,.31,.02,.48,.02,1.51,.08,3.23,.13,5.08,.13,.37,0,.73,0,1.09,0,.15,0,.3,0,.45,0,4.45-.07,7.88-.42,8.72-.51,.03,0,.06,0,.08,0,.08,0,.12-.01,.12-.01-1.12-1.29-2.11-3.14-2.44-4.83-.41-2.1,0-3.92,0-3.92h-1.22s-13.19-.1-13.19-.1h-1.16s-.08-.01-.08-.01c0,0,0,.01,0,.03,0,0,0,.01,0,.02h0s0,.02,0,.02c-.04,.35,.49,2.15,0,3.98-.46,1.7-1.92,3.4-3.03,4.79"></path>
        <path class="uuid-fd503145-1d1c-4638-b517-c630299b37ff" d="M48.59,56.66s0,0,0,.01h0c.03,.24,.56,4.13,.88,8.18,0,.01,0,.04,0,.06,.05,.65,.01,1.3-.07,1.96,0,.02,0,.03,0,.05-.01,.12-.03,.23-.04,.35,0,.06-.01,.11-.02,.16-.04,.38-.06,.74-.06,1.1,.08,2.8,1.62,4.23,1.62,4.23,.52,3.76,.82,6.8,.82,7.41,0,.09,0,.19-.01,.31,0,.06-.01,.12-.02,.19,0,.02,0,.05,0,.08v.02s0,.01,0,.02h0s0,.02,0,.02c0,.02,0,.04,0,.06,.17,.05,.35,.1,.54,.15,.19,.05,.39,.1,.6,.15,.16,.04,.33,.08,.5,.12,1.69,.38,3.99,.73,6.33,.79v-.03c2.55-.07,4.85-.48,6.56-.9h0c.11-.02,.21-.05,.3-.07,.3-.07,.58-.15,.83-.23,0-.07-.01-.13-.02-.2,0-.08-.01-.15-.02-.21,0-.11,0-.2,0-.28,0-.21,.04-.71,.11-1.42,.01-.13,.02-.27,.04-.41,.08-.86,.21-1.97,.37-3.23,.09-.73,.2-1.52,.31-2.34,0,0,1.54-1.43,1.62-4.23,0-.36-.02-.73-.05-1.1-.02-.2-.05-.41-.07-.61-.08-.64-.15-1.29-.1-1.92,0-.02,0-.03,0-.05,.32-4.03,.88-7.89,.92-8.17h0s0-.02,0-.02l-3.35-1.36-2.3-.94h0l-2.09-.85h0l-.11-.04h0v3.65h-3v.02h-3.15v-3.65h-.04s-.03,.02-.03,.02h0s0,0,0,0h-.03s-3.08,1.27-3.08,1.27l-1.14,.47h-.02s-.16,.07-.16,.07l-.93,.38-2.42,.99Z"></path>
        <path class="uuid-77596bf6-60b4-4085-9251-17d87ff64161" d="M52.08,55.41c0,1.44,1.79,9.9,7.52,9.93,5.73-.04,7.52-8.49,7.52-9.93,0-.06,0-.1,0-.14l-4.39-1.79h0l-.11-.05h0l-.22,.02-2.78,.23-1.51-.12-1.31-.11-.18-.02s-.05,0-.14,.03h0s-.03,0-.05,.01c0,0-.02,0-.03,0h0s-.06,.01-.09,.02c0,0,0,0,0,0l-3.11,1.27s-.01,0-.01,0l-1.04,.42s0,.02,0,.03c0,.01,0,.02-.01,.04,0,.03,0,.08,0,.14"></path>
        <g class="uuid-557f13b9-f241-4a7d-beba-ea728375f7f9">
          <g class="uuid-264a63b8-c832-4d81-8d99-d5c08dfb9fda">
            <g class="uuid-16243f9a-51ae-42fd-b742-80f8614e874e">
              <path class="uuid-f6812e63-7f88-44d4-8793-4a45598790df" d="M58.76,84.25c0,.21,.21,.39,.47,.39s.47-.17,.47-.39-.21-.39-.47-.39-.47,.17-.47,.39"></path>
            </g>
          </g>
        </g>
        <path class="uuid-77596bf6-60b4-4085-9251-17d87ff64161" d="M67.67,49.53c.03,.06,.06,.11,.1,.16,.1,.14,.23,.25,.39,.31,.05,.02,.09,.03,.14,.04,.09,.02,.18,.02,.28,.01,0,0,0,0,0,0,.06,0,.12-.02,.18-.04,.38-.11,.74-.45,.93-.93,.28-.69,.09-1.43-.41-1.69-.03-.01-.05-.03-.08-.04-.56-.23-1.24,.18-1.53,.91-.18,.45-.16,.91,0,1.25"></path>
        <path class="uuid-77596bf6-60b4-4085-9251-17d87ff64161" d="M54.5,47.29c.18,.76-.15,1.5-.73,1.64-.59,.14-1.21-.36-1.39-1.13-.18-.76,.15-1.5,.73-1.64,.59-.14,1.2,.36,1.39,1.13"></path>
        <g class="uuid-557f13b9-f241-4a7d-beba-ea728375f7f9">
          <g class="uuid-c2bdc1d2-7f11-41c9-b284-17793b099e30">
            <g class="uuid-94928bc4-8afc-4b5c-9626-a848dfea21e6">
              <path class="uuid-77596bf6-60b4-4085-9251-17d87ff64161" d="M64.81,54.34s-2.28,4.11-5.44,5.58c-3.16,1.47-6.19-2.17-7.27-4.71-1.08-2.54,4.36-3.23,4.36-3.23l8.35,2.36Z"></path>
            </g>
          </g>
        </g>
        <path class="uuid-22c7cd72-7a1e-4191-9a9a-e7c9104b0fda" d="M62.09,35.72c4.54,.34,7.2,3.17,7.44,7.7h0c.02,.38,.02,.77,.01,1.18h0c0,.2-.02,.4-.03,.61-.01,.18-.03,.36-.05,.54-.02,.14-.04,.28-.06,.43h0c-.02,.1-.03,.2-.05,.29-.06,.31-.12,.62-.2,.93-.23,.91-.56,1.8-.97,2.64h0s-.04,.08-.05,.11h0c-.11,.22-.22,.44-.34,.65h0c-.04,.07-.07,.13-.11,.2,0,0,0,0,0,0-.56,.97-1.22,1.85-1.95,2.6-.73,.76-1.54,1.12-2.36,1.53-.01,0-.02,.01-.03,.02-.22,.11-.45,.23-.68,.34-.1,.05-.19,.09-.29,.13-.02,0-.03,.02-.05,.02-.34,.15-.68,.27-1.02,.34,0,0,0,0,0,0-.1,.02-.21,.04-.31,.04-.12,.01-.25,.01-.37,0-1.02-.08-1.87-.68-2.79-1.4-.04-.04-.09-.07-.14-.1,0,0,0,0,0,0-.65-.5-1.38-1.01-1.91-1.75-.61-.85-1.15-1.82-1.56-2.87h0c-.02-.06-.05-.12-.07-.18h0c-.08-.19-.15-.38-.21-.58,0,0,0,0,0,0-.02-.05-.03-.11-.05-.16h0c-.29-.9-.49-1.82-.6-2.76h0c-.03-.29-.06-.59-.07-.88h0s0-.04,0-.05h0s0-.02,0-.02h0s0-.01,0-.01c0-.27-.01-.55,0-.82,0-.15,.01-.29,.02-.43,.41-5.57,3.74-8.65,8.85-8.27"></path>
        <g class="uuid-557f13b9-f241-4a7d-beba-ea728375f7f9">
          <g class="uuid-0c184409-b4ef-4650-bad7-b9a0a188e3d5">
            <g class="uuid-1ce8e2a9-0ae6-4ba8-9e31-a5615ceb70fc">
              <path class="uuid-22c7cd72-7a1e-4191-9a9a-e7c9104b0fda" d="M62.19,49.6c-.1,.19-.24,.35-.42,.44-.17,.09-1.14,.09-1.32,0-.18-.1-.35-.25-.48-.44-.03,.21,.07,.44,.28,.62,.1,.09,.24,.16,.39,.2,.15,.04,.85,.05,.99,0,.14-.04,.27-.11,.37-.2,.2-.18,.27-.42,.2-.63"></path>
            </g>
          </g>
        </g>
        <path class="uuid-e07012eb-cd5d-4be5-9ea5-c398db26daa9" d="M57.39,38.52s.44,2.31-1.25,3.71c-1.69,1.4-2.86,3.98-2.86,3.98,0,0-1.9-2.95-1.51-6.63,.47-4.51,4.03-6.22,5.49-6.38,1.47-.16,.12,5.32,.12,5.32"></path>
        <path class="uuid-6648aea9-3073-4c0e-91d5-c92609abfb32" d="M56.3,37.29c.05,.22,.1,.43,.16,.61,.56,1.66,1.28,3.92,4.92,5.33,2.26,.88,3.91-.22,5.74,.48,1.27,.49,2.07,1.84,1.32,4.35-.59,2-1.72,3.08-2.4,3.83,.06-.02,.7-.23,1.55-.76,1.92-1.19,4.89-3.98,4.54-9.81,0,0,0,0,0-.02-.1-1.6-.47-2.98-1.04-4.15-.72-1.49-1.76-2.65-2.99-3.5-1.18-.83-2.54-1.38-3.95-1.66-.1-.02-.2-.04-.3-.06-.16-.03-.33-.06-.49-.08-.49-.07-.99-.11-1.49-.11-1.42-.02-2.82,.2-4.1,.64,0,0-.01,0-.02,0-.09,.03-.18,.07-.27,.13-1.34,.75-1.51,3.14-1.17,4.76"></path>
        <polygon class="uuid-fd503145-1d1c-4638-b517-c630299b37ff" points="67.86 44.43 69.83 41.76 68.9 41.07 66.94 43.73 67.86 44.43"></polygon>
        <path class="uuid-fa4fa9e3-46e6-49a3-94eb-e002ae1b3418" d="M62.78,52.17s-.04,.03-.06,.04c.2-.12,.37-.24,.5-.34-.1,.07-.25,.18-.44,.3"></path>
        <path class="uuid-fa4fa9e3-46e6-49a3-94eb-e002ae1b3418" d="M58.67,51.74c.19,.16,.42,.35,.71,.52-.03-.02-.06-.04-.09-.06-.26-.18-.48-.35-.62-.46"></path>
        <path class="uuid-fa4fa9e3-46e6-49a3-94eb-e002ae1b3418" d="M58.5,51.59s.05,.06,.13,.12c-.05-.04-.09-.08-.13-.12"></path>
        <path class="uuid-1781a59c-b2c2-4819-b17d-1f4a5b33e3a7" d="M58.63,51.61s.22,.29,.65,.59c.03,.02,.06,.04,.09,.06,0,0,.01,0,.02,.01,.34,.22,.76,.42,1.26,.48,.03,0,.07,0,.1,.01,.03,0,.07,0,.1,0,.76,.04,1.42-.27,1.86-.55,0,0,0,0,.01,0,.02-.01,.04-.03,.06-.04,.29-.2,.43-.35,.45-.37-.05,.01-.38,.03-.89,.05-.03,0-.07,0-.1,0-.04,0-.09,0-.13,0-.37,.01-.78,.02-1.2,0-.45-.02-.87-.07-1.24-.12h0c-.15-.02-.29-.04-.41-.05-.02,0-.04,0-.07,0-.32-.04-.52-.05-.55-.07"></path>
        <path class="uuid-fa4fa9e3-46e6-49a3-94eb-e002ae1b3418" d="M58.12,51.18s.14,.19,.14,.19c0,.01,.09,.09,.23,.22,.01,0,.06,.01,.13,.02,.12,.01,1.59,.3,2.25,.33,.63,.03,2.18-.13,2.34-.15,.05,0,.09,0,.1-.01-.02,.02-.04,.04-.07,.05,.04-.03,.06-.05,.07-.05,.12-.1,.36-.28,.37-.29,0,0-.14,.04-.19,.05-.28,.06-1.4-.23-2.58-.28-1.1-.05-2.57,.11-2.8-.08"></path>
        <path class="uuid-fa4fa9e3-46e6-49a3-94eb-e002ae1b3418" d="M58.12,51.18s.43,2.15,2.69,2.26c1.72,.08,2.3-1.06,2.56-1.42,.1-.14,.33-.54,.33-.54,0,0-.2,.15-.2,.15,0,.01-.05,.05-.17,.15h0s-.04,.04-.07,.05c0,0-.01,0-.02,.01,0,0-.02,.01-.03,.02-.13,.1-.31,.22-.5,.34,0,0,0,0-.01,0-.5,.3-1.17,.49-1.85,.46-.75-.04-1.09-.17-1.46-.4,0,0-.01,0-.02-.01-.28-.17-.52-.36-.71-.52-.01,0-.02-.02-.03-.03-.05-.04-.09-.09-.13-.12h0c-.14-.13-.22-.22-.23-.24h0s-.15-.17-.15-.17"></path>
        <path class="uuid-fa4fa9e3-46e6-49a3-94eb-e002ae1b3418" d="M58.5,51.59h0s.08,.08,.13,.12c0,0,.02,.02,.03,.03,.14,.11,.35,.28,.62,.46-.43-.3-.63-.56-.65-.59-.07,0-.11-.02-.13-.02"></path>
        <path class="uuid-fa4fa9e3-46e6-49a3-94eb-e002ae1b3418" d="M62.78,52.17c.18-.12,.34-.23,.44-.3,0,0,.02-.01,.03-.02,.03-.03,.06-.05,.09-.07-.01,0-.05,0-.1,.01-.02,.02-.16,.17-.45,.37"></path>
        <path class="uuid-dceb202f-ef7a-4c81-9567-c8896211b1ea" d="M63.26,46.01c.05,.09,.15,.12,.23,.06,.65-.45,1.39-.82,2.17-1.01,.78-.18,1.64-.1,2.45,.16,.1,.03,.21,0,.26-.08,.04-.08-.02-.2-.12-.24-.42-.18-.84-.32-1.29-.4-.44-.08-.91-.11-1.37-.05-.91,.11-1.74,.43-2.51,.85-.1,.05-.14,.17-.08,.26l.27,.44Z"></path>
        <path class="uuid-dceb202f-ef7a-4c81-9567-c8896211b1ea" d="M59.64,45.48c-.06,.09-.16,.11-.23,.05-.62-.49-1.34-.91-2.11-1.14-.77-.23-1.64-.2-2.46,.01-.1,.03-.21-.02-.25-.1-.03-.08,.03-.19,.13-.23,.43-.16,.86-.26,1.31-.32,.45-.05,.92-.05,1.37,.03,.9,.17,1.71,.54,2.46,1,.09,.06,.12,.18,.07,.27l-.29,.43Z"></path>
        <path class="uuid-30f54a2d-b1c4-4f49-a91d-2f75c0423578" d="M64.75,46.9c-.01,.44,.38,.8,.87,.81,.49,.01,.9-.33,.91-.77,.01-.44-.38-.8-.87-.81-.49-.01-.9,.33-.91,.77"></path>
        <path d="M65.09,47.09c0,.33,.24,.6,.57,.6,.32,0,.59-.25,.6-.57,0-.33-.25-.59-.57-.6-.32,0-.59,.25-.6,.57"></path>
        <path class="uuid-1781a59c-b2c2-4819-b17d-1f4a5b33e3a7" d="M65.68,46.93c0,.2,.15,.36,.34,.37,.19,0,.36-.15,.36-.35,0-.2-.15-.36-.34-.37-.19,0-.36,.15-.36,.35"></path>
        <path class="uuid-4d5f44fb-f612-438a-83f4-b6e38eec02f8" d="M63.75,46.5s1.12-1.84,2.85-1.03c.23,.11,.64,.65,.61,.93,0,0-2.3,.32-3.45,.09"></path>
        <path class="uuid-d7ff8420-7174-4d85-8d80-0d8072eea74e" d="M67.42,47.18c-.09-.1-.21-.59-.26-.66,.03,.06,.13,.57,.19,.68-.16,.05-.35,.1-.55,.13l-.09-.78,.04,.79c-.24,.04-.51,.07-.78,.1l-.06-.85v.85c-.23,.02-.92,.03-1.09,0l-.03-.73s.02,.52,0,.72c-.13,0-.25-.02-.36-.02,0-.15-.03-.62-.01-.75,0,0,0,.54-.03,.75-.11,0-.21,0-.31,0,.02-.16-.01-.65,0-.75,0,0-.01,.54-.07,.75-.07,0-.14,0-.2,0l.05-.66s-.03,.51-.1,.66c-.17,0-.27,0-.27,0,.23-.16,.29-.92,.29-.92,2.01,.2,3.44-.22,3.44-.22l.44,.81c-.06,.03-.14,.07-.21,.09"></path>
        <path class="uuid-d7ff8420-7174-4d85-8d80-0d8072eea74e" d="M67.34,46.7c-.19,.3-.46,.54-.76,.7-.3,.16-.64,.24-.99,.24-.34,0-.68-.07-.99-.21-.31-.15-.61-.35-.85-.61,.19,.3,.48,.54,.8,.71,.32,.18,.68,.27,1.05,.26,.36,0,.73-.1,1.04-.29,.31-.19,.57-.47,.71-.8"></path>
        <path class="uuid-30f54a2d-b1c4-4f49-a91d-2f75c0423578" d="M58.09,46.27c-.01,.44-.42,.78-.92,.76-.49-.02-.88-.38-.87-.82,.01-.44,.42-.78,.92-.76,.49,.02,.88,.38,.87,.82"></path>
        <path d="M57.74,46.44c0,.33-.28,.58-.6,.57-.32-.01-.57-.28-.56-.61,0-.33,.28-.58,.6-.57,.32,.01,.58,.28,.56,.61"></path>
        <path class="uuid-1781a59c-b2c2-4819-b17d-1f4a5b33e3a7" d="M57.17,46.25c0,.2-.17,.35-.36,.35-.19,0-.35-.17-.34-.37,0-.2,.17-.36,.36-.35,.19,0,.35,.17,.34,.37"></path>
        <path class="uuid-4d5f44fb-f612-438a-83f4-b6e38eec02f8" d="M59.11,45.93s-1.01-1.91-2.78-1.19c-.23,.09-.68,.61-.66,.89,0,0,2.28,.46,3.44,.3"></path>
        <path class="uuid-d7ff8420-7174-4d85-8d80-0d8072eea74e" d="M55.41,46.39c.09-.09,.25-.57,.29-.64-.03,.06-.16,.56-.23,.67,.16,.06,.34,.12,.54,.17l.13-.77-.09,.78c.24,.06,.5,.11,.77,.14l.11-.84-.06,.85c.24,.03,.92,.09,1.1,.07l.07-.73s-.05,.52-.03,.72c.13,0,.25,0,.36,0,0-.15,.07-.62,.06-.75,0,0-.04,.54,0,.75,.11,0,.21,.01,.31,.02,0-.16,.05-.65,.04-.75,0,0-.02,.54,.02,.75,.07,0,.14,0,.2,0v-.66s0,.51,.06,.67c.17,0,.27,0,.27,0-.22-.17-.23-.94-.23-.94-2.02,.08-3.42-.42-3.42-.42l-.49,.78c.06,.04,.13,.07,.21,.11"></path>
        <path class="uuid-d7ff8420-7174-4d85-8d80-0d8072eea74e" d="M55.51,45.92c.18,.31,.43,.56,.72,.74,.29,.18,.63,.27,.97,.3,.34,.03,.68-.03,1.01-.15,.32-.13,.63-.31,.88-.56-.21,.29-.51,.51-.84,.66-.33,.16-.7,.23-1.06,.2-.36-.03-.72-.14-1.02-.35-.3-.21-.54-.5-.66-.84"></path>
        <path class="uuid-f6812e63-7f88-44d4-8793-4a45598790df" d="M72.44,77.88c-.41-1.99-.79-4.3-1.16-6.53-.43-2.62-1.18-4.47-1.74-6.53v-2.48s.92-5.71,.92-5.71c4.53,1.31,4.14,7.3,4.95,14.02,.27,2.21,.73,4.46,1.12,6.36,1.33,6.45-2.82,22.69-3.29,24.52l-4.05-1.08c1.23-4.71,4.2-17.94,3.24-22.58"></path>
        <path class="uuid-f6812e63-7f88-44d4-8793-4a45598790df" d="M44.61,66.32c.41-2.25,.86-8.15,3.98-9.66,0,0,.56,4.04,.7,5.81,.14,1.74,.23,3.15,.23,3.15-.88,4.34-2.23,8.3-1.45,14.86,1.04,8.68,11.86,23.04,11.97,23.19l-3.32,2.57c-.47-.63-11.63-15.42-12.8-25.25-.68-5.66,.14-11.62,.69-14.66"></path>
        <path class="uuid-d2063085-119e-4577-8395-896260134f23" d="M43.98,107.24h0c.21,.48,.69,.8,1.32,.8h32.31c.62,0,1.24-.32,1.67-.79h0c.25-.28,.43-.61,.51-.97l.94-4.25,.34-1.51,.52-2.36,.05-.2,1.48-6.69c.03-.12,.04-.23,.04-.34,0-.29-.07-.55-.2-.77-.24-.4-.68-.65-1.24-.65H49.4s-.03,0-.05,0c-.02,0-.04,0-.07,0-.02,0-.04,0-.06,0-.01,0-.02,0-.04,0-.03,0-.06,0-.09,.01-.05,0-.1,.02-.15,.03-.02,0-.04,.01-.06,.01-.03,0-.06,.02-.09,.03-.07,.02-.14,.05-.2,.08-.04,.02-.09,.04-.13,.06-.05,.03-.1,.05-.15,.08-.05,.03-.09,.06-.14,.09,0,0,0,0,0,0-.05,.03-.09,.07-.14,.1-.04,.03-.08,.07-.13,.11-.03,.03-.07,.06-.1,.09-.05,.05-.09,.1-.13,.15-.03,.04-.06,.08-.09,.12,0,.01-.02,.02-.02,.03-.09,.13-.17,.26-.23,.4,0,0,0,0,0,.01,0,.02-.02,.05-.03,.08,0,.02-.01,.03-.02,.04,0,.02-.01,.03-.02,.05-.02,.06-.04,.12-.05,.18l-.21,.93-.19,.86-.21,.93-1.64,7.44-1.07,4.85c-.08,.36-.04,.69,.08,.97"></path>
        <g class="uuid-f17edad6-0093-4843-a353-e4f1b960bee3">
          <g class="uuid-9ce7cbd5-9b69-4639-bf9d-b7d8518f7f8f">
            <g class="uuid-3271e23a-cc09-40c6-b47f-df5b9965c105">
              <path class="uuid-ace9b796-d142-474d-8509-4460165d0889" d="M43.98,107.24h0c.21,.48,.69,.8,1.32,.8h14.44l.79-.79h0s3.01-3.04,3.01-3.04l3.36-3.4,2.74-2.76,5.48-5.53,.75-.76,.83-.84-.21-1.42h-27.09s-.03,0-.05,0c-.02,0-.04,0-.07,0-.02,0-.04,0-.06,0-.01,0-.02,0-.04,0-.03,0-.06,0-.09,.01-.05,0-.1,.02-.15,.03-.02,0-.04,.01-.06,.01-.03,0-.06,.02-.09,.03-.07,.02-.14,.05-.2,.08-.04,.02-.09,.04-.13,.06-.05,.03-.1,.05-.15,.08-.05,.03-.09,.06-.14,.09,0,0,0,0,0,0-.05,.03-.09,.07-.14,.1-.04,.03-.08,.07-.13,.11-.03,.03-.07,.06-.1,.09-.05,.05-.09,.1-.13,.15-.03,.04-.06,.08-.09,.12,0,.01-.02,.02-.02,.03-.09,.13-.17,.26-.23,.4,0,0,0,0,0,.01-.01,.02-.02,.05-.03,.08,0,.02-.01,.03-.02,.04,0,.02-.01,.03-.02,.05-.02,.06-.04,.12-.05,.18l-.21,.93-.19,.86-.21,.93-1.64,7.44-1.07,4.85c-.08,.36-.04,.69,.08,.97"></path>
            </g>
          </g>
        </g>
        <rect class="uuid-bef8b433-97cf-4d44-a6fb-debda8965502" x="43.5" y="107.24" width="35.91" height="2.27"></rect>
        <path class="uuid-54775698-80ae-44ce-928f-c1cb9d4c49b0" d="M65.54,98.74c0,.67-.92,1.22-2.05,1.22s-2.05-.55-2.05-1.22,.92-1.22,2.05-1.22,2.05,.54,2.05,1.22"></path>
        <g class="uuid-557f13b9-f241-4a7d-beba-ea728375f7f9">
          <g class="uuid-783d1391-cdec-4a36-bbca-24cd9893be37">
            <g class="uuid-e086905e-5e4c-4eda-be9a-6f0fb8ef208e">
              <rect class="uuid-cc1deba7-c1f5-412a-9b35-964bc9dac99a" x="43.52" y="107.25" width="35.89" height="1.13"></rect>
            </g>
          </g>
        </g>
        <g class="uuid-b619df22-7ef6-46e7-9886-6e81c176a45b">
          <g class="uuid-3e63d728-ae99-4c57-ba61-c619dcf4eaa7">
            <g class="uuid-5e36617f-677a-40f4-9841-f21e3652378d">
              <path class="uuid-ace9b796-d142-474d-8509-4460165d0889" d="M47.33,90.92h35.82c0-.29-.07-.55-.2-.77-.24-.4-.68-.65-1.24-.65H49.4s-.03,0-.05,0c-.02,0-.04,0-.07,0-.02,0-.04,0-.06,0-.01,0-.02,0-.04,0-.03,0-.06,0-.09,.01-.05,0-.1,.02-.15,.03-.02,0-.04,.01-.06,.01-.03,0-.06,.02-.09,.03-.07,.02-.14,.05-.2,.07-.04,.02-.09,.04-.13,.06-.05,.03-.1,.05-.15,.08-.05,.03-.09,.06-.14,.09,0,0,0,0,0,0-.05,.03-.09,.07-.14,.1-.04,.03-.08,.07-.13,.11-.03,.03-.07,.06-.1,.09-.05,.05-.09,.1-.13,.15-.03,.04-.06,.08-.09,.12,0,.01-.02,.02-.02,.03-.09,.13-.17,.26-.23,.4,0,0,0,0,0,.01"></path>
            </g>
          </g>
        </g>
        <g class="uuid-557f13b9-f241-4a7d-beba-ea728375f7f9">
          <g class="uuid-fa17a1f3-705b-4bff-bc0d-fa2614946535">
            <g class="uuid-2dc61e6c-698a-470f-8ec1-12913a551a55">
              <path class="uuid-fd503145-1d1c-4638-b517-c630299b37ff" d="M68.14,72.74c-.67,.73-2.3,2.23-7.86,0-2.37-.95-4.61,3.08-9.37,.02l.55,4.4s5.9-4.25,8.06-4.36c2.18-.11,8.15,3.54,8.15,3.54l.46-3.6Z"></path>
            </g>
          </g>
        </g>
      </g>
    </g>
  </g>
</svg>
