<?xml version="1.0" encoding="UTF-8"?>
<svg xmlns="http://www.w3.org/2000/svg" xmlns:xlink="http://www.w3.org/1999/xlink" viewBox="0 0 120 120">
  <defs>
    <style>.uuid-a5718d00-2c30-4359-b4e8-3f35b992bf0b{fill:#f7f9ff;}.uuid-a276867a-603f-4891-877f-133a7e0ad610{fill:#2e2615;}.uuid-f42a1681-3d4a-4c1a-b81f-bd2fe1aa6999{fill:#dd5c52;}.uuid-5573418f-7e07-40f3-a56b-88b96fcc5301{fill:#fff;}.uuid-1dcd5c0d-3c8a-48b0-bb57-98690b704d9b{fill:#d97778;}.uuid-e35f713f-9c4a-48dc-8f35-3249ed50ca8f{clip-path:url(#uuid-1d40d7ab-13b8-4bcb-8bf4-249ec5858d4f);}.uuid-afbf8a8d-f846-41da-a05e-ef78837bfdd4{fill:#27971e;}.uuid-55704621-9fe0-4420-8dd0-1453cdf5757f{clip-path:url(#uuid-d39a382e-f3f2-4d29-be45-cf78ffb90c52);}.uuid-13f79763-3040-4f57-9d6f-a52e50011afc{fill:#dbf5fc;}.uuid-5a670fda-f6ad-42ad-9667-0d23ea0b8058{fill:#e9720d;}.uuid-21bbb905-a2f7-4580-aced-4a58fd1b336a{fill:#f5f5f5;}.uuid-0d59a551-8a72-4ffb-9129-9ab15cf2304b{clip-path:url(#uuid-535c2f2e-095b-486d-84b8-9a079c2fbde9);}.uuid-fab0b5ef-cc2b-4f7c-bf88-a999c855ca85{clip-path:url(#uuid-20b2b51e-007d-40da-8fc8-908fb0dbe88f);}.uuid-edc760a7-2b39-4294-bb4b-eca940782c70{isolation:isolate;}.uuid-ab2d79cc-0de3-491b-b2f3-9075b3d88265{fill:#473314;}.uuid-96177913-e0f1-40ad-b5d3-981742caae0f{fill:#dba46c;}.uuid-1651e814-89d7-4376-914b-ebf5dea2968d{fill:#120d03;}.uuid-d8667ec9-6335-4198-a6f5-0cac0127ed13{fill:#154185;}.uuid-5d125499-5009-4cd4-a049-38bbb75d9c20{clip-path:url(#uuid-35c61791-59a4-4eb6-8c3f-d9883300697f);}.uuid-23b7fe8f-f6f9-4280-b1ec-8baa98305a01{clip-path:url(#uuid-5d6b263e-3062-49d6-814b-75feacdfe39f);}.uuid-93216e2a-de08-47d1-a485-9cd3244e1d05{clip-path:url(#uuid-fc0d3c06-715a-4b06-b68d-74674de5e06f);}.uuid-91a26df1-0fc9-4cb6-a418-b5c15571b877{clip-path:url(#uuid-9b99cf4f-36b4-4a72-9285-d0d0ea812de5);}.uuid-8c86ae31-36dc-4f03-b423-3125b9251375{clip-path:url(#uuid-a5701f18-3a49-4d9e-8ec5-fda641966b78);}.uuid-82f8d7f3-283d-4026-810c-5e801621aee0{fill:#a67c52;}.uuid-72d89a04-8fc8-49bb-808a-41d05a25739a{fill:#3a9458;}.uuid-7a0471bd-d352-48f0-8f91-7cbaf5463dff{clip-path:url(#uuid-e867d4a8-f7ea-45e3-b624-1442c00db058);}.uuid-cdfd42af-7d13-4929-9ade-6d40d98cd132{clip-path:url(#uuid-465f3b0a-040f-483b-bdcb-2d272153eb74);}.uuid-95db9a10-90b5-4944-8b37-ac0d820811a3{fill:#d2f3fb;}.uuid-058248df-2607-4f5e-8670-7de8ba6aad4d{fill:#65b9f7;}.uuid-7b9a9737-f9b2-427b-a657-b695d2139f31{clip-path:url(#uuid-056cc25b-e4cb-4170-8ed3-855e0504b086);}.uuid-ebbabee8-a01b-4ee3-897a-562f87308742{opacity:.52;}.uuid-ebbabee8-a01b-4ee3-897a-562f87308742,.uuid-a8348cb7-9389-4980-a947-9aa4467cd672,.uuid-b29c2b78-46c9-4f1b-bce4-d13b5f62e380{mix-blend-mode:screen;}.uuid-4352a85d-0754-49a1-9e03-2266c2070171{clip-path:url(#uuid-41937f95-344e-46e5-81ea-7a765474c4b5);}.uuid-23b0b722-43f5-4c3c-9aa5-353fdd046f8c{clip-path:url(#uuid-896e61e8-89d4-4acf-a322-5fb394e09619);}.uuid-014694d6-0e81-4f88-8cb0-22050b4ca0f6{fill:#0060a7;}.uuid-9925e078-a72f-4426-9bf4-0fd39263877b{clip-path:url(#uuid-89d105f1-deee-464f-8ba7-9749d621ccb1);}.uuid-207bb88f-f764-471d-819e-55c803e0cb4a{fill:#ad550a;}.uuid-6e18b584-c12a-4796-a490-00d2dedc9301{fill:#d77879;}.uuid-7dbcdc97-ee3a-4ac3-97e4-c670baff17e3{fill:#102438;}.uuid-1b499d6b-e569-4f37-af3a-f19addea41aa{fill:#d43327;}.uuid-59717db7-ebd8-45e8-ad6e-5ebc07e18035{clip-path:url(#uuid-1afa8090-ead0-4d64-9224-25f8ffacd8ff);}.uuid-5eeb9495-d5c1-4964-8ebf-7f13908ce115{fill:#ed7d1f;}.uuid-d07e825b-47a4-4cae-98e9-e5f1b8061654{fill:none;}.uuid-0b190484-dc31-4f1a-9601-d49c65f463d1{fill:#aae2f0;}.uuid-29cb5eb4-373c-4bd0-91af-fa22c67f8c8a{fill:#3a7094;}.uuid-74544974-c8e3-4a50-a7d9-f86707996f08{clip-path:url(#uuid-cdef1d5a-c883-4d27-8a0f-1fbf56f6dd64);}.uuid-715fefd3-64db-468c-8d0d-d89127c03aae{clip-path:url(#uuid-4f2ae490-23c0-4bbf-a481-098f8c1ffa80);}.uuid-db84eff1-8e4a-4edf-852c-4e870605d490{clip-path:url(#uuid-837168e5-0727-40f5-aa2c-ef82ca8d5a9a);}.uuid-e61069bc-2f1b-4308-91f1-72d826431f06{clip-path:url(#uuid-0a596a8c-fd60-4b23-9667-1ea808b1e292);}.uuid-97914aaa-cf09-445a-a413-1251d2f432df{fill:#ffcc9c;}.uuid-54208a8c-4713-4075-81ae-ee111b92e6a9{clip-path:url(#uuid-e3df377e-4c1c-4ded-bbd1-bb7e1a5f59af);}.uuid-a8348cb7-9389-4980-a947-9aa4467cd672{opacity:.25;}.uuid-2c6bc9d0-d304-4a7b-ad9d-9f2e3c7fb29d{clip-path:url(#uuid-69625965-f5d9-4d1e-9198-ceb86ee7f210);}.uuid-9c14c08e-69d7-47b2-881b-ba1f27da1a0d{clip-path:url(#uuid-6d6452d3-8e21-4d30-ab6b-51f1e6ea232b);}.uuid-ef70a879-6732-48f8-9225-5194d70764d6{fill:#f5be86;}.uuid-f02ea260-ac4e-4439-86ef-488d2cc42686{clip-path:url(#uuid-3aa13b3b-a1f6-45ee-84fd-b311b631ce5c);}.uuid-f785b5db-5be1-4e54-b244-0e04c344d1cb{clip-path:url(#uuid-85956d13-e27f-4ec0-9d2f-0e161504baf9);}.uuid-b82b0adf-5287-4603-bb07-c8dd235b7a1d{fill:#1f1f1f;}.uuid-79b6b8a0-3aa9-489e-863e-df8997c72513{fill:#eda05a;}.uuid-56dade00-0218-41cb-919a-fbf7317d8279{clip-path:url(#uuid-62fc73f1-c2e4-4bd6-b9a3-42bc6e0f9308);}.uuid-6aa6e68e-31bb-40be-bffe-47ff4170ff17{fill:#cd5b5d;}.uuid-cc4da82f-5e9c-4f38-8a93-425ef1a79c83{fill:#1b4485;}.uuid-5fc978f3-dd3b-4ce1-bda2-29711549d2b8{mix-blend-mode:hard-light;opacity:.98;}.uuid-67a70b2f-2df0-4f45-99ba-a35678cc4c71{clip-path:url(#uuid-8cb8a855-49c3-4d39-afa3-c396dee8611f);}.uuid-1965eafc-23bf-41e6-8b70-8b22c8fb81b2{fill:#3b95d9;}.uuid-380aa3bf-fa04-417b-9558-dacb8b7082f5{clip-path:url(#uuid-c20516e7-2714-4e48-8e2f-c2872c24d3af);}.uuid-c5531db0-8282-4fc6-b460-f72e71e28118{fill:#d4680c;}.uuid-9c58ac4d-8f84-4f8d-a664-9639d8c8f576{clip-path:url(#uuid-824b3e38-018d-4df0-8849-b1f4892308c2);}.uuid-b29c2b78-46c9-4f1b-bce4-d13b5f62e380{opacity:.5;}.uuid-1d3ae18e-4c4d-4a53-b008-fcc501c78eaa{mix-blend-mode:multiply;}.uuid-429881ce-1ff1-46d3-be5a-fff019ee5baf{clip-path:url(#uuid-a5639a45-dbc2-4f4e-ab37-9349339a628e);}.uuid-5f78f236-74c2-41d9-b950-3264c81b81cd{fill:#35cc29;}</style>
    <clipPath id="uuid-5d6b263e-3062-49d6-814b-75feacdfe39f">
      <rect class="uuid-d07e825b-47a4-4cae-98e9-e5f1b8061654" x="76.09" y="41.73" width=".38" height=".39"></rect>
    </clipPath>
    <clipPath id="uuid-cdef1d5a-c883-4d27-8a0f-1fbf56f6dd64">
      <rect class="uuid-d07e825b-47a4-4cae-98e9-e5f1b8061654" x="76.09" y="41.73" width=".38" height=".39"></rect>
    </clipPath>
    <clipPath id="uuid-4f2ae490-23c0-4bbf-a481-098f8c1ffa80">
      <rect class="uuid-d07e825b-47a4-4cae-98e9-e5f1b8061654" x="70.58" y="41.85" width=".38" height=".39"></rect>
    </clipPath>
    <clipPath id="uuid-056cc25b-e4cb-4170-8ed3-855e0504b086">
      <rect class="uuid-d07e825b-47a4-4cae-98e9-e5f1b8061654" x="70.58" y="41.85" width=".38" height=".39"></rect>
    </clipPath>
    <clipPath id="uuid-35c61791-59a4-4eb6-8c3f-d9883300697f">
      <rect class="uuid-d07e825b-47a4-4cae-98e9-e5f1b8061654" x="71.5" y="43.57" width="1.72" height=".69"></rect>
    </clipPath>
    <clipPath id="uuid-3aa13b3b-a1f6-45ee-84fd-b311b631ce5c">
      <rect class="uuid-d07e825b-47a4-4cae-98e9-e5f1b8061654" x="71.5" y="43.57" width="1.72" height=".69"></rect>
    </clipPath>
    <clipPath id="uuid-62fc73f1-c2e4-4bd6-b9a3-42bc6e0f9308">
      <rect class="uuid-d07e825b-47a4-4cae-98e9-e5f1b8061654" x="75.18" y="43.13" width="3.75" height="3.43"></rect>
    </clipPath>
    <clipPath id="uuid-465f3b0a-040f-483b-bdcb-2d272153eb74">
      <rect class="uuid-d07e825b-47a4-4cae-98e9-e5f1b8061654" x="75.18" y="43.13" width="3.75" height="3.43"></rect>
    </clipPath>
    <clipPath id="uuid-896e61e8-89d4-4acf-a322-5fb394e09619">
      <rect class="uuid-d07e825b-47a4-4cae-98e9-e5f1b8061654" x="68.52" y="42.89" width="2.12" height="3.41"></rect>
    </clipPath>
    <clipPath id="uuid-824b3e38-018d-4df0-8849-b1f4892308c2">
      <rect class="uuid-d07e825b-47a4-4cae-98e9-e5f1b8061654" x="68.52" y="42.89" width="2.12" height="3.41"></rect>
    </clipPath>
    <clipPath id="uuid-d39a382e-f3f2-4d29-be45-cf78ffb90c52">
      <rect class="uuid-d07e825b-47a4-4cae-98e9-e5f1b8061654" x="71.22" y="47.59" width="2.68" height="1.24"></rect>
    </clipPath>
    <clipPath id="uuid-1d40d7ab-13b8-4bcb-8bf4-249ec5858d4f">
      <rect class="uuid-d07e825b-47a4-4cae-98e9-e5f1b8061654" x="71.22" y="47.59" width="2.68" height="1.24"></rect>
    </clipPath>
    <clipPath id="uuid-e867d4a8-f7ea-45e3-b624-1442c00db058">
      <rect class="uuid-d07e825b-47a4-4cae-98e9-e5f1b8061654" x="72.49" y="47.16" width="5.68" height="3.77"></rect>
    </clipPath>
    <clipPath id="uuid-69625965-f5d9-4d1e-9198-ceb86ee7f210">
      <rect class="uuid-d07e825b-47a4-4cae-98e9-e5f1b8061654" x="72.49" y="47.16" width="5.68" height="3.77"></rect>
    </clipPath>
    <clipPath id="uuid-89d105f1-deee-464f-8ba7-9749d621ccb1">
      <rect class="uuid-d07e825b-47a4-4cae-98e9-e5f1b8061654" x="44.21" y="40.01" width=".36" height=".36"></rect>
    </clipPath>
    <clipPath id="uuid-41937f95-344e-46e5-81ea-7a765474c4b5">
      <rect class="uuid-d07e825b-47a4-4cae-98e9-e5f1b8061654" x="44.21" y="40.01" width=".36" height=".36"></rect>
    </clipPath>
    <clipPath id="uuid-e3df377e-4c1c-4ded-bbd1-bb7e1a5f59af">
      <rect class="uuid-d07e825b-47a4-4cae-98e9-e5f1b8061654" x="49.48" y="39.79" width=".36" height=".37"></rect>
    </clipPath>
    <clipPath id="uuid-1afa8090-ead0-4d64-9224-25f8ffacd8ff">
      <rect class="uuid-d07e825b-47a4-4cae-98e9-e5f1b8061654" x="49.48" y="39.79" width=".36" height=".37"></rect>
    </clipPath>
    <clipPath id="uuid-20b2b51e-007d-40da-8fc8-908fb0dbe88f">
      <rect class="uuid-d07e825b-47a4-4cae-98e9-e5f1b8061654" x="47.36" y="41.57" width="1.62" height=".66"></rect>
    </clipPath>
    <clipPath id="uuid-9b99cf4f-36b4-4a72-9285-d0d0ea812de5">
      <rect class="uuid-d07e825b-47a4-4cae-98e9-e5f1b8061654" x="47.36" y="41.57" width="1.62" height=".66"></rect>
    </clipPath>
    <clipPath id="uuid-a5701f18-3a49-4d9e-8ec5-fda641966b78">
      <rect class="uuid-d07e825b-47a4-4cae-98e9-e5f1b8061654" x="42.53" y="41.82" width="2.5" height="2.29"></rect>
    </clipPath>
    <clipPath id="uuid-fc0d3c06-715a-4b06-b68d-74674de5e06f">
      <rect class="uuid-d07e825b-47a4-4cae-98e9-e5f1b8061654" x="42.53" y="41.82" width="2.5" height="2.29"></rect>
    </clipPath>
    <clipPath id="uuid-6d6452d3-8e21-4d30-ab6b-51f1e6ea232b">
      <rect class="uuid-d07e825b-47a4-4cae-98e9-e5f1b8061654" x="50.16" y="41.5" width="1.63" height="2.29"></rect>
    </clipPath>
    <clipPath id="uuid-8cb8a855-49c3-4d39-afa3-c396dee8611f">
      <rect class="uuid-d07e825b-47a4-4cae-98e9-e5f1b8061654" x="50.16" y="41.5" width="1.63" height="2.29"></rect>
    </clipPath>
    <clipPath id="uuid-85956d13-e27f-4ec0-9d2f-0e161504baf9">
      <rect class="uuid-d07e825b-47a4-4cae-98e9-e5f1b8061654" x="47.07" y="45.72" width="2.01" height=".94"></rect>
    </clipPath>
    <clipPath id="uuid-a5639a45-dbc2-4f4e-ab37-9349339a628e">
      <rect class="uuid-d07e825b-47a4-4cae-98e9-e5f1b8061654" x="47.07" y="45.72" width="2.01" height=".94"></rect>
    </clipPath>
    <clipPath id="uuid-535c2f2e-095b-486d-84b8-9a079c2fbde9">
      <rect class="uuid-d07e825b-47a4-4cae-98e9-e5f1b8061654" x="42.85" y="45.21" width="6.07" height="3.71"></rect>
    </clipPath>
    <clipPath id="uuid-837168e5-0727-40f5-aa2c-ef82ca8d5a9a">
      <rect class="uuid-d07e825b-47a4-4cae-98e9-e5f1b8061654" x="42.85" y="45.21" width="6.07" height="3.71"></rect>
    </clipPath>
    <clipPath id="uuid-c20516e7-2714-4e48-8e2f-c2872c24d3af">
      <rect class="uuid-d07e825b-47a4-4cae-98e9-e5f1b8061654" x="38.79" y="30.89" width="11.28" height="3.85"></rect>
    </clipPath>
    <clipPath id="uuid-0a596a8c-fd60-4b23-9667-1ea808b1e292">
      <rect class="uuid-d07e825b-47a4-4cae-98e9-e5f1b8061654" x="38.79" y="30.89" width="11.28" height="3.85"></rect>
    </clipPath>
  </defs>
  <g class="uuid-edc760a7-2b39-4294-bb4b-eca940782c70">
    <g id="uuid-b51bc846-9b0d-48f4-a16e-69adfafffb24">
      <circle class="uuid-21bbb905-a2f7-4580-aced-4a58fd1b336a" cx="59.93" cy="60.91" r="50"></circle>
      <g>
        <path class="uuid-5573418f-7e07-40f3-a56b-88b96fcc5301" d="M65.74,58.38l-.25-.07s.31-1.82,1.28-3.3c.97-1.48,2.96-1.76,2.96-1.76,0,0,0,0,0,0,.38-.54,2.74-1.33,2.74-1.33,0,0,0,0,0,0,0-.25,.02-.42,.02-.42h0s.02-.83,.02-.83v-.33c-.22-.06-.42-.13-.58-.2-.94-.42-1.06-1.02-2.07-1.98-.33-.31-.58-.64-.77-.97h0c-.08-.14-.15-.28-.21-.42,0,0,0-.02-.01-.02-.02-.06-.04-.11-.06-.17-.25-.68-.31-1.37-.27-1.99,.02-.29,.05-.56,.09-.8,.05-.33,.12-.61,.16-.83-.8-2.5-.89-5.65,.73-7.73,1.05-1.35,2.13-2.29,4.45-3.45,2.42,1.33,5.51,2.32,6.75,3.98,1.41,1.89,1.86,4.54,.85,7.28,.33,.32,.55,.86,.39,1.42-.19,.65-.83,1.12-1.33,1.2-.45,.81-1.29,1.46-1.9,1.97-.18,.15-.36,.29-.54,.42v2.59s.03,.17,.03,.43c.06-.02,.11-.04,.17-.05,.09-.03,.19-.05,.29-.07,.02-.02,.04-.03,.04-.03,0,0,.03,0,.08,0,.09,0,.25,.03,.46,.07h0c.12,.03,.26,.06,.41,.1,.28,.07,.59,.18,.89,.33h0s.01,0,.03,.02c.19,.09,.38,.2,.55,.32,.08,.06,.15,.12,.22,.19,.01,0,.02,.02,.03,.02h0s2.7,.18,3.46,4.05c1.29,2.19,2.51,5.33,3.03,9.73,1.1,9.11-2.69,11.75-5.19,12.47,.46,3,.95,6.33,1.23,8.45,.61,4.64,1.68,16.69,1.68,16.69h-1.38c.11,.28,.24,.63,.34,.98,.13,.43,.82,2.6,1.09,3.23,.02,.03,.03,.06,.04,.09,.11,.23,.2,.37,.26,.47,.01,.02,.03,.04,.03,.06h0c.05,.07,.09,.14,.12,.23,.07,.22,.17,1.24,.17,1.3,0,.06,.06,.5-.95,.67-.2,.03-.43,.06-.72,.07l-3.77,.11c-.24,0-.57,.01-.75-.24-.14-.19-.18-.53-.03-1.13,0-.03,.01-.05,.02-.08,.14-.56,.22-1,.26-1.37,.06-.51,.06-.88,.08-1.27,.02-.69-.11-1.43-.16-1.86-.06-.47,0-.98,.2-1.26h-.81s-.31-4.02-.61-7.11c-.23-2.33-2.8-9.98-4.06-13.64,0,0-.99,3.62-1.61,8.38-.65,5.07-.76,12.36-.76,12.36h-.32c0,.72-.07,1.49-.09,1.97,0,.04,0,.07,0,.1-.01,.79,.2,1-.02,1.33-.23,.32-.82,1.45-1.06,1.85-.24,.4,.14,.99-1.07,1.92-1.21,.93-3.67,.77-4.48,.18-.58-.43-.52-1-.35-1.5,.07-.19,.15-.38,.23-.54,.26-.57,1.63-3.65,1.96-4.52,.1-.26,.18-.54,.25-.8h-.1v-15.46c0-1.86,.56-11.54,.72-14.27-.16-.28-.28-.57-.33-.89-.22-1.36-.32-2.76-.33-4.17-1.01-1.85-2.13-3.97-2.64-5.16-.21-.49-.3-1.33-.17-1.79,.2-.75,.58-2.02,.95-3.26m2.23,4.19s0,0,0,0h0s0,0,0,0Zm14.24,46.52c.16-.04,.33-.04,.49-.05-.16,0-.34,0-.49,.05m-10.9-5.73s.07,0,.11,0h-.11Z"></path>
        <path class="uuid-5573418f-7e07-40f3-a56b-88b96fcc5301" d="M91.55,111.16c.17-.59,.2-1.16,.17-1.72h0c-.02-.34-.09-1.38-.3-2.27l-.38-4.29c-.02-.2-.19-2.17-.44-4.77l.16-.24h-.18c-.37-3.92-.88-9.14-1.25-11.92-.16-1.17-.39-2.79-.69-4.84,2.9-2.45,5.73-7.15,4.66-16.02-.51-4.22-1.63-7.95-3.32-11.1-.76-2.82-2.24-4.67-3.83-5.82,.46-.65,.82-1.37,1.05-2.14,.32-1.11,.36-2.27,.13-3.36,.68-3.64-.1-7.33-2.25-10.2-1.69-2.27-4.27-3.48-6.54-4.54-.71-.34-1.39-.65-1.96-.96l-2.48-1.36-2.53,1.26c-2.87,1.43-4.64,2.82-6.32,4.98-2.29,2.94-3.01,7.1-2.03,11.37-.05,.36-.09,.73-.11,1.09-.08,1.46,.11,2.85,.58,4.14,.04,.12,.09,.25,.13,.37l.17,.39c.1,.21,.2,.41,.3,.6-.74,.56-1.45,1.28-2.04,2.19-1.53,2.33-2.02,4.92-2.11,5.42l-.31,1.84c-.11,.38-.2,.69-.27,.95-.55,2-.12,4.17,.42,5.43,.42,.99,1.16,2.45,2.24,4.47,.06,1.24,.18,2.44,.36,3.56,.05,.3,.11,.6,.2,.89-.27,4.73-.66,11.68-.66,13.39v14.8c-.42,1-1.3,3-1.6,3.65-.11,.24-.28,.61-.43,1.06-1.02,2.92-.12,5.97,2.29,7.74,2.58,1.9,7.73,2.26,10.99-.25,.86-.67,1.48-1.36,1.92-2.03,.13,.24,.27,.46,.41,.66,.68,.96,2.31,2.61,5.34,2.53l1.88-.05s7.01,.87,8.67-4.86m-11.98-53.71l.11,.57,.48,.81c1.17,1.98,1.94,4.53,2.31,7.58,.43,3.61-.07,6.17-1.28,6.52l-3.45,1-.4-1.17,.44-15.8,.78-.24,1.01,.74Zm-6.2,12.59l-.21,.63c-.04-.46-.08-.94-.1-1.44l.3,.81Zm-3-8.08l.22,.59c-.09-.19-.18-.35-.25-.49,0-.03,.02-.06,.03-.09m10.86-4.49h.15c-.05,0-.1,0-.15,0m-5.44-14.54c-.11,.1-.24,.2-.34,.28l-.21,.17c-.08,.07-.16,.13-.25,.19l-.91,.66s0-.02,0-.03l.33-1.53-.45-1.42c-.42-1.32-.31-2.39-.16-2.65,.14-.19,.28-.36,.48-.55,.79,.37,1.76,.84,2.15,1.14,.29,.48,.29,1.18,.01,1.94l-.66,1.8Zm-2.21,1.22s0,0,0,0c0,0,0,0,0,0"></path>
        <path class="uuid-5573418f-7e07-40f3-a56b-88b96fcc5301" d="M37.27,47.68h.52c-.56-.2-1.06-.51-1.4-.99-1.13-1.6-1.41-4.2-.69-6.84-.69,.64-1.19,1.06-1.19,1.06,.1-.73-.69-7.86,1.67-8.82,2.37-.96,3.72,.84,3.72,.84,0,0,.07,.12,.11,.36,.07,.02,.13,.06,.18,.1,.92-.63,1.94-1.07,3.03-1.24,0,0,0,0,0,0,0,0,0,0,0,0,0,0,.02,0,.02,0,.58-.2,1.21-.32,1.87-.35,1.36-.07,2.47,.1,3.37,.46,.02,0,.04,.02,.06,.02,.68,.25,1.18,.59,1.53,.91,.22,.19,.37,.38,.49,.53-.01-.07,.01-.17,.25-.21,.31-.3,.88-.53,1.83-.06,1.69,.84,.27,7.49,.38,8.03,0,0-.62-.87-1.29-1.93-.02,.14-.04,.29-.06,.43,.03,.16,.06,.32,.1,.48,.15-.01,.27-.14,.27-.14,.03-.04,.09-.04,.12-.01,.04,.03,.04,.09,.01,.12,0,0-.16,.18-.37,.21h0c.57,2.76,1.38,5.45,2.45,5.94,0,0-2.37,.63-4.87,.8h0c-.16,.15-.34,.28-.58,.41-.16,.08-.34,.15-.56,.22,0,0,0,0,0,0l.03,.57,.02,.4s.02,0,.04,.02c0-.02,0-.03,0-.04,.44,.13,.82,.32,1.16,.54,.44-.34,1.03-.52,1.29-.48,.49,.07,1,1.4,1,1.4,0,0,3.6,5.23,1.74,10.86-.59,1.8-1.3,1.56-1.82,.97-.41,4-.83,6.8-.4,9.21,.42,2.38,1.75,11.75,1.75,11.75-.92,.3-1.87,.53-2.83,.69-.12,2.01-.24,3.97-.24,4.52,0,1.22-.24,7.16-.89,10.34-.64,3.17-1.13,4.39-.48,6.02,.08,.21,.17,.43,.25,.64h0c.2,.54,.37,1.07,.46,1.53-.03-.34-.19-.76-.36-1.23,0,0,1.91,2.65,1.91,3.24,0,.53-.02,1.31-1.79,1.41-2.08,.12-3.43-1.23-3.95-2.11-.5-.86-.54-2.8,.22-3.8,.2-.76,.54-1.68,.28-3.58-.67-4.92-.03-10.68-.27-13.82-.21,1.21-.39,2.15-.53,2.5-.56,1.47-3.95,12.78-3.14,15.63,.02,.06,.04,.12,.05,.17l.4,1.13s0,.02,.01,.03c.03,.04,2.01,2.8,2.01,3.38,0,.53-.02,1.32-1.79,1.41-2.08,.12-3.43-1.23-3.95-2.11-.52-.89-.55-2.94,.29-3.91,0,.01,0,.03,0,.04,0-.11-.02-.22-.01-.32,.08-1.87-.65-6.19-.38-9.29,.17-1.96,1.56-4.47,1.48-6.18-.03-.73-.2-3.21-.37-5.8-.71-.12-1.35-.24-1.9-.35-1.32-.28-2.12-.52-2.12-.52,2.33-7.3,2.68-9.05,3.72-11.85,.38-1.02,.36-2.6,.2-4.43h-1.5c-2.42,0-4.87-1.14-4.87-3.15v-11.98c0-2.01,1.53-3.8,4.31-3.8m5.66-.02s-.02,0-.02,0c0,0,.02,0,.02,.01h0Zm-3.76,59.37c.1,.27,.24,.53,.41,.76-.15-.25-.28-.51-.4-.77,0,0,0,0,0,0"></path>
        <path class="uuid-5573418f-7e07-40f3-a56b-88b96fcc5301" d="M32.26,74.6c-.46,1.55-1.09,3.62-2.04,6.6l-1.71,5.38,5.37,1.59s.17,.05,.39,.11c.04,.69,.07,1.1,.08,1.34-.07,.33-.29,.99-.44,1.45-.41,1.24-.87,2.65-1.01,4.2-.2,2.33,.02,4.95,.2,7.06,.04,.53,.1,1.17,.13,1.69-1.05,2.73-.7,5.96,.49,8.01,1.33,2.27,4.29,4.83,8.39,4.83,.18,0,.37,0,.56-.02,1.54-.09,2.88-.5,3.96-1.19,.85,.2,1.77,.29,2.75,.24,4.2-.24,6.92-2.94,6.94-6.89,0-1.45-.41-2.86-2.5-5.87-.01-.03-.02-.06-.04-.1,.06-.36,.2-1.01,.31-1.54,.1-.48,.22-1.01,.34-1.6,.75-3.68,1-10.06,1-11.44,0-.02,0-.08,0-.21l3.66-1.21-.65-4.58c-.06-.39-1.35-9.5-1.78-11.95-.17-.96-.09-2.37,.09-4.13,.75-.75,1.44-1.82,1.94-3.33,.35-1.07,.58-2.13,.7-3.15l3.7,5.21-2.28-11.89h8.59l-7.89-2.83,9.01-2.38-11.74-5.36-.27-1.42c0-.07,.02-.15,.03-.23,.52-4,1.3-10.04-3.49-12.43-1.1-.55-2.24-.83-3.35-.84-.4-.21-.82-.4-1.26-.56,0,0-.02,0-.03-.01-.04-.01-.08-.03-.12-.04l-2.15-.59c-.98-.17-2.02-.24-3.12-.19l-3.12,.36h-1.19l-.19,.22c-1.84-.7-4.06-.82-6.38,.11-5.47,2.21-5.23,9.3-5.11,13.11,0,.14,0,.27,.01,.38l-1.22,8.49c-.2,.73-.31,1.5-.33,2.3v2.71s0,9.49,0,9.49c0,3.55,2.29,6.46,5.77,7.83-.23,.71-.45,1.44-.7,2.29m11.66-12.47h-5.82v-7.91h3.21l3.63,1.9-1.02,6.01Zm-3.27-19.82l.42,1.85-.62-.22c-.02-.39,.01-.93,.19-1.6v-.03Zm5.53,1.3l-.11,.08-5.36-1.58,.53-1.97,1.55-1.06,.35,.14,.83-.42,2.32,4.69-.12,.11Zm-17.38-2.45v.06s0-.04,0-.06"></path>
        <path class="uuid-97914aaa-cf09-445a-a413-1251d2f432df" d="M73.28,53.54c5.65,.08,4.89-3.79,4.89-3.79v-4.62s-5.62,2.42-5.62,2.42l-.05,3.07s-.24,2.91,.79,2.92"></path>
        <path class="uuid-ab2d79cc-0de3-491b-b2f3-9075b3d88265" d="M73.96,30.89c2.42,1.33,5.51,2.32,6.75,3.98,1.69,2.27,2.01,5.64,.07,8.95-2.29,3.9-10.9,1.16-11.79-1.16-.98-2.57-1.23-6.07,.53-8.32,1.05-1.35,2.13-2.3,4.45-3.45"></path>
        <path class="uuid-96177913-e0f1-40ad-b5d3-981742caae0f" d="M79.78,43.04c-.23,.8,0,1.57,.5,1.72,.51,.15,1.43-.4,1.67-1.19,.23-.8-.31-1.55-.82-1.7-.51-.15-1.11,.38-1.34,1.17"></path>
        <path class="uuid-ef70a879-6732-48f8-9225-5194d70764d6" d="M69.08,46.3c.19,.34,.44,.66,.77,.97,1.01,.96,1.13,1.56,2.07,1.98,.17,.08,.37,.14,.6,.21,0,0,0,0,0,0,.56,.15,2.84-.37,3.75-1.02,.49-.35,1.06-.7,1.64-1.1,0,0,.01,0,.02-.01,.05-.04,.11-.07,.16-.11,.03-.02,.06-.04,.09-.06,.18-.13,.36-.27,.54-.42,1.01-.85,2.65-2.05,2.12-3.79-2.3-7.62-3.94-7.27-7.4-7.3-3.46-.03-5.62-.24-4.58,5.97,.02,.15-.13,.63-.23,1.28-.15,.93-.22,2.22,.46,3.4"></path>
        <path class="uuid-6aa6e68e-31bb-40be-bffe-47ff4170ff17" d="M75.05,45.89c-.04,.06-1.18,1.46-2.74,1.41-.91-.03-1.38-1.38-1.41-1.45,.04,0,.18,.04,.3,.04,.37,.03,.86,.06,1.36,.09,.5,.03,.99,.03,1.37,.02,.43,0,1.09-.11,1.13-.11"></path>
        <path class="uuid-6aa6e68e-31bb-40be-bffe-47ff4170ff17" d="M75.26,45.81c-.95,.17-1.32,0-2.61-.06-1.04-.04-1.31,0-1.86,.08,1.16,.96,1.7,.95,4.47-.03"></path>
        <path class="uuid-5573418f-7e07-40f3-a56b-88b96fcc5301" d="M74.1,46.18c-.25,.21-1.02,.52-1.85,.43-.79-.09-1.03-.38-1.24-.61,.42,.06,.68,.08,1.25,.11,.57,.03,1.41,.07,1.85,.07"></path>
        <path class="uuid-29cb5eb4-373c-4bd0-91af-fa22c67f8c8a" d="M75.04,41.81c0,.41,.36,.75,.81,.76,.45,0,.82-.33,.82-.74,0-.41-.36-.75-.81-.76-.45,0-.82,.33-.82,.74"></path>
        <path class="uuid-29cb5eb4-373c-4bd0-91af-fa22c67f8c8a" d="M71.06,41.78c0,.41-.37,.75-.82,.74-.45,0-.81-.34-.81-.76,0-.41,.37-.75,.82-.74,.45,0,.81,.34,.81,.76"></path>
        <path class="uuid-b82b0adf-5287-4603-bb07-c8dd235b7a1d" d="M75.14,41.72c0,.26,.21,.47,.48,.47,.27,0,.49-.21,.49-.46,0-.26-.21-.47-.48-.47-.27,0-.48,.21-.49,.47"></path>
        <path class="uuid-5573418f-7e07-40f3-a56b-88b96fcc5301" d="M75.93,41.57c0,.16,.13,.3,.29,.3,.16,0,.3-.13,.3-.3,0-.17-.13-.3-.29-.3-.16,0-.3,.13-.3,.3"></path>
        <path class="uuid-b82b0adf-5287-4603-bb07-c8dd235b7a1d" d="M70.55,41.68c0,.26-.22,.47-.49,.46-.27,0-.48-.21-.48-.47,0-.26,.22-.47,.49-.46,.27,0,.48,.21,.48,.47"></path>
        <path class="uuid-5573418f-7e07-40f3-a56b-88b96fcc5301" d="M70.89,41.58c0,.17-.13,.3-.3,.3-.16,0-.29-.14-.29-.3,0-.16,.14-.3,.3-.3,.16,0,.29,.14,.29,.3"></path>
        <g class="uuid-ebbabee8-a01b-4ee3-897a-562f87308742">
          <g class="uuid-23b7fe8f-f6f9-4280-b1ec-8baa98305a01">
            <g class="uuid-74544974-c8e3-4a50-a7d9-f86707996f08">
              <path class="uuid-5573418f-7e07-40f3-a56b-88b96fcc5301" d="M76.09,41.92c0,.11,.08,.19,.19,.19,.11,0,.19-.09,.19-.19,0-.11-.08-.19-.19-.2-.11,0-.19,.09-.19,.19"></path>
            </g>
          </g>
        </g>
        <path class="uuid-82f8d7f3-283d-4026-810c-5e801621aee0" d="M77.75,40.16s-1.76-.06-2.39,.22c-.68,.31-.93-.12-.49-.29,.44-.17,1.32-.31,2.01-.2,.7,.11,.86,.26,.86,.26"></path>
        <path class="uuid-82f8d7f3-283d-4026-810c-5e801621aee0" d="M68.37,40.06s1.76-.01,2.38,.29c.67,.32,.93-.1,.49-.28-.43-.18-1.31-.35-2.01-.26-.7,.09-.86,.24-.86,.24"></path>
        <g class="uuid-ebbabee8-a01b-4ee3-897a-562f87308742">
          <g class="uuid-715fefd3-64db-468c-8d0d-d89127c03aae">
            <g class="uuid-7b9a9737-f9b2-427b-a657-b695d2139f31">
              <path class="uuid-5573418f-7e07-40f3-a56b-88b96fcc5301" d="M70.97,42.04c0,.11-.09,.19-.19,.19-.11,0-.19-.09-.19-.2,0-.11,.09-.19,.19-.19,.11,0,.19,.09,.19,.2"></path>
            </g>
          </g>
        </g>
        <g class="uuid-a8348cb7-9389-4980-a947-9aa4467cd672">
          <g class="uuid-5d125499-5009-4cd4-a049-38bbb75d9c20">
            <g class="uuid-f02ea260-ac4e-4439-86ef-488d2cc42686">
              <path class="uuid-96177913-e0f1-40ad-b5d3-981742caae0f" d="M71.5,43.91c0,.19,.38,.35,.86,.35,.48,0,.86-.15,.86-.34,0-.19-.38-.35-.86-.35-.48,0-.86,.15-.86,.34"></path>
            </g>
          </g>
        </g>
        <path class="uuid-96177913-e0f1-40ad-b5d3-981742caae0f" d="M72.75,44.87c.02,.06,.16,.08,.3,.04,.15-.04,.25-.12,.23-.17-.02-.06-.16-.08-.3-.04-.15,.04-.25,.11-.23,.18"></path>
        <path class="uuid-96177913-e0f1-40ad-b5d3-981742caae0f" d="M71.97,44.87c-.02,.06-.16,.07-.3,.04-.15-.04-.25-.12-.22-.18,.02-.06,.16-.08,.3-.04,.15,.04,.25,.12,.22,.18"></path>
        <path class="uuid-96177913-e0f1-40ad-b5d3-981742caae0f" d="M73.43,44.12s.33,.33,.1,.65c0,0,.58-.35-.1-.65"></path>
        <path class="uuid-96177913-e0f1-40ad-b5d3-981742caae0f" d="M71.33,44.1s-.34,.33-.11,.65c0,0-.57-.36,.11-.65"></path>
        <g class="uuid-5fc978f3-dd3b-4ce1-bda2-29711549d2b8">
          <g class="uuid-56dade00-0218-41cb-919a-fbf7317d8279">
            <g class="uuid-cdfd42af-7d13-4929-9ade-6d40d98cd132">
              <path class="uuid-1dcd5c0d-3c8a-48b0-bb57-98690b704d9b" d="M75.18,44.83c0,.95,.82,1.72,1.86,1.73,1.04,0,1.88-.75,1.89-1.7,0-.95-.82-1.72-1.86-1.73-1.04,0-1.88,.75-1.89,1.7"></path>
            </g>
          </g>
        </g>
        <g class="uuid-5fc978f3-dd3b-4ce1-bda2-29711549d2b8">
          <g class="uuid-23b0b722-43f5-4c3c-9aa5-353fdd046f8c">
            <g class="uuid-9c58ac4d-8f84-4f8d-a664-9639d8c8f576">
              <path class="uuid-1dcd5c0d-3c8a-48b0-bb57-98690b704d9b" d="M68.62,42.9c-.15,.93-.22,2.22,.46,3.4,.88-.13,1.56-.83,1.56-1.68,0-.95-.82-1.72-1.86-1.73-.06,0-.11,0-.16,0"></path>
            </g>
          </g>
        </g>
        <path class="uuid-96177913-e0f1-40ad-b5d3-981742caae0f" d="M75.19,45.77s.18,.45,.29,.39c.2-.1-.12-.23-.29-.39"></path>
        <path class="uuid-96177913-e0f1-40ad-b5d3-981742caae0f" d="M70.69,45.8s-.19,.44-.29,.39c-.2-.1,.13-.23,.29-.39"></path>
        <g class="uuid-a8348cb7-9389-4980-a947-9aa4467cd672">
          <g class="uuid-55704621-9fe0-4420-8dd0-1453cdf5757f">
            <g class="uuid-e35f713f-9c4a-48dc-8f35-3249ed50ca8f">
              <path class="uuid-96177913-e0f1-40ad-b5d3-981742caae0f" d="M71.22,48.2c0,.34,.6,.63,1.34,.63,.74,0,1.35-.27,1.35-.61,0-.34-.6-.63-1.34-.63-.74,0-1.34,.27-1.35,.61"></path>
            </g>
          </g>
        </g>
        <path class="uuid-82f8d7f3-283d-4026-810c-5e801621aee0" d="M77.46,41.89c-.05-.02-.13-.1-.22-.2-.26-.29-.71-.76-1.6-.74-1.13,.03-1.3,1-1.3,1.01,0,.05,.03,.1,.08,.11,.05,0,.1-.03,.11-.08,0-.03,.14-.82,1.12-.85,.81-.02,1.2,.4,1.46,.68,.11,.11,.19,.2,.28,.24,.06,.02,.27-.09,.07-.17"></path>
        <path class="uuid-82f8d7f3-283d-4026-810c-5e801621aee0" d="M68.84,41.62c.27-.28,.72-.75,1.61-.71,1.13,.05,1.28,1.02,1.28,1.03,0,.05-.03,.1-.08,.1-.05,0-.1-.03-.11-.08,0-.03-.13-.82-1.1-.87-.81-.04-1.21,.38-1.47,.65-.11,.11-.22-.04-.13-.13"></path>
        <g class="uuid-1d3ae18e-4c4d-4a53-b008-fcc501c78eaa">
          <g class="uuid-7a0471bd-d352-48f0-8f91-7cbaf5463dff">
            <g class="uuid-2c6bc9d0-d304-4a7b-ad9d-9f2e3c7fb29d">
              <path class="uuid-97914aaa-cf09-445a-a413-1251d2f432df" d="M72.49,50.62s.66,.77,2.56-.08c1.56-.69,2.4-1.59,3.12-2.52v-.85s-.06,.04-.08,.06c-.05,.04-.11,.08-.16,.11,0,0-.01,0-.02,.01-.58,.4-1.15,.74-1.64,1.1-.91,.65-3.19,1.18-3.75,1.02,0,0,0,0,0,0,0,0,0,0-.01,0l-.02,1.15Z"></path>
            </g>
          </g>
        </g>
        <path class="uuid-5573418f-7e07-40f3-a56b-88b96fcc5301" d="M83.72,108.67c.17,.18,.38,.35,.63,.5,.25,.15,.71,.27,.97,.33,1.01-.17,.95-.61,.95-.67,0-.07-.1-1.08-.17-1.3-.03-.09-.07-.16-.12-.24l.02,.44c0,.24-.26,.89-1.07,.92-.26,0-.7,.02-1.21,.03"></path>
        <path class="uuid-1965eafc-23bf-41e6-8b70-8b22c8fb81b2" d="M80.07,108.23c.24,.32,.54,.38,.87,.43,.12,.02,.39,.03,.72,.03,.07-.09,.13-.17,.17-.24,.18-.28,.54-.28,.87-.29,.33,0,.62,.03,.82,.29,.06,.08,.13,.15,.2,.23,.51,0,.95-.02,1.21-.03,.81-.02,1.08-.67,1.07-.92,0,0,0-.31-.01-.42,0-.02-.02-.06-.04-.08-.07-.1-.15-.24-.26-.47-.01-.03-.02-.05-.04-.09-.15,.26-.42,.54-.9,.73-1.17,.47-2.93,.52-3.92-.02-.21-.12-.37-.31-.49-.52-.04,.37-.12,.8-.26,1.37"></path>
        <path class="uuid-1965eafc-23bf-41e6-8b70-8b22c8fb81b2" d="M80.41,105.59c-.01,.39-.01,.77-.08,1.27,.12,.22,.28,.41,.49,.52,.99,.55,2.75,.49,3.92,.02,.48-.19,.75-.47,.9-.73-.27-.63-.95-2.79-1.09-3.22-.15-.49-.33-1-.47-1.27-.17-.32-.61-.2-.66-.18,.02,.1,.04,.21,.05,.32l.53-.02c.05,0,.09,.03,.09,.08v.18s-.03,.08-.08,.08h-.49c.02,.12,.04,.23,.05,.34h.34c.05-.01,.09,.02,.09,.07v.18s-.03,.08-.08,.08h-.3c.02,.12,.04,.23,.05,.33h.18s.09,.03,.09,.07v.18s-.03,.08-.08,.08h-.14c.01,.08,.02,.14,.03,.2,0,.04,0,.08,.01,.12h.03s.09,.03,.09,.08v.18s-.03,.08-.08,.08h-.04c-.01,.11-.03,.22-.06,.33h.03s.09,.03,.09,.08v.18s-.03,.08-.08,.08h-.2c-.16,.24-.4,.41-.75,.43-.34,.02-.59-.13-.78-.38h-.29c-.05,0-.09-.03-.09-.07v-.18s.03-.08,.08-.08h.11c-.04-.1-.08-.21-.11-.32h-.22s-.09-.03-.09-.07v-.18s.03-.08,.08-.08h.16c-.02-.11-.03-.22-.04-.33h-.21s-.09-.03-.09-.07v-.18s.03-.08,.08-.09h.19c-.01-.11-.03-.21-.05-.33h-.32c-.05,.01-.09-.02-.09-.07v-.18s.03-.08,.08-.08h.26c-.02-.12-.05-.22-.08-.33h-.28s-.09-.03-.09-.07v-.18s.03-.08,.08-.08h.2c-.04-.15-.08-.29-.12-.41-.05,.09-.06,.16-.06,.16,0,0-.44,0-.67,.29-.21,.26-.29,.81-.23,1.31,.06,.43,.19,1.17,.16,1.86"></path>
        <path class="uuid-058248df-2607-4f5e-8670-7de8ba6aad4d" d="M81.04,102.47v.18s.05,.08,.1,.08h.28c.03,.1,.05,.2,.08,.31h-.26c-.05,0-.09,.05-.09,.09v.18s.05,.08,.1,.08h.32c.02,.1,.04,.21,.05,.31h-.19c-.05,0-.09,.04-.09,.09v.18s.05,.08,.1,.08h.21c0,.1,.02,.21,.04,.32h-.16c-.05,0-.09,.04-.09,.09v.18s.05,.08,.1,.08h.22c.03,.11,.07,.21,.11,.31h-.11s-.09,.04-.09,.09v.18s.05,.08,.1,.08h.29c.19,.24,.44,.4,.78,.37,.34-.03,.59-.19,.75-.43h.2c.05,0,.09-.04,.09-.09v-.18s-.05-.08-.1-.08h-.03c.03-.1,.05-.21,.06-.32h.04c.05,0,.09-.04,.09-.09v-.18s-.05-.08-.1-.08h-.03s0-.08-.01-.12c0-.06-.02-.12-.03-.2h.14s.09-.04,.09-.09v-.18s-.05-.08-.1-.08h-.18c-.02-.1-.03-.2-.05-.32h.3c.05-.01,.09-.05,.09-.09v-.18s-.05-.08-.1-.08h-.34c-.02-.1-.04-.2-.05-.31h.49c.05-.02,.09-.05,.09-.1v-.18s-.05-.08-.1-.08l-.53,.02c-.02-.11-.04-.22-.05-.32,0,0,0,0,0,0,0,0-.1-.33-.27-.32-.18,0-1.12,0-1.53,.04-.23,.02-.35,.14-.41,.25,.04,.13,.08,.26,.12,.41h-.2s-.09,.05-.09,.09"></path>
        <path class="uuid-5573418f-7e07-40f3-a56b-88b96fcc5301" d="M80.08,109.43c.85-.06,1.32-.43,1.58-.74-.34,0-.6-.02-.72-.03-.32-.05-.63-.11-.87-.43,0,.02-.01,.05-.02,.08-.15,.6-.11,.94,.03,1.13"></path>
        <path class="uuid-5573418f-7e07-40f3-a56b-88b96fcc5301" d="M81.66,108.69c.07-.09,.13-.17,.17-.24,.16-.28,.54-.28,.87-.29,.33,0,.61,.03,.82,.29,.06,.08,.13,.15,.2,.23,.17,.18,.38,.35,.63,.5,.25,.15,.71,.27,.97,.33-.2,.03-.43,.06-.72,.06l-3.77,.11c-.24,0-.58,.01-.76-.24,.85-.06,1.32-.43,1.58-.74"></path>
        <path class="uuid-a5718d00-2c30-4359-b4e8-3f35b992bf0b" d="M81.67,105.12v.18s.05,.08,.1,.08l2.01-.06c.05,0,.09-.04,.09-.08v-.18s-.05-.08-.1-.08l-2.01,.06s-.09,.04-.09,.08"></path>
        <path class="uuid-a5718d00-2c30-4359-b4e8-3f35b992bf0b" d="M81.43,104.46v.18s.05,.08,.1,.08l2.3-.07s.09-.04,.09-.08v-.18s-.05-.08-.1-.08l-2.3,.07c-.05,0-.09,.04-.09,.09"></path>
        <path class="uuid-a5718d00-2c30-4359-b4e8-3f35b992bf0b" d="M81.34,103.8v.18s.05,.08,.1,.08l2.45-.07s.09-.04,.09-.08v-.18s-.05-.08-.1-.08l-2.45,.07c-.05,0-.09,.04-.09,.08"></path>
        <path class="uuid-a5718d00-2c30-4359-b4e8-3f35b992bf0b" d="M81.14,103.13v.18s.05,.08,.1,.08l2.71-.08c.05,0,.09-.04,.09-.08v-.18s-.05-.08-.1-.08l-2.71,.08c-.05,0-.09,.04-.09,.08"></path>
        <path class="uuid-a5718d00-2c30-4359-b4e8-3f35b992bf0b" d="M81.04,102.47v.18s.05,.08,.1,.08l2.89-.09c.05,0,.09-.04,.09-.08v-.18s-.05-.08-.1-.08l-2.89,.08s-.09,.04-.09,.08"></path>
        <path class="uuid-5573418f-7e07-40f3-a56b-88b96fcc5301" d="M72.16,105.87c-.23,.32-.82,1.46-1.06,1.85-.24,.4,.14,.99-1.07,1.92-1.21,.93-3.67,.77-4.48,.18-.58-.43-.52-1-.35-1.5,.04,.87,.46,.97,.46,.97,0,0,.21-.44,.59-.38,.38,.06,.56,.55,.56,.55,0,0,.45,.07,1.52-.02,1.07-.09,2.06-1.12,2.4-1.68,.33-.56,.5-1.47,.68-2.16,.09-.36,.45-.82,.77-1.17,0,.04,0,.07,0,.1-.01,.79,.21,1-.02,1.33"></path>
        <path class="uuid-1965eafc-23bf-41e6-8b70-8b22c8fb81b2" d="M72.18,104.44c-.32,.35-.68,.81-.77,1.17-.18,.69-.35,1.6-.68,2.16-.33,.56-1.33,1.59-2.4,1.68-1.07,.09-1.52,.02-1.52,.02,0,0-.17-.49-.56-.55-.38-.06-.59,.38-.59,.38,0,0-.42-.1-.46-.97,.07-.19,.15-.38,.23-.54,.26-.57,1.63-3.65,1.96-4.52,.28-.77,.47-1.71,.47-1.71l.39-.02s-.12,1.34-.18,2c-.07,.76-.7,2.21-.7,2.21l1.62,.36s.49-.81,1.02-1.99c.27-.59,.61-1.42,.95-2.26,0,.06,0,.11-.02,.17-.07,.42,.51,.62,.66,.32,.15-.3,.4-1.23,.4-1.23,.44,.72,.19,2.5,.16,3.34"></path>
        <path class="uuid-058248df-2607-4f5e-8670-7de8ba6aad4d" d="M70.97,101.85c-.34,.85-.68,1.67-.95,2.26-.53,1.18-1.02,1.99-1.02,1.99l-1.62-.36s.63-1.45,.7-2.21c.06-.66,.11-1.69,.21-2.6,.03-.15,.07-.33,.16-.45,.27-.38,.87-.27,1.39-.04,.8,.35,1.16,.82,1.13,1.4"></path>
        <polygon class="uuid-5573418f-7e07-40f3-a56b-88b96fcc5301" points="69.61 105.89 67.24 105.27 67.33 104.95 69.69 105.57 69.61 105.89"></polygon>
        <polygon class="uuid-5573418f-7e07-40f3-a56b-88b96fcc5301" points="69.96 105.08 67.5 104.43 67.58 104.1 70.04 104.76 69.96 105.08"></polygon>
        <polygon class="uuid-5573418f-7e07-40f3-a56b-88b96fcc5301" points="70.34 104.25 67.75 103.57 67.84 103.25 70.42 103.93 70.34 104.25"></polygon>
        <polygon class="uuid-5573418f-7e07-40f3-a56b-88b96fcc5301" points="70.68 103.52 67.86 102.77 67.94 102.45 70.76 103.19 70.68 103.52"></polygon>
        <polygon class="uuid-5573418f-7e07-40f3-a56b-88b96fcc5301" points="70.84 102.74 67.98 101.98 68.06 101.66 70.92 102.42 70.84 102.74"></polygon>
        <path class="uuid-7dbcdc97-ee3a-4ac3-97e4-c670baff17e3" d="M80.54,50.53s5.97,2.93,7.34,14.33c1.37,11.4-4.9,12.67-6.74,12.73-1.84,.06-.6-27.06-.6-27.06"></path>
        <path class="uuid-d8667ec9-6335-4198-a6f5-0cac0127ed13" d="M67.54,87.02v15.46h5.05s.11-7.3,.76-12.36c.62-4.76,1.61-8.38,1.61-8.38l-3.22-9.9-3.44,.19s-.76,12.83-.76,14.99"></path>
        <path class="uuid-cc4da82f-5e9c-4f38-8a93-425ef1a79c83" d="M71.75,71.83l2.84,8.81c1.01,2.91,4.18,12.13,4.43,14.72,.31,3.09,.61,7.11,.61,7.11h5.97s-1.07-12.06-1.68-16.69c-.61-4.64-2.26-15.13-2.26-15.13l-9.91,1.18Z"></path>
        <path class="uuid-ef70a879-6732-48f8-9225-5194d70764d6" d="M66.76,54.12s-1.49,4.84-1.97,6.63c-.12,.46-.03,1.3,.17,1.79,1.03,2.41,4.62,8.72,4.62,8.72l2.88-2.45-4.49-7.12,2.54-6.31-3.75-1.25Z"></path>
        <path class="uuid-0b190484-dc31-4f1a-9601-d49c65f463d1" d="M69.72,52.36s-1.99,.28-2.96,1.76c-.97,1.48-1.28,3.3-1.28,3.3l4.18,1.17s1.06-5.2,.05-6.23"></path>
        <path class="uuid-95db9a10-90b5-4944-8b37-ac0d820811a3" d="M67.94,71.86c.68,4.21,11.81,5.04,14.11,.49l-.78-3.35c-.13-.58-.22-1.23-.27-1.93-.02-.19-.02-.38-.03-.58-.2-5.29,1.48-12.9,1.03-14.43-.15-.51-.48-.9-.88-1.19-.46-.33-1.02-.54-1.48-.66-.15-.04-.29-.07-.41-.1h0c-.21-.04-.37-.06-.46-.07-.05,0-.08,0-.08,0,0,0-.01,.01-.04,.03-.25,.23-1.82,1.6-3.12,2.19-.23,.11-.45,.19-.66,.23-1.47,.32-2.42-1.45-2.42-1.45,0,0-2.9,.96-2.79,1.49,.1,.53-3.1,10.86-1.73,19.33"></path>
        <path class="uuid-ef70a879-6732-48f8-9225-5194d70764d6" d="M82.91,53.65c.93,.4,1.6,1.64,1.84,4.32,.3,3.45,.61,8.53-1.49,8.87-1.1,.17-2.19-3.31-2.74-5.83-.4-1.84-1.31-4.82-.32-6.37,.75-1.18,2.02-1.28,2.7-.98"></path>
        <path class="uuid-014694d6-0e81-4f88-8cb0-22050b4ca0f6" d="M78.18,65.02c.9,1.45,1.59,2.39,2.83,2.04,.11-.03,.23-.07,.36-.13,.29-.13,.55-.33,.78-.59,.02-.22,.05-.44,.07-.67-.33,.47-.74,.8-1.24,.8-.07,0-.13,0-.2-.02-1.9-.32-6.92-15.36,.35-15.6-.46-.33-1.01-.55-1.48-.66-.29-.07-.79-.16-.88-.17-.04,0-.07,.01-.11,.02-.1,.02-.19,.04-.29,.07-1.25,.34-2.22,1.06-2.83,2.12-.07,.12-.14,.25-.2,.39-1.22,2.6-.55,6.94,2.84,12.39"></path>
        <path class="uuid-ef70a879-6732-48f8-9225-5194d70764d6" d="M76.51,55.39s1.42-1.27,1.44-2.18c0-.6-.63-.17-.71-.17s-.98,1.62-1.61,1.03c-.46-.44-.48-1.14-.54-1.51-.14-.89-3.77,0-3.48,1.54,.3,1.53,1.31,3.03,1.31,3.03l3.5-.68,.08-1.07Z"></path>
        <path class="uuid-ef70a879-6732-48f8-9225-5194d70764d6" d="M72.92,57.14s1.5,3.54,3.02,5.65c1.6,2.22,5.53,4.47,7.32,4.04,1.6-.38,.49-2.07-.45-3.03-1.07-1.09-3.8-3.1-5.12-4.61-1.15-1.32-1.27-2.73-1.27-2.73l-3.5,.68Z"></path>
        <polygon class="uuid-1651e814-89d7-4376-914b-ebf5dea2968d" points="79.7 65.83 78.61 66.44 77.72 65.1 78.89 64.48 79.7 65.83"></polygon>
        <path class="uuid-a276867a-603f-4891-877f-133a7e0ad610" d="M78.66,66.42s1.3,.8,1.4,2.07,.13,3.37,.13,3.37h.95s.04-2.77-.15-3.98-1.33-2.02-1.33-2.02l-.99,.56Z"></path>
        <path class="uuid-13f79763-3040-4f57-9d6f-a52e50011afc" d="M81.38,51.08s3.99,.25,3.64,7.11h-5.13s-3.28-5.93,1.48-7.11"></path>
        <path class="uuid-afbf8a8d-f846-41da-a05e-ef78837bfdd4" d="M32.96,62.56c0,2.01,2.46,3.15,4.87,3.15h7.81c.86,0,1.56-.71,1.56-1.58v-15.77c0-.87-.7-1.58-1.56-1.58h-8.37c-2.78,0-4.31,1.78-4.31,3.8v11.98Z"></path>
        <path class="uuid-c5531db0-8282-4fc6-b460-f72e71e28118" d="M50.47,33.13s.47-1.4,2.17-.56c1.69,.84,.27,7.49,.38,8.03,0,0-2.66-3.74-2.94-5.19-.33-1.75,.39-2.28,.39-2.28"></path>
        <path class="uuid-207bb88f-f764-471d-819e-55c803e0cb4a" d="M36.75,45.94c1.39,.77,1.4,.85,3.01,.86,.49,0,.98-.02,1.44-.05,.12,0,.25-.02,.37-.03,.11,0,.22-.02,.33-.03,.06,0,.12-.01,.18-.02,1.03-.12,1.15,.52,1.71,.39,0,0,.61-.4,.61-.4,.41-.09,.8-.59,.8-.59,.35,.15,.75,.26,1.18,.34,.18,.03,.36,.06,.54,.08,.18,.02,.36,.03,.55,.04,.62,.03,1.27,.02,1.91-.03,2.49-.18,4.87-.8,4.87-.8-1.07-.49-1.88-3.18-2.45-5.94-.01-.06-.02-.12-.04-.17-.04-.16-.07-.33-.1-.49-.06-.33-.12-.66-.18-.98,0-.03-.01-.06-.02-.09,0-.01,0-.03,0-.04-.04-.25-.09-.51-.12-.75-.06-.36-.11-.71-.16-1.05-.25-1.71-.37-2.96-.37-2.96,0,0-.2-.44-.74-.93-.35-.32-.85-.66-1.53-.91-.02,0-.04-.02-.06-.02-.68-.24-1.55-.4-2.64-.36-.78,.03-1.67,.15-2.69,.4-.06,.02-.11,.03-.17,.05-.23,.06-.47,.13-.72,.21h0c-1.31,.4-2.39,1.17-3.26,2.13-3.74,4.12-2.26,12.14-2.26,12.14"></path>
        <path class="uuid-97914aaa-cf09-445a-a413-1251d2f432df" d="M48.31,50.78c-4.85,1.13-5.37-3.66-5.37-3.66l-.15-3.32,5.38,2.08,.1,2.22s1.49,1.53,1.64,1.77c.21,.34-.65,.7-1.6,.93"></path>
        <path class="uuid-207bb88f-f764-471d-819e-55c803e0cb4a" d="M39.46,40.68c.07,.16,.14,.33,.22,.49,.16,.33,.35,.66,.56,.99,.06,.1,.13,.19,.2,.28,.14,.18,.31,.34,.48,.48,.22,.18,.47,.33,.73,.45,.36,.17,.76,.29,1.18,.36,0,0,.02,0,.03,0,.55,.1,1.14,.11,1.74,.07,1.35-.09,2.77-.49,3.95-1.03,.15-.07,.29-.14,.43-.2,.12-.06,.23-.12,.33-.18,.05-.03,.09-.05,.14-.08,.94-.55,1.63-1.17,1.82-1.75,.06-.18,.12-.37,.17-.56,.03-.1,.05-.2,.08-.31,.01-.06,.03-.12,.04-.19,.03-.14,.06-.28,.09-.42,.12-.62,.18-1.26,.19-1.9,0-1.2-.21-2.4-.73-3.42,0,0,0-.01-.01-.02-.09-.18-.19-.35-.3-.52h0c-.22-.33-.47-.63-.76-.89-.13-.12-.26-.22-.4-.33-.32-.24-.69-.45-1.1-.62-.02,0-.04-.02-.06-.02-.9-.36-2.02-.54-3.37-.46-.67,.04-1.31,.16-1.9,.36,0,0,0,0,0,0-.33,.11-.64,.24-.93,.4h0c-1.1,.57-1.98,1.43-2.58,2.47-1.04,1.8-1.24,4.16-.23,6.54"></path>
        <path class="uuid-96177913-e0f1-40ad-b5d3-981742caae0f" d="M41.15,41.39c.25,.74,.07,1.48-.4,1.64-.47,.16-1.06-.31-1.31-1.05-.25-.74-.07-1.48,.4-1.64,.47-.16,1.06,.31,1.31,1.05"></path>
        <path class="uuid-ef70a879-6732-48f8-9225-5194d70764d6" d="M40.15,41.34c.28,1.69,1.16,2.73,2.15,3.48,.18,.14,.36,.27,.55,.39,.63,.42,1.28,.75,1.82,1.11,.88,.58,3.03,.97,3.56,.81,0,0,0,0,0,0,.22-.07,.4-.14,.56-.22,.87-.43,.96-1.01,1.87-1.95,.36-.37,.61-.76,.79-1.16,.34-.77,.38-1.56,.31-2.25-.1-.98-.41-1.75-.39-1.95,.71-5.88-2.73-5.53-5.98-5.36-3.26,.17-6.45-.13-5.24,7.11"></path>
        <path class="uuid-6aa6e68e-31bb-40be-bffe-47ff4170ff17" d="M45.71,43.87c.03,.06,1.17,1.33,2.64,1.21,.86-.07,1.24-1.35,1.27-1.42-.04,0-.17,.04-.28,.06-.35,.04-.8,.09-1.27,.14-.47,.05-.92,.07-1.28,.08-.4,0-1.03-.06-1.07-.06"></path>
        <path class="uuid-6aa6e68e-31bb-40be-bffe-47ff4170ff17" d="M45.52,43.8c.9,.12,1.24-.06,2.45-.16,.98-.08,1.24-.05,1.75,0-1.05,.95-1.56,.97-4.2,.16"></path>
        <path class="uuid-5573418f-7e07-40f3-a56b-88b96fcc5301" d="M46.62,44.1c.24,.18,.98,.45,1.76,.33,.74-.12,.95-.4,1.14-.62-.4,.07-.63,.1-1.17,.16-.53,.05-1.33,.13-1.74,.14"></path>
        <path class="uuid-72d89a04-8fc8-49bb-808a-41d05a25739a" d="M45.56,40.03c.02,.39-.3,.72-.73,.75-.42,.02-.78-.27-.8-.66s.31-.72,.73-.75c.42-.02,.78,.27,.8,.66"></path>
        <path class="uuid-72d89a04-8fc8-49bb-808a-41d05a25739a" d="M49.38,39.74c.02,.39,.38,.69,.8,.66,.42-.02,.75-.36,.73-.75-.02-.39-.38-.69-.8-.66-.42,.02-.75,.36-.73,.74"></path>
        <path class="uuid-b82b0adf-5287-4603-bb07-c8dd235b7a1d" d="M45.36,39.99c.01,.24-.18,.45-.43,.47-.25,.01-.47-.17-.48-.42-.01-.24,.18-.45,.43-.47,.25-.01,.46,.17,.48,.42"></path>
        <path class="uuid-5573418f-7e07-40f3-a56b-88b96fcc5301" d="M44.71,39.83c0,.16-.11,.29-.26,.3-.15,0-.28-.11-.29-.27s.11-.29,.26-.3c.15,0,.28,.11,.29,.27"></path>
        <path class="uuid-b82b0adf-5287-4603-bb07-c8dd235b7a1d" d="M49.82,39.67c.01,.24,.23,.43,.48,.42,.25-.01,.44-.22,.43-.47-.01-.24-.23-.43-.48-.42-.25,.01-.44,.22-.43,.47"></path>
        <path class="uuid-5573418f-7e07-40f3-a56b-88b96fcc5301" d="M49.52,39.54c0,.15,.14,.27,.29,.27,.15,0,.27-.14,.26-.3,0-.15-.14-.27-.29-.27s-.27,.14-.26,.3"></path>
        <g class="uuid-ebbabee8-a01b-4ee3-897a-562f87308742">
          <g class="uuid-9925e078-a72f-4426-9bf4-0fd39263877b">
            <g class="uuid-4352a85d-0754-49a1-9e03-2266c2070171">
              <path class="uuid-5573418f-7e07-40f3-a56b-88b96fcc5301" d="M44.57,40.18c0,.1-.07,.19-.17,.19-.1,0-.18-.07-.19-.17,0-.1,.07-.19,.17-.19,.1,0,.18,.07,.19,.17"></path>
            </g>
          </g>
        </g>
        <path class="uuid-82f8d7f3-283d-4026-810c-5e801621aee0" d="M42.94,38.59s1.65-.13,2.25,.11c.65,.26,.87-.15,.45-.29-.42-.14-1.26-.24-1.9-.1-.65,.14-.8,.29-.8,.29"></path>
        <path class="uuid-82f8d7f3-283d-4026-810c-5e801621aee0" d="M51.76,38.1s-1.66,.06-2.23,.37c-.61,.33-.88-.05-.48-.24,.4-.19,1.22-.38,1.88-.32,.66,.06,.82,.19,.82,.19"></path>
        <g class="uuid-ebbabee8-a01b-4ee3-897a-562f87308742">
          <g class="uuid-54208a8c-4713-4075-81ae-ee111b92e6a9">
            <g class="uuid-59717db7-ebd8-45e8-ad6e-5ebc07e18035">
              <path class="uuid-5573418f-7e07-40f3-a56b-88b96fcc5301" d="M49.48,39.98c0,.1,.09,.18,.19,.17,.1,0,.18-.09,.17-.19,0-.1-.09-.18-.19-.17-.1,0-.18,.09-.17,.19"></path>
            </g>
          </g>
        </g>
        <g class="uuid-a8348cb7-9389-4980-a947-9aa4467cd672">
          <g class="uuid-fab0b5ef-cc2b-4f7c-bf88-a999c855ca85">
            <g class="uuid-91a26df1-0fc9-4cb6-a418-b5c15571b877">
              <path class="uuid-96177913-e0f1-40ad-b5d3-981742caae0f" d="M48.98,41.85c0,.18-.35,.34-.79,.37-.45,.02-.82-.1-.83-.28,0-.18,.35-.34,.79-.37s.82,.1,.83,.28"></path>
            </g>
          </g>
        </g>
        <path class="uuid-96177913-e0f1-40ad-b5d3-981742caae0f" d="M47.84,42.81c-.02,.06-.14,.08-.28,.05-.14-.03-.24-.1-.22-.15,.02-.06,.14-.08,.28-.05,.14,.03,.24,.1,.22,.16"></path>
        <path class="uuid-96177913-e0f1-40ad-b5d3-981742caae0f" d="M48.57,42.77c.02,.06,.15,.06,.29,.02,.14-.04,.23-.12,.2-.18-.02-.06-.15-.07-.29-.02-.13,.04-.23,.12-.2,.18"></path>
        <path class="uuid-96177913-e0f1-40ad-b5d3-981742caae0f" d="M47.17,42.13s-.3,.33-.07,.62c0,0-.56-.3,.07-.62"></path>
        <path class="uuid-96177913-e0f1-40ad-b5d3-981742caae0f" d="M49.14,42.03s.33,.29,.13,.61c0,0,.52-.36-.13-.61"></path>
        <g class="uuid-5fc978f3-dd3b-4ce1-bda2-29711549d2b8">
          <g class="uuid-8c86ae31-36dc-4f03-b423-3125b9251375">
            <g class="uuid-93216e2a-de08-47d1-a485-9cd3244e1d05">
              <path class="uuid-6e18b584-c12a-4796-a490-00d2dedc9301" d="M45.04,42.9c.03,.63-.5,1.17-1.19,1.21-.69,.04-1.28-.44-1.31-1.08-.03-.63,.5-1.18,1.19-1.21,.69-.04,1.28,.45,1.31,1.08"></path>
            </g>
          </g>
        </g>
        <g class="uuid-5fc978f3-dd3b-4ce1-bda2-29711549d2b8">
          <g class="uuid-9c14c08e-69d7-47b2-881b-ba1f27da1a0d">
            <g class="uuid-67a70b2f-2df0-4f45-99ba-a35678cc4c71">
              <path class="uuid-6e18b584-c12a-4796-a490-00d2dedc9301" d="M50.16,42.71c.03,.63,.61,1.11,1.29,1.08,.34-.77,.38-1.56,.31-2.25-.13-.03-.27-.05-.41-.04-.69,.04-1.22,.58-1.19,1.21"></path>
            </g>
          </g>
        </g>
        <path class="uuid-96177913-e0f1-40ad-b5d3-981742caae0f" d="M45.57,43.76s-.15,.43-.25,.38c-.19-.09,.11-.22,.25-.38"></path>
        <path class="uuid-96177913-e0f1-40ad-b5d3-981742caae0f" d="M49.81,43.6s.2,.41,.29,.35c.18-.1-.13-.21-.29-.35"></path>
        <g class="uuid-a8348cb7-9389-4980-a947-9aa4467cd672">
          <g class="uuid-f785b5db-5be1-4e54-b244-0e04c344d1cb">
            <g class="uuid-429881ce-1ff1-46d3-be5a-fff019ee5baf">
              <path class="uuid-96177913-e0f1-40ad-b5d3-981742caae0f" d="M49.07,46.14c.01,.26-.42,.49-.98,.52-.55,.03-1.01-.15-1.03-.41-.01-.26,.42-.49,.98-.52,.55-.03,1.01,.15,1.03,.41"></path>
            </g>
          </g>
        </g>
        <path class="uuid-82f8d7f3-283d-4026-810c-5e801621aee0" d="M43.19,40.41c-.23,.01-.41-.16-.42-.17-.03-.03-.04-.09,0-.12,.03-.03,.09-.04,.12,0,0,0,.2,.18,.38,.1,.05-.02,.12-.1,.2-.19,.24-.28,.63-.75,1.47-.76,1.07-.02,1.26,.88,1.26,.89,.01,.05-.02,.09-.07,.1-.05,.01-.09-.02-.1-.07,0-.03-.17-.77-1.09-.75-.76,.01-1.11,.43-1.34,.7-.1,.11-.17,.2-.25,.24-.06,.03-.11,.04-.16,.04"></path>
        <path class="uuid-82f8d7f3-283d-4026-810c-5e801621aee0" d="M51.77,39.76c.23-.01,.39-.2,.4-.21,.03-.04,.03-.09-.01-.12-.04-.03-.09-.03-.12,.01,0,0-.18,.2-.37,.14-.05-.02-.13-.09-.21-.17-.26-.25-.71-.68-1.55-.6-1.06,.1-1.16,1.01-1.16,1.02,0,.05,.03,.09,.08,.1,.05,0,.09-.03,.09-.08,0-.03,.09-.78,1-.86,.76-.07,1.15,.3,1.41,.55,.11,.1,.19,.18,.28,.21,.06,.02,.11,.03,.16,.02"></path>
        <g class="uuid-1d3ae18e-4c4d-4a53-b008-fcc501c78eaa">
          <g class="uuid-0d59a551-8a72-4ffb-9129-9ab15cf2304b">
            <g class="uuid-db84eff1-8e4a-4edf-852c-4e870605d490">
              <path class="uuid-ef70a879-6732-48f8-9225-5194d70764d6" d="M42.85,45.21l.09,1.91c.58,.79,1.57,1.27,3.07,1.59,1.92,.41,2.61,.17,2.9-.32-.34-.17-.64-.3-.64-.3l-.05-.96c-.53,.16-2.68-.23-3.56-.81-.54-.35-1.18-.69-1.82-1.11"></path>
            </g>
          </g>
        </g>
        <path class="uuid-5a670fda-f6ad-42ad-9667-0d23ea0b8058" d="M43.21,31.26s5.61-1.31,7.59,1.97c1.94,3.21,1.33,3.95,1.33,3.95,0,0-10.6,.8-10.43,.49,.17-.31-1.18-4.22,1.51-6.41"></path>
        <path class="uuid-5a670fda-f6ad-42ad-9667-0d23ea0b8058" d="M36.39,45.8c.89,1.25,2.82,1.35,4.25,1.39,.85,.03,1.61-.04,2.12-.1,.35-.04,.58-.09,.63-.1-.03,0-1.6-.65-2.5-1.78-1-1.25-1.5-2.88-.92-5.25h0c.46-1.7,1.17-3.32,1.56-4.16,.17-.37,.29-.58,.29-.58l.19-.54v-.04s1.16-3.23,1.16-3.23l.05-.15s0,0,0,0c-1.67,.26-3.16,1.15-4.42,2.38-3.79,3.72-4.34,9.41-2.4,12.15"></path>
        <g class="uuid-b29c2b78-46c9-4f1b-bce4-d13b5f62e380">
          <g class="uuid-380aa3bf-fa04-417b-9558-dacb8b7082f5">
            <g class="uuid-e61069bc-2f1b-4308-91f1-72d826431f06">
              <path class="uuid-5a670fda-f6ad-42ad-9667-0d23ea0b8058" d="M38.79,33.65c.07,.05,.14,.1,.22,.15,.2,.12,.43,.24,.68,.34,.53,.22,1.15,.38,1.85,.48,.13,.02,.25,.04,.39,.05,.02,0,.05,0,.07,0,.72,.08,1.51,.09,2.33,.03,1.06-.08,2.04-.27,2.9-.55,1.37-.44,2.4-1.1,2.81-1.82,0,0,0,0,0-.01,0,0,.01-.02,.02-.03-.35-.32-.85-.66-1.53-.91-.02,0-.04-.02-.06-.02-.9-.36-2.02-.54-3.37-.46-.67,.04-1.31,.16-1.9,.36,0,0,0,0,0,0-1.67,.26-3.16,1.15-4.42,2.38"></path>
            </g>
          </g>
        </g>
        <path class="uuid-5eeb9495-d5c1-4964-8ebf-7f13908ce115" d="M39.89,32.05s-1.35-1.8-3.72-.84c-2.37,.96-1.57,8.09-1.67,8.82,0,0,3.97-3.33,4.99-5.51,.85-1.81,.39-2.47,.39-2.47"></path>
        <path class="uuid-afbf8a8d-f846-41da-a05e-ef78837bfdd4" d="M39.01,34.12c-.07,.29,.11,.58,.39,.65,.28,.07,.57-.11,.64-.4l.31-1.32c.07-.29-.11-.58-.39-.65-.28-.07-.57,.11-.64,.4l-.31,1.32Z"></path>
        <path class="uuid-afbf8a8d-f846-41da-a05e-ef78837bfdd4" d="M50.81,32.63s.56,.75,.34,1.19l-.55-.9s-.18-.23,.22-.29"></path>
        <path class="uuid-ef70a879-6732-48f8-9225-5194d70764d6" d="M50.54,78.01s-.56,8.3-.56,9.52-.24,7.16-.89,10.34c-.64,3.17-1.13,4.4-.48,6.02,.64,1.63,1.22,3.36,.4,3.66-2.54,.93-3.9-2.93-3.72-3.74,.18-.81,.62-1.72,.34-3.83-.72-5.34,.09-11.69-.35-14.57-.45-2.99,0-5.7,0-5.7l5.26-1.71Z"></path>
        <path class="uuid-ef70a879-6732-48f8-9225-5194d70764d6" d="M46.84,75.73s-1.45,11.48-2.02,12.94c-.56,1.46-3.95,12.78-3.14,15.63,.81,2.85,2.42,4.4,1.21,5.21-1.21,.81-4.29-3.06-4.19-5.37,.08-1.87-.65-6.19-.38-9.29,.17-1.96,1.56-4.47,1.48-6.18-.08-1.71-.86-12.94-.86-12.94h7.9Z"></path>
        <path class="uuid-1b499d6b-e569-4f37-af3a-f19addea41aa" d="M42.14,105.64s2.01,2.8,2.01,3.39c0,.53-.02,1.32-1.79,1.41-2.08,.12-3.43-1.23-3.95-2.11-.52-.89-.55-2.93,.29-3.91,.31,1.2,.5,3.4,2.8,3.4,1.54,0,1.04-1.01,.64-2.18"></path>
        <path class="uuid-f42a1681-3d4a-4c1a-b81f-bd2fe1aa6999" d="M41.72,104.43l.42,1.21s-2.59-.41-3.17,.77c-.1,.21-.94-.54-.46-.99s.42-1.08,3.21-.99"></path>
        <path class="uuid-1b499d6b-e569-4f37-af3a-f19addea41aa" d="M48.96,104.83s1.91,2.65,1.91,3.24c0,.53-.02,1.32-1.79,1.41-2.08,.12-3.43-1.23-3.95-2.11-.52-.89-.55-2.93,.29-3.91,.31,1.2,.5,3.4,2.8,3.39,1.54,0,1.15-.86,.74-2.03"></path>
        <path class="uuid-f42a1681-3d4a-4c1a-b81f-bd2fe1aa6999" d="M48.43,103.48l.42,1.07s-2.59-.27-3.17,.91c-.1,.21-.94-.54-.46-.99,.48-.44,.42-1.08,3.21-.99"></path>
        <path class="uuid-1b499d6b-e569-4f37-af3a-f19addea41aa" d="M35.41,82s.8,.24,2.12,.52c3.31,.7,9.9,1.66,15.51-.2,0,0-1.33-9.38-1.75-11.75-.53-2.97,.23-6.53,.67-12.19,.2-2.59,.74-9.02-3.65-10.31,.43,1.82-1.15,2.1-1.88,2.04-1.27-.1-2.66-1.88-3.21-2.66-.15-.22-.24-.35-.24-.35,0,0-.16,.08-.42,.22-.02,0-.03,.02-.05,.03-.51,.28-1.36,.76-2.09,1.33h0c-.41,.32-.78,.66-1.05,1-1.27,1.64-.65,3.22-.81,5.61-.17,2.6,.28,5.79,.61,8.64,.03,.24,.05,.47,.08,.71,.24,2.3,.35,4.31-.1,5.52-1.04,2.8-1.39,4.55-3.72,11.85"></path>
        <path class="uuid-ef70a879-6732-48f8-9225-5194d70764d6" d="M40.07,49.73c-.93,.52-2.08,1.97-1.47,4.75,.76,3.5,.97,7.63,3.22,7.75,1.18,.06,1.82-3.04,1.56-5.02-.26-1.98,.55-5.36-.66-6.88-.92-1.16-1.96-.99-2.65-.61"></path>
        <path class="uuid-79b6b8a0-3aa9-489e-863e-df8997c72513" d="M51.01,60.21c.23,.59,1.52,3.14,2.5,.17,1.86-5.64-1.74-10.87-1.74-10.87,0,0-1.82,1.31-1.69,1.62,.13,.32,.32,2.36,.41,2.9,.14,.86,.01,4.84,.52,6.16"></path>
        <path class="uuid-5f78f236-74c2-41d9-b950-3264c81b81cd" d="M39.15,63.91c.03,.24,.05,.47,.08,.71,.24,.27,.51,.49,.82,.62,1.56,.68,2.33-.35,3.37-2.03,3.59-5.77,4.3-10.36,3.01-13.11-.63-1.34-1.73-2.26-3.21-2.65-.21-.06-.43-.11-.65-.14,0,0,0,0-.01,0-.02,0-.03,.02-.05,.03-1.35,.67-2.03,1.28-2.09,1.33,0,0,0,0,0,0,9.35-1.32,2.37,15.72,.27,16.07-.62,.1-1.12-.26-1.52-.83"></path>
        <path class="uuid-79b6b8a0-3aa9-489e-863e-df8997c72513" d="M51.77,49.52s-.51-1.33-1-1.4c-.49-.07-2.19,.64-1.75,1.74,.44,1.1,1.07,1.28,1.07,1.28l1.69-1.62Z"></path>
        <path class="uuid-ef70a879-6732-48f8-9225-5194d70764d6" d="M45.42,52.16s-1.25-1.12-1.26-1.92c0-.53,.55-.15,.63-.15s.87,1.43,1.42,.91c.41-.38,.42-1.01,.47-1.33,.12-.78,3.32,0,3.06,1.36-.26,1.35-1.15,2.67-1.15,2.67l-3.09-.6-.07-.94Z"></path>
        <path class="uuid-ef70a879-6732-48f8-9225-5194d70764d6" d="M48.58,53.7s-1.32,3.12-2.66,4.97c-1.41,1.95-2.76,3.89-4.33,3.51-1.41-.34-1.82-1.88-1.15-2.85,.67-.98,2.78-2.49,3.94-3.83,1.01-1.16,1.12-2.4,1.12-2.4l3.09,.6Z"></path>
        <polygon class="uuid-1651e814-89d7-4376-914b-ebf5dea2968d" points="41.44 64.07 42.59 64.72 43.53 63.3 42.3 62.64 41.44 64.07"></polygon>
        <path class="uuid-a276867a-603f-4891-877f-133a7e0ad610" d="M42.54,64.7s-1.37,.84-1.48,2.19c-.11,1.35-.14,3.56-.14,3.56h-1.01s-.04-2.93,.16-4.22c.2-1.28,1.41-2.14,1.41-2.14l1.05,.59Z"></path>
      </g>
    </g>
  </g>
</svg>
