<?xml version="1.0" encoding="UTF-8"?>
<svg xmlns="http://www.w3.org/2000/svg" xmlns:xlink="http://www.w3.org/1999/xlink" viewBox="0 0 120 120">
  <defs>
    <style>.uuid-2d790cd1-cff0-4fac-8da3-8a886686dac7{stroke:#fff;stroke-miterlimit:10;stroke-width:2.77px;}.uuid-2d790cd1-cff0-4fac-8da3-8a886686dac7,.uuid-abe640e8-0f02-4d91-8c5d-72f2440262f9{fill:none;}.uuid-359f1e60-c460-4482-8165-2ca37b613208{fill:#fff;}.uuid-4bdad419-53ad-4af2-9501-625408319572{clip-path:url(#uuid-ceede9d9-0093-410e-813d-1c5118d4346f);}.uuid-a2f87d0d-45fa-4380-80ed-8d2e96ebf007{opacity:.85;}.uuid-4448b527-da26-4908-bad3-ef3669de4e02{fill:#79d4e1;}.uuid-67d09ced-74ca-4139-95e0-39008811dea0{fill:#fe6f09;}.uuid-537d3cfc-294b-4f33-a216-df1c47541d54{fill:#f5f5f5;}.uuid-743230b6-9627-4dc6-95fc-e5150830d95c{isolation:isolate;}.uuid-ef9992a4-1d3f-4e2d-8653-09419caf6029{fill:#1e2f30;}.uuid-a1799df4-a195-482e-a44a-5027c5159231{fill:#393939;}.uuid-42a195f2-a135-438a-801b-60970917202c{clip-path:url(#uuid-40548c3b-28c2-4763-86fe-51301c301cc2);}.uuid-69c141c9-f9ba-490c-b009-553cbfc14303{fill:#d8e2ff;}.uuid-0858e0fd-37ee-43fa-b1fe-058d8507c65f{clip-path:url(#uuid-e868af61-423b-4ffc-9dcb-0b7d5155af6f);}.uuid-fcdd9e6f-47c8-4291-a86d-3fdb48551048{opacity:.15;}.uuid-1ffa6a05-a792-43d0-b816-d624b88cce23{clip-path:url(#uuid-7d71c531-8485-4786-807b-ebb4c27037c0);}.uuid-66561572-4693-438b-b645-165596dbb382{fill:#cc1212;}.uuid-10e6c490-0fa3-44ef-aa4d-2744bf59bfe6{clip-path:url(#uuid-5ceda6a1-ac91-4639-bbf8-5910af67ce47);}.uuid-31dcb59c-212e-4b68-817a-96d685cd8099{fill:#172224;}.uuid-6f624d22-868f-461e-a574-e925d0d3b9ef{fill:#b20808;}.uuid-364214ae-9c04-44e7-b2ec-c49dbeadc495{fill:#a7abab;}.uuid-9a34d89e-49f0-45ea-b0c0-951942b803b2{fill:#b54f06;}.uuid-c1db6592-ed67-452b-9cf2-24057957b16c{clip-path:url(#uuid-39686a55-656c-417e-845b-1dc9be6c7e53);}.uuid-fd59c857-2e9a-4f6e-9b55-0fdc7ac9227e{fill:#152021;}.uuid-abce9036-c541-448c-bf2c-07ea21692131{opacity:.9;}.uuid-55accab0-82c4-4d10-9fa1-9b766387a837{clip-path:url(#uuid-da2e03a2-19fe-4dd7-aad7-4783d2a0d089);}.uuid-3de2957a-2a20-497a-a728-5b15f3b6f7ef{mix-blend-mode:multiply;opacity:.5;}.uuid-ae623b00-568b-427e-82da-b21d48d8d4be{fill:#ff8b0d;}.uuid-9967c3ce-6632-4157-9330-c407e7f56c76{fill:#01474c;}.uuid-2fe4ff30-0f95-4e6c-b4b5-c33acebca8d7{clip-path:url(#uuid-22779822-2423-407f-998a-8ec4c7726756);}.uuid-fe79e5cf-21d1-4faa-a02b-deca13dab9f4{fill:#879898;}.uuid-e26d1b7f-4695-46d9-9d8c-c2c6cc14ace9{fill:#1a2829;}.uuid-6427d755-9852-401e-9824-9f52b374e58b{fill:#cc5a07;}.uuid-c53567ef-e9d5-4eb9-bcad-9fecb471eb49{clip-path:url(#uuid-e89d7ed6-c3a9-4657-bece-2906eca36078);}.uuid-deb3e054-ce30-4807-af95-b99579d7cdb0{fill:#eaedf4;}.uuid-ba016dab-23f2-49d6-be12-26b7f0d0b28c{fill:#fe6e08;}.uuid-2edbad2b-33a7-47ab-9d17-02823cc16316{fill:#d1daf2;}.uuid-7c16bcc1-5b78-4d33-bc12-beeb57f6d551{fill:#070a0a;}.uuid-4112de01-6171-41ea-afc6-d31e2f18693b{fill:#080c0d;}.uuid-b081559d-e7ef-454f-9853-09cd38fc5bf0{clip-path:url(#uuid-3fca6a93-a1a2-48be-b33b-b1871c794127);}.uuid-4d6dbfd2-4d72-4d8b-9220-b508ba72a1f9{fill:#700c09;}</style>
    <clipPath id="uuid-ceede9d9-0093-410e-813d-1c5118d4346f">
      <rect class="uuid-abe640e8-0f02-4d91-8c5d-72f2440262f9" x="75.32" y="70.02" width="18.94" height="13.39"></rect>
    </clipPath>
    <clipPath id="uuid-22779822-2423-407f-998a-8ec4c7726756">
      <rect class="uuid-abe640e8-0f02-4d91-8c5d-72f2440262f9" x="75.32" y="70.02" width="18.94" height="13.39"></rect>
    </clipPath>
    <clipPath id="uuid-39686a55-656c-417e-845b-1dc9be6c7e53">
      <rect class="uuid-abe640e8-0f02-4d91-8c5d-72f2440262f9" x="75.53" y="70.66" width="10.56" height="11.47"></rect>
    </clipPath>
    <clipPath id="uuid-40548c3b-28c2-4763-86fe-51301c301cc2">
      <rect class="uuid-abe640e8-0f02-4d91-8c5d-72f2440262f9" x="75.53" y="70.66" width="10.56" height="11.47"></rect>
    </clipPath>
    <clipPath id="uuid-3fca6a93-a1a2-48be-b33b-b1871c794127">
      <rect class="uuid-abe640e8-0f02-4d91-8c5d-72f2440262f9" x="102.61" y="82.81" width="2.31" height="3.95"></rect>
    </clipPath>
    <clipPath id="uuid-da2e03a2-19fe-4dd7-aad7-4783d2a0d089">
      <rect class="uuid-abe640e8-0f02-4d91-8c5d-72f2440262f9" x="102.61" y="82.81" width="2.31" height="3.95"></rect>
    </clipPath>
    <clipPath id="uuid-7d71c531-8485-4786-807b-ebb4c27037c0">
      <rect class="uuid-abe640e8-0f02-4d91-8c5d-72f2440262f9" x="76.34" y="83.4" width="4.09" height="1.43"></rect>
    </clipPath>
    <clipPath id="uuid-e868af61-423b-4ffc-9dcb-0b7d5155af6f">
      <rect class="uuid-abe640e8-0f02-4d91-8c5d-72f2440262f9" x="76.34" y="83.4" width="4.09" height="1.43"></rect>
    </clipPath>
    <clipPath id="uuid-e89d7ed6-c3a9-4657-bece-2906eca36078">
      <rect class="uuid-abe640e8-0f02-4d91-8c5d-72f2440262f9" x="67.33" y="83.41" width="4.09" height="1.43"></rect>
    </clipPath>
    <clipPath id="uuid-5ceda6a1-ac91-4639-bbf8-5910af67ce47">
      <rect class="uuid-abe640e8-0f02-4d91-8c5d-72f2440262f9" x="67.33" y="83.41" width="4.09" height="1.43"></rect>
    </clipPath>
  </defs>
  <g class="uuid-743230b6-9627-4dc6-95fc-e5150830d95c">
    <g id="uuid-4368cedd-a001-4402-b6dd-b716ab37a91d">
      <circle class="uuid-537d3cfc-294b-4f33-a216-df1c47541d54" cx="60.39" cy="60.78" r="50"></circle>
      <g>
        <path class="uuid-359f1e60-c460-4482-8165-2ca37b613208" d="M107.3,94.39s0-.04,0-.06c-.02-.31-.04-.61-.07-.91,0-.02,0-.04,0-.06,0-.02,0-.04,0-.06-.02-.21-.05-.41-.07-.61,0-.02,0-.04,0-.06-.02-.18-.05-.36-.08-.53,0-.05-.02-.1-.02-.15-.02-.15-.05-.29-.07-.43,0-.04-.01-.08-.02-.11-.03-.17-.06-.34-.09-.5,0,0,0,0,0,0-.03-.16-.06-.3-.09-.43,0-.03-.01-.06-.02-.09-.03-.11-.05-.2-.07-.29,0-.02,0-.04-.01-.06-.02-.1-.04-.19-.06-.26,0-.03-.01-.05-.02-.08,0-.03-.02-.06-.02-.08,0,0,0-.03,0-.04-.02-.06-.02-.08-.02-.08l-1.26-.29s0-.01,0-.02c-.06-.85-.15-1.59-.26-2.23-.41-2.32-1.14-3.37-2.01-3.89-.71-.43-1.51-.52-2.3-.66-1.32-.25-2.48-.69-3.48-1.2-1.31-.68-2.35-1.48-3.15-2.17-2.23-1.92-4.25-3.64-6.04-5.16-.46-.39-.9-.76-1.32-1.12-.21-.17-.41-.35-.61-.51-.2-.17-.4-.34-.6-.5-.37-.31-.73-.62-1.08-.91-.31-.26-.61-.52-.9-.76-3.17-2.66-4.89-4.08-4.89-4.08-.18-.15-.37-.29-.57-.41-1.7-1.08-3.84-1.13-3.84-1.13-7.94-.49-54.75-.49-54.75-.49-1.44,0-1.83,.1-1.83,.1-.55,.12-.96,.6-1.27,1.21-.49,.97-.71,2.26-.85,2.95-.11,.57-.21,1.19-.31,1.85-.12,.84-.23,1.74-.32,2.68-.27,2.73-.44,5.75-.55,8.44-.02,.46-.03,.9-.05,1.34v.03c0,.19-.01,.37-.02,.56,0,.12,0,.25,0,.37,0,.05,0,.1,0,.14,0,.04,0,.07,0,.11,0,.14,0,.29-.01,.43,0,.17,0,.33-.01,.48,0,0,0,.01,0,.02,0,.17,0,.35-.01,.52-.01,.66-.03,1.26-.03,1.77,0,.44-.01,.81-.01,1.12,0,.57,0,.89,0,.89-.01,0-.02,.01-.03,.01-.2,.08-.16,.07-.21,.11-1.13,1.1,0,8.8,0,8.8,4.36,.02,9.33,.03,14.65,.04h1.11c.62,2.57,2.93,4.48,5.69,4.48s5.06-1.91,5.68-4.47h1.14c16.01,0,32.95,0,44.77-.03h1.14c.62,2.56,2.93,4.47,5.68,4.47s5.07-1.92,5.69-4.49h1.12c1.17,0,1.81,0,1.81,0,4.51,0,4.91-1.13,4.91-2.51,0-.33,0-.66-.02-.99"></path>
        <path class="uuid-359f1e60-c460-4482-8165-2ca37b613208" d="M35.38,106.62c-3.46,0-6.56-1.74-8.38-4.49-4.73,0-9.16-.02-13.09-.04l-3.62-.02-.53-3.58c-.01-.09-.31-2.11-.46-4.31-.19-2.83-.13-5.05,.67-6.7,0-.18,0-.38,0-.6,0-.52,.02-1.13,.03-1.8l.04-1.43,4.21,.03-4.21-.12,.04-1.15c.02-.47,.03-.92,.05-1.39,.13-3.34,.32-6.26,.57-8.7,.11-1.06,.22-2,.34-2.86,.1-.74,.22-1.44,.34-2.06l.03-.15c.23-1.19,.53-2.57,1.18-3.88,1.16-2.32,2.85-3.15,4.09-3.43,.42-.1,1.17-.2,2.78-.21,1.9,0,46.78,0,54.94,.49,.74,.03,3.47,.23,5.9,1.78,.35,.22,.69,.47,1,.73,.23,.19,1.94,1.59,4.9,4.08l.91,.77c.33,.28,.7,.59,1.08,.91l2.52,2.13c1.8,1.53,3.82,3.25,6.06,5.17,.52,.45,1.33,1.1,2.34,1.62,.75,.39,1.53,.66,2.32,.81l.3,.05c.85,.15,2.13,.37,3.41,1.15,1.98,1.21,3.26,3.26,3.88,6.28l.81,.18,1.03,3.66,.09,.56c.03,.16,.06,.33,.09,.5l.03,.14c.03,.15,.06,.32,.08,.49l.03,.16c.03,.22,.06,.42,.09,.64v.09c.04,.22,.07,.46,.09,.71l.02,.19c.03,.33,.06,.68,.08,1.05v.09c.02,.4,.03,.81,.03,1.21-.03,4.44-3.1,6.69-9.12,6.69h-.23c-1.82,2.75-4.92,4.5-8.39,4.5s-6.54-1.73-8.37-4.47c-11.07,.02-26.68,.03-41.68,.03-1.82,2.74-4.92,4.47-8.36,4.47m-17.66-12.93c3.38,.01,7.04,.02,10.88,.03h4.42s.78,3.22,.78,3.22c.18,.74,.83,1.26,1.59,1.26s1.41-.52,1.59-1.25l.78-3.22h4.45c16.17,.02,33.27,0,44.76-.02h4.45s.78,3.21,.78,3.21c.18,.74,.84,1.26,1.59,1.26s1.42-.52,1.6-1.26l.77-3.22h6.25c.23-.01,.44-.02,.62-.02-.02-.15-.03-.3-.05-.45-.01-.09-.02-.17-.03-.24l-1.88-.43v-3.21c-.05-.61-.11-1.17-.2-1.67-.09-.49-.18-.82-.25-1.02-.09-.02-.19-.03-.28-.05l-.4-.07c-1.61-.3-3.17-.84-4.65-1.61-1.36-.7-2.62-1.56-3.95-2.71-2.23-1.91-4.24-3.63-6.03-5.14l-2.52-2.13c-.37-.31-.72-.61-1.06-.89l-.91-.76c-3.13-2.64-4.84-4.04-4.85-4.05l-.06-.05s-.03-.03-.08-.06c-.53-.34-1.48-.47-1.68-.48h-.17c-7.37-.46-49.76-.48-54.14-.48-.06,.27-.11,.53-.14,.69l-.03,.17c-.09,.48-.18,1.02-.27,1.63-.11,.74-.21,1.58-.3,2.51-.23,2.27-.41,5.02-.53,8.19-.02,.45-.03,.88-.05,1.31l-.07,2.6c-.02,.65-.03,1.23-.03,1.74,0,.43-.01,.79-.01,1.09,0,.55,0,.85,0,.86v2.99s-.74,.26-.74,.26c0,.44,.03,.95,.07,1.49m84.75-3.12s0,0,0,.02v-.02Zm3.83-.09h0s.45-.1,.45-.1l-.45,.1Zm.17-.77h0s.1-.03,.1-.03l-.1,.03Z"></path>
        <path class="uuid-2d790cd1-cff0-4fac-8da3-8a886686dac7" d="M35.38,106.62c-3.46,0-6.56-1.74-8.38-4.49-4.73,0-9.16-.02-13.09-.04l-3.62-.02-.53-3.58c-.01-.09-.31-2.11-.46-4.31-.19-2.83-.13-5.05,.67-6.7,0-.18,0-.38,0-.6,0-.52,.02-1.13,.03-1.8l.04-1.43,4.21,.03-4.21-.12,.04-1.15c.02-.47,.03-.92,.05-1.39,.13-3.34,.32-6.26,.57-8.7,.11-1.06,.22-2,.34-2.86,.1-.74,.22-1.44,.34-2.06l.03-.15c.23-1.19,.53-2.57,1.18-3.88,1.16-2.32,2.85-3.15,4.09-3.43,.42-.1,1.17-.2,2.78-.21,1.9,0,46.78,0,54.94,.49,.74,.03,3.47,.23,5.9,1.78,.35,.22,.69,.47,1,.73,.23,.19,1.94,1.59,4.9,4.08l.91,.77c.33,.28,.7,.59,1.08,.91l2.52,2.13c1.8,1.53,3.82,3.25,6.06,5.17,.52,.45,1.33,1.1,2.34,1.62,.75,.39,1.53,.66,2.32,.81l.3,.05c.85,.15,2.13,.37,3.41,1.15,1.98,1.21,3.26,3.26,3.88,6.28l.81,.18,1.03,3.66,.09,.56c.03,.16,.06,.33,.09,.5l.03,.14c.03,.15,.06,.32,.08,.49l.03,.16c.03,.22,.06,.42,.09,.64v.09c.04,.22,.07,.46,.09,.71l.02,.19c.03,.33,.06,.68,.08,1.05v.09c.02,.4,.03,.81,.03,1.21-.03,4.44-3.1,6.69-9.12,6.69h-.23c-1.82,2.75-4.92,4.5-8.39,4.5s-6.54-1.73-8.37-4.47c-11.07,.02-26.68,.03-41.68,.03-1.82,2.74-4.92,4.47-8.36,4.47Zm-17.66-12.93c3.38,.01,7.04,.02,10.88,.03h4.42s.78,3.22,.78,3.22c.18,.74,.83,1.26,1.59,1.26s1.41-.52,1.59-1.25l.78-3.22h4.45c16.17,.02,33.27,0,44.76-.02h4.45s.78,3.21,.78,3.21c.18,.74,.84,1.26,1.59,1.26s1.42-.52,1.6-1.26l.77-3.22h6.25c.23-.01,.44-.02,.62-.02-.02-.15-.03-.3-.05-.45-.01-.09-.02-.17-.03-.24l-1.88-.43v-3.21c-.05-.61-.11-1.17-.2-1.67-.09-.49-.18-.82-.25-1.02-.09-.02-.19-.03-.28-.05l-.4-.07c-1.61-.3-3.17-.84-4.65-1.61-1.36-.7-2.62-1.56-3.95-2.71-2.23-1.91-4.24-3.63-6.03-5.14l-2.52-2.13c-.37-.31-.72-.61-1.06-.89l-.91-.76c-3.13-2.64-4.84-4.04-4.85-4.05l-.06-.05s-.03-.03-.08-.06c-.53-.34-1.48-.47-1.68-.48h-.17c-7.37-.46-49.76-.48-54.14-.48-.06,.27-.11,.53-.14,.69l-.03,.17c-.09,.48-.18,1.02-.27,1.63-.11,.74-.21,1.58-.3,2.51-.23,2.27-.41,5.02-.53,8.19-.02,.45-.03,.88-.05,1.31l-.07,2.6c-.02,.65-.03,1.23-.03,1.74,0,.43-.01,.79-.01,1.09,0,.55,0,.85,0,.86v2.99s-.74,.26-.74,.26c0,.44,.03,.95,.07,1.49Zm84.75-3.12s0,0,0,.02v-.02Zm3.83-.09h0s.45-.1,.45-.1l-.45,.1Zm.17-.77h0s.1-.03,.1-.03l-.1,.03Z"></path>
        <path class="uuid-a1799df4-a195-482e-a44a-5027c5159231" d="M84.95,84.78c-.1,.19-.33,.26-.52,.16-.19-.1-.26-.33-.16-.51l3.77-7.14c.1-.19,.33-.26,.51-.16,.19,.1,.26,.33,.16,.52l-3.77,7.14Z"></path>
        <g class="uuid-a2f87d0d-45fa-4380-80ed-8d2e96ebf007">
          <g class="uuid-4bdad419-53ad-4af2-9501-625408319572">
            <g class="uuid-2fe4ff30-0f95-4e6c-b4b5-c33acebca8d7">
              <polygon class="uuid-9967c3ce-6632-4157-9330-c407e7f56c76" points="75.78 70.99 75.32 72.25 75.32 73.54 75.78 75.15 76.08 76.9 76.46 78.99 76.65 80.06 77.22 81.28 77.72 82.16 78.63 82.59 79.81 82.89 81.26 83.23 82.41 83.23 83.89 83.41 85.49 83.41 86.86 83.41 88.35 83.39 89.49 83.39 90.75 83.23 92.01 83.23 92.88 82.89 93.81 82.59 94.26 82.27 94.26 81.39 93.8 80.62 93.26 79.53 92.21 78.68 91.4 77.76 90.67 76.94 89.74 76.04 89.07 75.14 88 74.54 87.33 74.01 86.55 73.12 85.49 72.35 84.62 71.89 83.85 71.52 82.62 70.99 81.86 70.76 80.31 70.2 78.86 70.02 77.53 70.02 75.78 70.99"></polygon>
            </g>
          </g>
        </g>
        <polygon class="uuid-fd59c857-2e9a-4f6e-9b55-0fdc7ac9227e" points="84.24 71.89 85.61 83.3 86.16 83.39 84.79 72.32 84.24 71.89"></polygon>
        <g class="uuid-fcdd9e6f-47c8-4291-a86d-3fdb48551048">
          <g class="uuid-c1db6592-ed67-452b-9cf2-24057957b16c">
            <g class="uuid-42a195f2-a135-438a-801b-60970917202c">
              <path class="uuid-4448b527-da26-4908-bad3-ef3669de4e02" d="M86.1,72.07c-.07,.08-.13,.16-.2,.24-.24,.29-.49,.58-.74,.86-.2,.23-.41,.46-.62,.68-.92,.99-1.85,1.93-2.79,2.87-.95,.93-1.9,1.86-2.9,2.77-.42,.38-.85,.76-1.29,1.13-.08,.07-.17,.14-.25,.21-.27,.22-.54,.44-.82,.65-.28,.22-.57,.43-.88,.64-.08-.5-.09-.95-.08-1.4,0-.44,.05-.86,.11-1.27,.12-.82,.33-1.57,.6-2.28,.06-.17,.13-.33,.2-.49,.53-1.2,1.27-2.24,2.15-3.12,.93-.92,2.02-1.67,3.29-2.2,.11-.05,.22-.09,.34-.14,.68-.26,1.41-.46,2.19-.58,.34,.29,.7,.59,1.08,.91,.19,.17,.39,.33,.6,.5"></path>
            </g>
          </g>
        </g>
        <polygon class="uuid-fd59c857-2e9a-4f6e-9b55-0fdc7ac9227e" points="89.36 76.17 90.22 82.89 93.75 82.88 94.01 81.66 93.93 80.75 89.36 76.17"></polygon>
        <polygon class="uuid-4112de01-6171-41ea-afc6-d31e2f18693b" points="27.2 97.25 28.59 97.76 42.2 97.78 43.26 97.05 43.54 95.53 42.63 93.91 42.51 92.24 41.71 91.26 40.57 89.83 39.34 89.03 37.2 88.23 34.9 88.23 32.84 88.52 30.8 89.03 29.88 90.15 28.45 91.78 28.06 93.21 27.77 94.4 27.2 97.25"></polygon>
        <polygon class="uuid-4112de01-6171-41ea-afc6-d31e2f18693b" points="85.49 97.22 86.97 97.75 100.6 97.72 101.44 96.98 101.67 95.67 101.67 93.54 100.92 92.22 99.95 90.54 98.18 89.4 96.6 89.01 94.7 88.18 92.62 88.18 90.63 89.01 88.58 89.99 87.94 90.75 86.69 92.96 86.16 94.36 85.49 97.22"></polygon>
        <path class="uuid-ba016dab-23f2-49d6-be12-26b7f0d0b28c" d="M106.52,89.32l-1.26-.29v-.02c-.06-.85-.15-1.59-.26-2.23-.41-2.32-1.14-3.37-2.01-3.89-.71-.43-1.51-.51-2.3-.66-1.32-.24-2.47-.68-3.48-1.2-1.31-.68-2.35-1.48-3.15-2.17-2.23-1.92-4.25-3.64-6.04-5.16-.45-.39-.9-.76-1.32-1.12-.21-.17-.41-.35-.61-.51-.2-.17-.4-.34-.6-.5-.37-.31-.73-.62-1.07-.91-.31-.26-.61-.52-.9-.76-3.17-2.66-4.89-4.08-4.89-4.08-.18-.15-.37-.29-.57-.41-1.7-1.08-3.84-1.13-3.84-1.13-7.94-.49-54.75-.49-54.75-.49-1.44,0-1.83,.1-1.83,.1-.55,.12-.96,.6-1.27,1.21-.49,.97-.71,2.26-.85,2.95-.11,.57-.21,1.19-.31,1.85-.12,.84-.23,1.74-.32,2.68-.27,2.73-.45,5.75-.55,8.44,0,.2-.02,.4-.02,.59-.08,2.05-.12,3.87-.13,5.17,0,.44-.01,.81-.01,1.12,0,.57,0,.89,0,.89-.01,0-.03,.01-.03,.01-.2,.08-.16,.07-.21,.11-1.13,1.1,0,8.8,0,8.8,4.36,.02,9.33,.03,14.65,.04-.15-.56-.22-1.15-.22-1.76,0-2.37,1.17-4.47,2.97-5.74,1.15-.81,2.55-1.29,4.06-1.29,.3,0,.6,.02,.9,.06,1.32,.17,2.53,.71,3.52,1.5,.28,.22,.53,.46,.77,.72,1.15,1.25,1.84,2.92,1.84,4.74,0,.61-.08,1.2-.23,1.77,16.01,0,32.95,0,44.77-.03-.1-.39-.17-.79-.2-1.2,0-.08-.01-.15-.01-.23,0-.1,0-.21,0-.31,0-1.83,.7-3.49,1.84-4.74,.24-.26,.5-.5,.77-.72,.81-.66,1.77-1.14,2.82-1.38,.08-.02,.15-.03,.23-.05,.16-.03,.31-.06,.47-.08,.3-.04,.59-.06,.9-.06,1.67,0,3.19,.58,4.4,1.55,1.61,1.29,2.63,3.26,2.63,5.48,0,.59-.07,1.17-.21,1.72,1.17,0,1.81,0,1.81,0,4.52,0,4.91-1.13,4.92-2.51,.02-2.94-.8-5.89-.8-5.89m-33.15,6.98h-21.83v-30.54h21.83v30.54Zm18.87-13.71c-.07,0-.15,.01-.23,.02-.04,0-.08,0-.12,0,0,0-5.57,.27-10.25-.08-.21-.02-.46-.04-.74-.07-1.01-.12-2.35-.38-2.92-1.04,0,0-.09-.09-.24-.4-.05-.11-.11-.24-.18-.4-.02-.04-.03-.08-.05-.12-.27-.69-.64-1.86-1.06-3.81-.23-1.07-.47-2.37-.72-3.95,0-.05-.02-.11-.02-.16-.09-.78,.12-1.36,1.54-1.52,1.15-.12,2.99-.19,4.64,.31,.56,.17,1.09,.4,1.57,.72,0,0,.16,.09,.47,.27,.1,.06,.21,.13,.34,.22,.24,.16,.54,.35,.88,.59,.54,.38,1.2,.86,1.95,1.47,1.34,1.09,2.97,2.55,4.76,4.46,.09,.09,.18,.19,.26,.28,.22,.24,.45,.49,.68,.75,0,0,.41,.41,.65,.89,.32,.64,.35,1.41-1.21,1.56"></path>
        <rect class="uuid-fd59c857-2e9a-4f6e-9b55-0fdc7ac9227e" x="26.91" y="79.09" width="24.86" height="1.14"></rect>
        <rect class="uuid-67d09ced-74ca-4139-95e0-39008811dea0" x="51.43" y="65.76" width="21.83" height="30.54"></rect>
        <path class="uuid-ae623b00-568b-427e-82da-b21d48d8d4be" d="M105,86.79H14.2c.02-1.42,.07-3.47,.16-5.76h63.39c.16,.31,.24,.4,.24,.4,.72,.84,2.71,1.03,3.66,1.11,4.68,.35,10.25,.08,10.25,.08,.04,0,.08,0,.12,0,.08,0,.16,0,.23-.02,1.56-.15,1.53-.92,1.22-1.56h3.76c1,.52,2.16,.96,3.48,1.2,.79,.15,1.59,.23,2.3,.66,.87,.53,1.6,1.57,2.01,3.89"></path>
        <path class="uuid-31dcb59c-212e-4b68-817a-96d685cd8099" d="M99.64,96.37c0,3.23-2.62,5.85-5.85,5.85s-5.85-2.62-5.85-5.85,2.62-5.85,5.85-5.85,5.85,2.62,5.85,5.85"></path>
        <path class="uuid-fe79e5cf-21d1-4faa-a02b-deca13dab9f4" d="M97.94,96.37c0,2.29-1.86,4.15-4.15,4.15s-4.15-1.86-4.15-4.15,1.86-4.15,4.15-4.15,4.15,1.86,4.15,4.15"></path>
        <path class="uuid-364214ae-9c04-44e7-b2ec-c49dbeadc495" d="M96.19,96.37c0,1.33-1.08,2.4-2.4,2.4s-2.4-1.07-2.4-2.4,1.07-2.4,2.4-2.4,2.4,1.07,2.4,2.4"></path>
        <path class="uuid-31dcb59c-212e-4b68-817a-96d685cd8099" d="M94.65,96.37c0,.47-.38,.86-.86,.86s-.86-.38-.86-.86,.38-.86,.86-.86,.86,.38,.86,.86"></path>
        <path class="uuid-4112de01-6171-41ea-afc6-d31e2f18693b" d="M93.92,93.3c0,.06-.05,.11-.11,.11h-.38c-.06,0-.11-.05-.11-.11s.05-.11,.11-.11h.38c.06,0,.11,.05,.11,.11"></path>
        <path class="uuid-4112de01-6171-41ea-afc6-d31e2f18693b" d="M92.88,93.43c.02,.06,0,.12-.07,.15l-.36,.13c-.06,.02-.12,0-.15-.07-.02-.06,0-.12,.07-.15l.36-.13c.06-.02,.13,0,.15,.07"></path>
        <path class="uuid-4112de01-6171-41ea-afc6-d31e2f18693b" d="M91.94,93.92s.03,.12-.01,.16l-.29,.24s-.12,.03-.16-.01c-.04-.05-.03-.12,.01-.16l.29-.24s.12-.03,.16,.01"></path>
        <path class="uuid-4112de01-6171-41ea-afc6-d31e2f18693b" d="M91.23,94.7c.05,.03,.07,.1,.04,.16l-.19,.33c-.03,.05-.1,.07-.16,.04-.05-.03-.07-.1-.04-.16l.19-.33c.03-.05,.1-.07,.16-.04"></path>
        <path class="uuid-4112de01-6171-41ea-afc6-d31e2f18693b" d="M90.83,95.67c.06,.01,.1,.07,.09,.13l-.07,.38c-.01,.06-.07,.1-.13,.09-.06,0-.1-.07-.1-.13l.07-.38c.01-.06,.07-.1,.13-.09"></path>
        <path class="uuid-4112de01-6171-41ea-afc6-d31e2f18693b" d="M90.78,96.72c.06-.01,.12,.03,.13,.09l.07,.38c.01,.06-.03,.12-.09,.13-.06,.01-.12-.03-.13-.09l-.07-.38c-.01-.06,.03-.12,.09-.13"></path>
        <path class="uuid-4112de01-6171-41ea-afc6-d31e2f18693b" d="M91.1,97.73c.05-.03,.12-.01,.16,.04l.19,.33c.03,.05,.01,.12-.04,.16-.06,.03-.13,.01-.16-.04l-.19-.33c-.03-.05-.01-.12,.04-.16"></path>
        <path class="uuid-4112de01-6171-41ea-afc6-d31e2f18693b" d="M91.74,98.56s.11-.05,.16-.01l.29,.24s.05,.11,.01,.16c-.04,.05-.11,.05-.16,.01l-.29-.24s-.05-.11-.01-.16"></path>
        <path class="uuid-4112de01-6171-41ea-afc6-d31e2f18693b" d="M92.63,99.13c.02-.06,.09-.09,.15-.07l.36,.13c.06,.02,.09,.09,.07,.15-.02,.06-.09,.09-.15,.07l-.36-.13c-.06-.02-.09-.09-.07-.15"></path>
        <path class="uuid-4112de01-6171-41ea-afc6-d31e2f18693b" d="M93.66,99.36c0-.06,.05-.11,.11-.11h.38c.06,0,.11,.05,.11,.11s-.05,.11-.11,.11h-.38c-.06,0-.11-.05-.11-.11"></path>
        <path class="uuid-4112de01-6171-41ea-afc6-d31e2f18693b" d="M94.7,99.22c-.02-.06,0-.12,.07-.15l.36-.13c.06-.02,.13,0,.15,.07,.02,.06,0,.12-.07,.15l-.36,.13c-.06,.02-.13,0-.15-.07"></path>
        <path class="uuid-4112de01-6171-41ea-afc6-d31e2f18693b" d="M95.64,98.73s-.03-.12,.01-.16l.29-.24s.12-.03,.16,.01c.04,.05,.03,.12-.01,.16l-.29,.24s-.12,.03-.16-.01"></path>
        <path class="uuid-4112de01-6171-41ea-afc6-d31e2f18693b" d="M96.35,97.95c-.05-.03-.07-.1-.04-.16l.19-.33c.03-.05,.1-.07,.16-.04,.05,.03,.07,.1,.04,.16l-.19,.33c-.03,.05-.1,.07-.16,.04"></path>
        <path class="uuid-4112de01-6171-41ea-afc6-d31e2f18693b" d="M96.75,96.98c-.06-.01-.1-.07-.09-.13l.07-.38c.01-.06,.07-.1,.13-.09,.06,0,.1,.07,.09,.13l-.07,.38c-.01,.06-.07,.1-.13,.09"></path>
        <path class="uuid-4112de01-6171-41ea-afc6-d31e2f18693b" d="M96.8,95.93c-.06,.01-.12-.03-.13-.09l-.07-.38c0-.06,.03-.12,.09-.13,.06-.01,.12,.03,.13,.09l.07,.38c.01,.06-.03,.12-.09,.13"></path>
        <path class="uuid-4112de01-6171-41ea-afc6-d31e2f18693b" d="M96.48,94.92c-.05,.03-.12,.01-.16-.04l-.19-.33c-.03-.05-.01-.12,.04-.16,.06-.03,.13-.01,.16,.04l.19,.33c.03,.05,.01,.12-.04,.16"></path>
        <path class="uuid-4112de01-6171-41ea-afc6-d31e2f18693b" d="M95.84,94.09s-.11,.05-.16,.01l-.29-.24s-.05-.11-.01-.16c.04-.05,.11-.05,.16-.01l.29,.24s.05,.11,.01,.16"></path>
        <path class="uuid-4112de01-6171-41ea-afc6-d31e2f18693b" d="M94.95,93.52c-.02,.06-.09,.09-.15,.07l-.36-.13c-.06-.02-.09-.09-.07-.15,.02-.06,.09-.09,.15-.07l.36,.13c.06,.02,.09,.09,.07,.15"></path>
        <path class="uuid-31dcb59c-212e-4b68-817a-96d685cd8099" d="M41.23,96.39c0,3.23-2.62,5.85-5.85,5.85s-5.85-2.62-5.85-5.85,2.62-5.85,5.85-5.85,5.85,2.62,5.85,5.85"></path>
        <path class="uuid-fe79e5cf-21d1-4faa-a02b-deca13dab9f4" d="M39.53,96.39c0,2.29-1.86,4.15-4.15,4.15s-4.15-1.86-4.15-4.15,1.86-4.15,4.15-4.15,4.15,1.86,4.15,4.15"></path>
        <path class="uuid-364214ae-9c04-44e7-b2ec-c49dbeadc495" d="M37.78,96.39c0,1.33-1.08,2.4-2.4,2.4s-2.4-1.07-2.4-2.4,1.07-2.4,2.4-2.4,2.4,1.07,2.4,2.4"></path>
        <path class="uuid-31dcb59c-212e-4b68-817a-96d685cd8099" d="M36.24,96.39c0,.47-.38,.86-.86,.86s-.86-.38-.86-.86,.38-.86,.86-.86,.86,.38,.86,.86"></path>
        <path class="uuid-4112de01-6171-41ea-afc6-d31e2f18693b" d="M35.51,93.32c0,.06-.05,.11-.11,.11h-.38c-.06,0-.11-.05-.11-.11s.05-.11,.11-.11h.38c.06,0,.11,.05,.11,.11"></path>
        <path class="uuid-4112de01-6171-41ea-afc6-d31e2f18693b" d="M34.47,93.46c.02,.06,0,.12-.07,.15l-.36,.13c-.06,.02-.12,0-.15-.07-.02-.06,0-.12,.07-.15l.36-.13c.06-.02,.13,0,.15,.07"></path>
        <path class="uuid-4112de01-6171-41ea-afc6-d31e2f18693b" d="M33.53,93.95s.03,.12-.01,.16l-.29,.24s-.12,.03-.16-.01c-.04-.05-.03-.12,.01-.16l.29-.24s.12-.03,.16,.01"></path>
        <path class="uuid-4112de01-6171-41ea-afc6-d31e2f18693b" d="M32.82,94.72c.05,.03,.07,.1,.04,.16l-.19,.33c-.03,.05-.1,.07-.16,.04-.05-.03-.07-.1-.04-.16l.19-.33c.03-.05,.1-.07,.16-.04"></path>
        <path class="uuid-4112de01-6171-41ea-afc6-d31e2f18693b" d="M32.42,95.7c.06,.01,.1,.07,.09,.13l-.07,.38c-.01,.06-.07,.1-.13,.09-.06,0-.1-.07-.09-.13l.07-.38c.01-.06,.07-.1,.13-.09"></path>
        <path class="uuid-4112de01-6171-41ea-afc6-d31e2f18693b" d="M32.37,96.75c.06-.01,.12,.03,.13,.09l.07,.38c0,.06-.03,.12-.09,.13-.06,.01-.12-.03-.13-.09l-.07-.38c-.01-.06,.03-.12,.09-.13"></path>
        <path class="uuid-4112de01-6171-41ea-afc6-d31e2f18693b" d="M32.69,97.75c.05-.03,.12-.01,.16,.04l.19,.33c.03,.06,.01,.13-.04,.16-.06,.03-.13,.01-.16-.04l-.19-.33c-.03-.05-.01-.12,.04-.16"></path>
        <path class="uuid-4112de01-6171-41ea-afc6-d31e2f18693b" d="M33.33,98.59s.11-.05,.16-.01l.29,.24s.05,.11,.01,.16c-.04,.05-.11,.05-.16,.01l-.29-.24s-.05-.11-.01-.16"></path>
        <path class="uuid-4112de01-6171-41ea-afc6-d31e2f18693b" d="M34.22,99.15c.02-.06,.09-.09,.15-.07l.36,.13c.06,.02,.09,.09,.07,.15-.02,.06-.09,.09-.15,.07l-.36-.13c-.06-.02-.09-.09-.07-.15"></path>
        <path class="uuid-4112de01-6171-41ea-afc6-d31e2f18693b" d="M35.25,99.38c0-.06,.05-.11,.11-.11h.38c.06,0,.11,.05,.11,.11s-.05,.11-.11,.11h-.38c-.06,0-.11-.05-.11-.11"></path>
        <path class="uuid-4112de01-6171-41ea-afc6-d31e2f18693b" d="M36.29,99.24c-.02-.06,0-.12,.07-.15l.36-.13c.06-.02,.13,0,.15,.07,.02,.06,0,.12-.07,.15l-.36,.13c-.06,.02-.13,0-.15-.07"></path>
        <path class="uuid-4112de01-6171-41ea-afc6-d31e2f18693b" d="M37.23,98.76s-.03-.12,.01-.16l.29-.24s.12-.03,.16,.01c.04,.05,.03,.12-.01,.16l-.29,.24s-.12,.03-.16-.01"></path>
        <path class="uuid-4112de01-6171-41ea-afc6-d31e2f18693b" d="M37.94,97.98c-.05-.03-.07-.1-.04-.16l.19-.33c.03-.05,.1-.07,.16-.04,.05,.03,.07,.1,.04,.16l-.19,.33c-.03,.05-.1,.07-.16,.04"></path>
        <path class="uuid-4112de01-6171-41ea-afc6-d31e2f18693b" d="M38.34,97.01c-.06-.01-.1-.07-.09-.13l.07-.38c.01-.06,.07-.1,.13-.09,.06,.01,.1,.07,.09,.13l-.07,.38c-.01,.06-.07,.1-.13,.09"></path>
        <path class="uuid-4112de01-6171-41ea-afc6-d31e2f18693b" d="M38.39,95.95c-.06,.01-.12-.03-.13-.09l-.07-.38c0-.06,.03-.12,.09-.13,.06-.01,.12,.03,.13,.09l.07,.38c.01,.06-.03,.12-.09,.13"></path>
        <path class="uuid-4112de01-6171-41ea-afc6-d31e2f18693b" d="M38.07,94.95c-.05,.03-.12,.01-.16-.04l-.19-.33c-.03-.06-.01-.13,.04-.16,.06-.03,.13-.01,.16,.04l.19,.33c.03,.05,.01,.12-.04,.16"></path>
        <path class="uuid-4112de01-6171-41ea-afc6-d31e2f18693b" d="M37.43,94.11s-.11,.05-.16,.01l-.29-.24s-.05-.11-.01-.16c.04-.05,.11-.05,.16-.01l.29,.24s.05,.11,.01,.16"></path>
        <path class="uuid-4112de01-6171-41ea-afc6-d31e2f18693b" d="M36.54,93.55c-.02,.06-.09,.09-.15,.07l-.36-.13c-.06-.02-.09-.09-.07-.15,.02-.06,.09-.09,.15-.07l.36,.13c.06,.02,.09,.09,.07,.15"></path>
        <path class="uuid-69c141c9-f9ba-490c-b009-553cbfc14303" d="M105,86.79s-.06-.01-.09-.02c-.07-.02-.13-.03-.2-.05-.39-.1-.66-.17-.66-.17-2.78-.73-3.68-4.09-3.68-4.09,1.08,.18,1.02,.09,2.23,.36,.13,.03,.24,.05,.35,.07,.01,0,.03,0,.04,0,.87,.53,1.6,1.57,2.01,3.89"></path>
        <g class="uuid-abce9036-c541-448c-bf2c-07ea21692131">
          <g class="uuid-b081559d-e7ef-454f-9853-09cd38fc5bf0">
            <g class="uuid-55accab0-82c4-4d10-9fa1-9b766387a837">
              <path class="uuid-deb3e054-ce30-4807-af95-b99579d7cdb0" d="M102.61,82.81c.05,.05,.1,.1,.14,.16,.16,.18,.3,.37,.44,.56,.28,.38,.52,.79,.73,1.21,.21,.42,.4,.86,.56,1.31,.08,.22,.16,.44,.23,.67,.06,.02,.13,.03,.2,.05-.03-.27-.07-.54-.14-.8-.11-.48-.28-.95-.51-1.4s-.51-.86-.84-1.23c-.15-.16-.31-.31-.48-.45-.1-.02-.22-.05-.34-.07"></path>
            </g>
          </g>
        </g>
        <path class="uuid-fd59c857-2e9a-4f6e-9b55-0fdc7ac9227e" d="M107.32,95.21c-.01,1.38-.4,2.51-4.91,2.51,0,0-.64,0-1.81,0,.14-.55,.21-1.13,.21-1.72,0-2.22-1.03-4.2-2.63-5.48l3.15-1.37,3.94-.13s0,.01,0,.02l1.26,.29s0,.03,.02,.09c.1,.37,.49,1.93,.67,3.78,.07,.65,.11,1.33,.1,2.02"></path>
        <path class="uuid-fd59c857-2e9a-4f6e-9b55-0fdc7ac9227e" d="M28.36,96.01c0,.61,.08,1.2,.22,1.76-5.32,0-10.29-.02-14.65-.04,0,0-1.13-7.7,0-8.8,.05-.05,0-.03,.21-.11h14.48l2.71,1.46c-1.8,1.27-2.98,3.37-2.98,5.74"></path>
        <path class="uuid-6427d755-9852-401e-9824-9f52b374e58b" d="M86.75,96.01c0,.6,.08,1.19,.22,1.74-11.82,.02-28.76,.04-44.77,.03,.15-.57,.23-1.16,.23-1.77,0-2.21-1.02-4.18-2.61-5.47h49.55c-1.59,1.29-2.61,3.26-2.61,5.47"></path>
        <path class="uuid-fd59c857-2e9a-4f6e-9b55-0fdc7ac9227e" d="M92.88,89.03c-1.32,.17-2.53,.7-3.52,1.5-.28,.22-.53,.46-.77,.72H40.58c-.24-.26-.5-.5-.77-.72-.99-.8-2.2-1.34-3.52-1.5h56.59Z"></path>
        <path class="uuid-7c16bcc1-5b78-4d33-bc12-beeb57f6d551" d="M107.22,93.19c-.25,.04-.67,.03-1.06,.02-.24,0-.36-.25-.42-.68,0,0,0,0,0,0,0-.04-.01-.09-.02-.14,0-.03,0-.06,0-.09,0-.06,0-.11-.01-.18,0-.06,0-.12,0-.19,0-.03,0-.06,0-.1,0-.14,0-.27,0-.39,0-.03,0-.07,0-.1,0-.12,0-.23,0-.33,0-.32,0-.6,.03-.87,0-.05,0-.1,.01-.14,.01-.14,.03-.28,.05-.42,.03-.16,.39-.18,.76-.17,.1,.37,.49,1.92,.68,3.78"></path>
        <path class="uuid-2edbad2b-33a7-47ab-9d17-02823cc16316" d="M105.75,92.53c.12-.11,.23-.63,.24-1.26,.01-.71-.1-1.28-.24-1.29,0,0,0,0,0,0-.05,.51-.05,1.07-.04,1.84,0,.27,.02,.5,.05,.7"></path>
        <path class="uuid-ae623b00-568b-427e-82da-b21d48d8d4be" d="M78.07,65.42l-61.69-.31c.31-.61,.71-1.09,1.27-1.21,0,0,.39-.1,1.83-.1,0,0,46.81,0,54.75,.49,0,0,2.13,.05,3.84,1.13"></path>
        <path class="uuid-9a34d89e-49f0-45ea-b0c0-951942b803b2" d="M92.13,79.38c-.09-.1-.17-.19-.26-.28-.14-.94-.41-1.31-.77-1.71-2.58-2.84-6.99-5.72-7.04-5.75-2.86-1.71-8.39-1.51-9.2-1.47-.08,1.27-.82,14.25,1.6,24.16,.02,.07,.57,1.87,2.35,1.93,1.73,.06,6.37,.06,7.95,.06,0,.08,0,.15,.01,.23h-1.24c-2.05,0-5.33,0-6.73-.06-1.95-.07-2.56-2.08-2.56-2.1-2.55-10.42-1.61-24.2-1.61-24.34v-.1s.11,0,.11,0c.26-.02,6.3-.38,9.44,1.5,.05,.03,4.48,2.93,7.09,5.8,.41,.45,.73,.9,.86,2.14"></path>
        <path class="uuid-9a34d89e-49f0-45ea-b0c0-951942b803b2" d="M92.41,89.11c-.08,.01-.15,.03-.23,.05l-.17-6.55c.08,0,.16,0,.23-.02l.17,6.52Z"></path>
        <rect class="uuid-fe79e5cf-21d1-4faa-a02b-deca13dab9f4" x="28.06" y="79.09" width="22.45" height="1.14"></rect>
        <path class="uuid-ef9992a4-1d3f-4e2d-8653-09419caf6029" d="M88.17,82.3c.55,.16,2.95,.58,3.37-.23,.01-.02,.02-.05,.03-.07,.32-.8-.65-1.89-1.66-2.61-1.03-.75-1.62-.81-2.23-.59-.18,.07-.28,.27-.33,.55-.16,.97,.39,2.83,.81,2.95"></path>
        <path class="uuid-e26d1b7f-4695-46d9-9d8c-c2c6cc14ace9" d="M88.17,82.3c.55,.16,2.95,.58,3.37-.23,.01-.02,.02-.05,.03-.07-.84-.73-2.85-2.37-4.21-2.65-.16,.97,.39,2.83,.81,2.95"></path>
        <g class="uuid-3de2957a-2a20-497a-a728-5b15f3b6f7ef">
          <g class="uuid-1ffa6a05-a792-43d0-b816-d624b88cce23">
            <g class="uuid-0858e0fd-37ee-43fa-b1fe-058d8507c65f">
              <path class="uuid-4d6dbfd2-4d72-4d8b-9220-b508ba72a1f9" d="M79.96,83.72h-.28c-.32-.19-.82-.32-1.28-.32-.46,0-.97,.11-1.29,.29h-.28c-.26,0-.48,.21-.48,.42,0,.21,.21,.41,.47,.42h.31c.32,.18,.8,.3,1.25,.31,.45,0,.94-.1,1.26-.27h.31c.26,0,.48-.19,.48-.4,0-.21-.21-.43-.47-.44"></path>
            </g>
          </g>
        </g>
        <path class="uuid-67d09ced-74ca-4139-95e0-39008811dea0" d="M76.46,84.1c0,.19,.19,.36,.44,.36l2.95,.04c.25,0,.45-.15,.45-.35,0-.19-.19-.35-.44-.36l-2.95-.04c-.25,0-.45,.15-.45,.35"></path>
        <g class="uuid-3de2957a-2a20-497a-a728-5b15f3b6f7ef">
          <g class="uuid-c53567ef-e9d5-4eb9-bcad-9fecb471eb49">
            <g class="uuid-10e6c490-0fa3-44ef-aa4d-2744bf59bfe6">
              <path class="uuid-4d6dbfd2-4d72-4d8b-9220-b508ba72a1f9" d="M70.95,83.74h-.28c-.32-.19-.82-.32-1.28-.32-.46,0-.97,.11-1.29,.29h-.28c-.26,0-.48,.21-.48,.42,0,.21,.21,.41,.47,.42h.31c.32,.18,.8,.3,1.25,.31,.45,0,.94-.1,1.26-.27h.31c.26,0,.48-.19,.48-.4,0-.21-.21-.43-.47-.44"></path>
            </g>
          </g>
        </g>
        <path class="uuid-67d09ced-74ca-4139-95e0-39008811dea0" d="M67.45,84.12c0,.2,.19,.36,.44,.36l2.95,.04c.25,0,.45-.15,.45-.35,0-.19-.19-.35-.44-.36l-2.95-.04c-.25,0-.45,.15-.45,.35"></path>
        <path class="uuid-6f624d22-868f-461e-a574-e925d0d3b9ef" d="M15.31,81.83v5.83l-1.12,.24c0-.3,0-.68,.01-1.12,0-.51,.02-1.11,.03-1.77,.02-1,.06-2.16,.1-3.4l.98,.21Z"></path>
        <path class="uuid-66561572-4693-438b-b645-165596dbb382" d="M15.31,81.83v.6c-.29,.51-.66,1.31-1.08,2.58,.02-1,.06-2.16,.1-3.4l.98,.21Z"></path>
        <path class="uuid-9a34d89e-49f0-45ea-b0c0-951942b803b2" d="M73.38,96.39h-22.06v-30.77h22.06v30.77Zm-21.83-.23h21.6v-30.31h-21.6v30.31Z"></path>
      </g>
    </g>
  </g>
</svg>
