<?xml version="1.0" encoding="UTF-8"?>
<svg xmlns="http://www.w3.org/2000/svg" id="uuid-7ec9e8c9-6c04-4267-9b36-29168d873692" viewBox="0 0 120 120">
  <defs>
    <style>.uuid-4844aa66-5292-46c6-a31a-758b44b97127{fill:#287a92;}.uuid-22a4ab54-2f86-47d6-a06d-ce0e834b44db{fill:#fff;}.uuid-8ea2a249-e583-406d-874a-4bc087faf3a3{fill:#939598;}.uuid-9d261d56-03ae-4570-99c0-62e48ffc3860{fill:#f5f5f5;}.uuid-813e3a52-c5c1-4aed-9d56-a62c38759c1a{fill:#1b5162;}.uuid-3b33d052-a49b-42da-a144-b71e00d09dc7{fill:#1d474d;}.uuid-ab6d3dab-cf53-4dae-9cf3-75308de58b31{fill:#35a2c3;}.uuid-298abea2-4f3c-4239-845c-9e4818b8f72b{fill:#206275;}.uuid-2f9a38f1-fc11-4fa2-a6e9-aad7aee9581c{fill:#f7fcfd;}.uuid-005baf8f-431c-441d-a5b9-cecb34daacb5{fill:#8296ab;}.uuid-b55482e3-89bc-4bd3-8e22-b0c03340187b{fill:#706f6f;}.uuid-1b63940f-c19f-4110-b358-79e5259bc946{fill:#1d1929;}.uuid-7fc558e9-def4-4368-8c52-3b0110a2defb{fill:#038bb4;}.uuid-ae46e29e-164c-4a82-b586-c0bfd32eaceb{fill:#93aeb5;}.uuid-ea05aafc-3c10-4065-b151-03a829c8e26d{fill:#a85e63;}.uuid-373613b8-fc01-4664-b3aa-f98799f8bda9{fill:#231f20;}</style>
  </defs>
  <circle class="uuid-9d261d56-03ae-4570-99c0-62e48ffc3860" cx="60.08" cy="60.13" r="50"></circle>
  <g>
    <rect class="uuid-22a4ab54-2f86-47d6-a06d-ce0e834b44db" x="18.28" y="56.02" width="18.13" height="3.07"></rect>
    <rect class="uuid-22a4ab54-2f86-47d6-a06d-ce0e834b44db" x="15.13" y="52.87" width="24.42" height="9.37"></rect>
    <rect class="uuid-22a4ab54-2f86-47d6-a06d-ce0e834b44db" x="16.36" y="54.1" width="21.97" height="6.91"></rect>
    <path class="uuid-22a4ab54-2f86-47d6-a06d-ce0e834b44db" d="M13.21,64.16h28.26v-13.21H13.21v13.21Zm21.97-6.3h-15.67v-.62h15.67v.62Z"></path>
    <g>
      <path class="uuid-22a4ab54-2f86-47d6-a06d-ce0e834b44db" d="M25.93,60.37c4.83-1.24,11-.17,15.94,3.03l4.02-5.6-1.26-3.36,.09-.04-3.67-9.95c-1.31-.16-3.16-1.58-4.22-2.35-.97-.71-.08-1.62,1.12-1.69,0,0,4.1,.46,5.86,.29,1.2-.12,5.74-.96,6.02-.09,.43,1.36-1.68,1.13-2.81,1.54-1.01,.37-2.67,1.39-4.15,1.94l3.54,9.62,.06-.02,.92,2.44,30.45-5.99c-.78-2.28-1.31-3.81-1.43-4.17-.19,.06-.4-.04-.46-.23-.02-.05-.02-.09-.02-.14-.8,0-1.44-.62-1.44-1.39,0-.55,.33-1.03,.82-1.25l-.26-.7h.01c-.71-1.73-1.05-1.7-2.59-1.21l-4.32,1.27-.45-1.4,4.33-1.27c1.48-.47,2.41-.45,3.12,.1,.22-.79,.91-1.38,2.23-1.97l3.96-1.34,.6,1.35-3.96,1.34c-1.48,.65-1.75,.86-1.14,2.62h.01s1.11,2.9,1.11,2.9h.01c.19-.07,.41,.03,.48,.22,.06,.17-.01,.36-.16,.45,.19,.57,1.46,4.32,3.09,9.12l.08-.04,1.22,3.67-.06,.03c.36,1.06,.73,2.14,1.09,3.23,3.52-1.2,7.61-1.54,11.53-.72,2.29,.48,1.7,2.15-.45,1.76-1.78-.32-3.63-.39-5.46-.23,.36-.02,.72-.03,1.09-.03,10.14,0,18.36,8.22,18.36,18.36s-8.22,18.36-18.36,18.36-18.36-8.22-18.36-18.36c0-7.31,4.28-13.63,10.47-16.58-1.27,.57-2.44,1.25-3.48,2.05-5.07,3.91-7.36,9.91-7.02,15.57,.1,1.73-1.55,2.69-1.79,.64-.78-6.56,2.09-13.23,8.29-18.09,1-.78,2.13-1.46,3.37-2.02-.34-1-.67-1.99-1-2.96l-26.59,15.41,1.92,5.12c.19-.02,.39-.04,.58-.04,2.57,0,4.66,2.09,4.66,4.66,0,.11,0,.21-.01,.32l3.12,.38-.1,.86-3.15-.38c-.52,2-2.34,3.48-4.51,3.48-.82,0-1.58-.21-2.25-.58-.09,0-.19,0-.29,0l-6.72-1.36c-2.62,6.91-9.29,11.82-17.12,11.82-10.11,0-18.3-8.19-18.3-18.3s8.19-18.3,18.3-18.3c3.75,0,7.23,1.13,10.13,3.06l.28-.39c-4.51-2.83-10.35-3.91-15.08-2.73-8.11,2.02-13.42,9.12-13.65,16.52-.03,.85-1.57,2.13-1.6,1.28-.41-9.2,5.42-16.99,15.44-19.55m67.19,5.33l-2.26,9.35,.28,3.28,2.28-2.39,4.09-8.7c-1.35-.73-2.83-1.25-4.39-1.54m-9.94,27.99l3.93-8.35-6.36,6.69c.75,.63,1.57,1.19,2.44,1.67m.11,.06c1.35,.73,2.83,1.25,4.39,1.54l2.26-9.34-.28-3.29-2.28,2.39-4.09,8.7Zm6.91-11.93c-.15-.02-.3-.07-.43-.14l-.07,.02,.06,.67,.48-.5-.04-.05Zm.4-2.64c.15,.02,.3,.07,.43,.14l.06-.02-.06-.67-.48,.5,.04,.05Zm.62,.09l.74-.22,1.29-2.75-2.1,2.2,.06,.76Zm.01,.13v.06c.13,.09,.23,.21,.31,.34l.07,.02,.29-.61-.66,.19Zm.5,.45l.75,.18,2.49-1.73-2.92,.86-.33,.69Zm-.05,.11l-.03,.06c.05,.14,.09,.29,.09,.45l.05,.05,.56-.39-.67-.16Zm.21,.64l.56,.53,3.02-.26-2.96-.71-.63,.44Zm-.1,.07l-.05,.04c-.02,.15-.07,.3-.14,.43l.02,.07,.67-.06-.5-.47Zm-.14,.65l.22,.74,2.74,1.29-2.2-2.1-.76,.06Zm-.13,.01h-.06c-.09,.13-.21,.23-.34,.31l-.02,.07,.61,.29-.19-.66Zm-.45,.5l-.18,.75,1.73,2.49-.86-2.92-.69-.33Zm-.11-.05l-.06-.03c-.14,.05-.29,.09-.44,.09l-.05,.05,.39,.56,.16-.67Zm-.64,.21l-.53,.56,.25,3.02,.71-2.96-.44-.63Zm-.66,.51l-.06-.76-.74,.22-1.29,2.74,2.1-2.2Zm-.07-.89v-.07c-.13-.09-.22-.21-.31-.34l-.07-.02-.29,.62,.66-.2Zm-.5-.45l-.75-.18-2.49,1.73,2.92-.86,.32-.69Zm.05-.11l.03-.06c-.05-.14-.09-.29-.09-.44l-.05-.05-.56,.39,.67,.16Zm-.21-.64l-.56-.53-3.02,.25,2.96,.72,.63-.44Zm.1-.07l.05-.04c.02-.15,.07-.3,.14-.43l-.02-.07-.67,.06,.5,.47Zm.14-.65l-.22-.74-2.74-1.29,2.2,2.1,.76-.07Zm.13-.01h.06s.07-.09,.11-.13l-.36-.52h-.01s.2,.66,.2,.66Zm-.08-2.26l.61,1.4,.09-.38-.71-1.01m.69,1.59l.1,.22c.11-.03,.22-.05,.34-.05l.05-.05-.39-.56-.11,.44Zm.58,.03l.54-.56-.26-3.02-.71,2.96,.43,.63Zm7.13-11.72l-3.93,8.35,6.36-6.69c-.75-.63-1.57-1.19-2.44-1.67m2.53,1.75l-6.63,6.96-1.4,2.98,3.17-.93,7.89-5.49c-.83-1.33-1.85-2.51-3.03-3.52m3.1,3.63l-7.58,5.27,8.86-2.61c-.34-.93-.77-1.83-1.28-2.66m1.32,2.78l-9.22,2.72-2.71,1.88,3.21,.78,9.58-.81c-.05-1.6-.34-3.13-.86-4.57m.86,4.7l-9.2,.78,8.98,2.17c.15-.85,.23-1.71,.23-2.6,0-.11,0-.23,0-.34m-9.59,.81l-3.29,.28,2.39,2.28,8.7,4.09c.73-1.35,1.25-2.83,1.53-4.39l-9.35-2.26Zm-.6,2.83l6.69,6.37c.63-.75,1.19-1.57,1.67-2.44l-8.36-3.93Zm-.36-.17l-2.98-1.4,.93,3.17,5.49,7.89c1.33-.82,2.51-1.85,3.52-3.03l-6.96-6.63Zm-1.93,2.15l2.61,8.86c.93-.34,1.82-.77,2.66-1.28l-5.27-7.58Zm-.22-.32l-1.88-2.71-.78,3.21,.81,9.57c1.6-.05,3.13-.35,4.57-.86l-2.72-9.22Zm-2.75,.89l-2.17,8.97c.84,.15,1.71,.23,2.6,.23,.12,0,.23,0,.35,0l-.78-9.19Zm-9.32,5.61l6.63-6.96,1.4-2.98-3.17,.93-7.89,5.49c.82,1.33,1.85,2.51,3.03,3.52m-3.1-3.63l7.58-5.27-8.86,2.61c.34,.93,.77,1.82,1.28,2.66m-1.32-2.78l9.22-2.72,2.71-1.88-3.21-.78-9.58,.81c.05,1.6,.34,3.13,.86,4.57m-.86-4.69l9.2-.78-8.98-2.17c-.15,.85-.23,1.71-.23,2.6,0,.11,0,.23,0,.34m9.59-.81l3.29-.28-2.39-2.28-8.7-4.09c-.73,1.35-1.25,2.83-1.54,4.39l9.35,2.26Zm.6-2.83l-6.69-6.36c-.63,.75-1.19,1.57-1.67,2.44l8.36,3.93Zm.36,.17l2.98,1.4-.04-.12-.71-1.03s-2.23-3.5-2.57-4.53c-.19-.57-.38-1.15-.58-1.74l-2.53-3.64c-1.32,.82-2.51,1.85-3.52,3.03l6.96,6.63Zm-1.05-6.44c-.42-1.26-.85-2.54-1.28-3.84-.34,.17-.68,.36-1,.55l2.28,3.28Zm3.56,4.36c.16,.46,.42,1.15,.6,1.61l.94,1.35,.78-3.21-.81-9.58c-1.59,.05-3.13,.34-4.56,.85,1.18,3.48,2.27,6.69,3.05,8.97m2.4-.63l2.17-8.97c-.85-.15-1.71-.23-2.6-.23-.12,0-.23,0-.34,0l.78,9.19Zm-11.18-19.18c-.41-1.2-.8-2.34-1.15-3.38l-30.39,5.97,4.95,13.16,26.59-15.76Zm-27.35,27.61c.13-.5,.35-.98,.63-1.4l-4.22-.51c-.02,.47-.05,.93-.1,1.39l3.69,.51Zm1.52-.51l1.34,.7c.06-.1,.13-.19,.2-.27l-.4-1.07-.6-.07c-.21,.21-.39,.45-.54,.71m6.42,1.69c0-.13,0-.26-.02-.39l-1.5,.22c0,.05,0,.1,0,.15l1.51,.18c0-.06,0-.11,0-.17m-2.98-1.86c.5,.12,.93,.44,1.19,.88l1.35-.69c-.48-.86-1.32-1.49-2.31-1.69l-.25,1.46,.02,.04Zm1.27,2.71c-.07,.15-.17,.29-.28,.42l1.07,1.07c.34-.37,.6-.81,.76-1.3l-1.55-.19Zm-.97,.92c-.23,.1-.48,.15-.75,.15s-.52-.05-.75-.15l-.68,1.35c.44,.2,.92,.32,1.44,.32s.99-.11,1.42-.31l-.67-1.36Zm-2.2-.51c-.2-.23-.34-.51-.42-.81l-1.56-.24c.05,.81,.38,1.55,.9,2.11l1.08-1.06Zm-25.25-20.06v.05s-.02,0-.03,0l.05,.56,.73,8.59,2.02-8.38,.13-.55s-.02,0-.04,0v-.04c-.82-.14-1.68-.22-2.55-.22-.1,0-.21,0-.31,0m-14.73,15.04c0,.1,0,.21,0,.31h.05v.03l.56-.05,8.59-.72-8.38-2.03-.55-.13s0,.02,0,.04h-.04c-.14,.82-.22,1.68-.22,2.55m14.57-15.03c-1.6,.05-3.13,.34-4.57,.85l.17,.59,2.55,8.64,1.32,1.9c.25-.08,.52-.13,.79-.15l.54-2.25h0s-.76-8.97-.76-8.97l-.05-.61Zm-12.67,7.81l-.02,.03,.34,.16-.33-.19Zm.44,.38l-.55-.26c-.73,1.35-1.25,2.83-1.54,4.39l.6,.14,8.76,2.11,2.3-.19c.05-.24,.13-.48,.24-.7l-8.58-4.92-1.21-.57Zm-.08,14.77c.83,1.33,1.85,2.51,3.03,3.52l.42-.44,6.2-6.52h0s.98-2.1,.98-2.1c-.2-.18-.38-.38-.53-.61l-2.22,.66-7.39,5.14-.5,.35Zm10.06,6.87l.15-.6,2.11-8.75-.19-2.3c-.27-.06-.52-.15-.77-.27l-1.6,1.68h0s-3.83,8.15-3.83,8.15l-.26,.55c1.35,.73,2.83,1.25,4.39,1.54m3.19,.24c1.6-.05,3.13-.35,4.57-.86l-.17-.59-2.55-8.64h0s-1.18-1.7-1.18-1.7l-.5-.1c-.14,.03-.28,.04-.43,.05l-.54,2.25,.76,8.97,.05,.61Zm14.57-15.03c0-.1,0-.21,0-.31h-.05v-.03l-.56,.05-8.27,.7,8.79,1.22c.06-.54,.09-1.08,.09-1.63m-10.76-2.12l-1.54,.45c.11,.17,.2,.36,.27,.55l1.42-.99h-.14Zm-3.74,3.38h0s-.06-.03-.06-.03c-.14,.05-.29,.09-.45,.09l-.05,.05,.39,.56,.16-.67Zm-.75,.05h0c-.11-.02-.22-.05-.32-.09l-.14,.29,.03,.35,.48-.5-.04-.05Zm-.55,.67l-.02-.27-.21,.42s.04,.02,.06,.03l.17-.18Zm-.05,.23s.04,.02,.07,.02v-.09s-.07,.07-.07,.07Zm-.25-3.06h0c.1-.12,.21-.22,.34-.3h0s.02-.07,.02-.07l-.61-.29,.2,.66h.06Zm.56-.42h0c.06-.02,.13-.04,.19-.06l-.1-.59-.15,.63,.06,.02Zm1.62,.53s0,0,0,.01h.03s.05-.02,.05-.02l.16-.35-.25,.35Zm.77,.52h-.01s.48,.08,.48,.08c0-.05,0-.1,0-.14l-.45,.07Zm-.71,.82s0,0,0,.01l.02,.06,.31-.03-.33-.05Zm-.14,.21s-.03,.03-.04,.04l.16,.16-.06-.21h-.06Zm-.42,.61l-.15,.63,.14,.2c.13-.03,.25-.08,.37-.13l-.35-.71Zm-.19,.8l-.02,.09s.05,0,.07-.01l-.05-.07Zm-.09-.14l-.44-.62-.53,.56,.02,.24c.19,.05,.4,.09,.61,.09,.1,0,.19,0,.28-.02l.06-.25Zm-2.1-.53l.04-.08-.08,.02s.03,.04,.04,.05m.34-.3l.41-.4c-.05-.05-.09-.11-.13-.17h0l-.07-.02-.29,.61,.07-.02Zm.17-.79h0c-.05-.14-.09-.29-.09-.45h0s-.05-.05-.05-.05l-.56,.39,.67,.16,.03-.05Zm-.01-1.38l-.2-.67h0s-.22-.1-.22-.1c-.11,.11-.21,.23-.3,.37l.71,.41Zm-.24-.83l-.02-.08s-.04,.03-.06,.04l.08,.04Zm.15,.07l.69,.32,.18-.75-.14-.2c-.29,.08-.56,.21-.8,.39l.07,.24Zm.9-.61v-.06s-.03,0-.04,0l.04,.05Zm1.08,.22l-.02-.25s-.09-.03-.14-.04l-.09,.54,.25-.26Zm.11-.12h.01s.04-.07,.04-.07c-.02,0-.04-.02-.06-.02v.09Zm.99,.66l.08-.02s-.03-.04-.04-.05l-.04,.08Zm-.07,.15l-.25,.53,.66-.34c-.05-.09-.11-.18-.17-.26l-.24,.07Zm1.56,1.34l.67,.09-.67-.16s0,.05,0,.07m-1.01,.78l.03,.03s0-.01,0-.02h-.03Zm-.21-.03l-.76,.06,.12,.4,.38,.38c.18-.2,.33-.43,.44-.68l-.18-.17Zm.48,1.29l1.72,.81-1.38-1.31c-.1,.18-.21,.35-.34,.5m-4.52,.43l-.81,1.72,1.31-1.38c-.18-.1-.35-.21-.5-.34m.15-1.06l.24-.07,.32-.69-.75-.18-.2,.14c.08,.29,.22,.56,.39,.8m-.35-.98l-.09-.02s0,.05,.01,.07l.07-.05Zm.14-.1h0l.63-.43-.06-.06-.81-.13c-.01,.09-.02,.18-.02,.28s0,.19,.02,.28l.25,.06Zm4.36-2.63c.16,.15,.3,.32,.42,.5l1.28-.38-1.28-.13c-.06,0-.21-.01-.4-.02l-.02,.03Zm2.36,.19l-1.57,1.09c.08,.25,.13,.52,.15,.79l1.95,.47,.45,.06,8.82-.74,.61-.05c0-.19-.02-.38-.03-.57l-10.39-1.05Zm10.09,4.79l-11.63-1.79c-.05,.18-.12,.35-.2,.51l1.68,1.6,.86,.4,8.74,1.65c.27-.76,.49-1.54,.63-2.35l-.09-.02Zm-9.86,.59l.03,.03h.06s-.09-.03-.09-.03Zm-.36-.17l-2.09-.98c-.18,.2-.38,.38-.61,.53l.02,.07,2.85,.54-.17-.16Zm-3.16,.16l.89,1.28-.34-1.17-.55-.11Zm-1.24-.08s-.05,0-.08,0c-.18,0-.36-.02-.53-.05l.16,1.9,.45-1.85Zm-7.31,9.93h0s.02,.01,.03,.02l.24-.51,3.67-7.8-5.95,6.25-.39,.41s.02,.02,.03,.02l-.03,.03c.74,.61,1.53,1.16,2.38,1.63l.02-.04Zm4.49-11.47c-.11-.17-.2-.36-.27-.55l-1.56,1.09,1.83-.54Zm-.47-1.64v-.03s0-.05,0-.07c0-.02,0-.04,0-.05,0-.14,.02-.27,.04-.41l-1.9,.16,1.85,.45v-.05m-.72-2.45l-.62-.59-2.26-1.06,2.88,1.65Zm.46,.26l.77,.44c.07-.11,.15-.22,.23-.32l-1.72-.81,.72,.68Zm2.36-.84l-1.09-1.56,.54,1.83c.17-.11,.36-.2,.55-.27m1.04-.2s.05,0,.08,0c.18,0,.36,.02,.53,.05l-.16-1.9-.45,1.86Zm9.71-8.35c-.15-.13-.31-.25-.46-.37l-2.64,3.67,2.7-2.84,.39-.41s-.02-.02-.03-.02l.03-.03Zm.12,.1l-.42,.44-3.32,3.49-3.37,4.7s.06,0,.09,.01l2.36,.24,7.2-5.01,.5-.35c-.82-1.33-1.85-2.52-3.03-3.52m3.08,3.69s-.01-.02-.02-.03l-.46,.32-7.08,4.92,8.28-2.44,.54-.16s0-.02-.01-.03h.05c-.33-.92-.75-1.79-1.25-2.61l-.04,.03Zm1.34,2.72l-.59,.17-7.99,2.35,9.36,.95c-.13-1.21-.39-2.37-.78-3.48m-6.18,9.68l4.71,2.21,.55,.26c.22-.42,.43-.85,.61-1.28l-5.87-1.19Zm5.16,2.56l-.51-.24-5.16-2.43-1.7-.34,5.3,5.05,.41,.39s.02-.02,.02-.03l.03,.03c.62-.73,1.16-1.53,1.63-2.38l-.04-.02s.01-.02,.02-.03m-1.7,2.55l-.44-.42-5.45-5.19-3.55-.72,.43,1.47,5.14,7.39,.35,.5c1.33-.82,2.52-1.85,3.53-3.03m-3.66,3.06l-.32-.46-4.92-7.07,2.44,8.27,.16,.54s.02,0,.04-.01v.04c.92-.33,1.79-.75,2.61-1.25l-.03-.04s.02-.01,.03-.02m-7.45,2.18l-.05-.56-.73-8.59-2.02,8.38-.13,.55s.02,0,.04,0v.04c.82,.14,1.68,.22,2.55,.22,.1,0,.21,0,.31,0v-.05h.03m-13.17-7.23s.01,.02,.02,.03l.46-.32,7.08-4.92-8.27,2.44-.54,.16s0,.03,.01,.04h-.04c.33,.92,.75,1.79,1.25,2.61l.04-.03Zm-1.34-2.72l.59-.17,8.64-2.55,1.9-1.32c-.08-.24-.13-.49-.15-.74,0-.02,0-.03,0-.05l-2.25-.55-8.97,.76-.61,.05c.05,1.6,.34,3.14,.86,4.57m6.04-9.88l3.3,1.55-6.25-5.94-.41-.39s-.02,.02-.02,.03l-.03-.03c-.52,.63-1,1.31-1.42,2.02l4.83,2.77Zm-3.31-4.91l.44,.42,6.52,6.21,2.09,.98c.18-.2,.38-.38,.61-.53l-.65-2.22h0s-5.14-7.39-5.14-7.39l-.35-.5c-1.33,.82-2.52,1.85-3.53,3.03m3.66-3.06l.32,.46,4.92,7.08-2.44-8.27-.16-.54s-.02,0-.03,.01v-.04c-.92,.33-1.79,.75-2.61,1.25l.03,.04s-.02,.01-.03,.02m10.52-1.98l-.15,.6-2.11,8.75h0s.19,2.31,.19,2.31c.22,.05,.44,.12,.64,.21l2.78-3.87,2.77-5.89,.26-.55c-1.35-.73-2.83-1.25-4.39-1.54m4.51,1.66s-.02-.01-.03-.02l-.24,.51-2.48,5.28,3.75-5.23c-.32-.21-.64-.41-.98-.59l-.02,.04Zm11.07,12.94l4.88,.59c.21-.2,.44-.38,.68-.54l-5.57-.56c0,.17,.01,.34,.01,.52m4.47,6.88c-.64-.8-1.03-1.81-1.04-2.91l-3.71-.57c-.15,.85-.36,1.67-.62,2.47l5.36,1.01Zm-11.69-21.26c4.09,3.11,6.82,7.9,7.18,13.34l5.49,.55-7.78-20.7-3.55,4.95c1.82,1.33,3.43,2.97,4.7,4.91,.67,1.03-.87,1.91-1.51,.89-1.08-1.7-2.54-3.16-4.22-4.36l-.3,.41Z"></path>
      <path class="uuid-22a4ab54-2f86-47d6-a06d-ce0e834b44db" d="M66.97,78.92c-.05,1.04-.03,2.1,.07,3.16l-2.86-.34c-.38-1.1-.99-2.09-1.78-2.9l1.1-.71-2.19-.22c-.85-.6-1.82-1.04-2.87-1.27l-.27-.72,11.78-6.83c-1.71,2.94-2.71,6.13-2.95,9.43l-1.29,.11,1.26,.3Zm4.43-22.22l-16.73,9.91-2.32-6.17,19.04-3.74Zm-32.72-17.13s0,0,0,0h0Z"></path>
      <path class="uuid-22a4ab54-2f86-47d6-a06d-ce0e834b44db" d="M90.39,100.77c11.18,0,20.28-9.1,20.28-20.28,0-8.27-4.98-15.4-12.09-18.55,.14-1.28-.71-2.71-2.98-3.19-3.47-.73-7.2-.64-10.67,.23l.04-.02-2.47-7.41-.09,.05c-.95-2.8-1.71-5.03-2.09-6.16,.07-.39,.05-.8-.09-1.2-.15-.44-.44-.81-.82-1.09l-.84-2.18s.05-.02,.07-.03l5.86-1.98-2.15-4.88-5.79,1.97c-.74,.33-1.56,.76-2.22,1.4-1.06-.13-2.1,.12-2.92,.38l-6.2,1.81,1.63,5.06,5.94-1.74c-.17,.4-.26,.83-.26,1.27,0,1.42,.91,2.63,2.19,3.1,.04,.04,.08,.07,.13,.11,.11,.34,.26,.76,.43,1.26l-26.7,5.25-1.04-2.76-.05,.02-2.24-6.07c.31-.15,.61-.31,.9-.45,.58-.3,1.14-.58,1.49-.71,.15-.06,.5-.11,.78-.16,.96-.16,2.27-.37,2.97-1.51,.4-.65,.48-1.45,.23-2.25-.71-2.25-3.69-1.84-7.13-1.36-.38,.05-.72,.1-.9,.12-1.27,.13-4.37-.17-5.45-.29l-.16-.02h-.16c-1.57,.09-2.88,.98-3.25,2.23-.32,1.08,.1,2.21,1.1,2.94l.23,.17c1.24,.91,2.47,1.76,3.66,2.21l2.68,7.28-.1,.04,1.56,4.15-2.39,3.33c-4.99-2.71-10.93-3.61-15.88-2.35h0c-10.71,2.74-17.33,11.18-16.88,21.5,.05,1.04,.74,1.86,1.68,2.06,.81,10.41,9.54,18.64,20.16,18.64,4.19,0,8.2-1.27,11.62-3.67,2.88-2.03,5.16-4.73,6.65-7.88l5.38,1.09h.03c.84,.38,1.77,.58,2.7,.58,2.4,0,4.57-1.31,5.72-3.32l3.62,.43,.57-4.68-3.47-.42c-.59-2.72-2.87-4.82-5.68-5.13l-.89-2.35,18.05-10.46c-4.84,4.9-7.14,11.12-6.39,17.49,.22,1.83,1.27,2.7,2.36,2.84,2.14,8.9,10.17,15.54,19.72,15.54m-57.33-7.43c-.14,.03-.28,.05-.43,.08l-.18-2.14,.61,2.06Zm59.98,0c-.14,.03-.28,.06-.43,.08l-.18-2.15,.61,2.07Zm-66.26-2.49l-.51,2.1c-.14-.04-.27-.09-.41-.14l.92-1.96Zm59.98,0l-.51,2.1c-.14-.05-.28-.09-.41-.14l.92-1.95Zm-47.64-.55c-.11,.1-.22,.19-.33,.28l-1.23-1.77,1.56,1.49Zm59.98,0c-.11,.1-.22,.19-.33,.28l-1.23-1.77,1.56,1.48Zm-77.02-2.65l-1.49,1.56c-.1-.11-.19-.22-.28-.33l1.77-1.23Zm59.98,0l-1.48,1.55c-.1-.11-.19-.22-.28-.33l1.76-1.22Zm20.78-3.03c-.04,.14-.09,.27-.14,.41l-1.95-.92,2.09,.51Zm-83.22-2.09l-2.06,.61c-.03-.14-.05-.28-.08-.43l2.14-.18Zm59.99,0l-2.07,.61c-.03-.14-.05-.28-.08-.43l2.15-.18Zm23.71-4.26l-2.15,.18,2.07-.61c.03,.14,.05,.28,.08,.43m-54.42-6.98l2.37,6.3-.86-.09c-.31-2.06-.93-4.05-1.84-5.9,.12-.09,.23-.2,.33-.31m29.18,4.65l1.95,.92-2.09-.51c.05-.14,.09-.27,.14-.41m-59.99,0l1.32,.76-1.46-.35c.04-.14,.09-.27,.14-.4m22.4-3.85l-1.77,1.23,1.48-1.56c.1,.11,.19,.22,.28,.33m59.98,0l-1.77,1.23,1.48-1.56c.1,.11,.19,.22,.28,.33m-78.46-1.7l1.23,1.77-1.56-1.49c.11-.1,.22-.19,.33-.28m59.98,0l1.22,1.76-1.55-1.48c.11-.1,.22-.19,.33-.28m-47.05-2.22l-.92,1.96,.51-2.1c.14,.04,.28,.09,.41,.14m59.98,0l-.92,1.95,.51-2.09c.14,.05,.27,.09,.41,.14m-66.75-.62l.18,2.15-.61-2.07c.14-.03,.28-.05,.43-.08m59.98,0l.12,1.39c-.15-.44-.3-.88-.45-1.33,.11-.02,.22-.04,.33-.06m-10.85-12.95l-23.28,13.8-3.35-8.9,26.52-5.21c.03,.1,.07,.21,.11,.31m-31.48,8.53l.53,1.42c-.3-.3-.61-.58-.93-.87l.4-.56Zm42.14,.56c-1.11,.16-2.19,.42-3.24,.8l-.04-.14h0s-.31-.93-.31-.93l-.02-.14-.06-.12h.02c1.59-.55,3.27-.89,4.97-1.02l.1,1.4-1.41,.03v.12Zm-50.01-23.15h0Z"></path>
      <path class="uuid-22a4ab54-2f86-47d6-a06d-ce0e834b44db" d="M90.39,103.92c12.92,0,23.43-10.51,23.43-23.43,0-8.68-4.82-16.61-12.41-20.67-.65-1.85-2.3-3.55-5.17-4.15-2.45-.51-5-.67-7.54-.48l-1.98-.89-2.48-7.45-.1,.06-.63-1.87c0-.63-.1-1.26-.32-1.86-.05-.13-.1-.27-.16-.39l5.74-1.94-4.7-10.67-8.78,2.99c-.56,.25-1.29,.6-2.03,1.11-1.09,.06-2.05,.32-2.75,.54l-9.27,2.71,3.25,10.09-13.89,2.73-1.24-3.29h-.03s-.08-.2-.08-.2c1.28-.22,3.49-.74,4.83-2.92,.87-1.42,1.07-3.19,.55-4.85-1.51-4.78-6.75-4.06-10.57-3.52-.34,.05-.62,.09-.77,.1-.73,.07-3.1-.09-4.79-.28l-.42-.05-.42,.02c-2.9,.15-5.35,1.95-6.1,4.47-.7,2.36,.19,4.86,2.26,6.37l.23,.17c.95,.7,1.95,1.41,3.01,1.98l1.18,3.2-.12,.05,1.95,5.19c-5.05-2.05-10.63-2.56-15.42-1.33-12.21,3.13-19.77,12.82-19.25,24.69,.07,1.54,.78,2.93,1.89,3.88,1.72,11.25,11.55,19.84,23.1,19.84,4.84,0,9.48-1.47,13.43-4.24,2.62-1.84,4.83-4.2,6.5-6.91l2.86,.58c1.14,.45,2.38,.69,3.6,.69,2.74,0,5.32-1.16,7.14-3.13l4.94,.59,.16-1.32c3.72,8.29,11.98,13.79,21.36,13.79m10.9-10.22c-2.96,2.45-6.76,3.92-10.9,3.92-1.88,0-3.7-.3-5.41-.87l.37-.8,3.16,1.04,.92-3.79,.33,3.88,3.37-.57c.18-.03,.35-.06,.53-.1l3.36-.68-1.11-3.76,2.23,3.2,2.51-2.09,.62,.6Zm-68.06,3.64c-.93,.15-1.87,.23-2.82,.23-1.87,0-3.68-.31-5.37-.88l.34-.72,3.16,1.05,.92-3.8,.33,3.9,3.22-.56,.23,.78Zm8.04-3.67c-.34,.28-.69,.55-1.06,.8-1.93,1.36-4.09,2.28-6.36,2.75l-.07-.81,3.26-.68-1.1-3.75,2.23,3.2,2.52-2.08,.59,.56Zm43.33,2.03l-.21,.85c-2.63-.98-4.98-2.59-6.83-4.67l.73-.51,2.21,2.48,2.69-2.83-1.67,3.54,3.06,1.13Zm-59.98,0l-.19,.78c-2.61-.99-4.93-2.6-6.76-4.65l.65-.45,2.21,2.49,2.69-2.83-1.66,3.54,3.06,1.13Zm81.82-9.21c-.99,2.64-2.61,4.97-4.68,6.81l-.49-.71,2.48-2.21-2.83-2.69,3.54,1.67,1.13-3.06,.84,.2Zm-59.55-.9l-1.05,2.22c-.98,2.06-2.37,3.91-4.08,5.43l-.46-.67,2.49-2.21-6.41-6.09,2.71,.65-5.08-2.92-.59-.56,12.84-3.78c.02,.1,.03,.2,.05,.3l.36,2.42,8.35,.85-.21-.54,1.39,.16c1.46,.17,2.65,1.24,2.96,2.68l.28,1.29-.65,1.14c-.61,1.07-1.75,1.73-2.98,1.73-.48,0-.97-.1-1.4-.3l-.63-.29h-.39s-7.47-1.51-7.47-1.51Zm30.89,5.17l-.61,.64c-1.61-1.96-2.81-4.3-3.43-6.91l-.14-.56,.88-.08,.66,3.26,3.76-1.11-3.21,2.23,2.09,2.51Zm-59.99,0l-.54,.57c-2.17-2.62-3.58-5.9-3.86-9.5l-.18-2.33-1.51-.33c-.04-5.31,2.18-10.01,6.07-13.33l1.77,2.55-2.49,2.21,2.95,2.8-3.55-2.04-1.29,3.49c-.06,.17-.12,.33-.18,.5l-1.08,3.25,3.81,.92-3.9,.33,.57,3.38c.03,.18,.06,.35,.1,.53l.69,3.36,3.76-1.11-3.22,2.24,2.09,2.51Zm89.49-13.1c.15,.93,.23,1.87,.23,2.83,0,1.89-.31,3.71-.87,5.41l-.79-.37,1.05-3.16-3.8-.92,3.89-.33-.55-3.21,.84-.25Zm-32.95,5.42l-.88,.26-.23-.96-1.77-.22s-.02-.08-.02-.13c-.31-2.65,0-5.28,.91-7.78l2.58,1.21-1.04,3.16,3.8,.92-3.89,.33,.55,3.22Zm-8.42-9.44c-.51,1.78-.8,3.61-.88,5.46-.8-1.27-1.88-2.34-3.15-3.12l4.03-2.33Zm-18.78,3.41l-9.36,.79,7.34-5.11-2.09-2.51,2.22-2.34,1.32,1.3-1.92,1.56,1.1,2.25c.63,1.29,1.1,2.65,1.38,4.06m60.04,0l-.86,.07-.66-3.27-3.76,1.11,3.21-2.23-2.09-2.51,.6-.63c1.77,2.14,3,4.7,3.57,7.45m-30.86-5.41l-1.13,3.06-2.76-.67c.93-2.48,2.45-4.83,4.51-6.91l.99-1,1.59,2.28-2.48,2.21,2.83,2.69-3.55-1.67Zm-12.25-4.21l-10.88,6.31-.36-.95,27.91-16.54,.42,1.27-17.22,9.95,.12-.03Zm-23.77-.31l-2.7,2.84,1.67-3.54-3.06-1.13,.72-2.97c.99,.36,1.97,.8,2.91,1.31l1.92,1.04,1.61,1.41c.27,.24,.54,.49,.79,.74l.98,.97-2.64,1.83-2.21-2.49Zm59.97,0l-2.69,2.83,1.67-3.55-3.07-1.12,.21-.87,.91,.4c2.3,1.02,4.29,2.5,5.89,4.3l-.71,.49-2.22-2.48Zm-15.65,.79l.48,1.42-.86-1.23,.38-.19Zm-57.58-3.35l-3.26,.67,1.11,3.76-2.23-3.21-2.51,2.09-2.25-2.14c2.26-1.9,5.08-3.34,8.34-4.18,.18-.04,.36-.09,.54-.13l.26,3.14Zm54.98,1.73l-1.89,1.57-2.03-1.93,2.64-2.68,.08-.02,.57,1.17,.63,1.88Zm9.61,.34l-.27,1.13-.09-1.12h.37Zm-59.34-2.69l-.92,3.8-.33-3.89-3.22,.55-.89-3.03c3.06-.62,6.53-.31,9.83,.85l-1.3,2.77-3.16-1.05Zm63.55,.19l-.4,.86-2.86-.95-.19-2.61c.87,.07,1.73,.19,2.58,.37,.2,.04,.35,.09,.45,.14l-.2,1.92,.63,.28Zm-35.01-3.43l-5.15,3.06-.72-1.9,5.87-1.15Zm15.28-17.43l.6,1.55-.28-.26-.58-.21c-.05-.02-.13-.08-.13-.15l.39-.93Zm-31.22-1.49s-.08,.04-.13,.07c-.27,.14-.56,.29-.86,.43l-2.29,1.13-.9-.34c-.18-.07-.38-.16-.58-.27,.28-.26,.51-.58,.67-.93,1.12,.07,2.32,.11,3.12,.03,.2-.02,.55-.07,.95-.12"></path>
      <rect class="uuid-1b63940f-c19f-4110-b358-79e5259bc946" x="51.7" y="78.34" width=".87" height="7.11" transform="translate(-35.4 123.89) rotate(-83.15)"></rect>
      <rect class="uuid-298abea2-4f3c-4239-845c-9e4818b8f72b" x="18.28" y="56.76" width="18.13" height="3.08"></rect>
      <path class="uuid-813e3a52-c5c1-4aed-9d56-a62c38759c1a" d="M76.81,42.52c-.62-1.76-.34-1.96,1.14-2.62l3.96-1.34-.6-1.35-3.96,1.34c-2.65,1.17-2.74,2.38-1.66,5.19h.03s1.24,3.35,1.24,3.35l1.43-.51-1.56-4.07h-.01Z"></path>
      <path class="uuid-813e3a52-c5c1-4aed-9d56-a62c38759c1a" d="M75.04,43.02c-.71-1.73-1.05-1.7-2.59-1.2l-4.32,1.27-.45-1.41,4.33-1.27c2.76-.89,3.63-.04,4.69,2.78h-.04s1.31,3.35,1.31,3.35l-1.4,.57-1.54-4.08h.01Z"></path>
      <polygon class="uuid-005baf8f-431c-441d-a5b9-cecb34daacb5" points="31.3 80.86 31.18 80.87 31.12 80.16 31.11 80.1 31.11 80.04 31.05 79.36 31.04 79.2 30.78 76.18 30.75 75.78 30.75 75.78 29.99 66.81 29.94 66.21 29.93 66.12 30.06 66.11 30.07 66.2 30.12 66.81 30.84 75.4 30.87 75.79 30.87 75.79 31.15 79.08 31.17 79.24 31.23 80 31.24 80.13 31.25 80.19 31.27 80.46 31.28 80.6 31.3 80.86"></polygon>
      <polygon class="uuid-005baf8f-431c-441d-a5b9-cecb34daacb5" points="29.31 80.88 29.31 80.88 29.23 80.6 29.21 80.54 29.18 80.42 28.96 79.67 28.96 79.67 28.91 79.51 27.98 76.34 27.98 76.34 27.87 75.97 27.87 75.96 25.43 67.69 25.26 67.11 25.21 66.94 25.33 66.9 25.37 67.06 25.55 67.65 28.09 76.29 28.2 76.67 29.06 79.59 29.11 79.74 29.11 79.75 29.3 80.41 29.32 80.46 29.34 80.53 29.42 80.8 29.43 80.85 29.31 80.88"></polygon>
      <polygon class="uuid-005baf8f-431c-441d-a5b9-cecb34daacb5" points="30.99 80.46 30.89 80.53 30.49 79.96 30.45 79.9 30.42 79.85 30.03 79.29 30.03 79.29 29.93 79.16 28.2 76.67 28.2 76.67 27.98 76.35 27.98 76.34 22.84 68.95 22.49 68.45 22.44 68.38 22.54 68.31 22.59 68.39 22.94 68.89 27.87 75.96 28.09 76.29 29.97 78.99 30.07 79.13 30.5 79.76 30.58 79.86 30.61 79.91 30.77 80.14 30.84 80.24 30.99 80.46"></polygon>
      <polygon class="uuid-005baf8f-431c-441d-a5b9-cecb34daacb5" points="29.37 81.39 29.28 81.48 29.28 81.48 29.07 81.28 29.03 81.23 28.93 81.14 28.37 80.61 28.25 80.49 25.86 78.22 25.57 77.95 19.33 72 18.88 71.58 18.75 71.46 18.84 71.37 18.96 71.48 19.41 71.91 25.93 78.11 26.21 78.38 28.42 80.48 28.54 80.6 29.04 81.07 29.08 81.11 29.13 81.16 29.34 81.36 29.37 81.39"></polygon>
      <polygon class="uuid-005baf8f-431c-441d-a5b9-cecb34daacb5" points="30.53 80.28 30.48 80.39 29.84 80.09 29.78 80.06 29.78 80.06 29.72 80.03 29.11 79.75 29.11 79.74 28.96 79.67 28.96 79.67 26.21 78.38 25.86 78.22 17.71 74.39 17.16 74.13 17.16 74.13 17.08 74.09 17.14 73.98 17.22 74.02 17.77 74.28 25.57 77.95 25.93 78.11 28.91 79.52 29.06 79.59 29.75 79.91 29.87 79.97 29.92 79.99 30.17 80.11 30.29 80.16 30.53 80.28"></polygon>
      <polygon class="uuid-005baf8f-431c-441d-a5b9-cecb34daacb5" points="29.58 81.89 29.56 82.01 29.55 82.01 29.28 81.94 29.21 81.93 29.09 81.89 28.33 81.71 28.17 81.67 24.95 80.9 24.58 80.81 16.19 78.78 15.6 78.64 15.43 78.59 15.46 78.47 15.62 78.51 16.21 78.66 24.97 80.77 24.97 80.77 25.35 80.87 25.35 80.87 28.31 81.58 28.31 81.58 28.47 81.62 29.14 81.78 29.19 81.79 29.26 81.81 29.54 81.88 29.58 81.89"></polygon>
      <polygon class="uuid-005baf8f-431c-441d-a5b9-cecb34daacb5" points="30.04 80.47 29.34 80.53 29.27 80.54 29.27 80.54 29.21 80.54 28.54 80.6 28.37 80.61 25.35 80.86 25.35 80.86 24.95 80.9 15.99 81.66 15.38 81.71 15.3 81.71 15.28 81.59 15.38 81.58 15.99 81.53 24.58 80.81 24.97 80.77 24.97 80.77 28.25 80.49 28.42 80.48 29.18 80.42 29.3 80.41 29.36 80.4 29.64 80.38 29.77 80.37 30.03 80.34 30.04 80.47"></polygon>
      <polygon class="uuid-005baf8f-431c-441d-a5b9-cecb34daacb5" points="30.06 82.33 30.05 82.33 29.78 82.41 29.71 82.43 29.59 82.47 28.85 82.69 28.69 82.74 28.69 82.74 25.52 83.67 25.52 83.67 25.14 83.78 16.87 86.22 16.28 86.39 16.12 86.44 16.08 86.32 16.24 86.28 16.83 86.1 25.47 83.56 25.84 83.44 28.76 82.59 28.92 82.54 29.58 82.34 29.64 82.33 29.7 82.31 29.98 82.23 30.02 82.21 30.06 82.33"></polygon>
      <polygon class="uuid-005baf8f-431c-441d-a5b9-cecb34daacb5" points="29.71 80.76 29.13 81.16 29.07 81.2 29.03 81.23 28.47 81.62 28.33 81.72 25.84 83.45 25.84 83.45 25.52 83.67 25.52 83.67 18.13 88.81 17.63 89.16 17.56 89.21 17.49 89.11 17.56 89.05 18.06 88.71 25.14 83.78 25.47 83.56 28.17 81.67 28.31 81.58 28.93 81.14 29.04 81.07 29.09 81.04 29.31 80.88 29.42 80.8 29.64 80.65 29.71 80.76"></polygon>
      <polygon class="uuid-005baf8f-431c-441d-a5b9-cecb34daacb5" points="30.65 82.36 30.65 82.37 30.45 82.57 30.41 82.62 30.32 82.72 29.79 83.27 29.67 83.4 27.39 85.79 27.39 85.79 27.12 86.08 21.17 92.32 20.75 92.77 20.63 92.89 20.54 92.81 20.66 92.68 21.08 92.24 27.29 85.72 27.29 85.72 27.56 85.44 27.56 85.43 29.66 83.23 29.77 83.11 30.25 82.61 30.29 82.57 30.33 82.52 30.53 82.31 30.56 82.28 30.65 82.36"></polygon>
      <polygon class="uuid-005baf8f-431c-441d-a5b9-cecb34daacb5" points="29.56 81.17 29.26 81.81 29.23 81.87 29.21 81.93 28.92 82.54 28.85 82.69 27.56 85.43 27.56 85.43 27.39 85.79 27.39 85.79 23.56 93.94 23.3 94.49 23.27 94.57 23.15 94.51 23.19 94.43 23.45 93.88 27.12 86.07 27.29 85.72 27.29 85.72 28.69 82.74 28.69 82.74 28.76 82.59 29.08 81.9 29.14 81.78 29.17 81.73 29.28 81.48 29.34 81.36 29.45 81.12 29.56 81.17"></polygon>
      <polygon class="uuid-005baf8f-431c-441d-a5b9-cecb34daacb5" points="31.18 82.09 31.18 82.09 31.12 82.37 31.1 82.44 31.07 82.56 30.89 83.32 30.85 83.48 30.07 86.69 29.98 87.07 27.96 95.46 27.81 96.05 27.77 96.22 27.65 96.19 27.69 96.03 27.83 95.43 29.95 86.68 30.04 86.3 30.75 83.34 30.79 83.18 30.96 82.51 30.97 82.45 30.99 82.39 30.99 82.39 31.05 82.1 31.06 82.07 31.18 82.09"></polygon>
      <polygon class="uuid-005baf8f-431c-441d-a5b9-cecb34daacb5" points="30.89 96.35 30.76 96.37 30.76 96.27 30.7 95.66 29.98 87.07 29.95 86.68 29.67 83.4 29.66 83.23 29.59 82.47 29.58 82.34 29.58 82.28 29.55 82.01 29.54 81.88 29.52 81.62 29.64 81.61 29.7 82.31 29.71 82.38 29.71 82.44 29.77 83.11 29.78 83.28 30.04 86.3 30.07 86.69 30.83 95.66 30.88 96.27 30.89 96.35"></polygon>
      <polygon class="uuid-005baf8f-431c-441d-a5b9-cecb34daacb5" points="35.62 95.53 35.5 95.57 35.45 95.41 35.28 94.82 32.73 86.19 32.73 86.18 32.62 85.81 32.62 85.81 31.76 82.89 31.71 82.73 31.71 82.73 31.52 82.07 31.5 82.01 31.48 81.94 31.4 81.67 31.39 81.63 31.51 81.59 31.59 81.87 31.61 81.94 31.65 82.06 31.87 82.8 31.87 82.8 31.91 82.96 32.85 86.13 32.96 86.51 32.96 86.51 35.4 94.78 35.57 95.37 35.62 95.53"></polygon>
      <polygon class="uuid-005baf8f-431c-441d-a5b9-cecb34daacb5" points="38.38 94.09 38.28 94.16 38.23 94.09 37.88 93.58 32.96 86.51 32.96 86.51 32.73 86.19 32.73 86.18 30.85 83.48 30.75 83.34 30.32 82.71 30.25 82.61 30.21 82.56 30.05 82.33 29.98 82.23 29.83 82.01 29.93 81.94 30.33 82.52 30.37 82.57 30.41 82.62 30.79 83.18 30.79 83.18 30.89 83.32 32.62 85.81 32.62 85.81 32.85 86.13 37.98 93.52 38.33 94.02 38.38 94.09"></polygon>
      <polygon class="uuid-005baf8f-431c-441d-a5b9-cecb34daacb5" points="42.07 91.01 41.98 91.1 41.86 90.99 41.42 90.57 34.89 84.36 34.61 84.09 32.41 81.99 32.28 81.88 31.79 81.4 31.74 81.36 31.69 81.31 31.49 81.12 31.45 81.09 31.54 81 31.54 81 31.75 81.19 31.8 81.24 31.89 81.33 32.45 81.87 32.57 81.98 34.97 84.26 35.25 84.53 41.49 90.47 41.94 90.89 42.07 91.01"></polygon>
      <polygon class="uuid-005baf8f-431c-441d-a5b9-cecb34daacb5" points="43.74 88.38 43.69 88.49 43.61 88.46 43.05 88.19 35.25 84.53 34.89 84.36 31.91 82.96 31.76 82.89 31.07 82.56 30.96 82.51 30.9 82.48 30.65 82.36 30.53 82.31 30.29 82.2 30.35 82.08 30.99 82.39 30.99 82.39 31.05 82.41 31.05 82.41 31.1 82.44 31.71 82.73 31.71 82.73 31.87 82.8 34.61 84.09 34.97 84.26 43.11 88.09 43.67 88.35 43.74 88.38"></polygon>
      <polygon class="uuid-005baf8f-431c-441d-a5b9-cecb34daacb5" points="45.39 83.88 45.36 84 45.21 83.96 44.61 83.81 35.85 81.7 35.85 81.7 35.47 81.61 35.47 81.61 32.52 80.89 32.51 80.89 32.35 80.85 31.68 80.69 31.63 80.68 31.56 80.66 31.28 80.6 31.24 80.59 31.27 80.46 31.55 80.53 31.61 80.55 31.74 80.58 32.49 80.76 32.65 80.8 35.87 81.57 36.25 81.67 44.63 83.69 45.23 83.84 45.39 83.88"></polygon>
      <polygon class="uuid-005baf8f-431c-441d-a5b9-cecb34daacb5" points="45.54 80.88 45.45 80.89 44.84 80.94 36.25 81.67 35.85 81.7 35.85 81.7 32.57 81.98 32.41 81.99 31.65 82.05 31.52 82.07 31.46 82.07 31.18 82.09 31.05 82.1 30.79 82.13 30.78 82 31.48 81.94 31.55 81.94 31.61 81.93 32.29 81.88 32.45 81.86 35.47 81.61 35.47 81.61 35.87 81.57 44.83 80.82 45.44 80.77 45.53 80.76 45.54 80.88"></polygon>
      <polygon class="uuid-005baf8f-431c-441d-a5b9-cecb34daacb5" points="44.74 76.15 44.59 76.2 44 76.37 35.36 78.92 35.36 78.92 34.98 79.03 32.06 79.89 31.91 79.93 31.9 79.93 31.24 80.13 31.18 80.15 31.12 80.16 30.84 80.24 30.8 80.26 30.77 80.14 30.77 80.14 31.04 80.06 31.04 80.06 31.11 80.04 31.23 80 31.97 79.78 31.98 79.78 32.13 79.74 32.14 79.74 35.31 78.8 35.68 78.69 43.96 76.25 44.54 76.08 44.71 76.03 44.74 76.15"></polygon>
      <polygon class="uuid-005baf8f-431c-441d-a5b9-cecb34daacb5" points="43.34 73.37 43.26 73.42 42.76 73.77 35.68 78.69 35.36 78.92 35.36 78.92 32.65 80.8 32.52 80.89 32.51 80.89 31.89 81.33 31.79 81.4 31.74 81.44 31.51 81.59 31.4 81.67 31.19 81.82 31.11 81.72 31.69 81.31 31.75 81.28 31.8 81.24 32.35 80.85 32.49 80.76 34.98 79.03 35.31 78.8 42.69 73.66 43.19 73.31 43.27 73.26 43.34 73.37"></polygon>
      <polygon class="uuid-005baf8f-431c-441d-a5b9-cecb34daacb5" points="40.28 69.67 40.16 69.79 39.74 70.23 33.54 76.75 33.53 76.75 33.27 77.04 33.27 77.04 31.17 79.24 31.05 79.36 30.58 79.86 30.54 79.9 30.49 79.95 30.29 80.16 30.26 80.19 30.17 80.11 30.17 80.11 30.37 79.9 30.42 79.85 30.51 79.76 31.04 79.2 31.15 79.08 33.43 76.68 33.7 76.4 39.65 70.15 40.07 69.71 40.19 69.58 40.28 69.67"></polygon>
      <polygon class="uuid-005baf8f-431c-441d-a5b9-cecb34daacb5" points="37.67 67.96 37.63 68.04 37.37 68.6 33.7 76.4 33.54 76.75 33.54 76.76 32.14 79.74 32.13 79.74 32.06 79.89 31.74 80.58 31.68 80.69 31.66 80.75 31.54 81 31.49 81.11 31.37 81.35 31.26 81.3 31.56 80.66 31.59 80.6 31.61 80.55 31.9 79.93 31.9 79.93 31.97 79.78 31.98 79.78 33.26 77.04 33.27 77.04 33.43 76.68 37.26 68.54 37.52 67.98 37.56 67.91 37.67 67.96"></polygon>
      <polygon class="uuid-005baf8f-431c-441d-a5b9-cecb34daacb5" points="33.17 66.28 33.13 66.44 32.99 67.04 30.88 75.79 30.78 76.18 30.07 79.13 30.03 79.29 29.87 79.97 29.85 80.02 29.84 80.09 29.77 80.37 29.76 80.41 29.64 80.38 29.71 80.1 29.71 80.1 29.72 80.03 29.75 79.91 29.93 79.16 29.97 78.99 30.75 75.78 30.84 75.4 32.87 67.02 33.01 66.42 33.05 66.25 33.17 66.28"></polygon>
      <path class="uuid-3b33d052-a49b-42da-a144-b71e00d09dc7" d="M48.71,81.24c0,10.11-8.19,18.3-18.3,18.3s-18.3-8.19-18.3-18.3,8.19-18.3,18.3-18.3,18.3,8.19,18.3,18.3m-2.68-.36l-.63,.05s0-.09,0-.13l.63-.05c-.05-1.66-.36-3.26-.89-4.75l-.61,.18s-.03-.08-.04-.12l.61-.18c-.35-.97-.8-1.9-1.33-2.77l-.52,.36s-.04-.07-.07-.11l.52-.36c-.86-1.38-1.92-2.62-3.15-3.66l-.44,.46s-.07-.05-.1-.08l.44-.46c-.78-.66-1.63-1.24-2.53-1.73l-.27,.57s-.08-.04-.11-.06l.27-.58c-1.4-.76-2.94-1.3-4.56-1.6l-.15,.62s-.08-.02-.13-.02l.15-.62c-.88-.15-1.78-.23-2.7-.23-.12,0-.24,0-.36,0l.05,.63h-.13l-.05-.63c-1.66,.05-3.25,.36-4.75,.89l.18,.61s-.08,.03-.12,.04l-.18-.61c-.97,.35-1.9,.8-2.77,1.33l.36,.52s-.07,.04-.11,.07l-.36-.52c-1.38,.85-2.62,1.92-3.66,3.15l.46,.44s-.06,.07-.08,.1l-.46-.44c-.66,.78-1.24,1.63-1.73,2.53l.58,.27s-.04,.08-.06,.11l-.58-.27c-.75,1.41-1.3,2.94-1.6,4.56l.62,.15s-.02,.08-.02,.13l-.62-.15c-.15,.88-.24,1.78-.24,2.7,0,.12,0,.24,0,.36l.63-.05s0,.09,0,.13l-.63,.05c.05,1.66,.36,3.26,.89,4.75l.61-.18s.03,.08,.04,.12l-.61,.18c.36,.97,.8,1.9,1.33,2.77l.52-.36s.04,.07,.07,.11l-.52,.37c.86,1.38,1.92,2.61,3.15,3.66l.44-.46s.07,.06,.1,.08l-.44,.46c.78,.66,1.63,1.24,2.53,1.73l.27-.57s.07,.04,.11,.06l-.27,.57c1.4,.76,2.94,1.3,4.56,1.6l.15-.62s.08,.02,.13,.02l-.15,.62c.88,.15,1.78,.23,2.7,.23,.12,0,.24,0,.36,0l-.05-.63s.09,0,.13,0l.05,.63c1.66-.05,3.26-.36,4.75-.89l-.18-.61s.08-.03,.12-.04l.18,.61c.97-.35,1.9-.8,2.77-1.33l-.36-.52s.07-.04,.11-.07l.36,.52c1.38-.85,2.61-1.92,3.66-3.15l-.46-.44s.06-.07,.08-.1l.46,.44c.66-.78,1.24-1.63,1.73-2.53l-.58-.27s.04-.08,.06-.11l.57,.27c.76-1.4,1.3-2.94,1.6-4.56l-.62-.15s.01-.08,.02-.13l.62,.15c.15-.88,.23-1.78,.23-2.7,0-.12,0-.24,0-.36"></path>
      <path class="uuid-ea05aafc-3c10-4065-b151-03a829c8e26d" d="M46.51,81.24c0,8.89-7.21,16.1-16.1,16.1s-16.1-7.21-16.1-16.1,7.21-16.1,16.1-16.1,16.1,7.21,16.1,16.1m-.64,0c0-8.54-6.92-15.46-15.46-15.46s-15.46,6.92-15.46,15.46,6.92,15.46,15.46,15.46,15.46-6.92,15.46-15.46"></path>
      <path class="uuid-2f9a38f1-fc11-4fa2-a6e9-aad7aee9581c" d="M46.07,81.24c0,8.65-7.01,15.66-15.66,15.66s-15.66-7.01-15.66-15.66,7.01-15.66,15.66-15.66,15.66,7.01,15.66,15.66m-4.21,9.75s.05-.06,.08-.1c.63-.75,1.19-1.57,1.67-2.44,.02-.04,.04-.07,.06-.11,.73-1.35,1.25-2.83,1.54-4.39,0-.04,.01-.08,.02-.12,.15-.85,.22-1.71,.22-2.6,0-.12,0-.23,0-.35,0-.04,0-.08,0-.12-.05-1.6-.34-3.14-.86-4.57-.01-.04-.03-.08-.04-.12-.34-.93-.77-1.83-1.28-2.66-.02-.04-.04-.07-.07-.1-.82-1.33-1.85-2.52-3.03-3.53-.03-.03-.06-.05-.09-.08-.75-.63-1.57-1.19-2.44-1.67-.04-.02-.07-.04-.11-.06-1.35-.73-2.83-1.25-4.39-1.54-.04,0-.08-.02-.12-.02-.84-.15-1.71-.22-2.6-.22-.11,0-.23,0-.34,0-.04,0-.08,0-.12,0-1.6,.05-3.13,.35-4.57,.86-.04,.01-.08,.03-.12,.04-.93,.34-1.83,.77-2.66,1.28-.04,.02-.07,.04-.1,.07-1.33,.82-2.52,1.85-3.53,3.03-.03,.03-.05,.07-.08,.1-.63,.75-1.19,1.57-1.67,2.44-.02,.04-.04,.07-.06,.11h0c-.73,1.35-1.25,2.83-1.54,4.39,0,.04-.01,.08-.02,.12-.15,.85-.22,1.72-.22,2.6,0,.11,0,.23,0,.34,0,.04,0,.08,0,.12,.05,1.6,.34,3.13,.86,4.57,.01,.04,.03,.08,.04,.11,.34,.93,.77,1.83,1.28,2.66,.02,.04,.04,.07,.07,.11,.82,1.32,1.85,2.51,3.03,3.52,.03,.03,.06,.06,.09,.08,.75,.63,1.57,1.19,2.44,1.67,.04,.02,.07,.04,.11,.06,1.35,.73,2.83,1.25,4.39,1.54,.04,0,.08,.01,.12,.02,.84,.15,1.71,.22,2.6,.22,.12,0,.23,0,.35,0,.04,0,.08,0,.13,0,1.6-.05,3.13-.35,4.57-.86,.04-.01,.08-.03,.12-.04,.93-.34,1.83-.77,2.66-1.28,.03-.02,.07-.04,.11-.07,1.33-.82,2.52-1.85,3.52-3.03"></path>
      <path class="uuid-005baf8f-431c-441d-a5b9-cecb34daacb5" d="M31.75,81.24c0,.74-.6,1.34-1.34,1.34s-1.34-.6-1.34-1.34,.6-1.34,1.34-1.34,1.34,.6,1.34,1.34"></path>
      <polygon class="uuid-005baf8f-431c-441d-a5b9-cecb34daacb5" points="91.16 80.87 89.92 66.12 90.04 66.11 91.29 80.86 91.16 80.87"></polygon>
      <polygon class="uuid-005baf8f-431c-441d-a5b9-cecb34daacb5" points="89.3 80.88 85.19 66.94 85.31 66.91 89.42 80.84 89.3 80.88"></polygon>
      <polygon class="uuid-005baf8f-431c-441d-a5b9-cecb34daacb5" points="90.87 80.53 82.42 68.38 82.53 68.31 90.98 80.46 90.87 80.53"></polygon>
      <polygon class="uuid-005baf8f-431c-441d-a5b9-cecb34daacb5" points="89.27 81.48 78.74 71.46 78.83 71.37 89.35 81.39 89.27 81.48"></polygon>
      <rect class="uuid-005baf8f-431c-441d-a5b9-cecb34daacb5" x="83.73" y="69.78" width=".12" height="14.8" transform="translate(-21.71 120.17) rotate(-64.82)"></rect>
      <polygon class="uuid-005baf8f-431c-441d-a5b9-cecb34daacb5" points="89.54 82.01 75.41 78.6 75.44 78.47 89.57 81.89 89.54 82.01"></polygon>
      <rect class="uuid-005baf8f-431c-441d-a5b9-cecb34daacb5" x="75.25" y="80.97" width="14.8" height=".12" transform="translate(-6.36 7.05) rotate(-4.7)"></rect>
      <polygon class="uuid-005baf8f-431c-441d-a5b9-cecb34daacb5" points="76.1 86.44 76.06 86.32 90 82.22 90.04 82.33 76.1 86.44"></polygon>
      <polygon class="uuid-005baf8f-431c-441d-a5b9-cecb34daacb5" points="77.54 89.21 77.47 89.11 89.62 80.65 89.69 80.76 77.54 89.21"></polygon>
      <polygon class="uuid-005baf8f-431c-441d-a5b9-cecb34daacb5" points="80.62 92.89 80.53 92.81 90.55 82.28 90.64 82.36 80.62 92.89"></polygon>
      <polygon class="uuid-005baf8f-431c-441d-a5b9-cecb34daacb5" points="83.25 94.57 83.14 94.51 89.43 81.12 89.55 81.17 83.25 94.57"></polygon>
      <polygon class="uuid-005baf8f-431c-441d-a5b9-cecb34daacb5" points="87.75 96.22 87.63 96.19 91.05 82.06 91.17 82.09 87.75 96.22"></polygon>
      <polygon class="uuid-005baf8f-431c-441d-a5b9-cecb34daacb5" points="90.75 96.37 89.5 81.62 89.63 81.6 90.87 96.35 90.75 96.37"></polygon>
      <polygon class="uuid-005baf8f-431c-441d-a5b9-cecb34daacb5" points="95.48 95.57 91.37 81.63 91.49 81.59 95.6 95.53 95.48 95.57"></polygon>
      <rect class="uuid-005baf8f-431c-441d-a5b9-cecb34daacb5" x="94.03" y="80.65" width=".12" height="14.8" transform="translate(-33.43 69.5) rotate(-34.82)"></rect>
      <polygon class="uuid-005baf8f-431c-441d-a5b9-cecb34daacb5" points="101.96 91.11 91.44 81.09 91.52 81 102.05 91.02 101.96 91.11"></polygon>
      <rect class="uuid-005baf8f-431c-441d-a5b9-cecb34daacb5" x="96.94" y="77.89" width=".13" height="14.8" transform="translate(-21.45 136.79) rotate(-64.82)"></rect>
      <polygon class="uuid-005baf8f-431c-441d-a5b9-cecb34daacb5" points="105.35 84 91.22 80.59 91.25 80.47 105.38 83.88 105.35 84"></polygon>
      <rect class="uuid-005baf8f-431c-441d-a5b9-cecb34daacb5" x="90.74" y="81.38" width="14.8" height=".12" transform="translate(-6.43 8.44) rotate(-4.77)"></rect>
      <polygon class="uuid-005baf8f-431c-441d-a5b9-cecb34daacb5" points="90.79 80.26 90.75 80.14 104.69 76.03 104.73 76.15 90.79 80.26"></polygon>
      <polygon class="uuid-005baf8f-431c-441d-a5b9-cecb34daacb5" points="91.17 81.82 91.1 81.72 103.25 73.26 103.32 73.37 91.17 81.82"></polygon>
      <polygon class="uuid-005baf8f-431c-441d-a5b9-cecb34daacb5" points="90.24 80.19 90.15 80.11 100.17 69.58 100.26 69.67 90.24 80.19"></polygon>
      <polygon class="uuid-005baf8f-431c-441d-a5b9-cecb34daacb5" points="91.36 81.35 91.24 81.3 97.54 67.91 97.65 67.96 91.36 81.35"></polygon>
      <polygon class="uuid-005baf8f-431c-441d-a5b9-cecb34daacb5" points="89.74 80.41 89.62 80.38 93.04 66.25 93.16 66.28 89.74 80.41"></polygon>
      <path class="uuid-3b33d052-a49b-42da-a144-b71e00d09dc7" d="M108.75,81.24c0,10.14-8.22,18.36-18.36,18.36s-18.36-8.22-18.36-18.36,8.22-18.36,18.36-18.36,18.36,8.22,18.36,18.36m-3.32,0c0-8.31-6.73-15.04-15.04-15.04s-15.04,6.73-15.04,15.04,6.73,15.04,15.04,15.04,15.04-6.73,15.04-15.04"></path>
      <path class="uuid-ea05aafc-3c10-4065-b151-03a829c8e26d" d="M106.49,81.24c0,8.89-7.21,16.1-16.1,16.1s-16.1-7.21-16.1-16.1,7.21-16.1,16.1-16.1,16.1,7.21,16.1,16.1m-.64,0c0-8.54-6.92-15.46-15.46-15.46s-15.46,6.92-15.46,15.46,6.92,15.46,15.46,15.46,15.46-6.92,15.46-15.46"></path>
      <path class="uuid-2f9a38f1-fc11-4fa2-a6e9-aad7aee9581c" d="M106.06,81.24c0,8.65-7.01,15.66-15.66,15.66s-15.66-7.01-15.66-15.66,7.01-15.66,15.66-15.66,15.66,7.01,15.66,15.66m-.62,0c0-8.31-6.73-15.04-15.04-15.04s-15.04,6.73-15.04,15.04,6.73,15.04,15.04,15.04,15.04-6.73,15.04-15.04"></path>
      <path class="uuid-005baf8f-431c-441d-a5b9-cecb34daacb5" d="M91.73,81.24c0,.74-.6,1.34-1.34,1.34s-1.33-.6-1.33-1.34,.6-1.34,1.33-1.34,1.34,.6,1.34,1.34"></path>
      <path class="uuid-ab6d3dab-cf53-4dae-9cf3-75308de58b31" d="M25.74,62.87c6.93-1.72,16.22,1.39,20.26,7.74,.65,1.02,2.18,.13,1.51-.9-4.8-7.37-14.6-10.39-21.59-8.6-10.01,2.57-15.84,10.35-15.44,19.55,.04,.85,1.58-.43,1.61-1.28,.23-7.4,5.53-14.5,13.65-16.52"></path>
      <polygon class="uuid-4844aa66-5292-46c6-a31a-758b44b97127" points="47.01 58.98 31.24 80.93 30.51 81.7 29.95 81.36 30.2 80.41 46.01 58.37 47.01 58.98"></polygon>
      <path class="uuid-ab6d3dab-cf53-4dae-9cf3-75308de58b31" d="M79.03,66.71c4.06-3.13,10.25-4.57,15.73-3.57,2.15,.39,2.73-1.28,.45-1.76-6.07-1.27-12.57,.23-16.7,3.46-6.2,4.85-9.07,11.53-8.29,18.09,.24,2.06,1.9,1.09,1.79-.64-.34-5.67,1.94-11.66,7.02-15.57"></path>
      <polygon class="uuid-4844aa66-5292-46c6-a31a-758b44b97127" points="81.42 55.16 82.65 58.83 53.71 75.6 52.43 72.34 81.42 55.16"></polygon>
      <polygon class="uuid-ae46e29e-164c-4a82-b586-c0bfd32eaceb" points="44.71 55.16 40.68 44.22 42.39 43.59 46.4 54.48 44.71 55.16"></polygon>
      <polygon class="uuid-4844aa66-5292-46c6-a31a-758b44b97127" points="57.53 83.89 55.69 84.63 44.62 55.2 46.46 54.45 57.53 83.89"></polygon>
      <polygon class="uuid-4844aa66-5292-46c6-a31a-758b44b97127" points="56.58 85.7 30.15 81.64 30.25 80.76 56.79 84.45 56.58 85.7"></polygon>
      <polygon class="uuid-4844aa66-5292-46c6-a31a-758b44b97127" points="30.56 81.64 14.75 72.56 14.96 72.2 30.77 81.27 30.56 81.64"></polygon>
      <path class="uuid-373613b8-fc01-4664-b3aa-f98799f8bda9" d="M30.89,81.24c0,.26-.21,.48-.48,.48s-.48-.21-.48-.48,.21-.48,.48-.48,.48,.21,.48,.48"></path>
      <path class="uuid-4844aa66-5292-46c6-a31a-758b44b97127" d="M89.21,78.15s-.54-1.36-.79-2.12c-2.92-8.54-10.19-30.03-10.19-30.03l-1.86,.67s5.37,15.59,9.21,27.16c.34,1.02,2.57,4.52,2.57,4.52l1.94,2.83,.33-.27-1.21-2.77Z"></path>
      <path class="uuid-373613b8-fc01-4664-b3aa-f98799f8bda9" d="M90.87,81.24c0,.26-.21,.48-.48,.48s-.48-.22-.48-.48,.21-.48,.48-.48,.48,.21,.48,.48"></path>
      <path class="uuid-ab6d3dab-cf53-4dae-9cf3-75308de58b31" d="M58.71,85c0,1.06-.86,1.92-1.92,1.92s-1.92-.86-1.92-1.92,.86-1.92,1.92-1.92,1.92,.86,1.92,1.92"></path>
      <path class="uuid-8ea2a249-e583-406d-874a-4bc087faf3a3" d="M78.42,45.64c.07,.19-.03,.41-.22,.48l-1.78,.63c-.19,.07-.41-.03-.48-.22-.07-.2,.03-.41,.23-.48l1.78-.63c.19-.07,.41,.03,.48,.23"></path>
      <path class="uuid-813e3a52-c5c1-4aed-9d56-a62c38759c1a" d="M47.01,42.92c-1.37,.51-3.94,2.22-5.65,2.31-1.31,.07-3.39-1.53-4.53-2.36-.97-.71-.09-1.62,1.12-1.69,0,0,4.1,.46,5.86,.29,1.2-.12,5.74-.96,6.02-.09,.43,1.36-1.68,1.13-2.81,1.54"></path>
      <rect class="uuid-4844aa66-5292-46c6-a31a-758b44b97127" x="46.54" y="53.82" width="33.2" height="2.02" transform="translate(-9.39 13.21) rotate(-11.12)"></rect>
      <path class="uuid-b55482e3-89bc-4bd3-8e22-b0c03340187b" d="M60.93,85.61c.15-1.1-.14-2.19-.8-3.08-.71-.94-1.8-1.55-3-1.67l-24.01-2.43c-4.6-.57-5.67,.78-5.91,2.53-.24,1.78,1.71,3.13,3.25,3.3l23.79,4.81c2.15,0,2.52,.02,2.88,0,1.97-.08,3.54-1.51,3.8-3.48m-27.85-6.66l24.01,2.43c1.06,.1,2.03,.64,2.65,1.48,.58,.77,.83,1.72,.7,2.68-.23,1.72-1.6,2.97-3.34,3.04-.32,.01-.64-.01-.97-.08l-25.54-4.81c-2.72-.21-3.28-1.77-3.13-2.78,.25-1.66,1.57-1.97,3.19-2.04,.23,0,2.16,.06,2.43,.09"></path>
      <path class="uuid-ae46e29e-164c-4a82-b586-c0bfd32eaceb" d="M56.79,80.35c2.57,0,4.66,2.09,4.66,4.66s-2.09,4.66-4.66,4.66-4.66-2.09-4.66-4.66,2.09-4.66,4.66-4.66m-2.99,2.97l2.4,1.25c.04-.06,.1-.11,.16-.16h0s0,0,0,0c.05-.04,.12-.07,.18-.09l-.43-2.68c-.99,.2-1.83,.83-2.32,1.68m3.67-1.68l-.45,2.67c.07,.02,.14,.06,.2,.1h0s0,0,0,0c.05,.04,.1,.09,.15,.15l2.41-1.24c-.48-.86-1.32-1.49-2.31-1.69m2.75,3.37c0-.13,0-.26-.02-.39l-2.68,.4c0,.08-.02,.15-.04,.22h.01s-.01,0-.01,0c-.02,.07-.05,.13-.09,.19l1.92,1.91c.57-.61,.92-1.43,.92-2.33m-2.01,3.12l-1.2-2.43c-.07,.02-.14,.04-.22,.04h0s0,0,0,0c-.07,0-.14-.02-.2-.04l-1.22,2.42c.44,.2,.92,.32,1.44,.32s.99-.11,1.42-.31m-3.95-.8l1.93-1.89c-.04-.06-.08-.13-.1-.2h-.01s.01,0,.01,0c-.02-.07-.03-.13-.04-.2l-2.68-.42c-.02,.13-.03,.27-.03,.4,0,.89,.35,1.71,.91,2.32"></path>
      <path class="uuid-ae46e29e-164c-4a82-b586-c0bfd32eaceb" d="M30.41,78.03c1.77,0,3.21,1.44,3.21,3.21s-1.44,3.21-3.21,3.21-3.21-1.44-3.21-3.21,1.44-3.21,3.21-3.21m-2.06,2.05l1.66,.86s.07-.08,.11-.11h0s0,0,0,0c.04-.03,.08-.05,.13-.06l-.3-1.85c-.68,.14-1.26,.57-1.6,1.16m2.53-1.16l-.31,1.84s.1,.04,.14,.07h0s0,0,0,0c.04,.03,.07,.06,.1,.1l1.66-.85c-.33-.59-.91-1.02-1.59-1.16m1.9,2.32c0-.09,0-.18-.02-.27l-1.85,.27c0,.05-.01,.1-.03,.15h0s0,0,0,0c-.02,.04-.04,.09-.06,.13l1.32,1.32c.39-.42,.63-.99,.63-1.61m-1.39,2.15l-.83-1.67s-.1,.03-.15,.03h0s0,0,0,0c-.05,0-.1-.01-.14-.02l-.84,1.67c.3,.14,.64,.22,.99,.22s.68-.08,.98-.22m-2.72-.56l1.33-1.3s-.05-.09-.07-.14h0s-.02-.09-.02-.14l-1.85-.29c-.01,.09-.02,.18-.02,.28,0,.62,.24,1.18,.62,1.6"></path>
      <path class="uuid-3b33d052-a49b-42da-a144-b71e00d09dc7" d="M56.25,85c0,.3,.25,.55,.55,.55s.55-.25,.55-.55-.25-.55-.55-.55-.55,.25-.55,.55"></path>
      <path class="uuid-7fc558e9-def4-4368-8c52-3b0110a2defb" d="M74.47,44.98c0,.77,.65,1.39,1.44,1.39s1.44-.62,1.44-1.39-.64-1.39-1.44-1.39-1.44,.62-1.44,1.39"></path>
      <rect class="uuid-1b63940f-c19f-4110-b358-79e5259bc946" x="60.54" y="82.14" width=".87" height="7.11" transform="translate(-31.4 136.01) rotate(-83.15)"></rect>
    </g>
  </g>
</svg>
