<?xml version="1.0" encoding="UTF-8"?>
<svg xmlns="http://www.w3.org/2000/svg" xmlns:xlink="http://www.w3.org/1999/xlink" viewBox="0 0 120 120">
  <defs>
    <style>.uuid-9365ea27-266b-4254-89a3-3718b6c09432{fill:#fff;}.uuid-315b32a3-2245-4465-bfb7-92ba740f827e{fill:#f9f8f7;}.uuid-532f28d1-9396-4a40-8440-d1794420ff3e{fill:#a33c33;}.uuid-7b75be0c-7d4e-485b-a033-fbb327bcff59{fill:#e4edec;}.uuid-628157f1-e67d-4eac-8afa-e1215a24dd93{fill:#e5dfc7;}.uuid-fe299dee-7b9d-49a1-b625-aa8351249e6d{fill:#f5f5f5;}.uuid-cedc0ae3-ccc7-47e0-80b3-1d8f523b2538{fill:#f9b067;}.uuid-d2300521-d574-4a42-b9f0-be38e7a21b12{isolation:isolate;}.uuid-00ae30e5-891a-4f22-8f5f-aa00ad3d7739{fill:#d95127;}.uuid-f724555f-e5b7-4acf-bd5f-f47392e478f9{fill:#fc866b;}.uuid-e9e8867c-e439-4299-b457-412ea1db86dd{mix-blend-mode:multiply;opacity:.39;}.uuid-c451a6e2-f8b4-4759-8474-4e82ae88c220{fill:#f25a2c;}.uuid-034a68df-e7b4-45a9-84de-8bc1f61f6df2{fill:#f5e7de;}.uuid-b3958d19-8450-4881-94d0-8dca109382ee{clip-path:url(#uuid-3b2ae5d1-cf5f-482a-9ac6-903dff45d76e);}.uuid-abe1da6b-75a9-4558-af66-c184230dc2eb{clip-path:url(#uuid-2312a183-22a0-422c-ba0c-435669f3d669);}.uuid-f2c156a2-1d9b-4571-aa45-f9aa8f458a4d{fill:#ea6034;}.uuid-88e8dfaa-d97e-4e4e-a998-94b927c28c05{fill:#6fc8dd;}.uuid-dd6c9062-9dfe-4a2f-9015-0c07c61c686b{fill:none;}.uuid-cafddbbe-8102-47a7-b988-d7142590854c{fill:#fefef4;}.uuid-0b49e14a-9259-4d0d-a102-0f91e4954010{fill:#3a2931;}.uuid-1f7040a8-234a-44a9-a2e1-e649e7c72e0e{fill:#417a87;}.uuid-2f635088-1930-403a-a6b0-335788632517{fill:#12363f;}.uuid-96a42222-3e27-423c-b023-161815ff885d{fill:#c6c0a2;}.uuid-bab77449-ab6a-45aa-a606-3ac5a8805890{fill:#f49d3f;}.uuid-8d8caa8c-5592-4776-8f85-8591bc76ef37{fill:#60b5cc;}.uuid-77c102c8-ae42-42e6-99f5-b7dade23bde6{fill:#d0c285;}</style>
    <clipPath id="uuid-2312a183-22a0-422c-ba0c-435669f3d669">
      <rect class="uuid-dd6c9062-9dfe-4a2f-9015-0c07c61c686b" x="33.41" y="88.62" width="45.33" height="1.03"></rect>
    </clipPath>
    <clipPath id="uuid-3b2ae5d1-cf5f-482a-9ac6-903dff45d76e">
      <rect class="uuid-dd6c9062-9dfe-4a2f-9015-0c07c61c686b" x="33.41" y="88.62" width="45.33" height="1.03"></rect>
    </clipPath>
  </defs>
  <g class="uuid-d2300521-d574-4a42-b9f0-be38e7a21b12">
    <g id="uuid-ad0fae5c-afc2-470f-9816-f06d965c7f65">
      <circle class="uuid-fe299dee-7b9d-49a1-b625-aa8351249e6d" cx="59.93" cy="59.74" r="50"></circle>
      <g>
        <path class="uuid-9365ea27-266b-4254-89a3-3718b6c09432" d="M79.33,69.92h.41c.17,0,.3,.18,.3,.39v.1c0,.22-.13,.39-.3,.39h-.44v.11h-.01v6.47h-11.46c-.23,0-.46-.07-.66-.18,.21,.12,.43,.2,.66,.2h11.91c.17,0,.3,.18,.3,.39v.1c0,.22-.13,.39-.3,.39H40.21c-2.19,0-2.74-5.61-1.27-7.64l.98-30.83,2.53-2.5s13.42,3.08,16.29,11.62l.68,.03s-.39-9.2,17.14-10.71l2.38,1.93-.07,1.56c.95-.18,1.51-.27,1.51-.27l-1.05,28.44Zm-13.46,3.6s0-.02,0-.03c0,.01,0,.02,0,.03m1.56-2.65c-.08,.03-.17,.07-.25,.12,.1-.05,.2-.09,.31-.12h-.07Z"></path>
        <path class="uuid-9365ea27-266b-4254-89a3-3718b6c09432" d="M40.21,84.48h39.53c1.19,0,2.3-.33,3.25-.91h2.42v-2.59c.48-.92,.76-1.98,.76-3.1v-.1c0-1.12-.27-2.17-.76-3.1v-1.2c.13-.25,.25-.52,.35-.79l-.11-7.87,1.14-30.74-4.59,.78-3.72-3.01-2.44,.21c-7.72,.66-13.61,2.78-17.56,6.29-5.86-4.94-13.48-6.84-14.67-7.11l-3.26-.75-6.68,6.61-1.02,31.95c-1.41,3.54-1.01,8,.43,10.87,1.43,2.84,4.02,4.54,6.93,4.54m28.46-10.33l-.07,.12-.19-.55h.03s.23,.43,.23,.43Zm-1.25-2.05h-22.39l.86-27.06c3.05,1.38,6.22,3.43,7.04,5.89l1.34,4.01,11.75,.54-.46-6.43c.28-.93,1.98-2.84,7.02-3.95l-.18,4.18,1.56-.3-.58,15.75h-.23s-6.74-.05-6.74-.05l-1.01,.35c-.44,.16-.87,.35-1.3,.6l3.3,6.19v.28Zm.15,0h-.08v-.16s.08,.16,.08,.16Z"></path>
        <path class="uuid-9365ea27-266b-4254-89a3-3718b6c09432" d="M35.03,88.62c-.19,0-.34-.22-.34-.48v-.12c0-.27,.15-.48,.34-.48h13.41c.26,0,.51-.09,.75-.24-.23,.13-.48,.22-.75,.22h-12.9v-8.04h12.9c.26,0,.5,.07,.73,.2-.23-.14-.47-.23-.73-.23h-13.41c-.19,0-.34-.22-.34-.48v-.12c0-.27,.15-.48,.34-.48h44.52c3.27,0,3.01,10.26,0,10.26h-1.27v7.26h3.95c3.28,0,3.01,9.22,0,9.22H37.7c-.19,0-.34-.19-.34-.43v-.11c0-.24,.15-.43,.34-.43h13.42c.26,0,.51-.08,.75-.22-.23,.12-.48,.19-.75,.19h-12.9v-7.22h12.9c.25,0,.5,.07,.73,.18-.23-.13-.47-.21-.73-.21h-13.42c-.19,0-.34-.19-.34-.43v-.11c0-.24,.15-.43,.34-.43h-4.8v-7.26h2.12Zm15.62-5.89s0,.03,0,.05c0-.01,0-.03,0-.05m2.68,17.07s0,.03,0,.04c0-.01,0-.03,0-.04"></path>
        <path class="uuid-9365ea27-266b-4254-89a3-3718b6c09432" d="M37.71,111.29h44.52c5,0,8.49-4.5,8.49-10.95,0-1.47-.2-3.66-1.16-5.71-.77-1.66-1.92-2.96-3.3-3.81,1.1-1.83,1.78-4.31,1.78-7.49,0-1.51-.18-3.74-1.06-5.84-1.4-3.33-4.17-5.32-7.43-5.32H35.03c-1.32,0-2.55,.41-3.57,1.11h-2.05v2.26c-.54,.98-.85,2.1-.85,3.31v.12c0,1.2,.31,2.33,.85,3.31v.16h-2.63v19.64h4.93c-.3,.77-.47,1.61-.47,2.48v.11c0,1.19,.31,2.31,.85,3.28v2.35h2.21c.99,.63,2.16,1,3.41,1m34.44-12.39h-21.08l3.79-7.24c-1.06-.61-2.25-.95-3.44-1l-3.01-5h0l-.02-.03h0l-.65-1.08h24.4v14.35Z"></path>
        <path class="uuid-c451a6e2-f8b4-4759-8474-4e82ae88c220" d="M57.52,48.86l-.97,21.83h-17.1l.98-30.88s.26,0,.27,0c7.7,1.7,16.81,9.04,16.81,9.04"></path>
        <rect class="uuid-00ae30e5-891a-4f22-8f5f-aa00ad3d7739" x="47.84" y="58.12" width="21.86" height="3.47" transform="translate(-3.64 115.9) rotate(-87.45)"></rect>
        <path class="uuid-c451a6e2-f8b4-4759-8474-4e82ae88c220" d="M80.9,41.47l-1.09,29.44-19.79-.07,.97-21.83c3.04-3.6,13.78-6.39,18.4-7.26h0c.95-.18,1.51-.28,1.51-.28"></path>
        <path class="uuid-628157f1-e67d-4eac-8afa-e1215a24dd93" d="M59.25,48.93l-1.73-.08s-9.38-7.34-17.09-9.04l2.53-2.5s13.43,3.09,16.29,11.62"></path>
        <path class="uuid-628157f1-e67d-4eac-8afa-e1215a24dd93" d="M79.46,40.19c-19.14,1.24-18.86,8.81-18.86,8.81l-.66-.03s-.39-9.2,17.14-10.71l2.38,1.93Z"></path>
        <path class="uuid-96a42222-3e27-423c-b023-161815ff885d" d="M79.46,40.19l-.07,1.56c-4.62,.88-15.36,3.66-18.4,7.26l-.39-.02s-.28-7.57,18.86-8.81"></path>
        <path class="uuid-f2c156a2-1d9b-4571-aa45-f9aa8f458a4d" d="M52.07,105.09h30.67c3.01,0,3.27-9.22,0-9.22h-30.67c1.26,0,2.85,2.51,2.73,4.74-.12,2.23-1.24,4.48-2.73,4.48"></path>
        <path class="uuid-315b32a3-2245-4465-bfb7-92ba740f827e" d="M38.73,96.88v7.22h12.9c.42,0,.82-.17,1.16-.47,.13-.11,.24-.24,.35-.38,.14-.18,.26-.39,.36-.61,.05-.12,.1-.25,.15-.38,.06-.19,.11-.4,.15-.61,.02-.13,.04-.25,.04-.38,0-.11,.01-.22,.01-.34v-.84c0-.15,0-.29-.02-.43-.01-.13-.03-.26-.05-.38-.04-.21-.09-.42-.16-.61-.05-.13-.1-.26-.16-.38-.11-.23-.24-.43-.39-.61-.12-.15-.25-.28-.39-.38-.31-.24-.67-.37-1.04-.37h-12.9Z"></path>
        <path class="uuid-7b75be0c-7d4e-485b-a033-fbb327bcff59" d="M38.73,97.25v.38h14.34c-.12-.15-.25-.28-.39-.38h-13.95Z"></path>
        <path class="uuid-7b75be0c-7d4e-485b-a033-fbb327bcff59" d="M38.73,98.25v.38h14.89c-.05-.13-.1-.26-.16-.38h-14.73Z"></path>
        <path class="uuid-7b75be0c-7d4e-485b-a033-fbb327bcff59" d="M38.73,99.25v.38h15.1c-.01-.13-.03-.26-.05-.38h-15.05Z"></path>
        <rect class="uuid-7b75be0c-7d4e-485b-a033-fbb327bcff59" x="38.73" y="100.25" width="15.12" height=".38"></rect>
        <path class="uuid-7b75be0c-7d4e-485b-a033-fbb327bcff59" d="M38.73,101.25v.38h15.06c.02-.13,.04-.25,.04-.38h-15.11Z"></path>
        <path class="uuid-7b75be0c-7d4e-485b-a033-fbb327bcff59" d="M38.73,102.24v.38h14.77c.05-.12,.1-.25,.15-.38h-14.92Z"></path>
        <path class="uuid-7b75be0c-7d4e-485b-a033-fbb327bcff59" d="M38.73,103.24v.38h14.06c.13-.11,.24-.24,.35-.38h-14.41Z"></path>
        <path class="uuid-f724555f-e5b7-4acf-bd5f-f47392e478f9" d="M53.85,100.11v.75c0,1.57-.99,3.26-2.22,3.26h-13.42c-.19,0-.34,.19-.34,.43v.11c0,.24,.15,.43,.34,.43h13.86c2.27,0,2.87-2.9,2.87-4.61,0-2.23-.94-4.61-2.87-4.61h-13.86c-.19,0-.34,.19-.34,.43v.11c0,.24,.15,.43,.34,.43h13.42c1.22,0,2.22,1.68,2.22,3.26"></path>
        <path class="uuid-bab77449-ab6a-45aa-a606-3ac5a8805890" d="M79.56,103.89c.91-3.09,.18-6.15,0-6.83-.02-.07,.02-.14,.08-.14l2.18-.07s.07,.03,.08,.08c.12,.56,.82,3.96,0,6.96-.01,.04-.04,.07-.08,.07l-2.18,.07c-.06,0-.1-.07-.08-.14"></path>
        <path class="uuid-bab77449-ab6a-45aa-a606-3ac5a8805890" d="M56.12,103.81c.82-2.9,.21-5.74-.01-6.59-.03-.13,.04-.26,.14-.26l2.02-.06c.07,0,.13,.06,.15,.14,.16,.72,.77,3.95,0,6.83-.02,.08-.08,.13-.14,.13l-2.02,.06c-.11,0-.18-.13-.15-.27"></path>
        <path class="uuid-bab77449-ab6a-45aa-a606-3ac5a8805890" d="M59.39,103.87c.56-3.3,.12-6.11,0-6.79-.01-.08,.03-.16,.1-.16l.97-.06s.09,.04,.11,.1c.12,.63,.71,3.97,0,6.92-.01,.05-.05,.09-.09,.09l-.97,.06c-.07,0-.12-.08-.11-.16"></path>
        <path class="uuid-532f28d1-9396-4a40-8440-d1794420ff3e" d="M50.46,98.31c-.77,0-2.07,.35-2.07,.91v3.45l-1.51-.67-1.51,.67v-3.45c0-.56,1.32-.91,2.07-.91h3.01Z"></path>
        <path class="uuid-8d8caa8c-5592-4776-8f85-8591bc76ef37" d="M49.39,88.62h30.67c3.01,0,3.27-10.26,0-10.26h-30.67c1.26,0,2.85,2.79,2.73,5.27-.12,2.48-1.24,4.99-2.73,4.99"></path>
        <path class="uuid-034a68df-e7b4-45a9-84de-8bc1f61f6df2" d="M36.05,79.47v8.04h12.9c.42,0,.82-.19,1.16-.52,.13-.12,.24-.27,.35-.43,.14-.2,.26-.43,.36-.68,.05-.14,.1-.28,.15-.43,.06-.22,.11-.45,.15-.68,.02-.14,.04-.28,.04-.43,0-.12,.01-.25,.01-.38v-.94c0-.16,0-.32-.02-.48-.01-.14-.03-.29-.05-.43-.04-.24-.09-.47-.16-.68-.05-.15-.1-.29-.16-.43-.11-.26-.24-.48-.39-.68-.12-.16-.25-.31-.39-.43-.31-.27-.67-.42-1.04-.42h-12.9Z"></path>
        <path class="uuid-7b75be0c-7d4e-485b-a033-fbb327bcff59" d="M36.05,79.89v.43h14.34c-.12-.16-.25-.31-.39-.43h-13.95Z"></path>
        <path class="uuid-7b75be0c-7d4e-485b-a033-fbb327bcff59" d="M36.05,81v.43h14.89c-.05-.15-.1-.29-.16-.43h-14.73Z"></path>
        <path class="uuid-7b75be0c-7d4e-485b-a033-fbb327bcff59" d="M36.05,82.11v.43h15.1c-.01-.15-.03-.29-.05-.43h-15.05Z"></path>
        <rect class="uuid-7b75be0c-7d4e-485b-a033-fbb327bcff59" x="36.05" y="83.22" width="15.12" height=".43"></rect>
        <path class="uuid-7b75be0c-7d4e-485b-a033-fbb327bcff59" d="M36.05,84.34v.43h15.06c.02-.14,.04-.28,.04-.43h-15.11Z"></path>
        <path class="uuid-7b75be0c-7d4e-485b-a033-fbb327bcff59" d="M36.05,85.45v.43h14.77c.05-.14,.1-.28,.15-.43h-14.92Z"></path>
        <path class="uuid-7b75be0c-7d4e-485b-a033-fbb327bcff59" d="M36.05,86.56v.43h14.06c.13-.12,.24-.27,.35-.43h-14.41Z"></path>
        <path class="uuid-88e8dfaa-d97e-4e4e-a998-94b927c28c05" d="M51.17,83.07v.84c0,1.75-.99,3.63-2.22,3.63h-13.42c-.19,0-.34,.22-.34,.48v.12c0,.27,.15,.48,.34,.48h13.86c2.27,0,2.87-3.22,2.87-5.13,0-2.49-.94-5.13-2.87-5.13h-13.86c-.19,0-.34,.22-.34,.48v.12c0,.27,.15,.48,.34,.48h13.42c1.22,0,2.22,1.88,2.22,3.63"></path>
        <path class="uuid-1f7040a8-234a-44a9-a2e1-e649e7c72e0e" d="M60.48,86.04h11.87c1.2,0,1.2-4.66,0-4.66h-11.87c.37,.95,.34,3.46,0,4.66"></path>
        <path class="uuid-1f7040a8-234a-44a9-a2e1-e649e7c72e0e" d="M76.8,87.95h.86c.52,0,.61-8.48,0-8.48h-.86c.48,1.03,.45,6.4,0,8.48"></path>
        <path class="uuid-1f7040a8-234a-44a9-a2e1-e649e7c72e0e" d="M74.82,87.89h.86c.52,0,.61-8.48,0-8.48h-.86c.48,1.03,.45,6.4,0,8.48"></path>
        <path class="uuid-1f7040a8-234a-44a9-a2e1-e649e7c72e0e" d="M54.3,87.95h.86c.52,0,.61-8.48,0-8.48h-.86c.48,1.03,.45,6.4,0,8.48"></path>
        <path class="uuid-1f7040a8-234a-44a9-a2e1-e649e7c72e0e" d="M56.69,87.95h.86c.52,0,.61-8.48,0-8.48h-.86c.48,1.03,.45,6.4,0,8.48"></path>
        <path class="uuid-bab77449-ab6a-45aa-a606-3ac5a8805890" d="M67.95,78.29h-27.23c-2.67,0-2.91-8.37,0-8.37h27.23c-1.12,0-2.53,2.28-2.43,4.3,.11,2.02,1.1,4.07,2.43,4.07"></path>
        <path class="uuid-034a68df-e7b4-45a9-84de-8bc1f61f6df2" d="M79.8,70.83v6.55h-11.46c-.38,0-.73-.15-1.03-.43-.11-.1-.22-.22-.31-.35-.12-.17-.23-.35-.32-.56-.05-.11-.09-.23-.13-.35-.06-.18-.1-.36-.13-.56-.02-.11-.03-.23-.04-.35,0-.1-.01-.2-.01-.31v-.77c0-.13,0-.26,.02-.39,.01-.12,.03-.23,.05-.35,.03-.19,.08-.38,.14-.56,.04-.12,.09-.24,.14-.35,.1-.21,.21-.4,.34-.56,.11-.13,.22-.25,.35-.35,.28-.22,.59-.34,.93-.34h11.46Z"></path>
        <path class="uuid-7b75be0c-7d4e-485b-a033-fbb327bcff59" d="M79.8,71.17v.35h-12.73c.11-.13,.22-.25,.35-.35h12.38Z"></path>
        <path class="uuid-7b75be0c-7d4e-485b-a033-fbb327bcff59" d="M79.8,72.07v.35h-13.22c.04-.12,.09-.24,.14-.35h13.08Z"></path>
        <path class="uuid-7b75be0c-7d4e-485b-a033-fbb327bcff59" d="M79.8,72.98v.35h-13.41c.01-.12,.03-.23,.05-.35h13.36Z"></path>
        <rect class="uuid-7b75be0c-7d4e-485b-a033-fbb327bcff59" x="66.37" y="73.89" width="13.43" height=".35"></rect>
        <path class="uuid-7b75be0c-7d4e-485b-a033-fbb327bcff59" d="M79.8,74.79v.35h-13.38c-.02-.11-.03-.23-.04-.35h13.41Z"></path>
        <path class="uuid-7b75be0c-7d4e-485b-a033-fbb327bcff59" d="M79.8,75.7v.35h-13.11c-.05-.11-.09-.23-.13-.35h13.24Z"></path>
        <path class="uuid-7b75be0c-7d4e-485b-a033-fbb327bcff59" d="M79.8,76.61v.35h-12.48c-.11-.1-.22-.22-.31-.35h12.8Z"></path>
        <path class="uuid-cedc0ae3-ccc7-47e0-80b3-1d8f523b2538" d="M66.37,73.76v.68c0,1.43,.88,2.96,1.97,2.96h11.91c.17,0,.3,.18,.3,.39v.1c0,.22-.13,.39-.3,.39h-12.3c-2.02,0-2.55-2.63-2.55-4.18,0-2.03,.83-4.18,2.55-4.18h12.3c.17,0,.3,.18,.3,.39v.1c0,.22-.13,.39-.3,.39h-11.91c-1.09,0-1.97,1.53-1.97,2.96"></path>
        <path class="uuid-cafddbbe-8102-47a7-b988-d7142590854c" d="M43.62,77.74h-.76c-.46,0-.54-6.91,0-6.91h.76c-.42,.84-.4,5.22,0,6.91"></path>
        <path class="uuid-cafddbbe-8102-47a7-b988-d7142590854c" d="M63.59,77.74h-.76c-.46,0-.54-6.91,0-6.91h.76c-.42,.84-.4,5.22,0,6.91"></path>
        <path class="uuid-cafddbbe-8102-47a7-b988-d7142590854c" d="M59.37,75.87h-11.79c-.46-.54-.42-2.84,0-3.45h11.79v3.45Z"></path>
        <path class="uuid-532f28d1-9396-4a40-8440-d1794420ff3e" d="M67.95,72.42c.57,0,1.53,.35,1.53,.91v3.45l1.11-.67,1.11,.67v-3.45c0-.56-.98-.91-1.53-.91h-2.22Z"></path>
        <rect class="uuid-77c102c8-ae42-42e6-99f5-b7dade23bde6" x="33.41" y="88.62" width="45.37" height="7.26"></rect>
        <g>
          <g class="uuid-e9e8867c-e439-4299-b457-412ea1db86dd">
            <g class="uuid-abe1da6b-75a9-4558-af66-c184230dc2eb">
              <g class="uuid-b3958d19-8450-4881-94d0-8dca109382ee">
                <rect class="uuid-2f635088-1930-403a-a6b0-335788632517" x="33.41" y="88.62" width="45.33" height="1.03"></rect>
              </g>
            </g>
          </g>
          <rect class="uuid-0b49e14a-9259-4d0d-a102-0f91e4954010" x="48.5" y="90.85" width="10.38" height="3.6"></rect>
        </g>
      </g>
    </g>
  </g>
</svg>
