<?xml version="1.0" encoding="UTF-8"?>
<svg xmlns="http://www.w3.org/2000/svg" viewBox="0 0 90 90">
  <defs>
    <style>.a099bf4c-0282-4c33-94ac-df80d786917c{fill:#be1059;}</style>
  </defs>
  <g id="a52ab966-cc5a-47b6-bfd4-b97b5dd3ceac" data-name="art deco">
    <path class="a099bf4c-0282-4c33-94ac-df80d786917c" d="M33.68,63.21H56L44.84,74.36ZM32.7,50,42,59.32H32.7ZM57,50v9.3H47.68ZM13.44,48.47,43.55,78.58A31.47,31.47,0,0,1,13.44,48.47m62.79,0A31.47,31.47,0,0,1,46.12,78.58ZM35.35,47.18l9.49-9.48,9.48,9.48-9.48,9.48ZM60.86,36,72,47.18,60.86,58.34ZM17.66,47.18,28.81,36V58.34Zm15-12.13H42L32.7,44.34Zm15,0H57v9.29ZM44.84,20,56,31.16H33.68Zm-1.29-4.21L13.44,45.9A31.46,31.46,0,0,1,43.55,15.79m2.57,0A31.46,31.46,0,0,1,76.23,45.9ZM9.83,47.18a35,35,0,1,0,35-35,35,35,0,0,0-35,35"></path>
  </g>
</svg>
