<?xml version="1.0" encoding="UTF-8"?>
<svg xmlns="http://www.w3.org/2000/svg" viewBox="0 0 90 90">
  <defs>
    <style>.e9c09a2b-bd6a-4f16-b052-03a54ca746df{fill:#fff;}.bb321351-701a-473d-95da-cefb0b38737c{fill:#ec7405;}</style>
  </defs>
  <g id="e3f802db-9388-421b-ac9a-4e36421f0628" data-name="champagne">
    <path class="e9c09a2b-bd6a-4f16-b052-03a54ca746df" d="M79,46.14A33.34,33.34,0,1,1,45.62,12.8,33.34,33.34,0,0,1,79,46.14"></path>
    <path class="bb321351-701a-473d-95da-cefb0b38737c" d="M45.62,11.14a35,35,0,1,0,35,35,35,35,0,0,0-35-35m0,66.42A31.43,31.43,0,1,1,77,46.14,31.46,31.46,0,0,1,45.62,77.56M60.79,29.81a3.3,3.3,0,0,0-3.28-2.87h-.06c0-2-5.3-3.69-11.83-3.69S33.79,24.9,33.79,26.94h-.07a3.3,3.3,0,0,0-3.28,2.87l-.89,6.66a8.72,8.72,0,0,0,5.89,9.44L32.37,65a.7.7,0,0,0,0,.25.22.22,0,0,0,0,.08,1.27,1.27,0,0,0,.27.74l.15.18a5.23,5.23,0,0,0,1.68,1.07,3,3,0,0,0,.36.14,10.88,10.88,0,0,0,1.22.41l.45.13.47.12.49.11c.42.09.86.18,1.32.25l1.13.17.59.08a46.3,46.3,0,0,0,5.18.29,46.58,46.58,0,0,0,5.18-.29l.29,0c.69-.08,1.35-.19,2-.3l1-.21.48-.12L55,68l.45-.13.41-.13c1.9-.64,3-1.46,3-2.35v-.08a1.84,1.84,0,0,0-.05-.25l-3.08-19.1a8.73,8.73,0,0,0,5.9-9.44Z"></path>
  </g>
</svg>
