<?xml version="1.0" encoding="UTF-8"?>
<svg xmlns="http://www.w3.org/2000/svg" viewBox="0 0 90 90">
  <defs>
    <style>.b82cfd0e-0f57-406b-bf5b-96c60ee31ccd{fill:#fff;}.e3540d07-3f62-4294-a036-b5bcafe136c1{fill:#40a635;}</style>
  </defs>
  <g id="ac574422-9c14-4e79-a89e-759dbb146534" data-name="contemporian">
    <path class="b82cfd0e-0f57-406b-bf5b-96c60ee31ccd" d="M77.86,46A33.34,33.34,0,1,1,44.52,12.68,33.34,33.34,0,0,1,77.86,46"></path>
    <path class="e3540d07-3f62-4294-a036-b5bcafe136c1" d="M15.34,50.52l.55.5c2.86,2.64,5.77,5.33,8.73,8A4.88,4.88,0,0,0,24,61.81a4.65,4.65,0,0,0,.18,1c-1.38.94-2.79,1.86-4.21,2.76a31.17,31.17,0,0,1-6.41-14.36,4.9,4.9,0,0,0,1.81-.69M21,25.21c1.41,1.37,2.82,2.77,4.24,4.18a4.81,4.81,0,0,0-.5,2.5A4.75,4.75,0,0,0,25.39,34c-3.1,3-6.33,5.8-9.73,8.52a4.87,4.87,0,0,0-2.25-1A31.38,31.38,0,0,1,21,25.21m4.36,39.68a4.86,4.86,0,0,0,6.38.51c2.63,2.31,5.31,4.61,8,6.87a4.85,4.85,0,0,0-.61,2.7,5,5,0,0,0,.27,1.28l-1,.6a31.48,31.48,0,0,1-16.95-9.44c1.3-.83,2.59-1.66,3.84-2.52m-6.49-22c2.81-2.33,5.51-4.75,8.12-7.23a4.86,4.86,0,0,0,2.94.75,4.8,4.8,0,0,0,1.85-.5q4.45,4.47,9.08,9a4.71,4.71,0,0,0-.57,2.61,4.8,4.8,0,0,0,.6,2c-3,2.68-6.11,5.3-9.37,7.82a4.87,4.87,0,0,0-5.24-.09c-3-2.7-5.9-5.4-8.79-8L17,48.79a4.84,4.84,0,0,0,.14-4.48c.59-.47,1.18-.92,1.76-1.4m21-24.28c-2.52,2.95-5.13,5.87-7.84,8.72a4.83,4.83,0,0,0-5.25.24q-2.07-2.07-4.15-4.09a31.3,31.3,0,0,1,16.28-8.4,4.59,4.59,0,0,0,0,.91,4.85,4.85,0,0,0,1,2.62m2.65,32.72a4.89,4.89,0,0,0,2.95.76,4.8,4.8,0,0,0,2.13-.66c2.89,2.72,5.85,5.43,8.9,8.09a4.75,4.75,0,0,0-.61,2.7,5,5,0,0,0,.39,1.59q-4.42,3.67-9.11,7.09a4.87,4.87,0,0,0-3.48-1.15,4.92,4.92,0,0,0-2.31.77q-4.14-3.45-8.15-7a4.78,4.78,0,0,0,.46-2.41,4.85,4.85,0,0,0-.56-1.94c3.27-2.54,6.39-5.17,9.39-7.86M41.7,20.1a4.87,4.87,0,0,0,2.38.44,4.76,4.76,0,0,0,2.34-.78c3,3.21,6,6.47,9.13,9.73a4.85,4.85,0,0,0-.74,2.91,4.79,4.79,0,0,0,.85,2.42c-2.55,2.81-5.18,5.58-7.92,8.3a4.85,4.85,0,0,0-5.29.07c-3-2.95-6-5.9-8.87-8.81a4.82,4.82,0,0,0,.89-3.14A5,5,0,0,0,33.72,29c2.76-2.9,5.41-5.86,8-8.85m16,45.63a4.93,4.93,0,0,0,3.35,1,4.83,4.83,0,0,0,2.75-1.09c1,.8,2,1.6,3,2.39a31.31,31.31,0,0,1-17.32,9l-.95-.72a4.79,4.79,0,0,0,.29-2,4.58,4.58,0,0,0-.32-1.44q4.73-3.45,9.17-7.14m8.06-42.8c-1.3,1.6-2.61,3.2-3.95,4.79a4.79,4.79,0,0,0-2.5-.51,4.91,4.91,0,0,0-2.09.63C54.11,24.55,51.05,21.25,48,18a4.89,4.89,0,0,0,.58-2.66,3.86,3.86,0,0,0-.06-.49A31.43,31.43,0,0,1,65.8,22.93M57.44,36.4a4.83,4.83,0,0,0,2.56.54,4.89,4.89,0,0,0,2.15-.67q4.42,4.45,9.13,8.83a4.87,4.87,0,0,0-.68,2.83,4.77,4.77,0,0,0,.71,2.22q-3.9,3.89-8,7.6A4.83,4.83,0,0,0,60.44,57a5,5,0,0,0-2.3.76c-3-2.63-6-5.31-8.83-8A4.86,4.86,0,0,0,50,46.92a4.81,4.81,0,0,0-.62-2.07q4.17-4.16,8-8.45M73,51.82a4.83,4.83,0,0,0,2.26.65,31.35,31.35,0,0,1-6.79,13.84c-1.08-.83-2.16-1.68-3.22-2.53a4.91,4.91,0,0,0,.37-2.2A4.8,4.8,0,0,0,65,59.46q4.13-3.75,8-7.64M67.49,24.61a31.19,31.19,0,0,1,8.27,18.13,4.28,4.28,0,0,0-.62,0,4.82,4.82,0,0,0-2.17.68c-3.15-2.91-6.18-5.85-9.13-8.82a4.88,4.88,0,0,0,.7-2.86,4.78,4.78,0,0,0-.88-2.47c1.3-1.55,2.57-3.11,3.83-4.66M42.17,11.1A35,35,0,1,0,79.44,43.67,35,35,0,0,0,42.17,11.1"></path>
  </g>
</svg>
