<?xml version="1.0" encoding="UTF-8"?>
<svg xmlns="http://www.w3.org/2000/svg" viewBox="0 0 90 90">
  <defs>
    <style>.f697a5a2-da3e-40fe-9dcf-4539c6c51cda{fill:#fff;}.bb2979d2-e982-44d4-992c-893ab823a90d{fill:#4b413c;}</style>
  </defs>
  <g id="ea1c08a7-c965-4482-8174-f2275ccba6e9" data-name="Calque 6">
    <path class="f697a5a2-da3e-40fe-9dcf-4539c6c51cda" d="M78.62,46.07A33.34,33.34,0,1,1,45.28,12.73,33.33,33.33,0,0,1,78.62,46.07"></path>
    <path class="bb2979d2-e982-44d4-992c-893ab823a90d" d="M45.28,11.06a35,35,0,1,0,35,35,35,35,0,0,0-35-35m0,66.43A31.43,31.43,0,1,1,76.71,46.07,31.46,31.46,0,0,1,45.28,77.49"></path>
    <path class="bb2979d2-e982-44d4-992c-893ab823a90d" d="M65.61,34.11H47.76V52q0,14,17.85,15.83V59.89c-5.77-.2-8.76-2.83-9-7.92h9ZM26.52,43h9q-.33,7.63-9,7.92v7.92Q44.37,57,44.37,43V25.14H26.52Z"></path>
  </g>
</svg>
