<?xml version="1.0" encoding="UTF-8"?>
<svg xmlns="http://www.w3.org/2000/svg" id="recherche_thematique" data-name="recherche thematique" viewBox="0 0 100 100">
  <defs>
    <style>
      .cls-1 {
        fill: #fff;
      }

      .cls-2 {
        fill: #c1a974;
      }

      .cls-3 {
        fill: #3f3d56;
      }

      .cls-4 {
        fill: #987018;
      }

      .cls-5 {
        fill: #ccc;
      }
    </style>
  </defs>
  <g>
    <path class="cls-5" d="M66.47,24.96c0-.53,.43-.96,.96-.96s.96,.43,.96,.96h1.91c0-.53,.43-.96,.96-.96s.96,.43,.96,.96v12.45h1.91v-15.32h-6.7c-.53,0-.96-.43-.96-.96h-1.91v3.83h1.91Z"></path>
    <path class="cls-5" d="M64.55,78.26h9.57v-7.98c-.56,.42-1.21,.72-1.91,.86v4.25c0,.53-.43,.96-.96,.96s-.96-.43-.96-.96h-1.91c0,.53-.43,.96-.96,.96s-.96-.43-.96-.96h-1.91v2.87Z"></path>
    <path class="cls-5" d="M72.21,55.38c.71,.14,1.36,.44,1.91,.86v-2.88h-1.91v2.01Z"></path>
    <rect class="cls-4" x="68.38" y="71.24" width="1.91" height="4.15"></rect>
    <path class="cls-4" d="M68.38,55.28h1.91v-2.87c0-.53,.43-.96,.96-.96h3.83c1.58,0,2.87-1.29,2.87-2.87v-6.38c0-1.58-1.29-2.87-2.87-2.87h-3.83c-.53,0-.96-.43-.96-.96v-13.4h-1.91v30.32Z"></path>
    <path class="cls-3" d="M76.04,37.5V21.13c0-.53-.43-.96-.96-.96h-7.66c-.53,0-.96,.43-.96,.96s.43,.96,.96,.96h6.7v15.32h-1.91v-12.45c0-.53-.43-.96-.96-.96s-.96,.43-.96,.96v13.4c0,.53,.43,.96,.96,.96h3.83c1.58,0,2.87,1.29,2.87,2.87v6.38c0,1.58-1.29,2.87-2.87,2.87h-3.83c-.53,0-.96,.43-.96,.96v2.87h-1.91V24.96c0-.53-.43-.96-.96-.96s-.96,.43-.96,.96v31.28c0,.53,.43,.96,.96,.96h3.83c1.58,0,2.87,1.29,2.87,2.87v6.38c0,1.58-1.29,2.87-2.87,2.87h-3.83c-.53,0-.96,.43-.96,.96v5.11c0,.53,.43,.96,.96,.96s.96-.43,.96-.96v-4.15h1.91v4.15c0,.53,.43,.96,.96,.96s.96-.43,.96-.96v-4.25c.71-.14,1.36-.44,1.91-.86v7.98h-9.57V21.13c0-.53-.43-.96-.96-.96H25.93c-.53,0-.96,.43-.96,.96v3.19h-2.23c-1.58,0-2.87,1.29-2.87,2.87s1.29,2.87,2.87,2.87h2.23v9.57h-2.23c-1.58,0-2.87,1.29-2.87,2.87s1.29,2.87,2.87,2.87h2.23v9.57h-2.23c-1.58,0-2.87,1.29-2.87,2.87s1.29,2.87,2.87,2.87h2.23v9.57h-2.23c-1.58,0-2.87,1.29-2.87,2.87s1.29,2.87,2.87,2.87h2.23v3.19c0,.53,.43,.96,.96,.96h49.15c.53,0,.96-.43,.96-.96v-25.95c2.18-.44,3.83-2.38,3.83-4.69v-6.38c0-2.31-1.65-4.25-3.83-4.69Zm-1.91,18.74c-.56-.42-1.21-.72-1.91-.86v-2.01h1.91v2.88Zm-52.34,16.91c0-.53,.43-.96,.96-.96h6.38c.53,0,.96,.43,.96,.96s-.43,.96-.96,.96h-6.38c-.53,0-.96-.43-.96-.96Zm5.11,2.87h2.23c1.58,0,2.87-1.29,2.87-2.87s-1.29-2.87-2.87-2.87h-2.23v-9.57h2.23c1.58,0,2.87-1.29,2.87-2.87s-1.29-2.87-2.87-2.87h-2.23v-9.57h2.23c1.58,0,2.87-1.29,2.87-2.87s-1.29-2.87-2.87-2.87h-2.23v-9.57h2.23c1.58,0,2.87-1.29,2.87-2.87s-1.29-2.87-2.87-2.87h-2.23v-2.23H62.64v56.17H26.89v-2.23Zm-5.11-18.19c0-.53,.43-.96,.96-.96h6.38c.53,0,.96,.43,.96,.96s-.43,.96-.96,.96h-6.38c-.53,0-.96-.43-.96-.96Zm0-15.32c0-.53,.43-.96,.96-.96h6.38c.53,0,.96,.43,.96,.96s-.43,.96-.96,.96h-6.38c-.53,0-.96-.43-.96-.96Zm0-15.32c0-.53,.43-.96,.96-.96h6.38c.53,0,.96,.43,.96,.96s-.43,.96-.96,.96h-6.38c-.53,0-.96-.43-.96-.96Z"></path>
    <path class="cls-2" d="M64.55,75.39h1.91v-5.11c0-.53,.43-.96,.96-.96h3.83c1.58,0,2.87-1.29,2.87-2.87v-6.38c0-1.58-1.29-2.87-2.87-2.87h-3.83c-.53,0-.96-.43-.96-.96V24.96h-1.91v50.43Z"></path>
    <path class="cls-1" d="M62.64,22.09H26.89v2.23h2.23c1.58,0,2.87,1.29,2.87,2.87s-1.29,2.87-2.87,2.87h-2.23v9.57h2.23c1.58,0,2.87,1.29,2.87,2.87s-1.29,2.87-2.87,2.87h-2.23v9.57h2.23c1.58,0,2.87,1.29,2.87,2.87s-1.29,2.87-2.87,2.87h-2.23v9.57h2.23c1.58,0,2.87,1.29,2.87,2.87s-1.29,2.87-2.87,2.87h-2.23v2.23H62.64V22.09Z"></path>
    <path class="cls-5" d="M29.12,74.11c.53,0,.96-.43,.96-.96s-.43-.96-.96-.96h-6.38c-.53,0-.96,.43-.96,.96s.43,.96,.96,.96h6.38Z"></path>
    <path class="cls-5" d="M29.12,58.79c.53,0,.96-.43,.96-.96s-.43-.96-.96-.96h-6.38c-.53,0-.96,.43-.96,.96s.43,.96,.96,.96h6.38Z"></path>
    <path class="cls-5" d="M29.12,43.47c.53,0,.96-.43,.96-.96s-.43-.96-.96-.96h-6.38c-.53,0-.96,.43-.96,.96s.43,.96,.96,.96h6.38Z"></path>
    <path class="cls-5" d="M29.12,28.15c.53,0,.96-.43,.96-.96s-.43-.96-.96-.96h-6.38c-.53,0-.96,.43-.96,.96s.43,.96,.96,.96h6.38Z"></path>
  </g>
  <g>
    <path class="cls-4" d="M40.66,59.05c-.19-.19-.49-.18-.67,0-1.26,1.26-1.26,3.3,0,4.56,.09,.09,.21,.14,.33,.14s.24-.05,.33-.14c.19-.19,.19-.48,0-.67-.89-.89-.89-2.33,0-3.22,.19-.18,.19-.48,0-.67Z"></path>
    <path class="cls-4" d="M54.71,70.35l-5.7-5.7c1.45-2.57,1.09-5.91-1.1-8.1-1.28-1.28-2.97-1.98-4.78-1.98s-3.5,.7-4.78,1.98c-2.63,2.63-2.63,6.92,0,9.55,1.28,1.28,2.97,1.98,4.78,1.98,1.19,0,2.32-.31,3.32-.88l5.7,5.7c.7,.7,1.85,.7,2.55,0,.34-.34,.53-.8,.53-1.28,0-.48-.19-.94-.53-1.28Zm-15.01-5.58c-1.89-1.9-1.89-4.98,0-6.87,.92-.92,2.14-1.42,3.44-1.42s2.52,.51,3.44,1.42c1.89,1.9,1.89,4.98,0,6.87-.92,.92-2.14,1.42-3.44,1.42s-2.52-.51-3.44-1.42Z"></path>
  </g>
  <g>
    <path class="cls-2" d="M54.13,33.61h-17.29c-.62,0-1.13-.51-1.13-1.13s.5-1.13,1.13-1.13h17.29c.62,0,1.13,.51,1.13,1.13s-.51,1.13-1.13,1.13Z"></path>
    <path class="cls-2" d="M54.13,38.97h-17.29c-.62,0-1.13-.51-1.13-1.13s.5-1.13,1.13-1.13h17.29c.62,0,1.13,.51,1.13,1.13s-.51,1.13-1.13,1.13Z"></path>
    <path class="cls-2" d="M45.49,44.33h-8.65c-.62,0-1.13-.51-1.13-1.13s.5-1.13,1.13-1.13h8.65c.62,0,1.13,.51,1.13,1.13s-.5,1.13-1.13,1.13Z"></path>
  </g>
</svg>
