<?xml version="1.0" encoding="UTF-8"?>
<svg xmlns="http://www.w3.org/2000/svg" id="etat_civil" data-name="etat civil" viewBox="0 0 100 100">
  <defs>
    <style>
      .cls-1 {
        fill: #fff;
      }

      .cls-2 {
        fill: #c1a974;
      }

      .cls-3 {
        fill: #3f3d56;
      }

      .cls-4 {
        fill: #ccc;
      }

      .cls-5 {
        fill: #f2ebd9;
      }
    </style>
  </defs>
  <path class="cls-2" d="M47.21,78.02h10.97v-5.03c0-.61,.49-1.1,1.1-1.1v-2.19h-12.07v8.32Z"></path>
  <path class="cls-1" d="M24.91,22.41V57.97h55.58V22.41h-23.59c-1.32,0-2.55,.66-3.29,1.77-.2,.31-.55,.49-.91,.49s-.71-.18-.91-.49c-.73-1.11-1.96-1.77-3.29-1.77H24.91Zm13.25,31.9h-8.41c-.61,0-1.1-.49-1.1-1.1s.49-1.1,1.1-1.1h8.41c.61,0,1.1,.49,1.1,1.1s-.49,1.1-1.1,1.1Zm8.41-5.21H29.75c-.61,0-1.1-.49-1.1-1.1s.49-1.1,1.1-1.1h16.81c.61,0,1.1,.49,1.1,1.1s-.49,1.1-1.1,1.1Zm0-5.21H29.75c-.61,0-1.1-.49-1.1-1.1s.49-1.1,1.1-1.1h16.81c.61,0,1.1,.49,1.1,1.1s-.49,1.1-1.1,1.1Zm-17.91-6.31c0-.61,.49-1.1,1.1-1.1h8.41c.61,0,1.1,.49,1.1,1.1s-.49,1.1-1.1,1.1h-8.41c-.61,0-1.1-.49-1.1-1.1Zm17.91-4.11H29.75c-.61,0-1.1-.49-1.1-1.1s.49-1.1,1.1-1.1h16.81c.61,0,1.1,.49,1.1,1.1s-.49,1.1-1.1,1.1Zm0-5.21H29.75c-.61,0-1.1-.49-1.1-1.1s.49-1.1,1.1-1.1h16.81c.61,0,1.1,.49,1.1,1.1s-.49,1.1-1.1,1.1Zm12.26-2.19h16.81c.61,0,1.1,.49,1.1,1.1s-.49,1.1-1.1,1.1h-16.81c-.61,0-1.1-.49-1.1-1.1s.49-1.1,1.1-1.1Zm0,5.21h16.81c.61,0,1.1,.49,1.1,1.1s-.49,1.1-1.1,1.1h-16.81c-.61,0-1.1-.49-1.1-1.1s.49-1.1,1.1-1.1Zm0,5.21h8.41c.61,0,1.1,.49,1.1,1.1s-.49,1.1-1.1,1.1h-8.41c-.61,0-1.1-.49-1.1-1.1s.49-1.1,1.1-1.1Zm0,5.21h16.81c.61,0,1.1,.49,1.1,1.1s-.49,1.1-1.1,1.1h-16.81c-.61,0-1.1-.49-1.1-1.1s.49-1.1,1.1-1.1Zm0,5.21h16.81c.61,0,1.1,.49,1.1,1.1s-.49,1.1-1.1,1.1h-16.81c-.61,0-1.1-.49-1.1-1.1s.49-1.1,1.1-1.1Zm0,5.21h8.41c.61,0,1.1,.49,1.1,1.1s-.49,1.1-1.1,1.1h-8.41c-.61,0-1.1-.49-1.1-1.1s.49-1.1,1.1-1.1Zm-7.23-24.16c0-.61,.49-1.1,1.1-1.1s1.1,.49,1.1,1.1v26.72c0,.61-.49,1.1-1.1,1.1s-1.1-.49-1.1-1.1V27.96Z"></path>
  <rect class="cls-5" x="20.61" y="26.8" width="2.1" height="31.17"></rect>
  <rect class="cls-5" x="82.68" y="26.8" width="2.1" height="31.17"></rect>
  <path class="cls-4" d="M84.78,60.16H20.61v4.05c0,1.81,1.48,3.29,3.29,3.29h57.59c1.81,0,3.29-1.48,3.29-3.29v-4.05Z"></path>
  <path class="cls-3" d="M85.88,24.6h-3.2v-3.29c0-.61-.49-1.1-1.1-1.1h-24.68c-1.58,0-3.08,.6-4.2,1.66-1.13-1.06-2.62-1.66-4.2-1.66H23.81c-.61,0-1.1,.49-1.1,1.1v3.29h-3.2c-.61,0-1.1,.49-1.1,1.1v38.51c0,3.02,2.46,5.48,5.48,5.48h21.11v8.32h-4.75c-.61,0-1.1,.49-1.1,1.1s.49,1.1,1.1,1.1h24.86c.61,0,1.1-.49,1.1-1.1s-.49-1.1-1.1-1.1h-4.75v-5.03c0-.61-.49-1.1-1.1-1.1s-1.1,.49-1.1,1.1v5.03h-10.97v-8.32h34.28c3.02,0,5.48-2.46,5.48-5.48V25.7c0-.61-.49-1.1-1.1-1.1Zm-4.39,42.9H23.9c-1.81,0-3.29-1.48-3.29-3.29v-4.05H84.78v4.05c0,1.81-1.48,3.29-3.29,3.29ZM51.78,24.18c.2,.31,.55,.49,.91,.49s.71-.18,.91-.49c.73-1.11,1.96-1.77,3.29-1.77h23.59V57.97H24.91V22.41h23.59c1.32,0,2.55,.66,3.29,1.77Zm33,33.79h-2.1V26.8h2.1v31.17Zm-62.07,0h-2.1V26.8h2.1s0,31.17,0,31.17Z"></path>
  <path class="cls-3" d="M52.7,55.78c.61,0,1.1-.49,1.1-1.1V27.96c0-.61-.49-1.1-1.1-1.1s-1.1,.49-1.1,1.1v26.72c0,.61,.49,1.1,1.1,1.1Z"></path>
  <path class="cls-2" d="M46.57,26.07H29.75c-.61,0-1.1,.49-1.1,1.1s.49,1.1,1.1,1.1h16.81c.61,0,1.1-.49,1.1-1.1s-.49-1.1-1.1-1.1Z"></path>
  <path class="cls-2" d="M46.57,31.28H29.75c-.61,0-1.1,.49-1.1,1.1s.49,1.1,1.1,1.1h16.81c.61,0,1.1-.49,1.1-1.1s-.49-1.1-1.1-1.1Z"></path>
  <path class="cls-2" d="M29.75,38.68h8.41c.61,0,1.1-.49,1.1-1.1s-.49-1.1-1.1-1.1h-8.41c-.61,0-1.1,.49-1.1,1.1s.49,1.1,1.1,1.1Z"></path>
  <path class="cls-2" d="M46.57,41.7H29.75c-.61,0-1.1,.49-1.1,1.1s.49,1.1,1.1,1.1h16.81c.61,0,1.1-.49,1.1-1.1s-.49-1.1-1.1-1.1Z"></path>
  <path class="cls-2" d="M46.57,46.91H29.75c-.61,0-1.1,.49-1.1,1.1s.49,1.1,1.1,1.1h16.81c.61,0,1.1-.49,1.1-1.1s-.49-1.1-1.1-1.1Z"></path>
  <path class="cls-2" d="M38.16,52.12h-8.41c-.61,0-1.1,.49-1.1,1.1s.49,1.1,1.1,1.1h8.41c.61,0,1.1-.49,1.1-1.1s-.49-1.1-1.1-1.1Z"></path>
  <path class="cls-2" d="M58.82,28.26h16.81c.61,0,1.1-.49,1.1-1.1s-.49-1.1-1.1-1.1h-16.81c-.61,0-1.1,.49-1.1,1.1s.49,1.1,1.1,1.1Z"></path>
  <path class="cls-2" d="M58.82,33.47h16.81c.61,0,1.1-.49,1.1-1.1s-.49-1.1-1.1-1.1h-16.81c-.61,0-1.1,.49-1.1,1.1s.49,1.1,1.1,1.1Z"></path>
  <path class="cls-2" d="M58.82,38.68h8.41c.61,0,1.1-.49,1.1-1.1s-.49-1.1-1.1-1.1h-8.41c-.61,0-1.1,.49-1.1,1.1s.49,1.1,1.1,1.1Z"></path>
  <path class="cls-2" d="M58.82,43.89h16.81c.61,0,1.1-.49,1.1-1.1s-.49-1.1-1.1-1.1h-16.81c-.61,0-1.1,.49-1.1,1.1s.49,1.1,1.1,1.1Z"></path>
  <path class="cls-2" d="M58.82,49.1h16.81c.61,0,1.1-.49,1.1-1.1s-.49-1.1-1.1-1.1h-16.81c-.61,0-1.1,.49-1.1,1.1s.49,1.1,1.1,1.1Z"></path>
  <path class="cls-2" d="M58.82,54.31h8.41c.61,0,1.1-.49,1.1-1.1s-.49-1.1-1.1-1.1h-8.41c-.61,0-1.1,.49-1.1,1.1s.49,1.1,1.1,1.1Z"></path>
</svg>
