<?xml version="1.0" encoding="UTF-8"?>
<svg xmlns="http://www.w3.org/2000/svg" id="animations" viewBox="0 0 100 100">
  <defs>
    <style>
      .cls-1 {
        fill: #fff;
      }

      .cls-2 {
        fill: #c1a974;
      }

      .cls-3 {
        fill: #3f3d56;
      }

      .cls-4 {
        fill: #987018;
      }

      .cls-5 {
        fill: #ccc;
      }
    </style>
  </defs>
  <rect class="cls-4" x="62.18" y="31.69" width="1.91" height="12.13" transform="translate(-8.2 55.7) rotate(-45)"></rect>
  <rect class="cls-4" x="34.33" y="59.54" width="1.91" height="12.13" transform="translate(-36.05 44.16) rotate(-45)"></rect>
  <rect class="cls-1" x="34.19" y="36.79" width="12.13" height="1.91" transform="translate(-14.9 39.52) rotate(-45)"></rect>
  <rect class="cls-1" x="62.04" y="64.64" width="12.13" height="1.91" transform="translate(-26.44 67.37) rotate(-45)"></rect>
  <path class="cls-2" d="M49.66,37.23c-.19,.19-.43,.28-.68,.28s-.49-.09-.68-.28l-1.74-1.74-8.58,8.58,1.74,1.74c.37,.37,.37,.98,0,1.35l1.35,1.35,9.93-9.93-1.35-1.35Z"></path>
  <path class="cls-2" d="M55.08,61.15l6.71,6.71,8.58-8.58-6.71-6.71c-.37-.37-.37-.98,0-1.35l-1.35-1.35-9.93,9.93,1.35,1.35c.37-.37,.98-.37,1.35,0Z"></path>
  <rect class="cls-1" x="32.39" y="45.61" width="33.64" height="12.13" transform="translate(-22.13 49.93) rotate(-45)"></rect>
  <rect class="cls-5" x="27.27" y="64.05" width="7.01" height="12.13" transform="translate(-40.56 42.29) rotate(-45)"></rect>
  <path class="cls-5" d="M78.73,21.3l-10.36,4.99,.4,.4c.37,.37,.37,.98,0,1.35-.37,.37-.98,.37-1.35,0l-1.58-1.58-4.96,4.96,8.58,8.58,4.96-4.96-4.29-4.29c-.37-.37-.37-.98,0-1.35,.37-.37,.98-.37,1.35,0l3.11,3.11,4.99-10.36-.84-.84Z"></path>
  <path class="cls-4" d="M42.51,31.43l-4.96-4.96-2.93,2.93c-.37,.37-.98,.37-1.35,0-.37-.37-.37-.98,0-1.35l1.75-1.75-10.36-4.99-.84,.84,4.99,10.36,1.75-1.75c.37-.37,.98-.37,1.35,0,.37,.37,.37,.98,0,1.35l-2.93,2.93,4.96,4.96,8.58-8.58Z"></path>
  <rect class="cls-4" x="66.55" y="66.6" width="12.13" height="7.01" transform="translate(-28.31 71.88) rotate(-45)"></rect>
  <path class="cls-3" d="M39.73,45.8l-1.74-1.74,8.58-8.58,1.74,1.74c.19,.19,.43,.28,.68,.28s.49-.09,.68-.28c.37-.37,.37-.98,0-1.35l-11.44-11.44c-.37-.37-.98-.37-1.35,0l-.42,.42-11.57-5.57c-.37-.18-.8-.1-1.09,.19l-1.81,1.81c-.29,.29-.36,.73-.19,1.09l5.57,11.57-.42,.42c-.37,.37-.37,.98,0,1.35l11.44,11.44c.19,.19,.43,.28,.68,.28s.49-.09,.68-.28c.37-.37,.37-.98,0-1.35Zm-7.83-13.7c.37-.37,.37-.98,0-1.35-.37-.37-.98-.37-1.35,0l-1.75,1.75-4.99-10.36,.84-.84,10.36,4.99-1.75,1.75c-.37,.37-.37,.98,0,1.35,.37,.37,.98,.37,1.35,0l2.93-2.93,4.96,4.96-8.58,8.58-4.96-4.96,2.93-2.93Zm11.96,.68l1.35,1.35-8.58,8.58-1.35-1.35,8.58-8.58Z"></path>
  <path class="cls-3" d="M81.41,67.63l-6.31-6.31s-10.09-10.09-10.09-10.09c-.37-.37-.98-.37-1.35,0-.37,.37-.37,.98,0,1.35l6.71,6.71-8.58,8.58-6.71-6.71c-.37-.37-.98-.37-1.35,0-.37,.37-.37,.98,0,1.35l10.09,10.09s6.31,6.31,6.31,6.31c.19,.19,.43,.28,.68,.28s.49-.09,.68-.28l9.93-9.93c.37-.37,.37-.98,0-1.35Zm-8.35-5.64l-8.58,8.58-1.35-1.35,8.58-8.58,1.35,1.35Zm-7.22,9.93l8.58-8.58,4.96,4.96-8.58,8.58-4.96-4.96Z"></path>
  <path class="cls-3" d="M76.45,35.72c.37-.37,.37-.98,0-1.35l-.42-.42,5.57-11.57c.18-.37,.1-.8-.19-1.09l-1.81-1.81c-.29-.29-.73-.36-1.09-.19l-11.57,5.57-.42-.42c-.18-.18-.42-.28-.68-.28s-.5,.1-.68,.28l-14.15,14.15-9.93,9.93-10.09,10.09s-2.71,2.71-2.71,2.71c0,0-6.31,6.31-6.31,6.31-.18,.18-.28,.42-.28,.68s.1,.5,.28,.68l9.93,9.93c.19,.19,.43,.28,.68,.28s.49-.09,.68-.28l6.31-6.31s12.8-12.8,12.8-12.8l9.93-9.93,14.15-14.15ZM30.32,61.99l1.35-1.35,8.58,8.58-1.35,1.35-8.58-8.58Zm-1.35,1.35l8.58,8.58-4.96,4.96-8.58-8.58,4.96-4.96Zm4.06-4.06l23.79-23.79,8.58,8.58-23.79,23.79-8.58-8.58Zm35.07-17.92l-1.35,1.35-8.58-8.58,1.35-1.35,8.58,8.58Zm3.39-11.96c-.37-.37-.98-.37-1.35,0-.37,.37-.37,.98,0,1.35l4.29,4.29-4.96,4.96-8.58-8.58,4.96-4.96,1.58,1.58c.37,.37,.98,.37,1.35,0,.37-.37,.37-.98,0-1.35l-.4-.4,10.36-4.99,.84,.84-4.99,10.36-3.11-3.11Z"></path>
</svg>
