<?xml version="1.0" encoding="UTF-8"?>
<svg xmlns="http://www.w3.org/2000/svg" id="recensement" viewBox="0 0 100 100">
  <defs>
    <style>
      .cls-1 {
        fill: #fff;
      }

      .cls-2 {
        fill: #c1a974;
      }

      .cls-3 {
        fill: #3f3d56;
      }

      .cls-4 {
        fill: #987018;
      }

      .cls-5 {
        fill: #ccc;
      }
    </style>
  </defs>
  <g>
    <rect class="cls-1" x="36.57" y="38.31" width="3.46" height="3.46"></rect>
    <rect class="cls-1" x="36.57" y="57.68" width="3.46" height="3.46"></rect>
    <rect class="cls-1" x="36.57" y="67.36" width="3.46" height="3.46"></rect>
    <path class="cls-1" d="M60.77,69.09c0-.57,.46-1.04,1.04-1.04h12.1V20.34H28.27v60.85H60.77v-12.1Zm5.88-8.64h-21.44c-.57,0-1.04-.46-1.04-1.04s.46-1.04,1.04-1.04h21.44c.57,0,1.04,.46,1.04,1.04s-.46,1.04-1.04,1.04Zm-24.55,11.41c0,.57-.46,1.04-1.04,1.04h-5.53c-.57,0-1.04-.46-1.04-1.04v-5.53c0-.57,.46-1.04,1.04-1.04h5.53c.57,0,1.04,.46,1.04,1.04v5.53Zm0-9.68c0,.57-.46,1.04-1.04,1.04h-5.53c-.57,0-1.04-.46-1.04-1.04v-5.53c0-.57,.46-1.04,1.04-1.04h5.53c.57,0,1.04,.46,1.04,1.04v5.53Zm15.56,7.95h-12.45c-.57,0-1.04-.46-1.04-1.04s.46-1.04,1.04-1.04h12.45c.57,0,1.04,.46,1.04,1.04s-.46,1.04-1.04,1.04Z"></path>
    <polygon class="cls-5" points="62.84 70.12 62.84 79.72 72.44 70.12 62.84 70.12"></polygon>
    <path class="cls-3" d="M75.76,69.72s.03-.04,.05-.06c0,0,0-.01,.01-.02,.01-.02,.03-.05,.04-.07,0,0,0,0,0-.01,.01-.03,.03-.05,.04-.08,0,0,0,0,0,0,.01-.03,.02-.06,.03-.09,0,0,0,0,0-.01,0-.03,.02-.06,.02-.09,0,0,0-.02,0-.03,0-.03,0-.05,.01-.08,0-.03,0-.07,0-.1V19.3c0-.57-.46-1.04-1.04-1.04H27.23c-.57,0-1.04,.46-1.04,1.04v62.93c0,.57,.46,1.04,1.04,1.04H61.81s.07,0,.1,0c.03,0,.05,0,.08-.01,0,0,.02,0,.02,0,.03,0,.06-.01,.09-.02,0,0,0,0,.01,0,.03,0,.06-.02,.08-.03,0,0,0,0,.01,0,.03-.01,.05-.02,.08-.04,0,0,.01,0,.02,0,.02-.01,.04-.03,.07-.04,0,0,.01,0,.02-.01,.02-.01,.04-.03,.06-.04,0,0,.02-.01,.02-.02,.02-.02,.05-.04,.07-.06,0,0,0,0,0,0l13.14-13.14s0,0,0,0c.02-.02,.04-.04,.06-.07,0,0,0-.01,.01-.02ZM28.27,20.34h45.64v47.71h-12.1c-.57,0-1.04,.46-1.04,1.04v12.1H28.27V20.34Zm34.57,49.79h9.6l-9.6,9.6v-9.6Z"></path>
    <g>
      <path class="cls-2" d="M46.76,49.82h19.89c.57,0,1.04-.46,1.04-1.04s-.46-1.04-1.04-1.04h-19.89c-.57,0-1.04,.46-1.04,1.04s.46,1.04,1.04,1.04Z"></path>
      <path class="cls-4" d="M37.56,52.28c.2,.2,.47,.3,.73,.3s.53-.1,.73-.3l5.53-5.53c.41-.41,.41-1.06,0-1.47-.41-.4-1.06-.4-1.47,0l-4.8,4.8-1.34-1.34c-.41-.4-1.06-.4-1.47,0-.41,.41-.41,1.06,0,1.47l2.07,2.07Z"></path>
    </g>
    <path class="cls-2" d="M66.65,58.37h-21.44c-.57,0-1.04,.46-1.04,1.04s.46,1.04,1.04,1.04h21.44c.57,0,1.04-.46,1.04-1.04s-.46-1.04-1.04-1.04Z"></path>
    <path class="cls-3" d="M41.06,55.6h-5.53c-.57,0-1.04,.46-1.04,1.04v5.53c0,.57,.46,1.04,1.04,1.04h5.53c.57,0,1.04-.46,1.04-1.04v-5.53c0-.57-.46-1.04-1.04-1.04Zm-1.04,5.53h-3.46v-3.46h3.46v3.46Z"></path>
    <path class="cls-2" d="M57.66,68.05h-12.45c-.57,0-1.04,.46-1.04,1.04s.46,1.04,1.04,1.04h12.45c.57,0,1.04-.46,1.04-1.04s-.46-1.04-1.04-1.04Z"></path>
    <path class="cls-3" d="M41.06,65.28h-5.53c-.57,0-1.04,.46-1.04,1.04v5.53c0,.57,.46,1.04,1.04,1.04h5.53c.57,0,1.04-.46,1.04-1.04v-5.53c0-.57-.46-1.04-1.04-1.04Zm-1.04,5.53h-3.46v-3.46h3.46v3.46Z"></path>
  </g>
  <path class="cls-2" d="M52.68,30.12s.77,.44,1.38,.44,1.39-.42,1.41-.44h.29c.46,0,.84,.38,.84,.84v3.22c0,.56-.45,1.01-1.01,1.01v3.8c0,.42-.34,.76-.76,.76h-1.52c-.42,0-.76-.34-.76-.76v-3.8c-.56,0-1.01-.45-1.01-1.01v-3.19c0-.48,.39-.86,.86-.86h.29Zm5.58,0s.77,.44,1.38,.44,1.39-.42,1.41-.44h.29c.46,0,.84,.38,.84,.84v3.22c0,.56-.45,1.01-1.01,1.01v3.8c0,.42-.34,.76-.76,.76h-1.52c-.42,0-.76-.34-.76-.76v-3.8c-.56,0-1.01-.45-1.01-1.01v-3.19c0-.48,.39-.86,.86-.86h.29Zm7.72,9.63h-1.52c-.42,0-.76-.34-.76-.76v-3.8c-.56,0-1.01-.45-1.01-1.01v-3.19c0-.48,.39-.86,.86-.86h.29s.76,.44,1.38,.44,1.41-.44,1.41-.44h.29c.46,0,.84,.37,.84,.84v3.22c0,.56-.45,1.01-1.01,1.01v3.8c0,.42-.34,.76-.76,.76Zm-11.91-10.14c1.12,0,2.03-.91,2.03-2.03s-.91-2.03-2.03-2.03-2.03,.91-2.03,2.03,.91,2.03,2.03,2.03Zm5.58,0c1.12,0,2.03-.91,2.03-2.03s-.91-2.03-2.03-2.03-2.03,.91-2.03,2.03,.91,2.03,2.03,2.03Zm7.6-2.03c0,1.12-.91,2.03-2.03,2.03s-2.03-.91-2.03-2.03,.91-2.03,2.03-2.03,2.03,.91,2.03,2.03Z"></path>
  <path class="cls-2" d="M34.81,30.12s.77,.44,1.38,.44,1.39-.42,1.41-.44h.29c.46,0,.84,.38,.84,.84v3.22c0,.56-.45,1.01-1.01,1.01v3.8c0,.42-.34,.76-.76,.76h-1.52c-.42,0-.76-.34-.76-.76v-3.8c-.56,0-1.01-.45-1.01-1.01v-3.19c0-.48,.39-.86,.86-.86h.29Zm5.58,0s.77,.44,1.38,.44,1.39-.42,1.41-.44h.29c.46,0,.84,.38,.84,.84v3.22c0,.56-.45,1.01-1.01,1.01v3.8c0,.42-.34,.76-.76,.76h-1.52c-.42,0-.76-.34-.76-.76v-3.8c-.56,0-1.01-.45-1.01-1.01v-3.19c0-.48,.39-.86,.86-.86h.29Zm7.72,9.63h-1.52c-.42,0-.76-.34-.76-.76v-3.8c-.56,0-1.01-.45-1.01-1.01v-3.19c0-.48,.39-.86,.86-.86h.29s.76,.44,1.38,.44,1.41-.44,1.41-.44h.29c.46,0,.84,.37,.84,.84v3.22c0,.56-.45,1.01-1.01,1.01v3.8c0,.42-.34,.76-.76,.76Zm-11.91-10.14c1.12,0,2.03-.91,2.03-2.03s-.91-2.03-2.03-2.03-2.03,.91-2.03,2.03,.91,2.03,2.03,2.03Zm5.58,0c1.12,0,2.03-.91,2.03-2.03s-.91-2.03-2.03-2.03-2.03,.91-2.03,2.03,.91,2.03,2.03,2.03Zm7.6-2.03c0,1.12-.91,2.03-2.03,2.03s-2.03-.91-2.03-2.03,.91-2.03,2.03-2.03,2.03,.91,2.03,2.03Z"></path>
</svg>
