<?xml version="1.0" encoding="UTF-8"?>
<svg xmlns="http://www.w3.org/2000/svg" id="actualites" viewBox="0 0 100 100">
  <defs>
    <style>
      .cls-1, .cls-2 {
        fill: #c1a974;
      }

      .cls-3 {
        fill: #987018;
      }

      .cls-3, .cls-4, .cls-2, .cls-5, .cls-6 {
        stroke: #3f3d56;
        stroke-miterlimit: 10;
        stroke-width: 2px;
      }

      .cls-4 {
        fill: #fff;
      }

      .cls-7 {
        opacity: .1;
      }

      .cls-5 {
        fill: #ccc;
      }
    </style>
  </defs>
  <g>
    <path class="cls-5" d="M77.29,36.93h-24.67v-6.19c0-2.03,1.64-3.67,3.67-3.67h17.34c2.03,0,3.67,1.64,3.67,3.67v6.19h0Z"></path>
    <path class="cls-2" d="M84.79,37.12c0-1.94-1.57-3.5-3.5-3.5H48.5v-6.35c0-1.94-1.57-3.5-3.5-3.5H27.33c-1.94,0-3.5,1.57-3.5,3.5v43.3c0,1.94,1.57,3.5,3.5,3.5h53.95c1.94,0,3.5-1.57,3.5-3.5V37.12h0Z"></path>
    <path class="cls-3" d="M71.64,41.61h-24.67v-6.19c0-2.03,1.64-3.67,3.67-3.67h17.34c2.03,0,3.67,1.64,3.67,3.67v6.19h0Z"></path>
    <g class="cls-7">
      <path class="cls-6" d="M80.65,41.28c0-2.49-2.02-4.5-4.5-4.5h-31.78v-5.36c0-2.49-2.02-4.5-4.5-4.5H23.2c-1.94,0-3.5,1.57-3.5,3.5v43.3c0,1.94,1.57,3.5,3.5,3.5h53.95c1.94,0,3.5-1.57,3.5-3.5V41.28h0Z"></path>
    </g>
    <path class="cls-4" d="M79.13,41.81c0-1.94-1.57-3.5-3.5-3.5H42.84v-6.35c0-1.94-1.57-3.5-3.5-3.5H21.68c-1.94,0-3.5,1.57-3.5,3.5v43.3c0,1.94,1.57,3.5,3.5,3.5h53.95c1.94,0,3.5-1.57,3.5-3.5V41.81h0Z"></path>
    <rect class="cls-5" x="23.83" y="60.43" width="17.9" height="8.94"></rect>
  </g>
  <g>
    <path class="cls-1" d="M67.65,51.53h-15.85c-.57,0-1.03-.46-1.03-1.03s.46-1.03,1.03-1.03h15.85c.57,0,1.03,.46,1.03,1.03s-.46,1.03-1.03,1.03Z"></path>
    <path class="cls-1" d="M67.65,56.44h-15.85c-.57,0-1.03-.46-1.03-1.03s.46-1.03,1.03-1.03h15.85c.57,0,1.03,.46,1.03,1.03s-.46,1.03-1.03,1.03Z"></path>
    <path class="cls-1" d="M59.73,61.35h-7.93c-.57,0-1.03-.46-1.03-1.03s.46-1.03,1.03-1.03h7.93c.57,0,1.03,.46,1.03,1.03s-.46,1.03-1.03,1.03Z"></path>
  </g>
</svg>
