<?xml version="1.0" encoding="UTF-8"?>
<svg xmlns="http://www.w3.org/2000/svg" id="nom_des_rues" data-name="nom des rues" viewBox="0 0 100 100">
  <defs>
    <style>
      .cls-1 {
        fill: #fff;
      }

      .cls-2 {
        fill: #3f3d56;
      }

      .cls-3 {
        fill: #987018;
      }

      .cls-4 {
        fill: #ccc;
      }
    </style>
  </defs>
  <polygon class="cls-1" points="41.69 76.71 21.51 73.14 21.51 24.22 41.69 27.79 41.69 76.71"></polygon>
  <polygon class="cls-1" points="82.06 76.71 61.87 73.14 61.87 24.22 82.06 27.79 82.06 76.71"></polygon>
  <g>
    <path class="cls-3" d="M78.04,36.26c0,3.32-6.02,11.18-6.02,11.18,0,0-6.02-7.86-6.02-11.18s2.69-6.02,6.02-6.02c3.32,0,6.02,2.69,6.02,6.02Z"></path>
    <circle class="cls-3" cx="72.02" cy="36.26" r="2.25"></circle>
  </g>
  <polygon class="cls-4" points="41.69 76.71 61.87 73.14 61.87 24.22 41.69 27.79 41.69 76.71"></polygon>
  <g>
    <path class="cls-2" d="M82.28,26.55l-20.18-3.57c-.14-.02-.29-.03-.44,0l-19.96,3.53-19.96-3.53c-.37-.06-.74,.04-1.03,.27s-.45,.59-.45,.96v48.92c0,.61,.44,1.13,1.04,1.24l20.18,3.57c.14,.03,.3,.02,.44,0l19.96-3.53,19.96,3.53c.07,.01,.15,.02,.22,.02,.29,0,.58-.1,.81-.29,.28-.24,.45-.59,.45-.96V27.79c0-.61-.44-1.13-1.04-1.24Zm-1.47,33.06l-6.7-6.7,6.7-6.7v13.41Zm-20.18-1.93l-8.8-17.02,8.8-5.04v22.06Zm0-24.96l-17.67,10.11v-14l17.67-3.13v7.02Zm-20.18,33.02v9.45l-12.12-2.14,9.76-9.76,2.35,2.45Zm0-36.91v15.61l-5.93,5.93-8.78-8.78,5.32-5.32,5.58,5.58c.25,.25,.57,.37,.89,.37s.64-.12,.89-.37c.49-.49,.49-1.29,0-1.78l-5.58-5.58,1.88-1.88c.49-.49,.49-1.29,0-1.78-.49-.49-1.29-.49-1.78,0l-10.17,10.17v-15.31l17.67,3.13Zm-17.67,15.73s0,0,0,0l1.18-1.18,8.78,8.78-3.57,3.57c-.49,.49-.49,1.29,0,1.78,.25,.25,.57,.37,.89,.37s.64-.12,.89-.37l9.5-9.5v14.12l-4.14-4.31c-.48-.5-1.28-.52-1.78-.04-.5,.48-.52,1.28-.04,1.78l1.86,1.93-11.01,11.01s-.02,.02-.03,.03l-2.54-.45v-27.51Zm20.18,21.26l7.07-4.06c.6-.35,.81-1.11,.46-1.72-.35-.6-1.11-.81-1.71-.46l-5.82,3.34v-17.2l6.69-3.83,10.98,21.25v8.92l-17.67,3.13v-9.37Zm25.28,7.14l8.82-8.82c.49-.49,.49-1.29,0-1.78-.49-.49-1.29-.49-1.78,0l-9.92,9.92s-.08,.09-.12,.14l-2.09-.37V25.72l17.67,3.13v13.81l-11.32,11.32c-.49,.49-.49,1.29,0,1.78,.25,.25,.57,.37,.89,.37s.64-.12,.89-.37l1.06-1.06,8.48,8.48v12.04l-12.58-2.22Z"></path>
    <path class="cls-3" d="M72.02,48.7c.39,0,.76-.18,1-.49,.64-.84,6.28-8.3,6.28-11.95,0-4.01-3.26-7.27-7.27-7.27s-7.27,3.26-7.27,7.27c0,3.64,5.63,11.11,6.28,11.95,.24,.31,.61,.49,1,.49Zm0-17.2c2.63,0,4.76,2.14,4.76,4.76,0,1.81-2.61,6.06-4.76,9.07-2.15-3-4.76-7.25-4.76-9.07,0-2.63,2.14-4.76,4.76-4.76Z"></path>
    <path class="cls-1" d="M75.53,36.26c0-1.93-1.57-3.51-3.51-3.51s-3.51,1.57-3.51,3.51,1.57,3.51,3.51,3.51,3.51-1.57,3.51-3.51Zm-4.5,0c0-.55,.45-1,1-1s1,.45,1,1-.45,1-1,1c-.55,0-1-.45-1-1Z"></path>
    <path class="cls-3" d="M26.03,61.9c.32,0,.64-.12,.89-.37l1.26-1.26c.49-.49,.49-1.29,0-1.78-.49-.49-1.29-.49-1.78,0l-1.26,1.26c-.49,.49-.49,1.29,0,1.78,.25,.25,.57,.37,.89,.37Z"></path>
    <path class="cls-3" d="M53.67,56.79l-1.76,1.01c-.6,.35-.81,1.11-.46,1.72,.23,.4,.66,.63,1.09,.63,.21,0,.43-.05,.62-.17l1.76-1.01c.6-.35,.81-1.11,.46-1.72-.35-.6-1.11-.81-1.72-.46Z"></path>
    <path class="cls-3" d="M66.72,56.74l-1.13,1.13c-.49,.49-.49,1.29,0,1.78,.25,.25,.57,.37,.89,.37s.64-.12,.89-.37l1.13-1.13c.49-.49,.49-1.29,0-1.78-.49-.49-1.29-.49-1.78,0Z"></path>
  </g>
</svg>
