<?xml version="1.0" encoding="UTF-8"?>
<svg xmlns="http://www.w3.org/2000/svg" xmlns:xlink="http://www.w3.org/1999/xlink" id="Calque_6" data-name="Calque 6" viewBox="0 0 120 120">
  <defs>
    <style>
      .cls-1 {
        fill: none;
      }

      .cls-1, .cls-2 {
        stroke: #fff;
        stroke-linecap: round;
        stroke-linejoin: round;
        stroke-width: 2px;
      }

      .cls-2 {
        fill: url(#Dégradé_sans_nom_7);
      }

      .cls-3 {
        fill: #d50f33;
        stroke: #d50f33;
        stroke-miterlimit: 10;
        stroke-width: 1.48px;
      }
    </style>
    <linearGradient id="Dégradé_sans_nom_7" data-name="Dégradé sans nom 7" x1="55.8" y1="88.06" x2="103.03" y2="88.06" gradientUnits="userSpaceOnUse">
      <stop offset="0" stop-color="#d49f49"></stop>
      <stop offset="1" stop-color="#fbf3b3"></stop>
    </linearGradient>
  </defs>
  <rect class="cls-3" x="1.02" y="1.01" width="118.99" height="118.99"></rect>
  <g>
    <path class="cls-1" d="m55.72,59.33v-6.86c0-3.32-1.74-6.39-4.59-8.1l-9.75-5.85c-.93-.56-1.95-.95-3.01-1.16l-13.58-2.72c-.37-.07-.75-.11-1.12-.11h0c-3.16,0-5.73,2.57-5.73,5.73v10.01c0,1.74,1.41,3.15,3.15,3.15h0c1.74,0,3.15-1.41,3.15-3.15v-9.45l11.91,2.98-8.11,12.97c-2.49,3.98-3.81,8.58-3.81,13.28v14.86l-4.69,11.73c-.77,1.92.65,4.01,2.71,4.01h0c1.2,0,2.27-.73,2.71-1.84l5.56-13.91,3.15-15.74,6.3,15.74v12.82c0,1.61,1.31,2.92,2.92,2.92h.45c1.61,0,2.92-1.31,2.92-2.92v-15.97l-4.72-14.17,7.87-12.59v4.81c0,3.91,1.84,7.59,4.97,9.94l4.38,3.29c1.69,1.27,4.11.69,5.06-1.19h0c.76-1.53.27-3.38-1.15-4.33l-4.02-2.68c-1.84-1.23-2.94-3.29-2.94-5.5Z"></path>
    <path class="cls-1" d="m85.88,84.31h0c-2.17,3.77-6.99,5.06-10.75,2.88l-9.54-5.51,7.87-13.63,9.54,5.51c3.76,2.17,5.05,6.99,2.88,10.75Z"></path>
    <line class="cls-1" x1="76.33" y1="78.8" x2="26.89" y2="49.64"></line>
    <path class="cls-1" d="m24.22,43.63c.76-.19,1.57-.09,2.3.35,1.01.6,1.57,1.67,1.57,2.74,0,.54-.13,1.07-.41,1.57l-1.57,2.71c-.63,1.07-1.73,1.61-2.87,1.57"></path>
    <polygon class="cls-2" points="55.8 100.65 71.55 94.36 77.84 97.5 103.03 75.46 103.03 100.65 55.8 100.65"></polygon>
  </g>
  <circle class="cls-1" cx="52.54" cy="31.76" r="8.51"></circle>
</svg>
