<?xml version="1.0" encoding="UTF-8"?>
<svg xmlns="http://www.w3.org/2000/svg" xmlns:xlink="http://www.w3.org/1999/xlink" id="Calque_9" data-name="Calque 9" viewBox="0 0 120 120">
  <defs>
    <style>
      .cls-1 {
        fill: #fff;
      }

      .cls-2 {
        fill: url(#Dégradé_sans_nom_7);
      }

      .cls-3 {
        fill: #d50f33;
        stroke: #d50f33;
        stroke-miterlimit: 10;
        stroke-width: 1.48px;
      }
    </style>
    <linearGradient id="Dégradé_sans_nom_7" data-name="Dégradé sans nom 7" x1="43.49" y1="30.58" x2="84.27" y2="30.58" gradientUnits="userSpaceOnUse">
      <stop offset="0" stop-color="#d49f49"></stop>
      <stop offset="1" stop-color="#fbf3b3"></stop>
    </linearGradient>
  </defs>
  <rect class="cls-3" x="1.01" width="118.99" height="118.99"></rect>
  <rect class="cls-2" x="43.49" y="24.3" width="40.78" height="12.56"></rect>
  <g>
    <path class="cls-1" d="m32.49,97.32c-.87,0-1.57-.7-1.57-1.56v-21.94c0-.86.7-1.56,1.57-1.56s1.57.7,1.57,1.56v21.94c0,.86-.7,1.56-1.57,1.56Z"></path>
    <path class="cls-1" d="m92.18,97.32c-.87,0-1.57-.7-1.57-1.56v-21.84c0-.86.7-1.56,1.57-1.56s1.57.7,1.57,1.56v21.84c0,.86-.7,1.56-1.57,1.56Z"></path>
    <path class="cls-1" d="m98.46,97.32H26.21c-.87,0-1.57-.7-1.57-1.56s.7-1.56,1.57-1.56h72.25c.87,0,1.57.7,1.57,1.56s-.7,1.56-1.57,1.56Z"></path>
    <path class="cls-1" d="m98.46,58.31c-.43,0-.86-.18-1.17-.52l-12.1-13.52h-45.71l-12.1,13.52c-.58.64-1.57.7-2.22.13-.65-.57-.71-1.56-.13-2.2l12.57-14.04c.3-.33.73-.52,1.17-.52h47.12c.45,0,.88.19,1.17.52l12.57,14.04c.58.64.52,1.63-.13,2.2-.3.26-.67.39-1.04.39Z"></path>
    <path class="cls-1" d="m26.21,58.31c-.37,0-.74-.13-1.04-.39-.65-.57-.71-1.56-.13-2.2l12.57-14.04c.58-.64,1.57-.7,2.22-.13.65.57.71,1.56.13,2.2l-12.57,14.04c-.31.35-.74.52-1.17.52Z"></path>
    <path class="cls-1" d="m40.66,58.31c-.25,0-.5-.06-.74-.18-.77-.41-1.05-1.35-.65-2.11l7.54-14.04c.41-.76,1.36-1.05,2.13-.64.77.41,1.05,1.35.65,2.11l-7.54,14.04c-.28.53-.83.83-1.39.83Z"></path>
    <path class="cls-1" d="m55.11,58.31c-.09,0-.18,0-.28-.02-.85-.15-1.42-.96-1.27-1.81l2.51-14.04c.15-.85.96-1.42,1.82-1.26.85.15,1.42.96,1.27,1.81l-2.51,14.04c-.13.76-.8,1.29-1.54,1.29Z"></path>
    <path class="cls-1" d="m69.56,58.31c-.75,0-1.41-.53-1.54-1.29l-2.51-14.04c-.15-.85.42-1.66,1.27-1.81.85-.15,1.67.42,1.82,1.26l2.51,14.04c.15.85-.42,1.66-1.27,1.81-.09.02-.19.02-.28.02Z"></path>
    <path class="cls-1" d="m84.01,58.31c-.56,0-1.1-.3-1.39-.83l-7.54-14.04c-.41-.76-.12-1.71.65-2.11.77-.41,1.72-.12,2.13.64l7.54,14.04c.41.76.12,1.71-.65,2.11-.24.12-.49.18-.74.18Z"></path>
    <path class="cls-1" d="m98.46,58.31c-.43,0-.86-.18-1.17-.52l-12.57-14.04c-.58-.64-.52-1.63.13-2.2.65-.57,1.64-.51,2.22.13l12.57,14.04c.58.64.52,1.63-.13,2.2-.3.26-.67.39-1.04.39Z"></path>
    <path class="cls-1" d="m90.61,70.79c-2.73,0-5.31-1.21-7.07-3.21-1.76,2-4.34,3.21-7.07,3.21s-5.31-1.21-7.07-3.21c-1.76,2-4.34,3.21-7.07,3.21s-5.31-1.21-7.07-3.21c-1.76,2-4.34,3.21-7.07,3.21s-5.31-1.21-7.07-3.21c-1.76,2-4.34,3.21-7.07,3.21-.68,0-1.32-.06-1.91-.19-4.34-.87-7.52-4.73-7.52-9.17v-4.68c0-.86.7-1.56,1.57-1.56h72.25c.87,0,1.57.7,1.57,1.56v4.68c0,4.44-3.17,8.3-7.54,9.17-.56.12-1.2.19-1.88.19Zm-7.07-7.58c.61,0,1.16.35,1.42.89,1.05,2.2,3.21,3.57,5.65,3.57.45,0,.87-.04,1.23-.12,2.94-.59,5.05-3.16,5.05-6.12v-3.12H27.78v3.12c0,2.96,2.11,5.53,5.02,6.12.39.09.81.13,1.26.13,2.44,0,4.6-1.37,5.65-3.57.26-.55.81-.89,1.42-.89s1.16.35,1.42.89c1.05,2.2,3.21,3.57,5.65,3.57s4.6-1.37,5.65-3.57c.26-.55.81-.89,1.42-.89s1.16.35,1.42.89c1.05,2.2,3.21,3.57,5.65,3.57s4.6-1.37,5.65-3.57c.26-.55.81-.89,1.42-.89s1.16.35,1.42.89c1.05,2.2,3.21,3.57,5.65,3.57s4.6-1.37,5.65-3.57c.26-.55.81-.89,1.42-.89Z"></path>
    <path class="cls-1" d="m82.75,38.03h-40.84c-.87,0-1.57-.7-1.57-1.56v-12.48c0-.86.7-1.56,1.57-1.56h40.84c.87,0,1.57.7,1.57,1.56v12.48c0,.86-.7,1.56-1.57,1.56Zm-39.27-3.12h37.7v-9.36h-37.7v9.36Z"></path>
    <path class="cls-1" d="m51.34,44.27c-.87,0-1.57-.7-1.57-1.56v-6.24c0-.86.7-1.56,1.57-1.56s1.57.7,1.57,1.56v6.24c0,.86-.7,1.56-1.57,1.56Z"></path>
    <path class="cls-1" d="m73.33,44.27c-.87,0-1.57-.7-1.57-1.56v-6.24c0-.86.7-1.56,1.57-1.56s1.57.7,1.57,1.56v6.24c0,.86-.7,1.56-1.57,1.56Z"></path>
    <path class="cls-1" d="m85.9,84.9h-47.12c-.87,0-1.57-.7-1.57-1.56v-15.69c0-.86.7-1.56,1.57-1.56s1.57.7,1.57,1.56v14.13h43.98v-14.13c0-.86.7-1.56,1.57-1.56s1.57.7,1.57,1.56v15.69c0,.86-.7,1.56-1.57,1.56Z"></path>
    <g>
      <ellipse class="cls-1" cx="50.56" cy="30.23" rx="2.36" ry="2.34"></ellipse>
      <ellipse class="cls-1" cx="58.41" cy="30.23" rx="2.36" ry="2.34"></ellipse>
      <ellipse class="cls-1" cx="66.26" cy="30.23" rx="2.36" ry="2.34"></ellipse>
      <ellipse class="cls-1" cx="74.12" cy="30.23" rx="2.36" ry="2.34"></ellipse>
    </g>
  </g>
</svg>
