<?xml version="1.0" encoding="UTF-8"?>
<svg xmlns="http://www.w3.org/2000/svg" xmlns:xlink="http://www.w3.org/1999/xlink" id="Calque_18" data-name="Calque 18" viewBox="0 0 120 120">
  <defs>
    <style>
      .cls-1 {
        fill: none;
        stroke: #fff;
        stroke-linecap: round;
        stroke-linejoin: round;
        stroke-width: 2px;
      }

      .cls-2 {
        fill: url(#Dégradé_sans_nom_7);
      }

      .cls-3 {
        fill: #d50f33;
        stroke: #d50f33;
        stroke-miterlimit: 10;
        stroke-width: 1.48px;
      }
    </style>
    <linearGradient id="Dégradé_sans_nom_7" data-name="Dégradé sans nom 7" x1="44.03" y1="40.88" x2="72.07" y2="40.88" gradientUnits="userSpaceOnUse">
      <stop offset="0" stop-color="#d49f49"></stop>
      <stop offset="1" stop-color="#fbf3b3"></stop>
    </linearGradient>
  </defs>
  <rect class="cls-3" x=".08" y="1.21" width="119.92" height="119.92"></rect>
  <path class="cls-2" d="m57.72,19.38s-11.41,16.2-13.09,21.51-.55,20.94,12.07,21.46c12.62.53,15.36-10.25,15.36-16.38,0-10.03-14.34-26.6-14.34-26.6Z"></path>
  <g>
    <path class="cls-1" d="m29.04,102.57l8.81-6.61c1.74-1.31,3.82-2.09,5.98-2.26l27.24-2.14c3.77-.3,7.28-2.07,9.74-4.94l19.09-22.18c1.12-1.12,1.12-2.94,0-4.06-1.12-1.12-2.94-1.12-4.06,0l-17.91,17.91c-2.69,2.69-6.34,4.2-10.14,4.2h-15.82c-1.58,0-2.87-1.28-2.87-2.87s1.28-2.87,2.87-2.87h15.78c2.38,0,4.3-1.93,4.3-4.3s-1.93-4.3-4.3-4.3h-23.47c-3.4,0-6.72,1.01-9.55,2.89l-17.18,11.45"></path>
    <path class="cls-1" d="m72.07,48.07c0-12.79-14.34-28.69-14.34-28.69,0,0-14.34,15.9-14.34,28.69,0,7.92,6.42,14.34,14.34,14.34s14.34-6.42,14.34-14.34Z"></path>
    <path class="cls-1" d="m49.12,48.07c0,4.75,3.85,8.61,8.61,8.61"></path>
  </g>
</svg>
