<?xml version="1.0" encoding="UTF-8"?>
<svg xmlns="http://www.w3.org/2000/svg" xmlns:xlink="http://www.w3.org/1999/xlink" id="Calque_4" data-name="Calque 4" viewBox="0 0 120 120">
  <defs>
    <style>
      .cls-1 {
        fill: #fff;
      }

      .cls-2 {
        stroke-width: 2px;
      }

      .cls-2, .cls-3 {
        fill: none;
        stroke: #fff;
        stroke-linecap: round;
        stroke-linejoin: round;
      }

      .cls-4 {
        fill: #d50f33;
        stroke: #d50f33;
        stroke-miterlimit: 10;
      }

      .cls-5 {
        fill: url(#Dégradé_sans_nom_7);
      }

      .cls-3 {
        stroke-width: 3px;
      }
    </style>
    <linearGradient id="Dégradé_sans_nom_7" data-name="Dégradé sans nom 7" x1="46.68" y1="62.78" x2="73.32" y2="62.78" gradientUnits="userSpaceOnUse">
      <stop offset="0" stop-color="#d49f49"></stop>
      <stop offset="1" stop-color="#fbf3b3"></stop>
    </linearGradient>
  </defs>
  <rect class="cls-4" x="0" y="-.28" width="120" height="120"></rect>
  <g>
    <rect class="cls-3" x="20.82" y="36.74" width="78.35" height="52.08" rx="2.66" ry="2.66"></rect>
    <polygon class="cls-5" points="73.32 58.38 64.4 58.38 64.4 49.47 55.6 49.47 55.6 58.38 46.68 58.38 46.68 67.18 55.6 67.18 55.6 76.1 64.4 76.1 64.4 67.18 73.32 67.18 73.32 58.38"></polygon>
    <path class="cls-1" d="m73.53,37.42h-27.05v-6.44c0-2.23,1.82-4.05,4.05-4.05h18.95c2.23,0,4.05,1.82,4.05,4.05v6.44Zm-23.7-3.35h20.34v-3.08c0-.38-.31-.7-.7-.7h-18.95c-.38,0-.7.31-.7.7v3.08Z"></path>
    <rect class="cls-2" x="84.13" y="36.74" width="4.55" height="52.08"></rect>
    <rect class="cls-2" x="30.97" y="36.74" width="4.55" height="52.08" transform="translate(66.49 125.56) rotate(180)"></rect>
  </g>
</svg>
