<?xml version="1.0" encoding="UTF-8"?>
<svg xmlns="http://www.w3.org/2000/svg" xmlns:xlink="http://www.w3.org/1999/xlink" id="Calque_26" data-name="Calque 26" viewBox="0 0 120 120">
  <defs>
    <style>
      .cls-1 {
        fill: #fff;
      }

      .cls-2 {
        fill: url(#Dégradé_sans_nom_7);
      }

      .cls-3 {
        fill: #d50f33;
        stroke: #d50f33;
        stroke-miterlimit: 10;
        stroke-width: 1.48px;
      }

      .cls-4 {
        fill: url(#Dégradé_sans_nom_7-2);
      }
    </style>
    <linearGradient id="Dégradé_sans_nom_7" data-name="Dégradé sans nom 7" x1="21.3" y1="34.01" x2="100.1" y2="34.01" gradientUnits="userSpaceOnUse">
      <stop offset="0" stop-color="#d49f49"></stop>
      <stop offset="1" stop-color="#fbf3b3"></stop>
    </linearGradient>
    <linearGradient id="Dégradé_sans_nom_7-2" data-name="Dégradé sans nom 7" x1="25.19" y1="85.55" x2="98.15" y2="85.55" xlink:href="#Dégradé_sans_nom_7"></linearGradient>
  </defs>
  <rect class="cls-3" x=".74" y="1.01" width="118.39" height="118.39"></rect>
  <path class="cls-2" d="m94.46,26.71c-.12-.33-.44-.55-.79-.55H28.43c-.77,0-1.46.48-1.73,1.2l-5.39,14.49h78.8l-5.64-15.15h0Z"></path>
  <rect class="cls-4" x="25.19" y="70.69" width="72.96" height="29.7"></rect>
  <path class="cls-1" d="m99.95,44.41c-.24.86-.58,1.86-1.01,2.84-.32.74-.68,1.48-1.07,2.16-.29.51-.61.99-.92,1.41-.24.32-.49.6-.73.84-.36.36-.71.63-1.02.8-.16.08-.3.14-.44.18-.13.04-.26.05-.38.05h-2.06c-.11-.04-.2-.08-.33-.13-.42-.16-.93-.35-1.48-.56-.42-.15-.85-.32-1.27-.49-.63-.25-1.24-.52-1.7-.75-.23-.12-.42-.23-.54-.31-.06-.04-.1-.07-.12-.09h-.01s0,0,0,0c-.24-.3-.53-.54-.86-.7-.34-.16-.71-.24-1.07-.24s-.72.08-1.06.24c-.34.16-.65.4-.89.72-.55.71-1.25,1.29-2.05,1.69-.81.4-1.71.63-2.67.63h-2.78c-.96,0-1.86-.23-2.67-.63-.8-.4-1.51-.98-2.05-1.69-.24-.32-.56-.56-.89-.72-.34-.16-.7-.24-1.07-.24s-.72.08-1.06.24c-.34.16-.65.4-.89.72-.55.71-1.25,1.29-2.05,1.69-.8.4-1.7.63-2.67.63h-2.77c-.96,0-1.87-.23-2.67-.63-.8-.4-1.5-.98-2.05-1.69-.24-.32-.55-.56-.89-.72-.34-.16-.7-.24-1.06-.24s-.73.08-1.06.24c-.34.16-.65.4-.89.72h0c-.55.71-1.25,1.29-2.05,1.69-.8.4-1.71.63-2.67.63h-2.78c-.99,0-1.91-.24-2.74-.66-.82-.42-1.53-1.03-2.07-1.77-.24-.33-.56-.59-.9-.76-.35-.17-.72-.25-1.09-.25s-.75.09-1.11.26c-.32.16-.6.41-.84.7h-.01s-.03.01-.08.05c-.08.06-.22.16-.4.26-.3.18-.7.4-1.13.62-.65.34-1.36.68-1.98.99-.31.15-.59.29-.84.42-.1.05-.19.1-.28.15-.05,0-.1,0-.15,0h-2.78c-.82,0-1.6-.17-2.32-.47-.7-.3-1.34-.73-1.88-1.27,0-.01-.02-.03-.05-.08-.06-.12-.15-.32-.23-.58-.16-.46-.31-1.07-.46-1.74-.22-1-.41-2.13-.57-3.12-.08-.5-.15-.96-.21-1.35-.04-.25-.07-.42-.1-.62h79.13c-.06.3-.12.6-.22.96h0Zm-65.52,5.85h0s0,0,0,0h0Zm.06-.05h0s0,0,0,0h0Zm53.78,18.77c-.39-1.09-.95-2.09-1.77-2.87-1.11-1.05-2.55-1.76-4.14-1.96-.06,0-.12-.01-.18-.01h-.43v-1.06h1.97c.77,0,1.4-.63,1.4-1.4s-.63-1.4-1.4-1.4h-6.83c-.78,0-1.4.63-1.4,1.4s.63,1.4,1.4,1.4h2.06v1.06h-.82c-.06,0-.11,0-.17.01-1.6.2-3.04.91-4.15,1.96-.82.78-1.38,1.78-1.77,2.87h-13.96v-4.42c0-1.37-.54-2.68-1.5-3.65h0c-.03-.34-.15-.64-.39-.88-.26-.27-.62-.41-.99-.41h-.96s0-1.91,0-1.91c0-.77-.63-1.4-1.4-1.4s-1.4.63-1.4,1.4v1.92h-.9c-.73,0-1.32.57-1.38,1.29-1,.97-1.58,2.31-1.58,3.71v4.35h-1.12v-4.42c0-1.37-.54-2.68-1.51-3.65h0,0c-.03-.34-.15-.64-.39-.88-.26-.27-.62-.41-.99-.41h-1.01s0-1.91,0-1.91c0-.77-.63-1.4-1.4-1.4s-1.4.63-1.4,1.4v1.92h-.84c-.73,0-1.32.57-1.38,1.29-1,.97-1.58,2.31-1.58,3.71v4.35h-4.39v-14.07c.33-.17.73-.36,1.17-.58.71-.35,1.5-.74,2.18-1.11.34-.19.65-.37.93-.56.14-.09.27-.19.4-.3.06-.05.12-.1.17-.15.76.94,1.69,1.75,2.78,2.32,1.2.62,2.58.98,4.02.98h2.78c1.41,0,2.74-.33,3.92-.93,1.07-.54,1.99-1.31,2.75-2.21.76.9,1.68,1.67,2.75,2.21,1.18.59,2.52.93,3.93.93h2.77c1.41,0,2.75-.33,3.93-.93,1.06-.54,1.98-1.31,2.74-2.21.77.9,1.68,1.67,2.75,2.21,1.18.59,2.52.93,3.92.93h2.78c1.4,0,2.74-.33,3.92-.93,1.07-.54,1.98-1.31,2.75-2.21.04.04.08.09.12.13.24.2.48.36.74.51.23.13.47.26.72.39.45.22.93.43,1.42.63.74.3,1.5.58,2.14.82.22.08.39.14.57.21v13.93h-2.38Zm-10-2.04h3.77c.97.13,1.85.56,2.53,1.2.26.24.45.54.64.83h-10.12c.2-.3.39-.59.64-.83.68-.65,1.56-1.07,2.53-1.2h0Zm-27.13-4.04h0c.14-.13.23-.31.33-.47h1.37s1.43,0,1.43,0c.09.14.16.29.28.41h0s.05.05.05.05h0c.44.45.69,1.05.69,1.67v4.42h-4.89v-4.35c0-.65.27-1.28.74-1.73h0Zm-11.62,0c.15-.13.23-.31.34-.47h1.31s1.49,0,1.49,0c.09.14.16.29.27.41h0s.05.05.05.05h0c.44.45.69,1.05.69,1.67v4.42h-4.89v-4.35c0-.65.27-1.28.74-1.73h0Zm56.12,8.88h.57v20.37h-17.39c-.77,0-1.4.63-1.4,1.4s.63,1.4,1.4,1.4h0s17.39,0,17.39,0v4.67H26.07v-4.67h43.4c.77,0,1.4-.63,1.4-1.4s-.63-1.4-1.4-1.4H26.07v-20.37h69.56ZM28.01,27.86c.03-.09.09-.16.16-.21.08-.05.16-.08.26-.08h64.85l4.87,13.08H23.25l4.76-12.79h0Zm65.14-.66h0s0,0,0,0h0Zm9.46,18.09c.18-.62.31-1.19.4-1.72h0c.03-.15.04-.29.04-.44,0-.33-.07-.66-.19-.95-.18-.44-.49-.82-.89-1.1-.2-.14-.42-.25-.66-.32-.04-.01-.09-.01-.14-.02l-5.4-14.52h0c-.16-.44-.46-.81-.82-1.06-.37-.25-.81-.4-1.28-.4H28.43c-.68,0-1.32.21-1.85.58-.53.37-.96.9-1.19,1.54l-5.16,13.86c-.18.03-.37.04-.54.11-.45.2-.82.52-1.09.91-.26.4-.41.87-.41,1.37,0,.14.01.29.04.44h0c.03.17.07.42.12.73.08.54.19,1.25.31,2.03.09.58.2,1.2.32,1.82.18.93.38,1.84.62,2.64.12.4.25.77.41,1.12.08.17.16.34.26.51.11.16.23.33.39.5.79.79,1.74,1.43,2.78,1.88,1.05.44,2.21.69,3.41.69h1.93v13.49h-2.83c-.36,0-.72.07-1.04.21-.48.2-.88.54-1.17.97-.28.43-.46.95-.46,1.5v28.1c0,.37.08.72.21,1.04.2.48.54.89.97,1.17.42.29.95.46,1.5.46h70.38c.36,0,.72-.07,1.04-.21.48-.2.89-.54,1.17-.97.29-.42.46-.95.46-1.5v-28.1c0-.37-.07-.72-.21-1.04-.2-.48-.54-.89-.97-1.17-.43-.29-.95-.46-1.5-.46h-2.87v-13.49h.93c.34,0,.69-.04,1.01-.12.61-.15,1.16-.42,1.66-.76.44-.3.85-.65,1.22-1.04.66-.68,1.24-1.47,1.76-2.32.78-1.27,1.43-2.68,1.93-4.02.25-.67.47-1.32.64-1.94h0Z"></path>
</svg>
