<?xml version="1.0" encoding="UTF-8"?>
<svg xmlns="http://www.w3.org/2000/svg" xmlns:xlink="http://www.w3.org/1999/xlink" id="Calque_2" data-name="Calque 2" viewBox="0 0 120 120">
  <defs>
    <style>
      .cls-1 {
        fill: #d50f33;
      }

      .cls-2 {
        fill: none;
        stroke: #fff;
        stroke-linecap: round;
        stroke-linejoin: round;
        stroke-width: 2px;
      }

      .cls-3 {
        fill: url(#Dégradé_sans_nom_7);
      }
    </style>
    <linearGradient id="Dégradé_sans_nom_7" data-name="Dégradé sans nom 7" x1="37.38" y1="45.49" x2="82.64" y2="45.49" gradientUnits="userSpaceOnUse">
      <stop offset="0" stop-color="#d49f49"></stop>
      <stop offset="1" stop-color="#fbf3b3"></stop>
    </linearGradient>
  </defs>
  <rect class="cls-1" width="120" height="120"></rect>
  <path class="cls-3" d="m41.02,29.89h37.65s8.02,16.87,1.25,23.47c-6.77,6.6-19.59,10.66-32.8,5.16,0,0-10.57-3.11-9.69-15.98l3.59-12.66Z"></path>
  <g>
    <line class="cls-2" x1="41.36" y1="29.89" x2="78.67" y2="29.89"></line>
    <path class="cls-2" d="m76.79,41.61c1.27,5.57.11,8.45-4.42,10.8"></path>
    <path class="cls-2" d="m60.08,16.64h13.76c12.45,30.92,13.72,37.28-7.3,44.3-4.14,1.38-3.98,4.56-3.98,6.62v28.13c0,7.32,4.85,7.14,8.56,7.85,11.27,2.15,1.66,4.59-11.04,4.59h-.16c-12.7,0-22.31-2.44-11.04-4.59,3.7-.71,8.56-.53,8.56-7.85v-28.13c0-2.07.16-5.24-3.98-6.62-21.03-7.01-19.75-13.38-7.3-44.3h13.92Z"></path>
  </g>
</svg>
