<?xml version="1.0" encoding="UTF-8"?>
<svg xmlns="http://www.w3.org/2000/svg" xmlns:xlink="http://www.w3.org/1999/xlink" id="Calque_8" data-name="Calque 8" viewBox="0 0 120 120">
  <defs>
    <style>
      .cls-1 {
        fill: #fff;
      }

      .cls-2 {
        fill: url(#Dégradé_sans_nom_7);
      }

      .cls-3 {
        fill: #d50f33;
        stroke: #d50f33;
        stroke-miterlimit: 10;
        stroke-width: 1.48px;
      }
    </style>
    <linearGradient id="Dégradé_sans_nom_7" data-name="Dégradé sans nom 7" x1="23.58" y1="59.45" x2="99.87" y2="59.45" gradientUnits="userSpaceOnUse">
      <stop offset="0" stop-color="#d49f49"></stop>
      <stop offset="1" stop-color="#fbf3b3"></stop>
    </linearGradient>
  </defs>
  <rect class="cls-3" x=".93" y=".97" width="119.07" height="119.07"></rect>
  <path class="cls-2" d="m23.58,55.61s.62,7.9,6.4,8.4c5.77.5,7.58-3.49,8.21-5.95s.54-3.8.54-3.8c0,0,.41,9.41,6.4,9.79,5.99.39,7.99-4.68,7.99-4.68,0,0,2.05,4.94,7.34,5.18s8.81-5.23,8.81-5.23c0,0,4.65,6.04,8.97,5.24,4.33-.8,6.24-5.24,6.24-5.24,0,0,2.63,4.94,7.69,5.31,5.06.37,8.18-6.75,7.64-10.37H23.58v1.35Z"></path>
  <g>
    <path class="cls-1" d="m64.23,55.61h-10.16c-.37,0-.73-.16-.98-.44-.25-.28-.37-.65-.33-1.02l1.98-17.78c.08-.72.73-1.26,1.45-1.16.72.08,1.24.73,1.16,1.45l-1.81,16.32h8.69c.73,0,1.32.59,1.32,1.32s-.59,1.32-1.32,1.32Z"></path>
    <path class="cls-1" d="m69.31,55.61c-.66,0-1.23-.5-1.31-1.17l-1.97-17.78c-.08-.72.44-1.37,1.16-1.45.73-.1,1.37.44,1.45,1.16l1.97,17.78c.08.72-.44,1.37-1.16,1.45-.05,0-.1,0-.15,0Z"></path>
    <path class="cls-1" d="m66.77,32.74h-10.16c-.73,0-1.32-.59-1.32-1.32s.59-1.32,1.32-1.32h10.16c.73,0,1.32.59,1.32,1.32s-.59,1.32-1.32,1.32Z"></path>
    <path class="cls-1" d="m48.99,55.61h-10.16c-.42,0-.82-.2-1.07-.55s-.32-.78-.18-1.19l5.93-17.78c.23-.69.97-1.06,1.66-.83.69.23,1.06.97.83,1.66l-5.35,16.05h8.34c.73,0,1.32.59,1.32,1.32s-.59,1.32-1.32,1.32Z"></path>
    <path class="cls-1" d="m54.07,55.61s-.1,0-.15,0c-.72-.08-1.24-.73-1.16-1.45l1.98-17.78c.08-.72.73-1.26,1.45-1.16.72.08,1.24.73,1.16,1.45l-1.98,17.78c-.07.67-.64,1.17-1.31,1.17Z"></path>
    <path class="cls-1" d="m56.61,32.74h-10.16c-.73,0-1.32-.59-1.32-1.32s.59-1.32,1.32-1.32h10.16c.73,0,1.32.59,1.32,1.32s-.59,1.32-1.32,1.32Z"></path>
    <path class="cls-1" d="m33.74,55.61h-10.16c-.47,0-.9-.25-1.13-.65-.24-.4-.24-.9-.02-1.31l12.7-22.87c.23-.42.67-.68,1.15-.68h10.16c.73,0,1.32.59,1.32,1.32s-.59,1.32-1.32,1.32h-9.39l-11.24,20.23h7.93c.73,0,1.32.59,1.32,1.32s-.59,1.32-1.32,1.32Z"></path>
    <path class="cls-1" d="m38.82,55.61c-.14,0-.28-.02-.42-.07-.69-.23-1.06-.97-.83-1.66l5.93-17.78c.23-.69.97-1.06,1.66-.83.69.23,1.06.97.83,1.66l-5.93,17.78c-.18.55-.7.9-1.25.9Z"></path>
    <path class="cls-1" d="m76.93,32.74h-10.16c-.73,0-1.32-.59-1.32-1.32s.59-1.32,1.32-1.32h10.16c.73,0,1.32.59,1.32,1.32s-.59,1.32-1.32,1.32Z"></path>
    <path class="cls-1" d="m84.55,55.61c-.55,0-1.06-.35-1.25-.9l-5.93-17.78c-.23-.69.14-1.43.83-1.66.7-.23,1.43.14,1.66.83l5.93,17.78c.23.69-.14,1.43-.83,1.66-.14.04-.28.07-.42.07Z"></path>
    <path class="cls-1" d="m79.47,55.61h-10.16c-.67,0-1.23-.5-1.31-1.17l-1.97-17.78c-.08-.72.44-1.37,1.16-1.45.73-.1,1.37.44,1.45,1.16l1.84,16.61h8.99c.73,0,1.32.59,1.32,1.32s-.59,1.32-1.32,1.32Z"></path>
    <path class="cls-1" d="m99.8,55.61c-.46,0-.91-.24-1.15-.68l-12.33-22.19h-9.39c-.73,0-1.32-.59-1.32-1.32s.59-1.32,1.32-1.32h10.16c.48,0,.92.26,1.15.68l12.7,22.87c.35.64.13,1.44-.51,1.79-.2.11-.42.17-.64.17Z"></path>
    <path class="cls-1" d="m94.72,55.61h-10.16c-.57,0-1.07-.36-1.25-.9l-5.93-17.78c-.23-.69.14-1.43.83-1.66.7-.23,1.43.14,1.66.83l5.63,16.88h9.21c.73,0,1.32.59,1.32,1.32s-.59,1.32-1.32,1.32Z"></path>
    <path class="cls-1" d="m61.69,65.77c-4.93,0-8.94-4.01-8.94-8.94v-2.54c0-.73.59-1.32,1.32-1.32h10.16c.73,0,1.32.59,1.32,1.32s-.59,1.32-1.32,1.32h-8.85v1.22c0,3.48,2.83,6.31,6.31,6.31s6.31-2.83,6.31-6.31v-2.54c0-.73.59-1.32,1.32-1.32s1.32.59,1.32,1.32v2.54c0,4.93-4.01,8.94-8.94,8.94Z"></path>
    <path class="cls-1" d="m46.45,65.77c-4.93,0-8.94-4.01-8.94-8.94v-2.54c0-.73.59-1.32,1.32-1.32h10.16c.73,0,1.32.59,1.32,1.32s-.59,1.32-1.32,1.32h-8.85v1.22c0,3.48,2.83,6.31,6.31,6.31s6.31-2.83,6.31-6.31v-2.54c0-.73.59-1.32,1.32-1.32s1.32.59,1.32,1.32v2.54c0,4.93-4.01,8.94-8.94,8.94Z"></path>
    <path class="cls-1" d="m76.93,65.77c-4.93,0-8.94-4.01-8.94-8.94v-2.54c0-.73.59-1.32,1.32-1.32h10.16c.73,0,1.32.59,1.32,1.32s-.59,1.32-1.32,1.32h-8.85v1.22c0,3.48,2.83,6.31,6.31,6.31s6.31-2.83,6.31-6.31v-2.54c0-.73.59-1.32,1.32-1.32s1.32.59,1.32,1.32v2.54c0,4.93-4.01,8.94-8.94,8.94Z"></path>
    <path class="cls-1" d="m92.18,65.77c-4.93,0-8.94-4.01-8.94-8.94v-2.54c0-.73.59-1.32,1.32-1.32h10.16c.73,0,1.32.59,1.32,1.32s-.59,1.32-1.32,1.32h-8.85v1.22c0,3.48,2.83,6.31,6.31,6.31s6.31-2.83,6.31-6.31v-2.54c0-.73.59-1.32,1.32-1.32s1.32.59,1.32,1.32v2.54c0,4.93-4.01,8.94-8.94,8.94Z"></path>
    <path class="cls-1" d="m31.2,65.77c-4.93,0-8.94-4.01-8.94-8.94v-2.54c0-.73.59-1.32,1.32-1.32h10.16c.73,0,1.32.59,1.32,1.32s-.59,1.32-1.32,1.32h-8.85v1.22c0,3.48,2.83,6.31,6.31,6.31s6.31-2.83,6.31-6.31v-2.54c0-.73.59-1.32,1.32-1.32s1.32.59,1.32,1.32v2.54c0,4.93-4.01,8.94-8.94,8.94Z"></path>
    <path class="cls-1" d="m99.8,98.8H23.58c-.73,0-1.32-.59-1.32-1.32s.59-1.32,1.32-1.32h76.22c.73,0,1.32.59,1.32,1.32s-.59,1.32-1.32,1.32Z"></path>
    <path class="cls-1" d="m28.66,98.8c-.73,0-1.32-.59-1.32-1.32v-33.47c0-.73.59-1.32,1.32-1.32s1.32.59,1.32,1.32v33.47c0,.73-.59,1.32-1.32,1.32Z"></path>
    <path class="cls-1" d="m94.72,98.8c-.73,0-1.32-.59-1.32-1.32v-33.47c0-.73.59-1.32,1.32-1.32s1.32.59,1.32,1.32v33.47c0,.73-.59,1.32-1.32,1.32Z"></path>
    <path class="cls-1" d="m47.72,98.8h-19.05c-.73,0-1.32-.59-1.32-1.32v-27.95c0-.73.59-1.32,1.32-1.32h19.05c.73,0,1.32.59,1.32,1.32v27.95c0,.73-.59,1.32-1.32,1.32Zm-17.74-2.63h16.42v-25.31h-16.42v25.31Z"></path>
    <path class="cls-1" d="m42.64,86.09c-.73,0-1.32-.59-1.32-1.32v-2.54c0-.73.59-1.32,1.32-1.32s1.32.59,1.32,1.32v2.54c0,.73-.59,1.32-1.32,1.32Z"></path>
    <path class="cls-1" d="m94.72,93.72h-41.92c-.73,0-1.32-.59-1.32-1.32v-22.87c0-.73.59-1.32,1.32-1.32h41.92c.73,0,1.32.59,1.32,1.32v22.87c0,.73-.59,1.32-1.32,1.32Zm-40.6-2.63h39.29v-20.23h-39.29v20.23Z"></path>
    <g>
      <path class="cls-1" d="m67.93,85.16c-.19,0-.38-.04-.56-.12-.66-.31-.94-1.09-.64-1.75l2.68-5.76c.31-.65,1.09-.94,1.75-.64.66.31.94,1.09.64,1.75l-2.68,5.76c-.22.48-.7.76-1.19.76Z"></path>
      <path class="cls-1" d="m74.21,88.04c-.18,0-.38-.04-.55-.12-.66-.31-.94-1.09-.64-1.75l5.37-11.51c.31-.66,1.09-.94,1.75-.64.66.31.94,1.09.64,1.75l-5.37,11.51c-.22.48-.7.76-1.19.76Z"></path>
    </g>
  </g>
</svg>
