<?xml version="1.0" encoding="UTF-8"?>
<svg xmlns="http://www.w3.org/2000/svg" xmlns:xlink="http://www.w3.org/1999/xlink" id="Calque_7" data-name="Calque 7" viewBox="0 0 120 120">
  <defs>
    <style>
      .cls-1 {
        fill: #fff;
      }

      .cls-2 {
        fill: url(#Dégradé_sans_nom_7);
      }

      .cls-3 {
        fill: #d50f33;
        stroke: #d50f33;
        stroke-miterlimit: 10;
        stroke-width: 1.48px;
      }
    </style>
    <linearGradient id="Dégradé_sans_nom_7" data-name="Dégradé sans nom 7" x1="21.61" y1="37.72" x2="98.83" y2="37.72" gradientUnits="userSpaceOnUse">
      <stop offset="0" stop-color="#d49f49"></stop>
      <stop offset="1" stop-color="#fbf3b3"></stop>
    </linearGradient>
  </defs>
  <rect class="cls-3" x="1.23" y=".79" width="118.77" height="118.77"></rect>
  <path class="cls-2" d="m21.61,50.43s4.69-22.6,37.27-25.39c0,0,31.47-2.01,39.95,25.39"></path>
  <g>
    <path class="cls-1" d="m66.74,99.81h-4.49v-27.01h13.84c.9,0,1.63-.73,1.63-1.63s-.73-1.63-1.63-1.63h-30.91c-.9,0-1.63.73-1.63,1.63s.73,1.63,1.63,1.63h13.8v27.01h-4.45c-.9,0-1.63.73-1.63,1.63s.73,1.63,1.63,1.63h12.21c.9,0,1.63-.73,1.63-1.63s-.73-1.63-1.63-1.63Z"></path>
    <path class="cls-1" d="m89.95,60.56c-.9,0-1.63.73-1.63,1.63v15.75h-14.03c-2.42,0-4.39,1.97-4.39,4.39v2.39c0,.9.73,1.63,1.63,1.63h2.55l-3.01,14.77c-.18.88.39,1.74,1.27,1.92.11.02.22.03.33.03.76,0,1.44-.53,1.6-1.31l3.14-15.42h5.97l3.14,15.42c.16.77.84,1.31,1.6,1.31.11,0,.22-.01.33-.03.88-.18,1.45-1.04,1.27-1.92l-3.03-14.84c2.35-.3,4.25-2.05,4.75-4.33,0,0,0,0,0-.01,0-.03.01-.05.02-.08.06-.17.11-.35.11-.54v-19.12c0-.9-.73-1.63-1.63-1.63Zm-3.95,22.53h-12.83v-.76c0-.62.5-1.12,1.12-1.12h13.99c-.2,1.07-1.15,1.88-2.28,1.88Z"></path>
    <path class="cls-1" d="m46.98,77.94h-14.02v-15.75c0-.9-.73-1.63-1.63-1.63s-1.63.73-1.63,1.63v19.12c0,.19.05.37.11.54,0,.03.01.06.02.08,0,0,0,0,0,.01.49,2.29,2.4,4.03,4.75,4.33l-3.03,14.84c-.18.88.39,1.74,1.27,1.92.11.02.22.03.33.03.76,0,1.44-.53,1.6-1.31l3.14-15.42h5.97l3.14,15.42c.16.77.84,1.31,1.6,1.31.11,0,.22-.01.33-.03.88-.18,1.45-1.04,1.27-1.92l-3.01-14.77h2.55c.9,0,1.63-.73,1.63-1.63v-2.39c0-2.42-1.97-4.39-4.39-4.39Zm1.12,5.15h-12.83c-1.13,0-2.07-.81-2.28-1.88h13.99c.62,0,1.12.5,1.12,1.12v.76Z"></path>
    <path class="cls-1" d="m101.38,50.42c-3.34-15.36-21.24-27.39-40.76-27.39s-37.42,12.03-40.76,27.39c-.13.59.08,1.21.55,1.6.3.25.67.38,1.05.38.21,0,.42-.04.62-.12.05-.02,5.38-2.19,12.43-2.19s12.38,2.17,12.43,2.19c.4.17.85.16,1.24,0,.05-.02,4.58-1.86,10.8-2.15v14.52c0,.9.73,1.63,1.63,1.63s1.63-.73,1.63-1.63v-14.52c6.2.29,10.75,2.13,10.8,2.15.4.17.85.16,1.24,0,.05-.02,5.38-2.19,12.43-2.19s12.38,2.17,12.43,2.19c.56.23,1.2.13,1.67-.26.47-.39.68-1,.55-1.6Zm-40.76-3.6c-4.79,0-8.81.9-11.23,1.61.45-2.74,1.82-9.93,4.25-14.27,2.22-3.97,5.51-6.53,7.02-7.56,1.51,1.03,4.8,3.59,7.02,7.56,2.43,4.35,3.8,11.57,4.25,14.29-2.41-.71-6.46-1.63-11.3-1.63Zm-36.75,1.44c4.31-12.06,18.37-19.95,31.58-21.63-1.57,1.49-3.28,3.46-4.66,5.93-2.92,5.23-4.37,13.69-4.72,15.96-2.37-.72-6.53-1.71-11.55-1.71-4.41,0-8.18.77-10.65,1.44Zm62.86-1.44c-4.98,0-9.11.97-11.49,1.69-.36-2.31-1.81-10.73-4.72-15.94-1.38-2.47-3.09-4.44-4.65-5.93,13.19,1.7,27.2,9.59,31.51,21.62-2.46-.67-6.23-1.44-10.65-1.44Z"></path>
  </g>
</svg>
