<?xml version="1.0" encoding="UTF-8"?>
<svg xmlns="http://www.w3.org/2000/svg" xmlns:xlink="http://www.w3.org/1999/xlink" id="Calque_21" data-name="Calque 21" viewBox="0 0 120 120">
  <defs>
    <style>
      .cls-1 {
        fill: #fff;
      }

      .cls-2 {
        fill: url(#Dégradé_sans_nom_7);
      }

      .cls-3 {
        fill: #d50f33;
        stroke: #d50f33;
        stroke-miterlimit: 10;
        stroke-width: 1.48px;
      }
    </style>
    <linearGradient id="Dégradé_sans_nom_7" data-name="Dégradé sans nom 7" x1="30.84" y1="72.32" x2="90.22" y2="72.32" gradientUnits="userSpaceOnUse">
      <stop offset="0" stop-color="#d49f49"></stop>
      <stop offset="1" stop-color="#fbf3b3"></stop>
    </linearGradient>
  </defs>
  <rect class="cls-3" x="-.12" y="-1.13" width="121.33" height="121.33"></rect>
  <path class="cls-2" d="m46.76,57.85s-13.26.69-14.97,6.33-.56,22.96-.56,22.96h59l-.64-23.77s-11.3-7.55-14.9-5.51l-2.54,1.68-8.55,2.36-2.87-.57-2.66.8-7.35-2.28-3.95-1.99Z"></path>
  <g>
    <path class="cls-1" d="m59.57,86.01v-9.02c0-.28.1-.52.26-.71l6.02-9.15,2.04.66.21.06-6.24,9.47v7.52h27.23v-18.52c0-2.72-2.06-4.61-4.87-5.9-2.82-1.33-6.41-2.08-9.54-2.58l-1.99,3.03v-.31c0-.76-.29-1.3-.65-1.17l-1.41.47,2.55-3.89c.26-.37.7-.57,1.12-.5h0c3.45.52,7.57,1.33,10.9,2.87,3.55,1.67,6.18,4.17,6.18,7.98v19.67c0,.63-.52,1.14-1.15,1.14h-29.5c-.63,0-1.15-.5-1.15-1.14h0Z"></path>
    <path class="cls-1" d="m59.57,84.85v-7.52l-6.23-9.47.21-.06,2.03-.66,6.03,9.15c.16.19.24.44.24.71v9.02c0,.63-.5,1.14-1.14,1.14h-29.5c-.63,0-1.15-.5-1.15-1.14v-19.67c0-3.81,2.63-6.31,6.18-7.98,3.32-1.54,7.44-2.35,10.9-2.87h0c.42-.07.86.13,1.1.5l2.56,3.89-1.41-.47c-.36-.11-.65.41-.65,1.17v.31l-1.99-3.03c-3.13.5-6.71,1.25-9.54,2.58-2.81,1.3-4.87,3.18-4.87,5.9v18.52h27.21Z"></path>
    <path class="cls-1" d="m69.72,76.94c-.63,0-1.15-.52-1.15-1.15s.52-1.14,1.15-1.14h11.5c.63,0,1.15.5,1.15,1.14s-.52,1.15-1.15,1.15h-11.5Z"></path>
    <path class="cls-1" d="m59,60.17h3.44c.49,0,.94.19,1.26.52h0c.32.32.52.78.52,1.27v4.65c0,.5-.19.94-.52,1.26h0c-.32.32-.78.54-1.26.54h-3.44c-.49,0-.94-.21-1.26-.54h0c-.32-.32-.54-.76-.54-1.26v-4.65c0-.49.21-.94.54-1.27h0c.32-.32.78-.52,1.26-.52h0Zm2.94,2.29h-2.43v3.67h2.43v-3.67Z"></path>
    <path class="cls-1" d="m49.76,58.32l8.3,2.74c.37.13.71.36.96.65.29.32.49.75.49,1.18v2.79c0,.42-.19.84-.49,1.18-.24.28-.58.52-.96.63l-8.3,2.76h0c-.16.05-.32.06-.45.06-.44,0-.81-.18-1.1-.5-.19-.19-.34-.47-.44-.76-.1-.31-.16-.66-.16-1.07v-7.41c0-.39.07-.76.16-1.07.1-.29.24-.55.44-.76.29-.32.66-.5,1.1-.5.15,0,.29.03.45.08h0Zm3.44,3.54l-3.31-1.09v7.02l7.31-2.42v-2.19l-4.01-1.33Z"></path>
    <path class="cls-1" d="m71.54,60.77l-7.31,2.42v2.19l7.31,2.42v-7.02Zm-4.01-1.09l4.15-1.36c.15-.05.31-.08.45-.08.44,0,.81.18,1.1.5.18.21.34.47.44.76.1.31.16.68.16,1.07v7.41c0,.41-.07.76-.16,1.07-.1.29-.26.55-.44.76-.31.32-.66.5-1.1.5-.15,0-.29-.02-.45-.08v.02l-8.3-2.76c-.37-.11-.71-.36-.96-.63-.31-.34-.49-.76-.49-1.18v-2.79c0-.44.18-.86.49-1.18.24-.29.58-.52.96-.65l4.15-1.38Z"></path>
    <path class="cls-1" d="m47.26,34.61c.52-.34,1.23-.19,1.57.32.36.52.21,1.23-.32,1.57-.29.19-.58.55-.81,1.07-.21.49-.34,1.1-.34,1.88,0,.96.11,2.29.44,3.29.13.39.29.7.45.88.02.02.03.03.05.03.1-.02.21-.08.37-.21.52-.37,1.23-.28,1.61.24.15.19.23.44.23.68,0,3.28,1.25,5.89,2.94,7.82,2.3,2.61,5.35,3.96,7.28,3.96s4.98-1.35,7.28-3.96c1.69-1.93,2.94-4.54,2.94-7.82,0-.63.5-1.15,1.14-1.15.28,0,.52.1.71.26.16.1.28.16.36.18h0s.02-.02.05-.03c.16-.18.31-.49.44-.88.34-1.01.45-2.34.45-3.29,0-.83-.15-1.49-.39-1.99-.24-.52-.57-.86-.88-1.02-.57-.29-.78-.97-.49-1.54.29-.55.97-.76,1.54-.47.71.37,1.41,1.05,1.9,2.08.36.78.6,1.77.6,2.95s-.15,2.74-.57,3.99c-.23.71-.55,1.33-.99,1.78-.45.47-1.02.75-1.67.73-.34,3.16-1.69,5.76-3.44,7.74-2.74,3.13-6.54,4.74-8.98,4.74s-6.24-1.61-9-4.74c-1.74-1.98-3.08-4.57-3.42-7.74-.65.02-1.22-.26-1.67-.73-.44-.45-.76-1.07-.99-1.78-.42-1.25-.57-2.85-.57-3.99s.19-2.03.52-2.79c.42-.96,1.02-1.64,1.67-2.06h0Z"></path>
    <path class="cls-1" d="m56.94,31.18c1.3,3,3.68,3.36,6.18,3.75,2.59.39,5.29.79,7.46,3.37,2.3-3.47,2.87-6.81,2.25-9.65-.41-1.8-1.28-3.41-2.51-4.69-1.23-1.3-2.81-2.29-4.59-2.85-3.11-.97-6.86-.67-10.49,1.52l1.7,8.55Zm5.84,6c-3.16-.49-6.18-.94-7.96-5.16-.05-.1-.08-.2-.1-.29l-1.88-9.42h0c-.08-.44.1-.91.5-1.18,4.46-2.97,9.16-3.42,13.07-2.19,2.16.68,4.07,1.87,5.56,3.45,1.51,1.57,2.59,3.55,3.08,5.77.84,3.78-.05,8.25-3.53,12.73-.08.13-.19.24-.34.32-.53.32-1.23.16-1.57-.39-1.77-2.87-4.35-3.28-6.83-3.65h0Z"></path>
    <path class="cls-1" d="m56.11,32.62c-.94.31-2.12,1.04-3.23,1.86-1.39,1.05-2.61,2.21-2.98,2.82-.32.53-1.04.7-1.57.37-.05-.03-.1-.06-.15-.11-2.06-1.78-3.07-4.57-3.05-7.33.02-1.18.23-2.35.6-3.45.39-1.12.97-2.16,1.74-3.03,1.49-1.72,3.66-2.84,6.5-2.81.55,0,1.01.39,1.1.91h.02l1.88,9.44c.11.6-.28,1.18-.86,1.33h0Zm-4.61.05c.99-.73,2.04-1.41,3.03-1.86l-1.51-7.54c-1.64.19-2.92.92-3.83,1.98-.58.67-1.02,1.44-1.31,2.29-.31.88-.45,1.8-.47,2.72-.02,1.72.47,3.44,1.46,4.74.68-.73,1.62-1.56,2.63-2.32h0Z"></path>
  </g>
  <g>
    <path class="cls-1" d="m16.46,104.48v-10.61h4.57c1.62,0,2.94.48,3.96,1.41,1.01.93,1.52,2.24,1.52,3.91s-.51,2.96-1.52,3.89c-1.01.93-2.33,1.4-3.96,1.4h-4.57Zm4.48-8.71h-2.29v6.81h2.29c1,0,1.8-.3,2.4-.89.6-.59.91-1.43.91-2.5s-.3-1.92-.91-2.52-1.4-.9-2.4-.9Z"></path>
    <path class="cls-1" d="m28.97,104.48v-10.61h2.19v10.61h-2.19Z"></path>
    <path class="cls-1" d="m43.93,104.48v-7.17l-3.56,4.28h-.39l-3.54-4.28v7.17h-2.19v-10.61h1.97l3.96,4.73,3.96-4.73h1.97v10.61h-2.19Z"></path>
    <path class="cls-1" d="m47.85,104.48l4.23-10.61h2.56l4.11,10.61h-2.22l-.81-2.12h-4.82l-.83,2.12h-2.22Zm5.51-8.45l-1.9,4.7h3.72l-1.81-4.7Z"></path>
    <path class="cls-1" d="m68.69,104.48l-5.96-7.13v7.13h-2.19v-10.61h1.91l5.96,7.15v-7.15h2.18v10.61h-1.9Z"></path>
    <path class="cls-1" d="m81.84,101.28l1.03,1.64c-.51.49-1.16.9-1.94,1.22-.78.33-1.59.49-2.42.49-1.6,0-2.91-.49-3.93-1.47-1.02-.98-1.53-2.3-1.53-3.98s.51-3.02,1.53-4c1.02-.98,2.33-1.47,3.93-1.47,1.35,0,2.41.36,3.16,1.07.75.71,1.15,1.69,1.18,2.94l-2.01.42c-.02-.76-.23-1.35-.62-1.77s-.97-.63-1.74-.63c-.96,0-1.73.3-2.3.91-.58.61-.87,1.45-.87,2.54s.29,1.91.88,2.51,1.38.91,2.37.91c1.23,0,2.32-.44,3.28-1.33Z"></path>
    <path class="cls-1" d="m93.13,104.48v-4.4h-5.7v4.4h-2.19v-10.61h2.19v4.31h5.7v-4.31h2.18v10.61h-2.18Z"></path>
    <path class="cls-1" d="m106.8,104.48h-8.4v-10.61h8.4v1.92h-6.31v2.29h5.17v1.92h-5.17v2.56h6.31v1.92Z"></path>
  </g>
</svg>
