<?xml version="1.0" encoding="UTF-8"?>
<svg xmlns="http://www.w3.org/2000/svg" xmlns:xlink="http://www.w3.org/1999/xlink" id="Calque_13" data-name="Calque 13" viewBox="0 0 120 120">
  <defs>
    <style>
      .cls-1 {
        fill: #fff;
      }

      .cls-2 {
        fill: url(#Dégradé_sans_nom_7);
      }

      .cls-3 {
        fill: #d50f33;
        stroke: #d50f33;
        stroke-miterlimit: 10;
        stroke-width: 1.48px;
      }
    </style>
    <linearGradient id="Dégradé_sans_nom_7" data-name="Dégradé sans nom 7" x1="24.43" y1="52.43" x2="56.55" y2="52.43" gradientUnits="userSpaceOnUse">
      <stop offset="0" stop-color="#d49f49"></stop>
      <stop offset="1" stop-color="#fbf3b3"></stop>
    </linearGradient>
  </defs>
  <rect class="cls-3" x=".63" width="119.37" height="119.37"></rect>
  <path class="cls-2" d="m24.47,40.98s-1.65,22.23,16.33,22.9c0,0,15.74.48,15.74-22.41l-32.08-.49Z"></path>
  <g>
    <g>
      <path class="cls-1" d="m31.37,41.75c-1.43,0-2.59-1.16-2.59-2.59v-14.5c0-1.43,1.16-2.59,2.59-2.59s2.59,1.16,2.59,2.59v14.5c0,1.43-1.16,2.59-2.59,2.59Z"></path>
      <path class="cls-1" d="m50.25,41.75c-1.43,0-2.59-1.16-2.59-2.59v-14.5c0-1.43,1.16-2.59,2.59-2.59s2.59,1.16,2.59,2.59v14.5c0,1.43-1.16,2.59-2.59,2.59Z"></path>
    </g>
    <path class="cls-1" d="m59.07,42.88H22.54c-1.43,0-2.59-1.16-2.59-2.59s1.16-2.59,2.59-2.59h36.53c1.43,0,2.59,1.16,2.59,2.59s-1.16,2.59-2.59,2.59Z"></path>
    <path class="cls-1" d="m40.81,66.79c-9.89,0-17.93-8.04-17.93-17.93v-8.58c0-1.43,1.16-2.59,2.59-2.59s2.59,1.16,2.59,2.59v8.58c0,7.03,5.72,12.74,12.74,12.74s12.74-5.72,12.74-12.74v-8.58c0-1.43,1.16-2.59,2.59-2.59s2.59,1.16,2.59,2.59v8.58c0,9.89-8.04,17.93-17.93,17.93Z"></path>
    <path class="cls-1" d="m57.76,97.3c-10.78,0-19.55-8.77-19.55-19.55v-13.55c0-1.43,1.16-2.59,2.59-2.59s2.59,1.16,2.59,2.59v13.55c0,7.92,6.44,14.36,14.36,14.36s14.36-6.44,14.36-14.36v-26.95c0-7.23,5.88-13.11,13.11-13.11s13.11,5.88,13.11,13.11v26.8c0,1.43-1.16,2.59-2.59,2.59s-2.59-1.16-2.59-2.59v-26.8c0-4.37-3.55-7.92-7.92-7.92s-7.92,3.55-7.92,7.92v26.95c0,10.78-8.77,19.55-19.55,19.55Z"></path>
    <path class="cls-1" d="m95.74,93.71c-1.43,0-2.59-1.16-2.59-2.59v-5.06c0-1.43,1.16-2.59,2.59-2.59s2.59,1.16,2.59,2.59v5.06c0,1.43-1.16,2.59-2.59,2.59Z"></path>
    <path class="cls-1" d="m46.51,52.75h-11.4c-1.43,0-2.59-1.16-2.59-2.59s1.16-2.59,2.59-2.59h11.4c1.43,0,2.59,1.16,2.59,2.59s-1.16,2.59-2.59,2.59Z"></path>
  </g>
</svg>
