<?xml version="1.0" encoding="UTF-8"?>
<svg xmlns="http://www.w3.org/2000/svg" xmlns:xlink="http://www.w3.org/1999/xlink" id="Calque_24" data-name="Calque 24" viewBox="0 0 120 120">
  <defs>
    <style>
      .cls-1 {
        fill: none;
        stroke-linecap: round;
        stroke-linejoin: round;
        stroke-width: 2px;
      }

      .cls-1, .cls-2 {
        stroke: #fff;
      }

      .cls-3 {
        font-family: PlutoMedium, Pluto;
        font-size: 15.34px;
      }

      .cls-3, .cls-4 {
        fill: #d50f33;
      }

      .cls-2 {
        fill: url(#Dégradé_sans_nom_7);
        stroke-width: 1.76px;
      }

      .cls-2, .cls-4 {
        stroke-miterlimit: 10;
      }

      .cls-4 {
        stroke: #d50f33;
        stroke-width: 1.48px;
      }
    </style>
    <linearGradient id="Dégradé_sans_nom_7" data-name="Dégradé sans nom 7" x1="11.05" y1="70.48" x2="108.19" y2="70.48" gradientTransform="translate(10.21 -7.5) rotate(7.87)" gradientUnits="userSpaceOnUse">
      <stop offset="0" stop-color="#d49f49"></stop>
      <stop offset="1" stop-color="#fbf3b3"></stop>
    </linearGradient>
  </defs>
  <rect class="cls-4" y=".76" width="119.24" height="119.24"></rect>
  <g>
    <path class="cls-1" d="m66.12,39.55h0c-3.15,0-5.7-2.55-5.7-5.7v-7.98h11.4v7.98c0,3.15-2.55,5.7-5.7,5.7Z"></path>
    <path class="cls-1" d="m77.52,39.55h0c-3.15,0-5.7-2.55-5.7-5.7v-7.98h11.4v7.98c0,3.15-2.55,5.7-5.7,5.7Z"></path>
    <path class="cls-1" d="m89.49,39.55h0c-3.46,0-6.27-2.81-6.27-6.27v-7.41h10.26c1.26,0,2.28,1.02,2.28,2.28v5.13c0,3.46-2.81,6.27-6.27,6.27Z"></path>
    <path class="cls-1" d="m54.72,39.55h0c3.15,0,5.7-2.55,5.7-5.7v-7.98h-11.4v7.98c0,3.15,2.55,5.7,5.7,5.7Z"></path>
    <path class="cls-1" d="m43.31,39.55h0c3.15,0,5.7-2.55,5.7-5.7v-7.98h-11.4v7.98c0,3.15,2.55,5.7,5.7,5.7Z"></path>
    <path class="cls-1" d="m31.34,39.55h0c3.46,0,6.27-2.81,6.27-6.27v-7.41h-10.26c-1.26,0-2.28,1.02-2.28,2.28v5.13c0,3.46,2.81,6.27,6.27,6.27Z"></path>
    <polyline class="cls-1" points="27.35 38.11 27.35 96.56 93.48 96.56 93.48 38.1"></polyline>
    <polyline class="cls-1" points="57 87.44 93.48 87.44 93.48 48.68 27.35 48.68 27.35 87.44 31.91 87.44"></polyline>
    <rect class="cls-1" x="31.91" y="48.68" width="25.08" height="47.89"></rect>
    <polyline class="cls-1" points="47.88 73.76 52.44 73.76 52.44 76.04"></polyline>
    <line class="cls-1" x1="88.92" y1="60.08" x2="68.4" y2="80.6"></line>
    <line class="cls-1" x1="79.8" y1="62.36" x2="75.24" y2="66.92"></line>
    <line class="cls-1" x1="71.82" y1="70.34" x2="68.4" y2="73.76"></line>
  </g>
  <rect class="cls-2" x="12.15" y="57.07" width="94.93" height="26.84" rx="2.24" ry="2.24" transform="translate(-9.09 8.83) rotate(-7.87)"></rect>
  <text class="cls-3" transform="translate(18.76 82.15) rotate(-7.87)">
    <tspan x="0" y="0">À VENDRE</tspan>
  </text>
</svg>
