<?xml version="1.0" encoding="UTF-8"?>
<svg xmlns="http://www.w3.org/2000/svg" xmlns:xlink="http://www.w3.org/1999/xlink" id="Calque_12" data-name="Calque 12" viewBox="0 0 120 120">
  <defs>
    <style>
      .cls-1 {
        fill: #fff;
      }

      .cls-2, .cls-3 {
        fill: #d50f33;
      }

      .cls-4 {
        fill: none;
        stroke: #fff;
        stroke-linecap: round;
        stroke-linejoin: round;
        stroke-width: 2px;
      }

      .cls-5 {
        fill: url(#Dégradé_sans_nom_7);
      }

      .cls-3 {
        stroke: #d50f33;
        stroke-miterlimit: 10;
        stroke-width: 1.48px;
      }

      .cls-6 {
        fill: url(#Dégradé_sans_nom_7-2);
      }
    </style>
    <linearGradient id="Dégradé_sans_nom_7" data-name="Dégradé sans nom 7" x1="74.08" y1="85.49" x2="91.35" y2="85.49" gradientUnits="userSpaceOnUse">
      <stop offset="0" stop-color="#d49f49"></stop>
      <stop offset="1" stop-color="#fbf3b3"></stop>
    </linearGradient>
    <linearGradient id="Dégradé_sans_nom_7-2" data-name="Dégradé sans nom 7" x1="70.09" y1="100.95" x2="95.06" y2="100.95" xlink:href="#Dégradé_sans_nom_7"></linearGradient>
  </defs>
  <rect class="cls-3" x=".49" width="119.51" height="119.51"></rect>
  <g>
    <path class="cls-4" d="m65.16,36.05h0c-2.8,0-5.07-2.27-5.07-5.07v-7.09h10.13v7.09c0,2.8-2.27,5.07-5.07,5.07Z"></path>
    <path class="cls-4" d="m75.3,36.05h0c-2.8,0-5.07-2.27-5.07-5.07v-7.09h10.13v7.09c0,2.8-2.27,5.07-5.07,5.07Z"></path>
    <path class="cls-4" d="m85.93,36.05h0c-3.08,0-5.57-2.49-5.57-5.57v-6.59h9.12c1.12,0,2.03.91,2.03,2.03v4.56c0,3.08-2.49,5.57-5.57,5.57Z"></path>
    <path class="cls-4" d="m55.03,36.05h0c2.8,0,5.07-2.27,5.07-5.07v-7.09h-10.13v7.09c0,2.8,2.27,5.07,5.07,5.07Z"></path>
    <path class="cls-4" d="m44.9,36.05h0c2.8,0,5.07-2.27,5.07-5.07v-7.09h-10.13v7.09c0,2.8,2.27,5.07,5.07,5.07Z"></path>
    <path class="cls-4" d="m34.27,36.05h0c3.08,0,5.57-2.49,5.57-5.57v-6.59h-9.12c-1.12,0-2.03.91-2.03,2.03v4.56c0,3.08,2.49,5.57,5.57,5.57Z"></path>
    <polyline class="cls-4" points="30.72 34.77 30.72 86.71 89.48 86.71 89.48 34.76"></polyline>
    <polyline class="cls-4" points="57.06 78.6 89.48 78.6 89.48 44.16 30.72 44.16 30.72 78.6 34.77 78.6"></polyline>
    <rect class="cls-4" x="34.77" y="44.16" width="22.29" height="42.55"></rect>
    <polyline class="cls-4" points="48.96 66.45 53.01 66.45 53.01 68.47"></polyline>
    <line class="cls-4" x1="85.43" y1="54.29" x2="67.19" y2="72.52"></line>
    <line class="cls-4" x1="77.32" y1="56.31" x2="73.27" y2="60.37"></line>
    <line class="cls-4" x1="70.23" y1="63.41" x2="67.19" y2="66.45"></line>
  </g>
  <polygon class="cls-2" points="71.91 95.33 79.84 72.66 81.65 71.33 84.82 71.33 94.53 97.56 71.91 95.33"></polygon>
  <g>
    <polyline class="cls-5" points="76.04 80.73 89.39 80.73 91.35 90.25 74.08 90.25 76.04 80.73"></polyline>
    <polyline class="cls-6" points="72.92 98.24 92.22 98.24 95.06 103.66 70.09 103.66 72.92 98.24"></polyline>
    <g>
      <path class="cls-1" d="m102.47,105.34h-39.8c-.74,0-1.34-.6-1.34-1.34s.6-1.34,1.34-1.34h39.8c.74,0,1.34.6,1.34,1.34s-.6,1.34-1.34,1.34Z"></path>
      <path class="cls-1" d="m95.83,104.86c-.57,0-1.09-.36-1.28-.93l-10.43-32.24h-3.13l-10.4,32.06c-.23.71-.99,1.09-1.69.86-.71-.23-1.09-.99-.86-1.69l10.7-32.98c.18-.55.7-.93,1.28-.93h5.08c.58,0,1.1.38,1.28.93l10.73,33.17c.23.71-.16,1.46-.86,1.69-.14.04-.28.07-.41.07Z"></path>
      <path class="cls-1" d="m88.05,82.07h-10.67c-.74,0-1.34-.6-1.34-1.34s.6-1.34,1.34-1.34h10.67c.74,0,1.34.6,1.34,1.34s-.6,1.34-1.34,1.34Z"></path>
      <path class="cls-1" d="m91.22,91.59h-17.65c-.74,0-1.34-.6-1.34-1.34s.6-1.34,1.34-1.34h17.65c.74,0,1.34.6,1.34,1.34s-.6,1.34-1.34,1.34Z"></path>
      <path class="cls-1" d="m93.71,100.24h-22.28c-.74,0-1.34-.6-1.34-1.34s.6-1.34,1.34-1.34h22.28c.74,0,1.34.6,1.34,1.34s-.6,1.34-1.34,1.34Z"></path>
    </g>
  </g>
</svg>
