<?xml version="1.0" encoding="UTF-8"?>
<svg xmlns="http://www.w3.org/2000/svg" xmlns:xlink="http://www.w3.org/1999/xlink" id="Calque_10" data-name="Calque 10" viewBox="0 0 120 120">
  <defs>
    <style>
      .cls-1, .cls-2 {
        stroke: #fff;
        stroke-linecap: round;
        stroke-linejoin: round;
        stroke-width: 2px;
      }

      .cls-1, .cls-3 {
        fill: #d50f33;
      }

      .cls-2 {
        fill: none;
      }

      .cls-4 {
        fill: url(#Dégradé_sans_nom_7);
      }

      .cls-3 {
        stroke: #d50f33;
        stroke-miterlimit: 10;
        stroke-width: 1.48px;
      }
    </style>
    <linearGradient id="Dégradé_sans_nom_7" data-name="Dégradé sans nom 7" x1="-8.86" y1="45.34" x2="41.94" y2="45.34" gradientTransform="translate(32.09 13.44) scale(1.02 1.11)" gradientUnits="userSpaceOnUse">
      <stop offset="0" stop-color="#d49f49"></stop>
      <stop offset="1" stop-color="#fbf3b3"></stop>
    </linearGradient>
  </defs>
  <rect class="cls-3" x="-.07" y="-.83" width="122.88" height="122.88"></rect>
  <rect class="cls-4" x="23.01" y="28.81" width="52.02" height="69.72" transform="translate(-6.72 5.79) rotate(-6.32)"></rect>
  <g>
    <path class="cls-2" d="m70.63,28.23c-.17-1.32-1.37-2.26-2.69-2.1l-46.78,5.48c-1.09.13-1.88,1.11-1.75,2.21l7.57,65.59c.13,1.09,1.11,1.88,2.21,1.75l48.21-5.56c1.09-.13,1.88-1.11,1.75-2.21l-8.52-65.15Z"></path>
    <line class="cls-2" x1="28.79" y1="40.15" x2="54.54" y2="37.47"></line>
    <line class="cls-2" x1="29.63" y1="45.06" x2="46.28" y2="43.21"></line>
    <line class="cls-2" x1="31.38" y1="62.56" x2="57.12" y2="59.49"></line>
    <line class="cls-2" x1="31.96" y1="67.98" x2="66.18" y2="64.32"></line>
    <line class="cls-2" x1="33.47" y1="79.94" x2="67.7" y2="76.02"></line>
    <line class="cls-2" x1="34.16" y1="85.68" x2="53.12" y2="83.54"></line>
    <line class="cls-2" x1="32.74" y1="73.9" x2="63.91" y2="70.29"></line>
    <path class="cls-1" d="m102.79,67.45l-2.73-1.65c-.77-.43-1.26-.87-1.68-1.3l-7.33-8.67c-2.3-2.4-4.03-5.65-7.02-7.09l-7.57-3.55c-.61-.29-1.27-.47-1.95-.53l-6.66.35-2.34.03c-.43,0-.79.32-.85.75-.24,1.79-.17,4.95,9.1,6.17l6.93,5.15"></path>
    <path class="cls-2" d="m103.71,66.34l-9.68,27.34c-.2.58.06,1.22.61,1.48l8.43,4.05c.64.31,1.41,0,1.65-.67l9.98-27.6c.22-.6-.07-1.26-.65-1.51l-8.73-3.79c-.64-.28-1.38.04-1.61.7Z"></path>
    <path class="cls-2" d="m80.7,57.12c-1.89,8.17.3,11.55,3.06,13.21"></path>
    <line class="cls-2" x1="114.29" y1="72.7" x2="130.57" y2="78.5"></line>
    <line class="cls-2" x1="105.93" y1="96.17" x2="117.95" y2="102.19"></line>
    <path class="cls-2" d="m77.85,83.46l8.29,1.31c.44.11.85.28,1.24.52l7.56,4.15"></path>
  </g>
</svg>
