<?xml version="1.0" encoding="UTF-8"?>
<svg xmlns="http://www.w3.org/2000/svg" xmlns:xlink="http://www.w3.org/1999/xlink" id="Calque_23" data-name="Calque 23" viewBox="0 0 120 120">
  <defs>
    <style>
      .cls-1 {
        fill: #fff;
      }

      .cls-2 {
        fill: url(#Dégradé_sans_nom_7);
      }

      .cls-3 {
        fill: #d50f33;
        stroke: #d50f33;
        stroke-miterlimit: 10;
        stroke-width: 1.48px;
      }

      .cls-4 {
        fill: url(#Dégradé_sans_nom_7-2);
      }
    </style>
    <linearGradient id="Dégradé_sans_nom_7" data-name="Dégradé sans nom 7" x1="44.5" y1="63.24" x2="74.97" y2="63.24" gradientUnits="userSpaceOnUse">
      <stop offset="0" stop-color="#d49f49"></stop>
      <stop offset="1" stop-color="#fbf3b3"></stop>
    </linearGradient>
    <linearGradient id="Dégradé_sans_nom_7-2" data-name="Dégradé sans nom 7" x1="37.46" y1="90.53" x2="81.51" y2="90.53" xlink:href="#Dégradé_sans_nom_7"></linearGradient>
  </defs>
  <rect class="cls-3" x="-.14" y=".76" width="119.24" height="119.24"></rect>
  <g>
    <polyline class="cls-2" points="47.96 54.85 71.52 54.85 74.97 71.64 44.5 71.64 47.96 54.85"></polyline>
    <polyline class="cls-4" points="42.46 85.75 76.52 85.75 81.51 95.3 37.46 95.3 42.46 85.75"></polyline>
    <g>
      <path class="cls-1" d="m94.6,98.28H24.37c-1.31,0-2.37-1.06-2.37-2.37s1.06-2.37,2.37-2.37h70.23c1.31,0,2.37,1.06,2.37,2.37s-1.06,2.37-2.37,2.37Z"></path>
      <path class="cls-1" d="m82.89,97.43c-1,0-1.93-.64-2.25-1.64l-18.4-56.89h-5.52l-18.35,56.56c-.4,1.24-1.74,1.93-2.98,1.52-1.24-.4-1.93-1.74-1.52-2.98l18.89-58.2c.32-.98,1.23-1.64,2.25-1.64h8.97c1.03,0,1.94.66,2.25,1.64l18.93,58.53c.4,1.24-.28,2.58-1.53,2.98-.24.08-.49.12-.73.12Z"></path>
      <path class="cls-1" d="m69.15,57.22h-18.82c-1.31,0-2.37-1.06-2.37-2.37s1.06-2.37,2.37-2.37h18.82c1.31,0,2.37,1.06,2.37,2.37s-1.06,2.37-2.37,2.37Z"></path>
      <path class="cls-1" d="m74.75,74.01h-31.15c-1.31,0-2.37-1.06-2.37-2.37s1.06-2.37,2.37-2.37h31.15c1.31,0,2.37,1.06,2.37,2.37s-1.06,2.37-2.37,2.37Z"></path>
      <path class="cls-1" d="m79.15,89.27h-39.32c-1.31,0-2.37-1.06-2.37-2.37s1.06-2.37,2.37-2.37h39.32c1.31,0,2.37,1.06,2.37,2.37s-1.06,2.37-2.37,2.37Z"></path>
    </g>
  </g>
</svg>
