<?xml version="1.0" encoding="UTF-8"?>
<svg xmlns="http://www.w3.org/2000/svg" id="Calque_1" data-name="Calque 1" viewBox="0 0 180 180">
  <defs>
    <style>
      .cls-1 {
        fill: #220a05;
      }
    </style>
  </defs>
  <path class="cls-1" d="m31.01,60.84l-2.41,3.86h-1.34l1.6-3.86h2.15Zm-5.68,5.27h7.49v1.45h-4.6v10.76h4.27v1.41h-4.27l.04,12.69h4.53v1.41h-7.42l-.04-27.71Z"></path>
  <path class="cls-1" d="m41.14,78.24h2.56c.4,0,.7-.11.93-.33.22-.22.38-.47.48-.74.1-.3.16-.66.19-1.08v-1.3c0-.4,0-.86.02-1.39s.02-1.08.02-1.65v-1.74c0-.54-.04-1.01-.13-1.39-.09-.38-.24-.69-.46-.91-.22-.22-.56-.33-1-.33h-2.6v10.87Zm6.98-2.15c0,2.4-1.46,3.6-4.38,3.6h-2.63v14.14h-2.86l.04-27.75h5.38c.57,0,1.13.06,1.67.17.54.11,1.02.31,1.43.59.41.28.74.68.98,1.19.25.51.37,1.16.37,1.95v6.12Z"></path>
  <polygon class="cls-1" points="57.35 66.11 57.35 78.28 61.47 78.28 61.47 66.11 64.32 66.11 64.32 93.83 61.47 93.83 61.47 79.69 57.35 79.69 57.35 93.83 54.49 93.83 54.45 66.11 57.35 66.11"></polygon>
  <path class="cls-1" d="m76.38,60.84l-2.41,3.86h-1.34l1.6-3.86h2.15Zm-5.68,5.27h7.49v1.45h-4.6v10.76h4.27v1.41h-4.27l.04,12.69h4.53v1.41h-7.42l-.04-27.71Z"></path>
  <polygon class="cls-1" points="83.58 66 86.4 66 89.4 84.44 92.45 66.07 95.3 66.07 95.3 93.9 92.45 93.9 92.45 74.9 90.15 88.82 87.29 88.82 85.03 74.9 85.03 93.86 83.58 93.86 83.58 66"></polygon>
  <path class="cls-1" d="m104.99,70.23l-1.85,17.07h4.16l-2.04-17.07h-.26Zm2.3-4.16l3.45,27.79h-2.6l-.63-5.12h-4.45l-.74,5.12h-1.52l3.08-27.79h3.41Z"></path>
  <path class="cls-1" d="m119.46,78.24h2.23c.4,0,.7-.11.93-.33.22-.22.38-.47.48-.74.1-.3.16-.66.19-1.08v-1.3c0-.4,0-.86.02-1.39s.02-1.08.02-1.65v-1.74c0-.54-.04-1.01-.13-1.39-.09-.38-.24-.69-.46-.91-.22-.22-.56-.33-1-.33h-2.26v10.87Zm6.64-2.15c-.05,2-1.35,3.2-3.9,3.6.1.35.24.81.43,1.39.19.58.39,1.23.61,1.95.22.72.46,1.48.7,2.3s.49,1.62.74,2.41c.57,1.88,1.17,3.91,1.82,6.08h-2.82l-3.97-14.14h-.3v14.14h-2.86l.04-27.75h5.05c.45,0,.93.06,1.45.17.52.11,1,.31,1.45.59.44.28.82.68,1.11,1.19.3.51.44,1.16.44,1.95v6.12Z"></path>
  <polygon class="cls-1" points="132.25 66.11 142.12 66.11 142.12 67.56 138.6 67.56 138.6 93.83 135.74 93.83 135.74 67.56 132.25 67.56 132.25 66.11"></polygon>
  <path class="cls-1" d="m155.22,69.93c0-1.06-.16-1.81-.48-2.24-.32-.43-.88-.65-1.67-.65s-1.3.23-1.61.69c-.31.46-.46,1.19-.46,2.21v3.64c0,.64.04,1.12.11,1.43.07.31.15.51.22.61.3.4.58.77.85,1.11.27.35.55.7.83,1.06.28.36.59.74.91,1.13.32.4.68.83,1.07,1.3.57.67,1.04,1.24,1.41,1.71.37.47.67.9.89,1.28.22.38.38.76.48,1.13s.17.8.2,1.28c.04.48.06,1.05.06,1.71v2.39c0,.89-.12,1.63-.37,2.21-.25.58-.59,1.04-1.02,1.37-.43.33-.95.56-1.56.69-.61.12-1.26.19-1.95.19-1.41,0-2.58-.36-3.51-1.08-.93-.72-1.39-1.78-1.39-3.19v-4.34h2.78v4.27c0,.67.05,1.19.15,1.58.1.38.24.68.43.89.19.21.41.35.67.41.26.06.55.09.87.09.35,0,.65-.03.93-.09.27-.06.49-.2.67-.41.17-.21.3-.51.39-.91.09-.4.13-.91.13-1.56v-4.3c0-.42-.25-.98-.74-1.69-.49-.7-1.06-1.44-1.71-2.21-.64-.77-1.29-1.51-1.95-2.24-.66-.73-1.13-1.32-1.43-1.76-.15-.22-.3-.43-.44-.61-.15-.19-.28-.44-.39-.76-.11-.32-.2-.75-.28-1.3-.07-.54-.11-1.29-.11-2.23v-2.82c0-.52.1-1.03.3-1.54.2-.51.5-.95.91-1.33.41-.38.92-.7,1.54-.95.62-.25,1.34-.37,2.15-.37,1.58,0,2.8.32,3.66.96.85.64,1.28,1.73,1.28,3.27v2.97h-2.82v-2.97Z"></path>
  <path class="cls-1" d="m20.75,117.72c0,.28.06.51.17.69.12.18.28.26.51.26.26,0,.5-.15.71-.45.21-.3.32-.67.32-1.11v-.74c-.15-.02-.28-.03-.37-.03-.2,0-.38.02-.53.07-.16.05-.28.12-.37.2-.09.09-.17.18-.23.27-.06.09-.11.2-.13.31-.03.11-.05.21-.05.28,0,.07-.01.15-.01.23m-1.39.11c0-.17.03-.34.09-.5.06-.16.16-.32.29-.47.13-.15.3-.28.49-.39.2-.11.44-.2.73-.26.29-.07.61-.1.96-.1.19,0,.37,0,.54.02v-.74c0-.23,0-.43-.01-.57,0-.15-.03-.3-.07-.45-.04-.16-.09-.28-.16-.36-.07-.08-.17-.15-.3-.21-.13-.06-.28-.08-.47-.08-.56,0-.97.21-1.23.62v.02c.07-.01.12-.02.18-.02.2,0,.36.06.47.17.12.11.17.28.17.49,0,.19-.07.34-.21.47-.14.13-.31.19-.52.19-.23,0-.4-.07-.54-.21-.13-.14-.2-.31-.2-.5,0-.42.21-.77.63-1.05.42-.28.9-.42,1.44-.42.38,0,.71.04.98.11.27.07.49.17.65.3s.29.29.38.5c.09.21.15.43.18.65.03.22.04.49.04.81v2.88l.59.05v.22h-1.83l-.16-.84h-.01c-.19.34-.42.59-.68.75s-.59.25-.97.25c-.47,0-.83-.13-1.08-.39-.25-.26-.37-.57-.37-.93"></path>
  <path class="cls-1" d="m25.64,114.05v-.22l1.2-.12.81-.2.08.15v.92h.02c.08-.14.17-.28.28-.42.11-.14.23-.26.37-.36s.27-.19.42-.25c.15-.07.3-.1.45-.1.3,0,.53.07.69.22.16.15.25.34.25.59,0,.1-.02.2-.05.29-.03.09-.08.16-.15.23-.06.06-.14.12-.23.15-.09.04-.19.06-.3.06-.12,0-.22-.02-.31-.05-.09-.04-.17-.08-.23-.14-.06-.06-.11-.13-.15-.21-.03-.08-.05-.17-.05-.26,0-.19.04-.33.13-.42v-.03c-.14.03-.27.1-.41.2-.13.11-.25.25-.36.44-.11.18-.19.4-.26.66-.07.26-.1.55-.1.87v2.66l.59.05v.22h-2.6v-.22l.59-.05v-4.66h-.71Z"></path>
  <path class="cls-1" d="m30.93,113.85v-.23h.98v-1.18l.49-.05.81-.2.11.16v1.27h1.26v.23l-1.26.05v3.76c0,.22.03.4.08.54.06.14.13.24.22.3.09.05.16.09.22.1.06.01.11.02.18.02.12,0,.23-.02.34-.07.11-.05.21-.12.3-.21.09-.09.16-.18.22-.25.06-.08.12-.17.2-.28l.25.14c-.2.31-.38.54-.53.68-.37.35-.79.52-1.26.52-.18,0-.34-.01-.48-.03-.14-.02-.28-.07-.43-.15-.15-.08-.27-.18-.37-.3-.1-.13-.18-.3-.24-.52-.06-.22-.09-.48-.09-.78v-3.46l-.98-.05Z"></path>
  <path class="cls-1" d="m36.78,111.62c0-.1.02-.19.06-.28.04-.09.1-.16.16-.22.07-.07.15-.11.24-.15.09-.04.19-.05.29-.05s.2.02.29.06c.09.04.17.09.25.15.07.06.13.14.17.22.04.09.06.18.06.27s-.02.19-.06.27c-.04.09-.09.16-.16.23-.07.07-.15.12-.24.15-.09.04-.19.06-.3.06s-.21-.02-.3-.06c-.09-.04-.17-.09-.24-.15-.07-.07-.12-.14-.16-.22-.04-.09-.06-.18-.06-.28m-.63,2.43v-.22l1.2-.12.81-.2.1.15v5.04l.59.05v.22h-2.6v-.22l.59-.05v-4.66h-.71Z"></path>
  <path class="cls-1" d="m42.2,118.89c.44,0,.76-.07.97-.23.21-.15.31-.34.31-.56,0-.12-.02-.22-.06-.31-.04-.09-.11-.18-.2-.26-.09-.08-.21-.17-.36-.26-.15-.09-.33-.19-.55-.3-.19-.1-.4-.21-.61-.32-.21-.11-.41-.24-.6-.39-.18-.15-.33-.32-.45-.52-.12-.2-.18-.43-.18-.7,0-.24.05-.46.15-.66.1-.2.24-.36.42-.5.18-.14.39-.24.64-.32.25-.07.52-.11.81-.11.22,0,.45.03.67.08.22.05.43.13.61.23.18.1.33.23.44.38.11.15.17.33.17.53,0,.08-.01.16-.04.23-.03.07-.07.14-.13.2-.06.06-.13.11-.21.15-.08.04-.18.06-.28.06-.22,0-.39-.06-.5-.17-.11-.11-.17-.25-.17-.42,0-.1.02-.19.05-.26.03-.07.07-.13.12-.18s.11-.08.18-.11c.07-.02.14-.03.2-.03h.05c-.04-.07-.09-.12-.17-.17-.07-.05-.16-.1-.26-.14-.1-.04-.21-.07-.33-.1-.12-.02-.25-.04-.39-.04-.2,0-.38.02-.52.07-.14.05-.26.11-.35.19-.09.08-.16.16-.2.25-.04.09-.06.18-.06.27,0,.1.02.19.05.27s.1.15.18.23c.09.08.21.16.36.25.15.09.34.2.57.32.22.11.46.22.71.34.25.12.47.26.68.42.21.16.38.34.52.54.14.21.2.44.2.72,0,.23-.05.44-.14.64-.09.19-.24.36-.44.5-.2.14-.45.25-.75.32-.3.08-.67.12-1.09.12-.2,0-.41-.02-.64-.07-.23-.05-.44-.12-.63-.22-.19-.1-.35-.23-.48-.4-.13-.16-.19-.36-.19-.6,0-.1.02-.19.05-.29.03-.09.08-.18.15-.25.06-.07.14-.13.23-.17.09-.04.2-.06.32-.06.1,0,.2.02.28.05.08.03.15.08.21.13.05.06.1.12.13.2.03.07.05.15.05.24,0,.1-.02.19-.06.26-.04.08-.09.14-.15.19-.06.05-.13.09-.21.11-.08.03-.16.04-.23.04h-.05s-.03,0-.05,0h0c.03.08.09.15.16.22s.16.13.26.18c.11.05.23.1.37.13.14.03.29.05.46.05"></path>
  <path class="cls-1" d="m47.44,117.72c0,.28.06.51.17.69.12.18.28.26.51.26.26,0,.5-.15.71-.45.21-.3.32-.67.32-1.11v-.74c-.15-.02-.28-.03-.37-.03-.2,0-.38.02-.53.07-.16.05-.28.12-.37.2-.09.09-.17.18-.23.27-.06.09-.11.2-.13.31-.03.11-.05.21-.05.28,0,.07-.01.15-.01.23m-1.39.11c0-.17.03-.34.09-.5.06-.16.16-.32.29-.47.13-.15.3-.28.49-.39.2-.11.44-.2.73-.26.29-.07.61-.1.96-.1.19,0,.37,0,.54.02v-.74c0-.23,0-.43-.01-.57,0-.15-.03-.3-.07-.45-.04-.16-.09-.28-.16-.36-.07-.08-.17-.15-.3-.21-.13-.06-.28-.08-.47-.08-.56,0-.97.21-1.23.62v.02c.07-.01.12-.02.18-.02.2,0,.36.06.47.17.12.11.17.28.17.49,0,.19-.07.34-.21.47-.14.13-.31.19-.52.19-.23,0-.4-.07-.54-.21-.13-.14-.2-.31-.2-.5,0-.42.21-.77.63-1.05.42-.28.9-.42,1.44-.42.38,0,.71.04.98.11.27.07.49.17.65.3s.29.29.38.5c.09.21.15.43.18.65.03.22.04.49.04.81v2.88l.59.05v.22h-1.83l-.16-.84h-.01c-.19.34-.42.59-.68.75s-.59.25-.97.25c-.47,0-.83-.13-1.08-.39-.25-.26-.37-.57-.37-.93"></path>
  <path class="cls-1" d="m52.33,113.83l1.2-.12.81-.2.1.16-.02.72h.02c.46-.62,1.05-.93,1.77-.93.14,0,.27.01.4.03.13.02.27.07.42.14.15.07.29.17.4.29.11.12.21.29.28.52.08.22.12.49.12.78v3.48l.59.05v.22h-2.59v-.22l.59-.05v-3.63c0-.76-.26-1.14-.79-1.14-.35,0-.63.15-.85.44-.22.29-.33.67-.33,1.15v3.18l.59.05v.22h-2.6v-.22l.59-.05v-4.67h-.7s-.01-.21-.01-.21Z"></path>
  <path class="cls-1" d="m61.11,117.72c0,.28.06.51.17.69.12.18.28.26.51.26.26,0,.5-.15.71-.45.21-.3.32-.67.32-1.11v-.74c-.15-.02-.28-.03-.37-.03-.2,0-.38.02-.53.07s-.28.12-.37.2c-.09.09-.17.18-.23.27-.06.09-.11.2-.13.31-.03.11-.05.21-.05.28,0,.07-.01.15-.01.23m-1.39.11c0-.17.03-.34.09-.5.06-.16.16-.32.29-.47.13-.15.3-.28.49-.39.2-.11.44-.2.73-.26.29-.07.61-.1.96-.1.19,0,.37,0,.54.02v-.74c0-.23,0-.43-.01-.57,0-.15-.03-.3-.07-.45-.04-.16-.09-.28-.16-.36-.07-.08-.17-.15-.3-.21-.13-.06-.28-.08-.47-.08-.56,0-.97.21-1.23.62v.02c.07-.01.12-.02.18-.02.2,0,.36.06.47.17.12.11.17.28.17.49,0,.19-.07.34-.21.47-.14.13-.31.19-.52.19-.23,0-.4-.07-.54-.21-.13-.14-.2-.31-.2-.5,0-.42.21-.77.63-1.05.42-.28.9-.42,1.44-.42.38,0,.71.04.98.11.27.07.49.17.65.3s.29.29.38.5c.09.21.15.43.18.65.03.22.04.49.04.81v2.88l.59.05v.22h-1.83l-.16-.84h-.01c-.19.34-.42.59-.68.75-.27.17-.59.25-.97.25-.47,0-.83-.13-1.08-.39s-.37-.57-.37-.93"></path>
  <path class="cls-1" d="m65.66,113.85v-.23h.98v-1.18l.49-.05.81-.2.11.16v1.27h1.26v.23l-1.26.05v3.76c0,.22.03.4.08.54.06.14.13.24.22.3.09.05.16.09.22.1.06.01.11.02.18.02.12,0,.23-.02.34-.07.11-.05.21-.12.3-.21s.16-.18.22-.25c.06-.08.12-.17.2-.28l.25.14c-.2.31-.38.54-.53.68-.37.35-.79.52-1.26.52-.18,0-.34-.01-.48-.03-.14-.02-.29-.07-.44-.15-.15-.08-.27-.18-.37-.3-.1-.13-.18-.3-.24-.52-.06-.22-.09-.48-.09-.78v-3.46l-.98-.05Z"></path>
  <path class="cls-1" d="m75.76,116.38c0,1.54.34,2.31,1.03,2.31.27,0,.51-.15.72-.45.21-.3.31-.63.31-.97v-3.27c-.22-.15-.46-.23-.73-.23-.18,0-.33.03-.47.1-.14.07-.26.15-.35.26-.09.1-.17.23-.24.39-.07.16-.12.31-.15.46-.03.15-.06.31-.08.5-.02.19-.03.35-.04.47,0,.13,0,.27,0,.43m-1.47.05c0-.31.03-.61.09-.89s.16-.56.29-.81c.13-.25.3-.48.5-.66.2-.19.44-.34.72-.45.29-.11.6-.16.95-.16.15,0,.32.02.52.07.2.04.36.11.47.21v-1.95h-.71v-.22l1.2-.12.81-.2.11.15v7.31l.59.05v.22h-1.92l-.07-.76h-.01c-.22.35-.45.59-.7.72-.24.13-.53.19-.87.19-.09,0-.18,0-.28-.03-.1-.02-.22-.05-.35-.1-.13-.05-.26-.12-.38-.2-.12-.08-.24-.19-.36-.33-.12-.14-.22-.3-.31-.49-.09-.18-.16-.41-.21-.67-.05-.27-.08-.56-.08-.88"></path>
  <path class="cls-1" d="m81.3,111.99c0-.18.06-.34.18-.5.12-.16.29-.23.53-.23.25,0,.44.09.57.28.13.19.19.41.19.68,0,.22-.03.44-.09.65-.06.21-.19.42-.38.65-.19.23-.44.42-.74.57l-.09-.27c.3-.14.52-.33.65-.55.13-.22.2-.43.2-.63h-.02c-.1.06-.21.1-.33.1-.19,0-.35-.07-.47-.21s-.19-.32-.19-.53"></path>
  <path class="cls-1" d="m85.41,117.72c0,.28.06.51.17.69.12.18.28.26.51.26.26,0,.5-.15.71-.45.21-.3.32-.67.32-1.11v-.74c-.15-.02-.28-.03-.37-.03-.2,0-.38.02-.53.07s-.28.12-.37.2-.17.18-.23.27c-.06.09-.11.2-.13.31-.03.11-.05.21-.05.28,0,.07-.01.15-.01.23m-1.39.11c0-.17.03-.34.09-.5.06-.16.16-.32.29-.47.13-.15.3-.28.49-.39.2-.11.44-.2.73-.26.29-.07.61-.1.96-.1.19,0,.37,0,.54.02v-.74c0-.23,0-.43-.01-.57,0-.15-.03-.3-.07-.45-.04-.16-.09-.28-.16-.36-.07-.08-.17-.15-.3-.21-.13-.06-.28-.08-.47-.08-.56,0-.97.21-1.23.62v.02c.07-.01.12-.02.18-.02.2,0,.36.06.47.17.12.11.17.28.17.49,0,.19-.07.34-.21.47-.14.13-.31.19-.52.19-.23,0-.4-.07-.54-.21-.13-.14-.2-.31-.2-.5,0-.42.21-.77.63-1.05.42-.28.9-.42,1.44-.42.38,0,.71.04.98.11.27.07.49.17.65.3s.29.29.38.5c.09.21.15.43.18.65.03.22.04.49.04.81v2.88l.59.05v.22h-1.83l-.16-.84h-.01c-.19.34-.42.59-.68.75-.27.17-.59.25-.97.25-.47,0-.83-.13-1.08-.39s-.37-.57-.37-.93"></path>
  <path class="cls-1" d="m90.31,114.05v-.22l1.2-.12.81-.2.08.15v.92h.02c.08-.14.17-.28.28-.42.11-.14.23-.26.37-.36s.27-.19.42-.25c.15-.07.3-.1.45-.1.3,0,.53.07.69.22.16.15.24.34.24.59,0,.1-.02.2-.05.29-.03.09-.08.16-.15.23-.06.06-.14.12-.23.15-.09.04-.19.06-.3.06-.12,0-.22-.02-.31-.05-.09-.04-.17-.08-.23-.14-.06-.06-.11-.13-.15-.21-.03-.08-.05-.17-.05-.26,0-.19.04-.33.13-.42v-.03c-.14.03-.27.1-.41.2-.13.11-.25.25-.36.44-.11.18-.19.4-.26.66-.07.26-.1.55-.1.87v2.66l.59.05v.22h-2.6v-.22l.59-.05v-4.66h-.71Z"></path>
  <path class="cls-1" d="m95.59,113.85v-.23h.98v-1.18l.49-.05.81-.2.11.16v1.27h1.26v.23l-1.26.05v3.76c0,.22.03.4.08.54.06.14.13.24.22.3.09.05.16.09.22.1.06.01.11.02.18.02.12,0,.23-.02.34-.07.11-.05.21-.12.3-.21s.16-.18.22-.25c.06-.08.12-.17.2-.28l.25.14c-.2.31-.38.54-.53.68-.37.35-.79.52-1.26.52-.18,0-.34-.01-.48-.03-.14-.02-.28-.07-.43-.15-.15-.08-.27-.18-.37-.3-.1-.13-.18-.3-.24-.52-.06-.22-.09-.48-.09-.78v-3.46l-.98-.05Z"></path>
  <path class="cls-1" d="m105.69,115.9l1.86-.07c.01-.18.02-.35.02-.52,0-.51-.07-.91-.2-1.18-.13-.28-.35-.42-.66-.42-.18,0-.34.06-.48.17-.13.11-.23.27-.31.48-.07.21-.13.44-.16.68-.04.25-.06.53-.07.86m-1.47.41c0-.28.03-.55.09-.81.06-.27.15-.52.28-.77.13-.25.29-.46.48-.65.19-.19.42-.33.7-.45.28-.11.59-.17.92-.17.32,0,.6.04.86.13.25.08.47.2.63.35s.31.33.42.55c.11.21.19.45.24.7.05.25.07.53.07.82l-.16.13h-3.06v.33c0,1.55.48,2.33,1.43,2.33.68,0,1.21-.31,1.62-.94l.22.13c-.49.77-1.2,1.16-2.11,1.16s-1.54-.25-1.98-.76c-.44-.51-.65-1.2-.65-2.08"></path>
  <path class="cls-1" d="m110.02,113.85v-.23h.98v-1.18l.5-.05.81-.2.11.16v1.27h1.26v.23l-1.26.05v3.76c0,.22.03.4.08.54.06.14.13.24.22.3.09.05.16.09.22.1.06.01.11.02.18.02.12,0,.23-.02.34-.07.11-.05.21-.12.3-.21s.16-.18.22-.25c.06-.08.12-.17.2-.28l.25.14c-.2.31-.38.54-.53.68-.36.35-.79.52-1.26.52-.18,0-.34-.01-.48-.03-.14-.02-.28-.07-.43-.15-.15-.08-.27-.18-.37-.3-.1-.13-.18-.3-.24-.52-.06-.22-.1-.48-.1-.78v-3.46l-.98-.05Z"></path>
  <path class="cls-1" d="m118.64,116.34c0-.26.03-.53.1-.79.07-.26.17-.52.31-.77.14-.25.32-.47.52-.67.21-.19.46-.35.76-.47.3-.12.63-.18.99-.18.53,0,.98.14,1.33.42.35.28.53.61.53.99,0,.19-.07.36-.2.49-.13.13-.31.2-.54.2-.21,0-.38-.06-.52-.19-.13-.12-.2-.28-.2-.47,0-.18.06-.33.19-.46.12-.13.28-.19.48-.19.03,0,.07,0,.14.01v-.03c-.05-.07-.1-.14-.16-.2-.06-.06-.17-.13-.33-.2-.15-.07-.32-.11-.51-.11-.34,0-.62.12-.83.35-.22.23-.37.54-.46.91s-.13.81-.13,1.32c0,1.64.47,2.46,1.42,2.46.12,0,.24,0,.34-.03.11-.02.23-.06.37-.12.14-.06.29-.15.43-.29.14-.14.28-.31.41-.51l.22.12c-.47.79-1.15,1.19-2.03,1.19-1.76,0-2.64-.94-2.64-2.81"></path>
  <path class="cls-1" d="m124.54,114.05v-.22l1.2-.12.81-.2.08.15v.92h.02c.08-.14.17-.28.28-.42.11-.14.23-.26.37-.36.13-.1.27-.19.42-.25.15-.07.3-.1.45-.1.3,0,.53.07.69.22.16.15.24.34.24.59,0,.1-.02.2-.05.29-.03.09-.08.16-.15.23-.06.06-.14.12-.23.15s-.19.06-.3.06c-.12,0-.22-.02-.31-.05-.09-.04-.17-.08-.23-.14-.06-.06-.11-.13-.15-.21-.03-.08-.05-.17-.05-.26,0-.19.04-.33.13-.42v-.03c-.14.03-.27.1-.41.2-.13.11-.25.25-.36.44-.11.18-.19.4-.26.66-.07.26-.1.55-.1.87v2.66l.59.05v.22h-2.6v-.22l.59-.05v-4.66h-.71Z"></path>
  <path class="cls-1" d="m132.35,112.67l.64-1.7c.03-.11.1-.2.19-.26.1-.07.2-.1.32-.1.15,0,.27.05.37.14.1.1.15.21.15.35,0,.17-.06.31-.18.43l-1.28,1.28-.21-.14Zm-.66,3.22l1.86-.07c.01-.18.02-.35.02-.52,0-.51-.07-.91-.2-1.18-.13-.28-.35-.42-.66-.42-.18,0-.34.06-.47.17-.13.11-.24.27-.31.48-.07.21-.13.44-.16.68-.04.25-.06.53-.07.86m-1.47.41c0-.28.03-.55.09-.81.06-.27.15-.52.28-.77.13-.25.29-.46.48-.65.19-.19.42-.33.7-.45.28-.11.59-.17.92-.17.32,0,.61.04.86.13.25.08.46.2.63.35.17.15.31.33.42.55.11.21.19.45.24.7.05.25.07.53.07.82l-.16.13h-3.06v.33c0,1.55.48,2.33,1.43,2.33.68,0,1.21-.31,1.62-.94l.22.13c-.49.77-1.2,1.16-2.11,1.16s-1.54-.25-1.98-.76c-.44-.51-.65-1.2-.65-2.08"></path>
  <path class="cls-1" d="m137.8,117.72c0,.28.06.51.17.69.12.18.28.26.51.26.26,0,.5-.15.71-.45.21-.3.32-.67.32-1.11v-.74c-.15-.02-.28-.03-.37-.03-.2,0-.38.02-.53.07-.16.05-.28.12-.37.2s-.17.18-.23.27c-.06.09-.11.2-.13.31-.03.11-.05.21-.06.28,0,.07-.01.15-.01.23m-1.39.11c0-.17.03-.34.09-.5.06-.16.16-.32.29-.47.13-.15.3-.28.49-.39.2-.11.44-.2.73-.26.29-.07.61-.1.96-.1.19,0,.37,0,.54.02v-.74c0-.23,0-.43-.01-.57,0-.15-.03-.3-.07-.45-.04-.16-.09-.28-.16-.36-.07-.08-.17-.15-.3-.21-.13-.06-.28-.08-.47-.08-.56,0-.97.21-1.23.62v.02c.07-.01.12-.02.18-.02.2,0,.36.06.47.17.11.11.17.28.17.49,0,.19-.07.34-.21.47-.14.13-.31.19-.52.19-.23,0-.41-.07-.54-.21-.13-.14-.2-.31-.2-.5,0-.42.21-.77.62-1.05.42-.28.9-.42,1.44-.42.38,0,.71.04.98.11.27.07.49.17.65.3s.29.29.38.5c.09.21.15.43.18.65.03.22.04.49.04.81v2.88l.59.05v.22h-1.83l-.16-.84h-.01c-.19.34-.42.59-.68.75-.27.17-.59.25-.97.25-.47,0-.83-.13-1.08-.39-.25-.26-.37-.57-.37-.93"></path>
  <path class="cls-1" d="m142.35,113.85v-.23h.98v-1.18l.5-.05.81-.2.11.16v1.27h1.26v.23l-1.26.05v3.76c0,.22.03.4.08.54.06.14.13.24.22.3.09.05.16.09.22.1.06.01.11.02.18.02.12,0,.23-.02.34-.07.11-.05.21-.12.3-.21s.16-.18.22-.25c.06-.08.12-.17.19-.28l.25.14c-.2.31-.38.54-.53.68-.37.35-.79.52-1.26.52-.18,0-.34-.01-.48-.03-.14-.02-.28-.07-.43-.15-.15-.08-.28-.18-.37-.3-.1-.13-.18-.3-.24-.52-.06-.22-.09-.48-.09-.78v-3.46l-.98-.05Z"></path>
  <path class="cls-1" d="m148.2,111.62c0-.1.02-.19.06-.28.04-.09.09-.16.16-.22.07-.07.15-.11.24-.15.09-.04.19-.05.29-.05s.2.02.29.06c.09.04.17.09.24.15.07.06.13.14.17.22.04.09.06.18.06.27s-.02.19-.06.27c-.04.09-.09.16-.16.23-.07.07-.15.12-.24.15-.09.04-.19.06-.3.06s-.21-.02-.3-.06-.17-.09-.24-.15c-.07-.07-.12-.14-.16-.22-.04-.09-.06-.18-.06-.28m-.63,2.43v-.22l1.2-.12.81-.2.1.15v5.04l.59.05v.22h-2.6v-.22l.59-.05v-4.66h-.71Z"></path>
  <path class="cls-1" d="m153.14,116.27c0,.39.02.75.06,1.06.04.31.11.59.2.83.09.24.21.42.36.55s.33.19.53.19c.77,0,1.16-.85,1.16-2.56,0-.43-.02-.8-.05-1.11-.04-.31-.1-.58-.18-.82-.09-.24-.21-.41-.36-.53-.15-.12-.34-.17-.56-.17-.2,0-.38.06-.53.19-.15.13-.27.31-.36.54-.09.23-.15.5-.2.81-.04.3-.06.64-.06,1.02m-1.47.06c0-.54.11-1.03.34-1.46.22-.44.54-.78.94-1.03.4-.25.86-.38,1.37-.38.42,0,.8.08,1.14.24.34.16.61.38.82.65s.36.57.47.91c.11.33.16.68.16,1.04,0,.52-.11,1-.32,1.43-.22.43-.52.77-.92,1.03-.4.26-.86.38-1.36.38-.45,0-.85-.07-1.19-.22-.34-.15-.62-.35-.83-.61-.21-.26-.37-.56-.47-.89-.1-.33-.16-.69-.16-1.08"></path>
  <path class="cls-1" d="m158.29,113.83l1.2-.12.81-.2.1.16-.02.72h.02c.46-.62,1.05-.93,1.77-.93.14,0,.27.01.4.03.13.02.27.07.42.14.15.07.29.17.4.29.11.12.2.29.28.52.08.22.11.49.11.78v3.48l.59.05v.22h-2.59v-.22l.59-.05v-3.63c0-.76-.26-1.14-.79-1.14-.34,0-.63.15-.85.44-.22.29-.33.67-.33,1.15v3.18l.59.05v.22h-2.6v-.22l.59-.05v-4.67h-.7s-.01-.21-.01-.21Z"></path>
  <rect class="cls-1" x="69.08" y="128.36" width="2.95" height=".59"></rect>
  <path class="cls-1" d="m79.32,128.23s.12,0,.24,0c.68,0,1.16-.16,1.44-.46.28-.31.42-.77.42-1.38,0-.31-.04-.57-.12-.78-.08-.21-.19-.38-.34-.5-.15-.12-.31-.2-.48-.25-.18-.05-.38-.07-.61-.07-.15,0-.33.01-.55.04v3.4Zm-2.36,3.88v-.25l.89-.05v-7.02l-.89-.05v-.24h3.07c.43,0,.81.03,1.15.1.34.07.65.17.92.32.27.15.48.34.63.59s.22.54.22.88c0,.61-.22,1.08-.66,1.42-.44.34-1.04.56-1.79.66h0c.32.01.6.06.84.15.24.09.42.21.56.36.14.14.27.33.4.56.08.16.2.4.36.72.16.32.31.61.46.86.12.2.25.36.39.47.14.11.25.18.34.2s.2.04.32.04v.29h-.96c-.29,0-.52-.02-.69-.05-.17-.03-.34-.12-.5-.24-.17-.13-.32-.3-.45-.53-.13-.23-.35-.7-.67-1.42-.05-.11-.11-.24-.2-.41-.09-.17-.16-.3-.22-.38-.06-.09-.14-.18-.22-.28-.09-.1-.17-.16-.26-.21-.09-.04-.19-.06-.29-.06-.17,0-.3,0-.39,0v3.28l.89.05v.25h-3.25Z"></path>
  <path class="cls-1" d="m86.42,129.02l1.86-.07c.01-.18.02-.35.02-.52,0-.51-.07-.91-.2-1.18-.13-.28-.35-.42-.66-.42-.18,0-.34.06-.47.17-.13.11-.24.27-.31.48-.07.21-.13.44-.16.68-.04.25-.06.53-.07.86m-1.47.41c0-.28.03-.55.09-.81.06-.27.15-.52.28-.77.13-.25.29-.46.48-.65.19-.18.42-.33.7-.45.28-.11.59-.17.92-.17.32,0,.6.04.86.13.25.08.46.2.63.35.17.15.31.33.42.55.11.21.19.45.24.7.05.25.07.53.07.82l-.16.13h-3.06v.33c0,1.55.48,2.33,1.43,2.33.68,0,1.21-.31,1.62-.94l.22.13c-.5.77-1.2,1.16-2.11,1.16s-1.54-.25-1.98-.76c-.44-.51-.65-1.2-.65-2.08"></path>
  <path class="cls-1" d="m91.68,124.75c0-.1.02-.19.06-.28.04-.09.09-.16.16-.22.07-.07.15-.11.24-.15.09-.04.19-.05.29-.05s.2.02.29.06c.09.04.17.09.25.15.07.06.13.14.17.22.04.09.06.18.06.27s-.02.19-.06.27c-.04.09-.09.16-.16.23-.07.07-.15.12-.24.15-.09.04-.19.06-.3.06s-.21-.02-.3-.06-.17-.09-.24-.15c-.07-.07-.12-.14-.16-.22-.04-.09-.06-.18-.06-.28m-.63,2.43v-.22l1.2-.12.81-.2.1.15v5.04l.59.05v.22h-2.6v-.22l.59-.05v-4.66h-.71Z"></path>
  <path class="cls-1" d="m95.02,127.18v-.22l1.2-.12.81-.2.08.15v.72h.02c.46-.62,1.01-.93,1.65-.93.13,0,.26.01.39.04.13.03.26.07.4.14.14.07.27.17.38.31.12.14.21.31.27.51h.01c.51-.67,1.11-1,1.8-1,.13,0,.26.01.39.04.13.02.26.07.41.15.15.08.27.18.38.3.11.12.2.3.27.53.07.23.11.49.11.79v3.44l.59.05v.22h-2.6v-.22l.59-.05v-3.63c0-.21-.02-.39-.06-.54-.04-.15-.09-.26-.14-.34-.05-.07-.12-.13-.19-.17-.08-.04-.14-.07-.19-.07-.05,0-.1-.01-.16-.01-.26,0-.51.13-.75.4-.24.26-.37.63-.37,1.08v3.29l.59.05v.22h-2.6v-.22l.59-.05v-3.63c0-.21-.02-.39-.06-.54-.04-.15-.08-.26-.14-.34-.05-.07-.12-.13-.19-.17-.07-.04-.14-.07-.18-.07-.05,0-.1-.01-.16-.01-.25,0-.49.15-.72.46-.23.31-.35.68-.35,1.13v3.18l.59.05v.22h-2.6v-.22l.59-.05v-4.66h-.71Z"></path>
  <path class="cls-1" d="m107.48,132.01c.44,0,.76-.07.97-.23.21-.15.31-.34.31-.56,0-.12-.02-.22-.06-.31-.04-.09-.11-.18-.2-.26-.09-.08-.21-.17-.36-.26-.15-.09-.33-.19-.55-.3-.19-.1-.4-.21-.61-.32-.21-.11-.41-.24-.6-.39-.18-.15-.33-.32-.45-.52-.12-.2-.18-.43-.18-.7,0-.24.05-.46.15-.66.1-.2.24-.36.42-.5.18-.14.39-.24.64-.32.25-.07.52-.11.81-.11.22,0,.45.02.67.08.22.05.43.13.61.23.18.1.33.23.44.38.11.15.17.33.17.53,0,.08-.01.16-.04.23-.03.07-.07.14-.13.2-.06.06-.13.11-.21.15-.08.04-.18.06-.28.06-.22,0-.39-.06-.5-.17-.11-.11-.17-.25-.17-.42,0-.1.02-.19.05-.26.03-.07.07-.13.12-.18.05-.05.11-.08.18-.11.07-.02.14-.03.2-.03h.05c-.04-.07-.09-.12-.17-.17-.07-.05-.16-.1-.26-.14-.1-.04-.21-.07-.33-.1-.12-.02-.25-.04-.39-.04-.2,0-.38.03-.52.07-.14.05-.26.11-.35.19-.09.08-.16.16-.2.25s-.06.18-.06.27c0,.1.02.19.05.27.03.07.1.15.18.23.09.08.21.16.36.25.15.09.34.2.57.32.22.11.46.22.7.34.25.12.47.26.68.42.21.16.38.34.52.54.14.21.2.44.2.72,0,.23-.05.44-.14.64-.09.19-.24.36-.44.5-.2.14-.45.25-.75.32-.3.08-.67.11-1.09.11-.2,0-.41-.02-.64-.07-.23-.05-.44-.12-.63-.22-.19-.1-.35-.23-.48-.4-.13-.16-.19-.36-.19-.6,0-.1.02-.19.05-.29.04-.09.08-.18.15-.25s.14-.13.23-.17c.09-.04.2-.06.32-.06.1,0,.2.02.28.05.08.03.15.08.21.13.06.06.1.12.13.2.03.07.05.15.05.24,0,.1-.02.19-.06.26-.04.08-.09.14-.15.19-.06.05-.13.09-.21.11-.08.03-.16.04-.23.04h-.05s-.03,0-.05,0h0c.03.08.09.15.16.22.07.07.16.13.26.18.11.05.23.1.37.13.14.03.29.05.46.05"></path>
  <rect class="cls-1" x="114.84" y="128.36" width="2.95" height=".59"></rect>
  <path class="cls-1" d="m83.2,55.84v-.25l.89-.05v-7.02l-.89-.05v-.24h3.25v.24l-.89.05v6.97c.63.04,1.05.06,1.28.06.21,0,.4,0,.56-.02.16-.01.31-.03.44-.07s.24-.07.33-.11c.09-.04.18-.1.26-.18.08-.08.15-.16.2-.24.05-.08.12-.24.2-.47.08-.23.15-.5.21-.79h.2v2.18h-6.03Z"></path>
  <path class="cls-1" d="m90.5,55.84v-.25l.89-.05v-7.02l-.89-.05v-.24h5.67l.06,2.17h-.24c-.05-.24-.09-.45-.15-.62-.05-.17-.13-.34-.22-.51-.1-.17-.21-.31-.34-.41-.13-.1-.29-.18-.49-.25-.2-.07-.44-.1-.7-.1-.33,0-.74.02-1.23.05v3.17c.12.01.32.02.63.02.4,0,.69-.09.86-.27.17-.18.26-.52.26-1h.32v2.87h-.32c0-.48-.09-.82-.26-1.01s-.46-.29-.86-.29c-.3,0-.5,0-.63.02v3.43c.49.04.98.05,1.46.05.23,0,.43-.02.6-.05.17-.03.32-.09.45-.17.13-.08.23-.17.32-.26.09-.1.17-.22.23-.38.07-.15.12-.31.16-.46.04-.15.09-.34.13-.57h.25l-.06,2.18h-5.91Z"></path>
  <path class="cls-1" d="m100.95,48.33c-.28,0-.52.03-.73.09-.21.06-.38.15-.53.26-.14.11-.25.24-.32.4-.07.16-.11.33-.11.51,0,.13.02.26.06.39.04.13.12.26.25.39.13.13.31.27.55.41s.56.3.97.46c.47.2.86.39,1.19.56.32.17.59.36.79.56.2.2.35.42.44.66.09.24.14.53.14.87,0,.26-.06.51-.17.77-.11.26-.28.49-.5.69-.22.2-.51.37-.85.49-.34.13-.74.19-1.19.19-.51,0-.93-.04-1.28-.13-.35-.09-.62-.2-.83-.34-.21-.14-.36-.3-.45-.47-.09-.18-.14-.35-.14-.53,0-.12.02-.23.06-.33.04-.1.09-.19.17-.27.07-.08.17-.14.28-.18.11-.04.23-.07.37-.07.13,0,.24.02.35.06.1.04.19.1.26.17.07.07.13.15.17.25.04.09.06.2.06.31,0,.25-.08.44-.24.57-.16.13-.36.19-.61.19v.02s.08.07.16.12c.08.05.19.1.33.15.14.05.31.09.52.13.21.04.45.06.73.06.23,0,.46-.03.69-.09.23-.06.43-.14.61-.25.18-.11.32-.24.43-.39.11-.15.17-.33.17-.52,0-.16-.03-.32-.1-.46-.07-.14-.19-.29-.37-.44-.18-.15-.43-.31-.75-.48-.32-.17-.74-.36-1.25-.58-.38-.15-.69-.31-.94-.49-.24-.18-.44-.37-.58-.57s-.24-.41-.29-.63c-.05-.22-.08-.44-.08-.67,0-.29.06-.57.17-.83.12-.26.28-.49.5-.68.22-.19.49-.35.81-.46.32-.11.69-.17,1.1-.17s.74.04,1.03.13c.29.09.54.2.73.34.19.14.34.3.43.49.1.19.14.38.14.59,0,.11-.02.21-.06.31-.04.1-.09.18-.17.26-.07.07-.16.13-.27.18-.11.04-.23.07-.37.07-.13,0-.24-.02-.35-.06-.1-.04-.19-.09-.27-.16-.08-.07-.13-.15-.17-.24-.04-.09-.06-.19-.06-.3,0-.12.02-.23.07-.33.05-.1.11-.18.19-.24.08-.07.17-.12.28-.15.11-.03.22-.05.35-.05v-.02s-.07-.07-.14-.12c-.07-.06-.16-.11-.29-.17-.12-.06-.27-.1-.45-.14-.18-.04-.39-.06-.64-.06"></path>
  <rect class="cls-1" x="16.82" y="102.71" width="7.53" height=".87" transform="translate(-66.9 44.77) rotate(-45)"></rect>
  <rect class="cls-1" x="24.86" y="99.37" width=".87" height="7.53" transform="translate(-65.52 48.1) rotate(-45)"></rect>
  <rect class="cls-1" x="26.24" y="102.71" width="7.53" height=".87" transform="translate(-64.14 51.43) rotate(-45)"></rect>
  <rect class="cls-1" x="34.28" y="99.37" width=".87" height="7.53" transform="translate(-62.76 54.76) rotate(-45)"></rect>
  <rect class="cls-1" x="35.7" y="102.71" width="7.53" height=".87" transform="translate(-61.37 58.11) rotate(-45)"></rect>
  <rect class="cls-1" x="43.74" y="99.37" width=".87" height="7.53" transform="translate(-59.99 61.45) rotate(-45)"></rect>
  <rect class="cls-1" x="45.12" y="102.71" width="7.53" height=".87" transform="translate(-58.61 64.78) rotate(-45)"></rect>
  <rect class="cls-1" x="53.16" y="99.37" width=".87" height="7.53" transform="translate(-57.23 68.11) rotate(-45)"></rect>
  <rect class="cls-1" x="54.58" y="102.71" width="7.53" height=".87" transform="translate(-55.84 71.46) rotate(-45)"></rect>
  <rect class="cls-1" x="62.62" y="99.37" width=".87" height="7.53" transform="translate(-54.46 74.79) rotate(-45)"></rect>
  <rect class="cls-1" x="64" y="102.71" width="7.53" height=".87" transform="translate(-53.08 78.13) rotate(-45)"></rect>
  <rect class="cls-1" x="72.04" y="99.37" width=".87" height="7.53" transform="translate(-51.7 81.46) rotate(-45)"></rect>
  <rect class="cls-1" x="73.45" y="102.71" width="7.53" height=".87" transform="translate(-50.31 84.81) rotate(-45)"></rect>
  <rect class="cls-1" x="81.5" y="99.37" width=".87" height="7.53" transform="translate(-48.93 88.14) rotate(-45)"></rect>
  <rect class="cls-1" x="82.88" y="102.71" width="7.53" height=".87" transform="translate(-47.55 91.48) rotate(-45)"></rect>
  <rect class="cls-1" x="90.92" y="99.37" width=".87" height="7.53" transform="translate(-46.17 94.81) rotate(-45)"></rect>
  <rect class="cls-1" x="92.33" y="102.71" width="7.53" height=".87" transform="translate(-44.79 98.16) rotate(-45)"></rect>
  <rect class="cls-1" x="100.37" y="99.37" width=".87" height="7.53" transform="translate(-43.41 101.49) rotate(-45)"></rect>
  <rect class="cls-1" x="101.75" y="102.71" width="7.53" height=".87" transform="translate(-42.03 104.82) rotate(-45)"></rect>
  <rect class="cls-1" x="109.8" y="99.37" width=".87" height="7.53" transform="translate(-40.65 108.15) rotate(-45)"></rect>
  <rect class="cls-1" x="111.21" y="102.71" width="7.53" height=".87" transform="translate(-39.26 111.51) rotate(-45)"></rect>
  <rect class="cls-1" x="119.25" y="99.37" width=".87" height="7.53" transform="translate(-37.88 114.84) rotate(-45)"></rect>
  <rect class="cls-1" x="120.63" y="102.71" width="7.53" height=".87" transform="translate(-36.5 118.17) rotate(-45)"></rect>
  <rect class="cls-1" x="128.68" y="99.37" width=".87" height="7.53" transform="translate(-35.12 121.5) rotate(-45)"></rect>
  <rect class="cls-1" x="130.09" y="102.71" width="7.53" height=".87" transform="translate(-33.73 124.86) rotate(-45)"></rect>
  <rect class="cls-1" x="138.13" y="99.37" width=".87" height="7.53" transform="translate(-32.35 128.19) rotate(-45)"></rect>
  <rect class="cls-1" x="139.51" y="102.71" width="7.53" height=".87" transform="translate(-30.97 131.52) rotate(-45)"></rect>
  <rect class="cls-1" x="147.55" y="99.37" width=".87" height="7.53" transform="translate(-29.59 134.85) rotate(-45)"></rect>
  <rect class="cls-1" x="148.97" y="102.71" width="7.53" height=".87" transform="translate(-28.2 138.21) rotate(-45)"></rect>
  <rect class="cls-1" x="157.01" y="99.37" width=".87" height="7.53" transform="translate(-26.82 141.54) rotate(-45)"></rect>
  <rect class="cls-1" x="158.39" y="102.71" width="7.53" height=".87" transform="translate(-25.44 144.87) rotate(-45)"></rect>
  <rect class="cls-1" x="166.43" y="99.37" width=".87" height="7.53" transform="translate(-24.06 148.2) rotate(-45)"></rect>
</svg>
