<?xml version="1.0" encoding="UTF-8"?>
<svg xmlns="http://www.w3.org/2000/svg" xmlns:xlink="http://www.w3.org/1999/xlink" id="Calque_1" data-name="Calque 1" viewBox="0 0 100 100">
  <defs>
    <style>
      .cls-1 {
        clip-path: url(#clippath-2);
      }

      .cls-2 {
        fill: #220a05;
      }

      .cls-3 {
        clip-path: url(#clippath-1);
      }

      .cls-4 {
        clip-path: url(#clippath);
      }
    </style>
    <clipPath id="clippath">
      <path class="cls-2" d="m82.44,79.45c-.81,3.28-3.78,6.28-7.4,6.28-3.48,0-6.43-2.89-7.4-6.28h-3.22c.62,3.59,5.18,6.89,10.63,6.88,5.48,0,10.07-3.39,10.63-6.88h-3.25Z"></path>
    </clipPath>
    <clipPath id="clippath-1">
      <path class="cls-2" d="m75.74,76.59v6.51c0,.4-.32.7-.71.7s-.65-.29-.65-.7v-6.51h-2.97c0,4.28.63,7.75,3.63,7.75s3.63-3.47,3.63-7.75h-2.93Z"></path>
    </clipPath>
    <clipPath id="clippath-2">
      <path class="cls-2" d="m79.04,78.02c0,.12,0,.45,0,.57-.24,4.18-1.42,6.08-4.03,6.12-2.35-.04-3.64-1.65-3.97-6.12-.01-.12-.01-.45,0-.57h-3.16c.14,3.95,3.42,7.28,7.16,7.28s7.08-3.1,7.16-7.28h-3.14Z"></path>
    </clipPath>
  </defs>
  <g>
    <path class="cls-2" d="m24.56,28.15v2.51c0,3.03-1.51,4.76-4.44,4.76s-4.44-1.73-4.44-4.76v-9.85c0-3.03,1.52-4.76,4.44-4.76s4.44,1.73,4.44,4.76v1.84h-2.81v-2.03c0-1.35-.59-1.87-1.54-1.87s-1.54.52-1.54,1.87v10.23c0,1.35.6,1.84,1.54,1.84s1.54-.48,1.54-1.84v-2.71h2.81Z"></path>
    <path class="cls-2" d="m32.6,35.21c-.16-.49-.27-.78-.27-2.33v-2.98c0-1.76-.59-2.41-1.95-2.41h-1.03v7.71h-2.98v-18.95h4.49c3.09,0,4.41,1.43,4.41,4.36v1.49c0,1.95-.62,3.22-1.95,3.84,1.49.62,1.97,2.06,1.97,4.03v2.92c0,.92.03,1.6.32,2.3h-3.03Zm-3.25-16.24v5.82h1.16c1.11,0,1.78-.49,1.78-2v-1.87c0-1.35-.46-1.95-1.51-1.95h-1.43Z"></path>
    <polygon class="cls-2" points="37.25 16.27 37.25 35.21 45.37 35.21 45.37 32.5 40.22 32.5 40.22 26.96 44.31 26.96 44.31 24.25 40.22 24.25 40.22 18.97 45.37 18.97 45.37 16.27 42.4 16.27 44.47 14 41.55 14 40.17 16.25 37.25 16.27"></polygon>
    <path class="cls-2" d="m56.83,35.21h-3l-.52-3.44h-3.65l-.51,3.44h-2.73l3.03-18.95h4.36l3.03,18.95Zm-6.79-6.01h2.87l-1.43-9.58-1.43,9.58Z"></path>
    <path class="cls-2" d="m56.32,16.27h9.19v2.7h-3.11v16.24h-2.97v-16.24h-3.11v-2.7Z"></path>
    <path class="cls-2" d="m66.81,16.27h2.97v18.95h-2.97v-18.95Z"></path>
    <path class="cls-2" d="m76.44,31.72l2.28-15.46h2.73l-2.92,18.95h-4.44l-2.92-18.95h3l2.27,15.46Z"></path>
    <path class="cls-2" d="m82.82,19.13v-2.87h2.87v2.57l-1.3,3h-1.21l.78-2.7h-1.14Z"></path>
  </g>
  <g>
    <path class="cls-2" d="m15.69,37.31h5.29v28.85h8.7v4.81h-13.98v-33.66Z"></path>
    <path class="cls-2" d="m49.08,70.97h-5.33l-.91-6.11h-6.49l-.91,6.11h-4.85l5.38-33.66h7.74l5.38,33.66Zm-12.06-10.67h5.09l-2.55-17.02-2.55,17.02Z"></path>
    <path class="cls-2" d="m67.34,45.05v1.2c0,3.46-1.06,5.67-3.41,6.78,2.84,1.11,3.94,3.66,3.94,7.21v2.74c0,5.19-2.74,7.98-8.03,7.98h-8.31v-33.66h7.98c5.48,0,7.83,2.55,7.83,7.74Zm-10.53-2.93v8.89h2.07c1.97,0,3.17-.87,3.17-3.56v-1.87c0-2.4-.82-3.46-2.69-3.46h-2.55Zm0,13.7v10.34h3.03c1.78,0,2.74-.82,2.74-3.32v-2.93c0-3.12-1.01-4.09-3.41-4.09h-2.36Z"></path>
    <path class="cls-2" d="m85.69,37.31v4.71l-10.04,24.13h10.04v4.81h-15.47v-4.71l10.04-24.13h-9.56v-4.81h14.99Z"></path>
  </g>
  <rect class="cls-2" x="15.69" y="73.41" width="70" height=".87"></rect>
  <g>
    <path class="cls-2" d="m15.99,76.66v9.61h-.3v-9.61h.3Z"></path>
    <path class="cls-2" d="m17.38,86.27h-.29v-9.61h.43l3.38,8.99v-8.99h.29v9.61h-.37l-3.43-9.17v9.17Z"></path>
    <path class="cls-2" d="m26.29,79.02v.74h-.3v-.75c0-1.17-.44-2.14-1.7-2.14s-1.72.97-1.72,2.14v4.92c0,1.17.44,2.13,1.72,2.13s1.7-.96,1.7-2.13v-1.06h.3v1.04c0,1.33-.55,2.43-2.02,2.43s-2-1.1-2-2.43v-4.89c0-1.33.55-2.43,2-2.43s2.02,1.1,2.02,2.43Z"></path>
    <path class="cls-2" d="m27.64,83.91c0,1.15.41,2.16,1.69,2.16s1.69-1,1.69-2.16v-7.25h.29v7.24c0,1.32-.52,2.44-1.98,2.44s-1.99-1.12-1.99-2.44v-7.24h.3v7.25Z"></path>
    <path class="cls-2" d="m34.31,76.66c1.4,0,1.85.7,1.85,1.99v.62c0,1.07-.29,1.72-1.37,1.88,1.14.16,1.56.95,1.56,2.06v.85c0,1.36-.58,2.21-2.03,2.21h-1.93v-9.61h1.92Zm-.37,4.37c1.33,0,1.92-.31,1.92-1.72v-.65c0-1.13-.34-1.72-1.55-1.72h-1.62v4.08h1.25Zm.38,4.96c1.26,0,1.73-.71,1.73-1.92v-.87c0-1.39-.66-1.9-1.98-1.9h-1.39v4.68h1.63Z"></path>
    <path class="cls-2" d="m38.23,84l-.56,2.27h-.27l2.32-9.63h.43l2.37,9.63h-.3l-.56-2.27h-3.42Zm.05-.27h3.31l-1.67-6.73-1.63,6.73Z"></path>
    <path class="cls-2" d="m44.84,86.27v-9.32h-2.08v-.29h4.49v.29h-2.1v9.32h-.3Z"></path>
    <path class="cls-2" d="m51.21,81.26v.27h-2.83v4.45h3.36v.29h-3.67v-9.61h3.67v.29h-3.36v4.31h2.83Z"></path>
    <path class="cls-2" d="m53.1,83.91c0,1.15.41,2.16,1.69,2.16s1.69-1,1.69-2.16v-7.25h.29v7.24c0,1.32-.52,2.44-1.98,2.44s-1.99-1.12-1.99-2.44v-7.24h.3v7.25Z"></path>
    <path class="cls-2" d="m59.75,76.66c1.43,0,1.98.84,1.98,2.16v.87c0,1.18-.47,1.83-1.52,2.02,1.07.16,1.52.86,1.52,1.92v1.51c0,.37.04.84.26,1.14h-.33c-.19-.3-.23-.73-.23-1.14v-1.51c0-1.41-.85-1.78-2.1-1.78h-1.18v4.44h-.3v-9.61h1.91Zm-.43,4.89c1.33,0,2.1-.34,2.1-1.83v-.88c0-1.16-.45-1.89-1.69-1.89h-1.59v4.6h1.18Z"></path>
  </g>
  <g>
    <g>
      <path class="cls-2" d="m82.44,79.45c-.81,3.28-3.78,6.28-7.4,6.28-3.48,0-6.43-2.89-7.4-6.28h-3.22c.62,3.59,5.18,6.89,10.63,6.88,5.48,0,10.07-3.39,10.63-6.88h-3.25Z"></path>
      <g class="cls-4">
        <rect class="cls-2" x="64.83" y="73.7" width="20.46" height="18.64" transform="translate(-35.81 67.69) rotate(-40.01)"></rect>
      </g>
    </g>
    <g>
      <path class="cls-2" d="m75.74,76.59v6.51c0,.4-.32.7-.71.7s-.65-.29-.65-.7v-6.51h-2.97c0,4.28.63,7.75,3.63,7.75s3.63-3.47,3.63-7.75h-2.93Z"></path>
      <g class="cls-3">
        <rect class="cls-2" x="69.78" y="75.16" width="10.54" height="10.6" transform="translate(-34.17 67.1) rotate(-40.02)"></rect>
      </g>
    </g>
    <g>
      <path class="cls-2" d="m79.04,78.02c0,.12,0,.45,0,.57-.24,4.18-1.42,6.08-4.03,6.12-2.35-.04-3.64-1.65-3.97-6.12-.01-.12-.01-.45,0-.57h-3.16c.14,3.95,3.42,7.28,7.16,7.28s7.08-3.1,7.16-7.28h-3.14Z"></path>
      <g class="cls-1">
        <rect class="cls-2" x="67.26" y="74.41" width="15.53" height="14.63" transform="translate(-34.99 67.39) rotate(-40.02)"></rect>
      </g>
    </g>
  </g>
</svg>
