<?xml version="1.0" encoding="UTF-8"?>
<svg xmlns="http://www.w3.org/2000/svg" id="Calque_1_Calque_3_Calque_2_Image" data-name="Calque 1 + Calque 3 + Calque 2 Image" viewBox="0 0 100 100">
  <defs>
    <style>
      .cls-1 {
        fill: #fff;
      }
    </style>
  </defs>
  <path class="cls-1" d="m11.85,59.73c0-7.21,0-14.41,0-21.62,25,0,50,0,75,0,0,7.21,0,14.41,0,21.62-25,0-50,0-75,0Zm70.22-14.98h4.73v-1.39c-.19,0-.37,0-.55,0h-1.63c-.18,0-.36,0-.54,0-.18,0-.35,0-.53,0-.03-.36-.01-.94.03-1.07h2.83c.03-.21.02-1.22-.01-1.35-.06,0-.12,0-.18,0-.52,0-1.03,0-1.55,0-.32,0-.64,0-.97,0-.14,0-.15-.01-.15-.15,0-.25,0-.51,0-.76,0-.06,0-.11.02-.18,1.09-.01,2.16,0,3.23-.01.03-.24.02-1.28,0-1.38h-4.72v6.31Zm-18.56-5.05c-.62-.97-2.1-1.68-3.56-1.27-1.25.35-2.53,1.59-2.4,3.45.09,1.24.99,2.68,2.81,2.98.64.11,1.28.01,1.88-.27.51-.24.93-.6,1.29-1.07-.4-.3-.8-.58-1.2-.86-.79.93-1.91.96-2.68.3-.73-.63-.87-1.72-.18-2.54.34-.4.78-.61,1.3-.63.64-.02,1.16.25,1.56.75.4-.29.79-.57,1.19-.85Zm13.92,5.33s.03-.01.04-.02c1.21-2.16,2.42-4.32,3.63-6.47.01-.02.01-.04.02-.06,0,0,0-.01,0-.01,0,0,0,0,0-.02h-1.69c-.17.32-.34.64-.51.95-.32.59-.64,1.17-.96,1.76-.13.24-.26.49-.4.73-.07.12-.13.12-.21,0,0-.01-.01-.03-.02-.04-.36-.65-.71-1.3-1.07-1.95-.25-.45-.5-.9-.74-1.36-.05-.09-.11-.11-.2-.11-.47,0-.94,0-1.41,0-.05,0-.09,0-.14,0,.02.12,3.49,6.33,3.67,6.59Zm-27.38-.27c.09,0,.14,0,.2,0,.45,0,.91,0,1.36,0,.12,0,.18-.03.24-.13.16-.31.33-.62.5-.93.26-.47.51-.94.77-1.42.17-.32.35-.64.52-.96.01-.02.02-.05.04-.07.05-.07.09-.07.15,0,.01.02.02.04.03.05.38.69.75,1.38,1.13,2.06.22.41.44.82.66,1.22.01.02.02.05.04.07.04.07.09.09.17.09.51,0,1.01,0,1.52,0,.02,0,.04,0,.08-.01-1.23-2.2-2.45-4.39-3.69-6.6-1.24,2.21-2.46,4.4-3.7,6.61Zm-28.55-2.12c.09-.04.17-.08.24-.12.18-.11.34-.23.49-.39.25-.26.41-.55.53-.88.09-.25.07-.52.08-.78,0-.18-.04-.34-.09-.51-.09-.3-.24-.56-.44-.79-.23-.26-.5-.45-.81-.59-.2-.09-.42-.15-.66-.14-.03,0-.06-.01-.09-.02-.05-.01-.11-.04-.16-.04-.62,0-1.24,0-1.85,0-.06,0-.11.01-.16.04-.07.03-.16,0-.24,0-.04,0-.09-.03-.13-.03-.09,0-.18,0-.27,0-.19,0-.23.04-.23.23,0,2.02,0,4.05,0,6.07,0,.05,0,.09,0,.13.25.03.76.02.88-.02,0-.05,0-.11,0-.17,0-.54,0-1.08,0-1.63,0-.14.01-.16.13-.16.53,0,1.07,0,1.6,0,.04,0,.08,0,.1.06,0,.02.03.04.04.04.08,0,.1.06.13.12.21.32.42.65.62.97.16.24.32.48.48.72.05.07.1.1.18.09.27,0,.54,0,.81,0,.03,0,.07,0,.13-.01-.03-.06-.04-.11-.07-.15-.13-.2-.27-.4-.4-.61-.07-.11-.14-.22-.21-.33-.19-.29-.38-.58-.57-.87-.04-.06-.08-.13-.05-.21Zm9.39-4.18v6.35h.88c0-.08,0-.15,0-.21,0-1.47,0-2.94,0-4.41,0-.06.01-.11.02-.17.13.01.15.12.21.19.2.25.4.5.6.75.12.14.23.28.35.43.27.35.54.7.81,1.05.05.07.11.12.1.19.07.06.13.1.18.15.26.33.51.67.77,1,.24.31.49.62.73.93.04.05.1.11.16.12.21.01.42,0,.64,0,0-.1.02-.17.02-.25,0-1.97,0-3.95,0-5.92,0-.05,0-.11,0-.16,0-.07-.05-.11-.13-.11-.19,0-.38,0-.57,0-.13,0-.21.09-.22.22,0,.03,0,.05,0,.08,0,.93,0,1.85,0,2.78,0,.04,0,.08,0,.11.04.14.02.28,0,.43-.02.24-.04.48.02.72.01.06,0,.12,0,.18-.2.03-.2.03-.31-.11-.13-.16-.25-.33-.38-.49-.3-.38-.6-.76-.89-1.14-.05-.06-.07-.15-.16-.18-.01,0-.02-.02-.03-.03-.08-.1-.15-.22-.24-.31-.07-.07-.1-.16-.15-.23-.12-.16-.26-.3-.38-.46-.16-.2-.31-.4-.47-.6-.2-.25-.41-.48-.59-.74-.13-.19-.27-.27-.5-.25-.16.02-.33-.03-.49.09Zm39.06-.01h-5.56v1.48c.06,0,.12,0,.18,0,.53,0,1.07,0,1.6,0,.08,0,.15.01.24.02v4.8c.2.04,1.38.03,1.49,0,0-.05,0-.11,0-.17,0-1.47,0-2.95,0-4.42,0-.03,0-.06,0-.09,0-.11.02-.13.13-.13.03,0,.06,0,.09,0,.56,0,1.13,0,1.69,0,.04,0,.09,0,.14-.01v-1.46Zm-24.81,3.59h3.35c.01-.3.03-.59,0-.88h-3.33c-.03-.2-.03-1.77.01-1.9h3.77c0-.26,0-.5,0-.74,0-.08-.05-.12-.13-.14-.04,0-.08,0-.13,0-1.39,0-2.78,0-4.16,0-.04,0-.07,0-.11,0-.12.01-.16.05-.16.17,0,.11,0,.21,0,.32,0,1.92,0,3.84,0,5.77,0,.06,0,.12.01.18.39.03,4.55.02,4.68-.02,0-.28.01-.56,0-.86h-3.79v-1.9Zm-18.8-3.66c-.1.23-.21.45-.31.68-.12.26-.24.53-.36.79-.12.26-.23.52-.35.78-.19.42-.39.84-.58,1.26-.24.54-.48,1.07-.72,1.61-.17.38-.35.76-.53,1.15-.02.05-.03.11-.04.17h.94c.03-.09.06-.18.09-.26.13-.3.26-.6.39-.9.05-.12.12-.24.17-.36.04-.09.1-.13.2-.12.08,0,.16.01.24.01.87,0,1.73,0,2.6-.01.17,0,.27.07.35.19.04.06.07.13.1.2.15.36.3.73.46,1.09.04.1.11.18.25.17.22-.01.44,0,.66,0,.04,0,.08,0,.12-.02,0-.03,0-.06-.01-.07-.08-.19-.16-.38-.25-.56-.11-.24-.23-.48-.34-.73-.25-.55-.49-1.11-.74-1.66-.17-.37-.35-.74-.52-1.12-.2-.44-.41-.89-.6-1.34-.14-.31-.27-.62-.41-.95h-.82Zm16.97,1.01s-.03-.04-.04-.05c-.36-.36-.78-.64-1.25-.83-.13-.05-.26-.1-.4-.13-.32-.06-.65-.08-.98-.07-.29.01-.57.03-.85.13-.36.13-.7.29-1.01.53-.64.49-1.01,1.14-1.2,1.91-.07.28-.05.56-.06.85-.01.33.04.66.14.97.15.47.4.89.74,1.25.3.33.67.56,1.07.73.11.05.23.1.35.13.15.03.31.05.47.07.02,0,.05.02.07.02.04.01.07.03.11.04.32.02.64-.01.96-.08.1-.02.2-.02.29-.05.24-.1.48-.2.71-.32.17-.09.3-.24.49-.3.01,0,.02-.02.03-.03.05-.06.1-.12.15-.18.07-.09.18-.15.21-.23-.2-.21-.38-.41-.56-.61-.04.03-.07.05-.1.08-.18.2-.4.35-.62.5-.21.14-.43.23-.67.28-.51.11-1.02.11-1.5-.1-.14-.06-.28-.13-.4-.22-.33-.25-.61-.54-.77-.92-.13-.3-.24-.6-.22-.93,0-.16,0-.32,0-.47,0-.09,0-.18.02-.27.12-.58.37-1.07.84-1.44.16-.12.32-.25.5-.31.21-.07.44-.12.66-.16.27-.04.54.03.8.02.01,0,.02,0,.03,0,.15.07.31.14.46.2.24.09.44.24.63.4.09.08.18.16.27.24.2-.22.4-.44.6-.66Zm-26.62-.12c0-.27,0-.5,0-.74,0-.09-.05-.14-.13-.15-.04,0-.07,0-.11,0-1.4,0-2.81,0-4.21,0-.2,0-.23.03-.23.23,0,2.04,0,4.08,0,6.12,0,.03,0,.06.01.09.25.03.78.02.9-.02,0-.05,0-.1,0-.15,0-.77,0-1.54,0-2.31,0-.05,0-.1,0-.14,0-.05.03-.09.09-.09.03,0,.06,0,.1,0,.8,0,1.59,0,2.39,0,.08,0,.16.03.25.05.15-.12.36,0,.54-.07v-.81c-.08,0-.15,0-.21,0-.97,0-1.94,0-2.91,0-.05,0-.1,0-.14,0-.07,0-.1-.04-.1-.11,0-.03,0-.05,0-.08,0-.54,0-1.09,0-1.63,0-.06,0-.11,0-.19h3.76Zm55.99,5.49v-6.31h-1.51v6.31h1.51Zm-33.18,11.18c-.27-.04-.53-.02-.79-.01-.07,0-.1.04-.13.1-.23.38-.46.75-.69,1.13-.02.03-.04.06-.06.09-.09.13-.21.13-.3,0-.25-.41-.51-.81-.75-1.22-.04-.06-.08-.09-.15-.09-.22,0-.43,0-.65,0-.03,0-.07.01-.09.02,0,.02-.01.02-.01.03-.01.13.04.27-.05.4,0,.01,0,.05,0,.06.06.07.04.15.04.23,0,.93,0,1.85,0,2.78,0,.06,0,.11.01.18.21,0,.41,0,.6,0,.1,0,.14-.04.15-.14,0-.04,0-.08,0-.13,0-.58,0-1.17,0-1.75v-.17c.08-.03.13-.02.17.05.05.09.11.18.17.26.1.16.21.32.31.47.09.14.18.28.28.42.03.04.07.07.13.12.08-.13.15-.25.22-.36.21-.32.42-.64.63-.96.03-.04.08-.07.15-.12,0,.11.02.17.02.24,0,.59,0,1.18,0,1.77,0,.1,0,.2.01.29h.76c.01-1.22,0-2.44,0-3.66Zm14.56,2.01c-.09.02-.14.02-.19-.04-.08-.1-.17-.2-.25-.31-.17-.22-.33-.44-.49-.66-.23-.31-.47-.62-.7-.93-.04-.06-.09-.08-.16-.08-.17,0-.35,0-.52,0-.03,0-.07.01-.11.02,0,.15,0,.29,0,.43,0,1,0,2,0,3,0,.07.01.14.02.22h.76v-2.12c.13-.05.2.01.26.1.21.29.42.58.64.86.28.37.57.73.85,1.1.03.04.07.07.13.07.15,0,.3,0,.44,0,.09,0,.13-.04.15-.13,0-.04,0-.08,0-.13,0-1.08,0-2.17,0-3.25v-.17c-.27,0-.52-.02-.76,0-.1.35-.06.68-.06,1.01,0,.34,0,.67,0,1.01Zm29.18,1.66c.1-.28,0-.56.07-.82,0-.01-.01-.03-.01-.05,0-.08-.01-.17,0-.25,0-.1.03-.21.03-.31,0-.59,0-1.18,0-1.77,0-.16-.04-.32-.06-.49-.26,0-.51,0-.76,0v2.02c-.12.04-.19,0-.25-.08-.16-.22-.32-.44-.49-.66-.27-.36-.55-.71-.81-1.06-.11-.14-.21-.25-.41-.22-.14.02-.28,0-.43.01-.04,0-.08.01-.1.02.01.09.03.17.03.24,0,1.04,0,2.08,0,3.11,0,.04,0,.08,0,.13,0,.13.04.17.17.17.12,0,.23,0,.35,0,.27,0,.27,0,.27-.27,0-.58,0-1.16,0-1.74,0-.09,0-.17.01-.3.07.06.11.09.14.13.1.13.19.27.3.41.21.28.43.56.65.83.2.26.41.52.6.79.06.08.14.13.24.14.16.01.32,0,.48,0Zm-6.44,0c0-.07,0-.12,0-.17.01-.11-.02-.23.03-.34.05-.11-.05-.22-.03-.34.02-.2,0-.41,0-.62,0-.22,0-.43,0-.65,0-.05-.02-.12.06-.15.02,0,.04.02.05.03.09.12.19.23.27.35.14.22.32.42.48.63.21.28.42.55.63.83.08.11.16.22.25.32.04.05.1.1.15.11.19.01.38,0,.59,0,.01-1.23,0-2.44,0-3.67-.27-.02-.52-.03-.79,0v2.02c-.09.03-.16.02-.21-.05-.03-.05-.08-.09-.11-.13-.29-.38-.58-.77-.87-1.16-.15-.2-.31-.39-.46-.59-.06-.07-.12-.11-.21-.11-.15,0-.31,0-.46,0-.04,0-.08.01-.13.02v.15c0,1.1,0,2.19,0,3.29,0,.03,0,.05,0,.08,0,.1.04.15.15.15.19,0,.39,0,.61,0Zm-10.95,0c0-.07,0-.12,0-.18,0-.27,0-.55,0-.82,0-.17.04-.2.21-.2.11,0,.21,0,.32,0,.06,0,.11.02.15.07.02.04.05.08.08.12.19.28.37.56.56.84.08.12.18.19.34.18.17-.01.34,0,.51,0,.04,0,.08,0,.12-.01q.01-.11-.03-.17c-.09-.12-.18-.25-.26-.37-.15-.21-.29-.43-.43-.64-.06-.09-.05-.14.05-.2.09-.06.19-.12.27-.19.13-.11.23-.26.29-.42.08-.19.05-.38.05-.58,0-.26-.08-.49-.26-.69-.22-.23-.5-.38-.81-.39-.6-.03-1.2-.02-1.8-.03-.05,0-.1.01-.16.02v.15c0,1.09,0,2.18,0,3.27,0,.03,0,.06,0,.09,0,.1.04.14.15.15.22,0,.43,0,.67,0Zm2.86-3.68s0,.07,0,.09c0,1.13,0,2.26,0,3.4,0,.16.03.19.19.19.37,0,.74,0,1.11,0,.18,0,.36,0,.55-.05.37-.11.72-.25.99-.52.32-.32.5-.69.52-1.15,0-.07,0-.15,0-.22.01-.3-.09-.56-.23-.82-.04-.08-.08-.17-.12-.24-.05-.04-.11-.07-.16-.12-.21-.2-.45-.34-.72-.45-.09-.04-.19-.08-.29-.09-.56-.02-1.12-.02-1.68-.03-.05,0-.09,0-.15.01Zm-19.32,2.22c.22,0,.42,0,.62,0,.13,0,.19.06.2.19,0,.08,0,.16,0,.24,0,.12-.04.16-.15.21-.11.05-.23.05-.34.11-.05.03-.15.02-.19-.01-.06-.05-.12-.04-.18-.04-.11,0-.23,0-.33-.03-.38-.12-.67-.54-.65-.88,0-.11,0-.22,0-.33-.01-.29.14-.51.32-.71.04-.05.1-.1.16-.13.15-.07.29-.15.46-.16.19-.01.38,0,.55.08.17.08.33.17.51.27.14-.2.34-.37.48-.62-.22-.11-.39-.27-.63-.34-.2-.06-.4-.12-.62-.12-.05,0-.1-.03-.13-.04-.09.02-.16.03-.23.05-.1.02-.2.02-.3.04-.18.04-.34.12-.51.21-.28.15-.48.36-.64.61-.14.22-.25.45-.26.72,0,.12-.05.24-.05.36,0,.12.03.24.06.36.02.1.05.2.08.3.04.13.07.26.18.37.12.11.18.27.33.35.07.04.14.08.19.13.17.18.42.22.64.27.29.07.59.05.88,0,.08-.01.15-.04.22-.07.16-.06.32-.11.47-.18.12-.05.22-.14.33-.21.08-.05.11-.1.11-.19,0-.46,0-.93,0-1.39,0-.03,0-.07-.01-.11h-1.56v.68Zm26.01-2.22s-.07-.01-.1-.01c-.81,0-1.63,0-2.44,0-.06,0-.12,0-.19.02,0,.06,0,.11,0,.16,0,1.1,0,2.19,0,3.29,0,.07.01.14.02.23h.18c.7,0,1.39,0,2.09,0,.11,0,.22,0,.33,0,.08,0,.13-.03.15-.11.05-.16.04-.32.01-.48-.03-.16-.04-.17-.21-.17-.52,0-1.04,0-1.57,0-.07,0-.14,0-.23-.01,0-.25-.01-.48,0-.73.58,0,1.13,0,1.7,0,0-.26,0-.5,0-.74-.13.05-1.48.06-1.7.02,0-.2,0-.4,0-.61,0-.04.05-.09.09-.12.03-.02.08-.01.12-.01.52,0,1.04,0,1.57,0,.06,0,.11,0,.17,0v-.7Zm9.46,2.18c.07,0,.13,0,.19,0,.44,0,.89,0,1.33,0,.06,0,.12,0,.18-.01v-.69c-.07,0-.12,0-.18,0-.45,0-.9,0-1.35,0-.14,0-.18-.04-.18-.18,0-.12,0-.24,0-.36,0-.19.04-.22.22-.22.52,0,1.03,0,1.55,0h.18v-.71c-.91-.02-1.82,0-2.74,0,0,.07-.01.13-.01.19,0,.14,0,.27,0,.41,0,.96,0,1.93,0,2.89,0,.04,0,.07,0,.11,0,.06.04.09.09.09.04,0,.08,0,.13,0,.64,0,1.29,0,1.93,0,.14,0,.29,0,.43,0,.13,0,.17-.04.17-.17,0-.16,0-.33,0-.49,0-.03-.01-.06-.02-.1-.33,0-.65,0-.97,0-.32,0-.64,0-.96-.01v-.73Zm-28.45-1.47c.19,0,.35,0,.51,0s.33,0,.49,0,.32,0,.47,0c.16,0,.32.01.49,0,0-.24,0-.46,0-.68-.2-.04-2.59-.04-2.73,0v.17c0,.95,0,1.89,0,2.84,0,.15,0,.31,0,.46,0,.15.03.18.17.18.81,0,1.62,0,2.44,0,.13,0,.17-.04.17-.17,0-.16,0-.32,0-.47,0-.03-.01-.07-.02-.11-.07,0-.12,0-.18,0-.52,0-1.03,0-1.55,0-.08,0-.16,0-.26-.02-.02-.25-.02-.48,0-.72.58,0,1.14,0,1.71-.01.04-.24.02-.46.02-.7-.08,0-.14,0-.19,0-.43,0-.87,0-1.3,0-.04,0-.07,0-.11,0-.08,0-.13-.05-.13-.13,0-.2,0-.41,0-.63Zm-25.35-.7c-.26-.02-.5-.03-.75,0,0,.09,0,.16,0,.24.01.08-.05.14-.05.21,0,.07.05.14.05.2,0,.21,0,.41,0,.62,0,.04,0,.08-.01.12-.32.03-.63-.03-.94.06-.09.03-.2.03-.28-.05-.02-.02-.06,0-.09,0-.06,0-.11,0-.18,0,0-.48,0-.94,0-1.41-.24,0-.46,0-.68,0-.08,0-.12.07-.1.15.01.06.02.11.02.17,0,.99,0,1.98,0,2.97,0,.08.01.15-.04.23-.02.03,0,.1-.01.16.24,0,.46,0,.68,0,.08,0,.13-.05.14-.13,0-.04,0-.08,0-.13,0-.35,0-.71,0-1.06,0-.06,0-.11,0-.16.3-.04,1.36-.02,1.49.02,0,.05.01.11.01.16,0,.36,0,.73,0,1.09,0,.16.03.19.19.2.13,0,.25,0,.38,0,.16,0,.2-.04.2-.19,0-.93,0-1.85,0-2.78,0-.08.02-.17.04-.27-.09-.11-.01-.26-.05-.43Zm2.04-.03c-.13.31-.25.61-.38.91-.12.28-.24.56-.36.84-.12.26-.24.53-.35.79-.13.31-.26.63-.4.94-.03.07-.06.13-.02.22.17,0,.34,0,.52,0,.18,0,.25-.05.32-.22.06-.16.13-.32.19-.49.04-.1.1-.13.2-.13.44,0,.88,0,1.31,0,.04,0,.08.01.12.01.04.09.07.17.1.25.05.14.09.28.15.41.04.09.1.16.21.16.17,0,.35,0,.52,0,.13,0,.16-.07.11-.19-.07-.15-.14-.31-.21-.46-.17-.39-.33-.78-.5-1.18-.07-.18-.19-.34-.15-.53-.05-.04-.1-.06-.12-.1-.1-.22-.18-.44-.27-.65-.07-.16-.14-.33-.21-.49-.03-.06-.06-.11-.14-.1-.21,0-.41,0-.64,0Zm11.8,0c-.05.12-.1.22-.15.32-.17.41-.34.82-.51,1.22-.16.37-.33.74-.49,1.11-.12.28-.24.57-.36.85-.06.13-.03.19.11.19.17,0,.34,0,.51,0,.07,0,.12-.03.15-.09.02-.04.04-.09.06-.13.07-.17.14-.34.2-.51.03-.08.09-.11.17-.11.44,0,.89,0,1.33,0,.09,0,.14.03.16.11.06.17.13.33.19.5.06.16.13.22.3.22.16,0,.33,0,.49,0,.03,0,.06-.01.1-.02-.02-.06-.02-.11-.04-.16-.18-.43-.36-.86-.54-1.29-.2-.47-.4-.94-.6-1.41-.1-.24-.21-.48-.31-.72-.02-.05-.05-.1-.12-.1-.21,0-.42,0-.64,0Zm17.73,2.87s0,0,0,0c.21,0,.42,0,.63,0,.15,0,.16,0,.22.15.07.17.14.34.21.51.04.1.11.17.22.17.17,0,.35,0,.52,0,.11,0,.14-.05.09-.15-.09-.2-.18-.4-.27-.61-.11-.28-.22-.56-.33-.83-.16-.38-.33-.76-.5-1.14-.12-.28-.24-.55-.35-.83-.04-.1-.1-.15-.21-.14-.12,0-.23,0-.35,0-.25,0-.25,0-.35.24-.15.37-.31.75-.46,1.12-.12.28-.24.55-.35.83-.19.45-.38.9-.57,1.35-.05.12-.03.16.11.16.15,0,.31,0,.46,0,.14,0,.19-.05.24-.18.07-.19.16-.37.23-.55.03-.08.08-.11.17-.11.22,0,.43,0,.65,0Zm-22.32.84c.21,0,.38,0,.55,0,.18,0,.21-.03.21-.21,0-.25,0-.51,0-.76,0-.11.04-.15.15-.16.08,0,.16,0,.24,0,.29.02.57-.01.85-.09.07-.02.14-.04.2-.08.29-.2.54-.43.61-.8.09-.45.02-.86-.31-1.2-.23-.23-.51-.36-.84-.37-.49-.02-.98-.01-1.47-.02-.07,0-.13,0-.21.01-.02.11-.04.21-.04.31,0,1.03,0,2.05,0,3.08,0,.09.03.18.05.29Zm-12.88-3.17c-.32-.34-.71-.54-1.17-.55-.06,0-.11,0-.16-.04-.03-.02-.12-.02-.14,0-.05.05-.11.04-.16.04-.27.02-.53.1-.76.24-.12.07-.22.18-.34.25-.21.13-.31.34-.41.55-.14.3-.21.62-.19.95.03.47.2.89.53,1.23.29.3.65.48,1.06.52.23.02.46,0,.69,0,.05,0,.1,0,.14-.02.21-.1.44-.17.63-.32.1-.09.2-.18.31-.29-.15-.14-.28-.26-.4-.39-.11-.11-.12-.1-.25,0-.11.09-.2.2-.36.21-.07,0-.13.02-.2.04-.07.02-.13.05-.2.06-.18.03-.34-.06-.5-.1-.07-.02-.14-.07-.2-.12-.26-.21-.39-.49-.43-.81-.04-.29.05-.57.2-.81.09-.15.23-.27.41-.36.26-.13.54-.13.8-.06.18.05.36.13.49.27.03.03.07.06.11.09.16-.2.32-.38.48-.58Zm54.91-6.32s.03.04.03.06c-.02.3-.14.52-.44.61-.28.09-.56.06-.83-.08-.05-.02-.09-.05-.15-.08-.07.09-.13.17-.19.25.08.1.1.12.2.16.35.14.71.15,1.08.05.35-.09.67-.47.64-.86-.01-.18,0-.37.05-.55.09-.37.16-.75.24-1.13.01-.06.02-.12.02-.19h-.3s-.04.08-.06.13c-.03,0-.05-.01-.06-.02-.26-.15-.53-.19-.82-.12-.36.09-.62.29-.78.63-.09.2-.08.4-.07.6.02.27.15.48.4.6.3.15.6.14.9,0,.04-.02.07-.04.12-.06Zm-4.37-1.63s-.03,0-.04,0c-.01,0-.02,0-.03-.01-.26-.15-.52-.19-.82-.12-.36.09-.62.29-.78.62-.09.2-.09.41-.07.62.02.26.14.46.38.58.29.15.6.15.9.01.05-.02.1-.05.15-.07.04.29-.11.55-.37.65-.27.1-.55.09-.81-.04-.07-.03-.13-.07-.21-.11-.06.09-.13.17-.19.26.1.12.22.14.33.19.2.08.41.06.62.07.2,0,.38-.05.54-.15.27-.16.44-.4.44-.74,0-.13-.01-.26.01-.38.08-.43.18-.85.28-1.28.02-.07.02-.15.04-.24h-.3s-.04.08-.05.12Zm-22.4,1.69c.22.18.45.23.72.22.33-.01.6-.15.81-.39.25-.28.31-.6.26-.96-.03-.24-.14-.44-.35-.58-.29-.19-.6-.2-.92-.05-.06.03-.11.05-.18.09,0-.05-.02-.09-.02-.13h-.3c-.19.92-.39,1.82-.58,2.74.1,0,.19,0,.28,0,.06,0,.08-.03.09-.09.04-.24.09-.49.14-.73,0-.03.02-.07.04-.12Zm24.76-1.63c-.33-.26-.68-.28-1.04-.16-.55.19-.94.84-.71,1.46.09.24.25.43.51.5.25.07.5.06.74-.05.05-.02.1-.03.16-.05v.13c.06,0,.1,0,.15,0,.05,0,.09,0,.16,0,.14-.67.28-1.33.43-2-.37-.06-.35,0-.39.17Zm3.25.89h.54c.18,0,.37,0,.55,0,.18,0,.35,0,.55,0-.01-.19.01-.37-.04-.52-.16-.47-.43-.6-.85-.59-.8.01-1.29.74-1.08,1.45.07.24.21.42.44.53.34.17.89.12,1.22-.16.01,0,.01-.03.03-.06-.06-.07-.13-.14-.2-.21-.15.09-.28.2-.45.21-.17,0-.34,0-.48-.1-.16-.13-.27-.29-.24-.53Zm-19.84,0h1.65c.06-.13.03-.25.02-.36-.04-.41-.25-.64-.65-.73-.15-.04-.3-.02-.45,0-.41.08-.68.32-.83.7-.07.18-.05.36-.05.55,0,.3.24.63.55.74.22.08.44.07.66.03.2-.03.38-.13.52-.3-.07-.07-.14-.14-.21-.21-.29.2-.58.3-.9.12-.21-.11-.27-.31-.31-.55Zm-8.74,0c.06-.15.03-.29.02-.42-.04-.31-.21-.52-.5-.64-.25-.1-.5-.08-.74,0-.34.12-.6.35-.7.72-.04.15-.04.32-.04.48,0,.32.25.63.55.75.22.08.45.07.67.03.19-.03.37-.13.51-.29-.07-.07-.14-.14-.2-.21-.44.24-.69.27-.94.1-.15-.1-.27-.34-.25-.53h1.62Zm-8.81,0c.05,0,.11,0,.17,0,.44,0,.88,0,1.31,0,.14,0,.18-.03.18-.17,0-.21-.04-.41-.17-.58-.1-.14-.23-.26-.41-.31-.33-.1-.65-.05-.94.13-.45.28-.59.75-.49,1.22.09.41.44.68.87.67.07,0,.14,0,.21,0,.25-.01.45-.12.65-.29-.08-.08-.15-.16-.21-.23-.28.21-.56.29-.87.13-.22-.11-.33-.31-.3-.56Zm13.08,0h1.63c.06-.23.04-.45-.05-.65-.11-.23-.28-.38-.54-.44-.16-.04-.32-.03-.48,0-.33.06-.57.25-.74.52-.18.27-.18.57-.12.87.06.3.26.5.56.61.21.08.43.07.64.03.19-.04.37-.12.51-.3-.07-.07-.14-.14-.21-.2-.69.48-1.2.06-1.2-.43Zm13.99.44s-.04.02-.06.03c-.01,0-.02.02-.04.03-.17.11-.35.17-.55.15-.29-.03-.56-.28-.54-.64h1.62c.08-.16.04-.31.01-.46-.06-.32-.28-.54-.6-.62-.16-.04-.32-.04-.48,0-.41.09-.68.32-.84.71-.07.18-.06.37-.05.56.02.32.21.56.49.69.35.16.71.12,1.05-.06.07-.04.15-.08.19-.18-.07-.07-.13-.13-.19-.19Zm-30.64,0c-.29.21-.6.3-.92.09-.18-.12-.25-.3-.25-.53.56,0,1.1,0,1.65,0,0-.14,0-.25,0-.37,0-.29-.21-.57-.47-.67-.27-.11-.55-.1-.82.01-.5.21-.8.68-.69,1.28.04.24.17.43.37.56.28.18.58.18.88.11.17-.04.34-.12.47-.27-.07-.07-.14-.13-.23-.21Zm18.78.5c.09-.42.18-.83.26-1.25.06-.29.36-.54.65-.5.27.04.49.19.43.57-.05.3-.12.6-.18.89-.02.09-.02.18-.03.28h.32c.06-.29.13-.57.18-.86.03-.17.08-.35.08-.53,0-.45-.42-.77-.86-.65-.13.03-.24.09-.37.14-.02,0-.05,0-.08.02,0-.05-.01-.09-.02-.12h-.3c-.02.1-.04.19-.06.27-.05.23-.1.45-.15.68-.06.28-.12.55-.18.83-.01.07-.02.14-.02.22h.32Zm-11.66,0c.07-.33.13-.64.2-.95.04-.16.07-.32.05-.48-.01-.15-.06-.29-.17-.4-.2-.19-.42-.26-.69-.2-.13.03-.25.06-.37.14-.02.01-.05.01-.08.02v-.12h-.31c-.12.68-.29,1.33-.41,2h.33c.04-.19.08-.38.12-.56.06-.27.12-.54.18-.82.01-.04.02-.1.06-.13.2-.17.41-.29.69-.2.22.07.35.27.31.5-.06.32-.13.65-.2.97-.02.08-.02.15-.03.24h.33Zm25.9,0c.08-.39.16-.75.24-1.12.05-.24.04-.48-.12-.67-.19-.23-.45-.31-.74-.23-.12.03-.23.09-.35.13-.02,0-.05,0-.08,0,0-.04-.01-.08-.02-.11h-.31c0,.07-.01.13-.02.19-.03.14-.07.27-.1.41-.09.41-.17.81-.26,1.22-.01.06,0,.12,0,.19h.31c.09-.41.18-.82.25-1.24.04-.24.18-.38.4-.46.04-.01.08-.02.12-.03.32-.09.63.2.57.53-.04.21-.08.42-.12.63-.04.18-.07.37-.11.56h.33Zm-8.4,0c.14-.67.28-1.34.43-2.01-.04,0-.06-.01-.09-.01-.23,0-.28-.04-.29.22,0,0,0,.01,0,.02-.08.37-.16.75-.24,1.12-.01.05-.04.11-.08.15-.16.17-.37.22-.61.21-.14-.01-.24-.08-.31-.19-.06-.1-.07-.22-.04-.34.07-.3.13-.61.19-.91.02-.08.03-.17.04-.26h-.33c-.08.38-.17.76-.25,1.13-.11.5.15.92.71.89.16,0,.3-.04.44-.12.02-.01.05-.01.08-.02.01.05.02.08.03.12h.31Zm-26.44,0c.02-.13.03-.24.05-.37h-1.28c.18-.85.36-1.68.53-2.52-.08,0-.14,0-.19,0-.06,0-.11,0-.16,0-.21.97-.41,1.92-.62,2.89h1.66Zm3.9-1.66c-.09-.16-.2-.28-.35-.34-.19-.08-.38-.07-.57,0-.22.08-.38.28-.37.51.01.23.14.38.32.5.1.07.21.12.31.19.06.04.11.08.15.14.08.12.06.23-.05.32-.08.07-.18.09-.28.08-.19-.02-.34-.1-.42-.31-.1.04-.19.08-.29.12.06.2.18.34.35.42.14.06.29.06.43.06.21,0,.38-.08.52-.23.17-.18.17-.5,0-.67-.13-.12-.28-.2-.42-.31-.08-.06-.17-.13-.23-.21-.07-.09-.06-.19.02-.27.08-.08.24-.12.34-.07.09.05.18.12.28.19.07-.03.16-.07.27-.12Zm40.55,1.21c.04.08.07.15.11.2.23.28.72.37,1.04.18.38-.22.36-.64.12-.86-.08-.07-.18-.13-.27-.19-.09-.06-.18-.11-.27-.17-.14-.11-.17-.29-.05-.38.1-.08.21-.11.34-.06.1.04.2.09.23.22.11-.05.2-.09.31-.14-.03-.05-.06-.1-.09-.14-.13-.17-.31-.25-.52-.26-.18,0-.35.04-.49.15-.12.09-.18.22-.19.38-.01.24.12.39.3.52.1.07.22.13.32.2.06.04.11.08.15.14.08.12.07.21-.04.31-.09.08-.2.1-.31.09-.19-.02-.33-.1-.4-.28-.03,0-.05,0-.07,0-.07.03-.14.06-.25.1Zm-16.22,0c.04.08.07.15.11.21.23.28.72.37,1.04.18.12-.07.24-.17.27-.31.04-.2.02-.4-.15-.55-.06-.05-.13-.11-.2-.15-.11-.07-.23-.13-.33-.21-.13-.1-.16-.26-.07-.36.08-.09.26-.12.36-.08.1.04.2.09.23.22.11-.05.2-.1.3-.14-.15-.32-.4-.41-.67-.39-.18,0-.35.07-.48.21-.07.08-.11.17-.12.28-.02.25.1.42.3.55.1.07.22.13.32.2.06.04.11.08.15.13.09.12.07.22-.05.32-.09.07-.19.09-.3.08-.18-.02-.33-.1-.41-.3-.1.04-.19.07-.31.12Zm-17.79-2.16c-.1.05-.19.09-.27.13-.09.04-.14.11-.14.21,0,.05-.01.1-.02.16-.02.08-.07.12-.16.12-.08,0-.17,0-.25,0v.29h.31c0,.06,0,.11-.02.15-.08.35-.15.71-.23,1.06-.03.17.05.38.19.44.2.08.4.12.61.07.02-.1.03-.19.05-.29-.16-.02-.34.03-.49-.12,0-.1,0-.22.03-.34.05-.26.12-.52.17-.79.04-.18.04-.18.22-.18.11,0,.23,0,.34,0,.04-.1.09-.18.06-.29h-.51c.04-.21.07-.39.11-.6Zm7.6,9.84c-.03.26,0,.5,0,.75h1.57c.04-.13.05-.59,0-.75h-1.58Zm9.35-9.23c-.14.68-.28,1.34-.43,2.01h.34c.02-.08.03-.15.05-.21.07-.34.15-.68.22-1.02.05-.27.28-.46.55-.47.09,0,.18,0,.26,0,.02-.12.03-.23.05-.33-.26-.04-.48.04-.7.17-.01-.07-.02-.11-.03-.15h-.3Zm-16.54,2.02c.09,0,.16,0,.24,0,.07,0,.11-.03.12-.1.01-.07.02-.14.03-.2.06-.28.12-.56.18-.83.02-.11.03-.23.09-.31.11-.16.27-.27.48-.26.08,0,.16,0,.24,0,.04-.11.09-.21.06-.35-.12.01-.24,0-.35.04-.11.03-.22.1-.33.15,0-.05-.01-.1-.02-.16-.07,0-.14,0-.21,0-.1,0-.13.03-.15.12-.01.05-.01.1-.02.16-.1.45-.2.9-.3,1.35-.03.12-.05.25-.07.39Zm6.32-2.02c-.14.68-.28,1.34-.43,2.02.09,0,.16,0,.24,0,.09,0,.12-.04.14-.12.01-.09.03-.18.05-.26.05-.26.11-.51.16-.77.02-.1.03-.21.08-.29.11-.16.26-.26.46-.27.09,0,.18,0,.29,0,.02-.12.04-.22.07-.35-.14.01-.26.01-.37.04-.11.03-.22.09-.33.14-.01-.06-.02-.1-.03-.14h-.31Zm26.13-.21c.17.04.29.01.4-.11.13-.16.27-.31.41-.46.02-.02.04-.05.06-.09-.23-.05-.41-.03-.51.2-.02.04-.05.07-.08.1-.09.12-.18.23-.28.36Z"></path>
  <path d="m82.07,44.75v-6.31h4.72c.03.1.04,1.14,0,1.38-1.07.01-2.14,0-3.23.01,0,.07-.02.12-.02.18,0,.25,0,.51,0,.76,0,.14.01.15.15.15.32,0,.64,0,.97,0,.52,0,1.03,0,1.55,0,.06,0,.12,0,.18,0,.03.13.04,1.14.01,1.35h-2.83c-.04.13-.05.71-.03,1.07.17.02.35,0,.53,0,.18,0,.36,0,.54,0h1.63c.18,0,.36,0,.55,0v1.39h-4.73Z"></path>
  <path d="m63.51,39.7c-.4.28-.79.56-1.19.85-.4-.51-.92-.77-1.56-.75-.52.02-.96.23-1.3.63-.68.81-.55,1.91.18,2.54.77.66,1.89.63,2.68-.3.4.28.8.55,1.2.86-.35.46-.77.82-1.29,1.07-.6.28-1.24.38-1.88.27-1.81-.3-2.72-1.74-2.81-2.98-.13-1.85,1.15-3.09,2.4-3.45,1.46-.41,2.94.3,3.56,1.27Z"></path>
  <path d="m77.42,45.03c-.18-.26-3.64-6.47-3.67-6.59.05,0,.09,0,.14,0,.47,0,.94,0,1.41,0,.09,0,.15.02.2.11.24.46.49.91.74,1.36.36.65.71,1.3,1.07,1.95,0,.01.01.03.02.04.08.11.14.11.21,0,.14-.24.27-.49.4-.73.32-.59.64-1.17.96-1.76.17-.31.34-.63.51-.95h1.69s0,.01,0,.02c0,0,0,.01,0,.01,0,.02-.01.04-.02.06-1.21,2.16-2.42,4.32-3.63,6.47,0,0-.02.01-.04.02Z"></path>
  <path d="m50.05,44.76c1.24-2.22,2.46-4.4,3.7-6.61,1.24,2.22,2.46,4.4,3.69,6.6-.04,0-.06.01-.08.01-.51,0-1.01,0-1.52,0-.08,0-.13-.03-.17-.09-.01-.02-.02-.05-.04-.07-.22-.41-.43-.82-.66-1.22-.37-.69-.75-1.38-1.13-2.06-.01-.02-.02-.04-.03-.05-.05-.07-.09-.07-.15,0-.02.02-.03.05-.04.07-.17.32-.35.64-.52.96-.26.47-.51.94-.77,1.42-.17.31-.34.62-.5.93-.05.1-.12.14-.24.13-.45-.01-.91,0-1.36,0-.05,0-.1,0-.2,0Z"></path>
  <path d="m21.5,42.64c-.02.08.01.15.05.21.19.29.38.58.57.87.07.11.14.22.21.33.13.2.27.4.4.61.03.04.04.09.07.15-.06,0-.09.01-.13.01-.27,0-.54,0-.81,0-.08,0-.14-.02-.18-.09-.16-.24-.32-.48-.48-.72-.21-.32-.42-.64-.62-.97-.03-.05-.05-.12-.13-.12-.01,0-.03-.02-.04-.04-.01-.05-.05-.06-.1-.06-.53,0-1.07,0-1.6,0-.12,0-.13.02-.13.16,0,.54,0,1.08,0,1.63,0,.06,0,.11,0,.17-.12.04-.63.05-.88.02,0-.04,0-.09,0-.13,0-2.02,0-4.05,0-6.07,0-.19.04-.23.23-.23.09,0,.18,0,.27,0,.04,0,.09.03.13.03.08,0,.17.03.24,0,.06-.02.11-.04.16-.04.62,0,1.24,0,1.85,0,.05,0,.11.03.16.04.03,0,.06.02.09.02.23,0,.45.05.66.14.31.14.58.33.81.59.21.23.35.5.44.79.05.17.09.33.09.51,0,.26.02.53-.08.78-.12.33-.28.62-.53.88-.15.15-.31.28-.49.39-.07.04-.15.08-.24.12Zm-2.88-.75c.07,0,.13,0,.18,0,.51,0,1.01,0,1.52,0,.18,0,.37,0,.55-.01.18,0,.32-.1.47-.18.07-.04.15-.08.2-.15.29-.36.49-.74.34-1.23-.09-.3-.23-.54-.47-.72-.2-.16-.44-.25-.68-.26-.54-.03-1.08,0-1.61,0-.07,0-.15.02-.24.04-.07-.01-.16-.03-.26-.05v2.57Z"></path>
  <path d="m30.89,38.46c.16-.11.33-.07.49-.09.23-.03.37.06.5.25.17.26.39.5.59.74.16.2.31.4.47.6.13.15.27.3.38.46.05.07.08.16.15.23.09.1.16.21.24.31,0,.01.02.03.03.03.09.03.11.12.16.18.3.38.6.76.89,1.14.13.16.25.33.38.49.11.14.11.14.31.11,0-.06.01-.12,0-.18-.06-.24-.04-.48-.02-.72.01-.15.03-.29,0-.43,0-.03,0-.07,0-.11,0-.93,0-1.85,0-2.78,0-.03,0-.05,0-.08,0-.13.08-.22.22-.22.19,0,.38,0,.57,0,.08,0,.12.04.13.11,0,.05,0,.11,0,.16,0,1.97,0,3.95,0,5.92,0,.08,0,.16-.02.25-.22,0-.43,0-.64,0-.06,0-.12-.07-.16-.12-.25-.31-.49-.62-.73-.93-.26-.33-.51-.67-.77-1-.04-.05-.1-.09-.18-.15.01-.07-.04-.12-.1-.19-.28-.35-.54-.7-.81-1.05-.11-.15-.23-.29-.35-.43-.2-.25-.4-.5-.6-.75-.06-.07-.07-.18-.21-.19,0,.06-.02.11-.02.17,0,1.47,0,2.94,0,4.41,0,.07,0,.13,0,.21h-.88v-6.35Z"></path>
  <path d="m69.95,38.45v1.46s-.09.01-.14.01c-.56,0-1.13,0-1.69,0-.03,0-.06,0-.09,0-.11,0-.12.02-.13.13,0,.03,0,.06,0,.09,0,1.47,0,2.95,0,4.42,0,.06,0,.12,0,.17-.11.04-1.29.04-1.49,0v-4.8c-.09,0-.17-.02-.24-.02-.53,0-1.07,0-1.6,0-.06,0-.11,0-.18,0v-1.48h5.56Z"></path>
  <path d="m45.14,42.03v1.9h3.79c.01.3,0,.58,0,.86-.13.04-4.29.05-4.68.02,0-.06-.01-.12-.01-.18,0-1.92,0-3.84,0-5.77,0-.11,0-.21,0-.32,0-.12.04-.16.16-.17.04,0,.07,0,.11,0,1.39,0,2.78,0,4.16,0,.04,0,.08,0,.13,0,.08.01.13.06.13.14,0,.24,0,.48,0,.74h-3.77c-.04.13-.04,1.7-.01,1.9h3.33c.03.3.02.58,0,.88h-3.35Z"></path>
  <path d="m26.34,38.38h.82c.14.33.27.64.41.95.2.45.4.89.6,1.34.17.37.35.74.52,1.12.25.55.49,1.11.74,1.66.11.24.23.49.34.73.09.19.17.37.25.56,0,.02,0,.04.01.07-.04,0-.08.02-.12.02-.22,0-.44,0-.66,0-.14,0-.21-.07-.25-.17-.16-.36-.3-.73-.46-1.09-.03-.07-.06-.13-.1-.2-.08-.12-.18-.19-.35-.19-.86.01-1.73.01-2.6.01-.08,0-.16,0-.24-.01-.1-.01-.16.03-.2.12-.06.12-.12.24-.17.36-.13.3-.26.6-.39.9-.03.08-.06.17-.09.26h-.94c.02-.07.02-.12.04-.17.17-.38.35-.76.53-1.15.24-.54.48-1.07.72-1.61.19-.42.39-.84.58-1.26.12-.26.23-.52.35-.78.12-.26.24-.53.36-.79.1-.22.2-.45.31-.68Zm-.79,3.89c.2.04,2.24.03,2.36-.01-.02-.06-.03-.13-.06-.19-.04-.11-.09-.21-.14-.32-.09-.18-.18-.37-.26-.55-.12-.27-.24-.54-.35-.81-.07-.16-.14-.31-.2-.47-.06-.15-.06-.16-.25-.14-.02.03-.04.07-.06.11-.15.34-.3.68-.46,1.02-.11.24-.23.48-.34.73-.07.16-.14.33-.21.5-.02.05-.02.1-.03.15Z"></path>
  <path d="m43.31,39.39c-.2.22-.4.44-.6.66-.09-.08-.18-.17-.27-.24-.19-.17-.39-.32-.63-.4-.16-.06-.31-.13-.46-.2,0,0-.02,0-.03,0-.27,0-.53-.07-.8-.02-.23.04-.45.09-.66.16-.18.06-.35.19-.5.31-.47.36-.73.86-.84,1.44-.02.09-.02.18-.02.27,0,.16,0,.32,0,.47-.01.33.09.63.22.93.17.38.45.68.77.92.12.09.26.16.4.22.49.22,1,.22,1.5.1.23-.05.46-.14.67-.28.22-.15.44-.3.62-.5.02-.03.06-.05.1-.08.19.2.37.39.56.61-.03.08-.14.14-.21.23-.05.06-.1.12-.15.18,0,.01-.02.03-.03.03-.19.06-.32.21-.49.3-.23.12-.47.23-.71.32-.09.04-.2.03-.29.05-.32.07-.64.11-.96.08-.04,0-.08-.02-.11-.04-.02,0-.05-.02-.07-.02-.16-.02-.31-.03-.47-.07-.12-.03-.24-.08-.35-.13-.41-.17-.77-.4-1.07-.73-.33-.37-.59-.78-.74-1.25-.1-.32-.16-.64-.14-.97.01-.28,0-.57.06-.85.19-.77.56-1.42,1.2-1.91.31-.24.65-.4,1.01-.53.27-.1.56-.12.85-.13.33-.01.65,0,.98.07.14.03.27.07.4.13.47.19.89.47,1.25.83.01.01.02.02.04.05Z"></path>
  <path d="m16.69,39.27h-3.76c0,.08,0,.13,0,.19,0,.54,0,1.09,0,1.63,0,.03,0,.05,0,.08,0,.07.03.11.1.11.05,0,.1,0,.14,0,.97,0,1.94,0,2.91,0,.07,0,.13,0,.21,0v.81c-.18.06-.39-.05-.54.07-.1-.02-.17-.05-.25-.05-.8,0-1.59,0-2.39,0-.03,0-.06,0-.1,0-.06,0-.09.03-.09.09,0,.05,0,.09,0,.14,0,.77,0,1.54,0,2.31,0,.05,0,.1,0,.15-.12.04-.65.05-.9.02,0-.03-.01-.06-.01-.09,0-2.04,0-4.08,0-6.12,0-.2.03-.23.23-.23,1.4,0,2.81,0,4.21,0,.04,0,.07,0,.11,0,.08.02.13.07.13.15,0,.24,0,.47,0,.74Z"></path>
  <path d="m72.68,44.76h-1.51v-6.31h1.51v6.31Z"></path>
  <path d="m39.5,55.94c0,1.22,0,2.44,0,3.66h-.76c0-.1-.01-.2-.01-.29,0-.59,0-1.18,0-1.77,0-.07,0-.13-.02-.24-.07.06-.12.08-.15.12-.21.32-.42.64-.63.96-.07.11-.14.23-.22.36-.05-.05-.1-.08-.13-.12-.1-.14-.19-.28-.28-.42-.1-.16-.21-.32-.31-.47-.06-.09-.12-.17-.17-.26-.04-.07-.09-.08-.17-.05v.17c0,.58,0,1.17,0,1.75,0,.04,0,.08,0,.13,0,.1-.05.14-.15.14-.19,0-.39,0-.6,0,0-.06-.01-.12-.01-.18,0-.93,0-1.85,0-2.78,0-.08.01-.16-.04-.23-.01-.01-.02-.05,0-.06.09-.13.03-.27.05-.4,0,0,0,0,.01-.03.03,0,.06-.02.09-.02.22,0,.43,0,.65,0,.07,0,.11.03.15.09.25.41.5.82.75,1.22.09.14.21.14.3,0,.02-.03.04-.06.06-.09.23-.38.46-.75.69-1.13.03-.05.07-.09.13-.1.26,0,.51-.02.79.01Z"></path>
  <path d="m54.06,57.95c0-.34,0-.68,0-1.01,0-.33-.04-.66.06-1.01.24-.02.49,0,.76,0v.17c0,1.08,0,2.17,0,3.25,0,.04,0,.08,0,.13-.01.09-.06.13-.15.13-.15,0-.3,0-.44,0-.06,0-.1-.03-.13-.07-.28-.37-.57-.73-.85-1.1-.22-.28-.43-.57-.64-.86-.06-.08-.12-.15-.26-.1v2.12h-.76c0-.07-.02-.14-.02-.22,0-1,0-2,0-3,0-.14,0-.28,0-.43.05,0,.08-.02.11-.02.17,0,.35,0,.52,0,.07,0,.12.02.16.08.23.31.47.62.7.93.16.22.32.44.49.66.08.1.17.2.25.31.05.06.1.06.19.04Z"></path>
  <path d="m83.24,59.61c-.16,0-.32,0-.48,0-.1,0-.18-.06-.24-.14-.2-.26-.4-.53-.6-.79-.21-.28-.43-.55-.65-.83-.1-.13-.2-.27-.3-.41-.03-.04-.07-.07-.14-.13,0,.13-.01.21-.01.3,0,.58,0,1.16,0,1.74,0,.27,0,.27-.27.27-.12,0-.23,0-.35,0-.13,0-.16-.04-.17-.17,0-.04,0-.08,0-.13,0-1.04,0-2.08,0-3.11,0-.08-.02-.15-.03-.24.02,0,.06-.02.1-.02.14,0,.29,0,.43-.01.2-.03.31.08.41.22.27.36.54.71.81,1.06.17.22.33.44.49.66.06.09.14.12.25.08v-2.02c.26,0,.5,0,.76,0,.02.17.05.33.06.49,0,.59,0,1.18,0,1.77,0,.1-.02.21-.03.31,0,.08,0,.16,0,.25,0,.02.02.03.01.05-.07.26.03.53-.07.82Z"></path>
  <path d="m76.79,59.61c-.22,0-.41,0-.61,0-.1,0-.14-.05-.15-.15,0-.03,0-.05,0-.08,0-1.1,0-2.19,0-3.29v-.15c.05,0,.09-.02.13-.02.15,0,.31,0,.46,0,.09,0,.16.03.21.11.15.2.31.39.46.59.29.38.58.77.87,1.16.03.05.08.09.11.13.05.07.12.08.21.05v-2.02c.27-.03.52-.02.79,0,0,1.23,0,2.44,0,3.67-.21,0-.4,0-.59,0-.05,0-.11-.06-.15-.11-.09-.1-.17-.22-.25-.32-.21-.28-.43-.55-.63-.83-.16-.21-.33-.41-.48-.63-.08-.12-.18-.24-.27-.35-.01-.01-.03-.02-.05-.03-.08.04-.06.1-.06.15,0,.22,0,.43,0,.65,0,.21.01.41,0,.62-.01.12.08.23.03.34-.05.11-.02.23-.03.34,0,.05,0,.1,0,.17Z"></path>
  <path d="m65.84,59.61c-.24,0-.46,0-.67,0-.1,0-.14-.04-.15-.15,0-.03,0-.06,0-.09,0-1.09,0-2.18,0-3.27v-.15c.06,0,.11-.02.16-.02.6,0,1.2,0,1.8.03.32.01.59.16.81.39.18.19.27.43.26.69,0,.19.02.39-.05.58-.07.16-.16.31-.29.42-.08.07-.18.13-.27.19-.09.06-.11.12-.05.2.15.21.29.43.43.64.09.13.18.25.26.37q.04.06.03.17s-.08.01-.12.01c-.17,0-.34-.01-.51,0-.16.01-.26-.05-.34-.18-.19-.28-.37-.56-.56-.84-.03-.04-.05-.08-.08-.12-.03-.06-.08-.07-.15-.07-.11,0-.21,0-.32,0-.17,0-.21.04-.21.2,0,.27,0,.55,0,.82,0,.05,0,.1,0,.18Zm0-1.92c.06,0,.11,0,.17,0,.19,0,.39,0,.58,0,.16,0,.31-.01.46-.11.11-.07.16-.15.17-.26.01-.1,0-.21,0-.31,0-.12-.08-.19-.18-.24-.08-.04-.17-.07-.26-.1-.11-.03-.22-.04-.3.04-.17-.09-.35-.06-.52-.06-.08,0-.12.06-.12.14,0,.29,0,.59,0,.89Z"></path>
  <path d="m68.7,55.93c.06,0,.11-.01.15-.01.56,0,1.12.01,1.68.03.1,0,.2.05.29.09.27.11.51.25.72.45.05.05.11.08.16.12.04.08.07.16.12.24.14.26.24.52.23.82,0,.07,0,.15,0,.22-.02.45-.2.83-.52,1.15-.28.27-.62.42-.99.52-.19.05-.37.05-.55.05-.37,0-.74,0-1.11,0-.16,0-.19-.03-.19-.19,0-1.13,0-2.26,0-3.4,0-.03,0-.05,0-.09Zm.82.71v2.2c.29,0,.57.02.86-.02.24-.03.43-.14.58-.32.43-.53.33-1.28-.19-1.65-.04-.03-.08-.07-.13-.09-.16-.06-.33-.08-.5-.11-.19-.04-.4,0-.61,0Z"></path>
  <path d="m49.38,58.15v-.68h1.56s.01.07.01.11c0,.46,0,.93,0,1.39,0,.09-.03.15-.11.19-.11.07-.21.15-.33.21-.15.07-.31.12-.47.18-.07.03-.15.05-.22.07-.29.05-.59.06-.88,0-.22-.05-.46-.09-.64-.27-.05-.05-.12-.1-.19-.13-.15-.08-.21-.24-.33-.35-.11-.1-.13-.24-.18-.37-.03-.1-.06-.2-.08-.3-.02-.12-.06-.24-.06-.36,0-.12.04-.24.05-.36.01-.27.12-.5.26-.72.16-.25.37-.47.64-.61.16-.09.33-.17.51-.21.1-.02.2-.03.3-.04.07-.01.14-.03.23-.05.02,0,.08.04.13.04.21,0,.41.06.62.12.24.07.41.23.63.34-.14.24-.34.42-.48.62-.18-.09-.34-.18-.51-.27-.17-.09-.36-.09-.55-.08-.17.01-.31.09-.46.16-.06.03-.11.08-.16.13-.18.2-.33.42-.32.71,0,.11,0,.22,0,.33-.02.34.27.77.65.88.1.03.22.02.33.03.06,0,.12,0,.18.04.04.03.14.04.19.01.11-.06.23-.07.34-.11.12-.05.15-.09.15-.21,0-.08,0-.16,0-.24,0-.13-.06-.19-.2-.19-.2,0-.4,0-.62,0Z"></path>
  <path d="m75.4,55.93v.7c-.06,0-.11,0-.17,0-.52,0-1.04,0-1.57,0-.04,0-.09,0-.12.01-.04.03-.08.08-.09.12,0,.2,0,.41,0,.61.22.04,1.58.03,1.7-.02,0,.25,0,.48,0,.74-.57,0-1.12,0-1.7,0-.02.25,0,.48,0,.73.08,0,.15.01.23.01.52,0,1.04,0,1.57,0,.17,0,.18,0,.21.17.03.16.04.32-.01.48-.02.08-.06.11-.15.11-.11,0-.22,0-.33,0-.7,0-1.39,0-2.09,0h-.18c0-.09-.02-.16-.02-.23,0-1.1,0-2.19,0-3.29,0-.05,0-.09,0-.16.07,0,.13-.02.19-.02.81,0,1.63,0,2.44,0,.03,0,.06,0,.1.01Z"></path>
  <path d="m84.86,58.11v.73c.32.02.64.01.96.01.32,0,.64,0,.97,0,0,.04.02.07.02.1,0,.16,0,.33,0,.49,0,.13-.04.17-.17.17-.14,0-.28,0-.43,0-.64,0-1.29,0-1.93,0-.04,0-.08,0-.13,0-.06,0-.09-.03-.09-.09,0-.04,0-.07,0-.11,0-.96,0-1.93,0-2.89,0-.14,0-.27,0-.41,0-.06,0-.11.01-.19.92,0,1.82-.01,2.74,0v.71h-.18c-.52,0-1.03,0-1.55,0-.19,0-.22.03-.22.22,0,.12,0,.24,0,.36,0,.14.04.18.18.18.45,0,.9,0,1.35,0,.06,0,.11,0,.18,0v.69c-.06,0-.12.01-.18.01-.44,0-.89,0-1.33,0-.06,0-.11,0-.19,0Z"></path>
  <path d="m56.41,56.64c0,.23,0,.43,0,.63,0,.08.05.12.13.13.04,0,.07,0,.11,0,.43,0,.87,0,1.3,0,.06,0,.11,0,.19,0,0,.24.02.46-.02.7-.57,0-1.13,0-1.71.01-.01.25-.02.48,0,.72.09,0,.17.02.26.02.52,0,1.03,0,1.55,0,.06,0,.12,0,.18,0,0,.04.02.08.02.11,0,.16,0,.32,0,.47,0,.13-.04.17-.17.17-.81,0-1.62,0-2.44,0-.14,0-.17-.04-.17-.18,0-.15,0-.31,0-.46,0-.95,0-1.89,0-2.84v-.17c.14-.04,2.52-.05,2.73,0,.01.22,0,.44,0,.68-.17.02-.33,0-.49,0-.16,0-.32,0-.47,0s-.33,0-.49,0-.32,0-.51,0Z"></path>
  <path d="m31.06,55.93c.04.16-.04.32.05.43-.02.1-.04.19-.04.27,0,.93,0,1.85,0,2.78,0,.16-.03.19-.2.19-.13,0-.25,0-.38,0-.16,0-.19-.04-.19-.2,0-.36,0-.73,0-1.09,0-.06,0-.11-.01-.16-.13-.04-1.19-.06-1.49-.02,0,.05,0,.11,0,.16,0,.35,0,.71,0,1.06,0,.04,0,.08,0,.13-.01.08-.05.13-.14.13-.22,0-.44,0-.68,0,0-.06-.01-.12.01-.16.05-.07.04-.15.04-.23,0-.99,0-1.98,0-2.97,0-.06,0-.11-.02-.17-.02-.08.02-.15.1-.15.22,0,.44,0,.68,0,0,.47,0,.93,0,1.41.07,0,.13,0,.18,0,.03,0,.07,0,.09,0,.09.08.2.07.28.05.31-.09.62-.04.94-.06,0-.04.01-.08.01-.12,0-.21,0-.41,0-.62,0-.07-.05-.14-.05-.2,0-.07.06-.13.05-.21-.01-.07,0-.15,0-.24.25-.04.5-.03.75,0Z"></path>
  <path d="m33.1,55.91c.23,0,.43,0,.64,0,.08,0,.11.05.14.1.07.16.14.33.21.49.09.22.18.44.27.65.02.04.07.06.12.1-.04.19.08.36.15.53.16.39.33.78.5,1.18.07.15.14.31.21.46.05.12.02.19-.11.19-.17,0-.35,0-.52,0-.11,0-.17-.08-.21-.16-.06-.13-.1-.27-.15-.41-.03-.08-.06-.16-.1-.25-.03,0-.07-.01-.12-.01-.44,0-.88,0-1.31,0-.1,0-.17.03-.2.13-.06.16-.12.32-.19.49-.07.17-.14.22-.32.22-.17,0-.35,0-.52,0-.04-.09-.01-.15.02-.22.13-.31.26-.63.4-.94.11-.27.24-.53.35-.79.12-.28.24-.56.36-.84.13-.3.25-.6.38-.91Zm.27,1.18c-.11.27-.22.55-.33.82-.01.03,0,.08,0,.12h.88c-.02-.05-.03-.09-.04-.12-.09-.23-.19-.46-.27-.69-.05-.14-.05-.14-.23-.13Z"></path>
  <path d="m44.9,55.9c.22,0,.43,0,.64,0,.08,0,.1.05.12.1.11.24.21.48.31.72.2.47.4.94.6,1.41.18.43.36.86.54,1.29.02.05.03.1.04.16-.04,0-.07.02-.1.02-.16,0-.33,0-.49,0-.17,0-.25-.06-.3-.22-.06-.17-.13-.33-.19-.5-.03-.08-.08-.11-.16-.11-.44,0-.89,0-1.33,0-.08,0-.14.02-.17.11-.06.17-.13.34-.2.51-.02.04-.03.09-.06.13-.03.06-.08.09-.15.09-.17,0-.34,0-.51,0-.14,0-.17-.06-.11-.19.12-.28.24-.57.36-.85.16-.37.33-.74.49-1.11.17-.41.34-.81.51-1.22.04-.1.09-.2.15-.32Zm.82,2.13c-.13-.32-.24-.61-.36-.9-.02-.06-.11-.08-.16-.03-.04.03-.07.07-.08.11-.09.22-.18.45-.27.67-.02.04-.02.09-.04.15h.91Z"></path>
  <path d="m62.63,58.77c-.22,0-.43,0-.65,0-.09,0-.14.02-.17.11-.07.19-.16.37-.23.55-.05.13-.1.18-.24.18-.15,0-.31,0-.46,0-.14,0-.16-.04-.11-.16.19-.45.38-.9.57-1.35.12-.28.24-.55.35-.83.16-.37.31-.75.46-1.12.1-.24.09-.24.35-.24.12,0,.23,0,.35,0,.11,0,.17.04.21.14.11.28.23.55.35.83.17.38.34.76.5,1.14.12.28.22.56.33.83.08.2.18.4.27.61.05.11.02.15-.09.15-.17,0-.35,0-.52,0-.12,0-.18-.07-.22-.17-.07-.17-.14-.34-.21-.51-.06-.14-.06-.15-.22-.15-.21,0-.42,0-.63,0,0,0,0,0,0,0Zm.43-.74c-.04-.35-.25-.62-.33-.93-.17-.03-.18-.02-.24.12-.09.21-.17.43-.26.64-.02.05-.04.11-.06.17h.89Z"></path>
  <path d="m40.31,59.61c-.02-.1-.05-.2-.05-.29,0-1.03,0-2.05,0-3.08,0-.1.03-.19.04-.31.07,0,.14-.01.21-.01.49,0,.98,0,1.47.02.33.01.61.14.84.37.33.34.4.74.31,1.2-.08.37-.32.61-.61.8-.06.04-.13.06-.2.08-.28.07-.56.11-.85.09-.08,0-.16,0-.24,0-.11,0-.15.05-.15.16,0,.25,0,.51,0,.76,0,.18-.03.21-.21.21-.17,0-.35,0-.55,0Zm.78-1.84c.21,0,.39,0,.57,0,.17.01.31-.08.46-.12.02,0,.04-.03.06-.05.24-.25.18-.58,0-.79-.02-.03-.06-.05-.09-.06-.18-.07-.36-.14-.56-.11-.11.01-.22,0-.33,0-.04,0-.08,0-.12.01v1.12Z"></path>
  <path d="m27.43,56.43c-.16.19-.32.38-.48.58-.04-.03-.08-.05-.11-.09-.13-.15-.31-.23-.49-.27-.26-.07-.53-.08-.8.06-.17.09-.32.2-.41.36-.15.25-.23.52-.2.81.04.33.17.61.43.81.06.05.13.1.2.12.16.05.32.14.5.1.07-.01.13-.04.2-.06.07-.02.13-.03.2-.04.15-.02.25-.13.36-.21.12-.1.14-.1.25,0,.13.13.26.25.4.39-.11.1-.21.2-.31.29-.18.15-.41.22-.63.32-.04.02-.09.02-.14.02-.23,0-.47.03-.69,0-.41-.04-.77-.23-1.06-.52-.34-.34-.5-.76-.53-1.23-.02-.33.05-.65.19-.95.1-.2.2-.42.41-.55.12-.07.22-.18.34-.25.23-.14.49-.21.76-.24.05,0,.11,0,.16-.04.03-.03.11-.03.14,0,.05.04.1.04.16.04.47.02.85.21,1.17.55Z"></path>
  <path d="m82.34,50.12s-.09.04-.12.06c-.3.14-.6.15-.9,0-.25-.12-.38-.33-.4-.6-.02-.2-.02-.41.07-.6.16-.34.42-.54.78-.63.29-.07.56-.03.82.12.02.01.04.01.06.02.02-.04.04-.09.06-.13h.3c0,.07-.01.13-.02.19-.08.38-.15.75-.24,1.13-.04.18-.07.36-.05.55.03.39-.29.77-.64.86-.37.1-.73.09-1.08-.05-.11-.04-.12-.06-.2-.16.06-.08.12-.16.19-.25.06.03.1.06.15.08.27.14.54.17.83.08.3-.09.42-.31.44-.61,0-.01-.01-.03-.03-.06Zm-.46-.15c.13,0,.31-.06.45-.19.04-.04.07-.09.09-.14.05-.21.09-.43.14-.65.02-.08,0-.13-.06-.18-.43-.35-1.11-.12-1.22.42-.09.43.14.73.6.73Z"></path>
  <path d="m77.97,48.48s.04-.08.05-.12h.3c-.01.09-.02.16-.04.24-.09.43-.19.85-.28,1.28-.02.12-.01.25-.01.38,0,.33-.16.57-.44.74-.16.1-.34.15-.54.15-.21,0-.42.02-.62-.07-.11-.05-.23-.08-.33-.19.06-.08.12-.17.19-.26.08.04.15.08.21.11.27.12.54.14.81.04.26-.1.41-.36.37-.65-.05.03-.1.05-.15.07-.3.13-.6.14-.9-.01-.23-.12-.35-.33-.38-.58-.02-.21-.03-.42.07-.62.16-.34.42-.54.78-.62.29-.07.56-.03.82.12,0,0,.02,0,.03.01,0,0,.02,0,.04,0Zm-.78,1.48c.11,0,.27-.05.4-.15.08-.05.12-.12.14-.22.04-.2.07-.39.13-.58.03-.11,0-.16-.08-.23-.39-.31-1.12-.13-1.2.51-.05.4.17.66.61.66Z"></path>
  <path d="m55.57,50.17c-.02.05-.04.08-.04.12-.05.24-.09.48-.14.73-.01.06-.04.08-.09.09-.09,0-.18,0-.28,0,.19-.92.39-1.82.58-2.74h.3s.01.08.02.13c.07-.03.12-.06.18-.09.32-.14.63-.14.92.05.2.13.31.34.35.58.05.36-.02.68-.26.96-.22.24-.48.38-.81.39-.26.01-.5-.04-.72-.22Zm1.45-.91c0-.42-.3-.68-.7-.61-.12.02-.23.08-.33.13-.11.05-.16.14-.18.26-.04.19-.07.38-.13.57-.05.16,0,.25.13.33.04.03.09.06.14.07.52.2,1.08-.19,1.07-.76Z"></path>
  <path d="m80.33,48.54c.04-.17.03-.22.39-.17-.14.67-.28,1.33-.43,2-.07,0-.11,0-.16,0-.05,0-.09,0-.15,0v-.13c-.06.02-.11.02-.16.05-.24.11-.49.12-.74.05-.26-.07-.42-.26-.51-.5-.23-.62.15-1.27.71-1.46.36-.12.72-.1,1.04.16Zm-1.44.92s0,.06,0,.1c.03.25.22.46.46.5.25.04.47-.04.66-.2.04-.03.07-.09.08-.15.05-.21.08-.42.14-.63.04-.14,0-.22-.11-.29-.05-.03-.11-.07-.16-.09-.51-.2-1.06.18-1.06.77Z"></path>
  <path d="m83.59,49.43c-.03.24.08.4.24.53.14.11.31.11.48.1.17,0,.3-.12.45-.21.07.07.13.14.2.21-.01.03-.02.05-.03.06-.33.28-.88.33-1.22.16-.23-.11-.37-.29-.44-.53-.21-.71.28-1.43,1.08-1.45.42,0,.69.12.85.59.05.15.03.33.04.52-.2,0-.38,0-.55,0-.18,0-.37,0-.55,0h-.54Zm1.27-.3c0-.26-.14-.43-.38-.48-.31-.07-.66.09-.81.37-.02.03-.02.07-.03.11h1.21Z"></path>
  <path d="m63.75,49.43c.04.25.1.44.31.55.32.18.61.08.9-.12.07.07.14.14.21.21-.15.17-.33.26-.52.3-.22.04-.44.04-.66-.03-.32-.11-.56-.44-.55-.74,0-.18-.02-.37.05-.55.15-.38.42-.62.83-.7.15-.03.3-.04.45,0,.4.09.61.32.65.73.01.11.04.23-.02.36h-1.65Zm.08-.31c.17.03,1.11.03,1.22,0,0-.24-.15-.43-.38-.47-.36-.07-.73.12-.84.48Z"></path>
  <path d="m55,49.43h-1.62c-.02.19.1.43.25.53.25.17.51.14.94-.1.06.07.13.13.2.21-.15.16-.32.26-.51.29-.22.04-.45.05-.67-.03-.3-.12-.54-.42-.55-.75,0-.16,0-.33.04-.48.09-.37.35-.6.7-.72.24-.09.5-.11.74,0,.28.12.46.32.5.64.02.13.04.27-.02.42Zm-.35-.3c0-.23-.11-.39-.3-.46-.25-.09-.57,0-.77.2-.07.07-.12.15-.15.26h1.22Z"></path>
  <path d="m46.19,49.43c-.03.25.07.45.3.56.31.15.59.08.87-.13.07.07.14.15.21.23-.2.17-.4.28-.65.29-.07,0-.14,0-.21,0-.42,0-.77-.27-.87-.67-.11-.47.04-.94.49-1.22.29-.18.61-.23.94-.13.17.05.31.17.41.31.12.17.16.38.17.58,0,.14-.04.17-.18.17-.44,0-.88,0-1.31,0-.06,0-.11,0-.17,0Zm.05-.3h1.2c0-.28-.16-.46-.42-.49-.07,0-.14,0-.2,0-.27.03-.52.23-.58.49Z"></path>
  <path d="m59.27,49.43c0,.49.51.91,1.2.43.07.06.14.13.21.2-.14.18-.33.26-.51.3-.21.04-.43.05-.64-.03-.3-.11-.5-.31-.56-.61-.06-.3-.06-.6.12-.87.18-.27.42-.45.74-.52.16-.03.32-.03.48,0,.26.06.44.21.54.44.09.2.12.41.05.65h-1.63Zm1.27-.32c0-.24-.16-.44-.39-.47-.29-.04-.53.05-.72.28-.05.06-.1.12-.09.21.23.03,1.09.02,1.2-.02Z"></path>
  <path d="m73.26,49.87c.06.06.13.13.19.19-.04.1-.11.14-.19.18-.34.19-.7.22-1.05.06-.28-.13-.46-.36-.49-.69-.01-.19-.03-.38.05-.56.16-.38.43-.62.84-.71.16-.03.32-.04.48,0,.32.08.54.3.6.62.03.15.06.3-.01.46h-1.62c-.02.36.25.61.54.64.21.02.38-.04.55-.15.01,0,.02-.02.04-.03.01,0,.03-.01.06-.03Zm-1.13-.74c.25.03,1.11.02,1.21-.02,0-.22-.13-.4-.35-.46-.42-.1-.79.17-.86.47Z"></path>
  <path d="m42.63,49.87c.08.08.15.14.23.21-.13.15-.3.22-.47.27-.3.07-.61.07-.88-.11-.21-.13-.33-.33-.37-.56-.11-.6.19-1.07.69-1.28.27-.11.54-.12.82-.01.26.1.46.39.47.67,0,.11,0,.23,0,.37-.55,0-1.09,0-1.65,0,0,.23.07.41.25.53.32.21.63.12.92-.09Zm-1.11-.74h1.2c.02-.21-.08-.39-.29-.46-.1-.03-.21-.04-.31-.03-.22,0-.52.17-.61.49Z"></path>
  <path d="m61.41,50.37h-.32c0-.08.01-.15.02-.22.06-.28.12-.56.18-.83.05-.23.1-.45.15-.68.02-.09.04-.17.06-.27h.3s.01.07.02.12c.03,0,.06,0,.08-.02.12-.05.24-.1.37-.14.43-.12.86.2.86.65,0,.18-.04.35-.08.53-.06.28-.12.56-.18.86h-.32c.01-.09.02-.19.03-.28.06-.3.13-.59.18-.89.06-.38-.16-.53-.43-.57-.29-.04-.6.2-.65.5-.08.41-.17.82-.26,1.25Z"></path>
  <path d="m49.75,50.37h-.33c.01-.09.02-.16.03-.24.07-.32.14-.65.2-.97.04-.23-.09-.42-.31-.5-.28-.09-.49.03-.69.2-.03.03-.05.08-.06.13-.06.27-.12.54-.18.82-.04.18-.08.37-.12.56h-.33c.12-.67.29-1.32.41-2h.31v.12s.06,0,.08-.02c.11-.08.24-.11.37-.14.27-.06.5.01.69.2.11.11.16.25.17.4.01.16-.02.32-.05.48-.07.31-.13.63-.2.95Z"></path>
  <path d="m75.65,50.37h-.33c.04-.2.08-.38.11-.56.04-.21.09-.42.12-.63.06-.33-.25-.61-.57-.53-.04.01-.08.02-.12.03-.22.07-.36.21-.4.46-.07.41-.17.82-.25,1.24h-.31c0-.06-.01-.13,0-.19.08-.41.17-.81.26-1.22.03-.14.07-.28.1-.41.01-.06.02-.11.02-.19h.31s0,.07.02.11c.03,0,.05,0,.08,0,.12-.04.23-.1.35-.13.29-.07.55,0,.74.23.16.2.17.43.12.67-.08.37-.16.74-.24,1.12Z"></path>
  <path d="m67.24,50.37h-.31s-.02-.08-.03-.12c-.03,0-.06,0-.08.02-.14.08-.28.11-.44.12-.56.03-.82-.39-.71-.89.08-.37.16-.75.25-1.13h.33c-.02.09-.03.18-.04.26-.06.3-.12.61-.19.91-.03.12-.02.23.04.34.07.12.17.18.31.19.23.02.44-.03.61-.21.04-.04.07-.09.08-.15.08-.37.16-.75.24-1.12,0,0,0-.01,0-.02,0-.26.06-.22.29-.22.03,0,.05,0,.09.01-.14.67-.28,1.34-.43,2.01Z"></path>
  <path d="m40.81,50.37h-1.66c.21-.97.41-1.92.62-2.89.05,0,.11,0,.16,0,.06,0,.11,0,.19,0-.18.84-.35,1.67-.53,2.52h1.28c-.02.13-.03.24-.05.37Z"></path>
  <path d="m44.7,48.71c-.11.05-.2.09-.27.12-.11-.07-.19-.14-.28-.19-.1-.05-.26-.01-.34.07-.08.08-.1.18-.02.27.07.08.15.14.23.21.14.11.29.19.42.31.18.17.17.49,0,.67-.14.15-.31.24-.52.23-.15,0-.29,0-.43-.06-.18-.08-.29-.21-.35-.42.1-.04.19-.08.29-.12.08.21.23.29.42.31.1.01.2-.01.28-.08.11-.09.13-.2.05-.32-.04-.05-.09-.1-.15-.14-.1-.07-.21-.12-.31-.19-.17-.12-.31-.26-.32-.5-.01-.23.15-.44.37-.51.19-.07.38-.08.57,0,.15.06.26.18.35.34Z"></path>
  <path d="m85.25,49.91c.1-.04.17-.08.25-.1.02,0,.04,0,.07,0,.07.18.21.27.4.28.11.01.22,0,.31-.09.1-.1.12-.19.04-.31-.04-.05-.1-.1-.15-.14-.11-.07-.22-.13-.32-.2-.18-.12-.31-.28-.3-.52,0-.16.07-.29.19-.38.14-.11.31-.16.49-.15.21,0,.39.08.52.26.03.04.05.08.09.14-.11.05-.21.09-.31.14-.03-.12-.13-.18-.23-.22-.13-.05-.24-.01-.34.06-.12.09-.09.27.05.38.08.06.18.11.27.17.09.06.19.12.27.19.25.22.26.65-.12.86-.32.18-.81.1-1.04-.18-.04-.05-.07-.12-.11-.2Z"></path>
  <path d="m69.04,49.91c.12-.05.21-.08.31-.12.07.2.22.28.41.3.11.01.21,0,.3-.08.11-.1.13-.2.05-.32-.04-.05-.1-.1-.15-.13-.11-.07-.22-.13-.32-.2-.19-.13-.32-.3-.3-.55.01-.11.05-.2.12-.28.13-.15.3-.2.48-.21.27-.01.52.07.67.39-.1.05-.19.09-.3.14-.03-.13-.13-.18-.23-.22-.11-.04-.29,0-.36.08-.09.1-.06.26.07.36.11.08.22.14.33.21.07.05.14.1.2.15.17.15.2.35.15.55-.03.15-.15.24-.27.31-.31.19-.81.1-1.04-.18-.04-.05-.07-.12-.11-.21Z"></path>
  <path d="m51.25,47.75c-.04.21-.07.4-.11.6h.51c.03.11-.02.19-.06.29-.11,0-.22,0-.34,0-.19,0-.19,0-.22.18-.05.26-.12.52-.17.79-.02.12-.02.24-.03.34.15.15.32.1.49.12-.02.1-.03.19-.05.29-.21.05-.41,0-.61-.07-.14-.05-.22-.27-.19-.44.07-.35.15-.71.23-1.06,0-.04,0-.09.02-.15h-.31v-.29c.09,0,.17,0,.25,0,.09,0,.14-.03.16-.12.01-.05.02-.1.02-.16,0-.1.05-.17.14-.21.09-.04.17-.08.27-.13Z"></path>
  <path d="m58.85,57.59h1.58c.04.15.03.62,0,.75h-1.57c0-.25-.03-.49,0-.75Z"></path>
  <path d="m68.2,48.36h.3s.02.08.03.15c.22-.13.44-.21.7-.17-.01.11-.03.21-.05.33-.09,0-.17,0-.26,0-.28,0-.5.2-.55.47-.07.34-.14.68-.22,1.02-.01.07-.03.13-.05.21h-.34c.14-.67.28-1.33.43-2.01Z"></path>
  <path d="m51.65,50.38c.03-.14.05-.27.07-.39.1-.45.2-.9.3-1.35.01-.05.01-.1.02-.16.02-.1.05-.12.15-.12.07,0,.13,0,.21,0,0,.06.02.11.02.16.11-.05.22-.12.33-.15.11-.03.23-.03.35-.04.03.14-.01.23-.06.35-.08,0-.16,0-.24,0-.21,0-.37.1-.48.26-.06.08-.07.21-.09.31-.06.28-.12.55-.18.83-.01.07-.02.13-.03.2-.01.07-.05.1-.12.1-.08,0-.16,0-.24,0Z"></path>
  <path d="m57.97,48.36h.31s.02.08.03.14c.11-.05.22-.11.33-.14.11-.03.23-.03.37-.04-.02.13-.04.24-.07.35-.11,0-.2,0-.29,0-.2,0-.35.11-.46.27-.05.08-.06.19-.08.29-.06.26-.11.51-.16.77-.02.09-.03.18-.05.26-.01.08-.05.12-.14.12-.07,0-.15,0-.24,0,.14-.68.29-1.34.43-2.02Z"></path>
  <path d="m84.1,48.15c.1-.13.19-.25.28-.36.03-.03.06-.06.08-.1.1-.23.29-.25.51-.2-.02.03-.04.06-.06.09-.14.15-.28.3-.41.46-.1.13-.23.16-.4.11Z"></path>
  <path class="cls-1" d="m18.63,41.89v-2.57c.1.02.19.04.26.05.09-.02.16-.04.24-.04.54,0,1.08-.02,1.61,0,.24.01.48.11.68.26.24.19.38.43.47.72.15.49-.05.87-.34,1.23-.05.06-.13.11-.2.15-.15.08-.29.17-.47.18-.18,0-.37.01-.55.01-.51,0-1.01,0-1.52,0-.06,0-.11,0-.18,0Z"></path>
  <path class="cls-1" d="m25.55,42.27s.01-.1.03-.15c.07-.17.13-.33.21-.5.11-.24.23-.48.34-.73.15-.34.31-.68.46-1.02.02-.04.04-.07.06-.11.19-.02.19-.01.25.14.06.16.14.32.2.47.12.27.23.54.35.81.08.19.17.37.26.55.05.1.1.21.14.32.03.06.04.13.06.19-.13.04-2.16.05-2.36.01Z"></path>
  <path class="cls-1" d="m65.84,57.69c0-.31,0-.6,0-.89,0-.08.04-.14.12-.14.17,0,.35-.04.52.06.08-.09.19-.07.3-.04.09.03.18.06.26.1.1.05.17.13.18.24,0,.1.02.21,0,.31-.01.11-.07.19-.17.26-.15.1-.3.11-.46.11-.19,0-.39,0-.58,0-.05,0-.1,0-.17,0Z"></path>
  <path class="cls-1" d="m69.52,56.64c.21,0,.42-.03.61,0,.17.03.34.05.5.11.05.02.09.06.13.09.52.37.62,1.12.19,1.65-.14.18-.34.29-.58.32-.28.04-.56.02-.86.02v-2.2Z"></path>
  <path class="cls-1" d="m33.37,57.09c.18,0,.18,0,.23.13.09.23.18.46.27.69.01.03.02.07.04.12h-.88s-.01-.08,0-.12c.11-.28.22-.55.33-.82Z"></path>
  <path class="cls-1" d="m45.72,58.04h-.91c.01-.05.02-.1.04-.15.09-.23.18-.45.27-.67.02-.04.05-.08.08-.11.05-.05.14-.03.16.03.12.29.23.58.36.9Z"></path>
  <path class="cls-1" d="m63.06,58.03h-.89c.02-.07.04-.12.06-.17.09-.21.17-.43.26-.64.05-.13.07-.14.24-.12.09.31.29.58.33.93Z"></path>
  <path class="cls-1" d="m41.09,57.77v-1.12s.08-.01.12-.01c.11,0,.22.01.33,0,.2-.03.38.04.56.11.03.01.07.03.09.06.17.21.23.54,0,.79-.02.02-.04.04-.06.05-.15.05-.29.13-.46.12-.18-.01-.37,0-.57,0Z"></path>
  <path class="cls-1" d="m81.88,49.96c-.47,0-.69-.3-.6-.73.11-.55.79-.78,1.22-.42.06.05.08.1.06.18-.05.21-.09.43-.14.65-.01.05-.05.11-.09.14-.14.13-.31.19-.45.19Z"></path>
  <path class="cls-1" d="m77.19,49.96c-.45,0-.66-.26-.61-.66.08-.64.81-.82,1.2-.51.08.06.11.12.08.23-.05.19-.09.39-.13.58-.02.1-.07.16-.14.22-.14.1-.29.15-.4.15Z"></path>
  <path class="cls-1" d="m57.02,49.26c0,.56-.55.96-1.07.76-.05-.02-.1-.04-.14-.07-.12-.08-.18-.17-.13-.33.06-.18.09-.38.13-.57.02-.12.08-.21.18-.26.11-.05.22-.11.33-.13.39-.08.69.19.7.61Z"></path>
  <path class="cls-1" d="m78.89,49.47c0-.59.55-.97,1.06-.77.06.02.11.06.16.09.11.07.15.16.11.29-.06.21-.09.42-.14.63-.01.05-.04.11-.08.15-.19.16-.41.24-.66.2-.24-.04-.43-.24-.46-.5,0-.04,0-.08,0-.1Z"></path>
  <path class="cls-1" d="m84.85,49.13h-1.21s.02-.08.03-.11c.15-.28.49-.44.81-.37.23.05.37.23.38.48Z"></path>
  <path class="cls-1" d="m63.83,49.12c.11-.36.48-.54.84-.48.23.04.38.23.38.47-.11.03-1.05.04-1.22,0Z"></path>
  <path class="cls-1" d="m54.65,49.13h-1.22c.03-.11.08-.19.15-.26.2-.21.52-.29.77-.2.2.07.31.23.3.46Z"></path>
  <path class="cls-1" d="m46.24,49.13c.06-.26.3-.46.58-.49.07,0,.14,0,.2,0,.26.03.42.21.42.49h-1.2Z"></path>
  <path class="cls-1" d="m60.54,49.11c-.1.03-.96.04-1.2.02,0-.08.04-.15.09-.21.18-.23.43-.32.72-.28.24.03.4.23.39.47Z"></path>
  <path class="cls-1" d="m72.13,49.13c.07-.3.44-.57.86-.47.22.05.36.24.35.46-.1.04-.96.05-1.21.02Z"></path>
  <path class="cls-1" d="m41.52,49.13c.09-.32.39-.49.61-.49.1,0,.21,0,.31.03.2.07.3.24.29.46h-1.2Z"></path>
</svg>
