<?xml version="1.0" encoding="UTF-8"?>
<svg xmlns="http://www.w3.org/2000/svg" id="logo" viewBox="0 0 180 180">
  <defs>
    <style>
      .cls-1 {
        fill: #fff;
      }

      .cls-2, .cls-3 {
        fill: #220a05;
      }

      .cls-3 {
        fill-rule: evenodd;
      }
    </style>
  </defs>
  <rect class="cls-2" x="134.24" y="107.89" width="42.82" height="13.08" rx="3.4" ry="3.4"></rect>
  <g>
    <path class="cls-1" d="m141.26,114.02h1.54v2.22c0,1.12-.56,1.76-1.64,1.76s-1.64-.64-1.64-1.76v-3.64c0-1.12.56-1.76,1.64-1.76s1.64.64,1.64,1.76v.68h-1.04v-.75c0-.5-.22-.69-.57-.69s-.57.19-.57.69v3.78c0,.5.22.68.57.68s.57-.18.57-.68v-1.29h-.5v-1Z"></path>
    <path class="cls-1" d="m145.81,117.92c-.06-.18-.1-.29-.1-.86v-1.1c0-.65-.22-.89-.72-.89h-.38v2.85h-1.1v-7h1.66c1.14,0,1.63.53,1.63,1.61v.55c0,.72-.23,1.19-.72,1.42.55.23.73.76.73,1.49v1.08c0,.34,0,.59.12.85h-1.12Zm-1.2-6v2.15h.43c.41,0,.66-.18.66-.74v-.69c0-.5-.17-.72-.56-.72h-.53Z"></path>
    <path class="cls-1" d="m151.09,117.92h-1.11l-.19-1.27h-1.35l-.19,1.27h-1.01l1.12-7h1.61l1.12,7Zm-2.51-2.22h1.06l-.53-3.54-.53,3.54Z"></path>
    <path class="cls-1" d="m152.58,112.85v5.07h-.99v-7h1.38l1.13,4.19v-4.19h.98v7h-1.13l-1.37-5.07Z"></path>
    <path class="cls-1" d="m155.87,110.92h1.74c1.1,0,1.64.61,1.64,1.73v3.54c0,1.12-.54,1.73-1.64,1.73h-1.74v-7Zm1.1,1v5h.62c.35,0,.56-.18.56-.68v-3.64c0-.5-.21-.68-.56-.68h-.62Z"></path>
    <path class="cls-1" d="m162.6,113.87h1.51v1h-1.51v2.05h1.9v1h-3v-7h3v1h-1.9v1.95Z"></path>
    <path class="cls-1" d="m166.65,110.84c1.07,0,1.62.64,1.62,1.76v.22h-1.04v-.29c0-.5-.2-.69-.55-.69s-.55.19-.55.69c0,1.44,2.15,1.71,2.15,3.71,0,1.12-.56,1.76-1.64,1.76s-1.64-.64-1.64-1.76v-.43h1.04v.5c0,.5.22.68.57.68s.57-.18.57-.68c0-1.44-2.15-1.71-2.15-3.71,0-1.12.55-1.76,1.62-1.76Z"></path>
    <path class="cls-1" d="m168.59,110.92h3.4v1h-1.15v6h-1.1v-6h-1.15v-1Z"></path>
  </g>
  <path id="chambres" class="cls-3" d="m147.79,73.84s0-.07,0-.12c0-.16-.05-.29-.15-.38-.1-.1-.23-.14-.39-.14-.18,0-.34.06-.48.18-.14.12-.25.28-.33.47h1.35Zm-.6-1.45c.34,0,.63.06.89.19.25.13.45.31.58.54.14.23.2.5.2.81,0,.14-.02.32-.06.51h-2.44c.02.19.1.35.22.45.13.11.3.16.52.16.28,0,.55-.1.79-.29l.57.62c-.38.35-.85.52-1.4.52-.36,0-.68-.06-.95-.19-.27-.13-.48-.31-.63-.55-.15-.24-.22-.51-.22-.83,0-.37.08-.7.25-1,.17-.3.4-.53.7-.7s.63-.25,1-.25Zm-3.07.57c.31-.39.71-.58,1.19-.58l-.13,1.04s-.09,0-.17,0c-.28,0-.52.07-.73.22-.21.15-.34.34-.4.57l-.33,1.66h-1.13l.69-3.44h1.13l-.11.53Zm-3.73.3c-.16,0-.3.05-.44.14-.14.09-.24.21-.32.37-.08.15-.12.32-.12.5,0,.22.06.39.17.52.12.13.27.19.47.19.16,0,.3-.04.44-.13.13-.09.24-.21.32-.36.08-.15.12-.32.12-.5,0-.22-.06-.39-.17-.52-.11-.13-.27-.19-.46-.19Zm.44-.87c.26,0,.49.06.7.19.2.13.36.31.47.53.11.23.17.49.17.79,0,.37-.08.71-.24,1.02-.16.31-.38.55-.65.73-.28.18-.58.27-.92.27-.25,0-.47-.05-.65-.16-.18-.1-.32-.26-.42-.45l-.11.56h-1.13l.93-4.72h1.13l-.34,1.69c.15-.14.31-.26.49-.33s.37-.12.56-.12Zm-4.33,0c.36,0,.65.1.86.31.21.21.32.48.32.81,0,.12-.01.23-.03.33l-.41,2.03h-1.13l.37-1.87c.01-.06.02-.12.02-.17,0-.15-.04-.27-.13-.35-.09-.09-.21-.13-.37-.13-.19,0-.35.07-.51.22-.15.14-.25.33-.3.56l-.35,1.75h-1.13l.38-1.87c.01-.06.02-.11.02-.17,0-.15-.04-.27-.13-.36-.09-.09-.21-.13-.37-.13-.19,0-.36.07-.51.22-.15.14-.25.33-.3.56l-.35,1.75h-1.13l.68-3.44h1.13l-.09.46c.28-.33.63-.5,1.07-.5.29,0,.53.07.73.2.2.13.33.32.4.55.34-.5.76-.75,1.27-.75Zm-7.72,2.66c.16,0,.3-.04.44-.13.14-.09.24-.21.32-.36.08-.15.12-.32.12-.5,0-.22-.06-.39-.17-.52-.12-.13-.27-.19-.47-.19-.16,0-.3.05-.44.14-.13.09-.24.21-.32.37-.08.15-.12.32-.12.5,0,.22.06.39.17.52.12.13.27.19.46.19Zm-.44.87c-.26,0-.49-.06-.69-.19-.2-.13-.36-.31-.47-.53-.11-.23-.17-.49-.17-.79,0-.37.08-.71.24-1.02.16-.31.38-.55.65-.72.28-.18.58-.27.92-.27.52,0,.87.2,1.07.61l.11-.57h1.13l-.68,3.44h-1.13l.08-.41c-.3.3-.65.45-1.06.45Zm-2.9-3.53c.36,0,.65.1.86.31.21.21.32.48.32.82,0,.09-.01.2-.03.32l-.41,2.03h-1.13l.37-1.87c.01-.06.02-.11.02-.17,0-.15-.04-.27-.13-.36-.09-.09-.21-.13-.37-.13-.19,0-.36.07-.51.22-.15.14-.25.33-.29.56l-.35,1.75h-1.13l.93-4.72h1.14l-.34,1.74c.27-.33.63-.5,1.06-.5Zm-4.59-1.04c.33,0,.65.07.96.21.31.14.56.33.76.56l-.76.81c-.13-.18-.28-.33-.47-.44-.19-.11-.38-.16-.57-.16-.24,0-.47.06-.67.19-.21.13-.37.3-.49.51-.12.22-.18.45-.18.71,0,.22.05.42.14.6.09.18.22.32.39.42.17.1.35.15.56.15.18,0,.38-.05.59-.14.21-.09.4-.22.58-.38l.6.73c-.27.25-.57.46-.92.61-.35.15-.68.23-1.01.23-.41,0-.78-.09-1.1-.27-.32-.18-.57-.43-.75-.75-.18-.32-.27-.68-.27-1.08,0-.47.12-.89.35-1.27.23-.38.55-.68.95-.9.4-.22.84-.33,1.32-.33Z"></path>
  <path id="de" class="cls-3" d="m112.34,86.4c-.29,0-.54.09-.76.26s-.35.41-.41.7h2.06c0-.3-.07-.53-.23-.71-.16-.17-.38-.26-.66-.26Zm-1.21,1.25v.02c0,.3.09.54.27.72.18.18.42.27.72.27.17,0,.34-.03.49-.09.15-.06.29-.14.41-.25l.17.24c-.14.13-.3.23-.49.3-.19.07-.39.1-.6.1-.26,0-.49-.05-.69-.16-.2-.11-.35-.26-.46-.45-.11-.19-.16-.42-.16-.68,0-.3.07-.56.21-.8.14-.24.33-.43.56-.56.24-.14.5-.21.79-.21.37,0,.67.11.89.34s.33.52.33.9c0,.09,0,.2-.03.32h-2.39Zm-2.71,1.01c.22,0,.42-.06.6-.17.18-.11.33-.27.44-.46.11-.19.16-.41.16-.64,0-.29-.09-.52-.26-.7-.18-.18-.41-.27-.69-.27-.22,0-.42.06-.61.17-.18.11-.33.27-.44.46-.11.19-.16.41-.16.64,0,.29.09.52.27.7.18.18.41.27.7.27Zm-.11.31c-.24,0-.45-.05-.63-.16-.19-.11-.33-.25-.43-.45-.1-.19-.15-.41-.15-.65,0-.3.07-.57.21-.82.14-.25.32-.44.56-.58.23-.14.49-.21.78-.21s.53.07.72.21c.2.14.33.34.39.58l.39-1.95h.36l-.8,4.01h-.36l.11-.55c-.14.18-.3.32-.5.42-.2.1-.41.15-.64.15Z"></path>
  <path id="metiers" class="cls-3" d="m161.43,88.96c-.66,0-1.3-.12-1.91-.35-.61-.23-1.13-.55-1.56-.96l.94-1.35c.36.32.75.58,1.18.78.43.19.83.29,1.21.29.24,0,.42-.04.55-.13.13-.09.2-.21.2-.38,0-.14-.08-.25-.24-.35-.16-.1-.42-.21-.76-.35-.41-.16-.75-.31-1.02-.46-.27-.14-.5-.35-.7-.6-.19-.26-.29-.57-.29-.95,0-.44.11-.83.34-1.17.23-.34.55-.6.96-.79.41-.19.88-.28,1.42-.28.57,0,1.13.1,1.7.3s1.07.47,1.52.82l-.99,1.35c-.39-.27-.78-.49-1.16-.65-.39-.16-.71-.24-.99-.24-.19,0-.34.04-.47.13-.13.09-.19.2-.19.34s.08.25.25.36c.17.1.42.22.77.36.42.17.76.33,1.04.48.28.15.51.35.71.61.2.26.3.58.3.96,0,.44-.12.83-.36,1.17-.24.34-.57.6-.99.79-.42.19-.91.28-1.45.28Zm-5.18-5.9c.62-.77,1.41-1.16,2.38-1.16l-.27,2.07c-.08,0-.19-.01-.33-.01-.56,0-1.05.15-1.47.45-.42.3-.69.68-.81,1.14l-.66,3.32h-2.26l1.37-6.88h2.26l-.22,1.07Zm-6.03,1.77c0-.05.01-.13.01-.24,0-.32-.1-.58-.29-.77-.19-.19-.46-.29-.79-.29-.36,0-.68.12-.97.36-.29.24-.51.55-.66.94h2.7Zm-1.2-2.9c.68,0,1.27.13,1.77.38.5.25.89.61,1.16,1.07.27.46.41,1,.41,1.62,0,.29-.04.63-.13,1.03h-4.88c.04.39.19.69.45.9.25.21.6.32,1.03.32.57,0,1.09-.19,1.58-.57l1.13,1.23c-.76.7-1.7,1.04-2.8,1.04-.73,0-1.36-.13-1.91-.38-.54-.25-.96-.62-1.26-1.09-.3-.47-.45-1.03-.45-1.65,0-.74.17-1.4.5-2,.33-.59.8-1.06,1.39-1.4.59-.34,1.26-.51,2-.51Zm-4.9-3.1c.31,0,.55.09.72.27.18.18.27.42.27.72,0,.4-.14.74-.43,1.01s-.63.41-1.04.41c-.3,0-.53-.09-.71-.27-.18-.18-.27-.42-.27-.72,0-.4.14-.74.43-1.01.28-.28.63-.41,1.02-.41Zm.51,3.17l-1.36,6.88h-2.26l1.37-6.88h2.25Zm-6.21,4.51c-.02.07-.03.16-.03.27,0,.14.03.24.1.3.06.06.16.08.3.07.25,0,.57-.09.95-.27l.24,1.68c-.26.14-.56.24-.9.31-.33.07-.66.11-.99.11-.62,0-1.11-.16-1.48-.48-.36-.32-.55-.75-.55-1.3,0-.18.02-.35.05-.51l.57-2.86h-.94l.29-1.5h.95l.38-1.91h2.25l-.38,1.91h1.78l-.29,1.5h-1.79l-.53,2.68Zm-6.29-7.44l1.87.71-1.84,1.46-1.55-.13,1.53-2.05Zm.65,5.76c0-.05.01-.13.01-.24,0-.32-.1-.58-.29-.77-.19-.19-.46-.29-.79-.29-.36,0-.68.12-.97.36-.29.24-.51.55-.66.94h2.7Zm-1.2-2.9c.68,0,1.27.13,1.77.38s.89.61,1.16,1.07c.27.46.41,1,.41,1.62,0,.29-.04.63-.13,1.03h-4.88c.04.39.19.69.45.9.25.21.6.32,1.03.32.57,0,1.09-.19,1.58-.57l1.13,1.23c-.76.7-1.7,1.04-2.8,1.04-.73,0-1.36-.13-1.91-.38-.54-.25-.96-.62-1.26-1.09-.3-.47-.45-1.03-.45-1.65,0-.74.17-1.4.5-2,.33-.59.8-1.06,1.39-1.4.59-.34,1.26-.51,2-.51Zm-6.54-1.97h2.52l-1.73,8.91h-2.05l1.12-5.72-3.26,4.83h-1.49l-1.36-4.84-1.12,5.73h-2.05l1.73-8.91h2.51l1.58,5.28,3.6-5.28Z"></path>
  <path id="et_de_l" data-name="et de l" class="cls-3" d="m112.43,97.33c.06,0,.11.02.15.06.04.04.06.09.06.15,0,.04,0,.08-.02.11-.01.03-.04.07-.07.13l-.32.59h-.22l.26-.58c-.08-.04-.11-.11-.11-.2,0-.07.03-.13.08-.18.05-.05.11-.08.18-.08Zm-1.03,0l-.8,4.01h-.36l.8-4.01h.36Zm-4.36,1.47c-.29,0-.54.09-.76.26-.21.18-.35.41-.41.7h2.06c0-.3-.07-.53-.23-.71-.16-.17-.38-.26-.66-.26Zm-1.21,1.25v.02c0,.3.09.54.27.72.18.18.42.27.72.27.17,0,.34-.03.49-.09.15-.06.29-.14.41-.25l.17.24c-.14.13-.3.23-.49.3-.19.07-.39.1-.6.1-.26,0-.49-.05-.69-.16-.2-.11-.35-.26-.46-.45-.11-.19-.16-.42-.16-.68,0-.3.07-.56.21-.8.14-.24.33-.43.56-.56.24-.14.5-.21.79-.21.37,0,.67.11.89.34.22.22.33.52.33.9,0,.09,0,.2-.03.32h-2.39Zm-2.71,1.01c.22,0,.42-.06.6-.17.18-.11.33-.27.44-.46.11-.19.16-.41.16-.64,0-.29-.09-.52-.26-.7-.18-.18-.41-.27-.69-.27-.22,0-.42.06-.61.17-.18.11-.33.27-.44.46-.11.19-.16.41-.16.64,0,.29.09.52.27.7.18.18.41.27.7.27Zm-.11.31c-.24,0-.45-.05-.63-.16-.19-.11-.33-.25-.43-.45-.1-.19-.15-.41-.15-.65,0-.3.07-.57.21-.82.14-.25.32-.44.56-.58.23-.14.49-.21.78-.21s.53.07.72.21c.2.14.33.34.39.58l.39-1.95h.36l-.8,4.01h-.36l.11-.55c-.14.18-.3.32-.5.42-.2.1-.41.15-.64.15Zm-4.16-.85c-.01.07-.02.14-.02.2,0,.11.02.19.07.24.05.05.12.07.22.07.16,0,.33-.06.5-.16l.08.29c-.22.13-.43.2-.65.21-.18,0-.33-.05-.43-.15-.1-.1-.16-.24-.16-.43,0-.06,0-.15.03-.24l.34-1.67h-.41l.05-.29h.41l.15-.72h.36l-.15.72h.91l-.05.29h-.92l-.33,1.64Zm-2.3-1.71c-.29,0-.54.09-.76.26-.21.18-.35.41-.41.7h2.06c0-.3-.07-.53-.23-.71-.16-.17-.38-.26-.66-.26Zm-1.21,1.25v.02c0,.3.09.54.27.72s.42.27.72.27c.17,0,.34-.03.49-.09.15-.06.29-.14.41-.25l.17.24c-.14.13-.3.23-.49.3-.19.07-.39.1-.6.1-.26,0-.49-.05-.69-.16s-.35-.26-.46-.45c-.11-.19-.16-.42-.16-.68,0-.3.07-.56.21-.8.14-.24.33-.43.56-.56.24-.14.5-.21.79-.21.37,0,.67.11.89.34.22.22.33.52.33.9,0,.09,0,.2-.03.32h-2.39Z"></path>
  <path id="artisanat" class="cls-3" d="m174.43,99.22c-.02.07-.03.16-.03.27,0,.14.03.24.1.3.06.06.16.08.3.07.25,0,.57-.09.95-.27l.24,1.68c-.26.14-.56.24-.9.31-.33.07-.66.11-.99.11-.62,0-1.11-.16-1.48-.48-.36-.32-.55-.75-.55-1.3,0-.18.02-.35.05-.51l.57-2.86h-.94l.29-1.5h.95l.38-1.91h2.25l-.38,1.91h1.78l-.29,1.5h-1.79l-.53,2.68Zm-8.1.71c.31,0,.61-.09.88-.27.27-.18.49-.42.64-.72.16-.31.24-.64.24-1,0-.43-.12-.78-.35-1.04-.23-.26-.54-.39-.93-.39-.31,0-.6.09-.87.27-.27.18-.48.43-.64.73-.16.31-.24.64-.24.99,0,.43.12.78.35,1.04.23.26.54.39.92.39Zm-.88,1.74c-.52,0-.98-.13-1.39-.38-.41-.25-.72-.61-.95-1.07-.22-.46-.34-.98-.34-1.58,0-.75.16-1.42.48-2.03.32-.61.75-1.09,1.31-1.45.56-.36,1.17-.53,1.84-.53,1.03,0,1.75.41,2.14,1.22l.23-1.14h2.25l-1.36,6.88h-2.26l.17-.81c-.6.6-1.31.9-2.11.9Zm-5.8-7.06c.72,0,1.29.21,1.72.62.42.41.64.95.64,1.62,0,.25-.02.47-.06.66l-.81,4.07h-2.26l.75-3.74c.03-.12.04-.23.04-.33,0-.31-.09-.54-.27-.72-.18-.17-.42-.26-.74-.26-.38,0-.72.14-1.02.43-.3.29-.5.66-.59,1.12l-.7,3.5h-2.26l1.36-6.88h2.26l-.18.92c.55-.67,1.26-1,2.14-1Zm-10.66,5.32c.31,0,.61-.09.88-.27.27-.18.49-.42.64-.72.16-.31.24-.64.24-1,0-.43-.12-.78-.35-1.04-.23-.26-.54-.39-.93-.39-.31,0-.6.09-.87.27-.27.18-.48.43-.64.73-.16.31-.24.64-.24.99,0,.43.12.78.35,1.04.23.26.54.39.92.39Zm-.88,1.74c-.52,0-.98-.13-1.39-.38-.41-.25-.72-.61-.95-1.07-.22-.46-.34-.98-.34-1.58,0-.75.16-1.42.48-2.03.32-.61.75-1.09,1.31-1.45.56-.36,1.17-.53,1.84-.53,1.03,0,1.75.41,2.14,1.22l.23-1.14h2.25l-1.36,6.88h-2.26l.17-.81c-.6.6-1.31.9-2.11.9Zm-6.4,0c-.66,0-1.3-.12-1.91-.35-.61-.23-1.13-.55-1.56-.96l.94-1.35c.36.32.75.58,1.18.78.43.19.83.29,1.21.29.24,0,.42-.04.55-.13.13-.09.2-.21.2-.38,0-.14-.08-.25-.24-.35-.16-.1-.42-.21-.76-.35-.41-.16-.75-.31-1.02-.46-.27-.14-.5-.35-.7-.6-.19-.26-.29-.57-.29-.95,0-.44.11-.83.34-1.17.23-.34.55-.6.96-.79.41-.19.88-.28,1.42-.28.57,0,1.13.1,1.7.3.56.2,1.07.47,1.52.82l-.99,1.35c-.39-.27-.78-.49-1.16-.65-.39-.16-.71-.24-.99-.24-.19,0-.34.04-.47.13-.13.09-.19.2-.19.34s.08.25.25.36c.17.1.42.22.77.36.42.17.76.33,1.04.48.28.15.51.35.71.61.2.26.3.58.3.96,0,.44-.12.83-.36,1.17-.24.34-.57.6-.99.79-.42.19-.91.28-1.45.28Zm-3.93-10.13c.31,0,.55.09.72.27.18.18.27.42.27.72,0,.4-.14.74-.43,1.01-.28.28-.63.41-1.04.41-.3,0-.53-.09-.71-.27-.18-.18-.27-.42-.27-.72,0-.4.14-.74.43-1.01.28-.28.63-.41,1.02-.41Zm.51,3.17l-1.36,6.88h-2.26l1.37-6.88h2.25Zm-6.21,4.51c-.02.07-.03.16-.03.27,0,.14.03.24.1.3.06.06.16.08.3.07.25,0,.57-.09.95-.27l.24,1.68c-.26.14-.56.24-.9.31-.33.07-.66.11-.99.11-.62,0-1.11-.16-1.48-.48-.36-.32-.55-.75-.55-1.3,0-.18.02-.35.05-.51l.57-2.86h-.94l.29-1.5h.95l.38-1.91h2.25l-.38,1.91h1.78l-.29,1.5h-1.79l-.53,2.68Zm-5.16-3.45c.62-.77,1.41-1.16,2.38-1.16l-.27,2.07c-.08,0-.19-.01-.33-.01-.56,0-1.05.15-1.47.45-.42.3-.69.68-.81,1.14l-.66,3.32h-2.26l1.37-6.88h2.26l-.22,1.07Zm-9.93,2.45h2.49l-.7-3.23-1.79,3.23Zm3.22,3.36l-.34-1.58h-3.87l-.88,1.58h-2.38l5.3-8.91h2.39l2.26,8.91h-2.49Z"></path>
  <path id="a" class="cls-3" d="m78.52,91.81h-12.14l-2.73,8.05s9.61,1.21,16-4.83l-1.12-3.22"></path>
  <path id="a-2" data-name="a" class="cls-3" d="m55.8,87.24c0,3.23.65,6.3,1.81,9.11l10.57-29.89c-7.36,3.95-12.38,11.77-12.38,20.78"></path>
  <path id="a-3" data-name="a" class="cls-3" d="m85.21,68.44c-2.56-1.3-6.01-2.28-8.81-2.58h-.08l7.71,22.64c2.28-4.1,4.47-12.87,1.17-20.06"></path>
  <path id="m" class="cls-3" d="m44.4,83.66c-.23.6-3.89,10.29-4.9,12.98,2.05-.55,4.19-1.34,6.34-2.36-.51-3.76-1.37-10.1-1.44-10.63Zm-13.96,13.72c2.06.3,4.42.2,6.94-.29-.59-1.63-4.65-12.78-4.89-13.42-.32,2.13-.44,3.03-2.06,13.72Z"></path>
  <path id="a-4" data-name="a" class="cls-3" d="m28.93,76.72c-1.1.75-2.92,2.36-4.31,5.44-2.55,5.66-.17,10.51,1.25,12.67l3.06-18.11"></path>
  <path id="m-2" data-name="m" class="cls-3" d="m33.45,74.88c1.2,2.97,5.17,12.8,5.38,13.31.2-.52,4.11-10.63,5.19-13.44-4.34-.67-8.18-.56-10.57.12"></path>
  <path id="m-3" data-name="m" class="cls-3" d="m52.65,81.2c-.71-2.72-2.05-4.56-4.7-5.39l2.37,15.7c3.24-3.1,3.04-7.59,2.33-10.31Z"></path>
  <path id="c" class="cls-3" d="m55.62,106.12c-27.8,0-43.77-7.32-43.77-18.67s15.06-18.46,40.06-19.28c.7-.02,1.68-.04,2.95-.06.54,0,.97-.45.96-.99,0-.1-.02-.2-.05-.3-.26-.76-.98-1.26-1.78-1.25-1,.02-1.79.03-2.37.05-29.68.93-47.45,10.01-47.45,21.76,0,14.83,24.11,21.34,49.15,21.34,11,0,22.67-1.14,35.02-3.42.64-.12,1.07-.74.95-1.38-.01-.06-.02-.11-.04-.17-.25-.74-1.01-1.18-1.78-1.04-11.95,2.26-22.56,3.4-31.85,3.4Z"></path>
  <polyline id="a-5" data-name="a" class="cls-3" points="68.17 86.08 76.63 86.08 72.42 73.1 68.17 86.08"></polyline>
</svg>
