<?xml version="1.0" encoding="UTF-8"?>
<svg xmlns="http://www.w3.org/2000/svg" id="Calque_1" data-name="Calque 1" viewBox="0 0 100 100">
  <defs>
    <style>
      .cls-1 {
        fill: #1a171b;
      }
    </style>
  </defs>
  <rect class="cls-1" x="19.92" y="61.94" width="83.94" height="3.56"></rect>
  <g>
    <path class="cls-1" d="m1.92,64.72l-1.03-1.53v2.3H.17v-3.56h.69l1.08,1.68,1.07-1.68h.68v3.56h-.73v-2.3l-1.02,1.53h-.02Z"></path>
    <path class="cls-1" d="m6.16,61.93l1.36,3.56h-.75l-.32-.86h-1.34l-.31.86h-.74l1.36-3.56h.74Zm-.81,2.08h.87l-.44-1.18-.44,1.18Z"></path>
    <path class="cls-1" d="m8.64,64.16v1.33h-.74v-3.56h1.47c.75,0,1.25.4,1.25,1.13,0,.57-.31.93-.81,1.05l.94,1.38h-.84l-.88-1.33h-.39Zm0-.61h.68c.37,0,.56-.2.56-.49s-.19-.5-.56-.5h-.68v.99Z"></path>
    <path class="cls-1" d="m14.14,65.49h-.59l-1.68-2.37v2.37h-.71v-3.56h.7l1.57,2.25v-2.25h.71v3.56Z"></path>
    <path class="cls-1" d="m17.25,61.93v.65h-1.69v.78h1.53v.63h-1.53v.85h1.69v.66h-2.42v-3.56h2.42Z"></path>
  </g>
  <g>
    <path class="cls-1" d="m32.55,44.28v-.34c0-3.24-2.39-6.2-7.15-6.2s-7.21,3.27-7.21,6.94v.34h3.76c0-2.33,1.4-3.7,3.56-3.7,2.05,0,3.28,1.19,3.28,2.79,0,1.71-.77,2.7-3.76,3.36-4.07.91-6.66,2.65-6.66,6.66v3.93h13.83v-3.58h-10.07v-.34c0-1.59.83-2.48,4.41-3.3,4.27-1,6.01-3.19,6.01-6.54"></path>
    <path class="cls-1" d="m102.79,47.15c.41,0,.78.18,1.1.44v-.91c-.32-.21-.69-.32-1.15-.32-.8,0-1.4.43-1.4,1.12,0,.62.39.91,1.02,1.08l.35.1c.25.08.41.15.41.35,0,.22-.23.3-.53.3-.39,0-.89-.18-1.24-.5v.92c.31.23.79.36,1.27.36.84,0,1.48-.39,1.48-1.11,0-.58-.31-.9-1-1.09l-.4-.12c-.25-.08-.39-.14-.39-.34s.21-.3.48-.3m-4.39,1.32h2.31v-.32c0-1.06-.54-1.78-1.58-1.78-.98,0-1.69.78-1.69,1.9s.75,1.84,1.84,1.84c.48,0,.88-.1,1.18-.31v-.82c-.35.23-.63.31-1.03.31-.53,0-.96-.24-1.04-.83m.03-.65c.11-.45.39-.66.72-.66.39,0,.61.27.63.66h-1.36Zm-3.34-.36c0-.2.21-.3.48-.3.41,0,.78.18,1.1.44v-.91c-.32-.21-.69-.32-1.15-.32-.8,0-1.4.43-1.4,1.12,0,.62.39.91,1.02,1.08l.35.1c.25.08.41.15.41.35,0,.22-.23.3-.53.3-.39,0-.89-.18-1.24-.5v.92c.3.23.79.36,1.27.36.84,0,1.48-.39,1.48-1.11,0-.58-.31-.9-.99-1.09l-.4-.12c-.25-.08-.39-.14-.39-.34m-1.71-2.05c0-.33-.27-.57-.59-.57s-.59.24-.59.57.27.57.59.57.59-.23.59-.57m-2.34,1.89c.18,0,.36.04.5.12v-.99c-.06-.03-.21-.06-.38-.06-.35,0-.65.18-.8.43v-.35h-1v3.59h1v-2.22c.07-.33.35-.5.68-.5m-2.43.94c0-1.01-.59-1.88-1.64-1.88-.39,0-.74.18-.9.38v-.3h-1v4.91h1v-1.62c.16.19.51.38.9.38,1.04,0,1.64-.86,1.64-1.87m-1,0c0,.57-.32,1-.86,1-.29,0-.55-.17-.67-.42v-1.18c.12-.24.38-.42.67-.42.54,0,.86.43.86,1.01m-14.31-1.88c-.42,0-.77.18-.96.41v-.33h-1v3.59h1v-2.27c.08-.31.35-.5.65-.5.39,0,.59.26.59.63v2.13h1v-2.34c0-.79-.46-1.32-1.27-1.32m-5.04,2.1h2.31v-.32c0-1.06-.54-1.78-1.58-1.78-.98,0-1.69.78-1.69,1.9s.75,1.84,1.84,1.84c.48,0,.88-.1,1.18-.31v-.82c-.35.23-.63.31-1.03.31-.53,0-.96-.24-1.04-.83m.03-.65c.11-.45.39-.66.72-.66.39,0,.61.27.63.66h-1.36Zm-4.84-.36c0-.2.21-.3.48-.3.41,0,.78.18,1.1.44v-.91c-.32-.21-.69-.32-1.15-.32-.8,0-1.4.43-1.4,1.12,0,.62.39.91,1.02,1.08l.34.1c.25.08.41.15.41.35,0,.22-.23.3-.53.3-.39,0-.89-.18-1.24-.5v.92c.31.23.79.36,1.27.36.84,0,1.48-.39,1.48-1.11,0-.58-.31-.9-1-1.09l-.4-.12c-.25-.08-.39-.14-.39-.34m-3.91,1.01h2.31v-.32c0-1.06-.54-1.78-1.58-1.78-.98,0-1.69.78-1.69,1.9s.75,1.84,1.84,1.84c.48,0,.88-.1,1.18-.31v-.82c-.35.23-.63.31-1.03.31-.53,0-.96-.24-1.04-.83m.03-.65c.11-.45.39-.66.72-.66.39,0,.61.27.63.66h-1.36Zm-2.75,2.21h1v-5.04h-1v1.75c-.16-.19-.51-.38-.9-.38-1.04,0-1.63.85-1.63,1.88s.59,1.87,1.63,1.87c.39,0,.74-.18.9-.38v.3Zm0-1.2c-.11.25-.38.42-.67.42-.54,0-.86-.43-.86-1s.32-1.01.86-1.01c.29,0,.56.18.67.42v1.18Zm19.11-2.38h-.68v.8h.68v2.78h.99v-2.78h.76v-.8h-.76v-.97h-.99v.97Zm3.48,0h-1v3.59h1v-2.22c.07-.33.35-.5.68-.5.18,0,.36.04.5.12v-.99c-.06-.03-.21-.06-.38-.06-.35,0-.65.18-.8.43v-.35Zm1.63,1.82c0,1.14.75,1.84,1.84,1.84.48,0,.88-.1,1.18-.31v-.82c-.35.23-.63.31-1.03.31-.53,0-.96-.24-1.04-.83h2.31v-.32c0-1.06-.54-1.78-1.58-1.78-.98,0-1.69.78-1.69,1.9m.99-.45c.11-.45.39-.66.72-.66.39,0,.61.27.63.66h-1.36Zm11.27-1.37h-1v3.58h1v-3.58Z"></path>
    <path class="cls-1" d="m14.42,51.17v-13.03h-3.76v13.03c0,2.36-1.05,3.76-3.42,3.76s-3.42-1.39-3.42-3.76v-13.03H.07v13.03c0,4.58,2.42,7.28,7.18,7.28s7.18-2.7,7.18-7.28"></path>
    <path class="cls-1" d="m103.86,38.9h-28.99v3.59h28.99v-3.59Zm-32.75,3.58h1v-2.34c0-.79-.46-1.32-1.27-1.32-.42,0-.77.18-.96.41v-.33h-1v3.58h1v-2.27c.08-.31.35-.5.65-.5.39,0,.59.26.59.63v2.13Zm-15.64-3.58h-1v2.34c0,.79.46,1.32,1.26,1.32.42,0,.76-.18.96-.41v.33h1v-3.58h-1v2.28c-.07.31-.34.5-.64.5-.39,0-.58-.26-.58-.63v-2.14Zm4.2,0h-1v3.58h1v-2.27c.08-.31.34-.5.65-.5.39,0,.59.26.59.63v2.13h.99v-2.34c0-.79-.46-1.32-1.27-1.32-.42,0-.77.18-.96.41v-.33Zm3.08-1.03c0,.34.27.57.59.57s.59-.23.59-.57-.27-.57-.59-.57-.59.24-.59.57m1.09,1.03h-1v3.58h1v-3.58Zm.76,1.8c0,1.1.71,1.87,1.76,1.87s1.76-.77,1.76-1.87-.71-1.88-1.76-1.88-1.76.77-1.76,1.88m.99,0c0-.6.27-1.03.77-1.03s.77.43.77,1.03-.27,1.03-.77,1.03-.77-.43-.77-1.03"></path>
    <path class="cls-1" d="m49.69,44.59v-.68c0-2.9-1.97-5.78-6.09-5.78h-7.52v3.58h7.15c1.68,0,2.71,1,2.71,2.45v.34c0,1.45-1.02,2.45-2.71,2.45h-7.15v11.1h3.76v-7.51h3.76c4.04,0,6.09-2.93,6.09-5.95"></path>
    <path class="cls-1" d="m104.1,56v-.32c0-1.06-.54-1.78-1.58-1.78-.98,0-1.69.78-1.69,1.9s.75,1.84,1.84,1.84c.48,0,.88-.1,1.18-.31v-.82c-.35.23-.63.31-1.03.31-.53,0-.96-.24-1.04-.83h2.31Zm-.92-.65h-1.36c.11-.45.39-.66.72-.66.39,0,.61.27.63.66m-.47-3l-.63,1.14h.9l.72-1.14h-.99Zm-11.55,1.63h-1v3.58h1v-2.31c.06-.3.3-.47.56-.47.35,0,.51.26.51.64v2.13h1v-2.31c.06-.3.3-.47.55-.47.35,0,.51.26.51.64v2.13h1v-2.34c0-.81-.44-1.32-1.18-1.32-.51,0-.85.2-1.08.46-.2-.26-.54-.46-.96-.46-.4,0-.73.15-.91.38v-.3Zm-1.89-1.03c0-.33-.27-.57-.59-.57s-.59.24-.59.57.27.57.59.57.59-.23.59-.57m-1.7,4.62l-1.31-1.85,1.23-1.73h-1.04l-.71,1.02-.69-1.02h-1.1l1.22,1.76-1.29,1.83h1.04l.78-1.12.77,1.12h1.1Zm-3.98-1.79c0-1.11-.71-1.88-1.76-1.88s-1.76.77-1.76,1.88.71,1.87,1.76,1.87,1.76-.77,1.76-1.87m-.99,0c0,.59-.27,1.03-.77,1.03s-.77-.43-.77-1.03.27-1.03.77-1.03.77.43.77,1.03m-3.48-.94c.18,0,.36.04.5.12v-.99c-.06-.03-.21-.06-.38-.06-.35,0-.65.18-.8.43v-.35h-1v3.58h1v-2.22c.07-.33.35-.51.68-.51m-2.43.94c0-1.01-.59-1.88-1.64-1.88-.39,0-.74.18-.9.38v-.3h-1v4.91h1v-1.62c.16.19.51.38.9.38,1.04,0,1.64-.86,1.64-1.87m-1,0c0,.57-.32,1-.86,1-.29,0-.55-.17-.67-.42v-1.18c.12-.24.38-.42.67-.42.54,0,.86.43.86,1.01m-6.99.23h2.31v-.32c0-1.06-.54-1.78-1.58-1.78-.98,0-1.69.78-1.69,1.9s.75,1.84,1.84,1.84c.48,0,.88-.1,1.18-.31v-.82c-.35.23-.63.31-1.03.31-.53,0-.96-.24-1.04-.83m.03-.65c.11-.45.39-.66.72-.66.39,0,.61.27.63.66h-1.36Zm-2.75,2.21h1v-5.03h-1v1.75c-.16-.19-.51-.38-.9-.38-1.04,0-1.63.85-1.63,1.88s.59,1.87,1.63,1.87c.39,0,.74-.18.9-.38v.3Zm0-1.2c-.11.25-.38.42-.67.42-.54,0-.86-.43-.86-1s.32-1.01.86-1.01c.29,0,.56.18.67.42v1.18Zm-11.5,1.2h6.59v-3.59h-6.59v3.59Zm34.7-3.58h-1v3.58h1v-3.58Zm6.97-1.03c0,.34.27.57.59.57s.59-.23.59-.57-.27-.57-.59-.57-.59.24-.59.57m1.09,1.03h-1v3.58h1v-3.58Zm1.4,0h-.68v.8h.68v2.78h1v-2.78h.76v-.8h-.76v-.97h-1v.97Z"></path>
  </g>
</svg>
