<?xml version="1.0" encoding="UTF-8"?>
<svg xmlns="http://www.w3.org/2000/svg" id="Calque_5" data-name="Calque 5" viewBox="0 0 100 100">
  <defs>
    <style>
      .cls-1 {
        fill: #220a05;
      }
    </style>
  </defs>
  <path class="cls-1" d="m68.87,32.88c-1.83,7.38-8.52,13.22-16.68,13.22-7.85,0-14.5-5.59-16.68-13.22h-7.25c1.4,8.09,11.68,14.59,23.97,14.59,12.37,0,22.71-6.71,23.97-14.59h-7.32Z"></path>
  <path class="cls-1" d="m53.76,40.35c0,.91-.72,1.58-1.6,1.58s-1.47-.66-1.47-1.58v-14.66h-6.68c0,9.65,1.42,17.46,8.18,17.46s8.18-7.81,8.18-17.46h-6.61v14.66Z"></path>
  <path class="cls-1" d="m68.28,29.3c-.19,9.42-8.1,15.95-16.15,15.95-8.45,0-15.84-7.04-16.15-15.95h7.13c-.01.28,0,.56.02.84.76,10.08,3.68,13.71,8.96,13.78,5.89-.09,8.54-4.38,9.08-13.78.02-.28.03-.56.02-.84h7.08Z"></path>
  <g>
    <path class="cls-1" d="m33.59,53.11c0,.79-.21,1.38-.63,1.78-.42.4-1.06.59-1.9.59s-1.43-.18-1.83-.54c-.4-.36-.61-.9-.61-1.63v-2.38c0-.22-.05-.38-.16-.48-.11-.1-.28-.15-.52-.15h-.09v-.37h2.75v.37h-.09c-.24,0-.42.05-.53.15-.11.1-.16.26-.16.48v2.15c0,.37.02.65.06.83.04.18.11.33.21.46.13.16.3.29.53.38.23.09.48.14.76.14.54,0,.95-.15,1.23-.45.28-.3.42-.74.42-1.32v-2.17c0-.22-.05-.38-.16-.48-.11-.1-.28-.15-.52-.15h-.09v-.37h2.09v.37h-.09c-.24,0-.41.05-.52.15-.1.1-.16.26-.16.48v2.17Z"></path>
    <path class="cls-1" d="m36.1,54.53c0,.19.05.33.14.41.09.08.24.13.44.13h.08v.32h-1.82v-.32h.08c.2,0,.35-.04.44-.13.09-.08.14-.22.14-.41v-3.32c-.07-.05-.14-.09-.22-.11s-.15-.04-.23-.04c0,0-.02,0-.03,0-.02,0-.03,0-.04,0-.01,0-.02,0-.03,0,0,0-.01,0-.02,0v-.32h1.5l3,3.09v-2.24c0-.19-.05-.33-.14-.41-.09-.08-.24-.13-.44-.13h-.08v-.32h1.82v.32h-.07c-.21,0-.36.04-.45.13-.09.08-.14.22-.14.41v3.8h-.44l-3.51-3.63v2.75Z"></path>
    <path class="cls-1" d="m43.15,54.53c0,.19.05.33.14.41.09.08.24.13.44.13h.07v.32h-2.35v-.32h.08c.2,0,.35-.04.44-.13.09-.08.14-.22.14-.41v-2.93c0-.19-.05-.32-.14-.41s-.24-.13-.44-.13h-.09v-.32h2.36v.32h-.07c-.21,0-.35.04-.44.13-.09.08-.14.22-.14.41v2.93Z"></path>
    <path class="cls-1" d="m46.51,55.46l-1.67-3.72s0-.01-.01-.03c-.12-.28-.25-.46-.37-.54-.05-.03-.11-.06-.19-.08-.07-.02-.16-.03-.25-.04v-.32h2.55v.32c-.27,0-.45.03-.55.08-.1.05-.15.14-.15.26,0,.03,0,.06.02.11.01.04.03.09.06.15l1.12,2.51,1.04-2.43c.04-.1.07-.19.09-.24.02-.06.02-.11.02-.16,0-.09-.04-.16-.13-.2-.09-.04-.26-.07-.51-.08v-.32h1.85v.32c-.2.02-.35.06-.46.14-.11.08-.22.26-.34.54l-1.61,3.72h-.51Z"></path>
    <path class="cls-1" d="m49.83,55.38v-.32h.08c.2,0,.35-.04.44-.13.09-.08.14-.22.14-.41v-2.93c0-.19-.05-.33-.14-.41-.09-.08-.24-.13-.44-.13h-.08v-.32h3.99l.05,1.09h-.27c-.03-.27-.09-.44-.17-.53-.08-.08-.27-.12-.55-.12h-1.37v1.64h1.09c.22,0,.38-.04.48-.12.1-.08.15-.21.15-.39v-.04h.29v1.52h-.29v-.04c0-.18-.05-.31-.15-.39-.1-.08-.26-.12-.48-.12h-1.09v1.23c0,.2.02.32.07.37.05.05.14.08.28.08h.99c.32,0,.55-.05.68-.16.13-.11.22-.3.26-.57h.31l-.1,1.2h-4.18Z"></path>
    <path class="cls-1" d="m56.51,54.53c0,.19.04.33.13.41.09.08.24.13.44.13h.07v.32h-2.35v-.32h.08c.2,0,.35-.04.44-.13.09-.08.14-.22.14-.41v-2.93c0-.19-.05-.33-.14-.41-.09-.08-.24-.13-.44-.13h-.08v-.32c.07,0,.16,0,.29-.01.99-.04,1.64-.06,1.96-.06.73,0,1.28.11,1.64.33.36.22.54.56.54,1.01,0,.33-.1.59-.3.8-.2.21-.49.35-.88.42.17.11.37.4.63.87.07.14.13.25.18.32.14.25.28.43.4.52.12.09.28.15.46.17v.31c-.1,0-.19.01-.27.02-.08,0-.17,0-.25,0-.27,0-.49-.03-.66-.09-.17-.06-.33-.16-.46-.3-.08-.08-.23-.32-.45-.7-.22-.38-.41-.7-.57-.95h-.57v1.12Zm0-3.49v2c.14.02.25.03.32.04.07,0,.13.01.18.01.37,0,.65-.09.84-.26.19-.18.29-.43.29-.77s-.1-.6-.29-.79c-.19-.18-.46-.28-.81-.28-.05,0-.11,0-.18,0-.07,0-.19.02-.36.04Z"></path>
    <path class="cls-1" d="m60.38,54h.31c.11.36.27.64.5.83.22.2.49.29.79.29.24,0,.43-.07.57-.2.15-.13.22-.31.22-.52,0-.33-.35-.69-1.05-1.07-.12-.07-.21-.12-.27-.15-.36-.2-.62-.4-.77-.6-.16-.2-.23-.42-.23-.67,0-.37.13-.67.4-.9.27-.23.62-.35,1.04-.35.23,0,.47.03.72.09.25.06.39.09.42.09.04,0,.07,0,.11-.02.04-.01.07-.03.1-.06h.12s.13,1.22.13,1.22h-.28c-.1-.31-.25-.55-.46-.72-.21-.18-.45-.26-.72-.26-.21,0-.38.05-.51.15-.13.1-.19.23-.19.39,0,.07.01.15.04.22.03.07.07.13.13.19.13.13.39.3.76.49.2.11.34.19.44.25.38.23.65.45.8.67.16.22.24.47.24.74,0,.39-.15.71-.45.98-.3.26-.67.39-1.11.39-.16,0-.35-.02-.56-.05-.21-.03-.44-.09-.7-.15l-.08.09h-.25s-.18-1.35-.18-1.35Z"></path>
    <path class="cls-1" d="m66.24,54.53c0,.19.05.33.14.41.09.08.24.13.44.13h.07v.32h-2.35v-.32h.08c.2,0,.35-.04.44-.13.09-.08.14-.22.14-.41v-2.93c0-.19-.05-.32-.14-.41-.09-.08-.24-.13-.44-.13h-.09v-.32h2.36v.32h-.07c-.21,0-.35.04-.44.13-.09.08-.14.22-.14.41v2.93Z"></path>
    <path class="cls-1" d="m69.07,51.14h-.72c-.17,0-.31.01-.41.03-.1.02-.18.06-.23.11-.04.04-.07.1-.11.2-.04.1-.09.28-.16.54h-.31s.13-1.4.13-1.4h.24l.18.1h3.81l.18-.1h.23l.13,1.39h-.3c-.07-.26-.12-.44-.16-.54-.04-.1-.07-.16-.11-.2-.05-.05-.13-.09-.23-.11-.1-.02-.24-.03-.41-.03h-.72v3.38c0,.19.05.33.14.41.09.08.24.13.44.13h.07v.32h-2.35v-.32h.08c.2,0,.35-.04.44-.13.09-.08.14-.22.14-.41v-3.38Z"></path>
    <path class="cls-1" d="m72.23,55.38v-.32h.08c.2,0,.35-.04.44-.13.09-.08.14-.22.14-.41v-2.93c0-.19-.05-.33-.14-.41-.09-.08-.24-.13-.44-.13h-.08v-.32h3.99l.05,1.09h-.27c-.03-.27-.09-.44-.17-.53-.08-.08-.27-.12-.55-.12h-1.37v1.64h1.09c.22,0,.38-.04.48-.12.1-.08.15-.21.15-.39v-.04h.29v1.52h-.29v-.04c0-.18-.05-.31-.15-.39-.1-.08-.26-.12-.48-.12h-1.09v1.23c0,.2.02.32.07.37.05.05.14.08.28.08h.99c.32,0,.55-.05.68-.16.13-.11.22-.3.26-.57h.31l-.1,1.2h-4.18Zm1.58-5.12l.92-.96c.09-.1.18-.17.25-.21.07-.04.14-.06.21-.06.09,0,.16.03.22.08.06.06.08.13.08.22,0,.07-.02.13-.06.19-.04.05-.13.11-.25.18l-1.06.56h-.31Z"></path>
    <path class="cls-1" d="m32.97,62.61v-.32h.08c.2,0,.35-.04.44-.13.09-.08.14-.22.14-.41v-2.91c0-.19-.05-.33-.14-.41-.09-.08-.24-.13-.44-.13h-.08v-.33c.48-.03.9-.06,1.27-.07.37-.02.7-.02.99-.02.56,0,1.03.04,1.4.12s.68.21.93.39c.28.2.5.45.66.76.16.31.23.65.23,1.02s-.08.72-.24,1.03c-.16.31-.39.59-.69.82-.27.2-.56.35-.89.44-.32.09-.74.14-1.25.14h-2.43Zm2.18-4.38h-.48v3.49c0,.21.06.36.17.45.11.09.31.13.58.13.59,0,1.06-.19,1.41-.56.35-.37.52-.87.52-1.51s-.19-1.12-.58-1.47c-.39-.36-.93-.53-1.62-.53Z"></path>
    <path class="cls-1" d="m39.23,62.61v-.32h.08c.2,0,.35-.04.44-.13.09-.08.14-.22.14-.41v-2.93c0-.19-.05-.33-.14-.41-.09-.08-.24-.13-.44-.13h-.08v-.32h3.99l.05,1.09h-.27c-.03-.27-.09-.44-.17-.53-.08-.08-.27-.12-.55-.12h-1.37v1.64h1.09c.22,0,.38-.04.48-.12.1-.08.15-.21.15-.39v-.04h.29v1.52h-.29v-.04c0-.18-.05-.31-.15-.39-.1-.08-.26-.12-.48-.12h-1.09v1.23c0,.2.02.32.07.37.05.05.14.08.28.08h.99c.32,0,.55-.05.68-.16.13-.11.22-.3.26-.57h.31l-.1,1.2h-4.18Z"></path>
    <path class="cls-1" d="m48.51,61.62c0,.22.05.38.16.48.1.1.28.15.52.15h.09v.37h-2.76v-.37h.09c.24,0,.41-.05.52-.15.11-.1.16-.26.16-.48v-3.43c0-.22-.05-.38-.16-.48-.11-.1-.28-.15-.52-.15h-.09v-.37c.08,0,.19,0,.34-.02,1.16-.05,1.92-.08,2.29-.08.86,0,1.5.13,1.92.39.42.26.64.65.64,1.17,0,.38-.12.69-.35.94-.24.24-.58.41-1.03.49.19.13.44.47.73,1.03.09.17.16.29.21.38.17.3.32.5.47.61.14.11.32.17.54.2v.35c-.11,0-.22.01-.32.02-.1,0-.19,0-.29,0-.31,0-.57-.04-.77-.1-.2-.07-.38-.19-.54-.35-.09-.1-.26-.37-.52-.82-.25-.45-.47-.82-.66-1.11h-.67v1.31Zm0-4.08v2.32c.17.02.29.04.38.04.08,0,.15.01.21.01.43,0,.75-.1.98-.31.22-.2.34-.5.34-.89s-.11-.7-.33-.91c-.22-.21-.54-.32-.94-.32-.06,0-.13,0-.21.01-.08,0-.22.02-.42.05Z"></path>
    <path class="cls-1" d="m52.71,62.61v-.32h.08c.2,0,.35-.04.44-.13.09-.08.14-.22.14-.41v-2.93c0-.19-.05-.33-.14-.41-.09-.08-.24-.13-.44-.13h-.08v-.32h3.99l.05,1.09h-.27c-.03-.27-.09-.44-.17-.53-.08-.08-.27-.12-.55-.12h-1.37v1.64h1.09c.22,0,.38-.04.48-.12.1-.08.15-.21.15-.39v-.04h.29v1.52h-.29v-.04c0-.18-.05-.31-.15-.39-.1-.08-.26-.12-.48-.12h-1.09v1.23c0,.2.02.32.07.37.05.05.14.08.28.08h.99c.32,0,.55-.05.68-.16.13-.11.22-.3.26-.57h.31l-.1,1.2h-4.18Z"></path>
    <path class="cls-1" d="m59.42,61.76c0,.19.05.33.14.41.09.08.24.13.44.13h.07v.32h-2.35v-.32h.08c.2,0,.35-.04.44-.13.09-.08.14-.22.14-.41v-2.93c0-.19-.05-.32-.14-.41-.09-.08-.24-.13-.44-.13h-.09v-.32h2.36v.32h-.07c-.21,0-.35.04-.44.13-.09.08-.14.22-.14.41v2.93Z"></path>
    <path class="cls-1" d="m60.84,62.61v-.32c.23,0,.39-.05.47-.13.08-.08.13-.26.16-.55l.21-2.78s0-.04,0-.06,0-.05,0-.09c0-.14-.04-.24-.11-.29-.07-.05-.22-.08-.45-.1v-.32h1.6l1.4,3.17,1.42-3.17h1.54v.32c-.2.01-.34.05-.41.1-.07.05-.1.16-.1.32,0,.01,0,.04,0,.06,0,.03,0,.05,0,.07l.16,2.92c0,.22.05.36.13.43.08.07.23.1.47.1v.32s-2.3,0-2.3,0v-.32h.11c.22,0,.37-.03.45-.1.08-.07.12-.2.12-.38v-.09l-.13-2.81-1.66,3.7h-.2l-1.63-3.6-.19,2.59s0,.05,0,.07c0,.02,0,.06,0,.1,0,.19.04.33.12.4.08.08.22.11.42.11h.05v.32h-1.65Z"></path>
    <path class="cls-1" d="m67.86,61.23h.31c.11.36.27.64.5.83.22.2.49.29.79.29.24,0,.43-.07.57-.2.15-.13.22-.31.22-.52,0-.33-.35-.69-1.05-1.07-.12-.07-.21-.12-.27-.15-.36-.2-.62-.4-.77-.6-.16-.2-.23-.42-.23-.67,0-.37.13-.67.4-.9.27-.23.62-.35,1.04-.35.23,0,.47.03.72.09.25.06.39.09.42.09.04,0,.07,0,.11-.02.04-.01.07-.03.1-.06h.12s.13,1.22.13,1.22h-.28c-.1-.31-.25-.55-.46-.72-.21-.18-.45-.26-.72-.26-.21,0-.38.05-.51.15-.13.1-.19.23-.19.39,0,.07.01.15.04.22.03.07.07.13.13.19.13.13.39.3.76.49.2.11.34.19.44.25.38.23.65.45.8.67.16.22.24.47.24.74,0,.39-.15.71-.45.98-.3.26-.67.39-1.11.39-.16,0-.35-.02-.56-.05-.21-.03-.44-.09-.7-.15l-.08.09h-.25s-.18-1.35-.18-1.35Z"></path>
    <path class="cls-1" d="m19,67.66l-.39,1.25c-.09-.01-.18-.03-.26-.03-.08,0-.15-.01-.21-.01-.05,0-.21.02-.46.06-.25.04-.48.06-.68.06-.35,0-.67-.05-.96-.15-.29-.1-.55-.26-.79-.46-.23-.21-.42-.45-.54-.72-.13-.27-.19-.56-.19-.85,0-.33.08-.65.23-.95.16-.3.38-.57.66-.8.22-.18.49-.31.79-.41.3-.1.61-.15.93-.15.3,0,.59.04.89.13.3.09.45.13.46.13.03,0,.06,0,.09-.01.03,0,.06-.02.09-.04h.11s.06,1.23.06,1.23h-.27c-.14-.36-.32-.64-.55-.81-.23-.18-.51-.27-.85-.27-.46,0-.84.18-1.14.53-.31.36-.46.81-.46,1.35,0,.23.03.44.1.65.07.21.17.4.3.56.18.23.38.4.6.52.22.12.45.17.71.17.3,0,.57-.08.8-.25.23-.16.44-.41.62-.75h.31Z"></path>
    <path class="cls-1" d="m22.46,66.85v-.97c0-.16-.04-.27-.11-.34s-.2-.1-.37-.1h-.06v-.26h1.94v.26h-.06c-.17,0-.29.03-.37.1s-.11.18-.11.34v2.41c0,.16.04.27.12.34.08.07.2.1.37.1h.06v.26h-1.94v-.26h.06c.17,0,.3-.03.37-.1s.11-.18.11-.34v-1.07h-1.95v1.07c0,.16.04.27.11.34.08.07.2.1.37.1h.06v.26h-1.94v-.26h.06c.17,0,.29-.03.37-.1s.11-.18.11-.34v-2.41c0-.16-.04-.27-.11-.34s-.2-.1-.37-.1h-.06v-.26h1.94v.26h-.06c-.17,0-.29.03-.37.1-.08.07-.11.18-.11.34v.97h1.95Z"></path>
    <path class="cls-1" d="m23.94,68.99v-.26c.18,0,.31-.03.39-.08.08-.05.15-.14.2-.27l1.02-2.76c.04-.1.06-.18.08-.22.01-.05.02-.09.02-.12,0-.02,0-.05,0-.07,0-.02-.01-.04-.03-.07h.9l1.21,3.13c.06.17.14.29.22.35.08.06.21.1.36.11v.27h-1.99v-.27h.13c.17,0,.29-.02.35-.06s.09-.1.09-.2c0-.02,0-.05,0-.07,0-.02-.01-.05-.02-.08l-.29-.75h-1.32l-.24.67s0,.02-.01.04c-.03.1-.05.17-.05.21,0,.08.04.14.13.18.09.04.24.05.45.05v.26h-1.6Zm1.45-1.76h1.05l-.53-1.4-.52,1.4Z"></path>
    <path class="cls-1" d="m28.28,68.99v-.26c.19,0,.32-.04.39-.11.07-.06.11-.22.13-.45l.17-2.28s0-.03,0-.05c0-.02,0-.04,0-.08,0-.12-.03-.2-.09-.24-.06-.04-.18-.07-.37-.08v-.26h1.31l1.15,2.61,1.17-2.61h1.27v.26c-.17.01-.28.04-.34.08-.06.04-.08.13-.08.26,0,.01,0,.03,0,.05,0,.02,0,.04,0,.06l.13,2.4c0,.18.04.3.1.35.06.05.19.08.39.09v.26s-1.89,0-1.89,0v-.26h.09c.18,0,.3-.03.37-.08.07-.06.1-.16.1-.32v-.07l-.11-2.31-1.36,3.05h-.16l-1.34-2.96-.16,2.13s0,.04,0,.06c0,.02,0,.05,0,.09,0,.16.03.27.1.33s.18.09.35.09h.04v.26h-1.36Z"></path>
    <path class="cls-1" d="m35.53,68.28c0,.16.04.27.11.34.07.07.19.1.36.1h.06v.26h-1.94v-.26h.06c.17,0,.29-.03.37-.1.08-.07.11-.18.11-.34v-2.41c0-.16-.04-.27-.11-.34-.08-.07-.2-.1-.37-.1h-.06v-.26c.19,0,.44-.02.76-.03.5-.02.84-.03,1.01-.03.31,0,.56.02.75.05s.36.09.49.17c.19.1.33.24.43.41.1.17.15.36.15.57,0,.34-.13.61-.4.82-.27.21-.61.32-1.03.32-.09,0-.2,0-.32-.01-.12,0-.27-.02-.45-.04v.9Zm0-2.87v1.71c.08.01.15.02.22.03.07,0,.13.01.19.01.29,0,.51-.08.66-.23.15-.15.23-.37.23-.66s-.08-.51-.23-.67c-.15-.15-.37-.23-.65-.23-.05,0-.11,0-.18,0-.07,0-.15.01-.24.03Z"></path>
    <path class="cls-1" d="m37.33,68.99v-.26c.18,0,.31-.03.39-.08.08-.05.15-.14.2-.27l1.02-2.76c.04-.1.06-.18.08-.22.01-.05.02-.09.02-.12,0-.02,0-.05,0-.07,0-.02-.01-.04-.03-.07h.9l1.21,3.13c.06.17.14.29.22.35.08.06.21.1.36.11v.27h-1.99v-.27h.13c.17,0,.29-.02.35-.06s.09-.1.09-.2c0-.02,0-.05,0-.07,0-.02-.01-.05-.02-.08l-.29-.75h-1.32l-.24.67s0,.02-.01.04c-.03.1-.05.17-.05.21,0,.08.04.14.13.18.09.04.24.05.45.05v.26h-1.6Zm1.45-1.76h1.05l-.53-1.4-.52,1.4Z"></path>
    <path class="cls-1" d="m44.77,67.86c0-.16-.04-.27-.12-.34-.08-.07-.21-.1-.39-.1-.04,0-.08,0-.1,0-.02,0-.04,0-.07,0v-.26s1.97,0,1.97,0v.26c-.15,0-.26.05-.33.11-.07.07-.1.18-.1.33v.85c-.27.12-.54.21-.82.27-.28.06-.56.09-.84.09-.33,0-.61-.04-.86-.12-.25-.08-.47-.21-.67-.38-.22-.18-.38-.4-.49-.64-.11-.24-.16-.51-.16-.81s.06-.56.18-.81c.12-.26.29-.48.51-.67.19-.17.41-.3.66-.38.25-.09.52-.13.83-.13.22,0,.43.02.65.05.22.03.44.09.67.16l.26-.07h.11s0,1.11,0,1.11h-.24c-.12-.34-.28-.59-.5-.76-.21-.17-.47-.25-.77-.25-.43,0-.77.15-1.03.45-.26.3-.39.7-.39,1.19,0,.54.13.97.4,1.29.26.32.61.48,1.05.48.11,0,.22-.01.32-.03.1-.02.2-.06.29-.1v-.78Z"></path>
    <path class="cls-1" d="m47.25,68.29c0,.16.04.27.11.34.08.07.2.1.37.1h.06v.26h-1.5v-.26h.06c.17,0,.29-.03.37-.1.08-.07.11-.18.11-.34v-2.73c-.06-.04-.12-.07-.18-.09-.06-.02-.12-.03-.19-.03,0,0-.01,0-.03,0-.01,0-.02,0-.03,0,0,0-.02,0-.02,0,0,0,0,0-.01,0v-.26h1.23l2.46,2.54v-1.84c0-.16-.04-.27-.11-.34-.08-.07-.2-.1-.37-.1h-.06v-.26h1.51v.26h-.06c-.17,0-.3.03-.37.1-.07.07-.11.18-.11.34v3.13h-.36l-2.88-2.98v2.26Z"></path>
    <path class="cls-1" d="m51.4,68.99v-.26h.06c.17,0,.29-.03.37-.1.08-.07.11-.18.11-.34v-2.41c0-.15-.04-.27-.11-.33-.08-.07-.2-.1-.37-.1h-.06v-.26h3.29l.05.89h-.22c-.03-.22-.07-.37-.14-.43-.07-.07-.22-.1-.46-.1h-1.11v1.36h.89c.18,0,.31-.03.39-.1.08-.07.12-.17.12-.32v-.04h.24v1.26h-.24v-.03c0-.15-.04-.26-.12-.33-.08-.07-.21-.1-.39-.1h-.89v1.01c0,.16.02.26.06.31.04.04.11.06.23.06h.81c.27,0,.46-.04.57-.13.11-.09.18-.24.22-.47h.25l-.08.98h-3.44Z"></path>
    <path class="cls-1" d="m55.65,67.24v-.4h1.68v.4h-1.68Z"></path>
    <path class="cls-1" d="m57.37,68.99v-.31c.21,0,.37-.03.47-.09.1-.06.18-.17.24-.32l1.21-3.28c.05-.12.08-.21.09-.27s.02-.1.02-.14c0-.03,0-.06,0-.08,0-.03-.02-.05-.03-.08h1.06l1.43,3.71c.08.2.17.34.27.41.1.08.25.12.44.13l-.02.32h-2.34v-.32h.15c.2,0,.34-.02.41-.07.07-.04.11-.12.11-.24,0-.03,0-.06,0-.08,0-.03-.01-.06-.03-.09l-.34-.89h-1.55l-.28.79s0,.03-.02.05c-.04.12-.06.2-.06.25,0,.1.05.17.16.21.11.04.28.06.54.06v.31h-1.89Zm1.71-2.09h1.24l-.63-1.66-.62,1.66Z"></path>
    <path class="cls-1" d="m63.96,68.29c0,.16.04.27.11.34.07.07.19.1.36.1h.06v.26h-1.94v-.26h.06c.17,0,.29-.03.37-.1s.11-.18.11-.34v-2.41c0-.16-.04-.27-.11-.34-.08-.07-.2-.1-.37-.1h-.06v-.26c.05,0,.13,0,.24-.01.81-.04,1.35-.05,1.61-.05.6,0,1.05.09,1.35.27.3.18.45.46.45.83,0,.27-.08.49-.25.66-.17.17-.41.29-.72.35.14.09.31.33.51.72.06.12.11.21.14.27.12.21.23.35.33.43.1.08.23.12.38.14v.25c-.08,0-.15,0-.22.01-.07,0-.14,0-.2,0-.22,0-.4-.02-.54-.07-.14-.05-.27-.13-.38-.24-.06-.07-.19-.26-.36-.57-.18-.31-.33-.57-.46-.78h-.47v.92Zm0-2.87v1.64c.12.01.21.03.26.03.06,0,.11,0,.15,0,.3,0,.53-.07.69-.22.16-.14.24-.35.24-.63s-.08-.49-.24-.64c-.16-.15-.38-.23-.67-.23-.04,0-.09,0-.15,0-.06,0-.15.02-.29.03Z"></path>
    <path class="cls-1" d="m66.88,68.99v-.26h.06c.17,0,.29-.03.37-.1s.11-.18.11-.34v-2.39c0-.16-.04-.27-.11-.34-.08-.07-.2-.1-.37-.1h-.06v-.27c.39-.03.74-.05,1.05-.06.31-.01.58-.02.82-.02.46,0,.85.03,1.15.1.31.07.56.17.77.32.23.16.41.37.54.63.13.26.19.54.19.84s-.06.59-.19.85c-.13.26-.32.48-.57.67-.22.17-.46.29-.73.36-.27.07-.61.11-1.03.11h-2Zm1.79-3.59h-.4v2.86c0,.17.05.3.14.37.09.07.25.11.48.11.49,0,.88-.15,1.16-.46.28-.3.43-.72.43-1.23s-.16-.92-.48-1.21c-.32-.29-.76-.44-1.33-.44Z"></path>
    <path class="cls-1" d="m71.73,68.99v-.26h.06c.17,0,.29-.03.37-.1.08-.07.11-.18.11-.34v-2.41c0-.15-.04-.27-.11-.33-.08-.07-.2-.1-.37-.1h-.06v-.26h3.29l.05.89h-.22c-.03-.22-.07-.37-.14-.43-.07-.07-.22-.1-.46-.1h-1.11v1.36h.89c.18,0,.31-.03.39-.1.08-.07.12-.17.12-.32v-.04h.24v1.26h-.24v-.03c0-.15-.04-.26-.12-.33-.08-.07-.21-.1-.39-.1h-.89v1.01c0,.16.02.26.06.31.04.04.11.06.23.06h.81c.27,0,.46-.04.57-.13.11-.09.18-.24.22-.47h.25l-.08.98h-3.44Z"></path>
    <path class="cls-1" d="m76.69,68.29c0,.16.04.27.11.34.08.07.2.1.37.1h.06v.26h-1.5v-.26h.06c.17,0,.29-.03.37-.1.08-.07.11-.18.11-.34v-2.73c-.06-.04-.12-.07-.18-.09-.06-.02-.12-.03-.19-.03,0,0-.01,0-.03,0-.01,0-.02,0-.03,0,0,0-.02,0-.02,0,0,0,0,0-.01,0v-.26h1.23l2.46,2.54v-1.84c0-.16-.04-.27-.11-.34-.08-.07-.2-.1-.37-.1h-.06v-.26h1.51v.26h-.06c-.17,0-.3.03-.37.1-.07.07-.11.18-.11.34v3.13h-.36l-2.88-2.98v2.26Z"></path>
    <path class="cls-1" d="m81.84,68.29c0,.16.04.27.11.34.08.07.2.1.37.1h.06v.26h-1.5v-.26h.06c.17,0,.29-.03.37-.1.08-.07.11-.18.11-.34v-2.73c-.06-.04-.12-.07-.18-.09-.06-.02-.12-.03-.19-.03,0,0-.01,0-.03,0-.01,0-.02,0-.03,0,0,0-.02,0-.02,0,0,0,0,0-.01,0v-.26h1.23l2.46,2.54v-1.84c0-.16-.04-.27-.11-.34-.08-.07-.2-.1-.37-.1h-.06v-.26h1.51v.26h-.06c-.17,0-.3.03-.37.1-.07.07-.11.18-.11.34v3.13h-.36l-2.88-2.98v2.26Z"></path>
    <path class="cls-1" d="m85.98,68.99v-.26h.06c.17,0,.29-.03.37-.1.08-.07.11-.18.11-.34v-2.41c0-.15-.04-.27-.11-.33-.08-.07-.2-.1-.37-.1h-.06v-.26h3.29l.05.89h-.22c-.03-.22-.07-.37-.14-.43-.07-.07-.22-.1-.46-.1h-1.11v1.36h.89c.18,0,.31-.03.39-.1.08-.07.12-.17.12-.32v-.04h.24v1.26h-.24v-.03c0-.15-.04-.26-.12-.33-.08-.07-.21-.1-.39-.1h-.89v1.01c0,.16.02.26.06.31.04.04.11.06.23.06h.81c.27,0,.46-.04.57-.13.11-.09.18-.24.22-.47h.25l-.08.98h-3.44Z"></path>
  </g>
</svg>
