<?xml version="1.0" encoding="UTF-8"?>
<svg xmlns="http://www.w3.org/2000/svg" id="Calque_1" data-name="Calque 1" viewBox="0 0 100 100">
  <defs>
    <style>
      .cls-1 {
        fill: #220a05;
      }
    </style>
  </defs>
  <g>
    <g>
      <path class="cls-1" d="m49.8,28.68v-3.76h-3.76c0,2.08,1.68,3.76,3.76,3.76Z"></path>
      <path class="cls-1" d="m49.8,37.47v-3.76c-4.85,0-8.78-3.93-8.78-8.78h-3.76c0,6.93,5.62,12.54,12.54,12.54Z"></path>
    </g>
    <g>
      <path class="cls-1" d="m64.72,39.85h-1.59c0,6.04-4.91,10.95-10.95,10.95v1.59c6.93,0,12.54-5.62,12.54-12.54Z"></path>
      <path class="cls-1" d="m60.33,39.85h-1.59c0,3.62-2.94,6.56-6.56,6.56v1.59c4.5,0,8.15-3.65,8.15-8.15Z"></path>
      <path class="cls-1" d="m55.94,39.85h-1.59c0,1.2-.97,2.17-2.17,2.17v1.59c2.08,0,3.76-1.68,3.76-3.76Z"></path>
    </g>
    <path class="cls-1" d="m52.18,24.92v8.78c2.08,0,3.76,1.68,3.76,3.76h8.78c0-6.93-5.62-12.54-12.54-12.54Z"></path>
    <g>
      <path class="cls-1" d="m46.03,22.54c0-.21.02-.42.05-.62h0l-8.76-.71h0c-.05.44-.07.88-.07,1.33h8.78Z"></path>
      <path class="cls-1" d="m47.41,10.22l1.43,8.68h0c.31-.08.63-.12.96-.12v-8.78c-.82,0-1.62.08-2.39.23Z"></path>
      <polygon class="cls-1" points="48.24 19.11 48.24 19.11 48.24 19.11 48.24 19.11"></polygon>
      <path class="cls-1" d="m41.91,12.79h0s5.5,6.85,5.5,6.85c.25-.21.54-.39.84-.52l-4.7-7.45c-.58.33-1.12.71-1.64,1.12Z"></path>
      <polygon class="cls-1" points="46.84 20.21 46.84 20.21 46.84 20.21 46.84 20.21"></polygon>
      <path class="cls-1" d="m38.43,17.24h0s7.98,3.67,7.98,3.67h0c.12-.25.27-.48.44-.7l-7.62-4.41c-.3.46-.56.94-.79,1.44Z"></path>
    </g>
  </g>
  <g>
    <g>
      <path class="cls-1" d="m18.8,84.08c-1.07-.41-2-1.01-2.81-1.79l2-2.38c.61.54,1.28.97,2.02,1.29.74.32,1.45.48,2.14.48.81,0,1.43-.16,1.86-.47.43-.31.65-.75.65-1.31,0-.36-.1-.65-.29-.89-.19-.24-.44-.43-.74-.58-.3-.15-.77-.36-1.43-.63l-2.18-.94c-.98-.41-1.78-.98-2.41-1.71-.63-.74-.94-1.66-.94-2.78,0-.9.25-1.71.75-2.45.5-.74,1.19-1.32,2.07-1.75.88-.43,1.87-.65,2.97-.65.96,0,1.91.19,2.84.57.93.38,1.73.91,2.41,1.59l-1.75,2.21c-.57-.46-1.14-.79-1.7-1.01-.56-.22-1.16-.33-1.8-.33-.69,0-1.24.14-1.65.43-.41.29-.61.68-.61,1.19,0,.36.11.65.32.89.21.24.47.43.79.58.31.15.8.36,1.46.63l2.13.86c1.07.44,1.88,1.02,2.46,1.74.57.72.86,1.64.86,2.75,0,.93-.25,1.78-.74,2.55-.49.77-1.2,1.38-2.13,1.84-.93.46-2.02.68-3.27.68-1.12,0-2.21-.21-3.27-.62Z"></path>
      <path class="cls-1" d="m32.98,67.84h10.25v2.92h-6.77v3.63h5.76v2.92h-5.76v4.18h7.02v2.92h-10.5v-16.56Z"></path>
      <path class="cls-1" d="m51.97,70.76h-4.62v-2.92h12.73v2.92h-4.64v13.64h-3.47v-13.64Z"></path>
    </g>
    <g>
      <g>
        <path class="cls-1" d="m67.59,74.25c-.7-.8-1.05-2.05-1.05-3.74v-5.7h2.19v5.9c0,1.01.16,1.74.48,2.18.32.44.79.66,1.42.66s1.13-.22,1.46-.66c.33-.44.5-1.16.5-2.18v-5.9h2.11v5.7c0,1.7-.34,2.94-1.03,3.74-.69.8-1.7,1.2-3.03,1.2s-2.35-.4-3.05-1.2Z"></path>
        <path class="cls-1" d="m78.39,64.81h3.49c1.26,0,2.26.26,3,.78.74.52,1.11,1.36,1.11,2.54s-.38,2.02-1.14,2.61c-.76.59-1.73.88-2.91.88h-1.36v3.65h-2.19v-10.45Zm3.41,5.06c1.37,0,2.05-.58,2.05-1.74,0-.55-.17-.95-.52-1.2-.35-.25-.88-.37-1.59-.37h-1.15v3.31h1.22Z"></path>
      </g>
      <circle class="cls-1" cx="76.27" cy="83.04" r="4.38"></circle>
    </g>
  </g>
</svg>
