<?xml version="1.0" encoding="UTF-8"?>
<svg xmlns="http://www.w3.org/2000/svg" xmlns:xlink="http://www.w3.org/1999/xlink" id="international" viewBox="0 0 120 120">
  <defs>
    <style>
      .cls-1 {
        fill: #5a606d;
      }

      .cls-2 {
        clip-path: url(#clippath);
      }

      .cls-3 {
        fill: none;
      }

      .cls-4 {
        fill: #009ee2;
      }
    </style>
    <clipPath id="clippath">
      <rect class="cls-3" x="36.46" y="29.62" width="65" height="65"></rect>
    </clipPath>
  </defs>
  <g class="cls-2">
    <path class="cls-1" d="m53.31,71.56l-4.6,9.22c-.23.46-.14,1,.22,1.37.23.22.53.34.83.34l.53-.13,11.82-5.98-.75-2.27-8.97,4.54,3.01-6.03-2.11-1.05Z"></path>
    <path class="cls-1" d="m84.6,71.51l-2.12,1.05,3.03,6.08-8.96-4.54-.75,2.27,11.82,5.98.53.13c.3,0,.61-.12.83-.34.36-.36.45-.91.23-1.37l-4.62-9.27Z"></path>
    <path class="cls-1" d="m88.16,41.74c-.18,0-.37.04-.53.13l-11.82,5.98.74,2.27,8.97-4.54-3.05,6.12,2.12,1.05,4.64-9.31c.23-.45.14-1-.22-1.36-.23-.23-.53-.34-.83-.34"></path>
    <path class="cls-1" d="m49.77,41.74c-.31,0-.61.12-.83.34-.36.36-.45.91-.22,1.36l4.64,9.31,2.11-1.05-3.05-6.12,8.96,4.53.75-2.27-11.82-5.98c-.17-.08-.35-.13-.53-.13"></path>
    <path class="cls-1" d="m68.97,89.65l-6.61-20.16c-.12-.36-.4-.64-.75-.75l-20.16-6.61,20.16-6.61c.36-.12.64-.4.75-.76l6.61-20.16,6.61,20.16c.12.36.39.64.75.76l20.16,6.61-20.16,6.61c-.36.12-.64.39-.75.75l-6.61,20.16Zm0-60.03h0c-.51,0-.96.33-1.12.81l-5.72,17.42-.75,2.27-1.09,3.32-23.01,7.55c-.49.16-.81.61-.81,1.12s.33.96.81,1.12l23.01,7.55,1.09,3.32.75,2.27,5.72,17.42c.16.48.61.81,1.12.81s.96-.33,1.12-.81l5.72-17.42.74-2.27,1.09-3.32,23.02-7.55c.48-.16.81-.61.81-1.12s-.33-.96-.81-1.12l-23.02-7.55-1.09-3.32-.74-2.27-5.72-17.42c-.16-.49-.61-.81-1.12-.81"></path>
    <path class="cls-1" d="m68.97,65.05c-1.62,0-2.93-1.32-2.93-2.93s1.31-2.93,2.93-2.93,2.93,1.32,2.93,2.93-1.31,2.93-2.93,2.93m0-8.23c-2.92,0-5.29,2.37-5.29,5.29s2.38,5.3,5.29,5.3,5.29-2.38,5.29-5.3-2.37-5.29-5.29-5.29"></path>
  </g>
  <rect class="cls-4" x=".78" y="-.07" width="17.01" height="121.68"></rect>
</svg>
