<?xml version="1.0" encoding="UTF-8"?>
<svg xmlns="http://www.w3.org/2000/svg" xmlns:xlink="http://www.w3.org/1999/xlink" id="finances" viewBox="0 0 120 120">
  <defs>
    <style>
      .cls-1 {
        fill: #ea5762;
      }

      .cls-2 {
        fill: #5a606d;
      }

      .cls-3 {
        clip-path: url(#clippath);
      }

      .cls-4 {
        fill: none;
      }
    </style>
    <clipPath id="clippath">
      <rect class="cls-4" x="39.37" y="22.78" width="61.84" height="70"></rect>
    </clipPath>
  </defs>
  <g class="cls-3">
    <path class="cls-2" d="m83.16,65.6c-.24,0-.44.2-.44.43s.2.44.44.44.43-.2.43-.44-.19-.43-.43-.43"></path>
    <path class="cls-2" d="m83.16,66.47c-.24,0-.44-.2-.44-.43s.2-.44.44-.44.43.2.43.44-.19.43-.43.43m0-2.18c-.96,0-1.74.78-1.74,1.74s.78,1.74,1.74,1.74,1.74-.78,1.74-1.74-.78-1.74-1.74-1.74"></path>
    <polygon class="cls-2" points="96.01 51.69 64.38 51.69 64.38 53.86 93.83 53.86 93.83 78.39 79.84 78.39 79.84 80.56 96.01 80.56 96.01 51.69"></polygon>
    <path class="cls-2" d="m100.44,73.59c-.27.83-.57,1.66-.9,2.47h.9v-2.47Z"></path>
    <path class="cls-2" d="m100.44,47.36h-36.06v2.17h33.89v26.52h1.28c.32-.81.62-1.63.9-2.47v-26.23Z"></path>
    <path class="cls-2" d="m87.7,56.65h-23.32v2.17h21.28c.4,1.59,1.65,2.84,3.23,3.24v8.12c-1.58.4-2.83,1.65-3.23,3.24h-5.81v2.17h7.85v-1.09c0-1.26,1.02-2.28,2.28-2.28h1.09v-12.21h-1.09c-1.26,0-2.28-1.02-2.28-2.28v-1.09Z"></path>
    <path class="cls-2" d="m71.39,60.69c-2.88,0-5.22,2.48-5.22,5.54,0,.56.08,1.12.24,1.65l2.09-.61c-.1-.34-.15-.68-.15-1.04,0-1.85,1.37-3.36,3.05-3.36s3.05,1.51,3.05,3.36c0,.78-.25,1.54-.7,2.14l1.74,1.31c.73-.98,1.14-2.2,1.14-3.45,0-3.05-2.34-5.54-5.22-5.54"></path>
    <path class="cls-2" d="m51.06,44.67c-5.34,0-8.62-1.98-8.62-3.41,0-1.61,3.69-3.41,8.62-3.41s8.62,1.8,8.62,3.41c0,1.42-3.28,3.41-8.62,3.41m0-8.99c-6.15,0-10.79,2.4-10.79,5.58s4.64,5.58,10.79,5.58c3.6,0,6.68-.82,8.62-2.14v-3.44h2.17c0-3.18-4.64-5.58-10.79-5.58"></path>
    <path class="cls-2" d="m59.68,52.52h0c0,1.61-3.69,3.41-8.62,3.41s-8.62-1.8-8.62-3.41v3.44c1.94,1.32,5.02,2.14,8.62,2.14s6.68-.82,8.62-2.14v-3.44Z"></path>
    <path class="cls-2" d="m59.68,46.91h0c0,1.42-3.28,3.41-8.62,3.41s-8.62-1.98-8.62-3.41v3.44c1.94,1.32,5.02,2.14,8.62,2.14s6.68-.82,8.62-2.14v-3.44Z"></path>
    <path class="cls-2" d="m59.68,63.74h0c0,1.61-3.69,3.41-8.62,3.41s-8.62-1.8-8.62-3.41v3.44c1.94,1.32,5.02,2.14,8.62,2.14s6.68-.82,8.62-2.14v-3.44Z"></path>
    <path class="cls-2" d="m42.44,69.35v3.44c1.94,1.32,5.02,2.14,8.62,2.14.91,0,1.81-.05,2.68-.16l-.27-2.16c-.78.1-1.59.15-2.41.15-5.34,0-8.62-1.98-8.62-3.41"></path>
    <path class="cls-2" d="m61.86,41.26h-2.18v16.87h2.18c0,1.32-.8,2.51-2.18,3.44v7.14h2.18v-27.44Z"></path>
    <path class="cls-2" d="m42.44,46.01h-2.17v34.56c0,3.18,4.64,5.58,10.79,5.58.89,0,1.78-.05,2.63-.16l-.26-2.16c-.77.09-1.56.14-2.37.14-5.34,0-8.62-1.98-8.62-3.4v-2.17c-1.38-.94-2.17-2.12-2.17-3.44h2.17v-13.39c-1.38-.93-2.17-2.12-2.17-3.44h2.17v-12.12Z"></path>
    <path class="cls-2" d="m61.86,58.13h-2.17c0,1.42-3.28,3.41-8.62,3.41s-8.62-1.98-8.62-3.41h-2.17c0,1.32.8,2.51,2.17,3.44,1.94,1.32,5.02,2.14,8.62,2.14s6.68-.82,8.62-2.14c1.37-.94,2.17-2.12,2.17-3.44"></path>
    <path class="cls-2" d="m42.44,74.96h-2.17c0,1.32.8,2.51,2.17,3.44,1.94,1.32,5.02,2.14,8.62,2.14.82,0,1.64-.04,2.44-.14l-.24-2.16c-.72.08-1.46.12-2.2.12-4.93,0-8.62-1.8-8.62-3.41"></path>
    <path class="cls-2" d="m66.59,78.59c-4.93,0-8.62-1.8-8.62-3.41,0-1.42,3.28-3.41,8.62-3.41s8.62,1.98,8.62,3.41c0,1.61-3.69,3.41-8.62,3.41m0-8.99c-6.15,0-10.79,2.4-10.79,5.58s4.64,5.58,10.79,5.58c3.6,0,6.68-.82,8.62-2.14v-3.46h2.17c-.01-3.17-4.65-5.56-10.79-5.56"></path>
    <path class="cls-2" d="m57.97,80.04h-2.17v6.38c0,3.18,4.64,5.58,10.79,5.58s10.79-2.4,10.79-5.58v-5.61c0,1.32-.8,2.51-2.18,3.44v2.17c0,1.42-3.28,3.41-8.62,3.41s-8.62-1.98-8.62-3.41v-2.17c-1.38-.94-2.17-2.12-2.17-3.44h2.17v-.77Zm19.41-4.87h-2.18v5.65h2.18v-5.65"></path>
    <path class="cls-2" d="m77.38,80.82h-2.18c0,1.42-3.28,3.41-8.62,3.41s-8.62-1.98-8.62-3.41h-2.17c0,1.32.8,2.51,2.17,3.44,1.94,1.32,5.02,2.14,8.62,2.14s6.68-.82,8.62-2.14c1.38-.94,2.18-2.12,2.18-3.44"></path>
  </g>
  <rect class="cls-1" x=".78" y="-.74" width="17.01" height="122.35"></rect>
</svg>
