<?xml version="1.0" encoding="UTF-8"?>
<svg xmlns="http://www.w3.org/2000/svg" xmlns:xlink="http://www.w3.org/1999/xlink" id="insecurite" viewBox="0 0 120 120">
  <defs>
    <style>
      .cls-1 {
        fill: #a1201d;
      }

      .cls-2 {
        fill: #5a606d;
      }

      .cls-3 {
        clip-path: url(#clippath);
      }

      .cls-4 {
        fill: none;
      }
    </style>
    <clipPath id="clippath">
      <rect class="cls-4" x="31.86" y="26.15" width="64.03" height="70"></rect>
    </clipPath>
  </defs>
  <g class="cls-3">
    <path class="cls-2" d="m65.07,46.44c-4.35,0-8.24.4-11.09,1.15l.71,1.91c.06.07.13.14.2.21,2.63-.64,6.19-.99,10.18-.99s7.39.33,10,.95c.05-.05.1-.1.14-.15l.73-1.98c-2.83-.71-6.64-1.09-10.87-1.09"></path>
    <path class="cls-2" d="m64.94,41.56c-4.78,0-9.45,1-12.71,2.7l.68.72.24.39.31.82c2.91-1.46,7.2-2.35,11.48-2.35s8.59.89,11.49,2.36l.31-.83.24-.39.67-.71c-3.25-1.7-7.93-2.7-12.72-2.7"></path>
    <path class="cls-2" d="m77.84,89.88c-1.02-.59-2.37-1.66-2.37-2.48v-4.33h4.86v4.33c0,.62-1.23,1.71-2.49,2.48m3.63-9.08h-7.13c-.63,0-1.14.51-1.14,1.14v5.46c0,2.73,3.74,4.6,4.17,4.8l.49.11c.18,0,.36-.04.53-.13.7-.37,4.22-2.34,4.22-4.78v-5.46c0-.63-.51-1.14-1.14-1.14"></path>
    <polygon class="cls-2" points="64.96 33.51 64.06 35.99 61.4 36.07 63.5 37.7 62.76 40.25 64.95 38.76 67.14 40.25 66.4 37.7 68.5 36.07 65.85 35.99 64.96 33.51"></polygon>
    <path class="cls-2" d="m52.24,44.26l-2.35-2.47,2.93-5.2,12.13-4.72,12.13,4.72,2.93,5.2-2.35,2.48-.68.71-.24.39-.31.83-.49,1.33-.73,1.98c-.05.05-.09.1-.14.15-1.99,2.04-5.9,3.34-10.11,3.34-4.19,0-8.06-1.28-10.07-3.3-.07-.07-.13-.14-.2-.21l-.71-1.91-.52-1.4-.31-.82-.24-.39-.68-.72Zm12.72-14.74c-.15,0-.31.03-.44.08l-12.89,5.01c-.25.1-.45.27-.58.5l-3.54,6.29c-.24.44-.18.98.17,1.34l3.45,3.63,1.52,4.11.2.34c2.34,2.75,6.98,4.45,12.13,4.45,3.41,0,6.61-.75,9.06-2.06.02-.16.04-.32.05-.48.04-.4.07-.92.1-1.39.04-.61.55-1.06,1.16-1.06h.04c.63.04,1.1.58,1.06,1.21v.02c.22-.21.43-.43.63-.66l.2-.34,1.53-4.12,3.45-3.63c.34-.36.41-.91.17-1.34l-3.54-6.29c-.13-.23-.33-.41-.58-.5l-12.9-5.01c-.13-.05-.29-.08-.44-.08"></path>
    <path class="cls-2" d="m53.43,71.01c-.78.15-1.53.31-2.23.45l.51,2.34-3.88.83-.51-2.31c-.31.09-1.17.44-1.99,1.54l.52,2.36c.12.53.59.89,1.11.89l.24-.03,6.1-1.31c.3-.06.55-.24.72-.5.16-.25.22-.56.16-.85l-.74-3.43Z"></path>
    <path class="cls-2" d="m76.48,71.01l-.74,3.43c-.13.61.26,1.22.87,1.35l6.1,1.31.24.03c.52,0,.99-.36,1.11-.89l.52-2.38c-.84-1.12-1.73-1.45-1.99-1.53l-.51,2.31-3.88-.83.5-2.34c-.7-.15-1.45-.3-2.23-.45"></path>
    <path class="cls-2" d="m62.24,78.51l-1.83,12.57c-.09.62.34,1.2.96,1.29h.16c.56.01,1.04-.4,1.12-.96l1.55-10.68s-.07-.07-.11-.11l-1.87-2.11Z"></path>
    <path class="cls-2" d="m67.66,78.53l-1.85,2.1s-.08.09-.13.12l1.54,10.53c.08.56.57.97,1.12.97h.17c.62-.1,1.05-.68.96-1.3l-1.82-12.42Z"></path>
    <path class="cls-2" d="m56.17,68.22c-.06,0-.12,0-.18.01-4.25.71-9.05,1.85-9.04,1.85-.18.03-4.5.91-5.43,7.86l-.83,13.23c-.04.63.44,1.17,1.06,1.21h.07c.6,0,1.1-.46,1.14-1.06l.82-13.16c.28-2.07.9-3.41,1.55-4.29.82-1.1,1.68-1.45,1.99-1.54.06-.02.09-.03.11-.03.03,0,1.63-.39,3.78-.84.7-.15,1.45-.3,2.23-.45.69-.13,1.4-.27,2.1-.39l3.35,6.78c.2.4.6.63,1.02.63.17,0,.34-.04.5-.12.33-.16.54-.46.61-.79l-.81-.91c-.35-.4-.38-.99-.07-1.41l-2.94-5.95c-.19-.4-.59-.63-1.02-.63"></path>
    <path class="cls-2" d="m73.74,68.22c-.43,0-.83.24-1.03.63l-2.94,5.95c.3.43.28,1.01-.07,1.41l-.81.92c.07.33.28.62.61.79.16.08.33.12.5.12.42,0,.82-.23,1.02-.63l3.35-6.78c.7.12,1.41.26,2.11.39.78.15,1.53.31,2.23.45,2.16.46,3.77.84,3.82.85,0,0,.03,0,.07.02.26.08,1.15.41,1.99,1.53.65.86,1.26,2.19,1.53,4.22l.83,13.23c.04.6.54,1.06,1.13,1.06h.07c.63-.04,1.1-.58,1.06-1.21l-.84-13.31c-.92-6.87-5.24-7.74-5.37-7.77-.05-.01-4.85-1.15-9.1-1.86-.06,0-.12-.01-.18-.01"></path>
    <path class="cls-2" d="m64.96,78.15l-2.38-2.69,2.37-2.7,2.37,2.7-2.36,2.69Zm0-8.21c-.33,0-.65.12-.86.37l-3.88,4.4s-.05.06-.07.09c-.31.43-.28,1.01.08,1.42l.8.91,1.23,1.39,1.87,2.11s.07.07.11.11c.21.18.47.28.75.28s.52-.09.73-.26c.05-.04.09-.08.13-.12l1.85-2.1,1.23-1.39.8-.92c.35-.4.38-.99.07-1.41-.02-.03-.05-.06-.07-.09l-3.88-4.4c-.22-.25-.54-.37-.87-.37"></path>
    <path class="cls-2" d="m75.33,50.27c-.61,0-1.13.45-1.16,1.07-.03.47-.06.99-.1,1.39-.01.16-.03.32-.05.48-.8,6.68-4.97,12.44-9.08,12.44-3.38,0-7.04-4.11-8.52-9.56-.14-.51-.59-.84-1.1-.84-.1,0-.2.01-.3.04-.61.16-.96.79-.8,1.4,1.77,6.51,6.27,11.24,10.72,11.24,5.4,0,10.62-6.86,11.39-14.97.04-.41.08-.96.11-1.45v-.02c.04-.63-.44-1.17-1.06-1.21h-.04"></path>
  </g>
  <rect class="cls-1" x="-.79" y="-.54" width="17.01" height="121.36"></rect>
</svg>
