<?xml version="1.0" encoding="UTF-8"?>
<svg xmlns="http://www.w3.org/2000/svg" xmlns:xlink="http://www.w3.org/1999/xlink" id="ville_attractive" data-name="ville attractive" viewBox="0 0 120 120">
  <defs>
    <style>
      .cls-1 {
        fill: #3da435;
      }

      .cls-2 {
        fill: #5a606d;
      }

      .cls-3 {
        clip-path: url(#clippath);
      }

      .cls-4 {
        fill: none;
      }
    </style>
    <clipPath id="clippath">
      <rect class="cls-4" x="35.09" y="30.47" width="66.79" height="64"></rect>
    </clipPath>
  </defs>
  <g class="cls-3">
    <path class="cls-2" d="m51.74,88.9l6.06-18.64c.2-.62-.02-1.31-.55-1.69l-15.85-11.52h19.6c.66,0,1.24-.42,1.44-1.04l6.06-18.64,6.06,18.64c.2.62.78,1.04,1.44,1.04h19.6l-15.85,11.52c-.53.39-.75,1.07-.55,1.69l6.06,18.64-15.86-11.52c-.26-.19-.58-.29-.89-.29s-.63.1-.89.29l-15.86,11.52Zm16.74-57.94c-.66,0-1.24.42-1.44,1.05l-7.16,22.02h-23.16c-.66,0-1.24.42-1.44,1.04-.21.63.02,1.31.55,1.69l18.73,13.61-7.16,22.02c-.2.63.02,1.31.55,1.69.27.19.58.29.89.29s.62-.09.89-.29l18.74-13.61,18.74,13.61c.26.19.58.29.89.29s.63-.09.89-.29c.53-.39.75-1.07.55-1.69l-7.16-22.02,18.73-13.61c.53-.39.75-1.07.55-1.69-.2-.62-.78-1.04-1.44-1.04h-23.16l-7.16-22.02c-.2-.63-.78-1.05-1.44-1.05"></path>
    <path class="cls-2" d="m95.1,43.92h0s-.11.42-.11.42l.22.38c.1.08.22.12.34.12.17,0,.34-.08.45-.22l-.91-.69Zm.38-.22l-.38.22.91.69.11-.42-.22-.38-.42-.11"></path>
    <path class="cls-2" d="m95.56,44.84c-.12,0-.24-.04-.34-.12l-.22-.38.11-.42h0s.91.69.91.69c-.11.15-.28.22-.45.22m.46-.23l-.91-.69.38-.22.42.11.22.38-.11.42m-.45-2.8c-.74,0-1.48.33-1.96.97h0c-.4.53-.57,1.18-.48,1.83.09.65.43,1.22.95,1.61.43.33.95.5,1.48.5l.34-.02c.65-.09,1.23-.43,1.62-.95.4-.52.57-1.17.48-1.82-.09-.65-.43-1.23-.95-1.63-.44-.33-.96-.5-1.48-.5"></path>
    <polygon class="cls-2" points="81.73 33.22 81.65 33.22 81.27 33.44 81.16 33.87 81.38 34.24 81.8 34.35 82.18 34.13 82.29 33.71 82.07 33.33 81.73 33.22"></polygon>
    <path class="cls-2" d="m81.8,34.35l-.42-.11-.22-.38.11-.42.38-.22h.08s.34.11.34.11l.23.38-.11.42-.38.22Zm-.07-3.02c-.12,0-.23,0-.35.03-.65.09-1.22.43-1.61.95-.4.53-.57,1.17-.48,1.83.09.65.43,1.22.95,1.61.43.33.95.5,1.48.5l.33-.02c.66-.09,1.23-.42,1.63-.95s.57-1.17.48-1.82c-.09-.65-.43-1.23-.95-1.62-.43-.33-.95-.5-1.48-.5"></path>
    <path class="cls-2" d="m93.83,30.67c-.46,0-.91.21-1.21.6l-10.37,13.69c-.51.67-.38,1.61.29,2.12.27.21.6.31.91.31.46,0,.91-.21,1.21-.6l10.37-13.69c.5-.67.37-1.61-.29-2.12-.27-.21-.6-.31-.91-.31"></path>
    <path class="cls-2" d="m41.87,43.92l-.91.69c.11.15.28.22.45.22.12,0,.24-.04.34-.12l.22-.38-.11-.42Zm-.45-.23l-.35.12-.21.37.11.42.91-.69h0s-.38-.22-.38-.22h-.08"></path>
    <path class="cls-2" d="m41.41,44.84c-.17,0-.34-.08-.45-.22l.91-.69.11.42-.22.38c-.1.08-.22.12-.34.12m-.46-.23l-.11-.42.22-.38.35-.12h.08s.38.22.38.22h0s-.91.69-.91.69m.45-2.8c-.52,0-1.04.16-1.48.5-.53.4-.86.97-.95,1.62-.09.65.08,1.3.48,1.82.4.52.97.86,1.62.95l.34.02c.53,0,1.05-.17,1.47-.5.53-.39.87-.97.95-1.62.09-.65-.08-1.3-.48-1.82h0c-.48-.64-1.22-.97-1.96-.97"></path>
    <polygon class="cls-2" points="55.32 33.22 54.89 33.33 54.68 33.71 54.79 34.13 55.16 34.35 55.59 34.24 55.81 33.87 55.7 33.44 55.32 33.22"></polygon>
    <path class="cls-2" d="m55.16,34.35l-.38-.22-.11-.42.21-.37.42-.12.38.22.11.42-.22.38-.42.11Zm.07-3.02c-.53,0-1.04.18-1.47.5-.52.4-.86.97-.95,1.62-.09.65.08,1.3.48,1.82s.97.86,1.63.95l.34.02c.54,0,1.05-.17,1.47-.5.53-.39.87-.97.96-1.62.09-.65-.08-1.3-.48-1.83-.39-.52-.97-.86-1.61-.95-.12-.02-.24-.03-.36-.03"></path>
    <path class="cls-2" d="m43.14,30.67c-.32,0-.64.1-.91.31-.67.51-.8,1.46-.29,2.12l10.37,13.69c.3.39.75.6,1.21.6.32,0,.64-.1.91-.31.67-.51.8-1.45.29-2.12l-10.37-13.69c-.3-.39-.75-.6-1.21-.6"></path>
  </g>
  <rect class="cls-1" x=".47" y=".26" width="17.01" height="119.74"></rect>
</svg>
