<?xml version="1.0" encoding="UTF-8"?>
<svg xmlns="http://www.w3.org/2000/svg" id="Calque_1" data-name="Calque 1" viewBox="0 0 100 100">
  <defs>
    <style>
      .cls-1 {
        fill: #220a05;
      }
    </style>
  </defs>
  <g>
    <g>
      <path class="cls-1" d="m66.49,18.14s.13-.89,1.64-1.08c0,0,1.64-.11,1.88.73,0,0,.11.82-1.76,1.17,0,0-1.74.37-1.76-.82Z"></path>
      <path class="cls-1" d="m59.28,22.17s1.61-1.17,4.66-.91c0,0,2.35.07,2.39,1.38,0,0,.16,1.51-2.23,2.72,0,0-1.12.75-3.33.07,0,0-1.78-.52-2.39-1.55,0,0-.48-.89.89-1.71Z"></path>
      <path class="cls-1" d="m58.39,24.51s.93,1.14,3.46,1.53c0,0,1.51,1.14,1.84,2.38,0,0,.65,2.35-1.81,2.85,0,0-1.81.39-5.94.24,0,0-7.3-.24-9.03-.95,0,0-2.38-.58-2.51-1.06,0,0-.86-1.06,1.19-2.4,0,0,2.05-1.3,6.22-2.05,0,0,4.04-.78,6.59-.54Z"></path>
      <path class="cls-1" d="m55.35,32.01s6.89.06,7.52-.69c0,0,4.23.11,4.34,3.13,0,0,.56,5.9-4.88,7.97,0,0-2.59,1.64-12.57,1.71,0,0-7.52.13-11.16-1.71,0,0-2.44-.97.58-3.65,0,0,2.61-2.42,7.88-4.38,0,0,3.93-1.55,8.29-2.38Z"></path>
    </g>
    <g>
      <path class="cls-1" d="m32.1,48.42c.59-.14,1.3-.2,2.14-.2.39,0,.77.03,1.14.1.36.07.68.2.96.38.58.31.88.85.89,1.61,0,.61-.18,1.1-.51,1.48-.34.4-.78.68-1.31.85v.04c.46.24.71.74.76,1.51.06.48.11.95.16,1.4.03.45.08.77.16.96h-1.76c-.07-.25-.15-.9-.23-1.95-.03-.5-.14-.85-.33-1.04-.17-.18-.43-.27-.77-.27h-.52l-.59,3.27h-1.74l1.55-8.11Zm1.05,3.53h.7c.48,0,.86-.13,1.16-.39.29-.26.44-.59.45-1,0-.34-.12-.58-.34-.74-.23-.15-.52-.22-.88-.22-.31,0-.53.02-.67.06l-.42,2.3Z"></path>
      <path class="cls-1" d="m43.02,56.19c-.34.17-.7.29-1.08.36-.39.08-.75.11-1.09.11-1.68-.04-2.52-.88-2.52-2.54,0-.96.31-1.81.92-2.56.6-.76,1.42-1.14,2.47-1.17.61,0,1.1.17,1.46.48s.55.75.56,1.32c0,.76-.34,1.29-1,1.59-.67.31-1.59.45-2.77.42,0,.21.06.41.18.62.24.32.61.47,1.11.47.63,0,1.17-.13,1.63-.38l.12,1.27Zm-.88-4.01c0-.16-.06-.28-.17-.37-.1-.09-.26-.14-.46-.14-.39,0-.7.15-.93.41-.24.26-.38.54-.44.84,1.33.04,2-.2,2-.73h0Zm1.84-4.23l-1.54,1.86h-1.24l1.11-1.86h1.67Z"></path>
      <path class="cls-1" d="m45.07,54.97c.18.09.41.18.69.27.27.1.55.15.84.15.48-.02.73-.2.73-.55,0-.14-.05-.28-.16-.4-.11-.12-.3-.24-.57-.37-.36-.17-.66-.39-.9-.66-.26-.26-.38-.57-.38-.94,0-.64.25-1.15.74-1.52.46-.36,1.08-.54,1.86-.55.71.02,1.21.12,1.51.3l-.42,1.25c-.12-.06-.28-.12-.48-.17-.21-.06-.45-.08-.72-.08-.51,0-.76.18-.77.53,0,.24.25.47.76.68.34.16.64.37.91.64.13.13.23.28.3.44.07.17.11.36.11.58,0,.69-.26,1.21-.75,1.57-.49.36-1.14.55-1.93.55-.78-.04-1.37-.19-1.78-.47l.43-1.24Z"></path>
      <path class="cls-1" d="m55.26,56.19c-.34.17-.7.29-1.08.36-.39.08-.75.11-1.09.11-1.68-.04-2.52-.88-2.52-2.54,0-.96.31-1.81.92-2.56.6-.76,1.42-1.14,2.47-1.17.61,0,1.1.17,1.46.48s.55.75.56,1.32c0,.76-.34,1.29-1,1.59-.67.31-1.59.45-2.77.42,0,.21.06.41.18.62.24.32.61.47,1.11.47.63,0,1.17-.13,1.63-.38l.12,1.27Zm-.88-4.01c0-.16-.06-.28-.17-.37-.1-.09-.26-.14-.46-.14-.39,0-.7.15-.93.41-.24.26-.38.54-.44.84,1.33.04,2-.2,2-.73h0Z"></path>
      <path class="cls-1" d="m60.88,56.53c.02-.35.04-.75.07-1.19h-.02c-.28.48-.58.83-.93,1.03-.35.2-.7.3-1.05.3-.53-.01-.96-.21-1.27-.58-.33-.38-.49-.88-.49-1.51,0-1.06.34-2.02,1.02-2.86.67-.86,1.72-1.3,3.14-1.32.75,0,1.39.11,1.92.29l-.58,3.14c-.16.91-.24,1.81-.24,2.7h-1.57Zm.46-4.76c-.13-.03-.28-.05-.45-.05-.27,0-.52.08-.75.23-.24.15-.44.35-.62.61-.37.52-.55,1.08-.55,1.68,0,.3.06.53.18.71.12.19.29.28.52.28.28,0,.55-.16.83-.49.26-.33.46-.86.61-1.59l.24-1.39Z"></path>
      <path class="cls-1" d="m70.64,50.53l-.74,4.04c-.14.76-.24,1.41-.32,1.95h-1.51l.1-.97h-.02c-.61.74-1.28,1.12-2,1.11-.98,0-1.48-.56-1.5-1.68,0-.32.04-.69.12-1.1l.62-3.35h1.71l-.6,3.22c-.05.29-.08.55-.08.8,0,.19.05.35.15.48.08.14.22.21.44.21.31,0,.59-.17.85-.52.26-.34.45-.8.56-1.4l.51-2.78h1.71Z"></path>
      <path class="cls-1" d="m18.32,64.34h-2.85l-.37,2.01h3.3l-.29,1.51h-5.01l1.52-8.27h4.75l-.28,1.51h-3.09l-.35,1.75h2.95l-.28,1.48Z"></path>
      <path class="cls-1" d="m19.87,67.87l.74-4.05c.14-.76.24-1.41.3-1.95h1.51l-.11.99h.03c.6-.75,1.31-1.13,2.14-1.13.99.02,1.49.56,1.5,1.64,0,.32-.04.66-.1,1.01l-.65,3.49h-1.74l.64-3.33c.05-.21.07-.43.07-.67s-.04-.4-.13-.53c-.09-.13-.25-.19-.49-.19-.3,0-.59.17-.87.52-.29.36-.5.87-.65,1.54l-.47,2.66h-1.71Z"></path>
      <path class="cls-1" d="m30.55,60.24l-.3,1.62h1.25l-.26,1.34h-1.24l-.39,2.03c-.06.27-.09.52-.09.76-.02.33.15.5.5.5.16,0,.31,0,.46-.02l-.19,1.38c-.27.09-.61.14-1.01.14-.51-.01-.89-.14-1.14-.37-.25-.24-.38-.55-.38-.94,0-.3.04-.67.13-1.1l.44-2.38h-.73l.24-1.34h.75l.21-1.13,1.76-.49Z"></path>
      <path class="cls-1" d="m32.02,67.87l.66-3.57c.15-1.01.25-1.82.3-2.43h1.48c-.02.4-.06.81-.1,1.23h.05c.21-.41.47-.74.78-.99.31-.26.66-.38,1.06-.38.12,0,.22.01.32.01l-.33,1.73c-.07,0-.16-.01-.27-.01-.53,0-.94.22-1.22.64-.29.41-.49.92-.6,1.54l-.4,2.24h-1.72Z"></path>
      <path class="cls-1" d="m41.9,67.53c-.34.17-.7.29-1.08.36-.39.08-.75.11-1.09.11-1.68-.04-2.52-.88-2.52-2.54,0-.96.31-1.81.92-2.56.6-.76,1.42-1.14,2.47-1.17.61,0,1.1.17,1.46.48.36.31.55.75.56,1.32,0,.76-.34,1.29-1,1.59-.67.31-1.59.45-2.77.42,0,.21.06.41.18.62.24.32.61.47,1.11.47.63,0,1.17-.13,1.63-.38l.12,1.27Zm-.88-4.01c0-.16-.06-.28-.17-.37-.1-.09-.26-.14-.46-.14-.39,0-.7.15-.93.41-.24.26-.38.54-.44.84,1.33.04,2-.2,2-.73h0Z"></path>
      <path class="cls-1" d="m43.21,70.29l1.13-6.11c.14-.84.25-1.63.33-2.37h1.53l-.11.92h.02c.51-.66,1.13-1,1.87-1.01.64,0,1.11.23,1.42.67.31.43.47.97.47,1.62-.01,1.06-.32,1.98-.92,2.76-.6.8-1.43,1.21-2.46,1.23-.48-.02-.84-.1-1.07-.24h-.04l-.46,2.53h-1.71Zm2.44-3.9c.18.19.44.28.79.28.24,0,.45-.08.65-.23.2-.16.37-.35.51-.59.3-.51.46-1.07.47-1.7,0-.26-.05-.48-.16-.68-.12-.2-.32-.3-.59-.31-.33,0-.62.18-.88.52-.27.34-.46.8-.58,1.4l-.21,1.31Z"></path>
      <path class="cls-1" d="m51.09,67.87l.66-3.57c.15-1.01.25-1.82.3-2.43h1.48c-.02.4-.06.81-.1,1.23h.05c.21-.41.47-.74.78-.99.31-.26.66-.38,1.06-.38.12,0,.22.01.32.01l-.33,1.73c-.07,0-.16-.01-.27-.01-.53,0-.94.22-1.22.64-.29.41-.49.92-.6,1.54l-.4,2.24h-1.72Z"></path>
      <path class="cls-1" d="m60.97,67.53c-.34.17-.7.29-1.08.36-.39.08-.75.11-1.09.11-1.68-.04-2.52-.88-2.52-2.54,0-.96.31-1.81.92-2.56.6-.76,1.42-1.14,2.47-1.17.61,0,1.1.17,1.46.48s.55.75.56,1.32c0,.76-.34,1.29-1,1.59-.67.31-1.59.45-2.77.42,0,.21.06.41.18.62.24.32.61.47,1.11.47.63,0,1.17-.13,1.63-.38l.12,1.27Zm-.88-4.01c0-.16-.06-.28-.17-.37-.1-.09-.26-.14-.46-.14-.39,0-.7.15-.93.41-.24.26-.38.54-.44.84,1.33.04,2-.2,2-.73h0Z"></path>
      <path class="cls-1" d="m62.75,67.87l.74-4.05c.14-.76.24-1.41.3-1.95h1.51l-.11.99h.03c.6-.75,1.31-1.13,2.14-1.13.99.02,1.49.56,1.5,1.64,0,.32-.04.66-.1,1.01l-.65,3.49h-1.74l.64-3.33c.05-.21.07-.43.07-.67s-.04-.4-.13-.53c-.09-.13-.25-.19-.49-.19-.3,0-.59.17-.87.52-.29.36-.5.87-.65,1.54l-.47,2.66h-1.71Z"></path>
      <path class="cls-1" d="m76.96,59.15l-1.18,6.38c-.13.81-.22,1.59-.27,2.33h-1.56l.08-.97h-.02c-.25.38-.54.66-.88.83-.34.18-.69.28-1.04.28-.5-.01-.92-.21-1.26-.59-.35-.38-.53-.94-.53-1.67,0-1.08.34-2.02,1.01-2.8.66-.79,1.54-1.2,2.65-1.22.26,0,.52.05.78.15l.51-2.73h1.7Zm-2.45,4.13c-.15-.13-.38-.2-.68-.21-.52.02-.93.26-1.25.74-.33.48-.49,1.03-.5,1.64,0,.74.28,1.12.8,1.13.26,0,.52-.14.77-.42.24-.28.43-.7.55-1.27l.31-1.61Z"></path>
      <path class="cls-1" d="m77.51,67.87l.66-3.57c.15-1.01.25-1.82.3-2.43h1.48c-.02.4-.06.81-.1,1.23h.05c.21-.41.47-.74.78-.99.31-.26.66-.38,1.06-.38.12,0,.22.01.32.01l-.33,1.73c-.07,0-.16-.01-.27-.01-.53,0-.94.22-1.22.64-.29.41-.49.92-.6,1.54l-.4,2.24h-1.72Z"></path>
      <path class="cls-1" d="m87.38,67.53c-.34.17-.7.29-1.08.36-.39.08-.75.11-1.09.11-1.68-.04-2.52-.88-2.52-2.54,0-.96.31-1.81.92-2.56.6-.76,1.42-1.14,2.47-1.17.61,0,1.1.17,1.46.48s.55.75.56,1.32c0,.76-.34,1.29-1,1.59-.67.31-1.59.45-2.77.42,0,.21.06.41.18.62.24.32.61.47,1.11.47.63,0,1.17-.13,1.63-.38l.12,1.27Zm-.88-4.01c0-.16-.06-.28-.17-.37-.1-.09-.26-.14-.46-.14-.39,0-.7.15-.93.41-.24.26-.38.54-.44.84,1.33.04,2-.2,2-.73h0Z"></path>
    </g>
  </g>
  <g>
    <path class="cls-1" d="m18.16,75.38c0-.24.04-.49.13-.73.09-.24.21-.46.38-.65.17-.19.37-.35.61-.46.24-.12.51-.18.82-.18.36,0,.67.08.93.25.26.16.46.38.58.64l-.5.34c-.05-.12-.12-.22-.2-.31-.08-.08-.17-.15-.26-.2-.09-.05-.19-.08-.29-.11-.1-.02-.2-.03-.29-.03-.21,0-.39.04-.54.13-.16.09-.29.2-.4.34-.11.14-.19.3-.24.47-.05.17-.08.35-.08.52,0,.2.03.39.09.56.06.18.15.34.27.47.11.14.25.25.4.33.16.08.33.12.51.12.09,0,.19-.01.3-.04.1-.02.2-.06.3-.12.09-.06.18-.12.26-.21s.15-.18.2-.3l.53.3c-.06.15-.15.29-.27.4-.12.12-.25.21-.39.29-.14.08-.3.14-.46.18-.16.04-.33.06-.48.06-.28,0-.54-.06-.77-.18-.23-.12-.43-.28-.6-.48-.17-.2-.3-.42-.39-.67-.09-.25-.14-.5-.14-.76Z"></path>
    <path class="cls-1" d="m25.59,73.38v4.05h-.64v-1.79h-2.04v1.79h-.64v-4.05h.64v1.69h2.04v-1.69h.64Z"></path>
    <path class="cls-1" d="m26.09,77.43l1.63-4.05h.52l1.63,4.05h-.68l-.43-1.1h-1.56l-.42,1.1h-.68Zm1.89-3.34l-.67,1.76h1.32l-.65-1.76Z"></path>
    <path class="cls-1" d="m33.76,77.43v-2.91l-1.2,2.21h-.35l-1.21-2.21v2.91h-.64v-4.05h.68l1.34,2.48,1.34-2.48h.68v4.05h-.64Z"></path>
    <path class="cls-1" d="m35.32,77.43v-4.05h1.7c.18,0,.35.04.5.11.15.08.29.18.4.3.11.12.2.26.26.42.06.16.09.32.09.48s-.03.34-.09.49c-.06.16-.14.3-.25.42-.11.12-.23.22-.38.3-.15.07-.32.11-.5.11h-1.09v1.41h-.64Zm.64-1.97h1.06c.09,0,.17-.02.25-.06.07-.04.14-.09.19-.16.05-.07.09-.15.13-.24.03-.09.05-.19.05-.3s-.02-.22-.05-.31c-.03-.09-.08-.17-.14-.24-.06-.07-.13-.12-.21-.15-.08-.04-.16-.05-.24-.05h-1.02v1.51Z"></path>
    <path class="cls-1" d="m38.16,77.43l1.63-4.05h.52l1.63,4.05h-.68l-.43-1.1h-1.56l-.42,1.1h-.68Zm1.89-3.34l-.67,1.76h1.32l-.65-1.76Z"></path>
    <path class="cls-1" d="m45.23,76.93c-.33.35-.72.53-1.16.53-.26,0-.51-.06-.74-.17-.23-.12-.43-.27-.6-.46-.17-.19-.3-.41-.4-.66-.1-.25-.15-.51-.15-.77s.05-.53.15-.78c.1-.25.23-.46.4-.65.17-.19.37-.33.6-.44.23-.11.48-.16.76-.16.38,0,.7.08.96.24.26.16.45.38.59.64l-.49.35c-.11-.22-.26-.39-.45-.5-.19-.11-.4-.17-.62-.17-.19,0-.36.04-.51.12-.15.08-.28.19-.39.33-.11.14-.19.29-.25.47-.06.18-.09.36-.09.56,0,.21.03.4.1.58.06.18.15.33.27.47.12.13.25.24.41.32.16.08.33.12.51.12.41,0,.78-.2,1.11-.6v-.43h-.85v-.47h1.39v2.05h-.54v-.5Z"></path>
    <path class="cls-1" d="m47.14,74.58v2.85h-.64v-4.05h.5l2.32,2.92v-2.91h.64v4.04h-.53l-2.29-2.85Z"></path>
    <path class="cls-1" d="m53.66,76.87v.56h-2.78v-4.05h2.73v.56h-2.09v1.15h1.81v.53h-1.81v1.24h2.14Z"></path>
    <path class="cls-1" d="m54.18,76.15v-.56h1.71v.56h-1.71Z"></path>
    <path class="cls-1" d="m56.19,77.43l1.63-4.05h.52l1.63,4.05h-.68l-.43-1.1h-1.56l-.42,1.1h-.68Zm1.89-3.34l-.67,1.76h1.32l-.65-1.76Z"></path>
    <path class="cls-1" d="m60.46,77.43v-4.05h1.76c.18,0,.35.04.5.11.15.08.29.18.4.3.11.12.2.26.26.42.06.16.09.32.09.48,0,.14-.02.27-.06.39-.04.13-.09.24-.16.35-.07.11-.15.2-.25.28-.1.08-.21.14-.33.17l.96,1.54h-.72l-.89-1.41h-.94v1.41h-.64Zm.64-1.97h1.12c.09,0,.17-.02.25-.06.07-.04.14-.1.19-.17.05-.07.09-.15.13-.24.03-.09.05-.19.05-.29s-.02-.2-.05-.29c-.04-.09-.08-.17-.14-.24-.06-.07-.13-.12-.21-.16-.08-.04-.16-.06-.24-.06h-1.08v1.51Z"></path>
    <path class="cls-1" d="m64.28,77.43v-4.05h1.44c.33,0,.61.05.86.16.25.11.45.25.62.43s.29.4.37.64c.08.25.13.51.13.78,0,.31-.05.59-.14.84-.09.25-.23.46-.4.64-.17.18-.38.31-.62.41-.24.1-.52.15-.82.15h-1.44Zm2.76-2.03c0-.21-.03-.41-.09-.59-.06-.18-.15-.33-.26-.46s-.25-.23-.42-.3c-.16-.07-.35-.11-.56-.11h-.8v2.92h.8c.21,0,.4-.04.57-.11.17-.07.3-.18.42-.31.11-.13.2-.29.25-.46.06-.18.09-.37.09-.58Z"></path>
    <path class="cls-1" d="m71.15,76.87v.56h-2.78v-4.05h2.73v.56h-2.09v1.15h1.81v.53h-1.81v1.24h2.14Z"></path>
    <path class="cls-1" d="m72.47,74.58v2.85h-.64v-4.05h.5l2.32,2.92v-2.91h.64v4.04h-.53l-2.29-2.85Z"></path>
    <path class="cls-1" d="m76.84,74.58v2.85h-.64v-4.05h.5l2.32,2.92v-2.91h.64v4.04h-.53l-2.29-2.85Z"></path>
    <path class="cls-1" d="m83.36,76.87v.56h-2.78v-4.05h2.73v.56h-2.09v1.15h1.81v.53h-1.81v1.24h2.14Z"></path>
  </g>
</svg>
