<?xml version="1.0" encoding="UTF-8"?>
<svg xmlns="http://www.w3.org/2000/svg" id="Logo_-_Territoire" data-name="Logo - Territoire" viewBox="0 0 100 100">
  <defs>
    <style>
      .cls-1 {
        fill: #1a171b;
      }
    </style>
  </defs>
  <g>
    <g>
      <path class="cls-1" d="m29.58,47.72h1.92l-2.97,11.75h-1.92l2.97-11.75Z"></path>
      <path class="cls-1" d="m30.98,59.46l2.14-8.47h1.85l-.11.44s1.42-.63,2.37-.63c2.24,0,2.5,1.51,1.82,4.23l-1.12,4.43h-1.87l1.12-4.41c.39-1.53.44-2.56-.73-2.56-.8,0-1.96.44-1.96.44l-1.65,6.54h-1.85Z"></path>
      <path class="cls-1" d="m42.32,50.99h1.85l-2.14,8.47h-1.85l2.14-8.47Zm.83-3.29h1.85l-.49,1.95h-1.85l.49-1.95Z"></path>
      <path class="cls-1" d="m48.5,52.62l-.91,3.62c-.31,1.22-.2,1.75.49,1.75.48,0,1.29-.05,1.29-.05l-.3,1.51s-1.07.22-1.67.22c-1.8,0-2.3-.9-1.73-3.17l.98-3.87h-1.02l.41-1.61h1.02l.63-2.5h1.85l-.63,2.5h2.24l-.41,1.61h-2.24Z"></path>
      <path class="cls-1" d="m52.9,50.99h1.85l-2.14,8.47h-1.85l2.14-8.47Zm.83-3.29h1.85l-.49,1.95h-1.85l.49-1.95Z"></path>
      <path class="cls-1" d="m61.71,57.22c-.1.59.1.75.58.87l-.51,1.56c-1.17,0-1.68-.22-2.09-.61,0,0-1.38.61-2.7.61-1.46,0-2.3-1.05-1.88-2.7.44-1.73,1.69-2.44,3.4-2.58l2.1-.17.15-.58c.19-.75-.07-1.12-.75-1.12-1.51,0-3.32.17-3.32.17l.32-1.53s2.26-.34,3.53-.34c1.8,0,2.6.78,2.08,2.85l-.9,3.56Zm-3.31-1.53c-.76.05-1.24.53-1.41,1.2-.18.71.07,1.19.67,1.19.93,0,2.06-.36,2.06-.36l.55-2.16-1.86.12Z"></path>
      <path class="cls-1" d="m67.32,52.62l-.91,3.62c-.31,1.22-.2,1.75.49,1.75.48,0,1.29-.05,1.29-.05l-.3,1.51s-1.07.22-1.67.22c-1.8,0-2.3-.9-1.73-3.17l.98-3.87h-1.02l.41-1.61h1.02l.63-2.5h1.85l-.63,2.5h2.24l-.41,1.61h-2.24Z"></path>
      <path class="cls-1" d="m71.72,50.99h1.85l-2.14,8.47h-1.85l2.14-8.47Zm.83-3.29h1.85l-.49,1.95h-1.85l.49-1.95Z"></path>
      <path class="cls-1" d="m77.07,50.99l-.11,6.94h.39l3.44-6.94h1.88l-4.31,8.47h-3.19v-8.47s1.9,0,1.9,0Z"></path>
      <path class="cls-1" d="m88.6,57.87l-.32,1.39s-1.71.39-3.32.39c-2.61,0-3.2-1.53-2.48-4.35.73-2.87,2.38-4.5,4.72-4.5s3.15,1.39,2.52,3.87l-.45,1.32h-5.09c-.28,1.17-.02,2.02,1.34,2.02,1.22,0,3.09-.15,3.09-.15Zm-.7-3.28c.38-1.49.1-2.22-1.1-2.22s-1.91.78-2.28,2.22h3.38Z"></path>
    </g>
    <g>
      <path class="cls-1" d="m18.01,41.94v12.41h0v8.72c0,2.27,1.84,4.11,4.11,4.11h3.72c.15.48.44.94.9,1.28.74.55,1.75.64,2.56.22,1.62-.82,1.86-3,.45-4.16-.71-.58-1.71-.71-2.55-.33-.67.3-1.11.83-1.33,1.43h-3.76c-1.41,0-2.56-1.15-2.56-2.56v-8.72h0v-12.41c0-.66.54-1.2,1.2-1.2v-1.56c-1.53,0-2.76,1.24-2.76,2.76Z"></path>
      <path class="cls-1" d="m39.89,36.86c-2.22,0-3.4,1.55-3.4,4.27s.92,4.12,3.4,4.12c1.53,0,3.06-.37,3.06-.37l-.03-1.32s-1.74.15-2.9.15c-1.29,0-1.74-.81-1.76-1.92h4.83l.11-1.26c0-2.35-1.08-3.67-3.32-3.67Zm-1.63,3.59c0-1.37.5-2.11,1.63-2.11s1.58.69,1.58,2.11h-3.21Z"></path>
      <polygon class="cls-1" points="42.21 34.41 41.61 32.75 37.73 34.25 38.28 35.73 42.21 34.41"></polygon>
      <path class="cls-1" d="m48.26,40.22c-1.31-.23-1.63-.4-1.63-.9,0-.64.47-.93,1.3-.93s2.8.26,2.8.26l.03-1.43s-1.77-.35-2.96-.35c-1.47,0-2.95.69-2.95,2.5,0,1.64,1.06,2.08,2.87,2.43,1.27.26,1.53.4,1.53.95,0,.69-.43.98-1.53.98-.82,0-2.72-.27-2.72-.27l-.06,1.45s1.84.35,2.96.35c1.84,0,3.13-.68,3.13-2.56,0-1.59-.76-2.11-2.77-2.46Z"></path>
      <path class="cls-1" d="m55.9,36.86c-2.22,0-3.4,1.55-3.4,4.27s.92,4.12,3.4,4.12c1.53,0,3.06-.37,3.06-.37l-.03-1.32s-1.74.15-2.9.15c-1.29,0-1.74-.81-1.76-1.92h4.83l.11-1.26c0-2.35-1.08-3.67-3.32-3.67Zm-1.63,3.59c0-1.37.5-2.11,1.63-2.11s1.58.69,1.58,2.11h-3.21Z"></path>
      <path class="cls-1" d="m66.91,42.94v-3.38c0-1.97-.95-2.71-2.66-2.71-1.21,0-3.27.32-3.27.32l.06,1.45s1.68-.16,3.11-.16c.64,0,.98.35.98,1.06v.55l-1.95.16c-1.59.13-2.61.81-2.61,2.45s1.05,2.56,2.43,2.56c1.26,0,2.42-.58,2.42-.58.48.37,1.02.58,2.13.58l.11-1.48c-.48-.11-.71-.26-.76-.82Zm-1.77.48s-.98.34-1.87.34c-.56,0-.92-.45-.92-1.13s.34-1.1,1.05-1.14l1.74-.11v2.05Z"></path>
      <path class="cls-1" d="m74.05,37.03v6.22s-1,.45-1.71.45c-1.08,0-1.31-.74-1.31-2.48v-4.19h-1.77v4.2c0,2.8.66,4.01,2.74,4.01.85,0,2.05-.6,2.05-.6v.42h1.77v-8.04h-1.77Z"></path>
      <path class="cls-1" d="m35.11,36.95c0-2.22-1.47-3.71-3.66-3.71h-4.03v5.94h-6.65v1.56h6.65s0,0,0,0v4.32h1.63v-4.32h2.57l1.76,4.32h1.78l-1.93-4.71c1.16-.61,1.86-1.84,1.86-3.4Zm-3.27,2.23h-2.79v-4.37h2.4c1.29,0,1.99.79,1.99,2.15,0,1.16-.46,2.07-1.6,2.23Z"></path>
    </g>
    <circle class="cls-1" cx="18.65" cy="55.15" r="3.73"></circle>
  </g>
  <g>
    <path class="cls-1" d="m32.52,64.44h1.04l.88,3.03.88-3.03h1.02v3.87h-.62v-3.14h-.08l-.88,2.98h-.65l-.88-2.98h-.08v3.14h-.62v-3.87Z"></path>
    <path class="cls-1" d="m37.91,64.44h1.19l.93,3.87h-.63l-.23-.8h-1.38l-.2.8h-.63l.94-3.87Zm.02,2.49h1.12l-.45-1.94h-.21l-.46,1.94Z"></path>
    <path class="cls-1" d="m41.99,66.95h-.72v1.36h-.62v-3.87h1.39c.84,0,1.3.37,1.3,1.24,0,.57-.21.93-.62,1.12l.62,1.52h-.69l-.55-1.37h-.12Zm.06-1.94h-.77v1.38h.78c.43,0,.64-.31.64-.71,0-.43-.25-.67-.65-.67Z"></path>
    <path class="cls-1" d="m44.1,64.44h1.07l1.19,3.22h.08v-3.22h.63v3.87h-1.04l-1.22-3.22h-.08v3.22h-.63v-3.87Z"></path>
    <path class="cls-1" d="m48,64.44h2.36v.58h-1.73v1.09h1.4v.57h-1.4v1.06h1.73v.58h-2.36v-3.87Z"></path>
    <path class="cls-1" d="m53.07,67.13v1.19h-.63v-3.87h1.35c.83,0,1.31.44,1.31,1.3s-.48,1.38-1.31,1.38h-.72Zm.72-.58c.46,0,.67-.34.67-.81s-.21-.73-.67-.73h-.72v1.53h.72Z"></path>
    <path class="cls-1" d="m56.42,64.44h1.19l.93,3.87h-.63l-.23-.8h-1.38l-.2.8h-.63l.94-3.87Zm.02,2.49h1.12l-.45-1.94h-.21l-.46,1.94Z"></path>
    <path class="cls-1" d="m60.59,68.31h-.62v-1.66l-1.16-2.22h.7l.77,1.55.77-1.55h.7l-1.15,2.22v1.66Z"></path>
    <path class="cls-1" d="m64.54,65.03s-.77-.08-1.09-.08c-.43,0-.68.16-.68.5s.2.46.83.66c.78.26,1.07.44,1.07,1.09,0,.81-.4,1.18-1.29,1.18-.5,0-1.18-.12-1.18-.12l.03-.55s.74.08,1.09.08c.45,0,.72-.15.72-.57,0-.3-.21-.41-.78-.59-.82-.27-1.11-.51-1.11-1.17,0-.72.46-1.09,1.27-1.09.52,0,1.15.13,1.15.13l-.02.53Z"></path>
    <path class="cls-1" d="m67.94,66.95h-.72v1.36h-.62v-3.87h1.39c.84,0,1.3.37,1.3,1.24,0,.57-.21.93-.62,1.12l.62,1.52h-.69l-.55-1.37h-.12Zm.06-1.94h-.77v1.38h.78c.43,0,.64-.31.64-.71,0-.43-.25-.67-.65-.67Z"></path>
    <path class="cls-1" d="m70.05,64.44h2.36v.58h-1.73v1.09h1.4v.57h-1.4v1.06h1.73v.58h-2.36v-3.87Zm1.83-1.47l.21.58-1.37.46-.19-.51,1.35-.52Z"></path>
    <path class="cls-1" d="m73.17,64.44h1.04l.88,3.03.88-3.03h1.02v3.87h-.62v-3.14h-.08l-.88,2.98h-.65l-.88-2.98h-.08v3.14h-.62v-3.87Z"></path>
    <path class="cls-1" d="m77.74,66.4c0-1.3.4-2.03,1.53-2.03s1.53.72,1.53,2.03-.4,1.98-1.53,1.98-1.53-.66-1.53-1.98Zm2.41,0c0-.97-.22-1.44-.88-1.44s-.88.47-.88,1.44.21,1.4.88,1.4.88-.41.88-1.4Z"></path>
    <path class="cls-1" d="m81.5,64.44h.63v3.87h-.63v-3.87Z"></path>
    <path class="cls-1" d="m85.24,65.03s-.77-.08-1.09-.08c-.43,0-.68.16-.68.5s.2.46.83.66c.78.26,1.07.44,1.07,1.09,0,.81-.4,1.18-1.29,1.18-.5,0-1.18-.12-1.18-.12l.03-.55s.74.08,1.09.08c.45,0,.72-.15.72-.57,0-.3-.21-.41-.78-.59-.82-.27-1.11-.51-1.11-1.17,0-.72.46-1.09,1.27-1.09.52,0,1.15.13,1.15.13l-.02.53Z"></path>
  </g>
</svg>
