<?xml version="1.0" encoding="UTF-8"?>
<svg xmlns="http://www.w3.org/2000/svg" id="Calque_1" data-name="Calque 1" viewBox="0 0 180 180">
  <defs>
    <style>
      .cls-1 {
        fill: #fff;
      }

      .cls-2 {
        fill: #220a05;
      }
    </style>
  </defs>
  <rect class="cls-2" x="7.66" y="65.72" width="168.23" height="37.38" rx="10.71" ry="10.71"></rect>
  <g>
    <g>
      <path class="cls-1" d="m22.61,84.41c0,6.19,5.03,11.22,11.22,11.22,2.95,0,5.27-1.11,6.9-2.38l-2.37-2.64c-1.3.94-2.82,1.47-4.53,1.47-4.22,0-7.66-3.44-7.66-7.66s3.44-7.66,7.66-7.66c1.09,0,2.13.23,3.07.65l1.41-3.27c-1.37-.6-2.89-.94-4.48-.94-6.18,0-11.22,5.03-11.22,11.21Z"></path>
      <path class="cls-1" d="m27.85,84.41c0,3.3,2.68,5.98,5.98,5.98,1.26,0,2.54-.45,3.36-1.06,0,0-2.22-2.48-2.42-2.69-.2.1-.6.2-.94.2-1.33,0-2.42-1.08-2.42-2.42s1.09-2.45,2.43-2.45c.35,0,.69.08.98.21l1.4-3.22c-.71-.3-1.51-.51-2.4-.51-3.3,0-5.98,2.68-5.98,5.98Z"></path>
      <path class="cls-1" d="m38.28,82.09c.31.61.58,1.44.58,2.32,0,1.12-.47,2.33-1.1,3.14l2.4,2.64c1.34-1.43,2.26-3.51,2.26-5.79,0-1.35-.34-2.71-.9-3.83l-3.23,1.5Z"></path>
    </g>
    <path class="cls-1" d="m37.29,80.76l6.09-2.85c-.9-1.32-2.13-2.53-3.38-3.29l-2.73,6.12.02.02Z"></path>
  </g>
  <g>
    <path class="cls-1" d="m56.24,74.28c.43.15.83.38,1.21.69l-.99,1.12c-.26-.19-.52-.34-.77-.43-.25-.1-.52-.14-.81-.14-.59,0-1.05.24-1.4.71-.34.47-.51,1.2-.51,2.19s.17,1.69.51,2.16c.34.47.81.7,1.42.7.32,0,.61-.06.87-.17.26-.12.54-.28.85-.5l.92,1.13c-.33.31-.73.57-1.19.77-.47.2-.98.3-1.55.3-.81,0-1.51-.17-2.11-.51-.6-.34-1.06-.84-1.4-1.5-.33-.66-.5-1.46-.5-2.39s.17-1.69.51-2.35c.34-.66.81-1.16,1.41-1.5.6-.34,1.29-.51,2.05-.51.55,0,1.03.08,1.46.23Z"></path>
    <path class="cls-1" d="m63.03,74.28c.43.15.83.38,1.21.69l-.99,1.12c-.26-.19-.52-.34-.77-.43-.25-.1-.52-.14-.81-.14-.59,0-1.05.24-1.4.71-.34.47-.51,1.2-.51,2.19s.17,1.69.51,2.16c.34.47.81.7,1.42.7.32,0,.61-.06.87-.17.26-.12.54-.28.85-.5l.92,1.13c-.33.31-.73.57-1.19.77-.47.2-.98.3-1.55.3-.81,0-1.51-.17-2.11-.51-.6-.34-1.06-.84-1.4-1.5-.33-.66-.5-1.46-.5-2.39s.17-1.69.51-2.35c.34-.66.81-1.16,1.41-1.5.6-.34,1.29-.51,2.05-.51.55,0,1.03.08,1.46.23Z"></path>
    <path class="cls-1" d="m67.13,74.26v8.34h-2.07v-8.34h2.07Z"></path>
    <path class="cls-1" d="m80.2,82.59h-2.03l-.15-3.26c-.04-.78-.06-1.47-.06-2.08,0-.46.01-.91.04-1.32l-1.35,5.79h-1.96l-1.44-5.79c.05.7.08,1.36.08,1.97,0,.47-.01.95-.04,1.46l-.15,3.24h-2.02l.66-8.34h2.62l1.31,5.65,1.22-5.65h2.63l.66,8.34Z"></path>
    <path class="cls-1" d="m86.18,82.59l-.45-1.79h-2.55l-.44,1.79h-2.15l2.64-8.34h2.51l2.64,8.34h-2.2Zm-2.65-3.22h1.84l-.92-3.68-.92,3.68Z"></path>
    <path class="cls-1" d="m91.84,79.41h-.81v3.19h-2.07v-8.34h2.87c1.2,0,2.09.21,2.7.63.6.42.9,1.05.9,1.91,0,.54-.13.98-.4,1.34-.27.36-.69.66-1.28.91l2.22,3.55h-2.34l-1.79-3.19Zm-.81-1.36h.87c.46,0,.81-.1,1.04-.3.23-.2.35-.52.35-.95,0-.4-.12-.69-.37-.88-.25-.18-.63-.28-1.14-.28h-.75v2.41Z"></path>
    <path class="cls-1" d="m103.37,82.59h-2.64l-2.53-6.46c.08.63.15,1.19.2,1.68.05.49.07,1.06.07,1.73v3.06h-1.84v-8.34h2.58l2.59,6.47c-.19-1.1-.28-2.13-.28-3.1v-3.37h1.86v8.34Z"></path>
    <path class="cls-1" d="m110.18,74.26l-.21,1.41h-3.08v2h2.69v1.38h-2.69v2.13h3.3v1.42h-5.37v-8.34h5.37Z"></path>
    <path class="cls-1" d="m56.58,86.13l-.21,1.41h-3.08v2h2.69v1.38h-2.69v2.13h3.3v1.42h-5.37v-8.34h5.37Z"></path>
    <path class="cls-1" d="m64.42,94.46h-2.64l-2.53-6.46c.08.63.15,1.19.2,1.68.05.49.07,1.06.07,1.73v3.06h-1.84v-8.34h2.58l2.59,6.47c-.19-1.1-.28-2.13-.28-3.1v-3.37h1.86v8.34Z"></path>
    <path class="cls-1" d="m73.82,86.15c.43.15.83.38,1.21.69l-.99,1.12c-.26-.19-.52-.34-.77-.43-.25-.1-.52-.14-.81-.14-.59,0-1.05.24-1.4.71-.34.47-.51,1.2-.51,2.19s.17,1.69.51,2.16c.34.47.81.7,1.42.7.32,0,.61-.06.87-.17.26-.12.54-.28.85-.5l.92,1.13c-.33.31-.73.57-1.19.77-.47.2-.98.3-1.55.3-.81,0-1.51-.17-2.11-.51-.6-.34-1.06-.84-1.4-1.5-.33-.66-.5-1.46-.5-2.39s.17-1.69.51-2.35c.34-.66.81-1.16,1.41-1.5.6-.34,1.29-.51,2.05-.51.55,0,1.03.08,1.46.23Z"></path>
    <path class="cls-1" d="m80.55,94.46v-3.57h-2.63v3.57h-2.07v-8.34h2.07v3.22h2.63v-3.22h2.07v8.34h-2.07Z"></path>
    <path class="cls-1" d="m88.81,94.46l-.45-1.79h-2.55l-.44,1.79h-2.15l2.64-8.34h2.51l2.64,8.34h-2.2Zm-2.65-3.22h1.84l-.92-3.68-.92,3.68Z"></path>
    <path class="cls-1" d="m100.49,94.46h-2.03l-.15-3.26c-.04-.78-.06-1.47-.06-2.08,0-.46.01-.91.04-1.32l-1.35,5.79h-1.96l-1.44-5.79c.05.7.08,1.36.08,1.97,0,.47-.01.95-.04,1.46l-.15,3.24h-2.02l.66-8.34h2.61l1.31,5.65,1.23-5.65h2.63l.66,8.34Z"></path>
    <path class="cls-1" d="m107.12,86.81c.64.46.96,1.13.96,2.03s-.31,1.65-.94,2.12c-.63.48-1.47.72-2.52.72h-.95v2.78h-2.07v-8.34h2.83c1.15,0,2.05.23,2.69.69Zm-1.56,3.12c.26-.22.39-.58.39-1.09,0-.87-.51-1.31-1.54-1.31h-.73v2.73h.77c.49,0,.86-.11,1.12-.33Z"></path>
    <path class="cls-1" d="m113.23,94.46l-.45-1.79h-2.55l-.44,1.79h-2.15l2.64-8.34h2.51l2.64,8.34h-2.2Zm-2.65-3.22h1.84l-.92-3.68-.92,3.68Z"></path>
    <path class="cls-1" d="m122.47,86.95l-1.05,1.05c-.31-.22-.6-.39-.86-.49-.27-.1-.57-.15-.92-.15-.65,0-1.17.24-1.55.73-.39.49-.58,1.22-.58,2.21,0,1.07.15,1.82.44,2.27.29.44.75.67,1.38.67.44,0,.83-.09,1.19-.28v-1.89h-1.14l-.2-1.4h3.35v4.13c-.45.28-.96.5-1.5.65-.55.15-1.1.23-1.64.23-1.33,0-2.33-.37-3.01-1.11-.67-.74-1.01-1.83-1.01-3.27,0-.91.18-1.7.55-2.36.37-.66.87-1.16,1.5-1.5.64-.34,1.35-.51,2.14-.51,1.13,0,2.1.34,2.92,1.02Z"></path>
    <path class="cls-1" d="m130.52,94.46h-2.64l-2.53-6.46c.08.63.15,1.19.2,1.68.05.49.07,1.06.07,1.73v3.06h-1.84v-8.34h2.58l2.59,6.47c-.19-1.1-.28-2.13-.28-3.1v-3.37h1.86v8.34Z"></path>
    <path class="cls-1" d="m137.33,86.13l-.22,1.41h-3.08v2h2.69v1.38h-2.69v2.13h3.3v1.42h-5.37v-8.34h5.37Z"></path>
  </g>
  <g>
    <path class="cls-2" d="m29.98,109.05v5.35h-1.23v-4.13l-1.15.7-.55-.83,1.8-1.09h1.12Z"></path>
    <path class="cls-2" d="m33.07,110.75h-1.52c.02.21.08.35.18.43.09.08.22.12.38.12.1,0,.19-.02.29-.05.09-.04.19-.09.3-.16l.3.41c-.29.23-.6.34-.96.34-.4,0-.7-.12-.91-.35s-.32-.55-.32-.94c0-.25.04-.47.13-.67s.22-.36.39-.47c.17-.12.38-.17.62-.17.35,0,.63.11.83.33s.3.53.3.92c0,.1,0,.19-.01.26Zm-.7-.47c0-.38-.14-.56-.4-.56-.13,0-.22.05-.29.14-.07.09-.11.24-.13.46h.82v-.03Z"></path>
    <path class="cls-2" d="m35.09,109.27l-.12.71c-.09-.02-.17-.03-.22-.03-.14,0-.25.05-.33.15s-.13.25-.18.45v1.21h-.73v-2.45h.64l.06.48c.06-.17.14-.3.25-.4.11-.1.24-.15.38-.15.09,0,.17.01.24.03Z"></path>
    <path class="cls-2" d="m40.42,114.4l-.28-1.18h-1.6l-.28,1.18h-1.34l1.65-5.48h1.57l1.65,5.48h-1.38Zm-1.66-2.12h1.16l-.58-2.42-.58,2.42Z"></path>
    <path class="cls-2" d="m45.32,108.93c.27.1.52.25.76.45l-.62.74c-.16-.13-.32-.22-.48-.28-.16-.06-.33-.09-.51-.09-.37,0-.66.16-.87.47-.21.31-.32.79-.32,1.44s.11,1.11.32,1.42c.21.31.51.46.89.46.2,0,.38-.04.55-.11.16-.08.34-.19.53-.33l.58.74c-.21.21-.46.37-.75.51-.29.13-.62.2-.97.2-.51,0-.95-.11-1.32-.33-.37-.22-.67-.55-.87-.99-.21-.44-.31-.96-.31-1.57s.11-1.11.32-1.54c.21-.43.51-.76.89-.98.38-.22.81-.34,1.29-.34.34,0,.65.05.91.15Z"></path>
    <path class="cls-2" d="m49.75,108.93c.27.1.52.25.76.45l-.62.74c-.16-.13-.32-.22-.48-.28-.16-.06-.33-.09-.51-.09-.37,0-.66.16-.87.47-.21.31-.32.79-.32,1.44s.11,1.11.32,1.42c.21.31.51.46.89.46.2,0,.38-.04.55-.11.16-.08.34-.19.53-.33l.58.74c-.21.21-.46.37-.75.51-.29.13-.62.2-.97.2-.51,0-.95-.11-1.32-.33-.37-.22-.67-.55-.87-.99-.21-.44-.31-.96-.31-1.57s.11-1.11.32-1.54c.21-.43.51-.76.89-.98.38-.22.81-.34,1.29-.34.34,0,.65.05.91.15Z"></path>
    <path class="cls-2" d="m54.55,108.91l-.13.93h-1.93v1.31h1.69v.91h-1.69v1.4h2.07v.93h-3.36v-5.48h3.36Zm-1.03-2.08l.47.93-1.9.69-.32-.63,1.75-.99Z"></path>
    <path class="cls-2" d="m56.69,108.91v4.45h2.14l-.13,1.03h-3.3v-5.48h1.3Z"></path>
    <path class="cls-2" d="m62.85,108.91l-.13.93h-1.93v1.31h1.69v.91h-1.69v1.4h2.07v.93h-3.36v-5.48h3.36Zm-1.03-2.08l.47.93-1.9.69-.32-.63,1.75-.99Z"></path>
    <path class="cls-2" d="m65.49,112.3h-.51v2.1h-1.3v-5.48h1.8c.75,0,1.31.14,1.69.41s.57.69.57,1.26c0,.35-.08.65-.25.88-.17.23-.44.43-.8.6l1.39,2.33h-1.46l-1.12-2.1Zm-.51-.89h.55c.29,0,.51-.07.65-.2.15-.13.22-.34.22-.63,0-.26-.08-.46-.23-.58-.16-.12-.39-.18-.72-.18h-.47v1.58Z"></path>
    <path class="cls-2" d="m71.5,114.4l-.29-1.18h-1.6l-.28,1.18h-1.34l1.65-5.48h1.58l1.65,5.48h-1.38Zm-1.66-2.12h1.16l-.58-2.42-.58,2.42Z"></path>
    <path class="cls-2" d="m76.67,108.91l-.13,1h-1.35v4.49h-1.3v-4.49h-1.42v-1h4.19Z"></path>
    <path class="cls-2" d="m80.6,108.91l-.13.93h-1.93v1.31h1.69v.91h-1.69v1.4h2.07v.93h-3.36v-5.48h3.36Z"></path>
    <path class="cls-2" d="m85.64,112.58c0,.37-.08.71-.24,1-.16.3-.4.53-.72.7-.32.17-.71.25-1.18.25-.7,0-1.23-.18-1.59-.53-.36-.35-.55-.83-.55-1.42v-3.66h1.3v3.61c0,.35.07.62.2.79s.35.26.64.26.51-.09.64-.26.2-.43.2-.79v-3.61h1.3v3.66Z"></path>
    <path class="cls-2" d="m88.43,112.3h-.51v2.1h-1.3v-5.48h1.8c.75,0,1.31.14,1.69.41.38.27.57.69.57,1.26,0,.35-.08.65-.25.88s-.44.43-.8.6l1.39,2.33h-1.46l-1.12-2.1Zm-.51-.89h.55c.29,0,.51-.07.65-.2.14-.13.22-.34.22-.63,0-.26-.08-.46-.23-.58-.16-.12-.39-.18-.72-.18h-.47v1.58Z"></path>
    <path class="cls-2" d="m97.06,109.49c.52.39.78,1.1.78,2.13s-.25,1.73-.76,2.15c-.51.41-1.16.62-1.97.62h-1.65v-5.48h1.53c.86,0,1.55.19,2.07.58Zm-2.3.36v3.6h.43c.43,0,.75-.13.97-.4.22-.27.33-.74.33-1.43,0-.47-.06-.83-.17-1.09s-.26-.44-.45-.53-.43-.15-.7-.15h-.41Z"></path>
    <path class="cls-2" d="m102.02,108.91l-.13.93h-1.93v1.31h1.69v.91h-1.69v1.4h2.07v.93h-3.36v-5.48h3.36Z"></path>
    <path class="cls-2" d="m105.62,108.95c.3.12.58.29.83.53l-.6.7c-.37-.31-.78-.46-1.2-.46-.23,0-.41.05-.54.14-.13.09-.2.23-.2.4,0,.12.03.22.09.3.06.08.16.15.31.22.15.07.37.15.66.25.56.18.97.4,1.23.66.26.26.4.63.4,1.11,0,.34-.09.64-.26.91-.17.26-.42.46-.75.61s-.71.22-1.16.22-.85-.07-1.19-.21c-.35-.14-.64-.33-.89-.57l.66-.72c.21.18.43.31.65.4.22.09.47.13.73.13s.48-.06.64-.18c.16-.12.23-.28.23-.49,0-.14-.03-.25-.09-.34-.06-.09-.16-.18-.3-.25-.14-.07-.35-.15-.62-.24-.61-.18-1.04-.41-1.29-.68-.26-.27-.38-.61-.38-1.02,0-.32.08-.59.25-.83.17-.24.4-.42.7-.55.3-.13.64-.19,1.02-.19.41,0,.77.06,1.07.17Z"></path>
    <path class="cls-2" d="m112.62,108.91l-.13.93h-1.93v1.31h1.69v.91h-1.69v1.4h2.07v.93h-3.36v-5.48h3.36Z"></path>
    <path class="cls-2" d="m117.69,114.4h-1.65l-1.58-4.25c.05.42.09.78.12,1.1.03.32.04.7.04,1.14v2.01h-1.16v-5.48h1.61l1.62,4.26c-.12-.72-.17-1.4-.17-2.04v-2.22h1.16v5.48Z"></path>
    <path class="cls-2" d="m122.5,108.91l-.13,1h-1.35v4.49h-1.3v-4.49h-1.42v-1h4.19Z"></path>
    <path class="cls-2" d="m124.87,112.3h-.51v2.1h-1.3v-5.48h1.8c.75,0,1.31.14,1.69.41.38.27.57.69.57,1.26,0,.35-.08.65-.25.88s-.44.43-.8.6l1.39,2.33h-1.46l-1.12-2.1Zm-.51-.89h.55c.29,0,.51-.07.65-.2.14-.13.22-.34.22-.63,0-.26-.08-.46-.23-.58-.16-.12-.39-.18-.72-.18h-.47v1.58Z"></path>
    <path class="cls-2" d="m131.35,108.91l-.13.93h-1.93v1.31h1.69v.91h-1.69v1.4h2.07v.93h-3.36v-5.48h3.36Z"></path>
    <path class="cls-2" d="m135.64,109.36c.4.3.6.75.6,1.34s-.2,1.08-.59,1.4-.92.47-1.58.47h-.59v1.83h-1.3v-5.48h1.77c.72,0,1.28.15,1.69.45Zm-.98,2.05c.16-.14.24-.38.24-.72,0-.58-.32-.86-.97-.86h-.46v1.8h.48c.31,0,.54-.07.7-.22Z"></path>
    <path class="cls-2" d="m138.78,112.3h-.51v2.1h-1.3v-5.48h1.8c.75,0,1.31.14,1.69.41.38.27.57.69.57,1.26,0,.35-.08.65-.25.88s-.44.43-.8.6l1.39,2.33h-1.46l-1.12-2.1Zm-.51-.89h.55c.29,0,.51-.07.65-.2.14-.13.22-.34.22-.63,0-.26-.08-.46-.23-.58-.16-.12-.39-.18-.72-.18h-.47v1.58Z"></path>
    <path class="cls-2" d="m143.19,108.91v5.48h-1.3v-5.48h1.3Z"></path>
    <path class="cls-2" d="m147.09,108.95c.3.12.58.29.83.53l-.6.7c-.37-.31-.78-.46-1.2-.46-.23,0-.41.05-.54.14-.13.09-.2.23-.2.4,0,.12.03.22.09.3.06.08.16.15.31.22.15.07.37.15.66.25.56.18.97.4,1.23.66.26.26.4.63.4,1.11,0,.34-.09.64-.26.91-.17.26-.42.46-.75.61s-.71.22-1.16.22-.85-.07-1.19-.21c-.35-.14-.64-.33-.89-.57l.66-.72c.21.18.43.31.65.4.22.09.47.13.73.13s.48-.06.64-.18c.16-.12.23-.28.23-.49,0-.14-.03-.25-.09-.34-.06-.09-.16-.18-.3-.25-.14-.07-.35-.15-.62-.24-.61-.18-1.04-.41-1.29-.68-.26-.27-.38-.61-.38-1.02,0-.32.08-.59.25-.83.17-.24.4-.42.7-.55.3-.13.64-.19,1.02-.19.41,0,.77.06,1.07.17Z"></path>
    <path class="cls-2" d="m152.18,108.91l-.13.93h-1.93v1.31h1.69v.91h-1.69v1.4h2.07v.93h-3.36v-5.48h3.36Z"></path>
    <path class="cls-2" d="m155.78,108.95c.3.12.58.29.83.53l-.6.7c-.37-.31-.78-.46-1.2-.46-.23,0-.41.05-.54.14-.13.09-.2.23-.2.4,0,.12.03.22.09.3.06.08.16.15.31.22.15.07.37.15.66.25.56.18.97.4,1.23.66.26.26.4.63.4,1.11,0,.34-.09.64-.26.91-.17.26-.42.46-.75.61s-.71.22-1.16.22-.85-.07-1.19-.21c-.35-.14-.64-.33-.89-.57l.66-.72c.21.18.43.31.65.4.22.09.47.13.73.13s.48-.06.64-.18c.16-.12.23-.28.23-.49,0-.14-.03-.25-.09-.34-.06-.09-.16-.18-.3-.25-.14-.07-.35-.15-.62-.24-.61-.18-1.04-.41-1.29-.68-.26-.27-.38-.61-.38-1.02,0-.32.08-.59.25-.83.17-.24.4-.42.7-.55.3-.13.64-.19,1.02-.19.41,0,.77.06,1.07.17Z"></path>
  </g>
</svg>
