<?xml version="1.0" encoding="UTF-8"?>
<svg xmlns="http://www.w3.org/2000/svg" xmlns:xlink="http://www.w3.org/1999/xlink" id="Calque_11" data-name="Calque 11" viewBox="0 0 120 120">
  <defs>
    <style>
      .cls-1 {
        fill: #fff;
      }

      .cls-2 {
        fill: none;
        stroke: #fff;
        stroke-linecap: round;
        stroke-linejoin: round;
        stroke-width: 2px;
      }

      .cls-3 {
        fill: url(#Dégradé_sans_nom_7);
      }

      .cls-4 {
        fill: #d50f33;
        stroke: #d50f33;
        stroke-miterlimit: 10;
        stroke-width: 1.48px;
      }
    </style>
    <linearGradient id="Dégradé_sans_nom_7" data-name="Dégradé sans nom 7" x1="34.29" y1="67.15" x2="84.84" y2="67.15" gradientUnits="userSpaceOnUse">
      <stop offset="0" stop-color="#d49f49"></stop>
      <stop offset="1" stop-color="#fbf3b3"></stop>
    </linearGradient>
  </defs>
  <rect class="cls-4" x=".31" y="-.67" width="119.69" height="119.69"></rect>
  <polygon class="cls-3" points="60.16 60.54 34.29 73.77 84.84 73.77 60.16 60.54"></polygon>
  <g>
    <path class="cls-1" d="m52.72,96.9c-.07-.38-.4-.66-.79-.66h-7.43l-2.95-9.64c-.13-.42-.58-.66-1-.53-.42.13-.66.58-.53,1l3.03,9.89-3.59,6.68c-.21.39-.06.88.33,1.09.12.06.25.1.38.1.29,0,.56-.15.71-.42l3.52-6.55h6.87l1.13,6.32c.08.44.49.73.93.65.44-.08.73-.49.65-.93l-1.25-6.98Z"></path>
    <path class="cls-1" d="m77.27,96.95l3.03-9.89c.13-.42-.11-.87-.53-1-.42-.13-.87.11-1,.53l-2.95,9.64h-7.43c-.39,0-.72.28-.79.66l-1.25,6.98c-.08.44.21.85.65.93.44.08.85-.21.93-.65l1.13-6.32h6.87l3.52,6.55c.14.27.42.42.71.42.13,0,.26-.03.38-.1.39-.21.54-.7.33-1.09l-3.59-6.68Z"></path>
    <path class="cls-1" d="m70.26,92.74c.44,0,.8-.36.8-.8s-.36-.8-.8-.8h-20.2c-.44,0-.8.36-.8.8s.36.8.8.8h9.3v11.28c0,.44.36.8.8.8s.8-.36.8-.8v-11.28h9.3Z"></path>
    <path class="cls-1" d="m86.04,73.1l-25.51-13.23s-.01,0-.02,0c-.02,0-.03-.02-.05-.02-.01,0-.02,0-.03-.01-.02,0-.04-.01-.05-.02-.01,0-.02,0-.03,0-.02,0-.04,0-.06-.01,0,0-.02,0-.03,0-.03,0-.06,0-.09,0,0,0,0,0,0,0h0s-.06,0-.09,0c0,0-.01,0-.02,0-.02,0-.05,0-.07.01-.01,0-.02,0-.03,0-.02,0-.04.01-.06.02-.01,0-.02,0-.03.01-.02,0-.04.01-.05.02,0,0,0,0-.01,0l-25.51,13.23c-.33.17-.5.54-.41.9.09.36.41.61.78.61h51.03c.37,0,.69-.25.78-.61.09-.36-.08-.73-.41-.9Zm-25.87-11.29l9.84,11.2h-19.45l9.61-11.2Zm-3.31,1.39l-8.42,9.81h-10.5l18.92-9.81Zm15.28,9.81s-.02-.02-.03-.03l-8.54-9.71,18.81,9.75h-10.24Z"></path>
    <rect class="cls-1" x="59.36" y="75.51" width="1.6" height="14.6"></rect>
  </g>
  <g>
    <path class="cls-2" d="m65.23,32.94h0c-2.8,0-5.07-2.27-5.07-5.07v-7.1h10.15v7.1c0,2.8-2.27,5.07-5.07,5.07Z"></path>
    <path class="cls-2" d="m75.38,32.94h0c-2.8,0-5.07-2.27-5.07-5.07v-7.1h10.15v7.1c0,2.8-2.27,5.07-5.07,5.07Z"></path>
    <path class="cls-2" d="m86.03,32.94h0c-3.08,0-5.58-2.5-5.58-5.58v-6.59h9.13c1.12,0,2.03.91,2.03,2.03v4.57c0,3.08-2.5,5.58-5.58,5.58Z"></path>
    <path class="cls-2" d="m55.08,32.94h0c2.8,0,5.07-2.27,5.07-5.07v-7.1h-10.15v7.1c0,2.8,2.27,5.07,5.07,5.07Z"></path>
    <path class="cls-2" d="m44.94,32.94h0c2.8,0,5.07-2.27,5.07-5.07v-7.1h-10.15v7.1c0,2.8,2.27,5.07,5.07,5.07Z"></path>
    <path class="cls-2" d="m34.29,32.94h0c3.08,0,5.58-2.5,5.58-5.58v-6.59h-9.13c-1.12,0-2.03.91-2.03,2.03v4.57c0,3.08,2.5,5.58,5.58,5.58Z"></path>
    <polyline class="cls-2" points="71.85 82.3 89.58 82.3 89.58 31.65"></polyline>
    <polyline class="cls-2" points="30.74 31.66 30.74 82.3 42 82.3"></polyline>
    <polyline class="cls-2" points="89.58 75.55 89.58 41.06 30.74 41.06 30.74 75.55"></polyline>
  </g>
</svg>
