<?xml version="1.0" encoding="UTF-8"?>
<svg xmlns="http://www.w3.org/2000/svg" xmlns:xlink="http://www.w3.org/1999/xlink" id="Calque_17" data-name="Calque 17" viewBox="0 0 120 120">
  <defs>
    <style>
      .cls-1 {
        fill: url(#Dégradé_sans_nom_7);
      }

      .cls-2 {
        fill: #d50f33;
        stroke: #d50f33;
        stroke-miterlimit: 10;
        stroke-width: 1.48px;
      }

      .cls-3 {
        fill: none;
        stroke: #fff;
        stroke-linecap: round;
        stroke-linejoin: round;
        stroke-width: 3px;
      }
    </style>
    <linearGradient id="Dégradé_sans_nom_7" data-name="Dégradé sans nom 7" x1="26.82" y1="60.53" x2="66.62" y2="60.53" gradientUnits="userSpaceOnUse">
      <stop offset="0" stop-color="#d49f49"></stop>
      <stop offset="1" stop-color="#fbf3b3"></stop>
    </linearGradient>
  </defs>
  <rect class="cls-2" x="-.71" width="120.71" height="120.71"></rect>
  <path class="cls-1" d="m42.31,74.96l20.03,13.41s4.67,2.85,4.24-4.11c-.42-6.96-.59-52.15-.59-52.15l-23.68,16.44-14.26,1.54-1.23,10.94v12.03l15.49,1.91Z"></path>
  <g>
    <g>
      <path class="cls-3" d="m42.13,47.33l-12.5,1.98c-1.62.26-2.81,1.65-2.81,3.29v16.41c0,1.64,1.19,3.03,2.81,3.29l12.5,1.98,21.94,15.3c1.06.74,2.51-.02,2.51-1.31v-54.92c0-1.29-1.45-2.05-2.51-1.31l-21.94,15.3Z"></path>
      <line class="cls-3" x1="42.31" y1="48.55" x2="42.31" y2="73.48"></line>
    </g>
    <g>
      <path class="cls-3" d="m78.5,46.91c3.52,3.52,5.69,8.37,5.69,13.74s-2.17,10.22-5.69,13.74"></path>
      <path class="cls-3" d="m88.38,37.04c6.04,6.04,9.78,14.39,9.78,23.61s-3.74,17.57-9.78,23.61"></path>
    </g>
  </g>
</svg>
