<?xml version="1.0" encoding="UTF-8"?>
<svg xmlns="http://www.w3.org/2000/svg" xmlns:xlink="http://www.w3.org/1999/xlink" id="Calque_28" data-name="Calque 28" viewBox="0 0 120 120">
  <defs>
    <style>
      .cls-1 {
        fill: #fff;
      }

      .cls-2 {
        fill: url(#Dégradé_sans_nom_7);
      }

      .cls-3 {
        fill: #d50f33;
        stroke: #d50f33;
        stroke-miterlimit: 10;
        stroke-width: 1.48px;
      }
    </style>
    <linearGradient id="Dégradé_sans_nom_7" data-name="Dégradé sans nom 7" x1="42.99" y1="64.37" x2="80.14" y2="64.37" gradientUnits="userSpaceOnUse">
      <stop offset="0" stop-color="#d49f49"></stop>
      <stop offset="1" stop-color="#fbf3b3"></stop>
    </linearGradient>
  </defs>
  <rect class="cls-3" x="-2.14" y="-.56" width="124.59" height="124.59"></rect>
  <circle class="cls-2" cx="61.56" cy="64.37" r="18.58"></circle>
  <g>
    <g>
      <path class="cls-1" d="m83.26,30.13c-.18,0-.36-.06-.52-.17-3.89-2.96-8.28-5.04-13.03-6.19-.46-.11-.74-.57-.63-1.03.11-.46.57-.74,1.03-.63,4.98,1.2,9.58,3.38,13.66,6.49.38.29.45.82.16,1.2-.17.22-.42.34-.68.34Z"></path>
      <path class="cls-1" d="m37.82,27.25c-.26,0-.52-.12-.68-.34-.28-.38-.21-.91.17-1.19,5.58-4.18,12.16-6.85,19.04-7.72.47-.06.89.27.95.74.06.47-.27.89-.74.95-6.59.84-12.9,3.39-18.24,7.4-.15.11-.33.17-.51.17Z"></path>
      <path class="cls-1" d="m85.08,27.25c-.18,0-.36-.06-.51-.17-5.34-4-11.65-6.56-18.24-7.4-.47-.06-.8-.49-.74-.95.06-.47.49-.8.95-.74,6.88.87,13.47,3.54,19.04,7.72.38.28.45.82.17,1.19-.17.22-.42.34-.68.34Z"></path>
      <path class="cls-1" d="m56.57,98.04s-.07,0-.11,0c-6.4-.79-12.6-3.16-17.92-6.85-.39-.27-.48-.8-.22-1.19.27-.39.8-.48,1.19-.22,5.1,3.53,11.03,5.8,17.16,6.56.47.06.8.48.74.95-.05.43-.42.75-.85.75Z"></path>
      <path class="cls-1" d="m66.33,98.04c-.42,0-.79-.32-.85-.75-.06-.47.27-.89.74-.95,6.13-.76,12.06-3.03,17.16-6.56.39-.27.92-.17,1.19.22.27.39.17.92-.22,1.19-5.32,3.69-11.52,6.05-17.92,6.85-.04,0-.07,0-.11,0Z"></path>
      <path class="cls-1" d="m92.83,82.8c-.18,0-.36-.06-.52-.18-.37-.29-.45-.82-.16-1.2,3.93-5.14,6.52-11.23,7.49-17.59.07-.47.51-.78.97-.72.47.07.79.51.72.97-1.01,6.65-3.72,13-7.82,18.37-.17.22-.42.34-.68.34Z"></path>
      <path class="cls-1" d="m30.07,82.8c-.26,0-.51-.12-.68-.34-4.11-5.37-6.81-11.72-7.82-18.37-.07-.47.25-.9.72-.97.47-.07.9.25.97.72.97,6.37,3.56,12.45,7.49,17.59.29.37.22.91-.16,1.2-.15.12-.34.18-.52.18Z"></path>
      <path class="cls-1" d="m100.51,53.07c-.42,0-.78-.31-.84-.73-.93-6.39-3.49-12.48-7.39-17.62-.29-.38-.21-.91.16-1.2.38-.28.91-.21,1.2.16,4.08,5.37,6.75,11.74,7.72,18.41.07.47-.25.9-.72.97-.04,0-.08,0-.12,0Z"></path>
      <path class="cls-1" d="m22.39,53.07s-.08,0-.12,0c-.47-.07-.79-.5-.72-.97.97-6.67,3.64-13.04,7.72-18.41.28-.38.82-.45,1.2-.16.38.28.45.82.16,1.2-3.9,5.14-6.46,11.24-7.39,17.62-.06.42-.43.73-.84.73Z"></path>
      <path class="cls-1" d="m97.11,53.37c-.41,0-.78-.3-.84-.73-.62-4.06-1.93-7.94-3.89-11.53-.23-.41-.07-.93.34-1.16.41-.23.93-.07,1.16.34,2.06,3.76,3.44,7.83,4.08,12.09.07.47-.25.9-.72.97-.04,0-.09,0-.13,0Z"></path>
      <path class="cls-1" d="m90.51,80.2c-.18,0-.35-.05-.5-.17-.38-.28-.46-.81-.18-1.19,2.55-3.47,4.43-7.32,5.57-11.45.13-.45.6-.72,1.05-.59.45.13.72.6.59,1.05-1.2,4.33-3.16,8.37-5.84,12.01-.17.23-.43.35-.69.35Z"></path>
      <path class="cls-1" d="m66.34,94.6c-.42,0-.79-.31-.84-.74-.06-.47.26-.9.73-.96,4.66-.63,9.07-2.17,13.12-4.58.41-.24.93-.11,1.17.3.24.41.11.93-.3,1.17-4.25,2.52-8.88,4.13-13.76,4.8-.04,0-.08,0-.12,0Z"></path>
      <path class="cls-1" d="m52.97,93.92c-.07,0-.13,0-.2-.02-4.99-1.21-9.59-3.41-13.69-6.54-.37-.29-.45-.82-.16-1.2.29-.37.82-.45,1.2-.16,3.91,2.99,8.3,5.09,13.06,6.24.46.11.74.57.63,1.03-.09.39-.44.65-.83.65Z"></path>
      <path class="cls-1" d="m30.37,77.14c-.29,0-.58-.15-.73-.42-2.31-3.91-3.86-8.16-4.6-12.62-.08-.46.24-.9.7-.98.46-.08.9.24.98.7.71,4.26,2.19,8.31,4.39,12.04.24.41.1.93-.3,1.17-.14.08-.29.12-.43.12Z"></path>
      <path class="cls-1" d="m26.55,49.74c-.07,0-.14,0-.22-.03-.46-.12-.73-.59-.61-1.04,1.12-4.28,2.98-8.29,5.55-11.92.27-.38.8-.48,1.19-.2.38.27.48.8.2,1.19-2.44,3.46-4.22,7.29-5.29,11.36-.1.38-.45.64-.82.64Z"></path>
      <path class="cls-1" d="m42.79,28c-.29,0-.57-.15-.73-.41-.24-.4-.12-.93.29-1.17,4.35-2.64,9.11-4.32,14.14-5,.47-.06.9.26.96.73.06.47-.26.9-.73.96-4.8.65-9.33,2.25-13.48,4.77-.14.08-.29.12-.44.12Z"></path>
    </g>
    <path class="cls-1" d="m61.45,64.68c-3.68,0-6.67-2.99-6.67-6.67s2.99-6.67,6.67-6.67,6.67,2.99,6.67,6.67-2.99,6.67-6.67,6.67Zm0-11.64c-2.74,0-4.97,2.23-4.97,4.97s2.23,4.97,4.97,4.97,4.97-2.23,4.97-4.97-2.23-4.97-4.97-4.97Z"></path>
    <path class="cls-1" d="m61.45,77.73c-10.88,0-19.73-8.85-19.73-19.73s8.85-19.73,19.73-19.73,19.73,8.85,19.73,19.73-8.85,19.73-19.73,19.73Zm0-37.74c-9.94,0-18.02,8.08-18.02,18.02s8.08,18.02,18.02,18.02,18.02-8.08,18.02-18.02-8.08-18.02-18.02-18.02Z"></path>
    <path class="cls-1" d="m61.45,61.01c-1.66,0-3-1.35-3-3s1.35-3,3-3,3,1.35,3,3-1.35,3-3,3Zm0-4.3c-.71,0-1.3.58-1.3,1.3s.58,1.3,1.3,1.3,1.3-.58,1.3-1.3-.58-1.3-1.3-1.3Z"></path>
    <g>
      <path class="cls-1" d="m61.45,53.04c-.47,0-.85-.38-.85-.85v-22.35c0-.47.38-.85.85-.85s.85.38.85.85v22.35c0,.47-.38.85-.85.85Z"></path>
      <path class="cls-1" d="m57.33,54.74c-.22,0-.44-.08-.6-.25l-15.04-15.04c-.33-.33-.33-.87,0-1.21.33-.33.87-.33,1.21,0l15.04,15.04c.33.33.33.87,0,1.21-.17.17-.39.25-.6.25Z"></path>
      <path class="cls-1" d="m55.63,58.86h-23.33c-.47,0-.85-.38-.85-.85s.38-.85.85-.85h23.33c.47,0,.85.38.85.85s-.38.85-.85.85Z"></path>
      <path class="cls-1" d="m41.32,78.99c-.22,0-.44-.08-.6-.25-.33-.33-.33-.87,0-1.21l16.02-16.02c.33-.33.87-.33,1.21,0,.33.33.33.87,0,1.21l-16.02,16.02c-.17.17-.38.25-.6.25Z"></path>
      <path class="cls-1" d="m61.45,87.02c-.47,0-.85-.38-.85-.85v-22.35c0-.47.38-.85.85-.85s.85.38.85.85v22.35c0,.47-.38.85-.85.85Z"></path>
      <path class="cls-1" d="m81.58,78.99c-.22,0-.44-.08-.6-.25l-16.02-16.02c-.33-.33-.33-.87,0-1.21.33-.33.87-.33,1.21,0l16.02,16.02c.33.33.33.87,0,1.21-.17.17-.39.25-.6.25Z"></path>
      <path class="cls-1" d="m90.6,58.86h-23.33c-.47,0-.85-.38-.85-.85s.38-.85.85-.85h23.33c.47,0,.85.38.85.85s-.38.85-.85.85Z"></path>
      <path class="cls-1" d="m65.56,54.74c-.22,0-.44-.08-.6-.25-.33-.33-.33-.87,0-1.21l15.04-15.04c.33-.33.87-.33,1.21,0,.33.33.33.87,0,1.21l-15.04,15.04c-.17.17-.39.25-.6.25Z"></path>
    </g>
    <g>
      <path class="cls-1" d="m43.45,107.4c-.11,0-.22-.02-.33-.07-.43-.18-.64-.68-.46-1.11l3.3-7.98c.18-.43.68-.64,1.11-.46.43.18.64.68.46,1.11l-3.3,7.98c-.14.33-.45.53-.79.53Z"></path>
      <path class="cls-1" d="m49.47,92.88c-.11,0-.22-.02-.33-.07-.43-.18-.64-.68-.46-1.11l5.2-12.54c.18-.43.68-.64,1.11-.46.43.18.64.68.46,1.12l-5.2,12.54c-.14.33-.45.53-.79.53Z"></path>
      <path class="cls-1" d="m56.07,76.95c-.11,0-.22-.02-.33-.07-.44-.18-.64-.68-.46-1.11l1.73-4.17c.18-.44.68-.64,1.11-.46.44.18.64.68.46,1.11l-1.73,4.17c-.14.33-.45.53-.79.53Z"></path>
      <path class="cls-1" d="m52.46,75.46c-.11,0-.22-.02-.33-.07-.43-.18-.64-.68-.46-1.11l1.73-4.17c.18-.43.68-.64,1.11-.46.44.18.64.68.46,1.11l-1.73,4.17c-.14.33-.45.53-.79.53Z"></path>
      <path class="cls-1" d="m45.87,91.39c-.11,0-.22-.02-.33-.07-.44-.18-.64-.68-.46-1.11l5.19-12.54c.18-.43.68-.64,1.11-.46.43.18.64.68.46,1.11l-5.2,12.54c-.14.33-.45.53-.79.53Z"></path>
      <path class="cls-1" d="m39.23,107.4c-.11,0-.22-.02-.33-.07-.44-.18-.64-.68-.46-1.11l3.92-9.47c.18-.44.68-.64,1.11-.46.44.18.64.68.46,1.11l-3.92,9.47c-.14.33-.45.53-.79.53Z"></path>
    </g>
    <g>
      <path class="cls-1" d="m79.45,107.4c-.34,0-.65-.2-.79-.53l-3.3-7.98c-.18-.44.03-.93.46-1.11.44-.18.93.03,1.11.46l3.3,7.98c.18.43-.03.93-.46,1.11-.11.04-.22.07-.33.07Z"></path>
      <path class="cls-1" d="m73.43,92.88c-.33,0-.65-.2-.79-.53l-5.19-12.54c-.18-.44.03-.93.46-1.12.43-.18.93.03,1.11.46l5.19,12.54c.18.43-.03.93-.46,1.11-.11.04-.22.07-.33.07Z"></path>
      <path class="cls-1" d="m66.83,76.95c-.33,0-.65-.2-.79-.53l-1.73-4.17c-.18-.44.03-.93.46-1.11.44-.18.93.03,1.11.46l1.73,4.17c.18.43-.03.93-.46,1.11-.11.04-.22.07-.33.07Z"></path>
      <path class="cls-1" d="m70.44,75.46c-.34,0-.65-.2-.79-.53l-1.73-4.17c-.18-.43.03-.93.46-1.11.43-.18.93.03,1.11.46l1.73,4.17c.18.43-.03.93-.46,1.11-.11.04-.22.07-.33.07Z"></path>
      <path class="cls-1" d="m77.03,91.39c-.34,0-.65-.2-.79-.53l-5.19-12.54c-.18-.43.03-.93.46-1.11.44-.18.93.03,1.11.46l5.2,12.54c.18.44-.03.93-.46,1.11-.11.04-.22.07-.33.07Z"></path>
      <path class="cls-1" d="m83.67,107.4c-.33,0-.65-.2-.79-.53l-3.92-9.47c-.18-.44.03-.93.46-1.11.43-.18.93.03,1.11.46l3.92,9.48c.18.43-.03.93-.46,1.11-.11.04-.22.07-.33.07Z"></path>
    </g>
    <g>
      <path class="cls-1" d="m99.23,107.4h-3.66c-.47,0-.85-.38-.85-.85s.38-.85.85-.85h3.66c.47,0,.85.38.85.85s-.38.85-.85.85Z"></path>
      <path class="cls-1" d="m90.6,107.4H23.67c-.47,0-.85-.38-.85-.85s.38-.85.85-.85h66.92c.47,0,.85.38.85.85s-.38.85-.85.85Z"></path>
    </g>
    <g>
      <path class="cls-1" d="m65.17,27.04h-7.43c-.96,0-1.75-.75-1.81-1.71l-.33-5.7c-.09-1.63.47-3.18,1.59-4.37,1.12-1.19,2.63-1.84,4.27-1.84s3.15.65,4.27,1.84c1.12,1.19,1.68,2.74,1.59,4.37l-.33,5.7c-.06.96-.85,1.71-1.81,1.71Zm-3.72-11.91c-1.16,0-2.23.46-3.03,1.31-.79.84-1.19,1.94-1.13,3.1l.33,5.7c0,.06.05.1.11.1h7.43c.06,0,.1-.04.11-.1l.33-5.7c.07-1.16-.33-2.25-1.13-3.1-.79-.84-1.87-1.31-3.03-1.31Z"></path>
      <path class="cls-1" d="m66.32,22.71h-5.49c-.47,0-.85-.38-.85-.85s.38-.85.85-.85h5.49c.47,0,.85.38.85.85s-.38.85-.85.85Z"></path>
    </g>
    <g>
      <path class="cls-1" d="m38.45,38.1h-7.43c-.96,0-1.75-.75-1.81-1.71l-.33-5.7c-.09-1.63.47-3.18,1.59-4.37,1.12-1.19,2.64-1.84,4.27-1.84s3.15.65,4.27,1.84,1.68,2.74,1.59,4.37l-.33,5.7c-.06.96-.85,1.71-1.81,1.71Zm-3.72-11.91c-1.16,0-2.23.46-3.03,1.31-.79.84-1.19,1.94-1.13,3.1l.33,5.7c0,.06.05.1.11.1h7.43c.06,0,.1-.04.11-.1l.33-5.7c.07-1.16-.33-2.25-1.13-3.1-.79-.84-1.87-1.31-3.03-1.31Z"></path>
      <path class="cls-1" d="m39.61,33.77h-5.49c-.47,0-.85-.38-.85-.85s.38-.85.85-.85h5.49c.47,0,.85.38.85.85s-.38.85-.85.85Z"></path>
    </g>
    <g>
      <path class="cls-1" d="m27.39,64.81h-7.43c-.96,0-1.75-.75-1.81-1.71l-.33-5.7c-.09-1.63.47-3.18,1.59-4.37,1.12-1.19,2.63-1.84,4.27-1.84s3.15.65,4.27,1.84c1.12,1.19,1.68,2.74,1.59,4.37l-.33,5.7c-.06.96-.85,1.71-1.81,1.71Zm-3.72-11.91c-1.16,0-2.23.46-3.03,1.31-.79.84-1.19,1.94-1.13,3.1l.33,5.7c0,.06.05.1.11.1h7.43c.06,0,.1-.04.11-.1l.33-5.7c.07-1.16-.33-2.26-1.13-3.1-.79-.84-1.87-1.31-3.03-1.31Z"></path>
      <path class="cls-1" d="m28.55,60.48h-5.49c-.47,0-.85-.38-.85-.85s.38-.85.85-.85h5.49c.47,0,.85.38.85.85s-.38.85-.85.85Z"></path>
    </g>
    <g>
      <path class="cls-1" d="m38.45,91.53h-7.43c-.96,0-1.75-.75-1.81-1.71l-.33-5.7c-.09-1.63.47-3.18,1.59-4.37,1.12-1.19,2.64-1.84,4.27-1.84s3.15.65,4.27,1.84c1.12,1.19,1.68,2.74,1.59,4.37l-.33,5.7c-.06.96-.85,1.71-1.81,1.71Zm-3.72-11.91c-1.16,0-2.23.46-3.03,1.3-.79.84-1.19,1.94-1.13,3.1l.33,5.7c0,.06.05.1.11.1h7.43c.06,0,.1-.04.11-.1l.33-5.7c.07-1.16-.33-2.26-1.13-3.1-.79-.84-1.87-1.3-3.03-1.3Z"></path>
      <path class="cls-1" d="m39.61,87.2h-5.49c-.47,0-.85-.38-.85-.85s.38-.85.85-.85h5.49c.47,0,.85.38.85.85s-.38.85-.85.85Z"></path>
    </g>
    <g>
      <path class="cls-1" d="m65.17,102.59h-7.43c-.96,0-1.75-.75-1.81-1.71l-.33-5.7c-.09-1.63.47-3.18,1.59-4.37,1.12-1.19,2.63-1.84,4.27-1.84s3.15.65,4.27,1.84c1.12,1.19,1.68,2.74,1.59,4.37l-.33,5.7c-.06.96-.85,1.71-1.81,1.71Zm-3.72-11.91c-1.16,0-2.23.46-3.03,1.3-.79.84-1.19,1.94-1.13,3.1l.33,5.7c0,.06.05.1.11.1h7.43c.06,0,.1-.04.11-.1l.33-5.7c.07-1.16-.33-2.26-1.13-3.1-.79-.84-1.87-1.3-3.03-1.3Z"></path>
      <path class="cls-1" d="m66.32,98.26h-5.49c-.47,0-.85-.38-.85-.85s.38-.85.85-.85h5.49c.47,0,.85.38.85.85s-.38.85-.85.85Z"></path>
    </g>
    <g>
      <path class="cls-1" d="m91.88,91.53h-7.43c-.96,0-1.75-.75-1.81-1.71l-.33-5.7c-.09-1.63.47-3.18,1.59-4.37,1.12-1.19,2.63-1.84,4.27-1.84s3.15.65,4.27,1.84c1.12,1.19,1.68,2.74,1.59,4.37l-.33,5.7c-.06.96-.85,1.71-1.81,1.71Zm-3.72-11.91c-1.16,0-2.23.46-3.03,1.3-.79.84-1.19,1.94-1.13,3.1l.33,5.7c0,.06.05.1.11.1h7.43c.06,0,.1-.04.11-.1l.33-5.7c.07-1.16-.33-2.26-1.13-3.1-.79-.84-1.87-1.3-3.03-1.3Z"></path>
      <path class="cls-1" d="m93.03,87.2h-5.49c-.47,0-.85-.38-.85-.85s.38-.85.85-.85h5.49c.47,0,.85.38.85.85s-.38.85-.85.85Z"></path>
    </g>
    <g>
      <path class="cls-1" d="m102.94,64.81h-7.43c-.96,0-1.75-.75-1.81-1.71l-.33-5.7c-.09-1.63.47-3.18,1.59-4.37,1.12-1.19,2.64-1.84,4.27-1.84s3.15.65,4.27,1.84c1.12,1.19,1.68,2.74,1.59,4.37l-.33,5.7c-.06.96-.85,1.71-1.81,1.71Zm-3.72-11.91c-1.16,0-2.23.46-3.03,1.31-.79.84-1.19,1.94-1.13,3.1l.33,5.7c0,.06.05.1.11.1h7.43c.06,0,.1-.04.11-.1l.33-5.7c.07-1.16-.33-2.25-1.13-3.1-.79-.84-1.87-1.31-3.03-1.31Z"></path>
      <path class="cls-1" d="m104.1,60.48h-5.49c-.47,0-.85-.38-.85-.85s.38-.85.85-.85h5.49c.47,0,.85.38.85.85s-.38.85-.85.85Z"></path>
    </g>
    <g>
      <path class="cls-1" d="m91.88,38.1h-7.43c-.96,0-1.75-.75-1.81-1.71l-.33-5.7c-.09-1.63.47-3.18,1.59-4.37s2.63-1.84,4.27-1.84,3.15.65,4.27,1.84c1.12,1.19,1.68,2.74,1.59,4.37l-.33,5.7c-.06.96-.85,1.71-1.81,1.71Zm-3.72-11.91c-1.16,0-2.23.46-3.03,1.31-.79.84-1.19,1.94-1.13,3.1l.33,5.7c0,.06.05.1.11.1h7.43c.06,0,.1-.04.11-.1l.33-5.7c.07-1.16-.33-2.25-1.13-3.1-.79-.84-1.87-1.31-3.03-1.31Z"></path>
      <path class="cls-1" d="m93.03,33.77h-5.49c-.47,0-.85-.38-.85-.85s.38-.85.85-.85h5.49c.47,0,.85.38.85.85s-.38.85-.85.85Z"></path>
    </g>
  </g>
</svg>
