<?xml version="1.0" encoding="UTF-8"?>
<svg xmlns="http://www.w3.org/2000/svg" xmlns:xlink="http://www.w3.org/1999/xlink" id="Calque_19" data-name="Calque 19" viewBox="0 0 120 120">
  <defs>
    <style>
      .cls-1 {
        fill: #fff;
      }

      .cls-2 {
        fill: url(#Dégradé_sans_nom_7);
      }

      .cls-3 {
        fill: #d50f33;
        stroke: #d50f33;
        stroke-miterlimit: 10;
        stroke-width: 1.48px;
      }
    </style>
    <linearGradient id="Dégradé_sans_nom_7" data-name="Dégradé sans nom 7" x1="52.11" y1="79.07" x2="78.58" y2="79.07" gradientUnits="userSpaceOnUse">
      <stop offset="0" stop-color="#d49f49"></stop>
      <stop offset="1" stop-color="#fbf3b3"></stop>
    </linearGradient>
  </defs>
  <rect class="cls-3" y=".56" width="119.44" height="119.44"></rect>
  <polygon class="cls-2" points="53.27 71.69 52.11 77.85 78.58 86.45 78.58 80.08 53.27 71.69"></polygon>
  <g>
    <path class="cls-1" d="m89.35,16.78c-.62-1.19-1.66-2.06-2.93-2.47-2.63-.83-5.45.63-6.28,3.26l-14.32,45.27c-2.5.06-4.95.73-7.15,1.97-2.51,1.41-4.57,3.49-5.95,6-.48.87-.87,1.79-1.18,2.75-.06.18-.13.35-.19.52-.25.68-.49,1.33-.75,1.97,0,.02-.02.04-.02.06-.02.04-.03.08-.05.12-.09.24-.19.47-.29.71-.33.8-.67,1.53-1.02,2.24-1.71,3.42-4.89,8.46-12.75,12.69-.39.21-.65.6-.7,1.04-.05.44.12.88.46,1.16,1.92,1.65,4.31,3.28,6.96,4.77.03.02.06.04.1.05,2.54,1.42,5.32,2.72,8.19,3.81,6.38,2.42,12.68,3.61,17.73,3.35.11,0,.21-.02.31-.05.25-.07.48-.22.65-.43,3.92-4.69,7.21-11.68,8.98-16.65,0,0,0,0,0,0,.3-.84.57-1.67.81-2.47.42-1.37.74-2.62.95-3.74.19-.99.31-1.99.36-2.96.14-2.85-.36-5.62-1.42-8-1.02-2.28-2.55-4.21-4.53-5.74l14.37-45.42s0,0,0,0c.4-1.27.29-2.63-.33-3.81Zm-12.74,71.24c-1.64,4.6-4.61,10.97-8.13,15.38-2.87.08-5.97-.31-9.1-1.05,5.3-4.45,7.83-12.83,7.95-13.24.21-.71-.2-1.46-.91-1.67-.71-.21-1.46.2-1.67.91-.03.1-3,9.92-8.75,13.09-3.1-.95-6.15-2.19-8.96-3.59,1.03-.54,2.03-1.2,3.01-1.99,1.45-1.16,2.84-2.59,4.14-4.24,2.2-2.8,3.37-5.27,3.42-5.38.31-.67.03-1.47-.65-1.79-.67-.32-1.47-.03-1.79.64-.04.09-4.16,8.68-11.14,11.13-1.67-.96-3.21-1.97-4.55-2.99,5.56-3.33,9.44-7.45,12.14-12.86.21-.42.41-.84.61-1.28l24.75,7.83c-.12.36-.24.72-.37,1.08h0Zm1.88-7.29c0,.09-.02.17-.03.26,0,.04-.01.08-.02.13-.01.08-.02.16-.03.24,0,.04-.01.09-.02.13-.01.08-.03.17-.04.25,0,.04-.01.07-.02.11-.02.12-.04.24-.07.36-.02.11-.05.23-.07.35,0,.03-.01.05-.02.08-.03.12-.05.24-.08.36,0,.01,0,.02,0,.03-.03.12-.05.23-.08.35,0,.03-.01.05-.02.08-.03.13-.06.25-.1.38,0,.02,0,.04-.01.06-.03.12-.06.24-.09.36,0,.02-.01.05-.02.07,0,.02,0,.03-.01.05l-24.49-7.75s.03-.08.04-.11c.05-.12.09-.24.14-.36.02-.06.04-.12.07-.18.04-.11.08-.22.12-.33.02-.06.04-.12.07-.18.04-.12.09-.24.13-.36.02-.05.04-.1.05-.14.06-.17.12-.34.19-.51,0-.02.01-.04.02-.06.03-.11.07-.21.1-.32.01-.04.03-.07.04-.11.02-.07.05-.14.07-.21.02-.04.03-.08.05-.12.02-.06.05-.12.07-.19.02-.04.04-.09.05-.13.02-.06.05-.12.08-.18,0-.02.02-.04.03-.06l23.91,7.56s0,.05,0,.08Zm-1.1-7.88c.67,1.51,1.07,3.21,1.18,5l-22.6-7.15c2.48-3.36,6.55-5.35,10.77-5.17,1.1.05,2.19.24,3.25.57.14.05.27.11.41.16.8.33,1.56.72,2.25,1.16.12.07.23.15.34.22,1.97,1.33,3.45,3.08,4.41,5.2Zm9.72-53.07l-14.15,44.73s-.1-.05-.14-.08c-.02-.01-.04-.02-.06-.03-.13-.07-.26-.13-.39-.19-.02-.01-.05-.02-.07-.04-.13-.06-.26-.12-.4-.18-.02-.01-.05-.02-.07-.03-.14-.06-.27-.12-.41-.18-.02,0-.04-.01-.05-.02-.15-.06-.3-.12-.44-.18-.03,0-.05-.02-.08-.03-.09-.03-.18-.05-.26-.08-.03,0-.06-.02-.08-.02-.06-.02-.12-.04-.18-.05-.03,0-.07-.02-.1-.03-.06-.02-.11-.03-.17-.04-.03,0-.07-.02-.1-.03-.06-.01-.11-.03-.17-.04-.03,0-.07-.02-.1-.02-.06-.01-.11-.03-.17-.04-.03,0-.07-.01-.1-.02-.06-.01-.12-.03-.19-.04-.03,0-.05-.01-.08-.02-.09-.02-.18-.03-.27-.05,0,0,0,0-.01,0-.09-.02-.17-.03-.26-.04,0,0-.01,0-.02,0l14.12-44.64c.39-1.22,1.69-1.89,2.91-1.51.59.19,1.07.59,1.36,1.14.29.55.34,1.18.15,1.77h0Z"></path>
    <path class="cls-1" d="m24.93,83.76c-1.23.05-2.38.58-3.21,1.49-.84.91-1.27,2.09-1.22,3.32.05,1.23.58,2.38,1.49,3.21.91.84,2.09,1.27,3.32,1.22.38-.02.76-.08,1.11-.18,1.99-.58,3.41-2.47,3.32-4.63h0c-.1-2.55-2.26-4.54-4.81-4.43Zm2.13,4.54c.04,1.07-.79,1.97-1.86,2.02-.52.02-1.01-.16-1.39-.51-.38-.35-.6-.83-.62-1.35-.02-.52.16-1.01.51-1.39.24-.26.54-.45.88-.55.15-.04.31-.07.47-.08,1.07-.04,1.97.79,2.02,1.86h0Z"></path>
    <path class="cls-1" d="m34.86,72.85h0c-.04-1.09-.51-2.11-1.32-2.85-.81-.74-1.85-1.13-2.95-1.08-1.09.04-2.11.51-2.85,1.32-.74.81-1.13,1.85-1.08,2.95.09,2.26,2.01,4.02,4.26,3.93.34-.01.67-.07.98-.16,1.76-.52,3.02-2.18,2.94-4.1Zm-4.04,1.58c-.78.03-1.44-.58-1.47-1.35-.02-.38.12-.74.37-1.01.18-.19.4-.33.64-.4.11-.03.22-.05.34-.06.38-.02.74.12,1.01.37.28.26.44.6.45.98.03.78-.57,1.44-1.35,1.47Z"></path>
    <path class="cls-1" d="m21.84,76.67h0c-.06-1.48-.69-2.85-1.78-3.85-1.09-1-2.5-1.52-3.98-1.46-1.48.06-2.85.69-3.85,1.78-1,1.09-1.52,2.5-1.46,3.98.06,1.48.69,2.85,1.78,3.85,1.09,1,2.5,1.52,3.98,1.46.46-.02.91-.09,1.34-.22.95-.28,1.82-.81,2.51-1.56,1-1.09,1.52-2.5,1.46-3.98Zm-2.69.11c.03.76-.24,1.49-.75,2.05-.52.56-1.22.89-1.98.92-.76.03-1.49-.24-2.05-.75-.56-.52-.89-1.22-.92-1.98-.03-.76.24-1.49.75-2.05.36-.39.8-.66,1.29-.8.22-.06.45-.1.69-.11,1.57-.06,2.9,1.16,2.97,2.73Z"></path>
  </g>
</svg>
