<?xml version="1.0" encoding="UTF-8"?>
<svg xmlns="http://www.w3.org/2000/svg" xmlns:xlink="http://www.w3.org/1999/xlink" id="Calque_1" data-name="Calque 1" viewBox="0 0 120 120">
  <defs>
    <style>
      .cls-1 {
        fill: #fff;
      }

      .cls-2 {
        fill: #d50f33;
        stroke: #d50f34;
        stroke-miterlimit: 10;
      }

      .cls-3 {
        fill: url(#Dégradé_sans_nom_7);
      }
    </style>
    <linearGradient id="Dégradé_sans_nom_7" data-name="Dégradé sans nom 7" x1="48.56" y1="59.05" x2="69.67" y2="59.05" gradientUnits="userSpaceOnUse">
      <stop offset="0" stop-color="#d49f49"></stop>
      <stop offset="1" stop-color="#fbf3b3"></stop>
    </linearGradient>
  </defs>
  <rect class="cls-2" x="-.54" width="121.09" height="121.09"></rect>
  <circle class="cls-3" cx="59.11" cy="59.05" r="10.56"></circle>
  <g>
    <path class="cls-1" d="m62.47,49.48c1.28.39,2.49,1.08,3.48,1.99.9.82,1.63,1.8,2.14,2.9.58,1.23.87,2.54.87,3.91,0,.82.66,1.48,1.48,1.48s1.48-.66,1.48-1.48c0-1.81-.39-3.55-1.15-5.17-.69-1.46-1.64-2.74-2.83-3.83-1.32-1.2-2.91-2.11-4.61-2.63-1.14-.35-2.33-.53-3.54-.53h0c-.82,0-1.48.66-1.48,1.48,0,.82.66,1.48,1.48,1.49.91,0,1.81.14,2.68.4Z"></path>
    <path class="cls-1" d="m72.74,45.21c-3.84-3.85-8.95-5.97-14.38-5.98-.01,0-.03,0-.04,0-5.41,0-10.5,2.08-14.33,5.86-3.84,3.79-5.99,8.87-6.05,14.3-.02,2.35.35,4.66,1.11,6.86.73,2.13,1.81,4.11,3.2,5.89,3.44,4.4,5.42,7.11,6.07,11.42.12.81.88,1.37,1.69,1.25.81-.12,1.37-.88,1.25-1.69-.76-5.04-3.03-8.15-6.67-12.81-2.45-3.14-3.72-6.9-3.68-10.9.05-4.64,1.88-8.98,5.16-12.22,3.27-3.23,7.62-5.01,12.25-5.01.01,0,.03,0,.04,0,4.64,0,9.01,1.83,12.29,5.11,3.28,3.29,5.09,7.66,5.09,12.3,0,3.86-1.24,7.52-3.58,10.57-2.1,2.75-3.92,5.12-5.15,7.68-1.15,2.4-1.74,4.87-1.87,7.87l-15.69,2.3c-.81.12-1.37.87-1.25,1.68.11.74.74,1.27,1.47,1.27.07,0,.14,0,.22-.02l16.84-2.47c.76-.06,1.36-.7,1.36-1.48,0-3.13.49-5.56,1.6-7.88,1.09-2.29,2.74-4.44,4.83-7.16,2.74-3.58,4.19-7.86,4.19-12.38,0-5.44-2.11-10.55-5.95-14.4Z"></path>
    <path class="cls-1" d="m66.35,90.93l-16.9,2.48c-.81.12-1.37.87-1.25,1.68.11.74.74,1.27,1.47,1.27.07,0,.14,0,.22-.02l16.9-2.48c.81-.12,1.37-.87,1.25-1.68-.12-.81-.87-1.37-1.68-1.25Z"></path>
    <path class="cls-1" d="m62.75,96.83l-9.85,1.45c-.81.12-1.37.87-1.25,1.68.11.74.74,1.27,1.47,1.27.07,0,.14,0,.22-.02l9.85-1.45c.81-.12,1.37-.87,1.25-1.68-.12-.81-.87-1.37-1.68-1.25Z"></path>
    <path class="cls-1" d="m58.31,35.35c.82,0,1.48-.66,1.48-1.48v-10.2c0-.82-.66-1.48-1.48-1.48s-1.48.66-1.48,1.48v10.2c0,.82.66,1.48,1.48,1.48Z"></path>
    <path class="cls-1" d="m38.95,42.5c.29.29.67.43,1.05.43s.76-.14,1.05-.43c.58-.58.58-1.52,0-2.1l-7.21-7.21c-.58-.58-1.52-.58-2.1,0s-.58,1.52,0,2.1l7.21,7.21Z"></path>
    <path class="cls-1" d="m33.9,59.76c0-.82-.66-1.48-1.48-1.48h-10.2c-.82,0-1.48.66-1.48,1.48s.66,1.48,1.48,1.48h10.2c.82,0,1.48-.66,1.48-1.48Z"></path>
    <path class="cls-1" d="m38.95,77.02l-7.21,7.21c-.58.58-.58,1.52,0,2.1.29.29.67.43,1.05.43s.76-.14,1.05-.43l7.21-7.21c.58-.58.58-1.52,0-2.1s-1.52-.58-2.1,0Z"></path>
    <path class="cls-1" d="m77.67,77.02c-.58-.58-1.52-.58-2.1,0s-.58,1.52,0,2.1l7.21,7.21c.29.29.67.43,1.05.43s.76-.14,1.05-.43c.58-.58.58-1.52,0-2.1l-7.21-7.21Z"></path>
    <path class="cls-1" d="m94.41,58.28h-10.2c-.82,0-1.48.66-1.48,1.48s.66,1.48,1.48,1.48h10.2c.82,0,1.48-.66,1.48-1.48s-.66-1.48-1.48-1.48Z"></path>
    <path class="cls-1" d="m76.62,42.93c.38,0,.76-.14,1.05-.43l7.21-7.21c.58-.58.58-1.52,0-2.1s-1.52-.58-2.1,0l-7.21,7.21c-.58.58-.58,1.52,0,2.1.29.29.67.43,1.05.43Z"></path>
  </g>
</svg>
