<?xml version="1.0" encoding="UTF-8"?>
<svg xmlns="http://www.w3.org/2000/svg" xmlns:xlink="http://www.w3.org/1999/xlink" id="Calque_22" data-name="Calque 22" viewBox="0 0 120 120">
  <defs>
    <style>
      .cls-1 {
        fill: #fff;
      }

      .cls-2 {
        fill: url(#Dégradé_sans_nom_7);
      }

      .cls-3 {
        fill: #d50f33;
        stroke: #d50f33;
        stroke-miterlimit: 10;
        stroke-width: 1.48px;
      }

      .cls-4 {
        fill: url(#Dégradé_sans_nom_7-7);
      }

      .cls-5 {
        fill: url(#Dégradé_sans_nom_7-3);
      }

      .cls-6 {
        fill: url(#Dégradé_sans_nom_7-4);
      }

      .cls-7 {
        fill: url(#Dégradé_sans_nom_7-2);
      }

      .cls-8 {
        fill: url(#Dégradé_sans_nom_7-5);
      }

      .cls-9 {
        fill: url(#Dégradé_sans_nom_7-6);
      }
    </style>
    <linearGradient id="Dégradé_sans_nom_7" data-name="Dégradé sans nom 7" x1="13.25" y1="38.8" x2="26.12" y2="38.8" gradientUnits="userSpaceOnUse">
      <stop offset="0" stop-color="#d49f49"></stop>
      <stop offset="1" stop-color="#fbf3b3"></stop>
    </linearGradient>
    <linearGradient id="Dégradé_sans_nom_7-2" data-name="Dégradé sans nom 7" x1="82.82" y1="97.06" x2="90.04" y2="97.06" xlink:href="#Dégradé_sans_nom_7"></linearGradient>
    <linearGradient id="Dégradé_sans_nom_7-3" data-name="Dégradé sans nom 7" x1="30.23" y1="73.6" x2="37.46" y2="73.6" xlink:href="#Dégradé_sans_nom_7"></linearGradient>
    <linearGradient id="Dégradé_sans_nom_7-4" data-name="Dégradé sans nom 7" x1="68.62" y1="25.43" x2="87.09" y2="25.43" xlink:href="#Dégradé_sans_nom_7"></linearGradient>
    <linearGradient id="Dégradé_sans_nom_7-5" data-name="Dégradé sans nom 7" x1="41.47" y1="51.12" x2="55.12" y2="51.12" xlink:href="#Dégradé_sans_nom_7"></linearGradient>
    <linearGradient id="Dégradé_sans_nom_7-6" data-name="Dégradé sans nom 7" x1="-379.1" y1="13.23" x2="-365.45" y2="13.23" gradientTransform="translate(-3.04 -290.54) rotate(-95.76)" xlink:href="#Dégradé_sans_nom_7"></linearGradient>
    <linearGradient id="Dégradé_sans_nom_7-7" data-name="Dégradé sans nom 7" x1="-74.13" y1="-441.18" x2="-58.11" y2="-441.18" gradientTransform="translate(-303.14 -150.65) rotate(127.16)" xlink:href="#Dégradé_sans_nom_7"></linearGradient>
  </defs>
  <rect class="cls-3" x="-.5" y=".37" width="119.63" height="119.63"></rect>
  <circle class="cls-2" cx="19.68" cy="38.8" r="6.43"></circle>
  <circle class="cls-7" cx="86.43" cy="97.06" r="3.61"></circle>
  <circle class="cls-5" cx="33.85" cy="73.6" r="3.61"></circle>
  <circle class="cls-6" cx="77.86" cy="25.43" r="9.24"></circle>
  <polygon class="cls-8" points="53.98 56.66 46.37 43.98 41.47 48.52 55.12 58.26 53.98 56.66"></polygon>
  <polygon class="cls-9" points="52.41 72.32 40.56 81.16 45.57 85.58 53.89 71.02 52.41 72.32"></polygon>
  <polygon class="cls-4" points="79.59 65.12 97.07 67.02 96.29 59.1 76.17 63.97 79.59 65.12"></polygon>
  <g>
    <path class="cls-1" d="m61.14,59.15h-.01c-.78,0-1.45-.58-1.57-1.35l-4.82-30.51c-.09-.55.12-1.11.55-1.48.43-.36,1.02-.48,1.55-.3l9.63,3.21c.75.25,1.21,1.02,1.07,1.8l-4.82,27.29c-.14.77-.8,1.33-1.58,1.33Zm-2.82-29.75l2.91,18.41,2.91-16.47-5.81-1.94Z"></path>
    <path class="cls-1" d="m57.93,62.36c-.33,0-.66-.1-.94-.31l-17.66-12.84c-.45-.33-.7-.87-.66-1.43.05-.56.38-1.05.88-1.3l6.42-3.21c.71-.36,1.58-.14,2.03.52l11.24,16.06c.45.64.37,1.52-.19,2.07-.31.3-.72.46-1.13.46Zm-14.58-14.19l7.76,5.64-4.94-7.05-2.82,1.41Z"></path>
    <path class="cls-1" d="m24.21,70.39c-.41,0-.82-.16-1.14-.47-.63-.63-.63-1.64,0-2.27l8.03-8.03c.36-.36.86-.53,1.36-.45l22.48,3.21c.79.11,1.37.79,1.38,1.58,0,.8-.57,1.48-1.36,1.6l-20.87,3.21c-.87.13-1.7-.47-1.83-1.34s.47-1.7,1.34-1.83l10.18-1.56-10.97-1.57-7.46,7.46c-.31.31-.72.47-1.14.47Z"></path>
    <path class="cls-1" d="m46.69,86.44c-.2,0-.4-.04-.6-.11l-8.03-3.21c-.54-.22-.92-.71-.99-1.28s.16-1.15.63-1.49l19.27-14.45c.62-.46,1.48-.42,2.05.11.57.53.68,1.38.26,2.04l-11.24,17.66c-.3.48-.82.74-1.36.74Zm-4.78-5.25l4.14,1.66,5.8-9.11-9.93,7.45Z"></path>
    <path class="cls-1" d="m65.96,102.5c-.29,0-.57-.08-.83-.23l-8.03-4.82c-.76-.46-1.01-1.44-.55-2.2.45-.76,1.44-1.01,2.2-.55l5.08,3.05-2.51-15.9-.2,1.58c-.11.88-.92,1.5-1.79,1.39-.88-.11-1.5-.91-1.39-1.79l1.61-12.84c.1-.79.77-1.39,1.57-1.41.77-.04,1.49.56,1.61,1.35l4.82,30.51c.1.62-.17,1.23-.69,1.58-.27.18-.58.27-.9.27Z"></path>
    <path class="cls-1" d="m78.8,88.05c-.5,0-.98-.23-1.28-.64l-14.45-19.27c-.47-.63-.42-1.51.13-2.08.55-.57,1.43-.65,2.07-.2l16.06,11.24c.52.37.78,1.01.65,1.63l-1.61,8.03c-.12.62-.6,1.11-1.22,1.25-.12.03-.24.04-.36.04Zm-7.13-13.79l6.26,8.35.7-3.48-6.96-4.87Z"></path>
    <path class="cls-1" d="m98.07,70.39c-.08,0-.17,0-.25-.02l-30.51-4.82c-.78-.12-1.35-.79-1.35-1.59s.58-1.46,1.35-1.59l30.51-4.82c.47-.08.94.06,1.29.37.36.3.56.75.56,1.22v9.63c0,.47-.21.92-.56,1.22-.29.25-.66.39-1.04.39Zm-20.21-6.42l18.61,2.94v-5.88l-18.61,2.94Z"></path>
    <path class="cls-1" d="m64.35,62.36c-.41,0-.82-.16-1.14-.47-.57-.56-.63-1.46-.15-2.1l4.82-6.42c.53-.71,1.54-.85,2.25-.32.31.24.52.56.6.92l10.44-7.83-2.2-2.2-3.71,4.94c-.53.71-1.54.85-2.25.32-.71-.53-.85-1.54-.32-2.25l4.82-6.42c.28-.37.71-.61,1.17-.64.49-.04.92.14,1.25.47l4.82,4.82c.33.33.5.78.47,1.25-.03.46-.26.89-.64,1.17l-19.27,14.45c-.29.22-.62.32-.96.32Z"></path>
    <path class="cls-1" d="m41.07,38.28c-3.1,0-5.62-2.52-5.62-5.62s2.52-5.62,5.62-5.62,5.62,2.52,5.62,5.62-2.52,5.62-5.62,5.62Zm0-8.03c-1.33,0-2.41,1.08-2.41,2.41s1.08,2.41,2.41,2.41,2.41-1.08,2.41-2.41-1.08-2.41-2.41-2.41Z"></path>
    <path class="cls-1" d="m92.45,88.05c-3.1,0-5.62-2.52-5.62-5.62s2.52-5.62,5.62-5.62,5.62,2.52,5.62,5.62-2.52,5.62-5.62,5.62Zm0-8.03c-1.33,0-2.41,1.08-2.41,2.41s1.08,2.41,2.41,2.41,2.41-1.08,2.41-2.41-1.08-2.41-2.41-2.41Z"></path>
    <g>
      <path class="cls-1" d="m94.86,39.88c-.41,0-.82-.16-1.14-.47l-6.42-6.42c-.63-.63-.63-1.64,0-2.27.63-.63,1.64-.63,2.27,0l6.42,6.42c.63.63.63,1.64,0,2.27-.31.31-.72.47-1.14.47Z"></path>
      <path class="cls-1" d="m88.43,39.88c-.41,0-.82-.16-1.14-.47-.63-.63-.63-1.64,0-2.27l6.42-6.42c.63-.63,1.64-.63,2.27,0,.63.63.63,1.64,0,2.27l-6.42,6.42c-.31.31-.72.47-1.14.47Z"></path>
    </g>
    <g>
      <path class="cls-1" d="m24.21,94.47c-.89,0-1.61-.72-1.61-1.61s.72-1.61,1.61-1.61c3.54,0,6.42-2.88,6.42-6.42,0-.89.72-1.61,1.61-1.61s1.61.72,1.61,1.61c0,5.31-4.32,9.63-9.63,9.63Z"></path>
      <path class="cls-1" d="m32.24,102.5c-.89,0-1.61-.72-1.61-1.61,0-3.54-2.88-6.42-6.42-6.42-.89,0-1.61-.72-1.61-1.61s.72-1.61,1.61-1.61c5.31,0,9.63,4.32,9.63,9.63,0,.89-.72,1.61-1.61,1.61Z"></path>
      <path class="cls-1" d="m32.24,102.5c-.89,0-1.61-.72-1.61-1.61,0-5.31,4.32-9.63,9.63-9.63.89,0,1.61.72,1.61,1.61s-.72,1.61-1.61,1.61c-3.54,0-6.42,2.88-6.42,6.42,0,.89-.72,1.61-1.61,1.61Z"></path>
      <path class="cls-1" d="m40.27,94.47c-5.31,0-9.63-4.32-9.63-9.63,0-.89.72-1.61,1.61-1.61s1.61.72,1.61,1.61c0,3.54,2.88,6.42,6.42,6.42.89,0,1.61.72,1.61,1.61s-.72,1.61-1.61,1.61Z"></path>
    </g>
    <circle class="cls-1" cx="73.98" cy="92.87" r="1.61"></circle>
    <circle class="cls-1" cx="29.03" cy="49.52" r="1.61"></circle>
    <circle class="cls-1" cx="83.62" cy="54.33" r="1.61"></circle>
    <circle class="cls-1" cx="75.59" cy="31.85" r="1.61"></circle>
    <circle class="cls-1" cx="49.9" cy="94.47" r="1.61"></circle>
    <circle class="cls-1" cx="33.85" cy="73.6" r="1.61"></circle>
  </g>
</svg>
