<?xml version="1.0" encoding="UTF-8"?>
<svg xmlns="http://www.w3.org/2000/svg" xmlns:xlink="http://www.w3.org/1999/xlink" id="Calque_20" data-name="Calque 20" viewBox="0 0 120 120">
  <defs>
    <style>
      .cls-1 {
        stroke-linecap: round;
      }

      .cls-1, .cls-2, .cls-3 {
        fill: none;
        stroke: #fff;
        stroke-width: 3px;
      }

      .cls-1, .cls-2, .cls-4 {
        stroke-miterlimit: 10;
      }

      .cls-5, .cls-4 {
        fill: #d50f33;
      }

      .cls-3 {
        stroke-linejoin: round;
      }

      .cls-6 {
        fill: url(#Dégradé_sans_nom_7);
      }

      .cls-4 {
        stroke: #d50f33;
        stroke-width: 1.48px;
      }
    </style>
    <linearGradient id="Dégradé_sans_nom_7" data-name="Dégradé sans nom 7" x1="19.3" y1="66.17" x2="95.54" y2="66.17" gradientUnits="userSpaceOnUse">
      <stop offset="0" stop-color="#d49f49"></stop>
      <stop offset="1" stop-color="#fbf3b3"></stop>
    </linearGradient>
  </defs>
  <rect class="cls-4" x="0" width="120.71" height="120.71"></rect>
  <polygon class="cls-6" points="81.57 28.23 60.37 28.91 19.3 70.25 52.64 104.11 95.54 63.27 94.84 40.99 81.57 28.23"></polygon>
  <circle class="cls-5" cx="77.62" cy="46.24" r="5.57"></circle>
  <g>
    <path class="cls-2" d="m74.68,40.82c.6,1.49.66,2.77.08,3.72-2.25,3.7-13.23,1.14-24.52-5.71-11.29-6.86-18.62-15.42-16.37-19.12,2.04-3.36,11.26-1.57,21.38,3.91"></path>
    <path class="cls-3" d="m82.02,50.24c-2.43,2.43-6.37,2.43-8.8,0-2.43-2.43-2.43-6.37,0-8.8,2.43-2.43,6.37-2.43,8.79,0,2.43,2.43,2.43,6.37,0,8.8Z"></path>
    <polygon class="cls-3" points="95.18 41.72 81.75 28.29 60.71 27.93 18.39 70.25 53.22 105.08 95.54 62.76 95.18 41.72"></polygon>
    <g>
      <line class="cls-1" x1="69.66" y1="66.27" x2="39.12" y2="71.88"></line>
      <g>
        <path class="cls-1" d="m57.71,60.73c-1.69,1.69-4.43,1.69-6.12,0-1.69-1.69-1.69-4.43,0-6.12,1.69-1.69,4.43-1.69,6.12,0,1.69,1.69,1.69,4.43,0,6.12Z"></path>
        <path class="cls-1" d="m57.2,83.54c-1.69,1.69-4.43,1.69-6.13,0-1.69-1.69-1.69-4.43,0-6.13,1.69-1.69,4.43-1.69,6.12,0,1.7,1.7,1.7,4.44,0,6.13Z"></path>
      </g>
    </g>
  </g>
</svg>
