<?xml version="1.0" encoding="UTF-8"?>
<svg xmlns="http://www.w3.org/2000/svg" xmlns:xlink="http://www.w3.org/1999/xlink" id="Calque_27" data-name="Calque 27" viewBox="0 0 120 120">
  <defs>
    <style>
      .cls-1 {
        fill: #fff;
      }

      .cls-2 {
        fill: url(#Dégradé_sans_nom_7);
      }

      .cls-3 {
        fill: #d50f33;
        stroke: #d50f33;
        stroke-miterlimit: 10;
        stroke-width: 1.48px;
      }
    </style>
    <linearGradient id="Dégradé_sans_nom_7" data-name="Dégradé sans nom 7" x1="24.83" y1="88.28" x2="97.68" y2="88.28" gradientUnits="userSpaceOnUse">
      <stop offset="0" stop-color="#d49f49"></stop>
      <stop offset="1" stop-color="#fbf3b3"></stop>
    </linearGradient>
  </defs>
  <rect class="cls-3" x=".11" y="-.49" width="119.89" height="119.89"></rect>
  <path class="cls-1" d="m101.27,43.34c-3.32-15.29-21.14-27.27-40.57-27.27s-37.25,11.98-40.57,27.27c-.13.59.08,1.2.55,1.59.3.25.67.38,1.04.38.21,0,.42-.04.62-.12.05-.02,5.35-2.18,12.37-2.18s12.32,2.16,12.38,2.18c.4.16.85.16,1.24,0,.05-.02,4.55-1.85,10.75-2.14v29.59c0,.9.73,1.62,1.62,1.62s1.62-.73,1.62-1.62v-29.59c6.17.29,10.7,2.12,10.75,2.14.4.16.85.16,1.24,0,.05-.02,5.35-2.18,12.37-2.18s12.32,2.16,12.38,2.18c.56.23,1.2.13,1.66-.26.46-.39.67-1,.55-1.59Zm-40.57-3.58c-4.76,0-8.77.9-11.18,1.6.45-2.72,1.81-9.88,4.23-14.21,2.21-3.95,5.49-6.5,6.99-7.53,1.5,1.03,4.78,3.57,6.99,7.53,2.42,4.33,3.78,11.52,4.23,14.23-2.4-.71-6.43-1.63-11.25-1.63Zm-36.58,1.44c4.29-12,18.28-19.85,31.43-21.53-1.56,1.48-3.26,3.45-4.64,5.91-2.91,5.21-4.35,13.62-4.7,15.89-2.36-.72-6.5-1.7-11.5-1.7-4.39,0-8.15.77-10.6,1.44Zm62.57-1.44c-4.95,0-9.07.97-11.44,1.68-.35-2.3-1.8-10.68-4.7-15.87-1.37-2.46-3.07-4.42-4.63-5.9,13.13,1.69,27.08,9.54,31.36,21.52-2.45-.67-6.2-1.44-10.6-1.44Z"></path>
  <rect class="cls-2" x="24.83" y="73.45" width="72.85" height="29.66"></rect>
  <path class="cls-1" d="m90.19,71.73h-2.38c-.39-1.08-.95-2.09-1.77-2.86-1.1-1.05-2.54-1.76-4.14-1.96-.06,0-.12-.01-.17-.01h-.43v-1.06h1.96c.77,0,1.4-.63,1.4-1.4s-.63-1.4-1.4-1.4h-6.82c-.78,0-1.4.63-1.4,1.4s.63,1.4,1.4,1.4h2.06v1.06h-.82c-.06,0-.11,0-.17.01-1.6.2-3.03.91-4.14,1.96-.82.78-1.38,1.78-1.77,2.86h-13.94v-4.42c0-1.37-.54-2.67-1.5-3.64h0c-.03-.33-.15-.64-.39-.88-.26-.27-.62-.41-.99-.41h-.95s0-1.91,0-1.91c0-.77-.63-1.4-1.4-1.4s-1.4.63-1.4,1.4v1.91h-.9c-.73,0-1.31.57-1.37,1.29-1,.97-1.57,2.3-1.57,3.7v4.34h-1.12v-4.42c0-1.37-.54-2.67-1.5-3.64h0,0c-.03-.33-.15-.64-.39-.88-.26-.27-.62-.41-.99-.41h-1.01s0-1.91,0-1.91c0-.77-.63-1.4-1.4-1.4s-1.4.63-1.4,1.4v1.91h-.83c-.73,0-1.31.57-1.37,1.29-1,.97-1.57,2.3-1.57,3.7v4.34h-4.38m43.83-13.47h2.78m-18.87,0h2.77m-18.87,0h2.77m32.21,11.43h3.77c.97.13,1.85.56,2.52,1.2.26.24.45.54.64.83h-10.1c.2-.3.39-.59.64-.83.68-.64,1.56-1.07,2.53-1.2h0Zm-27.09-4.03h0c.14-.13.23-.31.33-.47h1.37s1.43,0,1.43,0c.09.14.16.29.28.41h0s.05.05.05.05h0c.44.44.69,1.04.69,1.67v4.42h-4.88v-4.34c0-.65.27-1.28.74-1.72h0Zm-11.6,0c.15-.13.23-.31.33-.47h1.3s1.49,0,1.49,0c.09.14.16.29.27.41h0s.05.05.05.05h0c.44.44.68,1.04.68,1.67v4.42h-4.88v-4.34c0-.65.27-1.28.74-1.72h0Zm56.04,8.87h.57v20.34h-17.36c-.77,0-1.4.63-1.4,1.4s.63,1.4,1.4,1.4h0s17.36,0,17.36,0v4.67H25.71v-4.67h43.34c.77,0,1.4-.63,1.4-1.4s-.63-1.4-1.4-1.4H25.71v-20.34h69.46Zm-66.76-2.8h-2.83c-.36,0-.72.07-1.04.21-.48.2-.88.54-1.17.97-.28.42-.46.94-.46,1.5v28.06c0,.37.08.72.21,1.04.2.48.54.88.97,1.17.42.29.95.46,1.49.46h70.28c.36,0,.72-.07,1.04-.21.48-.2.89-.54,1.17-.97.29-.42.46-.95.46-1.49v-28.06c0-.37-.07-.72-.21-1.04-.2-.48-.54-.88-.97-1.17-.43-.29-.95-.46-1.5-.46h-2.87"></path>
</svg>
