<?xml version="1.0" encoding="UTF-8"?>
<svg xmlns="http://www.w3.org/2000/svg" xmlns:xlink="http://www.w3.org/1999/xlink" id="Calque_16" data-name="Calque 16" viewBox="0 0 120 120">
  <defs>
    <style>
      .cls-1 {
        fill: #fff;
      }

      .cls-2 {
        fill: #d50f33;
        stroke: #d50f33;
        stroke-miterlimit: 10;
        stroke-width: 1.48px;
      }

      .cls-3 {
        fill: url(#Dégradé_sans_nom_7);
      }
    </style>
    <linearGradient id="Dégradé_sans_nom_7" data-name="Dégradé sans nom 7" x1="45.36" y1="61.88" x2="75.08" y2="61.88" gradientUnits="userSpaceOnUse">
      <stop offset="0" stop-color="#d49f49"></stop>
      <stop offset="1" stop-color="#fbf3b3"></stop>
    </linearGradient>
  </defs>
  <rect class="cls-2" x=".24" y=".24" width="119.51" height="119.51"></rect>
  <path class="cls-3" d="m60,43.3s-12.1,11.19-13,14.81-4.17,11.11,2.18,16.8c6.35,5.69,7.27,5.8,12.99,5.41s12.68-5.79,12.9-13.65c.22-7.86-15.07-23.38-15.07-23.38Z"></path>
  <g>
    <path class="cls-1" d="m21.23,43.55c6.92-14.38,21.36-24.07,37.37-24.58,14.78-.47,29.07,6.87,37.21,19.23,4.62,7.02,7.04,15.22,7.08,23.61,0,1.69,2.64,1.69,2.63,0-.08-15.67-8.25-30.45-21.6-38.72-13.97-8.66-32.12-8.98-46.4-.84-8.05,4.59-14.56,11.62-18.57,19.96-.73,1.52,1.54,2.85,2.27,1.33h0Z"></path>
    <path class="cls-1" d="m98.91,79.91c-6.85,14.4-21.23,24.16-37.23,24.75-14.86.55-29.25-6.79-37.44-19.22-4.62-7.02-7.04-15.22-7.08-23.61,0-1.69-2.64-1.69-2.63,0,.08,15.74,8.33,30.58,21.77,38.83,13.99,8.58,32.08,8.83,46.32.67,8.06-4.62,14.58-11.7,18.56-20.09.72-1.52-1.54-2.86-2.27-1.33h0Z"></path>
    <path class="cls-1" d="m35.19,39.27c1.33-1.45,2.77-2.78,4.31-3.99.56-.44.46-1.39,0-1.86-.54-.56-1.3-.44-1.86,0-1.54,1.22-2.98,2.55-4.31,3.99-1.14,1.24.71,3.11,1.86,1.86h0Z"></path>
    <path class="cls-1" d="m46.81,30.97c12.24-5.07,26.52-2.71,36.21,6.42,8.77,8.27,12.5,20.9,9.56,32.6-2.87,11.43-11.83,20.75-23.15,24.04-11.59,3.37-24.38.14-32.96-8.35-10.79-10.67-12.96-27.53-5.45-40.69.84-1.47-1.43-2.8-2.27-1.33-7.23,12.66-6.26,28.7,2.67,40.25,7.92,10.24,20.93,15.5,33.74,13.7,12.64-1.77,23.56-10.39,28.39-22.17,4.95-12.08,2.78-26.16-5.34-36.32-9.95-12.44-27.4-16.78-42.08-10.7-1.54.64-.87,3.18.7,2.53h0Z"></path>
    <path class="cls-1" d="m73.9,66.05c-.06,5.38-2.55,10.22-7.77,12.18-4.68,1.75-10.68,1.45-14.86-1.42-4.14-2.84-5.93-8.56-4.68-13.36,1.23-4.74,4.49-8.94,7.65-12.57,2.1-2.42,4.34-4.76,6.76-6.87h-1.86c2.59,2.27,4.99,4.79,7.22,7.41,3.38,3.98,7.45,9.15,7.54,14.63.03,1.69,2.66,1.7,2.63,0-.09-5.9-4.02-11.28-7.61-15.65-2.42-2.94-5.06-5.75-7.93-8.25-.56-.49-1.29-.49-1.86,0-2.5,2.19-4.82,4.62-6.99,7.14-3.5,4.07-7.2,8.87-8.27,14.25-1.11,5.6,1,11.83,5.64,15.23,4.6,3.37,11.28,3.93,16.62,2.23,6.73-2.14,10.32-8.06,10.39-14.95.02-1.69-2.61-1.69-2.63,0Z"></path>
    <path class="cls-1" d="m57.9,73.18c-3.25-.64-5.53-3.19-5.62-6.53-.05-1.69-2.67-1.7-2.63,0,.12,4.44,3.15,8.2,7.55,9.07,1.65.32,2.36-2.21.7-2.53h0Z"></path>
    <path class="cls-1" d="m104.92,64.92l4.23-6.35c.19-.28-.03-.65-.37-.62l-9.39.73c-.33.03-.49.43-.27.67l5.16,5.62c.18.19.49.17.63-.05Z"></path>
    <path class="cls-1" d="m15.54,56.75l-4.71,6c-.21.26-.02.65.32.65h9.42c.34,0,.52-.39.32-.65l-4.71-6c-.16-.21-.47-.21-.63,0Z"></path>
  </g>
</svg>
