<?xml version="1.0" encoding="UTF-8"?>
<svg xmlns="http://www.w3.org/2000/svg" xmlns:xlink="http://www.w3.org/1999/xlink" id="Calque_14" data-name="Calque 14" viewBox="0 0 120 120">
  <defs>
    <style>
      .cls-1 {
        fill: #fff;
      }

      .cls-2 {
        fill: url(#Dégradé_sans_nom_7);
      }

      .cls-3 {
        fill: #d50f33;
        stroke: #d50f33;
        stroke-miterlimit: 10;
        stroke-width: 1.48px;
      }

      .cls-4 {
        fill: url(#Dégradé_sans_nom_7-2);
      }
    </style>
    <linearGradient id="Dégradé_sans_nom_7" data-name="Dégradé sans nom 7" x1="28" y1="35.25" x2="91.32" y2="35.25" gradientUnits="userSpaceOnUse">
      <stop offset="0" stop-color="#d49f49"></stop>
      <stop offset="1" stop-color="#fbf3b3"></stop>
    </linearGradient>
    <linearGradient id="Dégradé_sans_nom_7-2" data-name="Dégradé sans nom 7" x1="33.44" y1="71.95" x2="88.11" y2="71.95" xlink:href="#Dégradé_sans_nom_7"></linearGradient>
  </defs>
  <rect class="cls-3" y="1.01" width="120" height="120"></rect>
  <g>
    <path class="cls-2" d="m28,39.88l63.02.25s2.26-8.27-5.58-9.31-50.88,0-50.88,0c0,0-6.72,2.01-6.56,9.05Z"></path>
    <path class="cls-4" d="m33.44,42.85h54.67l-5.13,49.72s-2.21,8.46-10.5,8.47c-8.29,0-32.27-1.34-32.27-1.34l-1.56-5.15"></path>
    <g>
      <path class="cls-1" d="m59.89,93.31c-1.02,0-1.84-.83-1.84-1.84v-42.52c0-1.02.83-1.84,1.84-1.84s1.84.83,1.84,1.84v42.52c0,1.02-.83,1.84-1.84,1.84Z"></path>
      <path class="cls-1" d="m70.8,93.31s-.1,0-.15,0c-1.02-.08-1.77-.97-1.69-1.98l3.37-42.52c.08-1.02.97-1.77,1.98-1.69,1.02.08,1.77.97,1.69,1.98l-3.37,42.52c-.08.97-.88,1.7-1.84,1.7Z"></path>
      <path class="cls-1" d="m48.97,93.31c-.95,0-1.76-.73-1.84-1.7l-3.37-42.52c-.08-1.02.68-1.9,1.69-1.98,1.02-.08,1.9.68,1.98,1.69l3.37,42.52c.08,1.02-.68,1.9-1.69,1.98-.05,0-.1,0-.15,0Z"></path>
      <g>
        <path class="cls-1" d="m51.29,27.34l.14-1.38c.21-1.99,1.87-3.48,3.86-3.48h9.19c2,0,3.66,1.5,3.86,3.48l.14,1.38h3.71s-.18-1.76-.18-1.76c-.4-3.87-3.64-6.79-7.53-6.79h-9.19c-3.89,0-7.13,2.92-7.53,6.79l-.18,1.76h3.71Z"></path>
        <path class="cls-1" d="m86.33,42.85l-5.88,51.28c-.34,2.93-2.81,5.13-5.75,5.13h-29.62c-2.94,0-5.42-2.21-5.75-5.13l-5.88-51.28h-3.71s5.93,51.7,5.93,51.7c.55,4.79,4.6,8.4,9.42,8.4h29.62c4.82,0,8.87-3.61,9.42-8.4l5.93-51.68h-.13s-3.59-.01-3.59-.01Z"></path>
        <path class="cls-1" d="m92.92,41.18H26.85v-4.59c0-4.18,3.4-7.57,7.57-7.57h27.31c5.85,0,23.62,0,23.62,0,4.18,0,7.57,3.4,7.57,7.57v4.59Zm-62.39-3.69h58.7v-.9c0-2.14-1.74-3.88-3.88-3.88h-25.18c-.1,0-.19,0-.29-.01h0s-25.47.01-25.47.01c-2.14,0-3.88,1.74-3.88,3.88v.9Z"></path>
      </g>
    </g>
  </g>
</svg>
