<?xml version="1.0" encoding="UTF-8"?>
<svg xmlns="http://www.w3.org/2000/svg" xmlns:xlink="http://www.w3.org/1999/xlink" id="Calque_15" data-name="Calque 15" viewBox="0 0 120 120">
  <defs>
    <style>
      .cls-1, .cls-2 {
        fill: #fff;
      }

      .cls-2 {
        stroke: #fff;
        stroke-width: .25px;
      }

      .cls-2, .cls-3 {
        stroke-miterlimit: 10;
      }

      .cls-4 {
        fill: url(#Dégradé_sans_nom_7);
      }

      .cls-3 {
        fill: #d50f33;
        stroke: #d50f33;
        stroke-width: 1.48px;
      }

      .cls-5 {
        fill: url(#Dégradé_sans_nom_7-3);
      }

      .cls-6 {
        fill: url(#Dégradé_sans_nom_7-2);
      }
    </style>
    <linearGradient id="Dégradé_sans_nom_7" data-name="Dégradé sans nom 7" x1="70" y1="92.08" x2="80.27" y2="92.08" gradientUnits="userSpaceOnUse">
      <stop offset="0" stop-color="#d49f49"></stop>
      <stop offset="1" stop-color="#fbf3b3"></stop>
    </linearGradient>
    <linearGradient id="Dégradé_sans_nom_7-2" data-name="Dégradé sans nom 7" x1="68.76" y1="67.45" x2="111.21" y2="67.45" xlink:href="#Dégradé_sans_nom_7"></linearGradient>
    <linearGradient id="Dégradé_sans_nom_7-3" data-name="Dégradé sans nom 7" x1="72.41" y1="92.05" x2="109.06" y2="92.05" xlink:href="#Dégradé_sans_nom_7"></linearGradient>
  </defs>
  <rect class="cls-3" x="1.26" y=".69" width="118.74" height="118.74"></rect>
  <path class="cls-4" d="m80.27,111.56s-4.9,1.09-5.44-6.17-4.82-32.84-4.82-32.84"></path>
  <g>
    <path class="cls-2" d="m33.27,42.43c-.27,0-.49-.22-.49-.49v-16.65c0-.88-.58-1.63-1.26-1.63s-1.26.75-1.26,1.63v16.65c0,.27-.22.49-.49.49s-.49-.22-.49-.49v-16.65c0-1.44,1-2.6,2.24-2.6s2.24,1.17,2.24,2.6v16.65c0,.27-.22.49-.49.49Z"></path>
    <path class="cls-2" d="m46.57,42.43c-.27,0-.49-.22-.49-.49v-16.65c0-.88-.58-1.63-1.26-1.63s-1.26.75-1.26,1.63v16.65c0,.27-.22.49-.49.49s-.49-.22-.49-.49v-16.65c0-1.44,1-2.6,2.24-2.6s2.24,1.17,2.24,2.6v16.65c0,.27-.22.49-.49.49Z"></path>
    <path class="cls-2" d="m79.78,42.43c-.27,0-.49-.22-.49-.49v-16.65c0-.88-.58-1.63-1.26-1.63s-1.26.75-1.26,1.63v16.65c0,.27-.22.49-.49.49s-.49-.22-.49-.49v-16.65c0-1.44,1-2.6,2.24-2.6s2.24,1.17,2.24,2.6v16.65c0,.27-.22.49-.49.49Z"></path>
    <path class="cls-2" d="m93.09,42.43c-.27,0-.49-.22-.49-.49v-16.65c0-.88-.58-1.63-1.26-1.63s-1.26.75-1.26,1.63v16.65c0,.27-.22.49-.49.49s-.49-.22-.49-.49v-16.65c0-1.44,1-2.6,2.24-2.6s2.24,1.17,2.24,2.6v16.65c0,.27-.22.49-.49.49Z"></path>
    <g>
      <path class="cls-2" d="m73.16,96.97h21.94l.06-22.75c0-.27.22-.49.49-.49h0c.27,0,.49.22.49.49l-.06,23.23c0,.27-.22.49-.49.49h-22.92c-.27,0-.49-.22-.49-.49"></path>
      <path class="cls-2" d="m72.19,61.87V23.51c0-.27.22-.49.49-.49s.49.22.49.49v38.41"></path>
    </g>
    <path class="cls-2" d="m95.58,55h0c-.27,0-.49-.22-.49-.49l.08-31v-2.45h-1.21c-.27,0-.49-.22-.49-.49v-2.86h-4.31v2.86c0,.27-.22.49-.49.49s-.49-.22-.49-.49v-3.35c0-.27.22-.49.49-.49h5.28c.27,0,.49.22.49.49v2.86h1.21c.27,0,.49.22.49.49v2.94l-.08,31c0,.27-.22.49-.49.49Z"></path>
    <path class="cls-2" d="m27.33,59.25c-.27,0-.49-.22-.49-.49V23.51c0-.27.22-.49.49-.49s.49.22.49.49v35.26c0,.27-.22.49-.49.49Z"></path>
    <path class="cls-2" d="m49.72,97.95h-22.39c-.27,0-.49-.22-.49-.49v-35.05c0-.27.22-.49.49-.49s.49.22.49.49v34.56h21.41l.15-73.46c0-.27.22-.49.49-.49h0c.27,0,.49.22.49.49l-.16,73.95c0,.27-.22.49-.49.49Z"></path>
    <path class="cls-2" d="m72.67,53.17h-22.39c-.27,0-.49-.22-.49-.49s.22-.49.49-.49h22.39c.27,0,.49.22.49.49s-.22.49-.49.49Z"></path>
    <path class="cls-2" d="m49.87,46.13h-2.09c-.16,0-.29-.13-.29-.29v-.52c0-.81-.35-1.44-.65-1.44s-.65.63-.65,1.44v.48c0,.16-.13.29-.28.29l-1.46.04c-.08,0-.16-.03-.21-.08s-.09-.13-.09-.21v-.52c0-.81-.35-1.44-.65-1.44s-.65.63-.65,1.44v.52c0,.16-.13.29-.29.29h-1.41c-.16,0-.29-.13-.29-.29v-.47c0-.91-.39-1.49-.65-1.49s-.65.58-.65,1.49v.47c0,.16-.13.29-.29.29h-1.53c-.16,0-.29-.13-.29-.29v-.47c0-.91-.39-1.49-.65-1.49s-.65.58-.65,1.49v.47c0,.16-.13.29-.29.29h-1.29c-.16,0-.29-.13-.29-.29v-.52c0-.81-.35-1.44-.65-1.44s-.65.63-.65,1.44v.5c0,.16-.13.29-.29.29l-1.53.02c-.08,0-.15-.03-.21-.08-.06-.05-.09-.13-.09-.21v-.41c0-.95-.39-1.56-.65-1.56s-.65.61-.65,1.56v.41c0,.16-.13.29-.29.29h-1.93c-.16,0-.29-.13-.29-.29s.13-.29.29-.29h1.64v-.12c0-1.22.53-2.14,1.24-2.14s1.24.92,1.24,2.14v.11h.94v-.23c0-1.14.54-2.03,1.24-2.03s1.24.89,1.24,2.03v.23h.7v-.18c0-1.17.54-2.08,1.24-2.08s1.24.91,1.24,2.08v.18h.94v-.18c0-1.17.54-2.08,1.24-2.08s1.24.91,1.24,2.08v.18h.82v-.23c0-1.14.54-2.03,1.24-2.03s1.24.89,1.24,2.03v.22l.87-.02v-.2c0-1.14.54-2.03,1.24-2.03s1.24.89,1.24,2.03v.23h1.8c.16,0,.29.13.29.29s-.13.29-.29.29Z"></path>
    <path class="cls-2" d="m95.58,46.13h-2.45c-.16,0-.29-.13-.29-.29v-.52c0-.81-.35-1.44-.65-1.44s-.65.63-.65,1.44v.48c0,.16-.13.29-.28.29l-1.46.04c-.08,0-.16-.03-.21-.08-.06-.06-.09-.13-.09-.21v-.52c0-.81-.35-1.44-.65-1.44s-.65.63-.65,1.44v.52c0,.16-.13.29-.29.29h-1.41c-.16,0-.29-.13-.29-.29v-.47c0-.91-.39-1.49-.65-1.49s-.65.58-.65,1.49v.47c0,.16-.13.29-.29.29h-1.53c-.16,0-.29-.13-.29-.29v-.47c0-.91-.39-1.49-.65-1.49s-.65.58-.65,1.49v.47c0,.16-.13.29-.29.29h-1.29c-.16,0-.29-.13-.29-.29v-.52c0-.81-.35-1.44-.65-1.44s-.65.63-.65,1.44v.5c0,.16-.13.29-.29.29l-1.53.02c-.08,0-.15-.03-.21-.08-.06-.05-.09-.13-.09-.21v-.41c0-.95-.39-1.56-.65-1.56s-.65.61-.65,1.56v.41c0,.16-.13.29-.29.29h-1.93c-.16,0-.29-.13-.29-.29s.13-.29.29-.29h1.64v-.12c0-1.22.53-2.14,1.24-2.14s1.24.92,1.24,2.14v.11h.94v-.23c0-1.14.54-2.03,1.24-2.03s1.24.89,1.24,2.03v.23h.7v-.18c0-1.17.54-2.08,1.24-2.08s1.24.91,1.24,2.08v.18h.94v-.18c0-1.17.54-2.08,1.24-2.08s1.24.91,1.24,2.08v.18h.82v-.23c0-1.14.54-2.03,1.24-2.03s1.24.89,1.24,2.03v.22l.87-.02v-.2c0-1.14.54-2.03,1.24-2.03s1.24.89,1.24,2.03v.23h2.16c.16,0,.29.13.29.29s-.13.29-.29.29Z"></path>
    <path class="cls-2" d="m72.67,97.97h-22.96c-.27,0-.49-.22-.49-.49s.22-.49.49-.49h22.96c.27,0,.49.22.49.49s-.22.49-.49.49Z"></path>
    <path class="cls-2" d="m42.92,75.4h-20.05c-.27,0-.49-.22-.49-.49s.22-.49.49-.49h20.05c.27,0,.49.22.49.49s-.22.49-.49.49Z"></path>
    <path class="cls-2" d="m97.96,75.36h-21.02c-.27,0-.49-.22-.49-.49s.22-.49.49-.49h21.02c.27,0,.49.22.49.49s-.22.49-.49.49Z"></path>
    <path class="cls-2" d="m69.45,42.43h-19.36c-.27,0-.49-.22-.49-.49s.22-.49.49-.49h19.36c.27,0,.49.22.49.49s-.22.49-.49.49Z"></path>
    <path class="cls-2" d="m72.67,43.96h-20.23c-.27,0-.49-.22-.49-.49s.22-.49.49-.49h20.23c.27,0,.49.22.49.49s-.22.49-.49.49Z"></path>
    <path class="cls-2" d="m61.44,35.63c-.27,0-.49-.22-.49-.49v-6c0-.27.22-.49.49-.49s.49.22.49.49v6c0,.27-.22.49-.49.49Z"></path>
    <path class="cls-2" d="m63.18,31.14h-3.58c-.27,0-.49-.22-.49-.49s.22-.49.49-.49h3.58c.27,0,.49.22.49.49s-.22.49-.49.49Z"></path>
    <path class="cls-2" d="m53.36,97.99c-.27,0-.49-.22-.49-.49v-5.05c0-.79.05-1.59.14-2.39,0-.01,0-.03,0-.04v-.1c.08-.5.16-1.01.27-1.51.63-3.31,2.66-11.58,7.87-16.63.19-.18.49-.18.68,0,5.21,5.05,7.24,13.31,7.87,16.63.1.49.19,1,.25,1.51v.1s.02.03.02.04c.09.79.14,1.6.14,2.38v4.98c0,.27-.22.49-.49.49s-.49-.22-.49-.49v-4.98c0-.76-.05-1.54-.14-2.31,0-.01,0-.02,0-.03v-.05c-.07-.49-.15-.97-.25-1.44-.6-3.16-2.49-10.91-7.25-15.79-4.76,4.88-6.65,12.62-7.25,15.78-.1.48-.18.97-.24,1.45v.06s0,.02-.01.03c-.09.77-.14,1.55-.14,2.31v5.05c0,.27-.22.49-.49.49Z"></path>
    <path class="cls-2" d="m55.15,97.79c-.16,0-.29-.13-.29-.29v-3.93c0-.61.04-1.24.11-1.85,0,0,0-.02,0-.03v-.08c.06-.39.13-.78.21-1.17.49-2.57,2.06-9,6.11-12.91.11-.11.29-.11.41,0,4.04,3.92,5.62,10.34,6.11,12.92.08.38.15.78.19,1.17v.08s.01.02.01.03c.07.62.11,1.24.11,1.85v3.88c0,.16-.13.29-.29.29s-.29-.13-.29-.29v-3.88c0-.6-.04-1.21-.11-1.81,0,0,0-.02,0-.02v-.05c-.05-.38-.12-.76-.19-1.13-.47-2.49-1.96-8.6-5.74-12.41-3.77,3.82-5.27,9.93-5.74,12.41-.08.38-.14.75-.19,1.13v.05s0,.02,0,.02c-.07.6-.11,1.21-.11,1.81v3.93c0,.16-.13.29-.29.29Z"></path>
    <path class="cls-2" d="m40.95,42.54c-.27,0-.49-.22-.49-.49v-15.88c0-.24-.02-.49-.05-.74,0,0,0-.01,0-.02h0c-.02-.16-.05-.32-.08-.47-.19-.99-.76-3.33-2.15-4.91-1.39,1.59-1.96,3.92-2.15,4.9-.03.16-.06.31-.08.47h0s0,.02,0,.03c-.03.25-.05.49-.05.74v15.78c0,.27-.22.49-.49.49s-.49-.22-.49-.49v-15.78c0-.28.02-.56.05-.83,0,0,0-.02,0-.03v-.04c.03-.17.06-.35.09-.53.22-1.14.93-4,2.77-5.77.19-.18.49-.18.67,0,1.84,1.76,2.55,4.63,2.77,5.78.04.17.07.35.09.53v.03s0,.02,0,.03c.03.28.05.56.05.83v15.88c0,.27-.22.49-.49.49Z"></path>
    <path class="cls-2" d="m31.62,97.99c-.27,0-.49-.22-.49-.49v-4.29c0-.67.04-1.36.12-2.03,0-.01,0-.03,0-.04v-.09c.07-.43.14-.86.23-1.29.54-2.82,2.29-9.87,6.78-14.17.19-.18.49-.18.68,0,4.49,4.3,6.24,11.35,6.78,14.18.09.42.16.85.22,1.28v.08s.01.03.01.04c.08.68.12,1.36.12,2.03v4.23c0,.27-.22.49-.49.49s-.49-.22-.49-.49v-4.23c0-.65-.04-1.3-.12-1.95,0-.01,0-.02,0-.03v-.04c-.06-.41-.13-.82-.21-1.22-.51-2.67-2.12-9.2-6.16-13.33-4.04,4.14-5.65,10.66-6.16,13.32-.09.41-.15.82-.21,1.22v.05s0,.02,0,.03c-.08.65-.12,1.31-.12,1.95v4.29c0,.27-.22.49-.49.49Z"></path>
    <path class="cls-2" d="m33.11,97.57c-.16,0-.29-.13-.29-.29v-3.33c0-.52.03-1.05.09-1.57,0,0,0-.02,0-.02v-.07c.05-.33.11-.67.18-.99.42-2.18,1.77-7.63,5.24-10.96.11-.11.29-.11.4,0,3.47,3.32,4.82,8.77,5.24,10.96.07.32.12.66.17.99v.06s.01.02.01.03c.06.52.09,1.05.09,1.57v3.29c0,.16-.13.29-.29.29s-.29-.13-.29-.29v-3.29c0-.5-.03-1.02-.09-1.53,0,0,0-.01,0-.02v-.04c-.05-.32-.1-.64-.17-.95-.4-2.1-1.67-7.23-4.87-10.46-3.2,3.22-4.47,8.36-4.87,10.45-.07.32-.12.64-.16.96v.04s0,.01,0,.02c-.06.51-.09,1.02-.09,1.53v3.33c0,.16-.13.29-.29.29Z"></path>
    <path class="cls-2" d="m79,97.57c-.16,0-.29-.13-.29-.29v-3.33c0-.52.03-1.05.09-1.57,0,0,0-.02,0-.03v-.07c.05-.33.11-.67.18-.99.42-2.18,1.77-7.63,5.24-10.96.11-.11.29-.11.4,0,3.47,3.32,4.82,8.77,5.24,10.96.07.32.12.66.17.99v.06s.01.02.01.03c.06.52.09,1.05.09,1.57v3.29c0,.16-.13.29-.29.29s-.29-.13-.29-.29v-3.29c0-.5-.03-1.02-.09-1.53,0,0,0-.02,0-.02v-.04c-.05-.32-.1-.64-.17-.95-.4-2.1-1.67-7.23-4.87-10.46-3.2,3.22-4.47,8.36-4.87,10.45-.07.32-.12.64-.16.96v.04s0,.01,0,.02c-.06.51-.09,1.02-.09,1.53v3.33c0,.16-.13.29-.29.29Z"></path>
    <path class="cls-2" d="m77.44,97.99c-.27,0-.49-.22-.49-.49v-4.29c0-.67.04-1.36.12-2.03,0-.01,0-.03,0-.04v-.09c.07-.43.14-.86.23-1.29.54-2.82,2.29-9.87,6.78-14.17.19-.18.49-.18.67,0,4.49,4.3,6.24,11.35,6.78,14.18.09.42.16.85.22,1.28v.08s.01.02.01.04c.08.68.12,1.36.12,2.03v4.23c0,.27-.22.49-.49.49s-.49-.22-.49-.49v-4.23c0-.64-.04-1.3-.12-1.95,0-.01,0-.02,0-.03v-.04c-.06-.41-.13-.82-.21-1.22-.51-2.67-2.12-9.2-6.16-13.33-4.04,4.14-5.65,10.66-6.16,13.32-.09.41-.15.82-.21,1.22v.05s0,.02,0,.03c-.08.65-.12,1.31-.12,1.95v4.29c0,.27-.22.49-.49.49Z"></path>
    <path class="cls-2" d="m45.68,42.43h-24.25c-.27,0-.49-.22-.49-.49s.22-.49.49-.49h24.25c.27,0,.49.22.49.49s-.22.49-.49.49Z"></path>
    <path class="cls-2" d="m101.42,42.43h-24.25c-.27,0-.49-.22-.49-.49s.22-.49.49-.49h24.25c.27,0,.49.22.49.49s-.22.49-.49.49Z"></path>
    <path class="cls-2" d="m27.33,24c-.27,0-.49-.22-.49-.49v-2.94c0-.27.22-.49.49-.49h1.13v-2.86c0-.27.22-.49.49-.49h5.28c.27,0,.49.22.49.49v3.35c0,.27-.22.49-.49.49s-.49-.22-.49-.49v-2.86h-4.31v2.86c0,.27-.22.49-.49.49h-1.13v2.45c0,.27-.22.49-.49.49Z"></path>
    <path class="cls-2" d="m47.46,21.06c-.27,0-.49-.22-.49-.49v-2.86h-4.31v2.86c0,.27-.22.49-.49.49s-.49-.22-.49-.49v-3.35c0-.27.22-.49.49-.49h5.28c.27,0,.49.22.49.49v3.35c0,.27-.22.49-.49.49Z"></path>
    <path class="cls-2" d="m81.26,21.06c-.27,0-.49-.22-.49-.49v-2.86h-4.31v2.86c0,.27-.22.49-.49.49s-.49-.22-.49-.49v-3.35c0-.27.22-.49.49-.49h5.28c.27,0,.49.22.49.49v3.35c0,.27-.22.49-.49.49Z"></path>
    <path class="cls-2" d="m62.89,42.43s0,0,0,0h-2.62c-.14,0-.28-.06-.37-.17-.09-.11-.13-.26-.11-.4l1.18-6.8c.04-.23.24-.4.47-.4.23-.01.44.16.49.39l1.42,6.74c.02.05.03.1.03.16,0,.27-.22.49-.49.49Zm-2.04-.98h1.44l-.79-3.73-.65,3.73Z"></path>
    <path class="cls-2" d="m87.45,42.54c-.27,0-.49-.22-.49-.49v-15.88c0-.24-.02-.49-.05-.74,0,0,0-.01,0-.02h0c-.02-.16-.05-.32-.08-.47-.19-.99-.76-3.33-2.15-4.91-1.39,1.59-1.96,3.92-2.15,4.9-.03.16-.06.31-.08.47h0s0,.02,0,.03c-.03.25-.05.49-.05.74v15.78c0,.27-.22.49-.49.49s-.49-.22-.49-.49v-15.78c0-.28.02-.56.05-.83,0,0,0-.02,0-.03v-.04c.03-.17.06-.35.09-.53.22-1.14.93-4,2.77-5.77.19-.18.49-.18.67,0,1.84,1.76,2.55,4.63,2.77,5.78.04.17.07.35.09.53v.03s0,.02,0,.03c.03.28.05.56.05.83v15.88c0,.27-.22.49-.49.49Z"></path>
    <path class="cls-2" d="m27.33,97.95h-6.45c-.27,0-.49-.22-.49-.49v-14.98c0-.27.22-.49.49-.49h6.45c.27,0,.49.22.49.49s-.22.49-.49.49h-5.96v14h5.96c.27,0,.49.22.49.49s-.22.49-.49.49Z"></path>
    <path class="cls-2" d="m102.25,97.95h-6.45c-.27,0-.49-.22-.49-.49s.22-.49.49-.49h5.96v-14h-5.96c-.27,0-.49-.22-.49-.49s.22-.49.49-.49h6.45c.27,0,.49.22.49.49v14.98c0,.27-.22.49-.49.49Z"></path>
    <path class="cls-2" d="m106.64,82.97h-8.1c-.27,0-.49-.22-.49-.49s.22-.49.49-.49h8.1c.27,0,.49.22.49.49s-.22.49-.49.49Z"></path>
    <path class="cls-2" d="m22.87,82.97h-6.18c-.27,0-.49-.22-.49-.49s.22-.49.49-.49h6.18c.27,0,.49.22.49.49s-.22.49-.49.49Z"></path>
    <path class="cls-2" d="m38.18,19.61c-.16,0-.29-.13-.29-.29v-4.19c0-.16.13-.29.29-.29s.29.13.29.29v4.19c0,.16-.13.29-.29.29Z"></path>
    <path class="cls-2" d="m84.69,19.81c-.27,0-.49-.22-.49-.49v-3.77c0-.27.22-.49.49-.49s.49.22.49.49v3.77c0,.27-.22.49-.49.49Z"></path>
  </g>
  <g>
    <path class="cls-6" d="m68.76,70.56l42.24.17s1.52-5.54-3.74-6.24-34.11,0-34.11,0c0,0-4.51,1.35-4.4,6.07Z"></path>
    <path class="cls-5" d="m72.41,72.55h36.65l-3.44,33.33s-1.48,5.67-7.04,5.68c-5.56,0-21.63-.9-21.63-.9l-1.04-3.45"></path>
    <g>
      <path class="cls-1" d="m90.14,106.37c-.68,0-1.24-.55-1.24-1.24v-28.5c0-.68.55-1.24,1.24-1.24s1.24.55,1.24,1.24v28.5c0,.68-.55,1.24-1.24,1.24Z"></path>
      <path class="cls-1" d="m97.45,106.37s-.07,0-.1,0c-.68-.05-1.19-.65-1.13-1.33l2.26-28.5c.05-.68.65-1.19,1.33-1.13.68.05,1.19.65,1.13,1.33l-2.26,28.5c-.05.65-.59,1.14-1.23,1.14Z"></path>
      <path class="cls-1" d="m82.82,106.37c-.64,0-1.18-.49-1.23-1.14l-2.26-28.5c-.05-.68.45-1.28,1.13-1.33.68-.05,1.28.45,1.33,1.13l2.26,28.5c.05.68-.45,1.28-1.13,1.33-.03,0-.07,0-.1,0Z"></path>
      <g>
        <path class="cls-1" d="m84.37,62.15l.1-.93c.14-1.33,1.25-2.33,2.59-2.33h6.16c1.34,0,2.45,1,2.59,2.33l.1.93h2.49s-.12-1.18-.12-1.18c-.27-2.6-2.44-4.55-5.05-4.55h-6.16c-2.61,0-4.78,1.96-5.05,4.55l-.12,1.18h2.49Z"></path>
        <path class="cls-1" d="m107.87,72.55l-3.94,34.37c-.23,1.96-1.88,3.44-3.86,3.44h-19.86c-1.97,0-3.63-1.48-3.86-3.44l-3.94-34.37h-2.49s3.97,34.66,3.97,34.66c.37,3.21,3.08,5.63,6.31,5.63h19.86c3.23,0,5.95-2.42,6.31-5.63l3.97-34.65h-.08s-2.4,0-2.4,0Z"></path>
        <path class="cls-1" d="m112.28,71.42h-44.29v-3.08c0-2.8,2.28-5.08,5.08-5.08h18.31c3.92,0,15.84,0,15.84,0,2.8,0,5.08,2.28,5.08,5.08v3.08Zm-41.82-2.47h39.35v-.6c0-1.44-1.17-2.6-2.6-2.6h-16.88c-.07,0-.13,0-.19,0h0s-17.07,0-17.07,0c-1.44,0-2.6,1.17-2.6,2.6v.6Z"></path>
      </g>
    </g>
  </g>
</svg>
