<?xml version="1.0" encoding="UTF-8"?>
<svg xmlns="http://www.w3.org/2000/svg" xmlns:xlink="http://www.w3.org/1999/xlink" id="Calque_25" data-name="Calque 25" viewBox="0 0 120 120">
  <defs>
    <style>
      .cls-1 {
        fill: none;
      }

      .cls-2 {
        fill: #fff;
      }

      .cls-3 {
        fill: url(#Dégradé_sans_nom_7);
      }

      .cls-4 {
        fill: #d50f33;
        stroke: #d50f33;
        stroke-miterlimit: 10;
        stroke-width: 1.48px;
      }

      .cls-5 {
        fill: url(#Dégradé_sans_nom_7-3);
      }

      .cls-6 {
        fill: url(#Dégradé_sans_nom_7-4);
      }

      .cls-7 {
        fill: url(#Dégradé_sans_nom_7-2);
      }
    </style>
    <linearGradient id="Dégradé_sans_nom_7" data-name="Dégradé sans nom 7" x1="34.33" y1="80.38" x2="51.36" y2="80.38" gradientUnits="userSpaceOnUse">
      <stop offset="0" stop-color="#d49f49"></stop>
      <stop offset="1" stop-color="#fbf3b3"></stop>
    </linearGradient>
    <linearGradient id="Dégradé_sans_nom_7-2" data-name="Dégradé sans nom 7" x1="78.45" x2="95.48" xlink:href="#Dégradé_sans_nom_7"></linearGradient>
    <linearGradient id="Dégradé_sans_nom_7-3" data-name="Dégradé sans nom 7" x1="79.24" y1="80.38" x2="94.8" y2="80.38" xlink:href="#Dégradé_sans_nom_7"></linearGradient>
    <linearGradient id="Dégradé_sans_nom_7-4" data-name="Dégradé sans nom 7" x1="35.12" y1="80.38" x2="50.68" y2="80.38" xlink:href="#Dégradé_sans_nom_7"></linearGradient>
  </defs>
  <rect class="cls-4" x=".48" y="1.01" width="119.52" height="119.52"></rect>
  <circle class="cls-3" cx="42.84" cy="80.38" r="8.52"></circle>
  <circle class="cls-7" cx="86.96" cy="80.38" r="8.52"></circle>
  <path class="cls-2" d="m103.02,82.52h-14.89v-2.39h14.89c1.45,0,2.63-1.18,2.63-2.63v-8.13l-6.93-9.79c-1.32-1.87-3.47-2.98-5.76-2.98h-4.08v-2.39h4.08c3.06,0,5.94,1.49,7.71,3.99l7.15,10.1c.14.2.22.44.22.69v8.51c0,2.77-2.25,5.02-5.02,5.02Z"></path>
  <g>
    <path class="cls-1" d="m86.71,59.18h4.04c2.56,0,4.98,1.19,6.54,3.22l4.34,5.64h-8.34s-6.58-8.86-6.58-8.86Z"></path>
    <path class="cls-2" d="m93.29,69.23v-2.39s5.92,0,5.92,0l-2.87-3.72c-1.33-1.72-3.42-2.75-5.59-2.75h-2.62v-2.39h2.62c2.91,0,5.71,1.38,7.48,3.68l4.34,5.64c.28.36.33.85.13,1.25-.2.41-.62.67-1.07.67h-8.34Z"></path>
  </g>
  <path class="cls-2" d="m88.99,82.52h-56.8c-1.42,0-2.58-1.16-2.58-2.58v-8.58h2.39v8.58c0,.11.09.19.19.19h55.61v-35.4c0-.11-.09-.19-.19-.19h-55.41c-.11,0-.19.09-.19.19v16.2h-2.39v-16.2c0-1.42,1.16-2.58,2.58-2.58h55.41c1.42,0,2.58,1.16,2.58,2.58v36.59c0,.66-.53,1.19-1.19,1.19Z"></path>
  <g>
    <circle class="cls-5" cx="87.02" cy="80.38" r="7.78"></circle>
    <path class="cls-2" d="m87.02,89.36c-4.95,0-8.97-4.03-8.97-8.97s4.03-8.97,8.97-8.97,8.97,4.03,8.97,8.97-4.03,8.97-8.97,8.97Zm0-15.56c-3.63,0-6.59,2.95-6.59,6.59s2.95,6.59,6.59,6.59,6.59-2.95,6.59-6.59-2.95-6.59-6.59-6.59Z"></path>
  </g>
  <path class="cls-2" d="m87.02,84.4c-2.21,0-4.01-1.8-4.01-4.01s1.8-4.01,4.01-4.01,4.01,1.8,4.01,4.01-1.8,4.01-4.01,4.01Zm0-5.64c-.9,0-1.62.73-1.62,1.62s.73,1.62,1.62,1.62,1.62-.73,1.62-1.62-.73-1.62-1.62-1.62Z"></path>
  <g>
    <circle class="cls-6" cx="42.9" cy="80.38" r="7.78"></circle>
    <path class="cls-2" d="m42.9,89.36c-4.95,0-8.97-4.03-8.97-8.97s4.03-8.97,8.97-8.97,8.97,4.03,8.97,8.97-4.03,8.97-8.97,8.97Zm0-15.56c-3.63,0-6.59,2.95-6.59,6.59s2.95,6.59,6.59,6.59,6.59-2.95,6.59-6.59-2.95-6.59-6.59-6.59Z"></path>
  </g>
  <path class="cls-2" d="m42.9,84.4c-2.21,0-4.01-1.8-4.01-4.01s1.8-4.01,4.01-4.01,4.01,1.8,4.01,4.01-1.8,4.01-4.01,4.01Zm0-5.64c-.9,0-1.62.73-1.62,1.62s.73,1.62,1.62,1.62,1.62-.73,1.62-1.62-.73-1.62-1.62-1.62Z"></path>
  <rect class="cls-2" x="24.07" y="57.26" width="2.39" height="2.39"></rect>
  <rect class="cls-2" x="17.2" y="57.26" width="4.72" height="2.39"></rect>
  <rect class="cls-2" x="7.74" y="67.17" width="23.07" height="2.39"></rect>
  <rect class="cls-2" x="19.09" y="72.03" width="7.66" height="2.39"></rect>
  <rect class="cls-2" x="10.4" y="50.37" width="20.19" height="2.39"></rect>
  <g>
    <path class="cls-2" d="m60.13,74.48h-4.17c-.27,0-.52-.11-.7-.31-.18-.2-.28-.46-.26-.72l.85-12.68h-.46c-1.17,0-2.12-.97-2.12-2.17v-9.97h1.93v9.97c0,.13.09.24.19.24h1.49c.27,0,.52.11.7.31.18.2.28.46.26.72l-.85,12.68h2.11l-.85-12.68c-.02-.27.08-.53.26-.72.18-.19.44-.31.7-.31h1.49c.1,0,.19-.11.19-.24v-9.97h1.93v9.97c0,1.2-.95,2.17-2.12,2.17h-.46l.85,12.68c.02.27-.08.53-.26.72-.18.19-.44.31-.7.31Z"></path>
    <rect class="cls-2" x="55.94" y="48.63" width="1.93" height="7.78"></rect>
    <rect class="cls-2" x="58.39" y="48.63" width="1.93" height="7.78"></rect>
  </g>
  <path class="cls-2" d="m70.75,74.48h-3.79c-.53,0-.96-.43-.96-.96v-25.13c0-.3.14-.57.37-.76.23-.18.54-.25.82-.18l.48.12c2.51.61,4.34,2.61,4.54,4.97l1.01,10.89c.02.26-.06.53-.24.73s-.42.32-.69.33l-1.61.06,1.02,8.86c.03.27-.06.55-.24.75-.18.21-.44.32-.72.32Zm-2.82-1.93h1.74l-1.02-8.82c-.03-.27.05-.53.23-.74.17-.2.43-.33.7-.34l1.63-.06-.92-9.89c-.11-1.32-1.03-2.47-2.36-3.04v22.88Z"></path>
</svg>
