<?xml version="1.0" encoding="UTF-8"?>
<svg xmlns="http://www.w3.org/2000/svg" id="ESAD" viewBox="0 0 180 80">
  <defs>
    <style>
      .cls-1 {
        fill: #fff;
      }

      .cls-2 {
        fill: none;
      }
    </style>
  </defs>
  <path class="cls-2" d="m100.9,37.43c-.27-.39-.6-.69-.97-.89-.38-.2-.78-.3-1.21-.3h-1.27v9.59h1.27c.43,0,.83-.1,1.21-.3.38-.2.7-.49.97-.89.27-.4.49-.89.64-1.49.16-.6.24-1.3.24-2.1s-.08-1.52-.24-2.13c-.16-.6-.37-1.1-.64-1.5Z"></path>
  <path class="cls-2" d="m63.08,37.26c-.12-.27-.27-.48-.45-.65-.19-.16-.4-.28-.64-.34-.24-.06-.49-.1-.73-.1h-1.41v4.31h1.45c.59,0,1.07-.19,1.43-.57.36-.38.54-.92.54-1.62,0-.42-.06-.77-.17-1.03Z"></path>
  <path class="cls-2" d="m106.55,19.28c-.35-.34-.8-.51-1.35-.51h-1.41v4.41h1.41c.56,0,1.01-.19,1.35-.57.35-.38.52-.94.52-1.7s-.17-1.29-.52-1.63Z"></path>
  <path class="cls-2" d="m122.33,37.43c-.27-.39-.6-.69-.97-.89-.38-.2-.78-.3-1.21-.3h-1.27v9.59h1.27c.43,0,.83-.1,1.21-.3.37-.2.7-.49.97-.89.27-.4.49-.89.64-1.49.15-.6.23-1.3.23-2.1s-.08-1.52-.23-2.13c-.16-.6-.37-1.1-.64-1.5Z"></path>
  <path class="cls-2" d="m41.04,37.43c-.27-.39-.6-.69-.97-.89-.38-.2-.78-.3-1.21-.3h-1.27v9.59h1.27c.43,0,.83-.1,1.21-.3.38-.2.7-.49.97-.89.27-.4.49-.89.64-1.49.16-.6.23-1.3.23-2.1s-.08-1.52-.23-2.13c-.16-.6-.37-1.1-.64-1.5Z"></path>
  <path class="cls-2" d="m54.37,27.16c.21.45.48.81.81,1.07.32.26.7.39,1.13.39s.79-.13,1.11-.39c.32-.26.59-.62.8-1.07.21-.45.38-.99.49-1.6.11-.62.16-1.27.16-1.97s-.06-1.35-.16-1.97c-.11-.62-.27-1.15-.49-1.6-.22-.45-.48-.81-.8-1.07-.32-.26-.69-.39-1.11-.39s-.81.13-1.13.39c-.33.26-.6.62-.81,1.07-.22.45-.38.99-.48,1.6-.11.62-.16,1.27-.16,1.97s.05,1.36.16,1.97c.1.62.26,1.15.48,1.6Z"></path>
  <path class="cls-2" d="m41.04,54.86c-.27-.39-.6-.69-.97-.89-.38-.2-.78-.3-1.21-.3h-1.27v9.59h1.27c.43,0,.83-.1,1.21-.3.38-.2.7-.5.97-.89.27-.4.49-.89.64-1.49.16-.6.23-1.3.23-2.1s-.08-1.52-.23-2.13c-.16-.6-.37-1.1-.64-1.5Z"></path>
  <path class="cls-2" d="m123.41,19.82c-.12-.27-.27-.48-.45-.65-.19-.16-.4-.28-.64-.34-.24-.06-.49-.1-.73-.1h-1.41v4.31h1.45c.59,0,1.07-.19,1.43-.57.36-.38.54-.92.54-1.62,0-.42-.06-.77-.17-1.03Z"></path>
  <path class="cls-2" d="m60.48,54.69c-.12-.27-.27-.48-.45-.65-.19-.16-.4-.28-.64-.34-.24-.06-.49-.1-.73-.1h-1.41v4.31h1.45c.59,0,1.07-.19,1.43-.57.36-.38.54-.92.54-1.62,0-.42-.06-.76-.17-1.03Z"></path>
  <polygon class="cls-2" points="52.67 36.33 51.1 43.08 54.26 43.08 52.74 36.33 52.67 36.33"></polygon>
  <path class="cls-2" d="m153.76,19.82c-.12-.27-.27-.48-.45-.65-.19-.16-.4-.28-.64-.34-.25-.06-.49-.1-.73-.1h-1.41v4.31h1.45c.59,0,1.07-.19,1.43-.57.36-.38.54-.92.54-1.62,0-.42-.06-.77-.17-1.03Z"></path>
  <path d="m23.31,59.32c-.25-.19-.55-.34-.89-.43-.34-.1-.7-.14-1.08-.14h-1.06v4.84h.93c.41,0,.8-.04,1.16-.13.36-.08.67-.23.93-.42.26-.2.47-.45.62-.77.15-.32.22-.71.22-1.17,0-.4-.07-.75-.22-1.04-.15-.29-.35-.54-.6-.73Z"></path>
  <path d="m15.56,70.2h12.8V11.57h-12.8v58.63Zm10.07-7.27c-.25.5-.59.93-1.01,1.27-.42.34-.91.6-1.46.78-.55.18-1.13.26-1.74.26h-2.94v-8.15h2.7c.65,0,1.27.07,1.86.22.59.15,1.1.38,1.54.71.44.33.79.75,1.04,1.27.26.52.39,1.15.39,1.9,0,.66-.12,1.24-.37,1.75Zm-6.33-47.6h5.54v1.66h-3.74v1.52h3.54v1.66h-3.54v1.66h3.95v1.66h-5.75v-8.16Zm3.45,18.63c-.19-.14-.42-.26-.71-.36-.28-.1-.59-.2-.92-.3-.33-.1-.64-.23-.92-.4-.28-.17-.52-.39-.71-.67-.19-.28-.28-.64-.28-1.1s.09-.82.26-1.15c.17-.33.4-.61.69-.83.29-.22.62-.39,1-.5.38-.11.76-.17,1.16-.17.46,0,.91.06,1.34.2.43.13.82.35,1.16.66l-1.23,1.35c-.15-.18-.34-.32-.59-.41-.25-.09-.49-.13-.71-.13-.13,0-.27.02-.4.05-.14.03-.27.08-.39.14-.12.07-.22.15-.3.26-.08.11-.11.24-.11.39,0,.25.09.43.28.57.18.13.42.24.7.33.28.09.58.18.9.28.32.09.62.22.91.39.28.17.51.4.7.68.18.28.28.66.28,1.14s-.08.85-.25,1.19c-.17.34-.4.62-.69.84-.29.22-.62.39-1,.5-.38.11-.78.16-1.2.16-.53,0-1.02-.08-1.47-.24-.45-.16-.87-.42-1.27-.78l1.28-1.4c.18.25.42.44.7.57.28.13.57.2.87.2.15,0,.29-.02.44-.05.15-.03.28-.09.4-.15.12-.07.21-.16.29-.27.07-.11.11-.23.11-.38,0-.25-.09-.44-.28-.58Zm-1.47,8.31h1.49l3.55,8.16h-2.03l-.7-1.73h-3.17l-.68,1.73h-1.98l3.53-8.16Z"></path>
  <polygon points="21.96 44.64 20.97 47.17 22.97 47.17 21.96 44.64"></polygon>
  <polygon class="cls-1" points="25.04 21.83 21.09 21.83 21.09 20.17 24.63 20.17 24.63 18.51 21.09 18.51 21.09 16.99 24.84 16.99 24.84 15.33 19.3 15.33 19.3 23.49 25.04 23.49 25.04 21.83"></polygon>
  <path class="cls-1" d="m22.63,35.18c-.12.07-.25.12-.4.15-.15.03-.3.05-.44.05-.3,0-.59-.07-.87-.2-.28-.13-.51-.32-.7-.57l-1.28,1.4c.39.36.81.62,1.27.78.45.16.95.24,1.47.24.42,0,.82-.05,1.2-.16.38-.11.71-.27,1-.5.29-.22.52-.5.69-.84.17-.34.25-.73.25-1.19,0-.48-.09-.86-.28-1.14-.18-.28-.42-.51-.7-.68-.28-.17-.58-.3-.91-.39-.32-.09-.62-.19-.9-.28-.28-.09-.51-.2-.7-.33-.18-.13-.28-.32-.28-.57,0-.15.04-.28.11-.39.08-.11.18-.19.3-.26.12-.07.25-.11.39-.14.14-.03.27-.05.4-.05.22,0,.46.04.71.13.25.09.45.23.59.41l1.23-1.35c-.35-.31-.73-.53-1.16-.66-.43-.13-.88-.2-1.34-.2-.4,0-.79.06-1.16.17-.38.11-.71.28-1,.5-.29.22-.52.5-.69.83-.17.33-.26.71-.26,1.15s.09.82.28,1.1c.19.28.42.5.71.67.28.17.59.3.92.4.33.1.64.2.92.3.28.1.52.22.71.36.19.14.28.34.28.58,0,.15-.04.27-.11.38-.07.11-.17.2-.29.27Z"></path>
  <path class="cls-1" d="m20.41,48.69h3.17l.7,1.73h2.03l-3.55-8.16h-1.49l-3.53,8.16h1.98l.68-1.73Zm1.56-4.05l1,2.53h-1.99l.99-2.53Z"></path>
  <path class="cls-1" d="m24.58,58.01c-.44-.33-.95-.56-1.54-.71-.59-.15-1.21-.22-1.86-.22h-2.7v8.15h2.94c.61,0,1.19-.09,1.74-.26.55-.18,1.04-.44,1.46-.78.42-.34.76-.77,1.01-1.27.25-.5.37-1.09.37-1.75,0-.75-.13-1.38-.39-1.9-.26-.52-.6-.95-1.04-1.27Zm-.66,4.25c-.15.32-.36.58-.62.77-.26.19-.57.33-.93.42-.36.09-.74.13-1.16.13h-.93v-4.84h1.06c.38,0,.74.05,1.08.14.34.1.64.24.89.43.25.19.46.44.6.73.15.3.22.64.22,1.04,0,.46-.07.85-.22,1.17Z"></path>
  <polygon points="40.84 13.94 39.37 13.94 37.8 16.45 38.97 16.45 40.84 13.94"></polygon>
  <polygon points="41.39 28.36 37.54 28.36 37.54 24.02 40.97 24.02 40.97 22.71 37.54 22.71 37.54 18.82 41.22 18.82 41.22 17.43 36.02 17.43 36.02 29.77 41.39 29.77 41.39 28.36"></polygon>
  <path d="m47.64,30.07c.7,0,1.29-.15,1.78-.44.49-.3.89-.69,1.2-1.18l-.94-1.03c-.2.34-.46.62-.79.85-.33.23-.71.35-1.14.35-.48,0-.89-.13-1.25-.4-.36-.27-.65-.63-.88-1.09-.23-.46-.41-.99-.52-1.6-.12-.6-.17-1.25-.17-1.94s.06-1.33.17-1.94c.12-.61.29-1.14.51-1.6.23-.45.51-.81.86-1.08.35-.27.76-.4,1.24-.4.38,0,.74.09,1.08.27.34.18.63.46.89.83l.98-1.06c-.34-.5-.77-.87-1.29-1.12-.52-.24-1.1-.37-1.73-.37-.67,0-1.28.16-1.82.49-.54.33-1,.78-1.38,1.35-.38.57-.67,1.26-.87,2.05-.2.79-.31,1.65-.31,2.58s.1,1.79.3,2.57c.2.79.48,1.47.85,2.05.37.58.83,1.03,1.38,1.36.55.32,1.16.49,1.85.49Z"></path>
  <path d="m53.21,28.27c.37.57.81,1.01,1.33,1.33.52.31,1.12.47,1.78.47s1.25-.16,1.77-.47c.52-.31.96-.76,1.33-1.33.37-.57.64-1.25.84-2.05.19-.8.29-1.68.29-2.64s-.09-1.84-.29-2.64c-.19-.8-.47-1.48-.84-2.04-.37-.56-.81-1-1.33-1.31-.52-.31-1.11-.46-1.77-.46s-1.28.15-1.8.46c-.53.31-.97.74-1.33,1.31-.36.56-.63,1.24-.82,2.04-.19.8-.28,1.68-.28,2.64s.1,1.85.29,2.64c.19.8.47,1.48.84,2.05Zm.69-6.66c.1-.62.26-1.15.48-1.6.21-.45.48-.81.81-1.07.32-.26.7-.39,1.13-.39s.79.13,1.11.39c.32.26.59.62.8,1.07.21.45.38.99.49,1.6.11.62.16,1.27.16,1.97s-.06,1.36-.16,1.97c-.11.62-.27,1.15-.49,1.6-.22.45-.48.81-.8,1.07-.32.26-.69.39-1.11.39s-.81-.13-1.13-.39c-.33-.26-.6-.62-.81-1.07-.22-.45-.38-.99-.48-1.6-.11-.62-.16-1.27-.16-1.97s.05-1.35.16-1.97Z"></path>
  <polygon points="68.12 28.31 64.63 28.31 64.63 17.43 63.07 17.43 63.07 29.77 68.12 29.77 68.12 28.31"></polygon>
  <polygon points="71.43 24.02 74.87 24.02 74.87 22.71 71.43 22.71 71.43 18.82 75.11 18.82 75.11 17.43 69.92 17.43 69.92 29.77 75.29 29.77 75.29 28.36 71.43 28.36 71.43 24.02"></polygon>
  <path d="m86.04,28.62c-.41,0-.81-.1-1.21-.3-.4-.2-.73-.47-1-.82l-.92,1.13c.34.43.79.78,1.35,1.04.56.26,1.16.39,1.79.39.47,0,.9-.08,1.31-.24.41-.16.76-.4,1.05-.7.3-.3.53-.68.71-1.12.17-.45.26-.95.26-1.51,0-.5-.08-.94-.23-1.32-.16-.38-.36-.71-.62-.98-.26-.28-.54-.52-.85-.73-.31-.2-.63-.39-.96-.55-.26-.13-.49-.27-.72-.41-.22-.15-.42-.31-.58-.49-.17-.18-.3-.38-.4-.61-.1-.23-.15-.5-.15-.81,0-.36.05-.67.16-.92.1-.25.24-.47.42-.64.17-.17.37-.29.58-.37.21-.07.43-.11.65-.11.74,0,1.34.29,1.78.87l.94-1.12c-.31-.39-.71-.69-1.18-.89-.47-.2-1-.3-1.6-.3-.41,0-.81.07-1.2.21-.4.14-.75.35-1.05.64-.31.29-.55.66-.74,1.1-.19.44-.28.96-.28,1.55,0,.5.07.93.2,1.3.13.37.32.68.55.95.23.27.5.5.79.71.3.2.61.39.95.55.28.14.54.29.78.45.24.16.45.33.64.52.19.19.33.41.44.65.1.24.16.51.16.83,0,.66-.17,1.17-.51,1.52-.34.35-.77.52-1.29.52Z"></path>
  <path d="m98.16,28.74c.29-.41.5-.89.63-1.44.13-.54.19-1.13.19-1.76v-8.11h-1.57v7.95c0,.42-.03.82-.1,1.21-.06.39-.17.74-.33,1.04-.16.3-.37.54-.64.72-.27.18-.61.27-1.03.27s-.76-.09-1.04-.27c-.27-.18-.49-.42-.65-.72-.16-.3-.27-.65-.33-1.04-.06-.39-.1-.79-.1-1.21v-7.95h-1.57v8.11c0,.63.06,1.22.18,1.76.12.55.33,1.03.62,1.44.29.41.67.74,1.13.98.46.24,1.03.36,1.72.36s1.26-.12,1.74-.36c.47-.24.85-.56,1.14-.98Z"></path>
  <path d="m107.68,23.59c.3-.3.53-.67.71-1.12.17-.45.26-.98.26-1.57,0-.66-.1-1.22-.31-1.66-.2-.45-.46-.81-.78-1.07-.32-.27-.67-.46-1.06-.57-.39-.11-.77-.17-1.14-.17h-3.13v12.34h1.57v-5.28h1.67c.42,0,.82-.07,1.19-.23.38-.15.72-.38,1.01-.67Zm-2.48-.41h-1.41v-4.41h1.41c.56,0,1.01.17,1.35.51.35.35.52.89.52,1.63s-.17,1.32-.52,1.7c-.35.38-.8.57-1.35.57Z"></path>
  <polygon points="115.67 13.94 114.2 13.94 112.63 16.45 113.8 16.45 115.67 13.94"></polygon>
  <polygon points="112.37 24.02 115.81 24.02 115.81 22.71 112.37 22.71 112.37 18.82 116.05 18.82 116.05 17.43 110.86 17.43 110.86 29.77 116.23 29.77 116.23 28.36 112.37 28.36 112.37 24.02"></polygon>
  <path d="m123.78,23.67c.24-.15.47-.36.68-.62.21-.26.37-.58.5-.95.13-.37.19-.81.19-1.31,0-.6-.09-1.12-.26-1.55-.17-.43-.41-.78-.72-1.05-.3-.27-.65-.46-1.06-.58-.4-.12-.83-.18-1.29-.18h-3.2v12.34h1.53v-5.51h1.43l2.09,5.51h1.69l-2.32-5.81c.23-.05.47-.15.72-.3Zm-2.16-.63h-1.45v-4.31h1.41c.24,0,.49.03.73.1.24.06.46.18.64.34.19.16.34.38.45.65.12.27.17.61.17,1.03,0,.7-.18,1.24-.54,1.62-.36.38-.84.57-1.43.57Z"></path>
  <rect x="127.56" y="17.43" width="1.57" height="12.34"></rect>
  <polygon points="137.22 28.36 133.36 28.36 133.36 24.02 136.8 24.02 136.8 22.71 133.36 22.71 133.36 18.82 137.04 18.82 137.04 17.43 131.85 17.43 131.85 29.77 137.22 29.77 137.22 28.36"></polygon>
  <path d="m146.44,25.54v-8.11h-1.57v7.95c0,.42-.03.82-.1,1.21-.06.39-.18.74-.33,1.04-.16.3-.37.54-.64.72-.27.18-.61.27-1.03.27s-.76-.09-1.04-.27c-.28-.18-.49-.42-.65-.72-.16-.3-.27-.65-.33-1.04-.06-.39-.1-.79-.1-1.21v-7.95h-1.57v8.11c0,.63.06,1.22.18,1.76.12.55.33,1.03.62,1.44.29.41.67.74,1.13.98.46.24,1.03.36,1.72.36s1.26-.12,1.74-.36c.47-.24.85-.56,1.14-.98.29-.41.5-.89.63-1.44.13-.54.19-1.13.19-1.76Z"></path>
  <path d="m154.13,23.67c.25-.15.47-.36.68-.62.21-.26.37-.58.5-.95.13-.37.19-.81.19-1.31,0-.6-.09-1.12-.26-1.55-.18-.43-.41-.78-.72-1.05-.3-.27-.66-.46-1.06-.58-.4-.12-.83-.18-1.29-.18h-3.2v12.34h1.53v-5.51h1.43l2.09,5.51h1.69l-2.32-5.81c.23-.05.47-.15.72-.3Zm-2.16-.63h-1.45v-4.31h1.41c.24,0,.49.03.73.1.24.06.46.18.64.34.19.16.34.38.45.65.12.27.17.61.17,1.03,0,.7-.18,1.24-.54,1.62-.36.38-.84.57-1.43.57Z"></path>
  <polygon points="162.94 28.36 159.08 28.36 159.08 24.02 162.52 24.02 162.52 22.71 159.08 22.71 159.08 18.82 162.76 18.82 162.76 17.43 157.57 17.43 157.57 29.77 162.94 29.77 162.94 28.36"></polygon>
  <path d="m38.86,34.86h-2.84v12.34h2.82c1.46,0,2.6-.53,3.42-1.58.81-1.05,1.22-2.58,1.22-4.58s-.4-3.54-1.21-4.6c-.81-1.06-1.94-1.59-3.41-1.59Zm2.82,8.29c-.16.6-.37,1.09-.64,1.49-.27.39-.6.69-.97.89-.38.2-.78.3-1.21.3h-1.27v-9.59h1.27c.43,0,.83.1,1.21.3.38.2.7.5.97.89.27.4.49.9.64,1.5.16.6.23,1.31.23,2.13s-.08,1.5-.23,2.1Z"></path>
  <polygon points="47.41 34.86 46.12 34.86 45.35 39.08 46.47 39.08 47.41 34.86"></polygon>
  <path d="m53.77,34.86h-2.08l-3.1,12.34h1.59l.72-2.89h3.57l.7,2.89h1.64l-3.03-12.34Zm-2.67,8.21l1.57-6.75h.07l1.52,6.75h-3.16Z"></path>
  <path d="m62.73,41.4c.23-.05.47-.15.72-.3.25-.15.47-.36.68-.62.21-.26.37-.58.5-.95.13-.37.19-.81.19-1.31,0-.6-.09-1.12-.26-1.55-.18-.43-.41-.78-.72-1.05-.3-.27-.66-.46-1.06-.58-.4-.12-.83-.18-1.28-.18h-3.2v12.34h1.53v-5.51h1.43l2.09,5.51h1.69l-2.32-5.81Zm-1.45-.92h-1.45v-4.31h1.41c.24,0,.49.03.73.1.24.06.46.18.64.34.19.16.34.38.45.65.12.27.17.61.17,1.03,0,.7-.18,1.24-.54,1.62-.36.38-.84.57-1.43.57Z"></path>
  <polygon points="65.42 36.21 67.77 36.21 67.77 47.21 69.34 47.21 69.34 36.21 71.7 36.21 71.7 34.86 65.42 34.86 65.42 36.21"></polygon>
  <polygon points="82.99 45.8 79.13 45.8 79.13 41.45 82.57 41.45 82.57 40.15 79.13 40.15 79.13 36.26 82.81 36.26 82.81 34.86 77.62 34.86 77.62 47.21 82.99 47.21 82.99 45.8"></polygon>
  <polygon points="89.96 34.86 83.68 34.86 83.68 36.21 86.04 36.21 86.04 47.21 87.61 47.21 87.61 36.21 89.96 36.21 89.96 34.86"></polygon>
  <path d="m98.73,34.86h-2.84v12.34h2.82c1.46,0,2.6-.53,3.42-1.58.81-1.05,1.22-2.58,1.22-4.58s-.4-3.54-1.21-4.6c-.81-1.06-1.94-1.59-3.41-1.59Zm2.82,8.29c-.16.6-.37,1.09-.64,1.49-.27.39-.6.69-.97.89-.38.2-.78.3-1.21.3h-1.27v-9.59h1.27c.43,0,.83.1,1.21.3.38.2.7.5.97.89.27.4.49.9.64,1.5.16.6.24,1.31.24,2.13s-.08,1.5-.24,2.1Z"></path>
  <polygon points="107.04 41.45 110.48 41.45 110.48 40.15 107.04 40.15 107.04 36.26 110.72 36.26 110.72 34.86 105.52 34.86 105.52 47.21 110.9 47.21 110.9 45.8 107.04 45.8 107.04 41.45"></polygon>
  <path d="m120.15,34.86h-2.84v12.34h2.82c1.46,0,2.6-.53,3.42-1.58.81-1.05,1.22-2.58,1.22-4.58s-.4-3.54-1.21-4.6c-.81-1.06-1.95-1.59-3.41-1.59Zm2.82,8.29c-.16.6-.37,1.09-.64,1.49-.27.39-.6.69-.97.89-.38.2-.78.3-1.21.3h-1.27v-9.59h1.27c.43,0,.83.1,1.21.3.37.2.7.5.97.89.27.4.49.9.64,1.5.15.6.23,1.31.23,2.13s-.08,1.5-.23,2.1Z"></path>
  <polygon points="128.47 41.45 131.9 41.45 131.9 40.15 128.47 40.15 128.47 36.26 132.15 36.26 132.15 34.86 126.95 34.86 126.95 47.21 132.32 47.21 132.32 45.8 128.47 45.8 128.47 41.45"></polygon>
  <path d="m136.02,36.48c.17-.17.37-.29.58-.37.21-.07.43-.11.65-.11.74,0,1.34.29,1.78.87l.94-1.12c-.32-.39-.71-.69-1.18-.89-.47-.2-1-.3-1.6-.3-.41,0-.81.07-1.2.21-.4.14-.75.35-1.06.64-.31.29-.55.66-.74,1.1-.19.44-.28.96-.28,1.55,0,.5.07.93.2,1.3.13.37.32.68.55.95.23.27.5.5.79.71.3.2.61.39.95.55.28.14.54.29.78.45.24.16.45.33.64.52.19.19.33.41.44.65.1.24.16.51.16.83,0,.66-.17,1.17-.51,1.52-.34.35-.77.52-1.29.52-.41,0-.81-.1-1.21-.3-.4-.2-.74-.47-1-.82l-.92,1.13c.34.43.79.78,1.35,1.04.56.26,1.16.39,1.79.39.46,0,.9-.08,1.31-.24.41-.16.76-.4,1.06-.7.3-.3.53-.68.71-1.13.17-.45.26-.95.26-1.51,0-.5-.08-.94-.23-1.32-.16-.38-.36-.71-.62-.98-.26-.28-.54-.52-.85-.72-.32-.2-.63-.39-.96-.55-.26-.13-.49-.27-.71-.41-.22-.15-.42-.31-.58-.49-.17-.18-.3-.38-.4-.61-.1-.23-.15-.5-.15-.81,0-.36.05-.67.16-.92.1-.25.24-.47.42-.64Z"></path>
  <rect x="142.05" y="34.86" width="1.57" height="12.34"></rect>
  <path d="m150.21,41.79h1.62v3.82c-.34.28-.83.42-1.48.42-.49,0-.91-.13-1.27-.38-.36-.25-.66-.61-.9-1.05-.24-.45-.42-.98-.54-1.59-.12-.61-.18-1.27-.18-1.98s.06-1.32.17-1.93c.11-.61.28-1.14.51-1.6.23-.46.52-.82.86-1.09.34-.27.75-.4,1.23-.4.39,0,.76.09,1.1.28.34.19.63.47.89.84l.98-1.06c-.34-.5-.76-.87-1.27-1.12-.51-.24-1.1-.37-1.76-.37s-1.3.16-1.84.49c-.54.33-1,.78-1.37,1.35-.37.57-.66,1.26-.86,2.04-.2.78-.3,1.64-.3,2.57s.1,1.84.3,2.63c.2.79.5,1.47.89,2.02.39.56.86.99,1.42,1.3.56.31,1.19.46,1.9.46s1.29-.09,1.77-.27c.48-.18.9-.42,1.26-.72v-6.02h-3.14v1.36Z"></path>
  <polygon points="161.6 34.86 161.6 44.45 161.54 44.45 157.66 34.86 155.77 34.86 155.77 47.21 157.22 47.21 157.22 37.64 157.27 37.64 161.21 47.21 163.04 47.21 163.04 34.86 161.6 34.86"></polygon>
  <path d="m38.87,52.3h-2.84v12.35h2.82c1.46,0,2.6-.53,3.42-1.58.81-1.05,1.22-2.58,1.22-4.58s-.4-3.55-1.21-4.6c-.81-1.06-1.94-1.59-3.41-1.59Zm2.82,8.29c-.16.6-.37,1.1-.64,1.49-.27.39-.6.69-.97.89-.38.2-.78.3-1.21.3h-1.27v-9.59h1.27c.43,0,.83.1,1.21.3.38.2.7.5.97.89.27.4.49.9.64,1.5.16.6.23,1.31.23,2.13s-.08,1.5-.23,2.1Z"></path>
  <polygon points="47.18 58.89 50.62 58.89 50.62 57.58 47.18 57.58 47.18 53.69 50.86 53.69 50.86 52.3 45.66 52.3 45.66 64.64 51.04 64.64 51.04 63.23 47.18 63.23 47.18 58.89"></polygon>
  <path d="m60.85,58.54c.25-.15.47-.36.68-.62.21-.26.37-.58.5-.95.13-.37.19-.81.19-1.31,0-.6-.09-1.12-.26-1.55-.18-.43-.41-.78-.72-1.05-.3-.27-.66-.46-1.06-.58-.4-.12-.83-.18-1.28-.18h-3.2v12.35h1.53v-5.51h1.43l2.09,5.51h1.69l-2.32-5.81c.23-.05.47-.15.72-.3Zm-2.16-.63h-1.45v-4.31h1.41c.24,0,.49.03.73.1.24.06.46.18.64.34.19.16.34.38.45.65.12.27.17.61.17,1.03,0,.7-.18,1.24-.54,1.62-.36.38-.84.57-1.43.57Z"></path>
  <polygon points="65.8 58.89 69.24 58.89 69.24 57.58 65.8 57.58 65.8 53.69 69.48 53.69 69.48 52.3 64.29 52.3 64.29 64.64 69.66 64.64 69.66 63.23 65.8 63.23 65.8 58.89"></polygon>
  <rect x="71.71" y="52.3" width="1.57" height="12.35"></rect>
  <polygon points="81.01 62.1 80.95 62.1 78.31 52.3 76 52.3 76 64.64 77.45 64.64 77.45 54.43 77.5 54.43 80.22 64.64 81.63 64.64 84.39 54.43 84.44 54.43 84.44 64.64 86.01 64.64 86.01 52.3 83.6 52.3 81.01 62.1"></polygon>
  <path d="m90.35,53.91c.17-.17.37-.29.58-.36.22-.08.43-.11.65-.11.74,0,1.34.29,1.78.87l.94-1.12c-.31-.4-.71-.69-1.18-.89-.47-.2-1-.3-1.59-.3-.41,0-.81.07-1.2.21-.4.14-.75.35-1.06.64-.31.29-.55.66-.74,1.1-.19.44-.28.96-.28,1.55,0,.5.07.93.2,1.3.13.37.32.68.55.95.23.27.5.5.79.71.3.21.61.39.95.55.28.14.54.29.78.45.24.16.45.33.64.52.19.19.33.41.44.65.1.24.16.51.16.83,0,.66-.17,1.17-.51,1.52-.34.35-.77.52-1.29.52-.41,0-.81-.1-1.21-.3-.4-.2-.74-.47-1-.82l-.92,1.13c.34.43.79.77,1.35,1.04.56.26,1.16.39,1.79.39.46,0,.9-.08,1.31-.24.41-.16.76-.4,1.05-.7.3-.3.53-.68.71-1.13.17-.45.26-.95.26-1.51,0-.5-.08-.94-.23-1.32-.16-.38-.36-.71-.62-.98-.26-.28-.54-.52-.85-.72-.31-.2-.63-.39-.96-.55-.26-.13-.49-.27-.71-.41-.22-.15-.42-.31-.58-.49-.17-.18-.3-.38-.4-.61-.1-.23-.15-.5-.15-.81,0-.36.05-.67.16-.92.11-.26.25-.47.42-.64Z"></path>
</svg>
