<?xml version="1.0" encoding="UTF-8"?>
<svg xmlns="http://www.w3.org/2000/svg" id="MUSEES" viewBox="0 0 180 80">
  <defs>
    <style>
      .cls-1 {
        fill: #fff;
      }

      .cls-2 {
        fill: #a21077;
      }

      .cls-3 {
        fill: none;
        stroke: #1d1d1b;
        stroke-width: .34px;
      }

      .cls-4 {
        fill: #008c9b;
      }

      .cls-5 {
        fill: #676c75;
      }

      .cls-6 {
        fill: #e5a000;
      }

      .cls-7 {
        fill: #bc1d1d;
      }

      .cls-8 {
        fill: #1d1d1b;
      }
    </style>
  </defs>
  <path class="cls-4" d="m13.05,35.99h-2.85c-.18,1.41-.28,2.85-.28,4.31,0,1.56.11,3.1.32,4.61h2.86c-.22-1.5-.34-3.04-.34-4.61,0-1.46.11-2.9.3-4.31"></path>
  <path class="cls-5" d="m15.92,35.99h-2.92c-.18,1.41-.26,2.85-.26,4.31,0,1.56.14,3.1.34,4.61h2.87c-.22-1.5-.38-3.04-.38-4.61,0-1.46.15-2.9.35-4.31"></path>
  <path class="cls-2" d="m18.78,35.99h-2.84c-.18,1.41-.38,2.85-.38,4.31,0,1.56.17,3.1.38,4.61h2.89c-.22-1.5-.43-3.04-.43-4.61,0-1.46.19-2.9.39-4.31"></path>
  <path class="cls-6" d="m21.64,35.99h-2.87c-.18,1.41-.39,2.85-.39,4.31,0,1.56.23,3.1.43,4.61h2.88c-.22-1.5-.48-3.04-.48-4.61,0-1.46.24-2.9.44-4.31"></path>
  <path class="cls-7" d="m24.63,35.99h-3.11c-.18,1.41-.42,2.85-.42,4.31,0,1.56.28,3.1.48,4.61h3.07c-.22-1.51-.53-3.04-.53-4.61,0-1.46.23-2.91.51-4.31"></path>
  <path class="cls-3" d="m62.51,27.63c-4.06-5.99-10.93-9.93-18.71-9.93-12.48,0-22.59,10.11-22.59,22.59s10.11,22.59,22.59,22.59c7.78,0,14.65-3.94,18.71-9.93m2-27.37c-4.61-6.47-12.16-10.7-20.72-10.7-14.03,0-25.41,11.38-25.41,25.41s11.38,25.41,25.41,25.41c8.55,0,16.11-4.23,20.72-10.7m2.22-31.17c-5.13-7.13-13.49-11.78-22.94-11.78-15.59,0-28.24,12.64-28.24,28.24s12.64,28.24,28.24,28.24c9.45,0,17.81-4.65,22.94-11.78m2.48-34.3c-5.62-7.99-14.91-13.22-25.42-13.22-17.15,0-31.06,13.91-31.06,31.06s13.91,31.06,31.06,31.06c10.51,0,19.8-5.23,25.42-13.22m2.7-36.75c-6.09-9.03-16.41-14.98-28.12-14.98-18.71,0-33.88,15.17-33.88,33.88s15.17,33.88,33.88,33.88c11.71,0,22.04-5.94,28.12-14.98"></path>
  <path class="cls-8" d="m60.73,30.12c-3.62-6.01-9.95-9.6-16.94-9.6-10.91,0-19.78,8.87-19.78,19.78s8.87,19.78,19.78,19.78c6.99,0,13.32-3.59,16.94-9.6-1.85-3.09-2.82-6.61-2.82-10.17s.98-7.08,2.82-10.17"></path>
  <path class="cls-1" d="m50.29,45.1c-1.21-2.55-1.92-4.1-1.95-4.15-.02-.05-.02-.1.03-.13.79-.56,1.57-1.6,1.57-2.83,0-1.69-.97-2.81-2.94-2.81h-2.94s0,0-.02,0c-.12.01-.18.06-.25.18l-2.26,6.06c-.26.69-.51,1.45-.76,2.15-.03.07-.1.07-.13,0l-.76-2.13c-.4-1.02-1.9-5.04-2.28-6.06-.07-.16-.1-.2-.33-.2h-.51c-.18,0-.25.12-.25.26v9.78c0,.1.07.15.17.15h.69c.12,0,.15-.07.15-.17v-7.25s.03-.03.05,0c.1.23.94,2.55,1.02,2.78.26.69,1.31,3.4,1.55,4.1.07.17.13.18.28.18h.51c.15,0,.22-.12.26-.2.2-.55,2.45-6.45,3.33-8.72h2.3c1.67,0,2.05,1.09,2.05,2.02,0,.71-.45,1.54-1.12,1.95-.05.03-.15.08-.28.08h-3.59v5.09c0,.1.07.15.17.15h.73c.1,0,.15-.07.15-.17v-4.03c0-.08.03-.13.13-.13h1.98c.17,0,.22.07.26.16l1.8,3.9c.07.18.13.26.4.26h.64c.11,0,.25-.07.15-.28"></path>
  <path class="cls-8" d="m167.24,42.36c0-1.83-1.66-2.37-2.86-2.77-.43-.14-1.31-.4-1.31-1.03s.51-.79,1-.79c.53,0,1.26.26,1.69.45.23.1.4.01.51-.19l.42-.84c.19-.36.13-.43-.1-.58-.56-.35-1.36-.64-2.57-.64-1.62,0-2.98,1.03-2.98,2.66,0,1.42.92,2.09,2.01,2.46,1.33.45,2.11.78,2.11,1.42,0,.32-.13.77-1.11.77-.46,0-1.42-.3-1.99-.74-.22-.14-.36-.25-.61.06l-.56.78c-.23.3-.17.43.09.65.95.81,2.12,1.07,3.15,1.07,1.69,0,3.13-.94,3.13-2.73m-8.32,2.34v-8.29c0-.2-.14-.32-.38-.32h-1.11c-.26,0-.48.12-.55.3l-1.2,2.89-.85,2.2c-.06.13-.09.13-.13.01l-.85-2.21c-.38-.88-.81-1.99-1.18-2.89-.14-.33-.35-.3-.55-.3h-1.23c-.25,0-.36.13-.36.32v8.29c0,.22.14.32.36.32h1.3c.23,0,.36-.04.36-.26v-3.6s.06-.01.09.01l.53,1.47.71,1.89c.13.26.26.25.49.25h.77c.22,0,.3-.1.4-.3l.74-1.86c.19-.46.38-1,.56-1.47.03-.01.07-.04.07-.01v3.63c0,.22.14.26.35.26h1.29c.23,0,.38-.1.38-.32m-10.84.32c.22,0,.35-.07.35-.29v-8.34c0-.23-.16-.3-.35-.3h-1.36c-.22,0-.35.09-.35.3v8.34c0,.22.13.29.35.29h1.36Zm-6.81-1.85c-.3,0-.42-.06-.42-.32v-1.17c0-.2.04-.3.32-.3h2.44c.23,0,.3-.13.3-.35v-1.14c0-.22-.07-.35-.3-.35h-2.4c-.29,0-.36-.09-.36-.36v-.98c0-.19.06-.27.35-.27h2.92c.2,0,.29-.13.29-.35v-1.17c0-.23-.12-.32-.29-.32h-4.97c-.22,0-.35.13-.35.35v8.23c0,.22.13.35.35.35h5.08c.2,0,.29-.13.29-.35v-1.17c0-.23-.12-.33-.29-.33h-2.96Zm-8.38-3.18c-.26,0-.32-.13-.32-.29v-1.46c0-.23.04-.32.32-.32h.98c.39,0,.88.25.88.9,0,.25-.1.69-.52,1.05-.07.07-.27.12-.36.12h-.98Zm-2.08-3.9c-.23,0-.3.13-.3.35v8.29c0,.22.13.29.36.29h1.34c.23,0,.36-.07.36-.29v-2.74c0-.13.04-.16.14-.16h.62c.12,0,.17.06.19.1l1.17,2.73c.09.19.17.36.64.36h1.44c.26,0,.32-.17.25-.33l-1.4-3.02c-.07-.17-.09-.22.01-.35.69-.68,1.19-1.55,1.19-2.54,0-1.76-1.17-2.69-2.83-2.69h-3.18Zm-4.83,8.81v-.33c0-.07-.04-.1-.12-.1h-4.04c-.06,0-.1-.01-.1-.09v-3.6c0-.07.04-.1.1-.1h3.37c.07,0,.1-.03.1-.1v-.33c0-.07-.03-.12-.1-.12h-3.37c-.09,0-.1-.01-.1-.09v-3.31c0-.09.04-.09.12-.09h3.86c.07,0,.1-.03.1-.1v-.33c0-.07-.03-.12-.1-.12h-4.48c-.09,0-.12.04-.12.12v8.68c0,.07.04.12.12.12h4.65c.09,0,.12-.04.12-.12m-7.46-2.24c0,1.2-.68,1.81-1.78,1.81h-2.07c-.07,0-.1-.01-.1-.09v-7.64c0-.09.04-.09.1-.09h2.04c1.39,0,1.81.75,1.81,1.81v4.2Zm.64-.06v-4.18c0-1.53-.82-2.33-2.4-2.33h-2.7c-.07,0-.1.04-.1.12v8.68c0,.07.03.12.1.12h2.69c1.52,0,2.41-.87,2.41-2.41m-12.64,1.96c-.68,0-1.47-.36-1.94-.75-.09-.07-.13-.07-.2,0l-.19.19c-.07.07-.1.12-.03.19.52.56,1.46.9,2.37.9,1.59,0,2.83-.81,2.83-2.4s-1.19-2.11-2.43-2.6c-.9-.35-2.04-.79-2.04-1.79,0-1.27,1-1.73,1.89-1.73.59,0,1.31.2,1.81.56.06.04.14.07.2-.01l.17-.26c.04-.07.07-.13-.01-.19-.64-.48-1.46-.66-2.22-.66-1.26,0-2.46.79-2.46,2.3s1.49,1.96,2.59,2.4c1.05.42,1.88.85,1.88,2.05s-.95,1.82-2.23,1.82m-3.83.33v-.33c0-.07-.04-.1-.12-.1h-4.04c-.06,0-.1-.01-.1-.09v-3.6c0-.07.04-.1.1-.1h3.37c.07,0,.1-.03.1-.1v-.33c0-.07-.03-.12-.1-.12h-3.37c-.09,0-.1-.01-.1-.09v-3.31c0-.09.04-.09.12-.09h3.86c.07,0,.1-.03.1-.1v-.33c0-.07-.03-.12-.1-.12h-4.48c-.09,0-.12.04-.12.12v8.68c0,.07.04.12.12.12h4.65c.09,0,.12-.04.12-.12m-7.85-10.31c.1-.06.1-.14.03-.22l-.27-.33c-.07-.09-.14-.07-.22-.01l-1.57,1.34c-.07.06-.06.1-.01.17l.09.12c.06.06.13.06.19.03l1.78-1.1Zm1.23,10.31v-.33c0-.07-.04-.1-.12-.1h-4.04c-.06,0-.1-.01-.1-.09v-3.6c0-.07.04-.1.1-.1h3.37c.07,0,.1-.03.1-.1v-.33c0-.07-.03-.12-.1-.12h-3.37c-.09,0-.1-.01-.1-.09v-3.31c0-.09.04-.09.12-.09h3.86c.07,0,.1-.03.1-.1v-.33c0-.07-.03-.12-.1-.12h-4.48c-.09,0-.12.04-.12.12v8.68c0,.07.04.12.12.12h4.65c.09,0,.12-.04.12-.12m-9.52-.33c-.68,0-1.47-.36-1.94-.75-.09-.07-.13-.07-.2,0l-.19.19c-.07.07-.1.12-.03.19.52.56,1.46.9,2.37.9,1.59,0,2.83-.81,2.83-2.4s-1.18-2.11-2.43-2.6c-.9-.35-2.04-.79-2.04-1.79,0-1.27,1-1.73,1.89-1.73.59,0,1.31.2,1.81.56.06.04.14.07.2-.01l.17-.26c.04-.07.07-.13-.01-.19-.64-.48-1.46-.66-2.22-.66-1.26,0-2.46.79-2.46,2.3s1.49,1.96,2.59,2.4c1.05.42,1.88.85,1.88,2.05s-.95,1.82-2.22,1.82m-4.03-1.85v-6.52c0-.06-.03-.1-.1-.1h-.4c-.07,0-.12.03-.12.1v6.5c0,1.03-.69,1.86-1.96,1.86s-2.01-.84-2.01-1.88v-6.49c0-.06-.03-.1-.1-.1h-.4c-.07,0-.12.03-.12.1v6.52c0,1.39.98,2.4,2.61,2.4,1.52,0,2.6-.95,2.6-2.4m-7.19,2.2v-8.62c0-.09-.01-.19-.17-.19h-.33c-.12,0-.16.04-.2.12-.68,1.82-1.36,3.63-2.05,5.45l-.78,2.14c-.03.06-.07.06-.1,0-.26-.71-.5-1.42-.78-2.12l-2.05-5.45c-.03-.1-.07-.13-.2-.13h-.33c-.13,0-.17.1-.17.19v8.62c0,.07.04.1.12.1h.39c.07,0,.1-.04.1-.1v-7.15s.03-.03.06,0l1.17,3.11c.48,1.23.94,2.46,1.4,3.68.04.1.09.12.19.12h.32c.1,0,.14-.04.19-.13.43-1.14.87-2.28,1.31-3.42l1.27-3.37s.06-.04.06.01v7.15c0,.06.03.1.12.1h.39c.07,0,.1-.03.1-.1"></path>
</svg>
