<?xml version="1.0" encoding="UTF-8"?>
<svg xmlns="http://www.w3.org/2000/svg" xmlns:xlink="http://www.w3.org/1999/xlink" id="EAU" viewBox="0 0 180 80">
  <defs>
    <style>
      .cls-1 {
        fill: url(#linear-gradient-2);
      }

      .cls-2 {
        clip-path: url(#clippath-1);
      }

      .cls-3 {
        fill: #3c3c3b;
      }

      .cls-4 {
        clip-path: url(#clippath);
      }

      .cls-5 {
        fill: none;
      }

      .cls-6 {
        fill: #76c8da;
      }

      .cls-7 {
        fill: url(#linear-gradient);
      }
    </style>
    <clipPath id="clippath">
      <path class="cls-5" d="m74.87,21.43l-8.26,17.04c-.12.28-.19.58-.19.9,0,1.23,1,2.22,2.22,2.22.96,0,1.75-.61,2.07-1.46h0s.37-.8.37-.8l5.77-11.91,6.91,14.14c-1.85-.18-3.74-.04-5.72.31-2.86.53-5.86,1.58-8.81,3.17-.21.1-.39.21-.58.31-1.45.76-4.38,2.74-4.38,2.74-3.09,2.01-5.54,2.29-6.42,2.32h-16.72v-10.76h16.31c1.23,0,2.2-.97,2.2-2.21s-.97-2.2-2.2-2.2h-16.31v-10.63h18.43c1.23,0,2.2-.97,2.2-2.2s-.97-2.2-2.2-2.2h-20.63c-1.19,0-2.2.97-2.2,2.2v30.2c0,1.24,1.01,2.2,2.2,2.2h21.07c.1,0,.2,0,.29-.02,2.37-.19,4.64-1.67,4.64-1.67,1.9-1.22,3.6-2.76,6.4-4.25,2.6-1.36,5.11-2.25,7.53-2.69,2.6-.48,5.02-.4,7.31.26l3.43,7.09c.53,1.06,1.85,1.54,2.95.97,1.1-.53,1.54-1.85,1.01-2.91l-14.75-30.16c-.35-.75-1.14-1.23-1.98-1.23s-1.58.48-1.98,1.23"></path>
    </clipPath>
    <linearGradient id="linear-gradient" x1="-492.64" y1="205.55" x2="-492.13" y2="205.55" gradientTransform="translate(94330.37 39381.53) scale(191.41 -191.41)" gradientUnits="userSpaceOnUse">
      <stop offset="0" stop-color="#264c7e"></stop>
      <stop offset=".15" stop-color="#264c7e"></stop>
      <stop offset=".36" stop-color="#316b9c"></stop>
      <stop offset=".55" stop-color="#3c8abb"></stop>
      <stop offset=".7" stop-color="#56a6c9"></stop>
      <stop offset=".87" stop-color="#6dbed5"></stop>
      <stop offset=".97" stop-color="#76c8da"></stop>
      <stop offset="1" stop-color="#76c8da"></stop>
    </linearGradient>
    <clipPath id="clippath-1">
      <path class="cls-5" d="m119.66,22.4v18.43c0,.88,0,3.54-1.28,5.92-.66,1.24-1.64,2.21-2.83,2.92-1.55.88-3.58,1.37-6.06,1.37s-4.51-.49-6.06-1.37c-1.24-.71-2.17-1.68-2.87-2.96-1.28-2.34-1.28-5-1.28-5.88v-18.43c0-1.19-.97-2.21-2.21-2.21s-2.21,1.02-2.21,2.21v18.43c0,1.15,0,4.64,1.81,8,1.11,1.99,2.61,3.54,4.55,4.64,2.25,1.33,5.04,1.99,8.27,1.99,7.6,0,11.14-3.58,12.78-6.63,1.81-3.31,1.81-6.85,1.81-8v-18.43c0-1.19-.97-2.21-2.21-2.21s-2.21,1.02-2.21,2.21"></path>
    </clipPath>
    <linearGradient id="linear-gradient-2" x1="-492.64" y1="205.56" x2="-492.13" y2="205.56" gradientTransform="translate(94330.37 39382.28) scale(191.41 -191.41)" xlink:href="#linear-gradient"></linearGradient>
  </defs>
  <g class="cls-4">
    <rect class="cls-7" x="36.73" y="20.19" width="57.39" height="34.87"></rect>
  </g>
  <g>
    <path class="cls-3" d="m39.3,61.29h-1.6c-.52,0-.97.42-.97.92v8.31c0,.5.44.92.97.92h1.6c2.65,0,4.17-1.41,4.17-3.86v-2.55c0-2.38-1.52-3.75-4.17-3.75m.24,8.57h-1.1v-6.96h1.1c1.84,0,2.23,1.16,2.23,2.14v2.55c0,1.03-.39,2.27-2.23,2.27"></path>
    <path class="cls-3" d="m51.43,61.17c-.46,0-.84.38-.84.84v6.03c0,1.23-.62,1.94-1.7,1.94s-1.72-.69-1.72-1.94v-6.03c0-.46-.38-.84-.84-.84-.49,0-.87.36-.87.84v6.03c0,2.16,1.34,3.55,3.42,3.55s3.42-1.43,3.42-3.55v-6.03c0-.46-.39-.84-.88-.84"></path>
    <path class="cls-3" d="m64.75,65.57h-1.62c-.42,0-.78.36-.78.78s.37.8.78.8h.99v2.51c-.4.26-.81.38-1.32.38-1.27,0-1.84-.68-1.84-2.21v-2.92c0-1.53.57-2.21,1.84-2.21.46,0,.86.12,1.25.39l.07.04s.08.05.11.07c.14.09.25.17.49.17.44,0,.8-.34.8-.75,0-.76-1.31-1.43-2.8-1.43-2.24,0-3.48,1.33-3.48,3.73v2.92c0,2.41,1.24,3.73,3.48,3.73,1.48,0,3.08-.57,3.08-1.83v-3.26c0-.62-.54-.9-1.07-.9"></path>
    <path class="cls-3" d="m73.77,68.63c-.33-.53-.67-1.05-1-1.58,1.32-.37,2.04-1.35,2.04-2.75,0-1.88-1.26-2.99-3.38-2.99h-2.47c-.51,0-.94.42-.94.92v8.53c0,.45.38.82.84.82s.87-.39.87-.82v-3.53h1.18l2.43,3.97c.15.24.4.37.71.37.42,0,.88-.36.88-.84,0-.09-.04-.34-.12-.42-.35-.56-.7-1.11-1.05-1.67m-.66-4.34c0,1.11-.89,1.35-1.64,1.35h-1.73v-2.74h1.64c1.15,0,1.73.47,1.73,1.39"></path>
    <path class="cls-3" d="m81.48,62.07c-.16-.47-.39-.9-1.02-.9s-.88.48-1.02.9l-2.77,8.42c-.02.07-.03.21-.03.29,0,.45.38.8.88.8.27,0,.69-.21.81-.59l.51-1.65h3.2l.44,1.33c.19.52.37.91.93.91.51,0,.88-.33.88-.8,0-.07-.01-.23-.05-.29l-2.77-8.41Zm.1,5.75h-2.26c.1-.32.19-.65.29-.97.29-.95.59-1.93.84-2.95.24,1.08.57,2.13.89,3.15.08.25.16.51.24.76"></path>
    <path class="cls-3" d="m92.27,61.17c-.47,0-.87.38-.87.82v6.05c-.39-.7-1.12-2.02-1.83-3.31-.73-1.33-1.42-2.59-1.72-3.11-.17-.28-.51-.46-.84-.46-.52,0-.9.36-.9.87v8.72c0,.46.38.82.84.82s.87-.39.87-.82v-6.03l3.55,6.41h0c.15.26.5.45.83.45.51,0,.91-.38.91-.87v-8.72c0-.45-.38-.82-.84-.82"></path>
    <path class="cls-3" d="m98.19,61.29h-1.6c-.52,0-.97.42-.97.92v8.31c0,.5.44.92.97.92h1.6c2.65,0,4.17-1.41,4.17-3.86v-2.55c0-2.38-1.52-3.75-4.17-3.75m.24,8.57h-1.1v-6.96h1.1c1.84,0,2.23,1.16,2.23,2.14v2.55c0,1.03-.39,2.27-2.23,2.27"></path>
    <path class="cls-3" d="m115.17,68.63c-.33-.53-.67-1.05-1-1.58,1.32-.37,2.05-1.35,2.05-2.75,0-1.88-1.26-2.99-3.38-2.99h-2.47c-.51,0-.94.42-.94.92v8.53c0,.45.38.82.84.82s.87-.39.87-.82v-3.53h1.18l2.43,3.97c.15.24.4.37.71.37.42,0,.88-.36.88-.84,0-.09-.04-.34-.12-.42-.35-.56-.7-1.11-1.05-1.67m-.66-4.34c0,1.11-.89,1.35-1.64,1.35h-1.73v-2.74h1.64c1.15,0,1.73.47,1.73,1.39"></path>
    <path class="cls-3" d="m123.31,69.86h-3.23v-2.69h2.82c.47,0,.84-.36.84-.81s-.44-.8-.84-.8h-2.82v-2.65h3.09c.48,0,.85-.34.85-.78s-.38-.82-.85-.82h-3.84c-.57,0-.95.47-.95.91v8.33c0,.59.42.91,1.18.91h3.76c.47,0,.85-.37.85-.82,0-.42-.39-.77-.85-.77"></path>
    <path class="cls-3" d="m126.95,61.17c-.47,0-.85.36-.85.81v8.8c0,.44.39.81.85.81s.85-.38.85-.81v-8.8c0-.44-.39-.81-.85-.81"></path>
    <path class="cls-3" d="m138.01,61.17c-.4,0-.7.17-.86.48l-2.57,5.35-2.59-5.34c-.17-.32-.47-.49-.86-.49-.5,0-.88.36-.88.84v8.78c0,.44.37.8.82.8.48,0,.88-.36.88-.8v-5.58l1.81,3.75c.16.31.45.48.8.48s.66-.18.8-.48l1.82-3.75v5.59c0,.42.41.8.87.8s.84-.37.84-.8v-8.78c0-.47-.39-.84-.88-.84"></path>
    <path class="cls-3" d="m144.48,65.6c-.41-.14-.8-.27-1.15-.45-.31-.16-.67-.42-.67-1.13,0-1.04.81-1.26,1.49-1.26.53,0,.86.12,1.15.23.22.08.4.15.63.15.55,0,.85-.4.85-.78,0-1.18-2.6-1.19-2.71-1.19-1.94,0-3.15,1.12-3.15,2.92,0,2.03,1.48,2.51,2.79,2.94.38.13.75.24,1.06.4.31.16.65.43.65,1.14,0,.92-.56,1.4-1.62,1.4-.69,0-1.15-.17-1.52-.31-.23-.09-.42-.16-.59-.16-.43,0-.8.36-.8.8s.38.76,1.1.99c.62.2,1.33.27,1.8.27,2.06,0,3.39-1.21,3.39-3.09s-1.44-2.45-2.71-2.88"></path>
    <path class="cls-6" d="m138.4,7.91c-.59,0-1,.62-1,.62-2.22,3.39-4.48,6.77-6.61,10.22-2.74,4.42-1.03,10.4,3.61,12.71,4.36,2.17,9.82.33,11.99-4.02,1.37-2.74,1.21-6.09-.41-8.69-2.16-3.41-4.38-6.79-6.59-10.18,0,0-.4-.66-1-.66m-.09,21.64c-.04.35-.21,1.05-1.13.87-.67-.13-1.33-.32-1.95-.63-1.75-.87-3.06-2.48-3.61-4.41-.44-1.56-.35-3.2.24-4.64.24-.58.88-.78,1.33-.5.45.28.58.85.34,1.53-.35.97-.35,2.06-.06,3.09.4,1.41,1.36,2.58,2.62,3.21.35.18.72.31,1.09.39.61.14,1.18.56,1.12,1.09"></path>
  </g>
  <g class="cls-2">
    <rect class="cls-1" x="94.86" y="20.19" width="29.22" height="35.28"></rect>
  </g>
</svg>
