<?xml version="1.0" encoding="UTF-8"?>
<svg xmlns="http://www.w3.org/2000/svg" id="uuid-9ff67350-bf6d-45cd-a66c-e6052765208f" viewBox="0 0 62 62">
  <defs>
    <style>.uuid-ad31753d-114c-4225-86be-2c1143089836{fill:#00608f;}.uuid-a7e39f13-b118-49d7-bfbb-47c655c2d8f6{fill:none;stroke:#3f3d56;}.uuid-4c5b1b21-bbfb-48ba-b599-97f97b9b2e00{fill:#e6e6e6;}</style>
  </defs>
  <path class="uuid-4c5b1b21-bbfb-48ba-b599-97f97b9b2e00" d="M31.77,12.13L6.5,21.34s-2.33,1.31-1.56,2.73,6.68,3.06,6.68,3.06l20.75,7.43,7.19-2.82L13.71,22.92l25.85-8.13-7.79-2.65Z"></path>
  <polygon class="uuid-ad31753d-114c-4225-86be-2c1143089836" points="14.38 27.92 13.54 29.34 12.39 32.22 13.41 34.34 12.32 36.33 13.99 46.09 14.51 49.04 13.93 50.46 6.87 50.26 6.87 47.82 8.53 37.04 7.64 34.56 8.32 32.67 9.53 31.73 11.7 26.81 14.38 27.92"></polygon>
  <polygon class="uuid-4c5b1b21-bbfb-48ba-b599-97f97b9b2e00" points="38.37 35.5 38.96 49.88 44.44 48.59 47.52 46.88 48.85 44.27 47.59 32.07 38.37 35.5"></polygon>
  <path class="uuid-a7e39f13-b118-49d7-bfbb-47c655c2d8f6" d="M58.34,21.34l-24.14-8.64c-1.17-.42-2.45-.42-3.62,0L6.5,21.34c-.82,.3-1.37,1.08-1.37,1.97s.55,1.68,1.37,1.97l5.13,1.84c-1.02,1.35-1.73,2.92-2.1,4.61-.98,.41-1.67,1.39-1.67,2.52,0,.85,.41,1.58,1.02,2.08l-2.12,12.73c-.14,.83,.5,1.59,1.35,1.59h4.97c.84,0,1.49-.76,1.35-1.59l-2.12-12.73c.61-.5,1.02-1.3,1.02-2.08,0-.88-.44-1.63-1.09-2.13,.36-1.52,1.1-2.89,2.13-4.02l16.28,5.83c1.17,.42,2.45,.42,3.62,0l24.14-8.64c.82-.3,1.37-1.09,1.37-1.97s-.55-1.67-1.44-1.97Z"></path>
  <path class="uuid-a7e39f13-b118-49d7-bfbb-47c655c2d8f6" d="M35.11,36.5c-.8,.31-1.73,.48-2.66,.48s-1.85-.16-2.73-.47l-12.4-4.44-1.27,12.19c0,3.52,7.27,6.38,16.4,6.38s16.4-2.85,16.4-6.38l-1.27-12.2-12.48,4.44Z"></path>
</svg>
