<?xml version="1.0" encoding="UTF-8"?>
<svg xmlns="http://www.w3.org/2000/svg" id="f4f49846-da0e-48dd-bbc6-1050dd8c16c9" data-name="Calque 1" viewBox="0 0 90 90">
  <defs>
    <style>.aeda6910-04c4-49ef-bce9-cb95e04f9996{fill:#fff;}.a195b05c-0f2b-4a4f-b943-25204abc2c55{fill:#987018;}.b6107504-1cd9-4d3b-8f0d-57435b477f7f{fill:#bfa36c;opacity:0.7;}</style>
  </defs>
  <rect class="aeda6910-04c4-49ef-bce9-cb95e04f9996" x="2.43" y="29.58" width="85.26" height="34.64"></rect>
  <rect class="aeda6910-04c4-49ef-bce9-cb95e04f9996" x="30.17" y="29.58" width="57.51" height="13.68"></rect>
  <rect class="aeda6910-04c4-49ef-bce9-cb95e04f9996" x="2.43" y="49.19" width="9.44" height="15.02"></rect>
  <path class="a195b05c-0f2b-4a4f-b943-25204abc2c55" d="M28.8,28.21H1.05V65.59h88V28.21ZM86.31,31V41.89H31.54V31ZM3.8,62.84V50.56h6.69V62.84Zm82.51,0H13.24v-15H3.8V31h25V44.63H86.31Z"></path>
  <path class="a195b05c-0f2b-4a4f-b943-25204abc2c55" d="M10.07,42.4h3.35v2.36H7.27V34h2.8Z"></path>
  <path class="a195b05c-0f2b-4a4f-b943-25204abc2c55" d="M18.15,42.89l-.74,1.87h-3L18.58,34h3.05l4.05,10.75h-3L22,42.89Zm2-5.56h0l-1.15,3.42h2.32Z"></path>
  <path class="b6107504-1cd9-4d3b-8f0d-57435b477f7f" d="M20.57,50.81v2h3.35v2.58H20.57V60H17.51V48.23h6.75v2.58Z"></path>
  <path class="a195b05c-0f2b-4a4f-b943-25204abc2c55" d="M30.18,60H27.12V48.23h3.06Z"></path>
  <path class="a195b05c-0f2b-4a4f-b943-25204abc2c55" d="M36.39,57.39h3.66V60H33.34V48.23h3Z"></path>
  <path class="a195b05c-0f2b-4a4f-b943-25204abc2c55" d="M45.66,50.81v2h3.45v2.58H45.66v2h3.63V60H42.61V48.23h6.68v2.58Z"></path>
  <path class="a195b05c-0f2b-4a4f-b943-25204abc2c55" d="M62.14,48.23v6.6c0,1.51-.06,3-1.23,4.15A5.62,5.62,0,0,1,57,60.28a5.62,5.62,0,0,1-3.9-1.3c-1.17-1.14-1.23-2.64-1.23-4.15v-6.6h3v6.18c0,1.53.11,3.2,2.08,3.2s2.07-1.67,2.07-3.2V48.23Z"></path>
  <path class="a195b05c-0f2b-4a4f-b943-25204abc2c55" d="M71.3,51.25a3.21,3.21,0,0,0-2-.78c-.56,0-1.31.33-1.31,1s.83.95,1.36,1.12l.78.24c1.63.48,2.9,1.31,2.9,3.21a4,4,0,0,1-1.22,3.16,5.14,5.14,0,0,1-3.33,1.1,7.19,7.19,0,0,1-4.13-1.34l1.31-2.46a4.17,4.17,0,0,0,2.71,1.22c.71,0,1.48-.36,1.48-1.19s-1.2-1.15-1.86-1.34c-1.91-.54-3.17-1-3.17-3.31a3.81,3.81,0,0,1,4-4,8,8,0,0,1,3.67,1Z"></path>
  <path class="a195b05c-0f2b-4a4f-b943-25204abc2c55" d="M78.66,50.81v2h3.45v2.58H78.66v2h3.63V60H75.61V48.23h6.68v2.58Z"></path>
  <path class="a195b05c-0f2b-4a4f-b943-25204abc2c55" d="M34.13,35.76v.59h1v.77h-1v1.37h-.91V35h2v.77Z"></path>
  <path class="a195b05c-0f2b-4a4f-b943-25204abc2c55" d="M39,38.49H37.86L37,37.15h0v1.34h-.91V35h1.36c.7,0,1.22.33,1.22,1.08a1,1,0,0,1-.76,1Zm-2-1.93h.09c.3,0,.63-.06.63-.44s-.33-.43-.63-.43H37Z"></path>
  <path class="a195b05c-0f2b-4a4f-b943-25204abc2c55" d="M40.5,38.49h-.91V35h.91Z"></path>
  <path class="a195b05c-0f2b-4a4f-b943-25204abc2c55" d="M44,36.17a1,1,0,0,0-.8-.39.92.92,0,0,0-.93,1,.91.91,0,0,0,.94,1,1,1,0,0,0,.79-.37v1.09a2.4,2.4,0,0,1-.81.17,2,2,0,0,1-1.31-.52,1.69,1.69,0,0,1-.56-1.32,1.87,1.87,0,0,1,.51-1.29,1.92,1.92,0,0,1,1.34-.56,2.16,2.16,0,0,1,.83.17Z"></path>
  <path class="a195b05c-0f2b-4a4f-b943-25204abc2c55" d="M47.08,36.34V35H48v3.5h-.92V37.06H45.77v1.43h-.91V35h.91v1.35Z"></path>
  <path class="a195b05c-0f2b-4a4f-b943-25204abc2c55" d="M49.85,35.76v.59h1v.77h-1v.6h1.08v.77h-2V35h2v.77Z"></path>
  <path class="a195b05c-0f2b-4a4f-b943-25204abc2c55" d="M54.68,37.89l-.25.6h-1L54.81,35h1l1.32,3.5h-1l-.23-.6Zm.63-1.82h0l-.37,1.12h.75Z"></path>
  <path class="a195b05c-0f2b-4a4f-b943-25204abc2c55" d="M60.67,38.49H59.54l-.86-1.34h0v1.34h-.91V35h1.36c.69,0,1.22.33,1.22,1.08a1,1,0,0,1-.77,1Zm-2-1.93h.09c.3,0,.63-.06.63-.44s-.33-.43-.63-.43h-.09Z"></path>
  <path class="a195b05c-0f2b-4a4f-b943-25204abc2c55" d="M62.66,38.49h-.91V35.76H61V35h2.41v.77h-.75Z"></path>
  <path class="a195b05c-0f2b-4a4f-b943-25204abc2c55" d="M65,38.49h-.91V35H65Z"></path>
  <path class="a195b05c-0f2b-4a4f-b943-25204abc2c55" d="M67.87,35.89a1,1,0,0,0-.6-.23c-.17,0-.4.1-.4.29s.25.28.41.34l.23.07c.49.14.87.39.87,1a1.21,1.21,0,0,1-.37.95,1.54,1.54,0,0,1-1,.33,2.15,2.15,0,0,1-1.23-.4l.39-.74a1.25,1.25,0,0,0,.81.37c.21,0,.44-.11.44-.36s-.36-.34-.56-.4c-.57-.16-.94-.31-.94-1a1.13,1.13,0,0,1,1.2-1.17,2.46,2.46,0,0,1,1.1.28Z"></path>
  <path class="a195b05c-0f2b-4a4f-b943-25204abc2c55" d="M70.55,38.49h-.91V35.76h-.75V35H71.3v.77h-.75Z"></path>
  <path class="a195b05c-0f2b-4a4f-b943-25204abc2c55" d="M72.89,38.49H72V35h.91Z"></path>
  <path class="a195b05c-0f2b-4a4f-b943-25204abc2c55" d="M76.84,38.71l-.28-.33a1.75,1.75,0,0,1-1,.23,1.87,1.87,0,1,1,0-3.74,1.83,1.83,0,0,1,1.93,1.88A1.85,1.85,0,0,1,77.08,38l.59.6Zm-.42-1.44a.89.89,0,0,0,.17-.51,1,1,0,0,0-1-1,1,1,0,0,0-1,.92,1,1,0,0,0,1,1,.92.92,0,0,0,.28,0l-.56-.56.86-.1Z"></path>
  <path class="a195b05c-0f2b-4a4f-b943-25204abc2c55" d="M81.34,35v2A1.62,1.62,0,0,1,81,38.2a1.74,1.74,0,0,1-1.17.39,1.7,1.7,0,0,1-1.16-.39A1.59,1.59,0,0,1,78.28,37V35h.92v1.84c0,.46,0,1,.61,1s.62-.5.62-1V35Z"></path>
  <path class="a195b05c-0f2b-4a4f-b943-25204abc2c55" d="M83.18,35.76v.59h1v.77h-1v.6h1.08v.77h-2V35h2v.77Z"></path>
</svg>
