<?xml version="1.0" encoding="UTF-8"?>
<svg xmlns="http://www.w3.org/2000/svg" id="ae05aea1-bdc8-457b-896f-94e1eae7061a" data-name="Calque 1" viewBox="0 0 90 90">
  <defs>
    <style>.b5354c02-af40-437a-812f-2a2fc3a7de4a{fill:#987018;}.b5ba383f-f8f9-4774-8c7a-85ee5bc601ab{fill:none;stroke:#987018;stroke-width:0.15px;}.a5c9f582-99f1-4aae-8404-7477bf0f20e9{fill:#fff;}</style>
  </defs>
  <path class="b5354c02-af40-437a-812f-2a2fc3a7de4a" d="M9.11,39.58H5.41A44.73,44.73,0,0,0,5,45.17a43.62,43.62,0,0,0,.42,6h3.7a42.09,42.09,0,0,1-.44-6,41.21,41.21,0,0,1,.39-5.59"></path>
  <path class="b5354c02-af40-437a-812f-2a2fc3a7de4a" d="M12.84,39.58H9.05a44.75,44.75,0,0,0-.34,5.59,45.24,45.24,0,0,0,.44,6h3.73a40.65,40.65,0,0,1-.49-6,41.19,41.19,0,0,1,.45-5.59"></path>
  <path class="b5354c02-af40-437a-812f-2a2fc3a7de4a" d="M16.55,39.58H12.87a42.85,42.85,0,0,0-.49,5.59,43.59,43.59,0,0,0,.49,6h3.74a40.65,40.65,0,0,1-.56-6,41.18,41.18,0,0,1,.5-5.59"></path>
  <path class="b5354c02-af40-437a-812f-2a2fc3a7de4a" d="M20.28,39.58H16.54a44.66,44.66,0,0,0-.5,5.59,45.2,45.2,0,0,0,.56,6h3.74a40.66,40.66,0,0,1-.63-6,39.65,39.65,0,0,1,.57-5.59"></path>
  <path class="b5354c02-af40-437a-812f-2a2fc3a7de4a" d="M24.15,39.58h-4a44.84,44.84,0,0,0-.55,5.59,43.89,43.89,0,0,0,.63,6h4a40.69,40.69,0,0,1-.69-6,28.76,28.76,0,0,1,.66-5.59"></path>
  <path class="b5ba383f-f8f9-4774-8c7a-85ee5bc601ab" d="M73.34,28.73a29.33,29.33,0,1,0,0,32.88m2.6-35.54a33,33,0,1,0,0,38.2M78.83,23.8a36.67,36.67,0,1,0,0,42.74M82.05,22a40.33,40.33,0,1,0,0,46.34m3.51-47.72a44,44,0,1,0,0,49.1"></path>
  <path class="b5354c02-af40-437a-812f-2a2fc3a7de4a" d="M71,32a25.68,25.68,0,1,0,0,26.42A25.61,25.61,0,0,1,71,32"></path>
  <path class="a5c9f582-99f1-4aae-8404-7477bf0f20e9" d="M57.47,51.41C55.91,48.11,55,46.09,54.94,46a.15.15,0,0,1,0-.18,4.68,4.68,0,0,0,2-3.66c0-2.19-1.26-3.65-3.82-3.65H49.36a.42.42,0,0,0-.32.23L46.1,46.65c-.35.9-.67,1.89-1,2.79a.09.09,0,0,1-.17,0l-1-2.77c-.51-1.33-2.47-6.54-3-7.87-.09-.22-.13-.26-.43-.26H39.9a.3.3,0,0,0-.33.34v12.7a.19.19,0,0,0,.22.2h.9c.15,0,.19-.09.19-.22V42.14c0-.06,0,0,.07,0,.13.3,1.22,3.31,1.33,3.61.34.9,1.69,4.42,2,5.32a.32.32,0,0,0,.37.24h.66c.2,0,.28-.16.35-.26.25-.71,3.18-8.37,4.32-11.33h3a2.38,2.38,0,0,1,2.66,2.62,3.16,3.16,0,0,1-1.46,2.53.72.72,0,0,1-.37.1H49.15v6.6a.19.19,0,0,0,.21.2h1c.13,0,.19-.09.19-.22V46.33c0-.11,0-.17.17-.17h2.58a.31.31,0,0,1,.34.21l2.34,5.06c.08.24.17.35.51.35h.84c.15,0,.32-.09.19-.37"></path>
</svg>
