<?xml version="1.0" encoding="UTF-8"?>
<svg xmlns="http://www.w3.org/2000/svg" id="Calque_1" data-name="Calque 1" viewBox="0 0 120 120">
  <defs>
    <style>
      .cls-1 {
        fill: #fff;
      }

      .cls-2 {
        fill: #d50732;
      }

      .cls-3 {
        fill: #220a05;
      }
    </style>
  </defs>
  <rect class="cls-3" x="-9.09" y="-9.87" width="139.3" height="138.13"></rect>
  <path class="cls-2" d="m23.67,43.97v2.55h-13.29v-2.55h13.29Zm0,26.29v2.55h-13.29v-2.55h13.29Zm-.03-7.63c-.44.2-1.06.32-1.51.32-1.41,0-2.73-1.49-4-2.73,2.17-.34,3.82-1.95,3.82-4.2,0-3.33-2.73-4.4-5.4-4.4h-5.96v2.43h6.25c1.27,0,2.19.7,2.19,2.03,0,1.25-.92,2.01-2.19,2.01h-6.25v7.07h2.79v-4.88h1.35c1.69,1.25,3.92,5.08,6.95,5.08.88,0,1.67-.24,2.23-.52l-.28-2.21Z"></path>
  <g>
    <path class="cls-1" d="m31.98,44.3h7.2c3.23,0,6.53,1.3,6.53,5.32,0,2.72-2,4.67-4.62,5.08,1.54,1.49,3.13,3.3,4.84,3.3.55,0,1.3-.14,1.83-.39l.34,2.67c-.67.34-1.64.63-2.7.63-3.66,0-6.36-4.62-8.4-6.14h-1.64v5.9h-3.37v-16.37Zm3.37,2.94v4.89h4.19c1.54,0,2.65-.92,2.65-2.43,0-1.61-1.11-2.46-2.65-2.46h-4.19Z"></path>
    <path class="cls-1" d="m50.69,60.68v-16.37h12.96v2.96h-9.73v3.54h7.97v2.96h-7.97v3.95h9.73v2.96h-12.96Z"></path>
    <path class="cls-1" d="m67.45,44.3h3.37v16.37h-3.37v-16.37Z"></path>
    <path class="cls-1" d="m90.52,49.62l-5.49,6.6h-.6l-5.47-6.6v11.05h-3.37v-16.37h3.03l6.12,7.3,6.12-7.3h3.03v16.37h-3.37v-11.05Z"></path>
    <path class="cls-1" d="m101.43,53.43c-2.48-.65-3.76-2.17-3.76-4.38,0-2.72,2.05-4.96,6.55-4.96,2.36,0,4.62.63,5.88,1.3l-.96,3.15c-1.2-.77-3.25-1.37-5.03-1.37-2.07,0-2.94.65-2.94,1.59s.6,1.25,1.78,1.59l3.03.87c2.96.84,4.41,2.19,4.41,4.53,0,3.08-2.72,5.18-6.67,5.18-2.38,0-4.72-.82-5.78-1.42l.79-3.2c1.18.77,3.08,1.54,5.06,1.54s3.08-.75,3.08-1.83c0-.89-.87-1.32-2.34-1.73l-3.11-.84Z"></path>
  </g>
  <g>
    <path class="cls-1" d="m39.75,71.63c-.76.72-2.06,1.37-3.47,1.37-2.5,0-4.35-1.62-4.35-4.34s1.85-4.37,4.35-4.37c2.18,0,3.41,1.22,3.46,3.2l-1.6.34c-.02-1.18-.62-1.92-1.88-1.92-1.49,0-2.53,1-2.53,2.75s1.03,2.72,2.59,2.72c1.04,0,1.99-.49,2.61-1.06l.82,1.31Z"></path>
    <path class="cls-1" d="m45.47,64.29c2.5,0,4.37,1.87,4.37,4.37s-1.87,4.34-4.37,4.34-4.34-1.87-4.34-4.34,1.87-4.37,4.34-4.37Zm.01,7.08c1.55,0,2.64-1.18,2.64-2.71s-1.08-2.71-2.64-2.71-2.64,1.16-2.64,2.71,1.11,2.71,2.64,2.71Z"></path>
    <path class="cls-1" d="m59.49,67.16l-2.84,3.41h-.31l-2.82-3.41v5.71h-1.74v-8.46h1.57l3.16,3.77,3.16-3.77h1.57v8.46h-1.74v-5.71Z"></path>
    <path class="cls-1" d="m71.41,67.16l-2.84,3.41h-.31l-2.82-3.41v5.71h-1.74v-8.46h1.57l3.16,3.77,3.16-3.77h1.57v8.46h-1.74v-5.71Z"></path>
    <path class="cls-1" d="m75.61,72.87v-8.46h6.69v1.53h-5.03v1.83h4.12v1.53h-4.12v2.04h5.03v1.53h-6.69Z"></path>
    <path class="cls-1" d="m84.27,64.41h3.72c1.67,0,3.37.67,3.37,2.75,0,1.41-1.03,2.41-2.39,2.62.8.77,1.62,1.7,2.5,1.7.29,0,.67-.07.95-.2l.17,1.38c-.35.17-.85.32-1.39.32-1.89,0-3.28-2.39-4.34-3.17h-.85v3.05h-1.74v-8.46Zm1.74,1.52v2.53h2.16c.8,0,1.37-.47,1.37-1.26,0-.83-.57-1.27-1.37-1.27h-2.16Z"></path>
    <path class="cls-1" d="m101.13,71.63c-.76.72-2.07,1.37-3.47,1.37-2.5,0-4.35-1.62-4.35-4.34s1.85-4.37,4.35-4.37c2.18,0,3.41,1.22,3.46,3.2l-1.6.34c-.02-1.18-.62-1.92-1.88-1.92-1.49,0-2.53,1-2.53,2.75s1.03,2.72,2.59,2.72c1.05,0,1.99-.49,2.61-1.06l.82,1.31Z"></path>
    <path class="cls-1" d="m103.02,72.87v-8.46h6.69v1.53h-5.03v1.83h4.12v1.53h-4.12v2.04h5.03v1.53h-6.69Z"></path>
  </g>
</svg>
