<?xml version="1.0" encoding="UTF-8"?>
<svg xmlns="http://www.w3.org/2000/svg" id="Calque_8" data-name="Calque 8" viewBox="0 0 120 120">
  <defs>
    <style>
      .cls-1 {
        fill: #fff;
      }

      .cls-2 {
        fill: #d50732;
      }
    </style>
  </defs>
  <rect class="cls-2" x=".16" y=".23" width="119.93" height="119.93"></rect>
  <path class="cls-1" d="m101.05,33.93c-1.04-.71-2.25-1.09-3.5-1.09h-21.88v-6.22c0-2.94-2.27-5.33-5.07-5.33h-19.78c-2.8,0-5.07,2.39-5.07,5.33v6.22h-21.88c-3.44,0-6.24,2.8-6.24,6.24v48.47c0,3.44,2.8,6.24,6.24,6.24h5.34v2.14c0,.59.48,1.07,1.07,1.07h3.63c.59,0,1.07-.48,1.07-1.07v-2.14h3.11s.08,0,.13,0,.09,0,.13,0h44.72s.08,0,.13,0,.09,0,.13,0h4.03s.08,0,.13,0,.09,0,.13,0h2.67v2.14c0,.59.48,1.07,1.07,1.07h3.63c.59,0,1.07-.48,1.07-1.07v-2.14h1.5c3.44,0,6.24-2.8,6.24-6.24v-48.47c0-2.09-1.03-4.02-2.74-5.15Zm-16.78,1.05h2.14v21.37h-2.14v-21.37Zm-36.37-8.36c0-1.76,1.31-3.19,2.93-3.19h19.78c1.62,0,2.93,1.43,2.93,3.19v6.22h-1.16v-5.85c0-1.34-1.09-2.43-2.43-2.43h-18.46c-1.34,0-2.43,1.09-2.43,2.43v5.85h-1.16v-6.22Zm22.33.36v5.85h-19.03v-5.85c0-.16.13-.29.29-.29h18.46c.16,0,.29.13.29.29Zm-35.22,8h2.14v21.37h-2.14v-21.37Zm-2.16,59.87h-1.48v-1.07h1.48v1.07Zm.02-3.21h-8.99c-2.26,0-4.1-1.84-4.1-4.1v-48.47c0-2.26,1.84-4.1,4.1-4.1h8.99v21.37h-2.68c-.59,0-1.07.48-1.07,1.07v11.78c0,.59.48,1.07,1.07,1.07h2.68v21.38Zm4.28,0h-2.14v-21.38h2.14v21.38Zm-5.89-23.52v-9.63h3.75v3.75c0,.59.48,1.07,1.07,1.07s1.07-.48,1.07-1.07v-3.75h3.75v9.63h-9.63Zm50.86,23.52h-42.83v-21.38h2.68c.59,0,1.07-.48,1.07-1.07v-11.78c0-.59-.48-1.07-1.07-1.07h-2.68v-21.37h42.83v21.37h-2.68c-.59,0-1.07.48-1.07,1.07v11.78c0,.59.48,1.07,1.07,1.07h2.68v21.38Zm4.28,0h-2.14v-21.38h2.14v21.38Zm-5.89-23.52v-9.63h3.75v3.75c0,.59.48,1.07,1.07,1.07s1.07-.48,1.07-1.07v-3.75h3.75v9.63h-9.63Zm13.39,26.73h-1.49v-1.07h1.49v1.07Zm7.74-7.31c0,2.26-1.84,4.1-4.1,4.1h-8.99v-21.38h2.68c.59,0,1.07-.48,1.07-1.07v-11.78c0-.59-.48-1.07-1.07-1.07h-2.68v-21.37h8.99c.82,0,1.61.25,2.31.73,1.12.74,1.79,2,1.79,3.37v48.47Z"></path>
</svg>
