<?xml version="1.0" encoding="UTF-8"?>
<svg xmlns="http://www.w3.org/2000/svg" id="VENTE" viewBox="0 0 120 120">
  <defs>
    <style>
      .cls-1 {
        fill: #fff;
      }

      .cls-2 {
        fill: #d50732;
      }
    </style>
  </defs>
  <rect class="cls-2" x=".29" y=".16" width="119.93" height="119.93"></rect>
  <g>
    <path class="cls-1" d="m78.45,100.15H31.05c-.4,0-.78-.16-1.06-.45-.28-.29-.43-.68-.42-1.08l2.03-62.36c.03-.8.68-1.43,1.48-1.43h47.4c.4,0,.78.16,1.06.45.28.29.43.68.42,1.08l-2.03,62.36c-.03.8-.68,1.43-1.48,1.43Zm-45.87-2.96h44.44l1.93-59.4h-44.44l-1.93,59.4Z"></path>
    <path class="cls-1" d="m85.72,38.1h-3.97c-.82,0-1.48-.66-1.48-1.48s.66-1.48,1.48-1.48h3.97c.82,0,1.48.66,1.48,1.48s-.66,1.48-1.48,1.48Z"></path>
    <path class="cls-1" d="m89.91,100.15c-.77,0-1.42-.6-1.47-1.38l-4.19-62.05c-.06-.81.56-1.52,1.37-1.57.8-.03,1.52.56,1.57,1.37l4.19,62.05c.06.81-.56,1.52-1.37,1.57-.03,0-.07,0-.1,0Z"></path>
    <path class="cls-1" d="m89.91,100.15h-11.46c-.82,0-1.48-.66-1.48-1.48s.66-1.48,1.48-1.48h11.46c.82,0,1.48.66,1.48,1.48s-.66,1.48-1.48,1.48Z"></path>
    <path class="cls-1" d="m84.25,94.97c-.82,0-1.48-.66-1.48-1.48v-17.98c0-.82.66-1.48,1.48-1.48s1.48.66,1.48,1.48v17.98c0,.82-.66,1.48-1.48,1.48Z"></path>
    <path class="cls-1" d="m66.98,41.65c-.82,0-1.48-.66-1.48-1.48v-13.7c0-4.61-3.75-8.37-8.37-8.37h-1.26c-4.61,0-8.36,3.75-8.36,8.37v13.7c0,.82-.66,1.48-1.48,1.48s-1.48-.66-1.48-1.48v-13.7c0-6.24,5.08-11.32,11.32-11.32h1.26c6.24,0,11.32,5.08,11.32,11.32v13.7c0,.82-.66,1.48-1.48,1.48Z"></path>
    <path class="cls-1" d="m71.75,37.39c-.82,0-1.48-.66-1.48-1.48v-9.43c0-4.61-3.75-8.37-8.37-8.37h-1.26c-4.61,0-8.37,3.75-8.37,8.37v9.43c0,.82-.66,1.48-1.48,1.48s-1.48-.66-1.48-1.48v-9.43c0-6.24,5.08-11.32,11.32-11.32h1.26c6.24,0,11.32,5.08,11.32,11.32v9.43c0,.82-.66,1.48-1.48,1.48Z"></path>
    <path class="cls-1" d="m78.45,100.15c-.41,0-.82-.17-1.11-.5-.54-.61-.48-1.55.13-2.09l5.9-5.18c.61-.54,1.55-.48,2.09.13.54.61.48,1.55-.13,2.09l-5.9,5.18c-.28.25-.63.37-.98.37Z"></path>
    <path class="cls-1" d="m89.91,100.15c-.36,0-.72-.13-1.01-.4l-5.56-5.18c-.6-.56-.63-1.49-.08-2.09.56-.6,1.49-.63,2.09-.08l5.56,5.18c.6.56.63,1.49.08,2.09-.29.31-.69.47-1.08.47Z"></path>
  </g>
</svg>
