<?xml version="1.0" encoding="UTF-8"?>
<svg xmlns="http://www.w3.org/2000/svg" xmlns:xlink="http://www.w3.org/1999/xlink" version="1.1" id="LOGO" x="0px" y="0px" viewBox="0 0 120 120" style="enable-background:new 0 0 120 120;" xml:space="preserve">
<style type="text/css">
	.st0{fill:#D50732;}
	.st1{fill:#F6BCB0;}
	.st2{fill:#FFFFFF;}
</style>
<rect x="-4.1" y="-1.8" class="st0" width="129.2" height="123.6"></rect>
<g>
	<path class="st1" d="M23,45.2v2.5H10.1v-2.5H23z M23,70.7v2.5H10.1v-2.5H23z M23,63.3c-0.4,0.2-1,0.3-1.5,0.3   c-1.4,0-2.6-1.5-3.9-2.7c2.1-0.3,3.7-1.9,3.7-4.1c0-3.2-2.6-4.3-5.2-4.3h-5.8V55h6.1c1.2,0,2.1,0.7,2.1,2c0,1.2-0.9,2-2.1,2h-6.1   v6.9H13V61h1.3c1.6,1.2,3.8,4.9,6.8,4.9c0.9,0,1.6-0.2,2.2-0.5L23,63.3L23,63.3z"></path>
</g>
<g>
	<path class="st2" d="M31,45h7.2c3.2,0,6.5,1.3,6.5,5.3c0,2.7-2,4.7-4.6,5.1c1.5,1.5,3.1,3.3,4.8,3.3c0.6,0,1.3-0.1,1.8-0.4l0.3,2.7   c-0.7,0.3-1.6,0.6-2.7,0.6c-3.7,0-6.4-4.6-8.4-6.1h-1.6v5.9H31L31,45L31,45z M34.3,48v4.9h4.2c1.5,0,2.7-0.9,2.7-2.4   c0-1.6-1.1-2.5-2.7-2.5H34.3z"></path>
	<path class="st2" d="M49.7,61.4V45h13v3h-9.7v3.5h8v3h-8v4h9.7v3C62.6,61.4,49.7,61.4,49.7,61.4z"></path>
	<path class="st2" d="M66.4,45h3.4v16.4h-3.4C66.4,61.4,66.4,45,66.4,45z"></path>
	<path class="st2" d="M89.5,50.3L84,56.9h-0.6L78,50.3v11h-3.4V45h3l6.1,7.3l6.1-7.3h3v16.4h-3.4V50.3z"></path>
	<path class="st2" d="M100.4,54.2c-2.5-0.7-3.8-2.2-3.8-4.4c0-2.7,2.1-5,6.6-5c2.4,0,4.6,0.6,5.9,1.3l-1,3.2c-1.2-0.8-3.2-1.4-5-1.4   c-2.1,0-2.9,0.7-2.9,1.6c0,0.9,0.6,1.2,1.8,1.6l3,0.9c3,0.8,4.4,2.2,4.4,4.5c0,3.1-2.7,5.2-6.7,5.2c-2.4,0-4.7-0.8-5.8-1.4l0.8-3.2   c1.2,0.8,3.1,1.5,5.1,1.5s3.1-0.8,3.1-1.8c0-0.9-0.9-1.3-2.3-1.7L100.4,54.2L100.4,54.2z"></path>
</g>
<g>
	<path class="st2" d="M38.7,72.4c-0.8,0.7-2.1,1.4-3.5,1.4c-2.5,0-4.3-1.6-4.3-4.3s1.8-4.4,4.3-4.4c2.2,0,3.4,1.2,3.5,3.2l-1.6,0.3   c0-1.2-0.6-1.9-1.9-1.9c-1.5,0-2.5,1-2.5,2.8s1,2.7,2.6,2.7c1,0,2-0.5,2.6-1.1L38.7,72.4z"></path>
	<path class="st2" d="M44.5,65c2.5,0,4.4,1.9,4.4,4.4s-1.9,4.3-4.4,4.3s-4.3-1.9-4.3-4.3S42,65,44.5,65z M44.5,72.1   c1.5,0,2.6-1.2,2.6-2.7s-1.1-2.7-2.6-2.7s-2.6,1.2-2.6,2.7S42.9,72.1,44.5,72.1z"></path>
	<path class="st2" d="M58.5,67.9l-2.8,3.4h-0.3l-2.8-3.4v5.7h-1.7v-8.5h1.6l3.2,3.8l3.2-3.8h1.6v8.5h-1.7L58.5,67.9L58.5,67.9z"></path>
	<path class="st2" d="M70.4,67.9l-2.8,3.4h-0.3l-2.8-3.4v5.7h-1.7v-8.5h1.6l3.2,3.8l3.2-3.8h1.6v8.5h-1.7L70.4,67.9L70.4,67.9z"></path>
	<path class="st2" d="M74.6,73.6v-8.5h6.7v1.5h-5v1.8h4.1V70h-4.1v2h5v1.5H74.6z"></path>
	<path class="st2" d="M83.3,65.1H87c1.7,0,3.4,0.7,3.4,2.8c0,1.4-1,2.4-2.4,2.6c0.8,0.8,1.6,1.7,2.5,1.7c0.3,0,0.7-0.1,0.9-0.2   l0.2,1.4c-0.3,0.2-0.8,0.3-1.4,0.3c-1.9,0-3.3-2.4-4.3-3.2H85v3.1h-1.7L83.3,65.1L83.3,65.1z M85,66.7v2.5h2.2   c0.8,0,1.4-0.5,1.4-1.3c0-0.8-0.6-1.3-1.4-1.3H85z"></path>
	<path class="st2" d="M100.1,72.4c-0.8,0.7-2.1,1.4-3.5,1.4c-2.5,0-4.3-1.6-4.3-4.3s1.8-4.4,4.3-4.4c2.2,0,3.4,1.2,3.5,3.2l-1.6,0.3   c0-1.2-0.6-1.9-1.9-1.9c-1.5,0-2.5,1-2.5,2.8s1,2.7,2.6,2.7c1.1,0,2-0.5,2.6-1.1L100.1,72.4z"></path>
	<path class="st2" d="M102,73.6v-8.5h6.7v1.5h-5v1.8h4.1V70h-4.1v2h5v1.5H102z"></path>
</g>
</svg>
