<?xml version="1.0" encoding="UTF-8"?>
<svg xmlns="http://www.w3.org/2000/svg" id="COMMERCE" viewBox="0 0 120 120">
  <defs>
    <style>
      .cls-1 {
        fill: #fff;
      }

      .cls-2 {
        fill: #d50732;
      }
    </style>
  </defs>
  <rect class="cls-2" x=".11" y=".11" width="119.93" height="119.93"></rect>
  <g>
    <path class="cls-1" d="m63.68,50.58h-11.84c-.43,0-.85-.19-1.14-.51-.29-.33-.43-.76-.38-1.19l2.3-20.71c.09-.84.85-1.47,1.69-1.35.84.09,1.45.85,1.35,1.69l-2.11,19.01h10.12c.85,0,1.53.69,1.53,1.53s-.69,1.53-1.53,1.53Z"></path>
    <path class="cls-1" d="m69.6,50.58c-.77,0-1.43-.58-1.52-1.36l-2.3-20.71c-.09-.84.51-1.6,1.35-1.69.85-.12,1.6.51,1.69,1.35l2.3,20.71c.09.84-.51,1.6-1.35,1.69-.06,0-.12,0-.17,0Z"></path>
    <path class="cls-1" d="m66.64,23.94h-11.84c-.85,0-1.53-.69-1.53-1.53s.69-1.53,1.53-1.53h11.84c.85,0,1.53.69,1.53,1.53s-.69,1.53-1.53,1.53Z"></path>
    <path class="cls-1" d="m45.93,50.58h-11.84c-.49,0-.96-.24-1.24-.64s-.37-.91-.21-1.38l6.9-20.71c.27-.8,1.13-1.23,1.94-.97.8.27,1.24,1.14.97,1.94l-6.23,18.7h9.71c.85,0,1.53.69,1.53,1.53s-.69,1.53-1.53,1.53Z"></path>
    <path class="cls-1" d="m51.85,50.58c-.06,0-.11,0-.17,0-.84-.09-1.45-.85-1.35-1.69l2.3-20.71c.09-.84.85-1.47,1.69-1.35.84.09,1.45.85,1.35,1.69l-2.3,20.71c-.09.78-.75,1.36-1.52,1.36Z"></path>
    <path class="cls-1" d="m54.8,23.94h-11.84c-.85,0-1.53-.69-1.53-1.53s.69-1.53,1.53-1.53h11.84c.85,0,1.53.69,1.53,1.53s-.69,1.53-1.53,1.53Z"></path>
    <path class="cls-1" d="m28.17,50.58h-11.83c-.54,0-1.05-.29-1.32-.76-.28-.47-.28-1.05-.02-1.52l14.8-26.63c.27-.49.78-.79,1.34-.79h11.83c.85,0,1.53.69,1.53,1.53s-.69,1.53-1.53,1.53h-10.93l-13.09,23.57h9.23c.85,0,1.53.69,1.53,1.53s-.69,1.53-1.53,1.53Z"></path>
    <path class="cls-1" d="m34.09,50.58c-.16,0-.32-.03-.48-.08-.8-.27-1.24-1.14-.97-1.94l6.9-20.71c.27-.8,1.13-1.23,1.94-.97.8.27,1.24,1.14.97,1.94l-6.9,20.71c-.22.64-.81,1.05-1.45,1.05Z"></path>
    <path class="cls-1" d="m78.48,23.94h-11.84c-.85,0-1.53-.69-1.53-1.53s.69-1.53,1.53-1.53h11.84c.85,0,1.53.69,1.53,1.53s-.69,1.53-1.53,1.53Z"></path>
    <path class="cls-1" d="m87.35,50.58c-.64,0-1.24-.4-1.45-1.05l-6.9-20.71c-.27-.8.17-1.67.97-1.94.81-.27,1.67.17,1.94.97l6.9,20.71c.27.8-.17,1.67-.97,1.94-.16.05-.33.08-.48.08Z"></path>
    <path class="cls-1" d="m81.44,50.58h-11.84c-.78,0-1.44-.59-1.52-1.36l-2.3-20.71c-.09-.84.51-1.6,1.35-1.69.85-.12,1.6.51,1.69,1.35l2.15,19.35h10.47c.85,0,1.53.69,1.53,1.53s-.69,1.53-1.53,1.53Z"></path>
    <path class="cls-1" d="m105.11,50.58c-.54,0-1.06-.28-1.34-.79l-14.36-25.84h-10.93c-.85,0-1.53-.69-1.53-1.53s.69-1.53,1.53-1.53h11.84c.56,0,1.07.3,1.34.79l14.8,26.63c.41.74.15,1.67-.59,2.08-.24.13-.49.19-.74.19Z"></path>
    <path class="cls-1" d="m99.19,50.58h-11.84c-.66,0-1.24-.42-1.45-1.05l-6.9-20.71c-.27-.8.17-1.67.97-1.94.81-.27,1.67.17,1.94.97l6.55,19.67h10.73c.85,0,1.53.69,1.53,1.53s-.69,1.53-1.53,1.53Z"></path>
    <path class="cls-1" d="m60.72,62.41c-5.74,0-10.41-4.67-10.41-10.41v-2.96c0-.85.69-1.53,1.53-1.53h11.84c.85,0,1.53.69,1.53,1.53s-.69,1.53-1.53,1.53h-10.3v1.43c0,4.05,3.3,7.35,7.35,7.35s7.34-3.3,7.34-7.35v-2.96c0-.85.69-1.53,1.53-1.53s1.53.69,1.53,1.53v2.96c0,5.74-4.67,10.41-10.41,10.41Z"></path>
    <path class="cls-1" d="m42.97,62.41c-5.74,0-10.41-4.67-10.41-10.41v-2.96c0-.85.69-1.53,1.53-1.53h11.84c.85,0,1.53.69,1.53,1.53s-.69,1.53-1.53,1.53h-10.3v1.43c0,4.05,3.29,7.35,7.34,7.35s7.35-3.3,7.35-7.35v-2.96c0-.85.69-1.53,1.53-1.53s1.53.69,1.53,1.53v2.96c0,5.74-4.67,10.41-10.41,10.41Z"></path>
    <path class="cls-1" d="m78.48,62.41c-5.74,0-10.41-4.67-10.41-10.41v-2.96c0-.85.69-1.53,1.53-1.53h11.84c.85,0,1.53.69,1.53,1.53s-.69,1.53-1.53,1.53h-10.3v1.43c0,4.05,3.3,7.35,7.35,7.35s7.34-3.3,7.34-7.35v-2.96c0-.85.69-1.53,1.53-1.53s1.53.69,1.53,1.53v2.96c0,5.74-4.67,10.41-10.41,10.41Z"></path>
    <path class="cls-1" d="m96.23,62.41c-5.74,0-10.41-4.67-10.41-10.41v-2.96c0-.85.69-1.53,1.53-1.53h11.84c.85,0,1.53.69,1.53,1.53s-.69,1.53-1.53,1.53h-10.3v1.43c0,4.05,3.3,7.35,7.35,7.35s7.35-3.3,7.35-7.35v-2.96c0-.85.69-1.53,1.53-1.53s1.53.69,1.53,1.53v2.96c0,5.74-4.67,10.41-10.41,10.41Z"></path>
    <path class="cls-1" d="m25.21,62.41c-5.74,0-10.41-4.67-10.41-10.41v-2.96c0-.85.69-1.53,1.53-1.53h11.83c.85,0,1.53.69,1.53,1.53s-.69,1.53-1.53,1.53h-10.3v1.43c0,4.05,3.29,7.35,7.34,7.35s7.35-3.3,7.35-7.35v-2.96c0-.85.69-1.53,1.53-1.53s1.53.69,1.53,1.53v2.96c0,5.74-4.67,10.41-10.41,10.41Z"></path>
    <path class="cls-1" d="m105.11,100.88H16.34c-.85,0-1.53-.69-1.53-1.53s.69-1.53,1.53-1.53h88.77c.85,0,1.53.69,1.53,1.53s-.69,1.53-1.53,1.53Z"></path>
    <path class="cls-1" d="m22.26,100.88c-.85,0-1.53-.69-1.53-1.53v-38.99c0-.85.69-1.53,1.53-1.53s1.53.69,1.53,1.53v38.99c0,.85-.69,1.53-1.53,1.53Z"></path>
    <path class="cls-1" d="m99.19,100.88c-.85,0-1.53-.69-1.53-1.53v-38.99c0-.85.69-1.53,1.53-1.53s1.53.69,1.53,1.53v38.99c0,.85-.69,1.53-1.53,1.53Z"></path>
    <path class="cls-1" d="m44.45,100.88h-22.19c-.85,0-1.53-.69-1.53-1.53v-32.55c0-.85.69-1.53,1.53-1.53h22.19c.85,0,1.53.69,1.53,1.53v32.55c0,.85-.69,1.53-1.53,1.53Zm-20.66-3.06h19.13v-29.49h-19.13v29.49Z"></path>
    <path class="cls-1" d="m38.53,86.08c-.85,0-1.53-.69-1.53-1.53v-2.96c0-.85.69-1.53,1.53-1.53s1.53.69,1.53,1.53v2.96c0,.85-.69,1.53-1.53,1.53Z"></path>
    <path class="cls-1" d="m99.19,94.96h-48.83c-.85,0-1.53-.69-1.53-1.53v-26.63c0-.85.69-1.53,1.53-1.53h48.83c.85,0,1.53.69,1.53,1.53v26.63c0,.85-.69,1.53-1.53,1.53Zm-47.29-3.06h45.76v-23.57h-45.76v23.57Z"></path>
    <g>
      <path class="cls-1" d="m68,85c-.22,0-.44-.05-.65-.14-.77-.36-1.1-1.27-.74-2.04l3.13-6.71c.36-.76,1.26-1.1,2.04-.74.77.36,1.1,1.27.74,2.04l-3.13,6.71c-.26.56-.81.88-1.39.88Z"></path>
      <path class="cls-1" d="m75.31,88.35c-.22,0-.44-.05-.65-.14-.77-.36-1.1-1.27-.74-2.04l6.25-13.41c.36-.77,1.27-1.1,2.04-.74.77.36,1.1,1.27.74,2.04l-6.25,13.41c-.26.56-.81.88-1.39.88Z"></path>
    </g>
  </g>
</svg>
