<?xml version="1.0" encoding="UTF-8"?>
<svg xmlns="http://www.w3.org/2000/svg" id="FORMATION" viewBox="0 0 120 120">
  <defs>
    <style>
      .cls-1 {
        fill: #fff;
      }

      .cls-2 {
        fill: #d50732;
      }
    </style>
  </defs>
  <rect class="cls-2" x=".16" y=".23" width="119.93" height="119.93"></rect>
  <g>
    <path class="cls-1" d="m48.79,35.14c-4.46,0-8.08-3.62-8.08-8.08s3.63-8.08,8.08-8.08,8.08,3.62,8.08,8.08-3.63,8.08-8.08,8.08Zm0-13.89c-3.21,0-5.81,2.61-5.81,5.81s2.61,5.81,5.81,5.81,5.81-2.61,5.81-5.81-2.61-5.81-5.81-5.81Z"></path>
    <path class="cls-1" d="m27.15,103.98c-.63,0-1.13-.51-1.13-1.13v-8.34c0-.63.51-1.13,1.13-1.13h23.5v-5.69c0-.63.51-1.13,1.13-1.13h24v-6.95c0-.63.51-1.13,1.13-1.13h24.5c.63,0,1.13.51,1.13,1.13s-.51,1.13-1.13,1.13h-23.37v6.95c0,.63-.51,1.13-1.13,1.13h-24v5.69c0,.63-.51,1.13-1.13,1.13h-23.5v7.2c0,.63-.51,1.13-1.13,1.13Z"></path>
    <path class="cls-1" d="m77,76.69c-.63,0-1.13-.51-1.13-1.13v-33.98c0-.63.51-1.13,1.13-1.13h19.2c.41,0,.78.22.99.57s.2.79-.01,1.14l-4.47,7.53,3.74,7.02c.19.35.18.78-.03,1.12-.2.34-.57.55-.97.55h-17.31v17.18c0,.63-.51,1.13-1.13,1.13Zm1.13-20.58h15.42l-3.15-5.91c-.19-.35-.18-.77.03-1.11l3.78-6.37h-16.07v13.39Z"></path>
    <path class="cls-1" d="m64.29,82.88h-5.77c-.55,0-1.03-.4-1.12-.94-1.09-6.44-4.02-10.91-8.7-13.29-3.48-1.77-6.63-1.68-6.66-1.68-.3.01-.61-.1-.83-.32-.22-.21-.35-.51-.35-.82v-15.89c-2.14,1.6-4.07,6.35-4.91,9.48-.13.5-.58.84-1.1.84h-5.43c-.56,0-1.03-.4-1.12-.95-.81-5.04.09-9.37,2.7-12.88,4.75-6.41,13.7-8.07,16.33-8.42h0c3.74-.51,5.55,2.9,5.62,3.04.08.16.13.34.13.52v19.88c8.78,2.94,12.14,12.85,12.28,13.28.04.11.06.23.06.35v6.65c0,.63-.51,1.13-1.13,1.13Zm-4.83-2.27h3.69v-5.32c-.47-1.28-3.87-9.81-11.5-11.9-.49-.13-.83-.58-.83-1.09v-20.4c-.35-.53-1.42-1.87-3.18-1.63-2.41.33-10.59,1.83-14.82,7.53-2.06,2.78-2.87,6.21-2.41,10.22h3.59c.82-2.72,3.52-10.42,7.88-10.86.32-.03.64.07.87.29.24.21.37.52.37.84v16.47c1.41.12,3.92.52,6.6,1.88,3.55,1.81,8.06,5.7,9.73,13.99Z"></path>
    <path class="cls-1" d="m57.13,59.14c-.6,0-1.1-.47-1.13-1.07-.04-.63.44-1.16,1.07-1.2l3.22-.18c.77-.04,1.41-.5,1.71-1.22.3-.72.16-1.49-.36-2.07l-5.35-5.93c-.42-.46-.38-1.18.08-1.6.47-.42,1.18-.38,1.6.08l5.35,5.93c1.1,1.22,1.4,2.93.77,4.45-.63,1.52-2.04,2.52-3.68,2.62l-3.22.18s-.04,0-.06,0Z"></path>
    <path class="cls-1" d="m39.01,88.73c-.5,0-1.02-.08-1.52-.25-1.23-.42-2.24-1.34-2.77-2.52-.53-1.18-.54-2.55-.04-3.75l5.2-12.27c.24-.58.91-.85,1.49-.6.58.24.85.91.6,1.49l-5.2,12.27c-.27.63-.26,1.31.02,1.93.28.62.79,1.08,1.43,1.3,1.19.4,2.48-.16,2.99-1.31l5.13-11.56c.25-.57.92-.83,1.5-.58.57.25.83.92.58,1.5l-5.13,11.56c-.77,1.74-2.46,2.79-4.27,2.79Z"></path>
  </g>
</svg>
