<?xml version="1.0" encoding="UTF-8"?>
<svg xmlns="http://www.w3.org/2000/svg" id="b5c24cee-7188-4a15-ba3c-d68b56c48451" data-name="Calque 1" viewBox="0 0 90 90">
  <defs>
    <style>.f15e47cc-80ab-49f3-b4c7-621688eadb21{fill:#987018;}</style>
  </defs>
  <path class="f15e47cc-80ab-49f3-b4c7-621688eadb21" d="M66.16,89.51H24.94v-88H66.16ZM26.87,3.44V87.58H64.23V3.44"></path>
  <path class="f15e47cc-80ab-49f3-b4c7-621688eadb21" d="M37.61,71.81h.67l.53,1.4.56-1.4h.68l.4,2.62h-.68l-.19-1.51h0l-.63,1.51h-.27l-.6-1.51h0l-.22,1.51h-.67Z"></path>
  <path class="f15e47cc-80ab-49f3-b4c7-621688eadb21" d="M41.4,74l-.18.45H40.5l1-2.62h.74l1,2.62h-.73L42.34,74Zm.48-1.36h0l-.28.84h.57Z"></path>
  <path class="f15e47cc-80ab-49f3-b4c7-621688eadb21" d="M44.13,74.43h-.68V71.81h.68Z"></path>
  <path class="f15e47cc-80ab-49f3-b4c7-621688eadb21" d="M46,72.49a.71.71,0,0,0-.45-.18c-.13,0-.29.08-.29.22s.18.21.3.25l.17,0c.37.11.65.3.65.72a.9.9,0,0,1-.27.7,1.13,1.13,0,0,1-.75.25,1.6,1.6,0,0,1-.92-.3l.3-.55a.92.92,0,0,0,.6.27c.16,0,.33-.08.33-.26s-.27-.26-.41-.3c-.43-.12-.71-.23-.71-.74a.85.85,0,0,1,.9-.88,1.83,1.83,0,0,1,.82.22Z"></path>
  <path class="f15e47cc-80ab-49f3-b4c7-621688eadb21" d="M49.47,73.07A1.45,1.45,0,1,1,48,71.73,1.39,1.39,0,0,1,49.47,73.07Zm-2.18,0a.74.74,0,1,0,1.48,0,.74.74,0,0,0-1.48,0Z"></path>
  <path class="f15e47cc-80ab-49f3-b4c7-621688eadb21" d="M49.79,71.81h.68l1.25,1.6h0v-1.6h.68v2.62h-.68l-1.24-1.6h0v1.6h-.68Z"></path>
  <path class="f15e47cc-80ab-49f3-b4c7-621688eadb21" d="M37,76.86a.71.71,0,0,0-.59-.29.69.69,0,0,0-.7.73.68.68,0,0,0,.71.71.77.77,0,0,0,.58-.28v.82a1.83,1.83,0,0,1-.6.12,1.45,1.45,0,0,1-1-.39,1.27,1.27,0,0,1-.42-1,1.38,1.38,0,0,1,.39-1,1.4,1.4,0,0,1,1-.42A1.64,1.64,0,0,1,37,76Z"></path>
  <path class="f15e47cc-80ab-49f3-b4c7-621688eadb21" d="M40.21,77.24a1.45,1.45,0,0,1-2.9,0,1.45,1.45,0,0,1,2.9,0Zm-2.19,0a.74.74,0,1,0,1.48,0,.74.74,0,0,0-1.48,0Z"></path>
  <path class="f15e47cc-80ab-49f3-b4c7-621688eadb21" d="M40.81,76h.67l.53,1.4.57-1.4h.67l.4,2.62H43l-.19-1.51h0l-.63,1.51h-.27l-.6-1.51h0L41,78.6h-.67Z"></path>
  <path class="f15e47cc-80ab-49f3-b4c7-621688eadb21" d="M44.22,76h.67l.54,1.4L46,76h.67l.4,2.62h-.68l-.19-1.51h0l-.63,1.51h-.27l-.6-1.51h0l-.22,1.51h-.68Z"></path>
  <path class="f15e47cc-80ab-49f3-b4c7-621688eadb21" d="M49.62,76v1.47a1.17,1.17,0,0,1-.28.93,1.25,1.25,0,0,1-.86.29,1.27,1.27,0,0,1-.87-.29,1.21,1.21,0,0,1-.28-.93V76H48v1.38c0,.34,0,.71.46.71s.46-.37.46-.71V76Z"></path>
  <path class="f15e47cc-80ab-49f3-b4c7-621688eadb21" d="M50.05,76h.68L52,77.58h0V76h.68V78.6H52L50.74,77h0V78.6h-.68Z"></path>
  <path class="f15e47cc-80ab-49f3-b4c7-621688eadb21" d="M53.79,76.56V77h.77v.58h-.77V78h.81v.58H53.11V76H54.6v.58Z"></path>
  <path class="f15e47cc-80ab-49f3-b4c7-621688eadb21" d="M30.16,80.15h1a1.31,1.31,0,1,1,0,2.61h-1Zm.68,2H31a.74.74,0,1,0,0-1.47h-.16Z"></path>
  <path class="f15e47cc-80ab-49f3-b4c7-621688eadb21" d="M35,80.15v1.47a1.18,1.18,0,0,1-.27.92,1.45,1.45,0,0,1-1.74,0,1.18,1.18,0,0,1-.27-.92V80.15h.68v1.37c0,.34,0,.72.46.72s.46-.38.46-.72V80.15Z"></path>
  <path class="f15e47cc-80ab-49f3-b4c7-621688eadb21" d="M38.53,81a.73.73,0,0,0-.59-.28.69.69,0,0,0-.7.72.68.68,0,0,0,.71.71.76.76,0,0,0,.58-.27v.81a1.83,1.83,0,0,1-.6.12,1.48,1.48,0,0,1-1-.38,1.27,1.27,0,0,1-.42-1,1.38,1.38,0,0,1,.39-1,1.4,1.4,0,0,1,1-.42,1.64,1.64,0,0,1,.62.13Z"></path>
  <path class="f15e47cc-80ab-49f3-b4c7-621688eadb21" d="M40.62,81.16v-1h.68v2.61h-.68V81.69h-1v1.07H39V80.15h.68v1Z"></path>
  <path class="f15e47cc-80ab-49f3-b4c7-621688eadb21" d="M42.42,80.72v.44h.77v.58h-.77v.45h.81v.57H41.74V80.15h1.49v.57Z"></path>
  <path class="f15e47cc-80ab-49f3-b4c7-621688eadb21" d="M43.94,80.15h.67l.53,1.4.56-1.4h.68l.4,2.61H46.1l-.2-1.5h0l-.63,1.5H45l-.6-1.5h0l-.22,1.5H43.5Z"></path>
  <path class="f15e47cc-80ab-49f3-b4c7-621688eadb21" d="M47.74,82.76h-.68V80.15h.68Z"></path>
  <path class="f15e47cc-80ab-49f3-b4c7-621688eadb21" d="M48.19,80.15h.68l1.25,1.6h0v-1.6h.68v2.61h-.68l-1.24-1.6h0v1.6h-.68Z"></path>
  <path class="f15e47cc-80ab-49f3-b4c7-621688eadb21" d="M53.53,81.74l.64-1.59h.74l-1.12,2.61h-.53l-1.1-2.61h.74Z"></path>
  <path class="f15e47cc-80ab-49f3-b4c7-621688eadb21" d="M55.76,80.72v.44h.77v.58h-.77v.45h.81v.57H55.08V80.15h1.49v.57Z"></path>
  <path class="f15e47cc-80ab-49f3-b4c7-621688eadb21" d="M59.17,82.76h-.85l-.64-1h0v1H57V80.15h1c.51,0,.91.24.91.8a.71.71,0,0,1-.58.74Zm-1.5-1.44h.07c.22,0,.47,0,.47-.33s-.25-.32-.47-.32h-.07Z"></path>
  <path class="f15e47cc-80ab-49f3-b4c7-621688eadb21" d="M60.39,82.76h-.68v-2h-.56v-.57H61v.57h-.56Z"></path>
  <path class="f15e47cc-80ab-49f3-b4c7-621688eadb21" d="M43.88,27.54H43.7V27l-.37-.89v1.4h-.19V25.69l-.37-.89v2.74h-.19V24.35l-.37-.88v4.09H42V23l-.37-.88v5.43h-.19V21.68l-.37-.89v6.77h-.2V20.34l-.35-.89v8.11h-.21V19L40,18.12v9.44h-.18V17.64l-.38-.88v10.8h-.18V16.3l-.37-.88V27.56h-.19V15l-.37-.89V27.56h-.18V13.63l-.37-.89V27.56h-.19V12.29l-.33-.76v16h-.18V11.16h0l3.4,0,5.1,12-.35.88h.18v3.48h-.18V24.08l-.54,1.38h.17v2.1h-.19v-2Zm.25,0V27h.18v.57Zm1.67,0v-5H46v5Zm.55,0V21.14h.19v6.42Zm.56,0V19.82h.18v7.74Zm.55,0V18.44h.19v9.12Zm.56,0V17h.2v10.6Zm.55,0V15.38h.21V27.56Zm.58,0V14h.18v13.6Zm.56,0v-15h.18v15Zm.49-16.38,3.35,0-.06,16.44-3.35,0Z"></path>
  <path class="f15e47cc-80ab-49f3-b4c7-621688eadb21" d="M47.4,51.73v12l.12.21L45.65,68.2,37.73,51.73h3.43l.44,1v-1h.18V53l.37.72v-2h.19V54.1l.37.72V51.73h.2v3.44l.37.72V51.73h.19v4.51l.37.72V51.73H44v5.6l.37.7v-6.3h.2V58.4l.37.7V51.73h.19v7.74l.37.7V51.73h.18v8.81l.37.7V51.73h.21v9.88l.37.7V51.73h.19v11l.37.7V51.73Zm.37,10.85V51.73H48V62.58Zm.58-1.48V51.73h.18V61.1ZM49,59.33v-7.6h.19v7.6Zm.56-1.59v-6h.21v6Zm.58-1.52V51.73h.18v4.49Zm.55-1.48v-3h.19v3Zm.56-1.65V51.73h.2v1.36Zm.57-1.36H52v.33h-.19Z"></path>
  <path class="f15e47cc-80ab-49f3-b4c7-621688eadb21" d="M32.55,34A7.69,7.69,0,0,1,38,31.55,8.64,8.64,0,0,1,44,34l-2.35,2.42a4.64,4.64,0,0,0-3.23-1.52v9.72h0l0,3.43h-.12a8,8,0,0,1-5.89-2.43A7.85,7.85,0,0,1,32.55,34Zm1.18,3.87a4.73,4.73,0,0,0-.37,1.87,4.44,4.44,0,0,0,.37,1.83Zm.55-1a4.92,4.92,0,0,0-.37.59V42a4.36,4.36,0,0,0,.37.6Zm.19,6,.18.19.19.2v-7c-.08.08-.21.22-.37.41Zm.76.69.18.15V35.73L35,36v7.35A1.26,1.26,0,0,1,35.23,43.52Zm.37-7.92v8.19A2.68,2.68,0,0,0,36,44V35.4Zm.58-.31V44.1l.37.15v-9.1Zm.74-.27-.19,0v9.24a3.12,3.12,0,0,0,.37.1V35Zm.55-.11-.18.05v9.49a1.15,1.15,0,0,0,.37.06V34.88Zm.58,9.63a.6.6,0,0,1,.18,0V34.86h-.37v9.67Z"></path>
  <path class="f15e47cc-80ab-49f3-b4c7-621688eadb21" d="M49.91,34a7.68,7.68,0,0,1,5.46-2.45,8.64,8.64,0,0,1,6,2.41L59,36.38a4.66,4.66,0,0,0-3.23-1.52v9.72h0l0,3.43h-.12a8,8,0,0,1-5.89-2.43A7.85,7.85,0,0,1,49.91,34Zm1.18,3.87a4.74,4.74,0,0,0-.38,1.87,4.44,4.44,0,0,0,.38,1.83Zm.55-1a3.92,3.92,0,0,0-.37.59V42a3.57,3.57,0,0,0,.37.6Zm.19,6L52,43l.19.2v-7a4.54,4.54,0,0,0-.37.41Zm.76.69.18.15V35.73l-.37.3v7.35A2.12,2.12,0,0,1,52.59,43.52ZM53,35.6v8.19a2.18,2.18,0,0,0,.37.21V35.4A3.5,3.5,0,0,0,53,35.6Zm.57-.31V44.1l.37.15v-9.1Zm.75-.27-.19,0v9.24a2.68,2.68,0,0,0,.37.1V35Zm.55-.11-.18.05v9.49a1.15,1.15,0,0,0,.37.06V34.88Zm.58,9.63a.6.6,0,0,1,.18,0V34.86h-.37v9.67Z"></path>
</svg>
