<?xml version="1.0" encoding="UTF-8"?>
<svg xmlns="http://www.w3.org/2000/svg" xmlns:xlink="http://www.w3.org/1999/xlink" viewBox="0 0 90 90">
  <defs>
    <style>.eed8cbc0-b681-4f72-b2f5-e10f93adad22{isolation:isolate;}.e9efa290-9f10-42c5-b3bf-ade078efbeea{fill:#987018;}.b53f1c92-b130-4168-ad72-f4d8b39e94e1{mix-blend-mode:multiply;fill:url(#bf4d7608-1a98-4cd3-9fc4-4d236e484cd1);}.f52e26b3-1c2a-40b2-bc38-31c67f74b364{fill:#c1a974;}.e7fafa2a-24bc-4184-994e-a1de64816b48{fill:#ad8d46;}</style>
    <radialGradient id="bf4d7608-1a98-4cd3-9fc4-4d236e484cd1" cx="45.66" cy="-270.25" r="29.12" gradientTransform="translate(11.22 87.41) scale(0.74 0.12)" gradientUnits="userSpaceOnUse">
      <stop offset="0" stop-color="#d3d3d5"></stop>
      <stop offset="0.47" stop-color="#f2f1f3"></stop>
      <stop offset="1" stop-color="#fff"></stop>
    </radialGradient>
  </defs>
  <g class="eed8cbc0-b681-4f72-b2f5-e10f93adad22">
    <g id="b8aed707-5794-48e0-bcaf-683e019e1935" data-name="Calque 1">
      <path class="e9efa290-9f10-42c5-b3bf-ade078efbeea" d="M11.1,72.67l2.83-11.4h2.8l2.74,11.4H17.39l-.55-2.4h-3l-.62,2.4Zm3.11-4.33h2.17l-1.06-4.61h0Z"></path>
      <path class="e9efa290-9f10-42c5-b3bf-ade078efbeea" d="M26.17,72.67,24.27,68h-1v4.64H21.05V61.27h3.16c2.62,0,3.87,1.26,3.87,3.41a2.75,2.75,0,0,1-1.73,2.9l2.15,5.09Zm-2.94-6.44h1.12a1.58,1.58,0,0,0,0-3.16H23.23Z"></path>
      <path class="e9efa290-9f10-42c5-b3bf-ade078efbeea" d="M32.21,69.29c0,1.26.55,1.61,1.42,1.61s1.42-.35,1.42-1.61v-.76h2.18V69c0,2.81-1.48,3.82-3.6,3.82S30,71.81,30,69V64.93c0-2.81,1.49-3.82,3.6-3.82s3.6,1,3.6,3.82v0H35.05v-.31c0-1.27-.55-1.61-1.42-1.61s-1.42.34-1.42,1.61Z"></path>
      <path class="e9efa290-9f10-42c5-b3bf-ade078efbeea" d="M39.52,72.67V61.27H41.7v4.55h3.08V61.27H47v11.4H44.78V67.74H41.7v4.93Z"></path>
      <path class="e9efa290-9f10-42c5-b3bf-ade078efbeea" d="M49.56,72.67V61.27h2.18v11.4Z"></path>
      <path class="e9efa290-9f10-42c5-b3bf-ade078efbeea" d="M53.48,61.27h2.14l2,8.14h0l2-8.14h2.13l-2.9,11.4H56.4Z"></path>
      <path class="e9efa290-9f10-42c5-b3bf-ade078efbeea" d="M63.39,72.67V61.27h6v1.92H65.57v2.63h2.89v1.92H65.57v3h4v1.93Z"></path>
      <path class="e9efa290-9f10-42c5-b3bf-ade078efbeea" d="M76.49,64.44c-.36-1.07-.83-1.53-1.59-1.53a1.12,1.12,0,0,0-1.2,1.25c0,1.72,4.86,1.84,4.86,5.41,0,2-1.34,3.25-3.63,3.25-1.77,0-3.14-1-3.73-3.2l2.15-.46C73.6,70.54,74.39,71,75,71a1.27,1.27,0,0,0,1.34-1.35c0-2.15-4.86-2.18-4.86-5.37,0-2,1.17-3.19,3.43-3.19a3.38,3.38,0,0,1,3.5,2.76Z"></path>
      <rect class="b53f1c92-b130-4168-ad72-f4d8b39e94e1" x="22.69" y="52.07" width="45" height="6.63"></rect>
      <path class="f52e26b3-1c2a-40b2-bc38-31c67f74b364" d="M24.26,16a1.75,1.75,0,0,0-.2.74V35a1.75,1.75,0,0,0,.2.74l13.66-9.87Z"></path>
      <path class="e7fafa2a-24bc-4184-994e-a1de64816b48" d="M37.92,25.91,24.26,35.78a2.06,2.06,0,0,0,.54.68l19.36,14a1.81,1.81,0,0,0,1,.31V31.16Z"></path>
      <path class="e9efa290-9f10-42c5-b3bf-ade078efbeea" d="M45.19,20.65h0V1a1.81,1.81,0,0,0-1,.31l-19.36,14a2.06,2.06,0,0,0-.54.68l13.66,9.88Z"></path>
      <path class="f52e26b3-1c2a-40b2-bc38-31c67f74b364" d="M52.46,25.9l13.66,9.88a1.73,1.73,0,0,0,.19-.74V16.77a1.73,1.73,0,0,0-.19-.74Z"></path>
      <path class="e7fafa2a-24bc-4184-994e-a1de64816b48" d="M52.46,25.9,66.12,16a2,2,0,0,0-.54-.68l-19.36-14a1.84,1.84,0,0,0-1-.31V20.65Z"></path>
      <path class="e9efa290-9f10-42c5-b3bf-ade078efbeea" d="M45.19,31.16h0V50.77a1.84,1.84,0,0,0,1-.31l19.36-14a2.06,2.06,0,0,0,.54-.68L52.46,25.9Z"></path>
      <path class="e9efa290-9f10-42c5-b3bf-ade078efbeea" d="M41.92,74.7q-.12,2.7-2.73,6A18.42,18.42,0,0,1,38,82a6.3,6.3,0,0,1-1.38,1,2.63,2.63,0,0,0,.89.5l1.62.61a5.19,5.19,0,0,0,.94.24c.29.08.56.13.79.17a7,7,0,0,0,1,.08c.13,0,.19,0,.19.08s-.07.11-.22.22a2.07,2.07,0,0,1-.6.2,3.75,3.75,0,0,1-.88,0,8,8,0,0,1-2.89-.8,9.11,9.11,0,0,1-1.55-.88.56.56,0,0,1-.24-.58.76.76,0,0,1,.38-.52,4.92,4.92,0,0,0,1.08-.85,18.53,18.53,0,0,0,1.43-1.66,11.61,11.61,0,0,0,2.28-4.68A3.82,3.82,0,0,0,40.73,73c-.18-.46-.47-.64-.85-.55a2.84,2.84,0,0,0-1.27.88c-.24.28-.48.6-.74,1s-.48.77-.72,1.21a19.17,19.17,0,0,0-1,2.23,12.08,12.08,0,0,0-.66,2.48c-.31,1.88-.51,3.14-.6,3.8-.28,1.89-.44,3-.47,3.22-.08.46-.14.85-.2,1.16a4.86,4.86,0,0,1-.08.58l-.27.05a.86.86,0,0,1-.33-.08c-.17,0-.29-.28-.36-.74,0,0,0-.13.05-.33s.06-.43.11-.75c.1-.57.21-1.33.36-2.28s.33-1.94.5-3c.2-1.32.39-2.66.58-4s.29-2.66.33-3.53c0-.53,0-1,0-1.4a2.24,2.24,0,0,0-.17-.85c-.14-.32-.41-.31-.8,0a6.93,6.93,0,0,0-1.21,1.38A12,12,0,0,0,32,75.08a8.12,8.12,0,0,0-.58,1.63,4.43,4.43,0,0,0-.08.8,1.39,1.39,0,0,0,.14.63.69.69,0,0,0,.36.36c.16,0,.21.13.13.22s-.23.1-.49.08a1.16,1.16,0,0,1-.77-.33,1.41,1.41,0,0,1-.3-1,4.3,4.3,0,0,1,.08-.8,10,10,0,0,1,1-2.67,7.45,7.45,0,0,1,1.13-1.62A4.67,4.67,0,0,1,34,71.23a1.36,1.36,0,0,1,1.51.16c.28.23.44.87.5,1.93q0,.83,0,1.38c0,.49-.07,1-.11,1.43a13.72,13.72,0,0,1,.88-1.65,10.75,10.75,0,0,1,.85-1.21A6,6,0,0,1,39,72a1.68,1.68,0,0,1,2.45.41A3.5,3.5,0,0,1,41.92,74.7Z"></path>
      <path class="e9efa290-9f10-42c5-b3bf-ade078efbeea" d="M45,82.71a1.15,1.15,0,0,1-.17.44,1.83,1.83,0,0,1-.41.44,3.48,3.48,0,0,1-.72.44,4.9,4.9,0,0,1-.55.2.47.47,0,0,0-.16.3,1.39,1.39,0,0,0,.11.6.74.74,0,0,0,.27.36.55.55,0,0,0,.47.08,1.3,1.3,0,0,0,.58-.33q.3-.27.63-.63l1-1.1.66-.83q.24-.24.27,0a.39.39,0,0,1,0,.14,2.2,2.2,0,0,1-.33.91q-.13.17-.63,1A4.9,4.9,0,0,1,44.71,86a2.47,2.47,0,0,1-.66.3,1.14,1.14,0,0,1-.39.06l-.27,0a1.16,1.16,0,0,1-.64-.3,1.82,1.82,0,0,1-.46-.58A2.51,2.51,0,0,1,42,84.25v-.38A3.64,3.64,0,0,1,42.78,82a2.4,2.4,0,0,1,.88-.71.85.85,0,0,1,1.08.33A1.32,1.32,0,0,1,45,82.71Zm-1.57,0c-.26.45-.36.72-.31.79a1.88,1.88,0,0,0,1-.71q.38-.55,0-.72C43.86,82,43.64,82.2,43.39,82.66Z"></path>
      <path class="e9efa290-9f10-42c5-b3bf-ade078efbeea" d="M47.51,82.13a.18.18,0,0,1,.09.2,3.52,3.52,0,0,0-.2.82c0,.29-.12.71-.19,1.24q0,.33,0,.63a2.24,2.24,0,0,0,0,.47.2.2,0,0,0,.11.14.3.3,0,0,0,.22,0,2,2,0,0,0,.47-.36,7.28,7.28,0,0,0,.63-.74c.5-.62.82-1,1-1.24a9.25,9.25,0,0,1,.63-.8.17.17,0,0,1,.19,0s.06.07.06.17a1,1,0,0,1-.09.49,6.45,6.45,0,0,1-.41.63c-.25.39-.54.78-.85,1.19s-.43.55-.63.77a3.84,3.84,0,0,1-.5.47,1.5,1.5,0,0,1-.66.25.9.9,0,0,1-.52-.2,1.26,1.26,0,0,1-.5-1.15,10.42,10.42,0,0,1,.06-1.27,3.24,3.24,0,0,1,.16-1.07l.17-.33a.76.76,0,0,1,.38-.31A.56.56,0,0,1,47.51,82.13Zm.09-1.29a.35.35,0,0,1-.25,0,.67.67,0,0,1-.44-.49.73.73,0,0,1,.05-.69.29.29,0,0,1,.14-.11.51.51,0,0,1,.17,0h.11q.49.06.6.36a.6.6,0,0,1-.08.58A.82.82,0,0,1,47.6,80.84Z"></path>
      <path class="e9efa290-9f10-42c5-b3bf-ade078efbeea" d="M50.91,82.71l-.22,1.65A6.57,6.57,0,0,1,51.05,83c0-.09.15-.46.35-1.13.11-.36.33-.53.64-.49s.4.21.44.58l.25,1.81c0,.15,0,.22.08.22l.22-.3c.07-.13.16-.27.27-.44s.34-.54.53-.8a1.82,1.82,0,0,1,.44-.55c.09-.14.26-.13.52.06a.74.74,0,0,1,.41.58,5.08,5.08,0,0,1-.05.79,5.11,5.11,0,0,0-.08.72,1.35,1.35,0,0,0,0,.47c0,.11.1.16.19.16s.68-.4,1.38-1.21l.77-1c.11,0,.17,0,.19.14a1.54,1.54,0,0,1,0,.19,4.56,4.56,0,0,1-.25.6c0,.08-.17.27-.39.58a8.93,8.93,0,0,1-.66.86,5,5,0,0,1-.41.46.8.8,0,0,1-1,.11,1.12,1.12,0,0,1-.55-.57,2,2,0,0,1-.08-.75c0-.13,0-.39,0-.8s0-.47-.11-.33l-.13.22c0,.06-.11.22-.25.5s-.27.52-.42.8-.17.32-.24.47a1.44,1.44,0,0,1-.2.27.33.33,0,0,1-.55.06.8.8,0,0,1-.35-.61c0-.37-.1-.85-.17-1.46,0-.16-.06-.15-.11.06s-.1.5-.19.85-.24.87-.39,1.35a2.76,2.76,0,0,1-.34.88.48.48,0,0,1-.24.06,1,1,0,0,1-.44-.14.59.59,0,0,1-.38-.64l.19-3c.13-.74.44-.94.94-.61A3.63,3.63,0,0,1,50.91,82.71Z"></path>
      <path class="e9efa290-9f10-42c5-b3bf-ade078efbeea" d="M58.34,82.3c-.52.44-.3,1.25.63,2.42l.41-.3a8.82,8.82,0,0,0,2-2c.22-.26.3-.19.22.22-.13.73-.87,1.6-2.23,2.61A1.4,1.4,0,0,1,59,87.47a1.57,1.57,0,0,1-1.85.2.88.88,0,0,1-.33-1.21,2.76,2.76,0,0,1,1-1l.36-.24a4.86,4.86,0,0,1-1.16-2.32,2.37,2.37,0,0,1,.14-.91c.4-.75.87-1,1.4-.82C59,81.5,58.87,81.88,58.34,82.3ZM58.28,86a2.08,2.08,0,0,0-.74.58.35.35,0,0,0,.11.42c.13.07.37,0,.72-.14.49-.35.6-.73.33-1.13Z"></path>
    </g>
  </g>
</svg>
