<?xml version="1.0" encoding="UTF-8"?>
<svg xmlns="http://www.w3.org/2000/svg" id="uuid-33e106ab-e5e5-411e-a860-c676e1244f0d" viewBox="0 0 90 90">
  <defs>
    <style>.uuid-98da75f1-54c6-4294-bfbe-ea169c697748{fill:#987018;}.uuid-1db39d1f-9846-4c79-99bd-62b5902524d7{fill:#bfa36c;}</style>
  </defs>
  <path class="uuid-1db39d1f-9846-4c79-99bd-62b5902524d7" d="M16.2,39.15c-.63,0-1.14,.51-1.14,1.14s.51,1.14,1.14,1.14,1.14-.51,1.14-1.14-.51-1.14-1.14-1.14m0,1.9c-.42,0-.76-.34-.76-.76s.34-.76,.76-.76,.76,.34,.76,.76-.34,.76-.76,.76"></path>
  <path class="uuid-1db39d1f-9846-4c79-99bd-62b5902524d7" d="M44.2,52.7c.4,0,.72-.32,.72-.72s-.32-.72-.72-.72-.72,.32-.72,.72,.32,.72,.72,.72"></path>
  <path class="uuid-1db39d1f-9846-4c79-99bd-62b5902524d7" d="M55.85,67.92c-.29,0-.52,.23-.52,.52s.23,.52,.52,.52,.52-.23,.52-.52-.23-.52-.52-.52"></path>
  <path class="uuid-98da75f1-54c6-4294-bfbe-ea169c697748" d="M48.56,62.44c.92-.67,1.53-1.75,1.53-2.97,0-2.02-1.65-3.67-3.67-3.67-.72,0-1.39,.21-1.95,.57l-6.9-5.53c2.95-.84,5.11-3.56,5.11-6.77s-2.29-6.08-5.36-6.84c-1.32-3.65-4.82-6.27-8.93-6.27-3.25,0-6.12,1.63-7.83,4.13l-11.54-9.24c-.17-.13-.41-.11-.55,.06-.13,.17-.11,.41,.06,.55l11.61,9.3c-.15,.26-.28,.52-.41,.8L2.17,22.48c-.06-.04-.14-.04-.18,.02-.04,.06-.04,.14,.02,.18l17.62,14.11c-.26,.63-.46,1.3-.58,1.99l-6.49-5.2c-.06-.04-.14-.04-.18,.02-.04,.06-.04,.14,.02,.18l6.6,5.29c-.06,.45-.1,.91-.1,1.37,0,5.24,4.25,9.49,9.49,9.49,.98,0,1.92-.15,2.8-.42,.72,.58,1.55,1.03,2.46,1.3l9.31,7.46c-.13,.37-.2,.77-.2,1.19,0,2.02,1.65,3.67,3.67,3.67,.7,0,1.36-.2,1.91-.54l6.44,5.16s.05,.03,.08,.03c.04,0,.08-.02,.1-.05,.04-.06,.04-.14-.02-.18l-6.37-5.11Zm-2.14-6.38c1.88,0,3.41,1.53,3.41,3.41s-1.53,3.41-3.41,3.41-3.41-1.53-3.41-3.41,1.53-3.41,3.41-3.41m-17.31-11.99c0-3.6,2.93-6.52,6.52-6.52s6.52,2.93,6.52,6.52-2.93,6.52-6.52,6.52-6.52-2.93-6.52-6.52m5.14,6.91c.45,.09,.91,.14,1.38,.14,.56,0,1.1-.07,1.62-.19l6.99,5.6c-.52,.39-.94,.9-1.19,1.5l-8.8-7.05Z"></path>
  <path class="uuid-1db39d1f-9846-4c79-99bd-62b5902524d7" d="M44.77,49.94v-.19h.88c1.01,0,1.72-.82,1.72-1.84s-.71-1.84-1.72-1.84h-1.86v4.6h.98v-.73Zm0-2.85h.79c.45,0,.8,.37,.8,.82s-.36,.79-.8,.82h-.79v-1.63Z"></path>
  <polygon class="uuid-1db39d1f-9846-4c79-99bd-62b5902524d7" points="50.99 50.67 50.99 49.69 48.92 49.69 48.92 46.07 47.92 46.07 47.92 49.69 47.92 50.67 48.89 50.67 50.99 50.67"></polygon>
  <path class="uuid-1db39d1f-9846-4c79-99bd-62b5902524d7" d="M52.83,49.74h1.63l.34,.92h1.04l-1.67-4.6h-1.04l-1.67,4.6h1.04l.34-.92Zm.82-2.24l.46,1.27h-.93l.46-1.27Z"></path>
  <polygon class="uuid-1db39d1f-9846-4c79-99bd-62b5902524d7" points="59.23 46.07 59.23 48.78 57.17 46.07 56.31 46.07 56.31 50.67 57.28 50.67 57.28 47.96 59.34 50.67 60.2 50.67 60.2 46.07 59.46 46.07 59.23 46.07"></polygon>
  <polygon class="uuid-1db39d1f-9846-4c79-99bd-62b5902524d7" points="63.91 49.69 61.83 49.69 61.83 48.82 63.83 48.82 63.83 47.92 61.83 47.92 61.83 47.05 63.91 47.05 63.91 46.07 61.83 46.07 60.85 46.07 60.85 50.67 61.83 50.67 63.91 50.67 63.91 49.69"></polygon>
  <polygon class="uuid-1db39d1f-9846-4c79-99bd-62b5902524d7" points="68.35 47.05 68.35 46.07 67.29 46.07 65.61 46.07 64.55 46.07 64.55 47.05 65.61 47.05 65.95 47.05 65.95 50.67 66.95 50.67 66.95 47.05 67.29 47.05 68.35 47.05"></polygon>
  <path class="uuid-1db39d1f-9846-4c79-99bd-62b5902524d7" d="M69.83,46.07l-1.67,4.6h1.04l.34-.92h1.63l.34,.92h1.04l-1.67-4.6h-1.04Zm.06,2.7l.46-1.27,.46,1.27h-.93Z"></path>
  <path class="uuid-1db39d1f-9846-4c79-99bd-62b5902524d7" d="M76.59,47.91c0-1.01-.71-1.84-1.72-1.84h-1.86v4.6h.98v-.88h.2l1.08,.88h1.35l-1.2-1.01c.71-.23,1.18-.93,1.18-1.75m-1.81,.82h-.79v-1.63h.79c.45,0,.8,.37,.8,.82s-.36,.8-.8,.82"></path>
  <rect class="uuid-1db39d1f-9846-4c79-99bd-62b5902524d7" x="77.16" y="46.07" width=".98" height="4.6"></rect>
  <path class="uuid-1db39d1f-9846-4c79-99bd-62b5902524d7" d="M81.51,47.23v1.7h0c-.02,.45-.42,.84-.86,.84s-.84-.39-.86-.84h0v-2.86h-1v2.86h0c.02,1.02,.85,1.85,1.86,1.85,1.02,0,1.84-.83,1.86-1.85h0v-2.86h-1v1.16Z"></path>
  <polygon class="uuid-1db39d1f-9846-4c79-99bd-62b5902524d7" points="87.02 46.07 85.49 48.29 83.96 46.07 83.16 46.07 83.16 47.69 83.16 50.67 84.07 50.67 84.14 50.67 84.14 48.03 85.49 50 86.85 48.03 86.85 50.67 86.92 50.67 87.83 50.67 87.83 47.69 87.83 46.07 87.02 46.07"></polygon>
  <path class="uuid-98da75f1-54c6-4294-bfbe-ea169c697748" d="M54.72,52.89h-.89v2.7h.89c.74,0,1.35-.61,1.35-1.35s-.61-1.35-1.35-1.35m0,2.44h-.62v-2.17h.62c.6,0,1.08,.48,1.08,1.08s-.48,1.08-1.08,1.08"></path>
  <polygon class="uuid-98da75f1-54c6-4294-bfbe-ea169c697748" points="57.77 52.89 57.77 55.59 58.04 55.59 59.56 55.59 59.56 55.32 58.04 55.32 58.04 54.37 59.52 54.37 59.52 54.1 58.04 54.1 58.04 53.15 59.56 53.15 59.56 52.89 58.04 52.89 57.77 52.89"></polygon>
  <path class="uuid-98da75f1-54c6-4294-bfbe-ea169c697748" d="M65.43,53.87c0-.57-.46-.99-1.03-.99h-.83v2.7h.27v-.73h.35l.87,.73h.39l-.88-.74c.5-.07,.88-.46,.88-.98m-1.03,.72h-.56v-1.44h.56c.42,0,.77,.29,.77,.72s-.34,.72-.77,.72"></path>
  <polygon class="uuid-98da75f1-54c6-4294-bfbe-ea169c697748" points="67.12 52.89 67.12 55.59 67.39 55.59 68.92 55.59 68.92 55.32 67.39 55.32 67.39 54.37 68.87 54.37 68.87 54.1 67.39 54.1 67.39 53.15 68.92 53.15 68.92 52.89 67.39 52.89 67.12 52.89"></polygon>
  <rect class="uuid-98da75f1-54c6-4294-bfbe-ea169c697748" x="70.67" y="52.89" width=".27" height="2.7"></rect>
  <polygon class="uuid-98da75f1-54c6-4294-bfbe-ea169c697748" points="74.08 54.31 73.02 52.89 72.69 52.89 72.69 55.59 72.96 55.59 72.96 53.25 74.08 54.76 75.21 53.25 75.21 55.59 75.48 55.59 75.48 52.89 75.14 52.89 74.08 54.31"></polygon>
  <path class="uuid-98da75f1-54c6-4294-bfbe-ea169c697748" d="M78.68,54.35c-.16-.12-.35-.2-.53-.27-.18-.07-.35-.15-.47-.23-.11-.09-.17-.17-.17-.31,0-.13,.05-.23,.15-.31,.1-.08,.24-.13,.41-.13,.28,0,.63,.2,.63,.2l.14-.23s-.37-.23-.77-.23c-.22,0-.42,.06-.57,.19-.15,.12-.25,.31-.25,.52,0,.23,.12,.41,.28,.53,.16,.12,.35,.19,.53,.27,.18,.07,.35,.15,.47,.23,.11,.09,.17,.17,.17,.32,0,.2-.08,.3-.21,.39-.13,.08-.31,.12-.46,.12-.46,0-.67-.21-.67-.21l-.18,.2s.31,.28,.85,.28c.19,0,.41-.04,.6-.16,.19-.12,.33-.33,.33-.61,0-.23-.12-.41-.28-.53"></path>
</svg>
