<?xml version="1.0" encoding="UTF-8"?>
<svg xmlns="http://www.w3.org/2000/svg" id="acf04b9a-84ae-42db-bd7f-59771d6ea063" data-name="Calque 1" viewBox="0 0 90 90">
  <defs>
    <style>.e5b10182-6b34-4cfa-ade6-2149978f2ea9{fill:#987018;}</style>
  </defs>
  <path class="e5b10182-6b34-4cfa-ade6-2149978f2ea9" d="M65.85,89.39H24.63v-88H65.85ZM26.56,3.32V87.46H63.92V3.32"></path>
  <path class="e5b10182-6b34-4cfa-ade6-2149978f2ea9" d="M41.11,22.88a7.17,7.17,0,0,1-7.48-7.5A7.27,7.27,0,0,1,41.07,8c2.56,0,4.43.78,5.57,2.3l0,.07-2.17,2.15-.07-.1A3.92,3.92,0,0,0,41.11,11a4.18,4.18,0,0,0-4.1,4.4c0,2.72,1.71,4.55,4.24,4.55a3.85,3.85,0,0,0,3.55-2.05l.05-.09,2.35,1.76-.05.07A6.66,6.66,0,0,1,41.11,22.88Z"></path>
  <path class="e5b10182-6b34-4cfa-ade6-2149978f2ea9" d="M59.28,29.92h-9V15.4h8.93v2.8H53.7v2.92H59V23.9H53.7V27h5.58Z"></path>
  <path class="e5b10182-6b34-4cfa-ade6-2149978f2ea9" d="M46.73,47.55H37.28V33h3.4V44.64h6Z"></path>
  <path class="e5b10182-6b34-4cfa-ade6-2149978f2ea9" d="M53.25,41.53H43.79V27H47.2V38.62h6Z"></path>
  <path class="e5b10182-6b34-4cfa-ade6-2149978f2ea9" d="M47.19,65.18h-3.4V50.65h3.4Z"></path>
  <path class="e5b10182-6b34-4cfa-ade6-2149978f2ea9" d="M59.28,65.18h-9V50.65h9v2.81H53.7v2.92H59v2.78H53.7v3.1h5.58Z"></path>
  <path class="e5b10182-6b34-4cfa-ade6-2149978f2ea9" d="M49.25,82.8H44.94l-4.26-6.48V82.8h-3.4V68.28h4.89c3.37,0,5.38,1.62,5.38,4.34a3.85,3.85,0,0,1-2.9,4Zm-8.57-8.29h1.4c1.79,0,2.05-1.16,2.05-1.85,0-1-.75-1.58-2.07-1.58H40.68Z"></path>
  <path class="e5b10182-6b34-4cfa-ade6-2149978f2ea9" d="M32.84,30H29.66V25.14h1.25v3.8h1.93Z"></path>
  <path class="e5b10182-6b34-4cfa-ade6-2149978f2ea9" d="M37.28,30H34.21V25.14h3.07v1.05H35.45V27h1.76v1H35.45v.88h1.83Z"></path>
</svg>
