<?xml version="1.0" encoding="UTF-8"?>
<svg xmlns="http://www.w3.org/2000/svg" id="f5cc72fe-b760-4a62-91e9-9b32d1dcce21" data-name="Calque 2" viewBox="0 0 90 90">
  <defs>
    <style>.ba1ae57e-a996-406d-84b3-c571bf81a882{fill:#987018;}.bbebc893-2dbf-4445-96e8-9757c33e86c1{fill:#fff;}</style>
  </defs>
  <path class="ba1ae57e-a996-406d-84b3-c571bf81a882" d="M48.79,1A13.39,13.39,0,0,1,58.62,5a13.38,13.38,0,0,1,4.07,9.79,13.44,13.44,0,0,1-1.35,6,13.45,13.45,0,0,1,3.73,9.53,13.9,13.9,0,0,1-13.9,13.85h-20V1Z"></path>
  <path class="ba1ae57e-a996-406d-84b3-c571bf81a882" d="M21.16,63V52.26h1.61a7,7,0,0,1,1.71.17,2.63,2.63,0,0,1,1.09.56,2.79,2.79,0,0,1,.71,1,3.09,3.09,0,0,1,.27,1.25,2.52,2.52,0,0,1-.88,2,2.56,2.56,0,0,1,1.35,1,2.89,2.89,0,0,1,.5,1.67A2.84,2.84,0,0,1,26.63,62a2.89,2.89,0,0,1-1.2.75,7.1,7.1,0,0,1-1.82.2Zm1.62-6.11h.5a1.85,1.85,0,0,0,1.32-.4A1.54,1.54,0,0,0,25,55.29a1.46,1.46,0,0,0-.43-1.15,1.77,1.77,0,0,0-1.24-.39h-.57Zm0,4.59h1a2.43,2.43,0,0,0,1.6-.43,1.56,1.56,0,0,0,0-2.34,2.68,2.68,0,0,0-1.81-.47h-.81Z"></path>
  <path class="ba1ae57e-a996-406d-84b3-c571bf81a882" d="M32.59,52.26V63H31V52.26Z"></path>
  <path class="ba1ae57e-a996-406d-84b3-c571bf81a882" d="M36.58,63V52.26h1.61a7,7,0,0,1,1.71.17A2.57,2.57,0,0,1,41,53a2.79,2.79,0,0,1,.71,1A3,3,0,0,1,42,55.26a2.55,2.55,0,0,1-.88,2,2.57,2.57,0,0,1,1.34,1,2.89,2.89,0,0,1,.5,1.67,3.08,3.08,0,0,1-2.09,2.87A7.1,7.1,0,0,1,39,63Zm1.62-6.11h.5a1.85,1.85,0,0,0,1.32-.4,1.54,1.54,0,0,0,.42-1.17A1.46,1.46,0,0,0,40,54.14a1.77,1.77,0,0,0-1.24-.39H38.2Zm0,4.59h1A2.43,2.43,0,0,0,40.8,61a1.56,1.56,0,0,0,0-2.34,2.66,2.66,0,0,0-1.8-.47H38.2Z"></path>
  <path class="ba1ae57e-a996-406d-84b3-c571bf81a882" d="M48,52.26v9.19h3.15V63H46.4V52.26Z"></path>
  <path class="ba1ae57e-a996-406d-84b3-c571bf81a882" d="M55.73,52.26V63H54.11V52.26Z"></path>
  <path class="ba1ae57e-a996-406d-84b3-c571bf81a882" d="M59.18,57.57a5.29,5.29,0,0,1,1.66-3.89,5.45,5.45,0,0,1,4-1.62,5.6,5.6,0,0,1,5.57,5.57,5.28,5.28,0,0,1-1.65,3.92,5.67,5.67,0,0,1-7.72.18A5.28,5.28,0,0,1,59.18,57.57Zm1.63,0A3.9,3.9,0,0,0,62,60.51a4,4,0,0,0,5.58,0,4.16,4.16,0,0,0,0-5.74,4,4,0,0,0-5.64,0A3.87,3.87,0,0,0,60.81,57.59Z"></path>
  <path class="ba1ae57e-a996-406d-84b3-c571bf81a882" d="M23.73,68.15v6.17H22.64V68.15H21v-1h4.39v1Z"></path>
  <path class="ba1ae57e-a996-406d-84b3-c571bf81a882" d="M28.38,70h3.11V67.13h1.08v7.19H31.49V71H28.38v3.35H27.3V67.13h1.08Z"></path>
  <path class="ba1ae57e-a996-406d-84b3-c571bf81a882" d="M39.22,68.15H36.33v1.73h2.8v1h-2.8v2.4h2.89v1h-4V67.13h4Zm-3.4-3,.92-.65,1.49,1.5-.52.44Z"></path>
  <path class="ba1ae57e-a996-406d-84b3-c571bf81a882" d="M48.91,74.45H47.55L47,73.88a3.65,3.65,0,0,1-2,.57,3.78,3.78,0,0,1-2.54-1,3.5,3.5,0,0,1-1.2-2.73,3.59,3.59,0,0,1,1.14-2.71A3.67,3.67,0,0,1,45,67a3.72,3.72,0,0,1,2.46.92,3.61,3.61,0,0,1,1.3,2.89,3.48,3.48,0,0,1-1,2.48Zm-3-3,1,1a2.47,2.47,0,0,0,.69-1.78,2.67,2.67,0,0,0-.77-1.94A2.57,2.57,0,0,0,45,68a2.52,2.52,0,0,0-1.9.78,2.73,2.73,0,0,0-.75,2,2.52,2.52,0,0,0,.77,1.9,2.61,2.61,0,0,0,1.84.77,2.55,2.55,0,0,0,1.27-.32l-1.69-1.64Z"></path>
  <path class="ba1ae57e-a996-406d-84b3-c571bf81a882" d="M52.16,67.13v4.33a2.42,2.42,0,0,0,.3,1.36,1.48,1.48,0,0,0,1.27.62A1.51,1.51,0,0,0,55,72.82a2.38,2.38,0,0,0,.3-1.36V67.13h1.08v4.63a2.58,2.58,0,0,1-.7,1.87,2.74,2.74,0,0,1-3.91,0,2.59,2.59,0,0,1-.71-1.87V67.13Z"></path>
  <path class="ba1ae57e-a996-406d-84b3-c571bf81a882" d="M63,68.15H60.16v1.73H63v1H60.16v2.4H63v1h-4V67.13h4Z"></path>
  <path class="ba1ae57e-a996-406d-84b3-c571bf81a882" d="M69.48,68.2l-.88.53a1.38,1.38,0,0,0-.47-.56,1.07,1.07,0,0,0-.6-.15,1.11,1.11,0,0,0-.75.25.8.8,0,0,0-.3.64c0,.35.26.63.79.85l.71.29a3,3,0,0,1,1.28.86,2,2,0,0,1,.41,1.25A2.2,2.2,0,0,1,69,73.8a2.27,2.27,0,0,1-1.66.65,2.19,2.19,0,0,1-1.54-.55,2.56,2.56,0,0,1-.75-1.56l1.1-.24a1.79,1.79,0,0,0,.26.87,1.23,1.23,0,0,0,1.82.13,1.18,1.18,0,0,0,.33-.86,1.6,1.6,0,0,0,0-.39,1,1,0,0,0-.19-.32,1.18,1.18,0,0,0-.31-.27,3.42,3.42,0,0,0-.47-.25l-.69-.29a2,2,0,0,1-1.48-1.82A1.76,1.76,0,0,1,66,67.54,2.27,2.27,0,0,1,67.54,67,2.15,2.15,0,0,1,69.48,68.2Z"></path>
  <path class="ba1ae57e-a996-406d-84b3-c571bf81a882" d="M38,88.78h-.39L35.9,86.25h-.17v2.53h-.34V83.43h.66a2,2,0,0,1,1.22.27,1.32,1.32,0,0,1,.54,1.15,1.35,1.35,0,0,1-1.53,1.4Zm-1.87-2.85a1.37,1.37,0,0,0,.94-.25,1.1,1.1,0,0,0,.37-.85,1,1,0,0,0-.57-1,2.33,2.33,0,0,0-.95-.12h-.22v2.18Z"></path>
  <path class="ba1ae57e-a996-406d-84b3-c571bf81a882" d="M39.9,83.75v1.94h2.16V86H39.9v2.45h2.21v.32H39.56V83.43h2.55v.32Z"></path>
  <path class="ba1ae57e-a996-406d-84b3-c571bf81a882" d="M44.21,88.78h-.34V83.43h.34Z"></path>
  <path class="ba1ae57e-a996-406d-84b3-c571bf81a882" d="M50.55,84.35h0L48.67,89l-1.86-4.61h0l-.92,4.43h-.32l1.15-5.53,2,4.87,2-4.87,1.15,5.53h-.32Z"></path>
  <path class="ba1ae57e-a996-406d-84b3-c571bf81a882" d="M55.62,84.31a1.22,1.22,0,0,0-1.08-.63,1,1,0,0,0-1,1c0,.56.53.79,1,1l1,.53a1.16,1.16,0,0,1,.61,1.07,1.66,1.66,0,0,1-3.24.4l.29-.13a1.37,1.37,0,0,0,1.29,1,1.29,1.29,0,0,0,1.32-1.26c0-.61-.61-.86-1.07-1.09l-1-.51a1.08,1.08,0,0,1-.55-1,1.31,1.31,0,0,1,1.37-1.35,1.48,1.48,0,0,1,1.3.75Z"></path>
  <rect class="ba1ae57e-a996-406d-84b3-c571bf81a882" x="22.13" y="78.82" width="47.38" height="0.76"></rect>
  <path class="bbebc893-2dbf-4445-96e8-9757c33e86c1" d="M49.27,13.11a4.57,4.57,0,1,1-4.36-4.77A4.58,4.58,0,0,1,49.27,13.11Z"></path>
  <path class="bbebc893-2dbf-4445-96e8-9757c33e86c1" d="M52.26,29.5a3.22,3.22,0,1,1-3.08-3.36A3.23,3.23,0,0,1,52.26,29.5Z"></path>
  <rect class="bbebc893-2dbf-4445-96e8-9757c33e86c1" x="44.1" y="9.14" width="1.71" height="35.09"></rect>
</svg>
