<?xml version="1.0" encoding="UTF-8"?>
<svg xmlns="http://www.w3.org/2000/svg" id="f8ce6c76-df28-4d16-9985-24c12a28622c" data-name="Calque 1" viewBox="0 0 90 90">
  <defs>
    <style>.a1287fef-e4ec-4f14-bfef-19c6273c534b{fill:#987018;}</style>
  </defs>
  <path class="a1287fef-e4ec-4f14-bfef-19c6273c534b" d="M89,11.91c.1,1.52,0,3.23,0,4.79A69.3,69.3,0,0,0,70.8,19.6a68,68,0,0,0-19.66,10l-7,5.23c-7.73,5.42-15.47,10.76-24.35,13.42A82.42,82.42,0,0,1,1.09,51.86V49.5a74.27,74.27,0,0,0,26-7,88.91,88.91,0,0,0,12.77-8L53,24.61a64.62,64.62,0,0,1,19.79-9.9A62.48,62.48,0,0,1,89,11.91Z"></path>
  <path class="a1287fef-e4ec-4f14-bfef-19c6273c534b" d="M89,26.7q-21.45,0-38.14,11.43l-5.71,3.95-6,4c-6.78,4.45-13.91,8.1-21.86,9.78A81.19,81.19,0,0,1,1.09,58.12V55.63a83.35,83.35,0,0,0,21.85-4.26,57.54,57.54,0,0,0,11.25-5.46c2.78-1.65,5.46-3.47,8.16-5.32l8.46-6.12a62.7,62.7,0,0,1,23-10.72A67.08,67.08,0,0,1,89.05,22V26.7Z"></path>
  <path class="a1287fef-e4ec-4f14-bfef-19c6273c534b" d="M89.09,36.47c-9.26,0-18.26,1-26.22,4.14a71.94,71.94,0,0,0-13.62,7.08L43.48,51.5C34.65,57,25.27,61.26,14.85,63.05A116.59,116.59,0,0,1,1.1,64.5c0-.86,0-1.61,0-2.51,12.07-.44,23.52-3.05,33.44-8.64,3.27-1.76,6.37-3.84,9.5-5.9L51,42.74A62.92,62.92,0,0,1,86.29,31.87c.93-.05,1.84,0,2.77,0l0,4.64Z"></path>
  <path class="a1287fef-e4ec-4f14-bfef-19c6273c534b" d="M89.05,46.34c-11.75-.31-23,1-32.78,5.73-6.9,3.13-13.07,8-19.92,11.2a65,65,0,0,1-20.79,6.52,109.39,109.39,0,0,1-14.46,1V68.28c9.63-.43,19.41-1.58,27.9-4.85,2.18-.92,4.35-1.9,6.47-3l6-3.36c3.86-2.22,7.46-5,11.36-7.07a66.62,66.62,0,0,1,31.46-8.2c1.62,0,3.12-.12,4.75-.09v4.66Z"></path>
  <path class="a1287fef-e4ec-4f14-bfef-19c6273c534b" d="M89.05,51.58c.1,1.43-.06,3.1,0,4.73l-6.38-.05c-10.08.05-19.78,1.15-28.19,5.24l-3.77,1.92-6.06,3.44c-7.46,4-15.24,7.36-23.88,8.66A94.67,94.67,0,0,1,10.1,76.63l-7.44.26-1.57,0V74.57c11.65-.24,23.49-1.34,33.39-5.9,3.14-1.45,6.25-3,9.25-4.79l7.86-4.81C60.94,53.54,72,51.86,83.48,51.6c2.06-.08,3.58,0,5.57,0Z"></path>
</svg>
