<?xml version="1.0" encoding="UTF-8"?>
<svg xmlns="http://www.w3.org/2000/svg" id="ateliers_compost" data-name="ateliers compost" viewBox="0 0 100 100">
  <defs>
    <style>
      .cls-1 {
        fill: #fff;
      }

      .cls-2 {
        fill: #21305a;
      }

      .cls-3 {
        fill: #203c7c;
      }

      .cls-4 {
        fill: #e4e0ce;
      }
    </style>
  </defs>
  <path class="cls-2" d="m20.36,83.57h58.81v1.84H20.36v-1.84Z"></path>
  <path class="cls-3" d="m29.12,26.63s.03-1.99,2.65-1.99c2.08,0,36.78.12,36.78.12l11.7-16.12,2.12,1.54-11.94,16.45,6.14,57.13H22.97l6.14-57.13Z"></path>
  <path class="cls-3" d="m20.36,84.88h58.81v3.76H20.36v-3.76Z"></path>
  <path class="cls-2" d="m34.17,83.76h3.01v-7.54c0-1.71,1.39-3.1,3.1-3.1h18.62c1.71,0,3.1,1.39,3.1,3.1v7.54h3.34"></path>
  <g>
    <path class="cls-3" d="m40.45,74.75c-.81,0-1.47.66-1.47,1.47v7.54h21.56v-7.54c0-.81-.66-1.47-1.47-1.47h-18.62Z"></path>
    <rect class="cls-2" x="42.17" y="81.25" width="2.91" height=".98"></rect>
    <rect class="cls-2" x="42.17" y="77.09" width="2.91" height=".98"></rect>
    <rect class="cls-2" x="48.43" y="81.25" width="2.91" height=".98"></rect>
    <rect class="cls-2" x="48.43" y="77.09" width="2.91" height=".98"></rect>
    <rect class="cls-2" x="54.46" y="81.25" width="2.91" height=".98"></rect>
    <rect class="cls-2" x="54.46" y="77.09" width="2.91" height=".98"></rect>
  </g>
  <g>
    <path class="cls-4" d="m59.85,46.81c.08.95-.43,2.95-2.84,3.73-2.42.78-4-2.33-4-2.33,0,0,1.24,1.99,3.68,1.25,2.44-.74,3.16-2.65,3.16-2.65Z"></path>
    <path class="cls-1" d="m57.54,38.11c4.24.33,5.26,13.01-1.42,13.1-6.67.09-3.02-13.44,1.42-13.1Z"></path>
    <path class="cls-1" d="m57.51,55.28c-.04.14-2.37,8.31-10.07,6.99-5.18-.89-6.34-5.53-6.54-8.57-.1-1.56.06-2.69.06-2.69,0,0,.92-.55,1.52-.51,0,0-.32,5.98,6.21,7.08,5.36.91,7.87-1.23,8.6-2.02.15-.16.22-.27.23-.28Z"></path>
    <path d="m62.54,38.14c-.41-.71-.86-1.39-1.35-2.02-.24-.31-.5-.62-.76-.9-.26-.28-.54-.54-.83-.77-.28-.23-.61-.39-.92-.5-.31-.11-.57-.21-.85-.31-.14-.05-.28-.09-.43-.13-.15-.03-.31-.06-.49-.08-.35-.04-.75-.03-1.23-.03h0c-.06,0-.1-.05-.1-.1,0-.02,0-.03.01-.05.22-.43.57-.78,1.01-1.02.22-.12.46-.21.72-.27.26-.06.52-.07.79-.06.27.02.53.07.77.17.24.09.47.22.67.37.4.3.72.66,1.02,1,.6.69,1.03,1.45,1.37,2.23.33.78.6,1.58.76,2.4,0,.05-.02.09-.07.1-.04,0-.07-.01-.09-.04h0Z"></path>
    <path d="m57.63,38.31c2.1.19,2.84,3.05,3.05,4.74.28,2.26-.02,5.04-1.7,6.74-1.45,1.46-4.41,1.83-5.65-.09-1.22-1.88-.74-4.66-.08-6.64.4-1.22.99-2.43,1.83-3.41.64-.75,1.52-1.41,2.55-1.34.16.01-.02-.4-.18-.41-2.25-.15-3.69,2.63-4.34,4.38-.81,2.19-1.31,5.04-.17,7.21,1.12,2.15,4,2.48,5.86,1.06,2.01-1.54,2.45-4.5,2.25-6.87-.11-1.36-.45-2.74-1.13-3.93-.53-.92-1.35-1.76-2.46-1.86-.16-.01.02.4.18.41Z"></path>
    <path d="m55.34,43.44c-.1-.02-.21,0-.31.04.14.11.2.41.13.74-.08.38-.31.66-.51.62-.19-.04-.29-.37-.21-.75-.13.23-.24.51-.31.81-.2.91.02,1.73.49,1.83.47.1,1.01-.55,1.21-1.46.2-.91-.02-1.73-.49-1.83Z"></path>
    <path d="m40.57,45.46c2.58-.5,5.53.17,7.34,2.13.09.09.88.45.83.16-.29-1.94-1.6-3.74-3.39-4.57-.1-.05-.48-.2-.57-.08-.1.13.14.25.24.29.03.01.14.07.03.01.1.06.2.11.3.17.32.2.63.45.9.72.89.88,1.44,2,1.63,3.24.28.05.56.11.83.16-2.15-2.32-5.76-3.25-8.84-2.65-.2.04.01.21.08.26.16.11.42.19.61.15h0Z"></path>
    <path d="m43.31,47.2c1.37-.16,2.94.07,4.07.88.1.08.49-.11.41-.17-1.2-.86-2.86-1.09-4.3-.92-.13.02-.47.23-.18.2h0Z"></path>
    <path d="m40.1,51.81c.89-.94,2.35-1.5,3.66-1.02.15.06.48-.24.27-.32-1.51-.55-3.19.15-4.25,1.28-.2.22.19.21.32.07h0Z"></path>
    <path d="m41.14,51.13c.43-.25.94-.5,1.44-.49-.1-.08-.21-.15-.31-.23-.1,1.97.82,4.09,2.28,5.4,1.55,1.4,3.6,1.92,5.63,2.09,1.9.15,3.88-.06,5.59-.95.72-.37,1.49-.89,1.95-1.57-.14-.07-.27-.14-.41-.22-.83,2.99-3.14,5.93-6.19,6.8-2.52.72-5.61.18-7.5-1.7-1.47-1.46-2.15-3.51-2.41-5.52-.15-1.2-.2-2.46-.04-3.67.02-.16-.4-.34-.42-.15-.15,1.09-.12,2.22,0,3.31.21,2.06.84,4.14,2.22,5.73,1.72,1.99,4.5,2.82,7.07,2.56,2.35-.23,4.35-1.53,5.76-3.39.84-1.1,1.55-2.41,1.93-3.75.04-.16-.31-.36-.41-.22-.33.49-.86.88-1.35,1.2-1.4.9-3.09,1.26-4.74,1.28-2.08.02-4.37-.33-6.06-1.64-1.09-.84-1.82-2.04-2.19-3.36-.19-.66-.32-1.38-.28-2.08,0-.14-.21-.23-.31-.23-.56-.01-1.12.25-1.6.53-.15.09.22.35.36.27Z"></path>
    <path d="m41.43,50.59c-.3,2.45.58,5.17,2.11,7.06.79.98,1.78,1.76,2.88,2.38.21.12.48-.06.21-.21-3.06-1.72-4.8-4.9-4.79-8.38,0-.25,0-.51.04-.77.02-.17-.41-.3-.44-.09h0Z"></path>
    <path d="m57.37,55.41s.06.03.1.06c.1.06.2.13.29.2.27.21.5.48.63.8.08.19.52.09.45-.09-.22-.54-.67-.98-1.19-1.24-.17-.09-.53.14-.28.27h0Z"></path>
    <path d="m40.67,38.82c1.01-.19,2.04-.19,3.08-.05,1.03.15,2.08.46,3.03,1.02.47.28.95.58,1.38.95.42.38.78.84,1.02,1.35.06.13.11.26.16.39l.07.2c.02.07.04.13.06.2.03.14.07.27.1.4.02.14.04.27.06.41.02.14.03.27.03.41,0,.14,0,.27,0,.41,0,.14-.03.27-.05.41-.02.14-.05.27-.09.41-.01.05-.07.08-.12.07-.02,0-.04-.02-.05-.03h0c-.18-.23-.31-.45-.46-.66-.07-.1-.14-.21-.21-.31-.04-.05-.06-.1-.1-.15-.04-.05-.07-.1-.1-.15-.07-.1-.13-.2-.19-.29-.07-.09-.14-.19-.2-.28-.03-.05-.06-.09-.1-.14l-.1-.13c-.07-.09-.13-.18-.2-.27-.14-.17-.26-.35-.39-.52-.12-.18-.26-.35-.38-.53-.26-.35-.55-.7-.9-.98-.35-.29-.74-.54-1.15-.76-.41-.22-.85-.41-1.3-.58-.9-.33-1.88-.54-2.86-.62h0s-.08-.05-.08-.1c0-.04.03-.07.07-.08Z"></path>
  </g>
</svg>
