<?xml version="1.0" encoding="UTF-8"?>
<svg xmlns="http://www.w3.org/2000/svg" id="encombrants" viewBox="0 0 100 100">
  <defs>
    <style>
      .cls-1 {
        fill: #6a6a6a;
      }

      .cls-2 {
        fill: #e9e9e9;
      }

      .cls-3 {
        fill: #fff;
      }

      .cls-4 {
        fill: #c5c5c5;
      }

      .cls-5 {
        fill: #d5353b;
      }

      .cls-6 {
        fill: #8b272a;
      }

      .cls-7 {
        fill: #9f9e9f;
      }

      .cls-8 {
        isolation: isolate;
      }

      .cls-9 {
        fill: #ad2e31;
      }

      .cls-10 {
        fill: #e32724;
      }

      .cls-11 {
        fill: #aaa19f;
      }

      .cls-12 {
        fill: #c63337;
      }

      .cls-13 {
        fill: #952a2d;
      }

      .cls-14 {
        fill: #888483;
      }

      .cls-15 {
        fill: #202020;
      }

      .cls-16 {
        fill: #842325;
      }
    </style>
  </defs>
  <g class="cls-8">
    <g class="cls-8">
      <g>
        <g>
          <path class="cls-15" d="m47.91,32.85c-.28-.52-.71-.91-1.23-1.09-.67-.24-1.36-.07-1.79.43-.59.69-.66,1.88-.18,3.36.26.8.61,1.51,1.02,2.08.62-.12,1.16-.36,1.59-.73.79-.67,1.12-1.69.95-2.95-.06-.41-.18-.79-.35-1.11m-4.83,10.15c-.66-1.21-1.74-1.73-2.59-1.71-.78.03-1.38.47-1.63,1.21-.21.62-.37,2.07,1.12,4.57,1.4-.17,2.59-.7,3.15-1.51.43-.6.48-1.32.15-2.12-.06-.16-.13-.31-.21-.44m-10.2,1.44c-.18-.33-.32-.67-.42-1.04-.69-2.46-.27-4.61,1.19-6.04.83-.82,1.94-1.33,3.2-1.46,1.28-.14,2.64.13,3.91.76,1.65.82,3.24,1.17,4.54,1.04-.38-.57-.69-1.25-.94-2-.72-2.21-.14-3.33.26-3.8.53-.62,1.37-.82,2.18-.54.98.34,1.67,1.29,1.84,2.53.2,1.4-.19,2.59-1.09,3.35-.43.36-.95.61-1.54.76.69.82,1.53,1.33,2.46,1.48,1.28.2,2.58-.35,3.24-1.37.06-.09.18-.12.26-.05.09.07.1.2.04.29-.75,1.16-2.16,1.77-3.6,1.55-1.1-.17-2.08-.8-2.85-1.81-1.42.21-3.17-.14-4.97-1.04-2.41-1.2-5.1-.95-6.7.63-1.34,1.32-1.72,3.31-1.08,5.6.52,1.86,2.16,3.2,4.49,3.68.76.15,1.53.2,2.25.15-.23-.39-.42-.78-.59-1.15-.79-1.79-.69-2.95-.47-3.61.31-.9,1.05-1.46,1.97-1.49,1.31-.04,2.55.9,3.15,2.4.38.94.31,1.83-.2,2.56-.61.86-1.79,1.44-3.21,1.64.68,1.07,3.57,3.84,4.95,5.28.08.08.08.21,0,.3-.07.09-.19.09-.27,0-1.35-1.42-4.34-4.29-5.11-5.54-.81.08-1.69.03-2.56-.15-2.03-.41-3.56-1.46-4.37-2.93"></path>
          <path class="cls-9" d="m54.05,38.45s1.25-3.87,1.45-6.26h0c.03-.33.03-.63.02-.88.15-.19.65.12.65.12-.46,5.15-1.53,7.3-1.53,7.3-.33.16-.49-.17-.49-.17,0,0-.03-.04-.09-.11"></path>
          <path class="cls-5" d="m54.05,38.45c-.2-.23-.67-.76-1.16-1.2-.22-.2-.44-.38-.64-.5-.77-.48-.6-1.49-.6-1.49,0,0-1.03-6.39,2.58-14.07,3.61-7.68,9.27-9.09,10.13-9.65.86-.56,2.98.76,2.98.76-1.02,1.54-3.15,3.53-4.2,4.48h0s-1.83-2.78-5.05,2.79c-3.22,5.57-5.58,11.83-2.6,12.61-.2,2.39-1.45,6.26-1.45,6.26"></path>
          <path class="cls-9" d="m62.53,17.33s.24-.2.62-.54c1.05-.95,3.18-2.94,4.2-4.48.22-.03.39.21.45.35,0,.02.02.04.05.06-2.02,3.18-4.94,5.1-4.94,5.1-.26-.11-.37-.49-.37-.49"></path>
          <path class="cls-10" d="m55.5,32.19h0c-2.99-.78-.62-7.04,2.6-12.61,3.22-5.57,5.05-2.79,5.05-2.79h0c-.38.34-.62.54-.62.54-2.55-1.81-6.9,10.06-7.5,11.75-.6,1.69.49,2.23.49,2.23l-.02.88Z"></path>
          <path class="cls-10" d="m55.5,32.19l.02-.88c.02.26.01.55-.02.88"></path>
          <path class="cls-5" d="m56.85,38.39c-.56,1.56-1.53.81-1.53.81,0,0,1.42-5.74,1.24-8.02.18.02,1.09.13,1.27.63.2.55-.42,5.03-.98,6.59"></path>
          <path class="cls-16" d="m55.32,39.2c-.24.28-.69-.47-.69-.47,0,0,1.07-2.15,1.53-7.3l.36-.26s.01,0,.03,0c.19,2.29-1.24,8.02-1.24,8.02"></path>
          <path class="cls-9" d="m52.21,38.41c-.23.3-.5-.28-.5-.28l.53-1.37c.2.12.42.3.64.5,0,0-.45.86-.68,1.15"></path>
          <path class="cls-5" d="m64.47,19.19c-.57.36-1.47-.75-1.47-.75,0,0,4.19-2.92,5.26-5.56.68.43.89,1.45.89,1.45-1.87,2.83-4.11,4.5-4.68,4.87"></path>
          <path class="cls-16" d="m63,18.44l-.11-.62s2.92-1.92,4.94-5.1c.12.1.42.17.42.17-1.07,2.63-5.26,5.56-5.26,5.56"></path>
          <path class="cls-9" d="m63.14,16.79s-1.83-2.78-5.05,2.79c-3.22,5.57-5.58,11.83-2.6,12.61l.02-.88s-1.12-.56-.42-2.42c.7-1.86,4.8-12.92,7.43-11.56l.62-.54Z"></path>
          <path class="cls-12" d="m31.02,61.67l30.36,17.35s-2.51,7.15-3.15,7.5c-.64.35-1.63.41-3.27-.54-1.65-.94-12.65-7.23-12.65-7.23,0,0-11-6.29-12.65-7.23-1.65-.94-2.18-1.87-2.3-2.65-.12-.78,3.65-7.21,3.65-7.21"></path>
          <path class="cls-5" d="m42.84,54.7c-1.69,3.65.63,8.7,5.16,11.3,3.4,1.95,7.09,1.95,9.43.29.7-.49,1.27-1.14,1.69-1.92h0s-.55,2.83-.55,2.83c0,0,1.19,1.05,1.8,2,.42.66,1,9.82,1,9.82l-30.36-17.35s5.61-5.56,6.66-5.63c1.05-.07,3.57.46,3.57.46l1.75-2.14h0c-.06.11-.11.22-.17.33"></path>
        </g>
        <g>
          <polygon class="cls-7" points="53.53 56.08 53.74 57.63 52.49 58.35 51.02 57.53 50.8 55.97 52.06 55.25 53.53 56.08"></polygon>
          <polygon class="cls-1" points="53.74 57.63 52.29 58.79 50.82 57.96 50.8 55.98 51.02 57.53 52.49 58.35 53.74 57.63"></polygon>
        </g>
        <g>
          <path class="cls-1" d="m52.99,62.94c.64.37.93,1.16.65,1.78-.03.06-.06.12-.1.17.09-.44-.25-1-.83-1.33-.58-.33-1.2-.31-1.46.02.02-.06.04-.13.07-.19.28-.62,1.04-.81,1.68-.45"></path>
          <path class="cls-1" d="m50.09,61.92c.64.37.93,1.16.65,1.78-.03.06-.06.12-.1.17.09-.44-.25-1-.83-1.33-.58-.33-1.2-.31-1.46.02.02-.06.04-.13.07-.19.28-.62,1.04-.82,1.68-.45"></path>
          <path class="cls-1" d="m47.45,59.84c.64.37.93,1.16.65,1.78-.03.06-.06.12-.1.17.09-.44-.25-1-.83-1.33-.58-.33-1.2-.31-1.46.02.02-.06.04-.13.07-.19.28-.62,1.04-.81,1.68-.45"></path>
          <path class="cls-1" d="m46.15,57.09c.64.37.93,1.16.65,1.78-.03.06-.06.12-.1.17.09-.44-.25-1-.83-1.33-.58-.33-1.19-.31-1.46.02.02-.06.04-.12.07-.19.28-.61,1.04-.81,1.68-.45"></path>
          <path class="cls-1" d="m45.99,54.45c.61.35.9,1.08.64,1.64-.03.05-.06.11-.09.15.08-.4-.26-.92-.81-1.24-.55-.31-1.13-.31-1.37,0,.01-.06.03-.11.06-.17.26-.56.96-.73,1.57-.38"></path>
          <path class="cls-1" d="m47.04,52.18c.61.35.9,1.08.64,1.64-.03.06-.06.11-.09.15.08-.4-.26-.92-.81-1.24-.55-.31-1.13-.31-1.37-.01.01-.06.03-.11.06-.17.26-.56.96-.72,1.57-.38"></path>
          <path class="cls-1" d="m49.07,51.12c.61.35.93,1,.72,1.45-.01.03-.03.05-.04.08.1-.37-.25-.9-.82-1.23-.57-.33-1.17-.33-1.38-.02,0-.03.02-.06.03-.09.21-.46.88-.54,1.48-.19"></path>
          <path class="cls-1" d="m51.72,50.97c.61.35.93,1,.72,1.45-.01.03-.03.06-.04.08.1-.37-.25-.91-.82-1.23-.57-.33-1.16-.33-1.38-.02,0-.03.02-.06.03-.09.21-.46.87-.54,1.48-.19"></path>
          <path class="cls-1" d="m54.47,52.03c.61.35.93,1,.72,1.46-.01.03-.03.06-.04.08.1-.37-.25-.91-.82-1.23-.57-.33-1.16-.33-1.38-.02,0-.03.02-.06.03-.09.21-.46.88-.54,1.49-.19"></path>
          <path class="cls-1" d="m57.18,54.31c.35.35.49.81.33,1.16-.01.03-.03.06-.04.08.1-.37-.24-.91-.82-1.23-.57-.33-1.17-.33-1.38-.02,0-.03.02-.06.03-.09.21-.45.88-.54,1.48-.19.15.08.28.19.39.3"></path>
          <path class="cls-9" d="m56.65,54.32c.57.33.92.86.82,1.23-.24.37-.82.44-1.37.15-.02-.01-.05-.02-.07-.04-.02-.01-.04-.03-.07-.04-.53-.33-.82-.9-.69-1.33.21-.31.81-.3,1.38.02"></path>
          <path class="cls-9" d="m54.33,52.33c.57.33.92.86.82,1.23-.24.37-.82.44-1.37.15-.02-.01-.05-.02-.07-.04-.02-.01-.04-.03-.07-.04-.53-.33-.82-.9-.69-1.33.21-.31.8-.3,1.38.02"></path>
          <path class="cls-9" d="m51.58,51.27c.57.33.92.86.82,1.23-.23.35-.77.43-1.31.18-.02-.01-.04-.02-.07-.03-.02-.01-.05-.02-.07-.04-.02-.01-.04-.03-.07-.04-.03-.02-.05-.03-.08-.05-.48-.34-.74-.87-.61-1.28.21-.31.8-.3,1.38.02"></path>
          <path class="cls-9" d="m48.93,51.42c.57.33.92.86.82,1.23-.24.37-.82.44-1.37.15-.02-.01-.05-.02-.07-.04-.02-.01-.04-.02-.07-.04-.53-.33-.82-.9-.69-1.33.21-.31.8-.3,1.38.02"></path>
          <path class="cls-9" d="m46.78,52.73c.55.31.88.84.81,1.24-.29.41-.87.53-1.39.27-.03-.01-.06-.03-.09-.05-.03-.02-.06-.03-.08-.05-.49-.33-.75-.92-.61-1.42.25-.3.82-.3,1.37.01"></path>
          <path class="cls-9" d="m45.73,55.01c.55.31.88.84.81,1.24-.29.41-.87.53-1.39.27-.03-.01-.06-.03-.09-.05-.03-.02-.06-.03-.08-.05-.49-.33-.75-.92-.61-1.42.25-.3.82-.3,1.37,0"></path>
          <path class="cls-9" d="m45.86,57.7c.58.33.92.9.83,1.33-.32.46-.93.6-1.49.33-.03-.01-.06-.03-.09-.05s-.06-.04-.09-.06c-.52-.35-.78-.99-.63-1.54.27-.33.88-.35,1.46-.02"></path>
          <path class="cls-9" d="m47.16,60.45c.58.33.92.9.83,1.33-.32.45-.93.59-1.49.33-.03-.01-.06-.03-.09-.05-.03-.02-.06-.04-.09-.05-.52-.35-.78-.99-.63-1.54.27-.33.88-.35,1.46-.02"></path>
          <path class="cls-9" d="m49.81,62.53c.58.33.92.9.83,1.33-.32.45-.93.59-1.49.33-.03-.01-.06-.03-.09-.05-.03-.02-.06-.04-.09-.05-.52-.35-.78-.99-.63-1.54.27-.33.88-.35,1.46-.02"></path>
          <path class="cls-9" d="m52.71,63.56c.58.33.92.9.83,1.33-.32.45-.93.6-1.49.33-.03-.01-.06-.03-.09-.05-.03-.02-.06-.03-.09-.05-.52-.35-.78-.99-.63-1.54.27-.33.88-.35,1.46-.02"></path>
          <path class="cls-16" d="m57.79,64.88l-.44,1.19-1.85.57.39-.92c-.04-.06-.07-.11-.1-.17.66-.18,1.28-.46,1.82-.83.12.1.19.16.19.16"></path>
          <path class="cls-16" d="m55.92,61.77c-.08,1.3,1.18,2.53,1.68,2.95-.54.37-1.15.65-1.82.83-1.16-1.92-.7-3.63-.27-4.13.23-.27.44-.2.41.35"></path>
          <path class="cls-16" d="m55.78,65.55c-.12.03-.24.06-.36.09-1.27-2.28-.31-3.77.07-4.23h.01c-.43.51-.89,2.22.27,4.14"></path>
          <path class="cls-5" d="m64.2,50.45c1.67.21,2.09,1.68,2.09,1.68-3.23,5.3-7.41,4.32-7.41,4.32h0c-.42-.78-.96-1.54-1.61-2.24-.78-.84-1.72-1.6-2.79-2.21-2.05-1.17-4.21-1.6-6.08-1.35h0c-.07-.07-3.13-3.27-1.16-9.21,0,0,1.32-.48,2.44.91,1.13,1.39-1.38,4.06,1.96,6.51,0,0,4.79,2.38,6.66,3.61,2.88,1.91,4.22-2.22,5.9-2.02"></path>
          <path class="cls-9" d="m59.8,61.22c.04,1-.13,1.97-.54,2.86-.04.1-.09.19-.14.28-.41.78-.99,1.42-1.69,1.92l-.08-.21.44-1.19s-.07-.06-.19-.16c.76-.52,1.37-1.22,1.78-2.1.21-.45.35-.92.43-1.4"></path>
          <path class="cls-4" d="m55.55,61.35l-.21-.23c.36-.29.66-.66.87-1.12.64-1.39.25-3.13-.87-4.51l.21-.2c.12.12.25.23.41.33.02.01.04.03.07.04.02.01.05.03.07.04.59.31,1.18.28,1.35-.08.01-.02.02-.05.03-.07.02-.02.03-.05.04-.08.16-.35.01-.8-.33-1.16l.09-.11c.65.7,1.19,1.46,1.61,2.24.84,1.57,1.18,3.25.92,4.78-.08.48-.22.95-.43,1.4-.4.88-1.02,1.58-1.78,2.1-.49-.43-1.76-1.65-1.68-2.95.03-.55-.18-.62-.41-.35h-.01s.04-.06.06-.08"></path>
          <path class="cls-9" d="m57.35,66.07l.08.21c-2.34,1.66-6.03,1.66-9.43-.29-4.54-2.59-6.85-7.65-5.16-11.3.05-.11.11-.22.17-.33.43-.79,1.02-1.43,1.74-1.92-.35.38-.64.82-.87,1.31-1.58,3.42.61,8.18,4.89,10.63,2.27,1.3,4.67,1.69,6.66,1.25.03.05.06.11.09.16l-.27.58.25.27,1.85-.57Z"></path>
          <path class="cls-16" d="m55.89,65.72l-.39.93-.25-.27.27-.58c-.03-.05-.06-.11-.09-.16.12-.03.24-.05.36-.09.03.06.07.11.1.17"></path>
          <path class="cls-4" d="m46.63,56.09c.26-.56-.03-1.29-.64-1.64-.61-.35-1.31-.18-1.57.38-.02.05-.05.11-.06.17-.13.5.12,1.09.61,1.42.03.02.06.04.08.05.03.02.06.03.09.05.53.26,1.1.14,1.39-.27.03-.05.06-.1.09-.15m.17,2.78c.28-.62,0-1.41-.65-1.78-.64-.37-1.39-.17-1.68.45-.03.06-.05.12-.07.19-.15.55.11,1.19.63,1.54.03.02.06.04.09.05.03.02.06.03.09.05.56.27,1.17.13,1.49-.33.04-.05.07-.11.1-.17m.88-5.05c.26-.56-.03-1.29-.64-1.64-.61-.35-1.31-.18-1.57.38-.02.05-.05.11-.06.17-.13.5.12,1.09.61,1.42.03.02.06.04.08.05.03.02.06.03.09.05.53.26,1.1.14,1.39-.27.03-.05.06-.1.09-.15m.42,7.8c.28-.62,0-1.41-.65-1.78-.64-.37-1.39-.17-1.68.45-.03.06-.05.12-.07.19-.15.55.11,1.19.63,1.54.03.02.06.04.09.05.03.02.06.03.09.05.56.27,1.17.13,1.49-.33.04-.05.07-.11.1-.17m1.7-9.04c.21-.45-.11-1.11-.72-1.45-.61-.35-1.27-.26-1.49.19-.01.03-.02.06-.03.09-.01.02-.03.04-.04.06-.17.36.16.91.73,1.26.02.01.04.03.07.04.02.01.05.03.07.04.59.31,1.18.28,1.35-.08.01-.02.02-.05.03-.07.02-.02.03-.05.04-.08m.95,11.13c.28-.61,0-1.41-.65-1.78-.64-.37-1.39-.17-1.68.45-.03.06-.05.12-.07.19-.15.55.11,1.19.63,1.54.03.02.06.04.09.05.03.02.06.03.09.05.56.27,1.17.13,1.49-.33.04-.05.07-.11.1-.17m1.7-11.28c.21-.45-.11-1.11-.72-1.45-.61-.35-1.27-.26-1.48.19-.01.03-.02.06-.03.09-.01.02-.03.04-.04.06-.16.34.13.86.65,1.21.02.02.05.03.08.05.02.01.04.03.07.04.02.01.05.03.07.04.02.01.04.02.07.03.57.27,1.12.23,1.28-.11.01-.02.02-.05.03-.07.02-.02.03-.05.04-.08m1.19,12.3c.28-.62,0-1.41-.65-1.78-.64-.37-1.39-.17-1.68.45-.03.06-.05.12-.07.19-.15.55.11,1.19.63,1.54.03.02.06.04.09.05.03.02.06.03.09.05.56.27,1.17.13,1.49-.33.04-.05.07-.11.1-.17m1.56-11.24c.21-.46-.11-1.11-.72-1.46-.61-.35-1.27-.26-1.49.19-.01.03-.02.06-.03.09-.01.02-.03.04-.04.06-.17.36.16.91.73,1.26.02.01.04.03.07.04.02.01.05.03.07.04.59.31,1.18.28,1.35-.08.01-.02.02-.05.03-.07.02-.03.03-.05.04-.08m2.08.72l-.09.11c-.11-.11-.24-.21-.39-.3-.61-.35-1.27-.26-1.48.19-.01.03-.02.06-.03.09-.01.02-.03.04-.04.06-.12.26.02.62.31.93l-.21.2c-.46-.56-1.04-1.06-1.71-1.45-2.33-1.33-4.96-.83-5.86,1.13-.9,1.96.25,4.62,2.59,5.96,1.8,1.03,3.76.96,4.99-.01l.21.23s-.04.04-.06.07c-.38.46-1.34,1.95-.07,4.23-1.99.43-4.39.05-6.66-1.25-4.28-2.45-6.47-7.21-4.89-10.63.23-.49.52-.93.87-1.31.91-1,2.2-1.61,3.66-1.8h0c1.87-.25,4.03.18,6.08,1.35,1.07.61,2.01,1.37,2.79,2.21"></path>
          <path class="cls-2" d="m53.74,57.63l-.22-1.55-1.47-.83-1.25.72.02,1.98,1.47.83,1.45-1.16Zm1.6-2.14c1.12,1.37,1.52,3.12.87,4.51-.21.45-.51.82-.87,1.12-1.22.98-3.19,1.04-4.99.01-2.33-1.33-3.49-4-2.59-5.96.9-1.96,3.53-2.46,5.86-1.13.68.39,1.26.89,1.71,1.45"></path>
          <path class="cls-11" d="m27.37,68.88c-.05,1.66,3.19,3.16,3.22,3.18-.41-.24-.73-.42-.92-.53-1.65-.94-2.18-1.87-2.3-2.65m34.01,10.14s-1.56,4.45-2.53,6.5c0,0,0,0,0,0,1.09-2.15,2.53-6.51,2.53-6.51"></path>
          <path class="cls-14" d="m52.17,84.4c.47.27,1.68,1.06,2.91,1.66-.04-.02-.08-.04-.12-.07-.42-.24-1.47-.84-2.79-1.6m6.68,1.13c-.02.05-.05.1-.07.15.03-.05.05-.1.08-.15,0,0,0,0,0,0m-.61,1c-.35.19-.81.29-1.42.19-.02,0-.03,0-.05,0,.1.02.2.04.29.06.51.08.93.03,1.18-.24"></path>
          <path class="cls-6" d="m27.37,68.88h0c.12.78.65,1.71,2.3,2.65.19.11.51.29.92.53h0s20.64,11.8,21.57,12.33c0,0,.01,0,.02.01,1.32.75,2.37,1.35,2.79,1.6.04.02.08.04.12.07.58.28,1.17.53,1.68.65.02,0,.03,0,.05,0,.61.1,1.07,0,1.42-.19.16-.18.34-.47.54-.85.02-.05.05-.1.07-.15.97-2.05,2.53-6.5,2.53-6.5l-5.11-2.83s2.55,5.68-3.93,5.24c-.22-.01-.46-.04-.71-.08-7.02-1.17-24.27-12.47-24.27-12.47"></path>
          <path class="cls-11" d="m58.58,67.2h0s.01.01.03.03c-.02-.02-.03-.03-.03-.03m1.36,1.4s.04.05.06.07c-.02-.02-.04-.05-.06-.07m.53.84s.01.04.02.06c0-.02,0-.04-.02-.06m.46,3.65c.25,2.75.45,5.94.45,5.94.02-1.28-.22-3.8-.45-5.94"></path>
          <path class="cls-6" d="m56.33,76.14s-.06.06-.06.06l5.11,2.83-5.05-2.88Z"></path>
          <path class="cls-13" d="m40.43,61.74c2.71,7.02,12.07,9.08,14.89,9.55.51.09.81.12.81.12,2.59,2.23.59,4.36.2,4.73l5.05,2.88s-.2-3.19-.45-5.94c-.19-1.77-.39-3.27-.45-3.58,0,0,0,0,0,0,0-.02-.01-.04-.02-.06-.06-.21-.24-.48-.47-.77-.02-.02-.04-.05-.06-.07-.5-.6-1.17-1.23-1.32-1.37-.02-.02-.03-.03-.03-.03h0c-.34,1.78-2.46,3.06-2.46,3.06-.9-.03-1.76-.12-2.58-.26-8.71-1.45-13.11-8.26-13.11-8.26"></path>
          <path class="cls-3" d="m37.67,57s-6.91,3.89-1.54,7.18c0,0-4-2.83,1.54-7.18"></path>
          <path class="cls-9" d="m63.62,50.81s1.24,1.5,2.67,1.32c0,0-2.89,5.13-7.41,4.32,0,0-1.28-2.34-3.4-3.77,0,0,3.98,3.14,6.93,1.96,2.94-1.18,1.21-3.82,1.21-3.82"></path>
        </g>
      </g>
    </g>
  </g>
</svg>
