<?xml version="1.0" encoding="UTF-8"?>
<svg xmlns="http://www.w3.org/2000/svg" id="biodechst" viewBox="0 0 100 100">
  <defs>
    <style>
      .cls-1 {
        fill: #33170f;
      }

      .cls-1, .cls-2, .cls-3, .cls-4, .cls-5, .cls-6, .cls-7, .cls-8 {
        stroke-width: 0px;
      }

      .cls-2 {
        fill: #1b1c1b;
      }

      .cls-3 {
        fill: #868686;
      }

      .cls-4 {
        fill: #3c3c3b;
      }

      .cls-5 {
        fill: #fff;
      }

      .cls-6 {
        fill: #636362;
      }

      .cls-7 {
        fill: #ed7266;
      }

      .cls-8 {
        fill: #935429;
      }
    </style>
  </defs>
  <rect class="cls-6" x="20" y="25.27" width="61.56" height="66.05"></rect>
  <rect class="cls-3" x="20" y="22.57" width="61.56" height="2.64"></rect>
  <polygon class="cls-6" points="24.49 18.47 20 22.57 81.55 22.51 79.61 18.41 24.49 18.47"></polygon>
  <polygon class="cls-8" points="70.9 48.78 70.72 84.41 23.1 84.41 23.1 29.21 78.68 29.21 78.68 48.78 70.9 48.78"></polygon>
  <g>
    <path class="cls-2" d="m46.86,66.23c.17,0,1.99.55,4.41.55s4.03-.44,4.03-.44l.66.55s-.72,3.75-4.97,3.75-4.91-3.97-4.91-3.97l.77-.44Z"></path>
    <path class="cls-5" d="m55.07,48.87c4.93-1.34,11.18,12.58,3.68,15.37-7.5,2.8-8.83-13.98-3.68-15.37"></path>
    <path class="cls-5" d="m47.77,48.87c-4.93-1.34-11.18,12.58-3.68,15.37,7.5,2.8,8.83-13.98,3.68-15.37"></path>
    <path class="cls-5" d="m53.96,66.62l-.25.5-.04.08s-.59.81-2.61.96c-1.1.08-1.92-.42-2.43-.88-.43-.39-.66-.77-.66-.77,3.31.37,6,.11,6,.11"></path>
    <path class="cls-7" d="m53.92,69.86s-2.21,1.77-5.52.11c0,0,.63-1.07,1.62-.99,0,0,0,0,.01,0,.98.08,1.2.48,1.2.48,0,0,.46-.62,1.16-.61.06,0,.13,0,.2.02.81.15,1.32.99,1.32.99"></path>
    <path class="cls-7" d="m53.92,69.86s-2.21,1.77-5.52.11c0,0,.63-1.07,1.62-.99,0,0,0,0,.01,0-.28.18-.56.45-.67.88,1.69.99,3.57-.11,3.57-.11,0,0-.18-.54-.53-.9.06,0,.13,0,.2.02.81.15,1.32.99,1.32.99"></path>
    <path class="cls-2" d="m40.52,49.22c.39-.93.91-1.79,1.49-2.63.6-.83,1.29-1.62,2.16-2.27.44-.32.9-.66,1.44-.91.27-.12.57-.22.88-.27.31-.05.63-.05.95,0,.32.05.63.14.91.27.29.13.55.3.78.49.46.39.78.89.93,1.45.02.07-.02.13-.09.15-.02,0-.04,0-.06,0h0c-.56-.12-1.02-.23-1.44-.27-.21-.02-.41-.03-.6-.03-.19,0-.36.02-.54.04-.34.04-.68.09-1.07.15-.39.06-.81.16-1.2.36-.39.19-.78.44-1.16.7-.38.26-.76.55-1.12.86-.73.61-1.43,1.3-2.09,2.03h0s-.11.05-.15.01c-.03-.03-.04-.08-.03-.12"></path>
    <path class="cls-2" d="m62.26,49.33c-.66-.73-1.35-1.42-2.09-2.03-.37-.31-.74-.6-1.12-.86-.38-.26-.77-.5-1.16-.7-.39-.2-.81-.31-1.2-.36-.39-.06-.73-.1-1.07-.15-.17-.02-.35-.03-.54-.04-.19,0-.38.01-.6.03-.43.04-.89.16-1.44.27h0c-.07.01-.13-.03-.14-.09,0-.02,0-.04,0-.06.15-.56.47-1.05.93-1.45.23-.2.49-.36.78-.49.29-.13.6-.22.91-.27.32-.05.64-.04.95,0,.31.05.6.14.88.27.55.25,1.01.59,1.44.91.88.65,1.57,1.44,2.16,2.27.59.84,1.1,1.7,1.49,2.63.02.05,0,.12-.06.14-.04.02-.09,0-.12-.03h0Z"></path>
    <path class="cls-2" d="m55.18,49.11c2.59-.67,4.67,2.4,5.61,4.36,1.22,2.54,1.97,6.06.32,8.59-1.38,2.13-4.59,3.11-6.56,1.22-1.88-1.8-2.38-4.9-2.39-7.38,0-1.46.18-2.98.73-4.35.43-1.05,1.14-2.11,2.28-2.44.22-.06-.04-.54-.22-.49-2.46.7-3.05,4.06-3.15,6.22-.13,2.78.37,6,2.17,8.23.74.92,1.76,1.61,2.97,1.71,1.42.11,2.93-.56,3.91-1.56,2.27-2.33,1.72-6.15.64-8.89-.64-1.62-1.58-3.19-2.85-4.38-.97-.91-2.3-1.69-3.67-1.33-.22.06.04.54.22.49"></path>
    <path class="cls-2" d="m47.71,48.63c-2.79-.72-5.03,2.61-6.03,4.73-1.27,2.71-1.99,6.4-.19,9.06,1.49,2.21,4.8,3.29,6.92,1.33,2.08-1.92,2.65-5.25,2.65-7.95,0-2.4-.56-6.38-3.34-7.17-.24-.07-.04.43.13.48,2.26.64,2.73,3.83,2.82,5.79.12,2.59-.33,5.6-1.94,7.72-.67.88-1.61,1.56-2.74,1.68-1.34.14-2.8-.47-3.74-1.41-2.16-2.16-1.54-5.88-.51-8.43.61-1.5,1.47-2.97,2.66-4.08.91-.86,2.16-1.6,3.45-1.27.24.06.04-.44-.13-.48"></path>
    <path class="cls-2" d="m48.14,59.95c-.5.7-1.19,1.07-1.55.81-.36-.25-.25-1.03.25-1.73.5-.7,1.19-1.07,1.55-.81.36.25.25,1.03-.25,1.73m-.17-8.24c-.38-.08-.77-.04-1.15.1.53.35.66,1.47.28,2.66-.42,1.3-1.29,2.18-1.96,1.96-.59-.19-.81-1.2-.55-2.34-.29.57-.52,1.21-.67,1.91-.59,2.72.27,5.22,1.92,5.58,1.65.36,3.46-1.56,4.05-4.29.59-2.72-.27-5.22-1.92-5.57"></path>
    <path class="cls-2" d="m58.02,59.79c-.5.7-1.19,1.07-1.55.81-.36-.25-.25-1.03.25-1.73.5-.7,1.19-1.07,1.55-.81.36.25.25,1.03-.25,1.73m.91-3.78c-.59-2.72-2.4-4.64-4.05-4.29-.08.02-.15.04-.22.06.01,0,.03,0,.04.01.66.21.86,1.44.44,2.74-.42,1.3-1.29,2.18-1.96,1.96-.15-.05-.28-.16-.38-.31.03.36.08.73.16,1.1.59,2.72,2.4,4.64,4.05,4.29s2.51-2.85,1.92-5.58"></path>
    <path class="cls-2" d="m47.41,65.48c-.66.76-1.65,1.25-2.59,1.55-.32.1-.22.39.1.29,1.06-.34,2.18-.9,2.93-1.76.21-.24-.31-.23-.44-.08"></path>
    <path class="cls-2" d="m54.56,65.49c.64,1.02,1.74,1.77,2.94,1.93.35.05-.03-.26-.2-.28-.93-.12-1.76-.82-2.25-1.6-.08-.13-.6-.23-.49-.05"></path>
    <path class="cls-2" d="m46.64,66.35c.76.06,1.53.32,2.28.42,1.35.17,2.73.18,4.08.04.68-.07,1.53-.09,2.18-.35.12-.05-.09,0-.09.03,0,.08.38.32.44.37.17.13.13.06.13.22,0,.35-.29.83-.45,1.13-.36.65-.85,1.23-1.48,1.64-1.72,1.14-4.34.89-5.85-.49-.77-.7-1.37-1.73-1.55-2.77-.04.04-.07.07-.11.11.26-.15.51-.29.77-.44.3-.17-.19-.1-.31-.04-.26.15-.51.29-.77.44-.03.02-.12.06-.11.11.27,1.57,1.43,3.03,2.9,3.62,2.28.92,5.28.22,6.72-1.82.36-.51.66-1.12.78-1.73,0-.02,0-.03-.01-.04-.29-.24-.53-.6-.93-.52-.79.15-1.56.29-2.36.35-1.33.1-2.65.06-3.97-.14-.62-.09-1.25-.31-1.88-.36-.12,0-.56.21-.43.22"></path>
    <path class="cls-1" d="m47.75,66.59c.58,1.14,2,1.66,3.2,1.69,1.13.03,2.7-.35,3.18-1.53.09-.24-.44-.33-.52-.13-.39.98-1.63,1.33-2.57,1.33-1.01,0-2.25-.43-2.74-1.4-.1-.19-.64-.16-.54.04"></path>
    <path class="cls-1" d="m48.56,69.98c.24-.3.55-.63.89-.81.54-.28,1.19.08,1.6.47.11.1.37-.09.44-.16.39-.42.83-.67,1.36-.33.29.19.55.43.78.68.13.14.59-.14.49-.25-.36-.4-.87-.94-1.43-.98-.61-.04-1.23.47-1.62.89.15-.05.29-.11.44-.16-.51-.49-1.27-.79-1.94-.5-.56.24-1.04.69-1.42,1.15-.19.23.33.1.43-.02"></path>
  </g>
  <rect class="cls-6" x="35.83" y="11.32" width="30.66" height="9.25"></rect>
  <rect class="cls-4" x="38.07" y="13.26" width="26.19" height="7.31"></rect>
  <rect class="cls-4" x="72.86" y="50.82" width="6.84" height="36.87"></rect>
  <rect class="cls-3" x="73.67" y="84.76" width="5.41" height="2.27"></rect>
</svg>
