<?xml version="1.0" encoding="UTF-8"?>
<svg xmlns="http://www.w3.org/2000/svg" id="verre" viewBox="0 0 100 100">
  <defs>
    <style>
      .cls-1 {
        fill: #fff;
      }

      .cls-2 {
        fill: #32160e;
      }

      .cls-3 {
        fill: #868686;
      }

      .cls-4 {
        fill: #1a1a1a;
      }

      .cls-5 {
        fill: #17803f;
      }

      .cls-6 {
        fill: #bcbcbb;
      }

      .cls-7 {
        fill: #1d1d1b;
      }
    </style>
  </defs>
  <path class="cls-3" d="m18.3,86.9h63.4s-3.12-61.36-3.12-62.42c0-7.09-4.43-12.08-11.56-13.03-9.42-1.26-15.58-1.29-17.02-1.29s-7.6.04-17.02,1.29c-7.13.95-11.56,5.95-11.56,13.03,0,1.06-3.12,62.42-3.12,62.42"></path>
  <rect class="cls-6" x="15.26" y="86.69" width="69.47" height="3.39"></rect>
  <path class="cls-5" d="m64.16,36.89h-28.03V11.03s5.51-.99,13.49-.95,14.53.95,14.53.95v25.86Z"></path>
  <path class="cls-7" d="m55.57,24.59c0,3.08-2.49,5.57-5.57,5.57s-5.57-2.49-5.57-5.57,2.49-5.57,5.57-5.57,5.57,2.49,5.57,5.57"></path>
  <g>
    <path class="cls-1" d="m54.66,49.52c4.82-1.31,10.92,12.29,3.59,15.02-7.33,2.73-8.62-13.65-3.59-15.02Z"></path>
    <path class="cls-1" d="m46.12,49.74c-4.82-1.31-10.92,12.29-3.59,15.02,7.33,2.73,8.62-13.65,3.59-15.02Z"></path>
    <path class="cls-4" d="m38.91,49.68c.43-.89.97-1.71,1.59-2.49.62-.78,1.33-1.51,2.22-2.11.44-.3.91-.6,1.45-.82.27-.11.56-.19.87-.22.3-.03.62-.02.93.04.31.06.6.16.88.3.27.14.52.32.73.52.42.41.72.9.84,1.46.01.06-.03.13-.09.14-.02,0-.04,0-.05,0h0c-.54-.14-.98-.28-1.4-.34-.21-.03-.4-.05-.58-.06-.18,0-.36,0-.53.01-.34.03-.67.06-1.05.09-.38.04-.8.12-1.19.29-.39.17-.78.39-1.17.63-.39.24-.76.5-1.14.78-.75.56-1.46,1.2-2.14,1.88h0s-.11.04-.15,0c-.03-.03-.04-.08-.02-.12Z"></path>
    <path class="cls-4" d="m61.62,48.87c-.77-.63-1.58-1.22-2.41-1.73-.41-.26-.84-.49-1.26-.7-.11-.05-.21-.11-.32-.15-.11-.05-.21-.1-.32-.14l-.32-.13-.32-.11c-.43-.15-.88-.2-1.29-.22-.42-.02-.79-.04-1.16-.05-.38-.01-.76,0-1.19.07-.43.07-.89.22-1.45.36h0c-.06.02-.13-.02-.14-.08,0-.02,0-.04,0-.06.04-.14.08-.28.14-.41.03-.07.06-.14.09-.2.03-.06.07-.12.11-.19.08-.12.15-.25.25-.36.1-.11.2-.22.31-.33.45-.4,1.03-.7,1.64-.84.15-.03.31-.06.46-.07.15,0,.31-.01.46,0,.15.01.3.03.45.06.15.03.29.07.43.11.57.18,1.07.45,1.55.71.97.53,1.79,1.2,2.52,1.94.73.74,1.38,1.53,1.93,2.39.03.05.02.11-.03.14-.04.02-.09.02-.12,0h0Z"></path>
    <path class="cls-4" d="m54.76,49.76c2.53-.65,4.56,2.34,5.48,4.26,1.19,2.48,1.93,5.92.32,8.39-1.35,2.08-4.48,3.03-6.4,1.2-1.84-1.76-2.33-4.79-2.34-7.21,0-1.43.17-2.91.71-4.25.42-1.02,1.11-2.06,2.23-2.38.21-.06-.04-.53-.21-.48-2.41.69-2.98,3.96-3.08,6.08-.13,2.72.36,5.87,2.12,8.04.73.9,1.72,1.58,2.9,1.67,1.38.11,2.86-.55,3.82-1.52,2.22-2.27,1.68-6.01.62-8.69-.63-1.58-1.54-3.11-2.79-4.28-.95-.89-2.25-1.65-3.58-1.3-.21.05.04.52.21.48Z"></path>
    <path class="cls-4" d="m54.45,52.12c-.12-.01-.24.02-.36.08.18.1.29.45.25.84-.05.46-.28.81-.52.78-.23-.02-.38-.4-.34-.84-.12.28-.21.62-.25.99-.11,1.09.25,2.01.81,2.07.56.06,1.11-.77,1.22-1.86.11-1.09-.25-2.01-.81-2.07Z"></path>
    <path class="cls-4" d="m43.6,52.12c-.12-.01-.24.02-.36.08.18.1.29.45.25.84-.05.46-.28.81-.52.78-.23-.02-.38-.4-.34-.84-.12.28-.21.62-.25.99-.11,1.09.25,2.01.81,2.07.56.06,1.11-.77,1.22-1.86.11-1.09-.25-2.01-.81-2.07Z"></path>
    <path class="cls-4" d="m46.06,49.5c-2.73-.7-4.92,2.55-5.89,4.62-1.25,2.65-1.94,6.26-.19,8.85,1.46,2.16,4.69,3.21,6.76,1.3,2.03-1.88,2.59-5.13,2.59-7.77,0-2.35-.55-6.23-3.27-7.01-.23-.07-.04.42.13.47,2.21.63,2.67,3.74,2.76,5.66.12,2.53-.32,5.47-1.9,7.54-.66.86-1.58,1.53-2.68,1.64-1.31.13-2.73-.46-3.65-1.38-2.11-2.11-1.51-5.75-.5-8.23.59-1.46,1.44-2.9,2.6-3.99.89-.84,2.11-1.56,3.37-1.24.24.06.04-.43-.13-.47Z"></path>
    <path class="cls-4" d="m59.23,69c-4.82,2.61-10.81,3.7-15.87,1.12-.32-.16-.65-.34-.94-.55.07.13.13.25.2.38.05-.43.48-.72.83-.91.15-.08-.12-.54-.28-.46-.4.21-.84.55-.9,1.03-.02.14.09.3.2.38.87.64,1.94,1.07,2.96,1.39,2.56.82,5.32.91,7.95.38,2.15-.43,4.21-1.25,6.13-2.29.15-.08-.12-.55-.28-.46h0Z"></path>
    <path class="cls-2" d="m57.17,68.51c.44,0,.91.1,1.31.27,1.02.44,1.31,1.38,1.16,2.44-.03.24.36.55.41.22.16-1.18-.15-2.34-1.22-2.97-.53-.31-1.19-.47-1.8-.47-.26,0-.09.51.15.51h0Z"></path>
    <path class="cls-4" d="m46.42,74.1c2.32,1.83,5.63,1.86,8.1.35.16-.1-.16-.53-.34-.42-2.35,1.44-5.52,1.46-7.75-.3-.27-.22-.17.24-.02.36h0Z"></path>
  </g>
</svg>
