<?xml version="1.0" encoding="UTF-8"?>
<svg xmlns="http://www.w3.org/2000/svg" xmlns:xlink="http://www.w3.org/1999/xlink" version="1.1" id="Calque_1" x="0px" y="0px" viewBox="0 0 100 100" style="enable-background:new 0 0 100 100;" xml:space="preserve">
<style type="text/css">
	.st0{fill-rule:evenodd;clip-rule:evenodd;fill:#F0D641;}
	.st1{fill-rule:evenodd;clip-rule:evenodd;}
	.st2{fill-rule:evenodd;clip-rule:evenodd;fill:#343470;}
	.st3{fill-rule:evenodd;clip-rule:evenodd;fill:#36378D;}
</style>
<g>
	<path class="st0" d="M76.4,20.2c-0.9,1.2-2.3,2.8-3.5,4.4c-1.2,1.6-2.3,3.2-3.2,4.5c-0.9,1.3-1.6,2.4-2,3.2   c-0.4,0.8-0.6,1.2-0.7,1.6c0.2,0.5,0.5,0.9,0.9,1.1c0.3,0.3,0.7,0.4,1,0.5c0.3,0.1,0.5,0.1,0.7,0.1c0.2,0,0.3-0.2,0.5-0.3   c0.2-0.1,0.3-0.2,0.6-0.6c0.3-0.3,0.6-0.9,1.1-1.6c0.5-0.7,0.9-1.3,1.4-2c0.4-0.5,0.6-0.7,0.7-1c0.1-0.3,0.2-0.6,0.4-0.9   c0.2-0.3,0.6-0.6,0.9-1c0.3-0.4,0.6-0.8,1.2-1.6c0.6-0.8,1.5-2.1,2.2-3.1c0.7-1,1.2-1.8,1.6-2.4c0.4-0.6,0.8-1.1,1.1-1.6   c0.3-0.4,0.4-0.8,0.6-1.1c0.2-0.3,0.4-0.6,0.4-0.9c0.1-0.3,0-0.5,0-0.7c0-0.2,0-0.3-0.2-0.5c-0.2-0.2-0.5-0.5-0.8-0.7   c-0.2-0.2-0.5-0.3-0.7-0.5c-0.9,0.6-1.6,1.3-2.2,2.1C77.7,18.1,77.3,18.9,76.4,20.2L76.4,20.2z M39.5,22.4c0.1,0.6,0.3,1.1,0.8,1.7   s1.1,1.4,1.9,2.2c0.8,0.8,1.7,1.5,2.3,2c0.6,0.4,0.8,0.5,1.3,0.9c0.4,0.4,1.1,1,1.7,1.7c0.6,0.7,1.2,1.4,1.9,2.1   c0.7,0.7,1.4,1.5,2.1,2c0.7,0.5,1.3,0.7,1.9,0.8c0.5,0.1,1-0.1,1.3-0.2c0.3-0.1,0.4-0.2,0.5-0.4c0.1-0.1,0.2-0.3,0.2-0.5   c0-0.2-0.2-0.6-0.5-0.8c-0.2-0.3-0.5-0.5-1.1-1.3c-0.9-1-1.7-1.9-2.6-2.9c-0.8-0.9-1.3-1.5-1.9-2.1c-0.7-0.7-1.5-1.4-2.2-2.1   c-0.6-0.6-1.2-1.3-1.8-2c-0.5-0.7-1-1.4-1.4-1.9c-0.5-0.6-1-1-1.5-1.3c-0.5-0.3-1.1-0.4-1.6-0.2c-0.5,0.1-0.8,0.4-1,0.9   C39.5,21.2,39.4,21.8,39.5,22.4L39.5,22.4z"></path>
	<path class="st1" d="M36.9,80.9c0.4,0,1,0.1,1.6,0.1c0.5,0,1.1,0.1,1.6,0.1c0.4,0,0.6,0.1,1,0.1c0.4,0.1,1.2,0.2,2.2,0.3   c1.3,0.1,2.5,0.2,3.8,0.2c1.5,0,3.1,0,4.1-0.1c1,0,1.2,0,1.5,0c0.2,0,0.4,0,0.9,0c0.6,0,1.2,0,1.8-0.1c0.6,0,1.2-0.1,1.6-0.2   c0.4,0,0.7-0.1,1.2-0.1c0.5-0.1,1.3-0.1,1.7-0.2c0.5-0.1,0.8-0.1,1-0.1c0.2,0,0.4,0,0.6,0c0.2,0,0.4,0,0.6-0.1   c0.1,0,0.2-0.1,0.3-0.3c0.1-0.1,0.1-0.3,0.1-0.5c0-0.2,0-0.5,0-0.8c0-0.3,0-0.7,0-1c0-0.3,0-0.6,0-0.9c0-0.3,0-0.8-0.1-1.2   c0-0.6,0-1.2,0-1.5c0-0.3,0-0.4,0-0.6c0-0.2,0-0.4,0-0.6c0-0.1,0-0.2,0-0.2c0-0.1,0-0.2,0-0.3c0-0.1,0-0.1,0-0.1   c0-0.2,0-0.4,0.1-0.6c0-0.2,0-0.4,0-0.5c0-0.1,0-0.2,0-0.3c0-0.1,0-0.2,0-0.2c0-0.1,0-0.1-0.1-0.1c0-0.4,0-0.8,0-1.1   c0-0.3,0-0.6,0-1c0-0.4,0.1-0.9,0.2-1.3c0.1-0.4,0.1-0.6,0.2-1c0.1-0.4,0.2-1,0.3-1.5c0.1-0.5,0.1-0.8,0.1-1.2   c0-0.3,0.1-0.7,0.1-0.9c0-0.2,0.1-0.3,0.1-0.5c0-0.1,0.1-0.3,0.1-0.5c0-0.2,0-0.3-0.1-0.5c-0.1-0.2-0.2-0.3-0.3-0.4   C63,61.2,63,61.1,63,61.1c-0.1-0.1-0.1-0.2-0.1-0.2c0-0.1,0-0.2,0-0.3c0-0.1,0-0.1,0-0.3c0-0.1,0-0.4,0-0.6s0-0.4,0-0.5   c0-0.2,0-0.4,0-0.6c0-0.2,0.1-0.4,0.1-0.5c0.1-0.2,0.2-0.3,0.3-0.5c0.1-0.1,0.3-0.3,0.4-0.4c0.2-0.1,0.3-0.2,0.4-0.2   c0.1,0,0.2,0,0.3,0c0.1,0,0.1,0,0.2,0.1c0.1,0.1,0.1,0.1,0.1,0.3c0,0.2,0,0.4,0.1,0.6l0,0.6c0,0.2,0,0.4,0,0.5c0,0.1,0,0.3,0,0.5   c0,0.2,0,0.6,0.1,0.9c0,0.3,0.1,0.5,0.2,0.8c0.1,0.2,0.1,0.4,0.1,0.6c0,0.2,0,0.6,0,1c0,0.5-0.1,1.1-0.2,1.6   c-0.1,0.5-0.1,0.9-0.2,1.4c0,0.5-0.1,1.1-0.1,1.5c0,0.4,0,0.7,0.1,0.9c0,0.2,0,0.4,0.1,0.6c0,0.2,0,0.4,0,0.6   c0,0.2-0.1,0.4-0.2,0.5c-0.1,0.2-0.1,0.3-0.2,0.4c-0.1,0.1-0.1,0.3-0.2,0.4c0,0.1-0.1,0.2,0,0.3c0,0.1,0.1,0.2,0.1,0.3   c0,0.1,0,0.1,0.1,0.1c0,0.1,0.1,0.2,0.1,0.4c0,0.2,0,0.6,0,0.9c0,0.4-0.1,0.7-0.2,1.1c-0.1,0.3-0.1,0.5-0.2,0.8   c-0.1,0.3-0.2,0.7-0.2,1c-0.1,0.4-0.1,0.9-0.1,1.4c0,0.5,0,1.1,0.1,1.5c0,0.4,0.1,0.7,0.2,1.1c0.1,0.4,0.1,0.8,0.1,1.2   c0,0.4,0,0.8,0,1.1c0,0.3-0.1,0.4-0.2,0.6c-0.1,0.2-0.2,0.4-0.3,0.6c-0.1,0.2-0.2,0.2-0.3,0.3c-0.1,0.1-0.3,0.1-0.4,0.1   c-0.1,0-0.2,0-0.4,0.1c-0.2,0-0.4,0.1-0.6,0.2c-0.2,0.1-0.5,0.2-0.6,0.3c-0.1,0.1-0.2,0.1-0.3,0.1c-0.1,0.1-0.3,0.1-0.4,0.2   c-0.2,0.1-0.4,0.1-0.7,0.1c-0.3,0-0.6,0-0.9,0c-0.2,0-0.4,0-0.7,0c-0.4,0-0.8,0-1.2,0.1c-0.4,0-0.8,0.1-1.1,0.2   c-0.2,0.1-0.3,0.1-0.5,0.1c-0.2,0-0.4,0.1-0.6,0.1c-0.2,0-0.3,0-0.5-0.1c-0.1,0-0.2-0.1-0.4-0.1c-0.2,0-0.4-0.1-0.6-0.1   c-0.3,0-0.6,0-0.9,0c-0.3,0-0.6,0.1-0.9,0.1c-0.2,0.1-0.5,0.1-0.7,0.2c-0.2,0.1-0.3,0.1-0.5,0.2c-0.2,0-0.4,0.1-0.5,0.1   c-0.2,0-0.2,0-0.5,0c-0.2,0-0.6,0.1-0.8,0.2c-0.3,0.1-0.5,0.1-0.7,0.2c-0.3,0.1-0.6,0.1-1,0.2c-0.3,0-0.5,0-0.8,0   c-0.2,0-0.4-0.1-0.6-0.1s-0.4-0.1-0.7-0.1c-0.3,0-0.7,0-1,0c-0.3,0-0.4,0-0.8,0s-0.9-0.1-1.3-0.2c-0.4-0.1-0.6-0.1-1-0.2   c-0.4-0.1-0.9-0.1-1.3-0.2c-0.4,0-0.7,0-1.1-0.1s-0.9-0.1-1.1-0.1c-0.3,0-0.4-0.1-0.7-0.1c-0.4-0.1-0.7-0.1-1.1-0.1   c-0.5,0-1,0-1.4,0.1c-0.4,0-0.5,0.1-1.1,0.1c-0.7,0-1.4,0-2.1,0c-0.7,0-1.2,0-1.7-0.1s-0.9-0.2-1.2-0.3c-0.3-0.1-0.4-0.1-0.5-0.2   c-0.2,0-0.4-0.1-0.7-0.1c-0.3,0-0.6,0-0.9,0c-0.3,0-0.6,0.1-0.8,0.1c-0.2,0.1-0.4,0.1-0.5,0.2c-0.1,0.1-0.3,0.1-0.4,0.1   c-0.1,0-0.3,0-0.5,0c-0.2,0-0.4-0.1-0.6-0.1c-0.2,0-0.3-0.1-0.5-0.1c-0.2,0-0.3-0.1-0.5-0.1c-0.2,0-0.3,0-0.5,0.1   c-0.2,0-0.3,0.1-0.7,0.1c-0.4,0.1-0.9,0.1-1.5,0.2c-0.5,0-1.1,0-1.4,0c-0.3,0-0.5,0-0.8-0.1c-0.3,0-0.8,0-1.1,0c-0.3,0-0.4,0-0.5,0   c-0.1,0-0.3,0-0.4,0c-0.1,0-0.2,0-0.3-0.1s-0.2-0.1-0.5,0c-0.2,0-0.6,0.1-0.8,0.1c-0.2,0-0.3,0.1-0.6,0.1C12.8,85,12.3,85,12,85   c-0.3,0-0.7,0-1-0.1c-0.3-0.1-0.7-0.2-1.1-0.3c-0.4-0.1-0.8-0.3-1.1-0.5c-0.2-0.1-0.4-0.3-0.6-0.4c-0.1-0.1-0.2-0.2-0.3-0.4   c-0.1-0.1-0.1-0.2-0.1-0.3c0-0.1,0-0.3,0-0.4s0.1-0.2,0.1-0.5c0-0.3,0-0.8,0-1.3l0-0.6c0-0.8,0-1.6,0-2.3c0-0.7,0-1.2,0-1.7   c0-0.5,0-0.9,0-1.3c0-0.4,0.1-0.6,0.1-0.8c0.1-0.2,0.1-0.3,0.2-0.5c0.1-0.1,0.1-0.2,0.2-0.4c0.1-0.2,0.1-0.4,0.1-0.8   c0-0.4,0-1-0.1-1.4c0-0.4,0-0.6,0-0.9c0-0.3,0-0.7,0-1c0-0.2,0.1-0.4,0.2-0.7c0.1-0.1,0.1-0.3,0.1-0.4c0-0.2,0-0.4,0-0.6   c0-0.2,0-0.3,0-0.4c0-0.2,0-0.4,0-0.8c0-0.4,0.1-0.9,0.2-1.3C9,64.5,9,64.1,9.1,63.7c0.1-0.5,0.1-1,0.1-1.4c0-0.4,0-0.6,0-0.8   c0-0.2,0-0.5,0-0.7c0-0.2,0.1-0.4,0.1-0.5s0-0.3,0-0.4c0-0.1-0.1-0.3-0.1-0.5c0-0.2-0.1-0.4-0.2-1.1c-0.1-0.9-0.2-1.8-0.3-2.7   c-0.1-0.8-0.1-1.1-0.1-1.4c0-0.3,0-0.5,0-0.7c0-0.2-0.1-0.3-0.1-0.4s-0.1-0.2-0.2-0.3c-0.1-0.1-0.1-0.2-0.2-0.3   c-0.1-0.1-0.1-0.2-0.1-0.4c0-0.2,0-0.3,0.1-0.5c0-0.2,0.1-0.3,0.1-0.6c0.1-0.3,0.1-0.8,0.2-1.2c0-0.5,0-0.9,0-1.2   c0-0.3,0-0.5-0.1-0.9c0-0.5,0-1,0-1.5c0-0.5,0-0.7,0-1.2c0-0.4-0.1-1.1-0.1-1.7c-0.1-0.6-0.1-1.2-0.2-1.7c0-0.5-0.1-0.9-0.1-1.5   c-0.1-0.6-0.1-1.1-0.2-1.7c-0.1-0.4-0.1-0.5-0.1-0.7c0-0.2,0-0.4-0.1-0.7c0-0.2,0-0.2,0-0.4c0-0.2,0-0.4-0.1-0.5   c-0.1-0.2-0.1-0.3-0.2-0.4c-0.1-0.1-0.1-0.2-0.2-0.4c-0.1-0.2-0.1-0.5-0.2-0.9c-0.1-0.5-0.1-1-0.1-1.5c0-0.4,0-0.8,0.1-1.2   c0.1-0.4,0.1-0.6,0.2-0.9c0.1-0.2,0.1-0.3,0.1-0.5c0-0.1,0-0.3,0-0.4c0-0.1-0.1-0.2-0.1-0.3c-0.1-0.2-0.1-0.3-0.1-0.5   c0-0.2,0-0.5,0-1.1c0.1-0.6,0.2-1.4,0.3-2c0.1-0.6,0.1-0.8,0.2-1s0-0.3,0.1-0.4c0-0.2,0.1-0.4,0.2-0.6c0.1-0.2,0.2-0.3,0.3-0.4   c0.2-0.1,0.4-0.3,0.7-0.4C8.7,23.2,9,23.1,9.4,23c0.4-0.1,0.8-0.2,1.2-0.3c0.4-0.1,0.8-0.2,1-0.3c0.2-0.1,0.4-0.1,0.5-0.2   c0.2-0.1,0.4-0.1,0.6-0.1c0.3,0,0.5,0,0.8,0.1c0.2,0,0.4,0.1,0.6,0.1c0.2,0,0.4,0,0.6-0.1c0.2,0,0.3-0.1,0.5-0.1   c0.2-0.1,0.5-0.1,0.7-0.1c0.2,0,0.4,0,0.5-0.1s0.3,0,0.5-0.1c0.1,0,0.3,0,0.4,0c0.1,0,0.3,0,0.5,0s0.3,0,0.5,0c0.2,0,0.4,0,0.6-0.1   c0.2,0,0.3,0,0.4-0.1c0.1,0,0.2,0,0.4,0c0.1,0,0.2,0,0.4,0c0.1,0,0.2-0.1,0.3-0.1c0.1,0,0.1-0.1,0.2-0.1c0.1,0,0.1-0.1,0.2-0.1   c0.1,0,0.2-0.1,0.4-0.1c0.2,0,0.4,0,0.6,0c0.2,0,0.2,0,0.4,0c0.2,0,0.4,0,0.6,0c0.2,0,0.4-0.1,0.5-0.1c0.1,0,0.2,0,0.4-0.1   c0.1,0,0.3,0,0.4,0s0.3,0.1,0.4,0.1c0.1,0,0.3,0.1,0.5,0.1c0.2,0,0.4,0,0.7,0c0.3,0,0.5,0,0.7-0.1c0.2,0,0.3-0.1,0.4-0.1   c0.2,0,0.5-0.1,0.9-0.1c0.4,0,0.9,0,1.3,0c0.5,0,1,0.1,1.5,0.1c0.5,0.1,0.9,0.1,1.2,0.2c0.3,0.1,0.5,0.1,0.7,0.1c0.2,0,0.4,0,0.6,0   s0.2,0,0.3,0c0.1,0,0.3,0,0.5,0c0.2,0,0.4,0.1,0.5,0.2c0.1,0.1,0.3,0.1,0.4,0.2c0.2,0.1,0.4,0.2,0.6,0.2c0.1,0,0.2,0,0.3-0.1   c0.1,0,0.1,0,0.2-0.1c0.1,0,0.2,0,0.3,0c0.1,0,0.3,0.1,0.5,0.1c0.1,0,0.2,0.1,0.3,0.1S37,22,37.2,22s0.4,0,0.6,0   c0.2,0,0.3,0,0.4-0.1c0.1,0,0.2,0,0.3,0c0.2,0,0.5,0.1,0.7,0.3c0.1,0.1,0.3,0.2,0.4,0.3c0.1,0.1,0.2,0.2,0.2,0.3   c0,0.1,0.1,0.2,0,0.2c0,0.1,0,0.1-0.1,0.2c0,0.1-0.1,0.1-0.1,0.2c0,0.1-0.1,0.2-0.1,0.3c0,0.1-0.1,0.3-0.1,0.4c0,0.1,0,0.1-0.1,0.2   c0,0.1-0.1,0.2-0.1,0.2c-0.1,0.1-0.4,0.2-0.6,0.3c-0.1,0-0.2,0-0.4,0c-0.1,0-0.3,0-0.5,0.1c-0.1,0-0.2,0-0.3,0c-0.1,0-0.3,0-0.5,0   c-0.2,0-0.4,0-0.5-0.1c-0.2,0-0.3-0.1-0.5-0.1c-0.3-0.1-0.5-0.1-0.8-0.2c-0.5-0.1-1-0.1-1.5-0.1c-0.5,0-0.9,0-1.4,0   c-0.3,0-0.4,0-0.5,0.1c-0.1,0-0.1,0.1-0.2,0.1s-0.1,0.1-0.2,0.1c-0.1,0-0.1,0-0.3,0s-0.3-0.1-0.5-0.1c-0.2-0.1-0.4-0.2-0.6-0.2   c-0.2-0.1-0.4-0.2-0.7-0.2c-0.3-0.1-0.6-0.2-0.8-0.2c-0.3,0-0.5-0.1-0.7-0.1c-0.2,0-0.4,0-0.5,0.1c-0.3,0.1-0.5,0.2-0.7,0.2   c-0.1,0-0.2,0-0.4,0c-0.1,0-0.2,0-0.3-0.1c-0.1,0-0.2-0.1-0.4-0.1c-0.3,0-0.6,0-0.9,0c-0.3,0-0.6,0-0.9,0c-0.3,0-0.7,0-1.1,0   c-0.4,0-0.8,0-1.2,0c-0.4,0-0.8,0.1-1.1,0.1c-0.3,0-0.4,0.1-0.6,0.1c-0.2,0-0.6,0.1-0.9,0.1c-0.3,0-0.6,0-0.9,0c-0.3,0-0.5,0-0.7,0   c-0.2,0-0.3,0-0.4,0.1s-0.2,0.1-0.3,0.1s-0.1,0.1-0.2,0.1c-0.1,0.1-0.4,0.1-0.7,0.2c-0.4,0.1-0.8,0.2-1.2,0.3   c-0.4,0.1-0.8,0.1-1.1,0.1c-0.3,0-0.5,0-0.8,0c-0.3,0-0.6,0.1-0.9,0.1c-0.3,0-0.4,0.1-0.6,0.2c-0.1,0.1-0.3,0.2-0.4,0.3   c-0.1,0.1-0.2,0.2-0.3,0.3c-0.1,0.1-0.1,0.2-0.1,0.3c0,0.1,0,0.2,0,0.2c0,0.2,0.1,0.2,0.1,0.3c0,0.1,0,0.1-0.1,0.2   c0,0.1-0.1,0.1-0.1,0.2c-0.1,0.1-0.1,0.2-0.1,0.3c-0.1,0.2-0.1,0.4,0,0.7c0,0.1,0,0.2,0,0.5c0,0.3,0,0.5-0.1,0.8   c0,0.2,0,0.3-0.1,0.6c0,0.3-0.1,0.7-0.1,1.1c0,0.4,0,0.9,0.1,1.3c0.1,0.4,0.1,0.9,0.2,1.3c0.1,0.4,0.1,0.7,0.1,1c0,0.3,0,0.6,0,0.9   c0,0.3,0,0.5-0.1,0.7s0,0.4,0,0.5c0,0.1,0,0.3,0.1,0.4s0.1,0.1,0.1,0.2c0,0.1,0.1,0.1,0.1,0.3c0,0.1,0,0.3,0,0.4c0,0.1,0,0.3,0,0.5   c0,0.2,0,0.5,0.1,0.7c0,0.2,0.1,0.4,0.1,0.7c0.1,0.3,0.1,0.6,0.2,0.9c0,0.3,0.1,0.7,0.1,1c0,0.3,0,0.5,0.1,0.7c0,0.2,0,0.4,0.1,0.7   c0,0.3,0,0.7,0,1c0,0.3,0,0.3,0,0.8c0,0.4,0,1.2,0,1.8c0,0.6,0.1,1.1,0.1,1.7c0,0.6,0,1.3,0.1,1.9c0,0.5,0,0.8,0,1.1   c0,0.3,0,0.7,0,0.9c0,0.2,0.1,0.4,0.1,0.5c0,0.1,0.1,0.2,0.2,0.3c0,0.1,0.1,0.1,0.1,0.2c0,0.1,0.1,0.2,0.1,0.3c0,0.1,0,0.3,0,0.4   s-0.1,0.4-0.1,0.6c0,0.2-0.1,0.3-0.1,0.5c0,0.2-0.1,0.6-0.2,1.3c0,0.7-0.1,1.7-0.1,2.3c0,0.7,0,1,0,1.3c-0.1,1.2-0.2,2.5-0.3,3.4   c-0.1,1-0.1,1.7-0.2,2.9c-0.1,1.2-0.1,2.9-0.1,4.8s0.1,3.8,0.1,5c0.1,1.2,0.1,1.5,0.1,1.9c0,0.1-0.1,0.1-0.2,0.2   c0,0-0.1,0.1-0.1,0.1c0,0.1-0.1,0.1-0.1,0.2c0,0.1,0,0.2,0,0.4c0,0.2,0,0.4,0,0.7c0,0.3,0,0.5,0,0.8s0,0.7,0,1   c0,0.4-0.1,0.7-0.2,1.1c1.6,0.1,3.2,0.2,4.2,0.2c0.9,0.1,1.2,0.1,1.6,0.1c0.4,0,0.9,0,1.3,0c0.4,0,0.7,0,1-0.1   c0.3-0.1,0.5-0.1,0.7-0.2c0.2,0,0.3-0.1,0.5-0.1c0.3,0,0.5-0.1,0.8-0.1c0.4,0,0.8,0,1.1,0c0.3,0,0.4,0,0.7,0c0.2,0,0.6,0,0.8,0   c0.2,0,0.3,0,0.6-0.1c0.3,0,0.7-0.1,1.1,0s0.9,0.1,1.2,0.1c0.3,0,0.4,0,0.6,0.1c0.3,0,0.7,0,1.3,0c0.6,0,1.4-0.1,1.9-0.1   c0.6-0.1,0.9-0.1,1.3-0.1c0.5-0.1,0.9-0.1,1.4-0.1c0.7,0,1.4,0,2.1,0c0.7,0,1.2,0,1.8,0.1c0.6,0,1.2,0,1.6,0c0.4,0,0.7,0,1,0   c0.3,0,0.6,0,0.8,0c0.3,0,0.5,0.1,0.6,0.1c0.1,0,0.2,0.1,0.3,0.1c0.1,0,0.4,0.1,0.7,0.2C41.6,83,42,83,42.3,83c0.3,0,0.5,0,0.7,0   c0.3,0,0.6,0.1,0.8,0.1c0.2,0,0.3,0.1,0.5,0.1c0.2,0,0.4,0.1,0.6,0.1c0.2,0,0.3,0,0.5-0.1c0.1,0,0.2-0.1,0.3-0.2   c0.2-0.1,0.4-0.3,0.5-0.5c0-0.1,0.1-0.1,0-0.2c0,0,0-0.1-0.1-0.1c0,0-0.1,0-0.2,0s-0.2,0.1-0.3,0.1c-0.2,0.1-0.3,0.2-0.4,0.3   c-0.1,0-0.1,0-0.2,0c-0.1,0-0.2,0-0.2-0.1c-0.1,0-0.2-0.1-0.7-0.2c-0.7-0.1-1.4-0.2-2.1-0.3c-0.9-0.1-1.8-0.2-2.7-0.3   c-0.8-0.1-1.2-0.1-1.7-0.1c-0.4,0-0.9-0.1-1.3-0.1c-0.4,0-0.8-0.1-1.6-0.1c-0.8,0-2,0-2.6,0c-0.7,0-0.9,0-1.2,0c-0.3,0-0.7,0-1,0   c-0.3,0-0.4,0-0.6,0c-0.3,0-0.6,0-0.9,0c-0.2,0-0.4,0-0.5,0c-0.2,0-0.4,0-0.7,0c-0.3,0-0.7,0-1,0c-0.3,0-0.5,0-0.8,0   c-0.3,0-0.8,0-1.2,0c-0.4,0-0.8,0-1.6,0c-0.8,0-2,0.1-2.8,0.2c-0.9,0.1-1.4,0.1-2.1,0.2c-0.7,0.1-1.5,0.1-2.2,0.1   c-0.6,0-1.1,0-1.7,0c-0.4,0-0.8-0.1-1-0.1c-0.2,0-0.4-0.1-0.5-0.2c-0.1-0.1-0.2-0.1-0.3-0.2C12,81.5,12,81.4,12,81.4s0-0.1,0-0.1   c0,0,0.1,0,0.1-0.1c2.1,0,4.2,0,5.4-0.1c1.2-0.1,1.6-0.2,2.5-0.3s2.2-0.2,3.1-0.3c0.8-0.1,1.1-0.1,3.2-0.1c2.1,0,6,0.2,8,0.2   C36.3,80.8,36.5,80.9,36.9,80.9L36.9,80.9z"></path>
	<path class="st2" d="M13.4,68.4c0,0.1,0,0.2,0,0.3c0,0.1,0,0.1,0,0.2s0,0.3,0,0.5c0,0.4,0,0.7,0.1,1.1c0,0.2,0,0.4,0,0.5   c0,0.1,0,0.3,0,0.4c0,0.1,0,0.2,0,0.4c0,0.1,0,0.3,0,0.5c0,0.3,0,0.4,0,0.6c0,0.3,0,0.6,0,1c0,0.3,0,0.6,0,0.9c0,0.3,0,0.5,0,0.7   c0,0.2,0,0.3,0,0.4c0,0.3,0.1,0.6,0.2,0.8c0.1,0.2,0.1,0.4,0.2,0.5c0.1,0.2,0.3,0.4,0.5,0.6c0.1,0.2,0.3,0.3,0.4,0.4   c0.1,0.1,0.3,0.2,0.4,0.3c0.1,0.1,0.2,0.1,0.4,0.2c0.2,0.1,0.5,0.1,0.8,0.2c0.1,0,0.2,0,0.4,0l0.7,0.1c0.2,0,0.3,0,0.4,0   c0.2,0,0.3,0,0.5,0.1c0.1,0,0.1,0,0.2,0c0.1,0,0.3,0.1,0.4,0.1c0.2,0,0.4,0.1,0.5,0.1c0.1,0,0.2,0,0.2,0c0.1,0,0.2,0,0.3,0.1   c0,0,0.1,0,0.1,0c0,0,0.1,0,0.1,0.1c0,0,0.1,0,0.1,0.1c0.1,0.1,0.1,0.2,0.1,0.3c0,0,0,0.1,0,0.1c0,0,0,0.1-0.1,0.1   c0,0.1-0.1,0.1-0.2,0.2c0,0,0,0-0.1,0s-0.1,0-0.1,0c-0.1,0-0.2,0-0.2,0c-0.1,0-0.3,0-0.5,0c-0.1,0-0.2,0-0.3,0c-0.1,0-0.1,0-0.2,0   l-0.3,0l-0.7,0c-0.2,0-0.4,0-0.7,0c-0.3,0-0.6,0-0.9,0c-0.2,0-0.3,0-0.4,0c-0.1,0-0.2,0-0.4,0c-0.2,0-0.5,0-0.7,0   c-0.2,0-0.4,0-0.6-0.1c-0.1,0-0.1,0-0.2-0.1c-0.1,0-0.2-0.1-0.3-0.2c-0.3-0.1-0.5-0.3-0.7-0.5c0,0-0.1-0.1-0.1-0.1   c-0.1-0.1-0.1-0.1-0.2-0.2c-0.1-0.1-0.1-0.1-0.1-0.2c0-0.1,0-0.1,0-0.2c0-0.1,0-0.2,0-0.3c0-0.1,0-0.3,0-0.4c0-0.1,0-0.2,0-0.2   c0-0.1,0-0.1,0-0.2l0-0.3c0-0.1,0-0.3-0.1-0.4c0-0.3,0-0.5-0.1-0.8c0-0.2,0-0.4,0-0.6c0-0.2,0-0.4,0-0.8L12,73.4   c0-0.6-0.1-1.2-0.1-1.8c0-0.3,0-0.6-0.1-0.8c0-0.2,0-0.3,0-0.5c0-0.2,0-0.3,0-0.4c0-0.2-0.1-0.4-0.1-0.7c0-0.1,0-0.2,0-0.3   c0-0.1,0-0.2,0-0.3c0-0.1,0-0.3,0-0.4c0-0.3,0-0.6,0-0.8c0-0.2,0-0.4,0-0.6c0-0.2,0-0.3,0-0.4c0-0.1,0-0.2,0-0.3c0-0.1,0-0.2,0-0.3   c0-0.1,0-0.3,0-0.4c0-0.1,0-0.3,0-0.4c0-0.1,0-0.1,0-0.2c0-0.1,0-0.2,0-0.2c0-0.1,0-0.2,0-0.4c0-0.1,0-0.3,0-0.5c0-0.1,0-0.2,0-0.3   c0-0.2,0-0.3-0.1-0.5c0-0.2-0.1-0.5-0.2-0.8c-0.1-0.3-0.1-0.4-0.1-0.6c0-0.3-0.1-0.5-0.1-0.8c0-0.1,0-0.2,0-0.2c0-0.1,0-0.1,0-0.1   c0,0,0.1-0.1,0.1-0.2c0,0,0-0.1,0.1-0.1c0-0.1,0.1-0.1,0.1-0.2c0,0,0-0.1,0.1-0.1c0-0.1,0-0.2,0-0.2c-0.1-0.1-0.2-0.1-0.3-0.1   c-0.1,0-0.1,0-0.2,0.1c-0.1,0.1-0.1,0.2-0.2,0.3c0,0,0,0.1,0,0.2c0,0.1-0.1,0.3-0.1,0.6c0,0.3-0.1,0.6-0.1,0.9c0,0.3,0,0.6,0,0.9   c0,0.4,0,0.8-0.1,1.2c0,0.4,0,0.7-0.1,1.1c0,0.4,0,0.7-0.1,1.2c0,0.4,0,1-0.1,1.3c0,0.4,0,0.6,0,0.8l0,0.6c0,0.7,0,1.4,0,2.1   c0,0.3,0,0.6,0,0.8c0,0.2,0,0.5,0,0.7c0,0.2,0,0.4,0,0.7c0,0.2,0,0.5,0,0.7c0,0.5,0,0.8,0,1.1c0,0.2,0,0.4,0,0.6c0,0.2,0,0.3,0,0.5   c0,0.1,0,0.2,0,0.4s0,0.3,0.1,0.6c0,0.3,0,0.7,0.1,1c0,0.2,0,0.3,0,0.4c0,0.1,0,0.2,0,0.2c0,0.1,0,0.1,0,0.2c0,0.1,0,0.2,0.1,0.3   c0.1,0.1,0.1,0.3,0.3,0.6c0.2,0.3,0.5,0.8,0.8,1.3c0.1,0,0.2,0,0.3,0c0.1,0,0.3,0,0.5,0.1c0.2,0,0.5,0.1,0.7,0.1c0.2,0,0.4,0,0.6,0   c0.2,0,0.4,0,0.7,0c0.3,0,0.7,0,1.1-0.1c0.4,0,0.7-0.1,1-0.1c0.3,0,0.5-0.1,0.7-0.1c0.2,0,0.4,0,0.7-0.1c0.3,0,0.8-0.1,1.3-0.2   c0.5-0.1,1.1-0.1,1.6-0.2c0.5-0.1,1-0.1,1.4-0.1c0.5,0,0.9,0,1.4-0.1c0.4,0,0.8,0,1.4,0c0.5,0,1.2,0,2.2,0s2.3,0,3.2,0.1   c0.9,0,1.6,0.1,2,0.1c0.5,0,0.8,0,1,0.1c0.7,0,1.5,0.1,2.2,0.2c0.4,0,0.6,0.1,0.8,0.1c0.2,0,0.3,0,0.5,0c0.2,0,0.4,0,0.7,0   c0.2,0,0.5,0,0.8,0.1c0.3,0,0.6,0.1,0.9,0.1c0.3,0,0.6,0,0.8,0.1c0.3,0,0.5,0.1,0.8,0.1c0.3,0,0.7,0.1,1,0.1c0.3,0,0.7,0.1,1,0.1   c0.3,0,0.7,0,1.1,0.1c0.3,0,0.7,0,1.1,0.1c0.4,0,0.9,0,1.3,0c0.4,0,0.8,0,1.3,0c0.4,0,0.8,0,1.2,0c0.4,0,0.8,0,1.2,0   c0.4,0,0.8,0,1.2,0c0.3,0,0.6,0,0.8,0c0.3,0,0.5,0,0.9,0s0.8,0,1.4,0s1.3-0.1,1.9-0.2c0.6-0.1,1.2-0.1,1.6-0.1   c0.4,0,0.7-0.1,0.9-0.1c0.2,0,0.5-0.1,0.7-0.1c0.2,0,0.4-0.1,0.6-0.1s0.3,0,0.4,0c0.1,0,0.3,0,0.5,0c0.2,0,0.3,0,0.4,0   c0.1,0,0.2,0,0.2,0c0,0,0.1,0,0.1,0c0.1,0,0.1-0.1,0.2-0.2c0.1-0.1,0.1-0.2,0.1-0.5c0-0.2,0-0.5,0-0.8c0-0.3,0-0.7,0-1   c0-0.3,0-0.5,0-0.8c0-0.3,0-0.6,0-0.9c0-0.3,0-0.4-0.1-0.6c0-0.2,0-0.3,0-0.4c0-0.1,0-0.3,0-0.5c0-0.5,0-1,0-1.5c0-0.1,0-0.2,0-0.3   c0-0.1,0-0.2,0-0.3c0-0.1,0-0.2,0-0.3c0-0.1,0-0.3,0-0.4c0-0.2,0-0.3,0.1-0.5c0-0.2,0-0.4,0-0.5c0-0.1,0-0.2-0.1-0.3   c0,0-0.1-0.1-0.1-0.1c-0.1,0-0.1,0-0.1-0.1c-0.1,0-0.1,0-0.1,0.1c0,0,0,0,0,0.1c0,0,0,0.1,0,0.1c0,0,0,0.1,0.1,0.2   c0,0.1,0,0.1,0,0.1c0,0.1,0,0.2,0,0.3c0,0-0.1,0-0.2,0.1c-0.1,0-0.3,0.1-0.4,0.1s-0.2,0.1-0.2,0.1c0,0-0.1,0.1-0.1,0.1   c-0.2,0.2-0.3,0.3-0.3,0.5c-0.1,0.1-0.1,0.2-0.2,0.4c-0.1,0.1-0.1,0.3-0.1,0.5c0,0.1-0.1,0.3-0.1,0.4c0,0.1,0,0.2-0.1,0.4   c0,0,0,0.1-0.1,0.1c-0.1,0.1-0.1,0.1-0.2,0.2c-0.1,0.1-0.3,0.2-0.5,0.3c-0.2,0.1-0.3,0.2-0.5,0.2c-0.1,0-0.2,0-0.3,0   c-0.2,0-0.4,0-0.5-0.1c-0.2,0-0.4-0.1-0.6-0.1c-0.1,0-0.2,0-0.3-0.1c-0.2,0-0.3-0.1-0.5-0.1c-0.1,0-0.2-0.1-0.3-0.1   c-0.1-0.1-0.2-0.1-0.3-0.2c0-0.1-0.1-0.1-0.1-0.2c0-0.1-0.1-0.2-0.1-0.4c0-0.2,0-0.5-0.1-0.7c0-0.2-0.1-0.3-0.1-0.5   c0-0.1-0.1-0.2-0.1-0.3c-0.1-0.2-0.2-0.3-0.1-0.5c0,0,0-0.1,0-0.1c0,0,0-0.1,0.1-0.2c0.1-0.1,0.2-0.2,0.2-0.4   c0.1-0.1,0.1-0.2,0.1-0.2c0.1-0.1,0.1-0.2,0.1-0.4c0-0.1,0-0.2,0-0.2c0-0.1,0-0.1,0-0.2c0-0.1-0.1-0.2-0.1-0.3s-0.1-0.2-0.1-0.2   c0,0,0-0.1,0-0.1c0-0.1,0-0.3,0.2-0.4c0.1-0.1,0.2-0.3,0.2-0.4c0,0,0-0.1,0-0.1c0-0.1-0.1-0.2-0.1-0.3c0,0,0-0.1,0-0.1   c0-0.1,0-0.2,0.1-0.3c0-0.1,0.1-0.2,0.1-0.4c0-0.2,0.1-0.4,0.1-0.5c0-0.2,0.1-0.2,0.1-0.3c0.1-0.1,0.2-0.2,0.3-0.3   c0-0.1,0.1-0.1,0.1-0.2c0-0.1,0.1-0.2,0.1-0.3c0-0.1,0.1-0.1,0.1-0.2c0-0.1,0.1-0.1,0.1-0.2c0-0.2,0-0.4,0-0.6c0-0.2,0-0.3,0-0.4   c0-0.1,0-0.2,0-0.3c0,0,0-0.1,0-0.1c0.1-0.3,0.2-0.7,0.2-1c0-0.2,0.1-0.4,0.1-0.6c0-0.2,0-0.3,0-0.5c0-0.3,0-0.6-0.1-0.9   c0-0.1-0.1-0.2-0.2-0.3c-0.1-0.1-0.2-0.1-0.2-0.2c0.3-0.1,0.7-0.3,1-0.4c0.1-0.1,0.3-0.1,0.4-0.2c0.1,0,0.2-0.1,0.3-0.1   c0.1-0.1,0.2-0.1,0.3-0.2c0.1-0.1,0.1-0.1,0.1-0.2c0-0.1,0.1-0.2,0.1-0.3c0-0.1,0.1-0.2,0.1-0.4c0,0.1,0.1,0.2,0.1,0.3   c0,0.1,0.1,0.3,0.1,0.4c0,0.1,0.1,0.2,0.1,0.3c0.1,0.1,0.2,0.1,0.3,0.1c0.1,0,0.1,0,0.3,0c0.1,0,0.4,0,0.6,0c0,0,0.1-0.1,0.1-0.1   c0,0,0.1-0.1,0.1-0.1c0.3-0.2,0.4-0.5,0.2-0.8c0,0-0.1-0.1-0.1-0.1c-0.2-0.2-0.4-0.4-0.6-0.5c-0.2-0.1-0.3-0.2-0.4-0.3   C60.4,58.1,60.2,58,60,58c-0.1,0-0.3,0-0.4,0c-0.1,0-0.2,0-0.3,0.1c-0.3,0-0.7,0.1-0.9,0.1c-0.2,0-0.3,0-0.5,0   c-0.1,0-0.2,0-0.3-0.1c-0.1,0-0.1-0.1-0.2-0.1c-0.1,0-0.1-0.1-0.2-0.1c-0.2-0.1-0.4-0.2-0.6-0.2c-0.5-0.2-1.1-0.3-1.6-0.5   c-0.3-0.1-0.6-0.2-0.8-0.4c-0.2-0.1-0.3-0.2-0.5-0.3c-0.3-0.2-0.6-0.4-0.8-0.7s-0.4-0.4-0.5-0.6c-0.1-0.1-0.2-0.3-0.2-0.4   c0-0.1,0-0.1,0-0.2c0-0.1,0-0.3,0-0.4c0-0.1,0-0.2,0-0.4c0-0.1,0-0.3,0-0.4c0-0.1,0-0.2,0-0.3c0-0.1-0.1-0.1-0.1-0.2   c-0.1-0.1-0.1-0.2-0.2-0.3c-0.1-0.2-0.3-0.3-0.4-0.5c-0.1-0.2-0.2-0.2-0.3-0.4c-0.2-0.2-0.5-0.5-0.7-0.7c-0.5,0.3-0.9,0.5-1.4,0.8   c-0.2,0.1-0.4,0.2-0.5,0.3s-0.2,0.1-0.3,0.2c-0.1,0.1-0.2,0.1-0.3,0.2s-0.3,0.2-0.6,0.3s-0.5,0.2-0.7,0.4c-0.2,0.1-0.5,0.3-0.6,0.4   c-0.2,0.1-0.2,0.1-0.3,0.1l-0.2,0c-0.1,0-0.1,0-0.2,0c-0.1,0-0.2,0-0.3,0c-0.3,0-0.5,0.1-0.8,0.1s-0.6,0.1-0.8,0.2   c-0.2,0.1-0.3,0.1-0.5,0.2c-0.1,0.1-0.3,0.1-0.4,0.1c-0.1,0-0.2,0.1-0.2,0.1c-0.1,0-0.1,0-0.1,0c0,0-0.1,0-0.2,0   c-0.1,0-0.4,0.1-0.5,0.1c-0.2,0-0.3,0.1-0.4,0.1c-0.1,0-0.2,0.1-0.3,0.1c-0.1,0-0.3,0.1-0.5,0.2c-0.2,0.1-0.5,0.3-0.8,0.5   c-0.2,0.1-0.3,0.2-0.5,0.3c-0.2,0.1-0.3,0.1-0.4,0.2s-0.2,0.1-0.3,0.1c-0.1,0-0.2,0-0.3,0c-0.1,0-0.2,0-0.2,0   c-0.1,0-0.2-0.1-0.4-0.2c-0.1,0-0.2-0.1-0.3-0.1c-0.1,0-0.2-0.1-0.2-0.1s-0.1-0.1-0.2-0.1c0,0-0.1-0.1-0.1-0.1   c-0.1-0.1-0.1-0.2-0.2-0.3c0-0.1-0.1-0.1-0.2-0.2c-0.1-0.1-0.2-0.2-0.3-0.2c-0.1,0-0.1,0-0.2,0c-0.1,0-0.2,0-0.3,0   c-0.1,0-0.1,0-0.2,0c0-0.1,0-0.1,0.1-0.2c0-0.1,0-0.1,0-0.2c0-0.1,0-0.2,0-0.2c0-0.1-0.1-0.2-0.2-0.2c-0.1-0.1-0.2-0.2-0.3-0.3   c-0.1-0.1-0.2-0.2-0.3-0.3c-0.1-0.1-0.1-0.1-0.2-0.2c0-0.1,0-0.1,0-0.2c0,0,0-0.1,0.1-0.1c0,0,0.1-0.1,0.2-0.2   c0.1-0.1,0.3-0.2,0.4-0.3c0.1-0.1,0.2-0.2,0.3-0.2c0.2-0.2,0.2-0.3,0.3-0.5c0-0.1,0.1-0.1,0.1-0.2c0-0.1,0.1-0.2,0.1-0.3   c0-0.1,0.1-0.2,0.1-0.2c0,0,0.1,0,0.1,0c0,0,0.1,0,0.2,0c0.1,0,0.2,0,0.3,0c0.1,0,0.1,0,0.2,0c0.1,0,0.2,0,0.2-0.1   c0,0,0.1,0,0.3-0.2c0.2-0.1,0.4-0.3,0.7-0.5c0.2-0.2,0.4-0.3,0.5-0.3c0.1-0.1,0.2-0.1,0.3-0.2c0,0,0.1-0.1,0.1-0.1   c0.1-0.1,0.1-0.1,0.2-0.2c0,0,0,0,0-0.1c0,0,0-0.1,0-0.1c0,0,0-0.1,0-0.2c0-0.1,0-0.1,0-0.1c0-0.1,0.1-0.1,0.1-0.1   c0.1,0,0.2,0,0.3,0c0.1,0,0.3,0,0.4,0.1c0.2,0,0.3,0,0.5-0.1c0.1,0,0.1-0.1,0.2-0.1l0.4-0.2c0.1,0,0.2-0.1,0.2-0.1   c0.1,0,0.1-0.1,0.2-0.1c0.1,0,0.2-0.1,0.2-0.2c0.1-0.1,0.2-0.1,0.3-0.2c0.2-0.1,0.4-0.2,0.5-0.2c0.3-0.1,0.7-0.2,1.2-0.3   c0.2-0.1,0.4-0.1,0.6-0.2c0.2-0.1,0.3-0.1,0.4-0.1c0.1,0,0.2-0.1,0.3-0.1c0.2-0.1,0.3-0.1,0.5-0.2c0.2,0,0.3-0.1,0.4-0.1   s0.3,0,0.4,0c0.1,0,0.2,0,0.3,0.1c0,0,0.1,0,0.1,0c0,0,0.1,0,0.1-0.1c0,0,0.1-0.1,0.1-0.1c0.1-0.1,0.2-0.1,0.2-0.1c0,0,0.1,0,0.1,0   c0,0,0.1,0,0.1,0.1c0.1,0,0.2,0.1,0.2,0.1c0.1,0,0.1,0,0.1,0c0.2,0,0.3,0,0.4-0.1c0,0,0-0.1,0-0.1c0,0,0-0.1,0-0.2   c0-0.2,0-0.4-0.1-0.6c0,0,0,0,0,0c0,0,0,0.1,0.1,0.1c0,0.1,0.1,0.2,0.1,0.3c0,0.1,0.1,0.2,0.2,0.3c0.1,0.1,0.2,0.1,0.2,0.2   c0.1,0,0.2,0,0.3,0c0.1,0,0.3-0.1,0.4-0.1c0,0,0.1,0,0.1-0.1c0.2-0.1,0.2-0.3,0.3-0.4c0,0,0-0.1,0-0.1c0,0,0-0.1-0.1-0.1   c0,0-0.1-0.1-0.1-0.2c0,0,0-0.1-0.1-0.1c0,0,0,0,0.1,0c0,0,0.1,0,0.2,0c0,0,0.1,0,0.1,0c0.1,0,0.1,0,0.2-0.1c0,0,0-0.1,0-0.1   c0-0.1,0-0.2,0.1-0.3c0-0.1,0-0.2,0-0.4c0-0.1,0-0.1-0.1-0.2c-0.1-0.2-0.3-0.5-0.4-0.8c-0.1-0.2-0.2-0.5-0.2-0.7   c0-0.2,0-0.3,0.1-0.4c0-0.1,0.1-0.1,0.2-0.1c0.1,0,0.1-0.1,0.2-0.1c0,0,0,0,0-0.1c0,0-0.2-0.1-0.2-0.1c0,0,0,0,0-0.1c0,0,0,0,0,0   c0,0,0,0,0.1,0c0.1,0,0.2-0.1,0.3-0.1c0,0,0.1-0.1,0.1-0.1c0,0,0,0,0-0.1c0,0,0,0,0-0.1c0,0,0-0.1-0.1-0.1c0,0-0.1-0.1-0.1-0.1   c0-0.1,0-0.1,0-0.1c0-0.1,0-0.1,0.1-0.2c0-0.1,0.1-0.1,0.1-0.1c0,0,0.1-0.1,0.1-0.1c0,0,0.1-0.1,0.2-0.2c0.1-0.1,0.3-0.3,0.5-0.4   c0.1-0.1,0.2-0.2,0.2-0.2c0,0,0.1-0.1,0.2-0.2c0.1-0.1,0.3-0.2,0.4-0.3c0.1-0.1,0.2-0.2,0.3-0.3c0,0,0,0,0.1-0.1   c0.1,0,0.2-0.1,0.3-0.1c0.1-0.1,0.2-0.1,0.2-0.1c0.1,0,0.1-0.1,0.1-0.1c0.1-0.1,0.2-0.2,0.3-0.3c0-0.1,0.1-0.3,0.1-0.4   c0-0.1,0.1-0.2,0.1-0.2c0,0,0.1,0,0.1,0c0,0,0,0,0.1,0c0,0,0.1,0,0.1,0c0,0,0.1,0,0.1,0c0.1,0,0.1,0,0.1,0c0,0,0-0.1,0-0.1   c0-0.1,0-0.2,0.1-0.3c0-0.1,0-0.1,0-0.2c0-0.1-0.1-0.2-0.1-0.3c-0.1-0.1-0.1-0.1-0.2-0.1c-0.3-0.1-0.7-0.2-1-0.4   c-0.4-0.1-0.9-0.3-1.2-0.5c-0.3-0.1-0.5-0.2-0.7-0.2c-0.1,0-0.2-0.1-0.3-0.1c-0.2-0.1-0.4-0.2-0.6-0.4c0,0,0,0-0.1-0.1   c0,0-0.1-0.1-0.2-0.2c-0.2-0.2-0.4-0.4-0.6-0.6c-0.1-0.1-0.3-0.2-0.4-0.3c-0.1-0.1-0.1-0.1-0.2-0.2c0,0-0.1-0.1-0.1-0.1   c-0.1-0.1-0.1-0.2-0.2-0.3c0-0.1-0.1-0.2-0.1-0.3c0-0.1-0.1-0.3-0.1-0.4c-0.1-0.2-0.1-0.3-0.2-0.5c-0.1-0.2-0.2-0.4-0.4-0.5   c-0.2-0.3-0.5-0.5-0.8-0.8c-0.3-0.2-0.5-0.5-0.8-0.7c-0.2-0.2-0.3-0.3-0.4-0.4s-0.1-0.2-0.2-0.2c-0.1-0.1-0.1-0.1-0.1-0.2   c-0.1-0.1-0.1-0.3-0.2-0.4c0-0.1-0.1-0.2-0.1-0.3c0-0.1-0.1-0.1-0.1-0.1c0,0-0.1-0.1-0.2-0.1c-0.1,0-0.1-0.1-0.2-0.1   c-0.1,0-0.2-0.1-0.3-0.1c-0.1,0-0.2-0.1-0.3-0.2c-0.1-0.1-0.1-0.2-0.2-0.3c-0.1-0.1-0.2-0.2-0.3-0.3c-0.1-0.1-0.3-0.1-0.4-0.2   c-0.1,0-0.2,0-0.3,0c-0.1,0-0.3,0-0.5,0.1c0,0-0.1,0-0.1-0.1c-0.1,0-0.1-0.1-0.2-0.1c-0.1-0.1-0.1-0.1-0.2-0.2   c-0.1-0.1-0.1-0.1-0.2-0.1c-0.1-0.1-0.3-0.2-0.4-0.3c-0.1,0-0.2-0.1-0.3-0.1c-0.2,0-0.4,0-0.6,0c-0.1,0-0.2,0-0.4,0   c-0.2,0-0.5,0-0.7,0c-0.2,0-0.3,0-0.4,0c-0.1,0-0.3,0-0.4,0c-0.1,0-0.2,0-0.3,0c-0.1,0-0.2,0-0.3,0c-0.1,0-0.1,0-0.2,0   c-0.1,0-0.2-0.1-0.3-0.1c-0.1,0-0.2,0-0.2,0c-0.1,0-0.2,0-0.3,0c-0.2,0-0.4,0.1-0.6,0.1c-0.2,0-0.3,0-0.5,0.1c-0.1,0-0.2,0-0.3,0   c-0.1,0-0.2,0-0.3-0.1c-0.4-0.1-0.7-0.2-1.1-0.3c-0.3-0.1-0.7-0.1-1-0.1c-0.3,0-0.7,0-1,0c-0.3,0-0.4,0-0.5,0c-0.1,0-0.2,0-0.3-0.1   c-0.1,0-0.1,0-0.2-0.1c0,0-0.1-0.1-0.1-0.1c-0.1,0-0.2-0.1-0.3-0.1c0,0-0.1,0-0.1,0c-0.1,0-0.1,0-0.2,0c-0.2,0-0.3,0.1-0.5,0.1   c-0.1,0-0.3,0-0.4,0c-0.1,0-0.2,0-0.3,0c-0.1,0-0.2,0-0.3-0.1c-0.1,0-0.2,0-0.4-0.1c-0.2-0.1-0.6-0.1-0.9-0.2   c-0.3-0.1-0.6-0.1-0.9-0.2c-0.4-0.1-0.9-0.1-1.3-0.1c-0.3,0-0.6,0-0.8,0.1c-0.2,0-0.4,0.1-0.6,0.2c-0.4,0.2-0.8,0.4-1.1,0.5   s-0.5,0.2-0.6,0.2c-0.1,0-0.2,0-0.3,0c-0.1,0-0.2,0-0.2,0c-0.1,0-0.3,0-0.5,0c-0.2,0-0.6,0-0.8,0c-0.3,0-0.7,0-1-0.1   c-0.1,0-0.2,0-0.3,0c-0.1,0-0.2,0-0.2,0c-0.1,0-0.2-0.1-0.3-0.1c-0.2-0.1-0.4-0.1-0.5-0.1c-0.2,0-0.3,0-0.5,0c-0.1,0-0.2,0-0.3,0   c-0.1,0-0.2,0-0.2,0.1c-0.1,0-0.1,0.1-0.2,0.1c-0.1,0-0.1,0-0.2,0c-0.1,0-0.2,0.1-0.2,0.1c0,0-0.1,0.1-0.1,0.1   c-0.2,0.3-0.4,0.6-0.6,0.9c-0.2,0.3-0.3,0.5-0.3,0.6c-0.1,0.2-0.1,0.3-0.1,0.4c0,0.1-0.1,0.2-0.1,0.3c0,0.1,0,0.2,0,0.3   c0,0.1,0,0.2,0.1,0.5c0.1,0.2,0.2,0.6,0.3,0.9c0,0.1,0,0.1-0.1,0.1c0,0,0,0-0.1,0.1c0,0-0.1,0.1-0.1,0.1c0,0-0.1,0-0.1,0.1   c-0.1,0.1-0.1,0.1-0.1,0.1c0,0,0,0.1-0.1,0.1c0,0.1-0.1,0.1-0.1,0.3c0,0.2-0.1,0.3-0.1,0.5c0,0.1-0.1,0.2-0.1,0.3   c0,0.2,0,0.4,0,0.5c0,0.1,0,0.2,0,0.3c0,0.1-0.1,0.2-0.2,0.3c-0.1,0.1-0.2,0.2-0.2,0.4c0,0.1-0.1,0.2-0.1,0.3c0,0.2,0,0.4,0,0.6   s0,0.3-0.1,0.4c-0.1,0.3-0.1,0.5-0.2,0.8c0,0.1-0.1,0.3-0.1,0.4c0,0.1,0,0.2,0,0.3c0,0.2,0.1,0.4,0.2,0.5c0,0,0,0.1,0,0.1   c0,0-0.1,0-0.1,0c0,0-0.1,0-0.1,0.1c-0.1,0.1-0.1,0.1-0.1,0.2c0,0.2,0,0.3,0,0.6c0,0.5-0.2,1-0.3,1.5c0,0.1,0,0.1,0,0.2   c0,0.1,0,0.1,0,0.2c0,0.1,0.1,0.3,0.1,0.4c0,0,0,0.1,0,0.1c0,0,0,0.1,0,0.1c0,0.1,0,0.2,0,0.2c0,0.2-0.1,0.4-0.1,0.5   c0,0.2-0.1,0.3-0.1,0.4c0,0.2-0.1,0.4-0.1,0.5c0,0.2-0.1,0.5-0.1,0.7c0,0.2,0,0.3,0,0.5c0,0.1,0,0.2,0,0.3c0,0.2,0,0.3,0.1,0.4   c0,0.1,0.1,0.3,0,0.4c0,0,0,0,0,0c0,0-0.1,0-0.1,0c0,0-0.1,0-0.1,0c-0.1,0-0.1,0.1-0.1,0.1c0,0,0,0,0,0c0,0,0,0.1,0,0.1   c0,0.1,0,0.2,0,0.3c0,0.2,0,0.4,0.1,0.8c0,0.3,0.1,0.7,0.1,1c0,0.3,0,0.5,0.1,0.6c0,0.2,0,0.3,0,0.5c0,0.2,0,0.4,0,0.5   s0,0.2,0.1,0.3c0,0.1,0,0.1,0.1,0.1c0.1,0.1,0.2,0.2,0.3,0.3c0,0,0.1,0,0.2,0c0,0,0,0,0.1,0c0,0,0.1,0,0.1-0.1   c0.1,0,0.2-0.1,0.2-0.1c0.1,0,0.1,0,0.1-0.1c0.1,0,0.2,0,0.3,0.1c0.1,0.1,0.2,0.2,0.2,0.4c0.1,0.2,0.2,0.4,0.2,0.6   c0,0.1,0,0.3,0,0.6c0,0.4-0.1,0.8-0.1,1.2c0,0.3-0.1,0.5-0.1,0.8c0,0.2,0,0.4-0.1,0.7c0,0.1,0,0.2,0,0.4c0,0.1,0,0.1,0,0.2   s0,0.3-0.1,0.6c0,0.3-0.1,0.8-0.1,1.2c0,0.4-0.1,0.7-0.1,0.9c0,0.2-0.1,0.5-0.2,0.7c-0.1,0.2-0.2,0.4-0.3,0.6   c-0.1,0.4-0.2,0.8-0.2,1.2c0,0.2,0,0.3,0,0.4c0,0.1,0,0.2,0,0.2c0,0.1,0,0.2,0,0.2c0,0.2,0,0.4,0,0.7c0,0.3,0,0.6,0,1   c0,0.4,0.1,0.9,0.1,1.2c0,0.3,0,0.4,0.1,0.5c0,0.1,0,0.2,0,0.5c0,0.2,0.1,0.6,0.1,0.9c0,0.4,0.1,0.7,0.1,1.1c0,0.3,0.1,0.8,0.1,1.1   c0,0.4,0.1,0.8,0.1,1.2c0,0.2,0,0.5,0,0.7C13.4,68.1,13.4,68.3,13.4,68.4L13.4,68.4z"></path>
	<path class="st0" d="M55.5,37.5c-0.8,0.4-1.2,0.7-1.7,1c-0.5,0.3-0.9,0.7-1.5,1.7s-1.3,2.7-1.7,4c-0.4,1.3-0.5,2.1-0.5,2.7   c0,0.6,0,0.8,0,1.1c-0.4-0.5-1.1-0.9-1.9-0.9c-0.9,0-2,0.3-2.9,0.6c-0.9,0.3-1.6,0.6-2.5,1C41.9,49,41,49.4,40,49.8   c-0.8,0.4-1.4,0.6-2,0.9c-0.6,0.3-1.2,0.6-1.5,0.9c-0.3,0.3-0.3,0.5-0.3,0.7c0,0.2,0,0.5,0.1,0.7c0.1,0.2,0.2,0.4,0.5,0.6   c0.2,0.2,0.6,0.3,0.9,0.5s0.7,0.3,1,0.3c0.3,0,0.7-0.1,1-0.1c0.4-0.1,0.8-0.2,1.1-0.4c0.5-0.2,1.2-0.5,1.9-0.9   c0.7-0.4,1.5-0.9,2.4-1.3c0.9-0.4,1.9-0.6,2.7-0.9c0.8-0.3,1.3-0.6,1.7-1c0.4-0.4,0.7-0.8,0.8-1.2c0.2,0.6,0.4,1.2,0.7,1.8   c0.2,0.5,0.5,0.9,0.8,1.3c0.3,0.3,0.5,0.6,0.8,0.9c0.3,0.3,0.6,0.7,0.9,1c0.3,0.3,0.7,0.6,1,0.8c0.4,0.2,0.7,0.4,1,0.6   c0.3,0.2,0.6,0.5,1,0.7c0.4,0.2,1.1,0.4,1.7,0.6c0.6,0.2,1.3,0.4,1.8,0.5c0.6,0.1,1.1,0,1.6,0c0.5-0.1,0.9-0.2,1.3-0.3   c0.4-0.1,0.6-0.1,1-0.2c0.3-0.1,0.7-0.2,1-0.3c0.4-0.1,0.7-0.3,1.1-0.4c0.4-0.2,0.9-0.4,1.4-0.7c0.5-0.2,1-0.4,1.4-0.7   c0.4-0.3,0.7-0.7,0.9-1.1c0.3-0.4,0.6-0.8,0.8-1.3c0.2-0.4,0.3-0.9,0.4-1.3c0.1-0.5,0.2-1,0.3-1.5c0.1-0.5,0.2-1,0.3-1.3   c0.1-0.4,0.1-0.6,0.2-0.9c0.1-0.2,0.2-0.5,0.1-1c0-0.5-0.2-1.4-0.3-2.2c-0.1-0.8-0.2-1.7-0.4-2.4c-0.2-0.7-0.7-1.3-1.3-2   c-0.7-0.7-1.6-1.4-2.4-1.9c-0.8-0.5-1.6-0.7-2.3-0.9c-0.7-0.2-1.5-0.3-2.6-0.4c-1.1-0.1-2.6,0-3.8,0.2   C57.4,36.7,56.3,37.2,55.5,37.5L55.5,37.5z M86.8,41.5c-0.4,0.1-0.9,0.4-1.5,0.7c-0.6,0.3-1.2,0.5-2.4,0.8c-1.2,0.4-2.9,1-4.3,1.5   c-1.3,0.5-2.2,0.9-2.9,1.2c-0.7,0.3-1.2,0.4-1.5,0.4c-0.3,0.1-0.4,0.2-0.5,0.2c-0.1,0-0.3,0.1-0.4,0.2c-0.1,0.1-0.3,0.4-0.4,0.6   c-0.1,0.2-0.2,0.5-0.2,0.8c0,0.3,0.2,0.7,0.4,1c0.1,0.4,0.2,0.8,0.4,1.1c0.2,0.2,0.5,0.3,0.7,0.4c0.2,0.1,0.4,0.1,0.7,0.1   c0.3,0,0.7-0.2,1.1-0.3c0.4-0.1,0.8-0.3,1.8-0.7c1-0.4,2.7-1.2,3.9-1.7c1.2-0.5,2-0.7,2.9-1c0.9-0.3,1.8-0.6,2.4-0.9   c0.7-0.3,1.1-0.4,1.7-0.6c0.6-0.2,1.5-0.4,2.1-0.5c0.6-0.2,0.8-0.3,1.1-0.5c0.2-0.2,0.4-0.4,0.6-0.6c0.1-0.2,0.1-0.5,0.1-0.7   c0-0.3,0-0.5-0.1-0.7c-0.1-0.2-0.3-0.3-0.6-0.4c-0.2-0.1-0.5-0.2-1-0.3c-0.5-0.1-1.1-0.2-1.6-0.1c-0.5,0-0.9,0.1-1.2,0.2   c-0.3,0-0.4,0-0.6,0C87.3,41.3,87.1,41.3,86.8,41.5L86.8,41.5z M69.6,58.1c0,0.4,0.2,0.8,0.4,1.2c0.2,0.3,0.4,0.6,0.9,1   c0.5,0.4,1.2,0.9,2,1.4c0.7,0.5,1.4,1.1,2.8,2.1c1.3,1,3.2,2.4,4.5,3.3c1.2,0.8,1.8,1.1,2.3,1.3c0.6,0.2,1.1,0.5,1.6,0.6   c0.4,0.1,0.7,0,0.9-0.1c0.2-0.1,0.4-0.2,0.6-0.3c0.2-0.1,0.3-0.3,0.4-0.6c0-0.3,0-0.7-0.1-1c-0.1-0.3-0.3-0.6-0.7-1.1   c-0.4-0.5-1.2-1.3-2-2c-0.8-0.7-1.8-1.4-2.8-2.1c-1.1-0.7-2.3-1.4-3.4-2.1c-1.1-0.7-2.2-1.5-3-2.1c-0.8-0.6-1.3-0.9-1.6-1.1   c-0.3-0.2-0.6-0.4-0.9-0.6c-0.4,0.3-0.8,0.6-1.1,1C69.8,57.2,69.6,57.6,69.6,58.1L69.6,58.1z M59.1,63.5c-0.2,0.9-0.4,1.7-0.6,2.6   c-0.2,0.8-0.2,1.5-0.4,2.2c-0.2,0.7-0.4,1.5-0.5,2c-0.1,0.5-0.1,0.7-0.1,0.8c0,0.2-0.1,0.3-0.1,0.5s0.1,0.4,0.2,0.6   c0.1,0.2,0.2,0.4,0.3,0.6c0.2,0.2,0.5,0.3,0.7,0.3c0.2,0.1,0.4,0.1,0.6,0.1c0.3,0,0.5-0.1,0.7-0.3c0.2-0.2,0.4-0.5,0.5-0.8   c0.2-0.3,0.3-0.6,0.4-0.9c0.1-0.4,0.2-0.8,0.4-1.4c0.2-0.6,0.4-1.4,0.6-2.1c0.3-0.7,0.6-1.4,0.7-1.9c0.1-0.5,0.1-0.8,0.1-1.1   c0-0.3,0.2-0.6,0.2-1.1s-0.1-1-0.2-1.3c-0.1-0.4-0.2-0.5-0.5-0.7c-0.2-0.1-0.6-0.2-1-0.2c-0.4,0-0.9,0.1-1.3,0.4   C59.5,62.2,59.3,62.7,59.1,63.5L59.1,63.5z"></path>
	<path class="st1" d="M46.2,21.6c-0.1,0.1-0.3,0.3-0.4,0.6c-0.1,0.3-0.2,0.5-0.1,0.8c0,0.3,0.1,0.5,0.3,0.7c0.2,0.2,0.5,0.3,0.8,0.5   c0.3,0.2,0.5,0.3,0.9,0.5c0.4,0.1,1,0.3,1.3,0.3c0.4,0,0.6-0.1,0.8-0.2c0.2-0.1,0.4-0.2,0.5-0.3c0.2,0,0.4,0.1,0.6,0.1   c0.3,0.1,0.6,0.1,0.9,0.2c0.3,0,0.5,0,0.7,0c0.2-0.1,0.5-0.2,0.7-0.3c0.2-0.1,0.3-0.1,0.5-0.1c0.1,0,0.3,0.1,0.5,0.2   c0.2,0.1,0.3,0.2,0.6,0.2c0.2,0,0.6,0,0.9,0c0.3,0,0.7-0.1,1.3-0.1c0.6,0,1.4,0,1.9,0.1s0.7,0.1,0.9,0.1c0.2,0,0.4,0,0.6,0.1   c0.2,0.1,0.5,0.3,0.6,0.5c0.2,0.2,0.3,0.5,0.2,0.7c0,0.2-0.2,0.3-0.3,0.5c-0.1,0.2-0.2,0.3-0.2,0.7c0,0.3,0.1,0.9,0.1,1.4   s0,1.2,0,1.7s0,0.8,0,1.1c0,0.3,0,0.5-0.1,0.8c0,0.3-0.1,0.7-0.2,1c-0.1,0.3-0.1,0.7-0.2,0.9c0,0.2,0,0.4-0.1,0.6   c0,0.2-0.1,0.4-0.1,0.5c0,0.1,0.1,0.2,0.3,0.3c0.1,0.1,0.3,0.1,0.5,0.1c0.2,0,0.4,0,0.6-0.1c0.2-0.1,0.3-0.2,0.5-0.2   c0.2,0,0.4,0.1,0.8,0.1c0.3,0,0.8,0,1.1-0.1c0.3,0,0.5-0.1,0.7-0.1c0.2,0,0.4-0.1,0.4-0.2c0.1-0.1,0.1-0.4,0.1-0.5   c0-0.2-0.1-0.4-0.1-0.5c0-0.2,0.1-0.3,0.3-0.5c0.1-0.2,0.2-0.4,0.2-0.9c0-0.5,0-1.5-0.1-2.2c-0.1-0.7-0.1-1.3-0.2-1.7   s-0.1-0.6-0.2-0.9s-0.2-0.8-0.3-1.4c-0.1-0.7-0.1-1.3-0.1-2c0-0.5,0.1-0.7,0-1c-0.1-0.3-0.4-0.6-0.7-1c-0.3-0.3-0.6-0.6-1-0.9   c-0.4-0.2-0.9-0.3-1.5-0.4c-0.6-0.1-1.4-0.1-1.9,0s-0.6,0.3-0.8,0.4c-0.2,0.1-0.4,0-0.7-0.1c-0.3-0.1-0.6-0.2-0.9-0.3   c-0.3,0-0.5,0-0.8,0.1c-0.2,0.1-0.4,0.2-0.7,0.2c-0.2,0-0.5-0.1-0.8-0.2c-0.3-0.1-0.5-0.2-0.9-0.3c-0.3,0-0.7,0.1-1.3,0.1   c-0.7,0.1-1.7,0.2-2.5,0.1c-0.8,0-1.3-0.2-1.8-0.2c-0.5,0-1.1,0.3-1.5,0.3c-0.4,0.1-0.5,0-0.7,0C46.5,21.4,46.3,21.5,46.2,21.6   L46.2,21.6z"></path>
	<path class="st3" d="M52.2,25.5c-0.2,0-0.3,0.1-0.4,0.3c-0.1,0.1-0.3,0.3-0.3,0.6c0,0.3,0.1,0.6,0.3,0.9s0.3,0.7,0.4,0.9   c0.1,0.2,0.1,0.4,0.1,0.6c0,0.2,0,0.3,0.1,0.5c0.1,0.2,0.3,0.4,0.5,0.6c0.2,0.2,0.3,0.3,0.4,0.6c0.1,0.3,0.3,0.6,0.5,0.9   c0.2,0.3,0.4,0.4,0.5,0.6c0.2,0.2,0.3,0.4,0.5,0.5c0.2,0.1,0.4,0.1,0.6,0.1c0.2,0,0.4,0,0.6,0.1c0.2,0.1,0.3,0.4,0.5,0.6   s0.3,0.5,0.4,0.8c0.1,0.3,0.2,0.8,0.3,1c0.2,0.2,0.5,0.3,0.7,0.3c0.2,0,0.3,0.1,0.5,0.1c0.1,0.1,0.2,0.1,0.4,0.1   c0.1,0,0.3-0.2,0.5-0.3c0.2-0.1,0.4-0.3,0.7-0.3c0.3-0.1,0.6-0.1,0.8-0.1c0.1-0.5,0.2-1,0.2-1.5s0.1-0.8,0.2-1.1   c0-0.3,0.1-0.5,0.1-1.1c0-0.6,0-1.6,0-2.2c0-0.6,0-0.8-0.1-1c0-0.2,0-0.4,0-0.6c-0.1-0.2-0.2-0.4-0.3-0.6c-0.1-0.2-0.2-0.6-0.4-0.8   c-0.1-0.2-0.3-0.3-0.5-0.3c-0.2-0.1-0.3-0.2-0.5-0.1c-0.2,0-0.4,0.1-0.6,0.2c-0.2,0.1-0.5,0.1-0.7,0.1c-0.3,0-0.6-0.1-1-0.1   c-0.4,0-0.9,0-1.3-0.1c-0.5-0.1-1-0.3-1.4-0.3c-0.5,0-0.9,0.2-1.2,0.2s-0.4,0-0.5-0.1C52.6,25.5,52.4,25.5,52.2,25.5L52.2,25.5z"></path>
</g>
</svg>
