<?xml version="1.0" encoding="UTF-8"?>
<svg xmlns="http://www.w3.org/2000/svg" id="Calque_6" data-name="Calque 6" viewBox="0 0 100 100">
  <defs>
    <style>
      .cls-1 {
        fill: #00608f;
      }

      .cls-2 {
        fill: #3f3d56;
      }

      .cls-3 {
        fill: #ccc;
      }
    </style>
  </defs>
  <polygon class="cls-3" points="83.8 78.3 82.64 81.78 81.48 78.3 83.8 78.3"></polygon>
  <path class="cls-1" d="M83.83,39.07v1.2h-2.38v-1.2c0-.65,.53-1.19,1.19-1.19s1.19,.54,1.19,1.19Z"></path>
  <path class="cls-3" d="M74.85,17.74v62.88s-.03,.07-.07,.07h-2.32V22.23c0-1.2-.97-2.18-2.17-2.18H25.3v-2.31s.03-.07,.07-.07h49.41s.07,.03,.07,.07Z"></path>
  <path class="cls-2" d="M81.48,78.3l1.16,3.48,1.16-3.48h-2.32Zm-.03-2.1h2.38V42.37h-2.38v33.83Zm2.38-35.93v-1.2c0-.65-.53-1.19-1.19-1.19s-1.19,.54-1.19,1.19v1.2h2.38Zm2.11-1.2v39.3c0,.12-.02,.23-.06,.34l-2.19,6.57v.95c0,.59-.47,1.06-1.05,1.06s-1.05-.47-1.05-1.06v-.95l-2.2-6.57c-.03-.11-.05-.22-.05-.34V39.07c0-1.82,1.48-3.3,3.3-3.3s3.3,1.48,3.3,3.3Z"></path>
  <path class="cls-2" d="M63.48,30.16c.58,0,1.05,.47,1.05,1.05s-.47,1.06-1.05,1.06H27.55c-.59,0-1.06-.48-1.06-1.06s.47-1.05,1.06-1.05H63.48Z"></path>
  <path class="cls-2" d="M63.48,34.65c.58,0,1.05,.47,1.05,1.05s-.47,1.06-1.05,1.06h-22.46c-.58,0-1.05-.47-1.05-1.06s.47-1.05,1.05-1.05h22.46Z"></path>
  <path class="cls-2" d="M63.48,39.14c.58,0,1.05,.47,1.05,1.06s-.47,1.05-1.05,1.05h-4.49c-.58,0-1.06-.47-1.06-1.05s.48-1.06,1.06-1.06h4.49Z"></path>
  <path class="cls-2" d="M63.48,43.63c.58,0,1.05,.48,1.05,1.06s-.47,1.05-1.05,1.05H27.55c-.59,0-1.06-.47-1.06-1.05s.47-1.06,1.06-1.06H63.48Z"></path>
  <path class="cls-1" d="M63.48,48.13c.58,0,1.05,.47,1.05,1.05s-.47,1.05-1.05,1.05h-16.84c-.59,0-1.06-.47-1.06-1.05s.47-1.05,1.06-1.05h16.84Z"></path>
  <path class="cls-2" d="M63.48,52.62c.58,0,1.05,.47,1.05,1.05s-.47,1.05-1.05,1.05h-7.86c-.58,0-1.05-.47-1.05-1.05s.47-1.05,1.05-1.05h7.86Z"></path>
  <path class="cls-2" d="M63.48,57.11c.58,0,1.05,.47,1.05,1.05s-.47,1.06-1.05,1.06H27.55c-.59,0-1.06-.48-1.06-1.06s.47-1.05,1.06-1.05H63.48Z"></path>
  <path class="cls-2" d="M63.48,61.6c.58,0,1.05,.47,1.05,1.05s-.47,1.06-1.05,1.06h-22.46c-.58,0-1.05-.47-1.05-1.06s.47-1.05,1.05-1.05h22.46Z"></path>
  <path class="cls-2" d="M63.48,66.09c.58,0,1.05,.47,1.05,1.06s-.47,1.05-1.05,1.05h-4.49c-.58,0-1.06-.47-1.06-1.05s.48-1.06,1.06-1.06h4.49Z"></path>
  <path class="cls-2" d="M63.48,70.58c.58,0,1.05,.48,1.05,1.06s-.47,1.05-1.05,1.05H27.55c-.59,0-1.06-.47-1.06-1.05s.47-1.06,1.06-1.06H63.48Z"></path>
  <path class="cls-2" d="M63.48,75.08c.58,0,1.05,.47,1.05,1.05s-.47,1.05-1.05,1.05H27.55c-.59,0-1.06-.47-1.06-1.05s.47-1.05,1.06-1.05H63.48Z"></path>
  <path class="cls-2" d="M54.5,39.14c.58,0,1.05,.47,1.05,1.06s-.47,1.05-1.05,1.05H27.55c-.59,0-1.06-.47-1.06-1.05s.47-1.06,1.06-1.06h26.95Z"></path>
  <path class="cls-2" d="M54.5,66.09c.58,0,1.05,.47,1.05,1.06s-.47,1.05-1.05,1.05H27.55c-.59,0-1.06-.47-1.06-1.05s.47-1.06,1.06-1.06h26.95Z"></path>
  <path class="cls-2" d="M51.13,52.62c.58,0,1.05,.47,1.05,1.05s-.47,1.05-1.05,1.05H27.55c-.59,0-1.06-.47-1.06-1.05s.47-1.05,1.06-1.05h23.58Z"></path>
  <path class="cls-2" d="M42.14,48.13c.58,0,1.06,.47,1.06,1.05s-.48,1.05-1.06,1.05h-14.59c-.59,0-1.06-.47-1.06-1.05s.47-1.05,1.06-1.05h14.59Z"></path>
  <path class="cls-2" d="M36.53,34.65c.58,0,1.05,.47,1.05,1.05s-.47,1.06-1.05,1.06h-8.98c-.59,0-1.06-.47-1.06-1.06s.47-1.05,1.06-1.05h8.98Z"></path>
  <path class="cls-1" d="M36.53,61.6c.58,0,1.05,.47,1.05,1.05s-.47,1.06-1.05,1.06h-8.98c-.59,0-1.06-.47-1.06-1.06s.47-1.05,1.06-1.05h8.98Z"></path>
  <path class="cls-2" d="M70.36,81.75h0V22.23s-.03-.07-.07-.07H20.88s-.07,.03-.07,.07v62.88s.03,.07,.07,.07h49.41s.07-.03,.07-.07v-3.36Zm4.49-1.13V17.74s-.03-.07-.07-.07H25.37s-.07,.03-.07,.07v2.31h44.99c1.2,0,2.17,.98,2.17,2.18v58.46h2.32s.07-.03,.07-.07Zm2.1,0c0,1.2-.97,2.18-2.17,2.18h-2.32v2.31c0,1.2-.97,2.18-2.17,2.18H20.88c-1.2,0-2.18-.98-2.18-2.18V22.23c0-1.2,.98-2.18,2.18-2.18h2.31v-2.31c0-1.2,.98-2.18,2.18-2.18h49.41c1.2,0,2.17,.98,2.17,2.18v62.88Z"></path>
</svg>
