<?xml version="1.0" encoding="UTF-8"?>
<svg xmlns="http://www.w3.org/2000/svg" xmlns:xlink="http://www.w3.org/1999/xlink" id="GRAND_REIMS" data-name="GRAND REIMS" viewBox="0 0 180 80">
  <defs>
    <style>
      .cls-1 {
        fill: url(#linear-gradient-2);
      }

      .cls-2 {
        fill: #575756;
      }

      .cls-3 {
        clip-path: url(#clippath-2);
      }

      .cls-4 {
        clip-path: url(#clippath-1);
      }

      .cls-5 {
        clip-path: url(#clippath-4);
      }

      .cls-6 {
        clip-path: url(#clippath);
      }

      .cls-7 {
        fill: none;
      }

      .cls-8 {
        clip-path: url(#clippath-3);
      }

      .cls-9 {
        fill: url(#linear-gradient-3);
      }

      .cls-10 {
        clip-path: url(#clippath-5);
      }

      .cls-11 {
        fill: url(#linear-gradient);
      }

      .cls-12 {
        fill: url(#linear-gradient-4);
      }

      .cls-13 {
        fill: #1d1d1b;
      }
    </style>
    <clipPath id="clippath">
      <path class="cls-7" d="m40.92,8.7c-1.45.62-2.79,1.48-3.91,2.61-1.13,1.1-2.02,2.4-2.64,3.82-.62,1.48-.95,3.05-.95,4.68s.3,3.17.95,4.68c.62,1.42,1.48,2.73,2.61,3.82,1.13,1.13,2.43,2.02,3.88,2.61,1.48.65,3.08.98,4.74.98s3.41-.36,4.95-1.07c1.51-.68,2.81-1.66,3.94-2.88.24-.27.39-.62.39-.98v-6.79c0-.83-.65-1.48-1.48-1.48s-1.48.65-1.48,1.48v6.16c-.74.74-1.63,1.33-2.58,1.78-1.16.53-2.43.8-3.73.8-2.46,0-4.77-.98-6.52-2.73-.86-.83-1.51-1.81-1.99-2.9-.47-1.1-.71-2.28-.71-3.5s.24-2.37.71-3.5c.47-1.1,1.16-2.05,2.01-2.9.83-.83,1.84-1.51,2.93-1.96,1.16-.5,2.37-.74,3.62-.74,1.9,0,3.68.56,5.19,1.66.68.47,1.6.3,2.08-.35.47-.68.33-1.6-.36-2.08-2.01-1.42-4.39-2.19-6.91-2.19-1.63,0-3.23.33-4.74.95"></path>
    </clipPath>
    <linearGradient id="linear-gradient" x1="-367.41" y1="209.99" x2="-366.91" y2="209.99" gradientTransform="translate(-73240.76 -41924.85) rotate(-180) scale(199.74 -199.74)" gradientUnits="userSpaceOnUse">
      <stop offset="0" stop-color="#eaad00"></stop>
      <stop offset=".14" stop-color="#eaad00"></stop>
      <stop offset=".88" stop-color="#bb2537"></stop>
      <stop offset="1" stop-color="#bb2537"></stop>
    </linearGradient>
    <clipPath id="clippath-1">
      <path class="cls-7" d="m103.01,8.23c-.59.21-.98.77-.98,1.39v20.33c0,.83.65,1.48,1.48,1.48s1.48-.65,1.48-1.48V13.71l14.31,17.22c.3.33.71.53,1.16.53.15,0,.33-.03.51-.09.56-.24.98-.77.98-1.39V9.65c0-.83-.68-1.48-1.48-1.48s-1.48.65-1.48,1.48v16.21l-14.34-17.19c-.28-.34-.7-.53-1.13-.53-.17,0-.34.03-.5.09"></path>
    </clipPath>
    <linearGradient id="linear-gradient-2" x1="-367.41" y1="209.99" x2="-366.91" y2="209.99" gradientTransform="translate(-73240.76 -41925.06) rotate(-180) scale(199.74 -199.74)" xlink:href="#linear-gradient"></linearGradient>
    <clipPath id="clippath-2">
      <path class="cls-7" d="m127.3,11.04h5.87c2.43,0,4.68.92,6.4,2.61.83.8,1.48,1.72,1.93,2.76.47,1.07.71,2.19.71,3.35s-.24,2.25-.71,3.29c-.47,1.04-1.13,1.99-1.96,2.79-.83.8-1.81,1.42-2.9,1.87-1.1.45-2.25.68-3.47.71h-5.87V11.04Zm-1.48-2.96c-.39,0-.77.18-1.04.44-.3.27-.45.65-.45,1.04v20.33c0,.8.65,1.48,1.48,1.48h7.29c1.6,0,3.17-.33,4.65-.92,1.42-.59,2.73-1.42,3.82-2.49,1.13-1.07,1.99-2.31,2.61-3.7.65-1.42.98-2.96.98-4.51s-.33-3.08-.95-4.53c-.62-1.39-1.48-2.64-2.58-3.7-1.1-1.07-2.4-1.93-3.82-2.52-1.45-.59-3.02-.92-4.65-.92h-7.35Z"></path>
    </clipPath>
    <linearGradient id="linear-gradient-3" x1="-367.41" y1="209.99" x2="-366.91" y2="209.99" gradientTransform="translate(-73240.76 -41925.1) rotate(-180) scale(199.74 -199.74)" xlink:href="#linear-gradient"></linearGradient>
    <clipPath id="clippath-3">
      <rect class="cls-7" x="4.95" y="-51.54" width="169.82" height="169.82"></rect>
    </clipPath>
    <clipPath id="clippath-4">
      <path class="cls-7" d="m87.64,8.91l-5.56,11.47c-.08.18-.13.39-.13.6,0,.83.67,1.5,1.5,1.5.64,0,1.18-.41,1.39-.98h0s.25-.54.25-.54l3.88-8.02,4.65,9.51c-1.24-.12-2.52-.03-3.85.21-1.93.35-3.94,1.07-5.93,2.13-.14.07-.26.14-.39.21-.78.42-2.3,1.25-4.17,2.68-.12.1-.66.6-.9.81-.13.09-1.82,2.12-5.48-1.45-1.34-1.31-2.07-3.02-3.35-4.12.65-.18,1.25-.45,1.78-.74,2.22-1.28,3.41-3.44,3.41-6.23,0-1.27-.18-2.43-.59-3.44-.36-.92-.86-1.72-1.54-2.37-.86-.86-2.01-1.51-3.32-1.84-.92-.24-1.63-.24-1.75-.24h-8.8c-.83,0-1.48.65-1.48,1.48v20.33c0,.8.65,1.48,1.48,1.48s1.48-.68,1.48-1.48V11.04h7.32c.09,0,1.19.03,2.22.62.59.36,1.04.8,1.36,1.36.44.77.65,1.75.65,2.93,0,1.75-.59,2.91-1.9,3.65-1.16.65-2.79.98-4.89.98-.77,0-1.42.56-1.48,1.33-.09.77.41,1.45,1.19,1.6.06,0,.83.21,1.87.89,1.48.95,2.57,2.34,3.79,4.12,1.04,1.52,2.69,2.71,3.58,3.13,3.41,1.58,5.21-.13,5.42-.16.62-.4,1.19-.83,1.6-1.27.89-.72,2.42-1.86,4.31-2.86,1.75-.92,3.44-1.51,5.07-1.81,1.75-.33,3.38-.27,4.92.18l2.31,4.77c.36.71,1.25,1.04,1.99.65.74-.36,1.04-1.25.68-1.96l-9.93-20.3c-.24-.5-.77-.83-1.33-.83s-1.07.33-1.33.83"></path>
    </clipPath>
    <linearGradient id="linear-gradient-4" x1="-367.41" y1="209.99" x2="-366.91" y2="209.99" gradientTransform="translate(-73240.76 -41924.1) rotate(-180) scale(199.74 -199.74)" xlink:href="#linear-gradient"></linearGradient>
    <clipPath id="clippath-5">
      <rect class="cls-7" x="4.95" y="-51.54" width="169.82" height="169.82"></rect>
    </clipPath>
  </defs>
  <g class="cls-6">
    <rect class="cls-11" x="33.42" y="7.75" width="21.46" height="24.15"></rect>
  </g>
  <g class="cls-4">
    <rect class="cls-1" x="102.03" y="8.14" width="19.92" height="23.32"></rect>
  </g>
  <g class="cls-3">
    <rect class="cls-9" x="124.33" y="8.08" width="20.84" height="23.3"></rect>
  </g>
  <g class="cls-8">
    <path class="cls-13" d="m58.74,60.04c-.83,0-1.48-.68-1.48-1.48v-20.33c0-.83.65-1.48,1.48-1.48h8.8c.12,0,.83,0,1.75.24,1.3.33,2.46.98,3.32,1.84.68.65,1.18,1.45,1.54,2.37.42,1.01.59,2.16.59,3.44,0,2.79-1.18,4.95-3.41,6.22-.53.3-1.13.56-1.78.74,1.27,1.1,2.43,2.49,3.35,4.12.77,1.3,1.6,1.3,1.72,1.3.8-.09,1.54.44,1.66,1.24.12.8-.45,1.57-1.25,1.69-.21.03-.89.09-1.81-.21-.8-.3-1.96-.95-2.87-2.55-1.04-1.78-2.31-3.17-3.79-4.12-1.04-.68-1.81-.89-1.87-.89-.77-.15-1.28-.83-1.19-1.6.06-.77.71-1.33,1.48-1.33,2.1,0,3.73-.33,4.89-.98,1.3-.74,1.9-1.9,1.9-3.65,0-1.18-.21-2.16-.65-2.93-.33-.56-.77-1.01-1.36-1.36-1.04-.59-2.13-.62-2.22-.62h-7.32v18.85c0,.8-.65,1.48-1.48,1.48"></path>
    <path class="cls-13" d="m95.83,58.53c0,.83-.65,1.48-1.48,1.48h-14.17c-.8,0-1.48-.65-1.48-1.48v-20.3c0-.83.68-1.48,1.48-1.48h13.87c.83,0,1.48.65,1.48,1.48s-.65,1.48-1.48,1.48h-12.39v7.14h10.96c.83,0,1.48.68,1.48,1.48s-.65,1.48-1.48,1.48h-10.96v7.23h12.69c.83,0,1.48.65,1.48,1.48"></path>
    <path class="cls-13" d="m99.84,60.04c-.8,0-1.48-.65-1.48-1.48v-20.33c0-.8.68-1.48,1.48-1.48s1.48.68,1.48,1.48v20.33c0,.83-.65,1.48-1.48,1.48"></path>
    <path class="cls-13" d="m125.28,59.92c-.8,0-1.48-.68-1.48-1.48v-15.8l-7.29,9.99c-.27.39-.71.59-1.19.59s-.92-.21-1.21-.59l-7.29-9.99v15.8c0,.8-.65,1.48-1.48,1.48s-1.48-.68-1.48-1.48v-20.33c0-.65.41-1.22,1.04-1.42.59-.21,1.27.03,1.66.53l8.77,12.03,8.77-12.03c.39-.5,1.04-.74,1.66-.53.59.21,1.01.77,1.01,1.42v20.33c0,.8-.65,1.48-1.48,1.48"></path>
    <path class="cls-13" d="m144.4,55.92c-.39,1.07-1.01,1.99-1.87,2.7-1.72,1.36-3.91,1.96-6.22,1.72-1.27-.15-2.52-.56-3.68-1.16-1.16-.62-2.16-1.48-2.93-2.46-.51-.65-.42-1.57.24-2.07.62-.5,1.57-.39,2.08.24,1.07,1.36,2.81,2.31,4.62,2.52,1.51.15,2.97-.24,4.03-1.1.86-.68,1.27-1.93,1.04-2.99-.5-2.07-2.4-2.76-5.49-3.62-1.01-.27-2.07-.56-2.99-.98-.21-.09-.42-.18-.62-.3-.03-.03-.09-.03-.12-.06-.8-.47-1.45-1.01-1.96-1.63-.59-.71-1.01-1.57-1.21-2.52-.27-1.07-.21-2.19.18-3.26.35-1.07,1.01-2.02,1.86-2.7,1.69-1.36,3.91-1.99,6.22-1.72,1.25.15,2.52.53,3.65,1.16,1.16.62,2.16,1.48,2.96,2.46.5.62.39,1.54-.24,2.07-.65.5-1.57.39-2.08-.27-1.1-1.36-2.82-2.28-4.62-2.49-1.54-.18-2.96.21-4.06,1.07-.86.71-1.27,1.93-1.01,2.99.48,2.07,2.37,2.76,5.45,3.62,1.04.3,2.08.59,3.02.98.21.12.41.21.59.3l.15.09c.77.45,1.42.98,1.93,1.63.59.71,1.01,1.54,1.21,2.49.27,1.07.21,2.22-.15,3.29"></path>
  </g>
  <g class="cls-5">
    <rect class="cls-12" x="57.26" y="8.08" width="43.33" height="25.16"></rect>
  </g>
  <g class="cls-10">
    <path class="cls-2" d="m33.58,71.79v-1.88c0-.36.05-.68.15-.97.1-.29.25-.53.46-.74.21-.2.47-.36.78-.47.31-.11.69-.17,1.12-.17.26,0,.51.02.75.07s.46.11.65.19c.19.08.34.17.45.28s.17.22.17.34-.05.22-.15.31c-.1.08-.23.13-.38.13-.1,0-.17-.01-.23-.04-.05-.03-.12-.06-.19-.1l-.05-.03c-.28-.17-.6-.25-.95-.25-.53,0-.9.13-1.11.4-.21.26-.31.62-.31,1.07v1.88c0,.45.1.81.31,1.07.21.26.58.4,1.11.4.36,0,.67-.08.95-.25l.05-.03c.08-.04.14-.08.19-.1.05-.03.13-.04.23-.04.15,0,.28.04.38.13.1.09.15.19.15.3,0,.12-.06.24-.17.34s-.26.2-.45.28c-.19.08-.4.14-.65.19-.24.05-.49.07-.75.07-.43,0-.81-.06-1.12-.17-.31-.11-.58-.27-.78-.47-.21-.2-.36-.45-.46-.74-.1-.29-.15-.61-.15-.97"></path>
    <path class="cls-2" d="m41.91,74.16c-.43,0-.8-.06-1.12-.19-.32-.12-.59-.29-.8-.51-.21-.21-.37-.46-.48-.75-.11-.29-.16-.6-.16-.93v-1.88c0-.32.05-.63.14-.91.09-.28.25-.53.45-.75.21-.22.47-.39.8-.51.33-.12.72-.19,1.18-.19s.85.06,1.18.19c.32.12.59.29.8.51.21.22.36.46.45.75.09.28.14.59.14.91v1.88c0,.33-.05.64-.16.93-.11.29-.27.54-.48.75-.21.21-.48.38-.8.51-.32.12-.7.19-1.12.19m0-5.67c-.52,0-.88.13-1.1.39-.21.26-.32.61-.32,1.03v1.88c0,.43.11.77.34,1.04s.59.4,1.08.4.84-.13,1.07-.4c.23-.26.35-.61.35-1.04v-1.88c0-.43-.11-.77-.32-1.03-.21-.26-.58-.39-1.1-.39"></path>
    <path class="cls-2" d="m52.43,68.05v5.65c0,.12-.06.23-.17.32-.11.09-.24.14-.4.14s-.3-.05-.41-.14c-.12-.09-.17-.2-.17-.32v-3.79l-1.45,2.59c-.06.1-.13.17-.23.21s-.2.07-.32.07c-.25,0-.43-.09-.55-.28l-1.44-2.59v3.79c0,.12-.06.23-.18.32-.12.09-.26.14-.42.14s-.29-.05-.4-.14c-.11-.09-.16-.2-.16-.32v-5.65c0-.14.06-.26.17-.35.11-.09.26-.14.43-.14.27,0,.47.1.59.29l1.96,3.52,1.95-3.53c.06-.1.15-.18.25-.22.11-.04.22-.06.34-.06.17,0,.31.05.42.14.12.09.17.21.17.35"></path>
    <path class="cls-2" d="m60.6,68.05v5.65c0,.12-.06.23-.17.32-.11.09-.24.14-.4.14s-.3-.05-.41-.14c-.12-.09-.17-.2-.17-.32v-3.79l-1.45,2.59c-.06.1-.13.17-.23.21-.09.05-.2.07-.32.07-.25,0-.43-.09-.55-.28l-1.44-2.59v3.79c0,.12-.06.23-.18.32-.12.09-.26.14-.42.14s-.29-.05-.4-.14c-.11-.09-.16-.2-.16-.32v-5.65c0-.14.06-.26.17-.35.11-.09.25-.14.43-.14.27,0,.47.1.59.29l1.96,3.52,1.95-3.53c.06-.1.15-.18.25-.22.1-.04.22-.06.34-.06.17,0,.31.05.42.14.12.09.17.21.17.35"></path>
    <path class="cls-2" d="m67.39,71.93c0,.32-.06.62-.17.89-.11.27-.27.51-.49.71-.21.2-.47.35-.78.47-.3.11-.65.17-1.04.17s-.75-.06-1.06-.17c-.31-.11-.57-.27-.78-.47-.21-.2-.37-.43-.48-.71-.11-.27-.16-.57-.16-.89v-3.88c0-.14.06-.26.17-.35.11-.09.25-.14.42-.14.15,0,.29.05.4.14.11.09.17.21.17.35v3.88c0,.38.11.7.32.94.21.24.55.36,1,.36s.78-.12.99-.36c.21-.24.32-.55.32-.94v-3.88c0-.13.05-.25.16-.35.11-.1.24-.15.4-.15s.31.05.42.15c.12.1.17.21.17.35v3.88Z"></path>
    <path class="cls-2" d="m73.71,74.16c-.11,0-.22-.02-.32-.07-.1-.05-.19-.11-.24-.19l-2.73-4.28v4.06c0,.13-.06.24-.17.34-.12.1-.25.15-.41.15s-.3-.05-.4-.15c-.11-.1-.16-.21-.16-.34v-5.61c0-.15.06-.27.17-.36.11-.1.26-.15.44-.15.12,0,.23.02.34.07.1.05.19.12.24.2.08.12.19.29.33.51.14.22.3.47.48.75.17.27.36.56.55.87.19.3.38.6.55.88.17.28.34.53.48.76.15.22.26.4.34.52v-4.07c0-.13.06-.25.17-.34.12-.09.25-.14.41-.14s.3.05.4.14.16.21.16.34v5.61c0,.14-.06.26-.17.36-.12.1-.26.15-.45.15"></path>
    <path class="cls-2" d="m77.31,72.71l-.39,1.09c-.03.11-.11.19-.23.26-.12.06-.22.09-.32.09-.16,0-.3-.04-.42-.13-.12-.08-.18-.2-.18-.34,0-.02,0-.06,0-.09,0-.04,0-.06.02-.08l2.04-5.41c.06-.16.14-.29.24-.39.1-.1.26-.16.46-.16s.36.05.46.16c.1.1.18.23.25.39l2.04,5.41s.02.05.03.08c0,.04,0,.07,0,.09,0,.14-.06.25-.17.34-.12.08-.26.13-.43.13-.19,0-.32-.05-.41-.15-.08-.1-.16-.24-.23-.4l-.34-.88h-2.44Zm1.24-3.65c-.13.49-.28.95-.44,1.4-.16.45-.32.91-.48,1.37h1.81c-.16-.46-.32-.92-.49-1.38-.16-.46-.3-.92-.41-1.4"></path>
    <path class="cls-2" d="m87.64,71.93c0,.32-.06.62-.17.89-.11.27-.27.51-.49.71-.21.2-.47.35-.78.47-.3.11-.65.17-1.04.17s-.75-.06-1.06-.17c-.31-.11-.57-.27-.78-.47-.21-.2-.37-.43-.48-.71-.11-.27-.16-.57-.16-.89v-3.88c0-.14.06-.26.17-.35.11-.09.25-.14.42-.14.15,0,.29.05.4.14.11.09.17.21.17.35v3.88c0,.38.11.7.32.94.21.24.55.36,1,.36s.78-.12.99-.36c.21-.24.32-.55.32-.94v-3.88c0-.13.05-.25.16-.35.11-.1.24-.15.4-.15s.31.05.42.15c.12.1.17.21.17.35v3.88Z"></path>
    <path class="cls-2" d="m90.85,73.69v-5.11h-1.27c-.17,0-.31-.05-.41-.14-.11-.09-.16-.2-.16-.32,0-.1.06-.21.17-.31.11-.11.25-.16.41-.16h3.69c.15,0,.28.05.4.14.12.09.18.2.18.34,0,.12-.06.23-.17.32-.12.09-.25.14-.41.14h-1.27v5.11c0,.12-.06.23-.17.33-.11.1-.25.15-.41.15s-.3-.05-.41-.15c-.11-.1-.17-.21-.17-.33"></path>
    <path class="cls-2" d="m99.48,73.59c0,.14-.06.25-.17.35-.11.09-.25.14-.41.14h-2.78c-.22,0-.41-.04-.57-.11-.16-.08-.25-.22-.25-.42v-5.35c0-.13.06-.26.18-.37.12-.11.28-.17.47-.17h2.84c.16,0,.3.05.41.14.11.09.17.21.17.34s-.06.24-.17.33c-.11.09-.25.13-.41.13h-2.34v1.8h2.14c.14,0,.27.04.39.13.12.09.18.2.18.33s-.05.25-.16.34c-.11.09-.24.14-.4.14h-2.14v1.82h2.44c.15,0,.29.04.4.13.12.09.17.19.17.31m-1.73-7.79l.1-.09c.06-.05.1-.08.15-.1.04-.02.11-.03.2-.03.1,0,.19.04.28.1.09.07.14.16.14.27,0,.09-.05.18-.14.25l-.79.71c-.06.06-.12.11-.18.14-.06.03-.13.05-.23.05-.12,0-.22-.04-.31-.1-.09-.07-.13-.16-.13-.28,0-.06.03-.12.1-.2.07-.08.15-.16.24-.24.09-.08.19-.17.29-.25.1-.08.19-.16.27-.22"></path>
    <path class="cls-2" d="m109.55,71.93c0,.32-.06.62-.17.89-.11.27-.27.51-.49.71-.21.2-.47.35-.78.47-.3.11-.65.17-1.04.17s-.75-.06-1.06-.17c-.31-.11-.57-.27-.78-.47-.21-.2-.37-.43-.48-.71-.11-.27-.16-.57-.16-.89v-3.88c0-.14.06-.26.17-.35.11-.09.25-.14.42-.14.15,0,.29.05.4.14.11.09.17.21.17.35v3.88c0,.38.11.7.32.94.21.24.55.36,1,.36s.78-.12.99-.36c.21-.24.32-.55.32-.94v-3.88c0-.13.05-.25.16-.35.11-.1.24-.15.4-.15s.31.05.42.15c.12.1.17.21.17.35v3.88Z"></path>
    <path class="cls-2" d="m116.33,69.52c0,.47-.14.86-.41,1.15-.28.29-.65.49-1.13.59.26.36.52.72.78,1.07.26.35.52.71.78,1.07.03.02.05.06.06.12.01.06.02.1.02.13,0,.14-.06.26-.19.35-.13.09-.26.14-.4.14-.22,0-.38-.07-.48-.22l-1.82-2.57h-.95v2.32c0,.13-.06.24-.17.34-.12.1-.25.15-.41.15s-.29-.05-.4-.14c-.11-.09-.17-.21-.17-.34v-5.48c0-.15.06-.27.19-.38.13-.11.28-.16.45-.16h1.82c.46,0,.85.05,1.16.16.31.11.56.25.76.43.19.18.33.38.41.6s.12.45.12.68m-1.15,0c0-.12-.02-.23-.06-.34-.04-.11-.11-.21-.2-.3-.1-.09-.23-.16-.4-.21-.17-.06-.39-.08-.67-.08h-1.27v1.85h1.33c.41,0,.73-.08.94-.23.22-.16.33-.38.33-.68"></path>
    <path class="cls-2" d="m120.42,74.07h-1.73c-.19,0-.35-.05-.47-.16-.13-.11-.19-.24-.19-.39v-5.34c0-.16.06-.29.19-.39.13-.1.29-.16.47-.16h1.77c.37,0,.69.05.96.15.27.1.5.23.69.39.19.16.32.35.41.55.09.21.14.42.14.64,0,.35-.12.64-.35.85-.23.21-.53.39-.88.53.17.06.34.12.51.19.17.07.33.17.46.28.14.11.25.25.33.41.08.16.13.35.13.58,0,.26-.06.51-.17.73-.11.23-.27.43-.49.59-.21.17-.47.3-.77.4-.3.1-.64.15-1.02.15m-1.24-3.8h1.21c.13,0,.27-.02.4-.06.13-.04.25-.09.36-.16.11-.07.2-.17.26-.28.07-.11.1-.25.1-.4,0-.21-.07-.4-.22-.56-.15-.16-.41-.24-.78-.24h-1.33v1.7Zm1.24.94h-1.24v1.93h1.23c.44,0,.77-.09.98-.26.21-.17.32-.4.32-.68,0-.32-.12-.57-.37-.74-.24-.17-.55-.26-.92-.26"></path>
    <path class="cls-2" d="m125.48,72.71l-.39,1.09c-.03.11-.11.19-.23.26-.12.06-.22.09-.32.09-.16,0-.3-.04-.42-.13-.12-.08-.18-.2-.18-.34,0-.02,0-.06,0-.09,0-.04,0-.06.02-.08l2.05-5.41c.06-.16.14-.29.24-.39.1-.1.26-.16.46-.16s.35.05.46.16c.1.1.18.23.25.39l2.05,5.41s.02.05.03.08c0,.04,0,.07,0,.09,0,.14-.06.25-.17.34-.12.08-.26.13-.43.13-.19,0-.32-.05-.41-.15-.08-.1-.16-.24-.23-.4l-.34-.88h-2.44Zm1.24-3.65c-.13.49-.28.95-.44,1.4-.16.45-.32.91-.48,1.37h1.81c-.16-.46-.32-.92-.49-1.38-.16-.46-.3-.92-.41-1.4"></path>
    <path class="cls-2" d="m130.95,73.69v-5.65c0-.13.06-.24.17-.33s.25-.14.41-.14.3.05.41.14c.11.09.17.21.17.33v5.65c0,.12-.06.23-.17.33-.11.1-.25.15-.41.15s-.3-.05-.41-.15c-.11-.1-.17-.21-.17-.33"></path>
    <path class="cls-2" d="m138.51,74.16c-.11,0-.22-.02-.33-.07-.1-.05-.18-.11-.24-.19l-2.73-4.28v4.06c0,.13-.06.24-.17.34-.12.1-.25.15-.41.15s-.3-.05-.4-.15c-.11-.1-.16-.21-.16-.34v-5.61c0-.15.06-.27.17-.36.11-.1.26-.15.44-.15.12,0,.23.02.34.07.1.05.19.12.24.2.08.12.19.29.33.51.14.22.3.47.48.75.17.27.36.56.55.87.19.3.38.6.55.88.17.28.34.53.48.76.15.22.26.4.34.52v-4.07c0-.13.06-.25.17-.34.12-.09.25-.14.41-.14s.3.05.4.14.16.21.16.34v5.61c0,.14-.06.26-.17.36-.12.1-.26.15-.45.15"></path>
    <path class="cls-2" d="m145.26,73.59c0,.14-.06.25-.17.35-.11.09-.25.14-.41.14h-2.78c-.22,0-.41-.04-.57-.11-.16-.08-.25-.22-.25-.42v-5.35c0-.13.06-.26.18-.37.12-.11.28-.17.47-.17h2.84c.16,0,.3.05.41.14.11.09.17.21.17.34s-.06.24-.17.33c-.11.09-.25.13-.41.13h-2.34v1.8h2.14c.14,0,.27.04.39.13.12.09.18.2.18.33s-.05.25-.16.34c-.11.09-.24.14-.4.14h-2.14v1.82h2.44c.15,0,.29.04.4.13.12.09.17.19.17.31"></path>
  </g>
</svg>
