<?xml version="1.0" encoding="UTF-8"?>
<svg xmlns="http://www.w3.org/2000/svg" id="TRESOR" viewBox="0 0 180 80">
  <defs>
    <style>
      .cls-1 {
        letter-spacing: .28em;
      }

      .cls-2 {
        letter-spacing: 0em;
      }

      .cls-3 {
        letter-spacing: .34em;
      }

      .cls-4 {
        letter-spacing: .22em;
      }

      .cls-5 {
        letter-spacing: .29em;
      }

      .cls-6 {
        letter-spacing: .29em;
      }

      .cls-7, .cls-8 {
        fill: #b18619;
      }

      .cls-9 {
        letter-spacing: .29em;
      }

      .cls-10 {
        letter-spacing: .26em;
      }

      .cls-11 {
        letter-spacing: .26em;
      }

      .cls-8 {
        font-family: FiraSans-Bold, 'Fira Sans';
        font-size: 6.03px;
        font-weight: 700;
      }
    </style>
  </defs>
  <text class="cls-8" transform="translate(44.78 58.94)">
    <tspan class="cls-3" x="0" y="0">L</tspan>
    <tspan class="cls-10" x="5.11" y="0">A</tspan>
    <tspan class="cls-5" x="10.27" y="0"> </tspan>
    <tspan class="cls-1" x="13.42" y="0">C</tspan>
    <tspan class="cls-9" x="18.56" y="0">U</tspan>
    <tspan class="cls-4" x="24.24" y="0">L</tspan>
    <tspan class="cls-6" x="28.66" y="0">T</tspan>
    <tspan class="cls-9" x="33.66" y="0">UR</tspan>
    <tspan class="cls-5" x="44.8" y="0">E</tspan>
    <tspan class="cls-11" x="49.69" y="0" xml:space="preserve"> À</tspan>
    <tspan x="57.87" y="0"> </tspan>
  </text>
  <text class="cls-8" transform="translate(110.53 58.94)">
    <tspan x="0" y="0">R</tspan>
  </text>
  <text class="cls-8" transform="translate(116.32 58.94)">
    <tspan class="cls-9" x="0" y="0">E</tspan>
    <tspan class="cls-6" x="4.92" y="0">I</tspan>
    <tspan class="cls-9" x="8.43" y="0">M</tspan>
    <tspan class="cls-2" x="14.92" y="0">S</tspan>
  </text>
  <rect class="cls-7" x="20.02" y="43.3" width="1.69" height="1.69" transform="translate(-27.42 51.4) rotate(-73.25)"></rect>
  <rect class="cls-7" x="18.11" y="42.3" width="1.69" height="1.69" transform="translate(-27.82 48.86) rotate(-73.25)"></rect>
  <rect class="cls-7" x="18.19" y="40.14" width="1.69" height="1.69" transform="translate(-25.69 47.4) rotate(-73.25)"></rect>
  <rect class="cls-7" x="18.96" y="38.03" width="1.69" height="1.69" transform="translate(-23.13 46.64) rotate(-73.25)"></rect>
  <rect class="cls-7" x="19.25" y="35.92" width="1.69" height="1.69" transform="translate(-20.91 45.41) rotate(-73.25)"></rect>
  <rect class="cls-7" x="19.67" y="33.82" width="1.69" height="1.69" transform="translate(-18.59 44.32) rotate(-73.25)"></rect>
  <rect class="cls-7" x="20.3" y="31.71" width="1.69" height="1.69" transform="translate(-16.12 43.42) rotate(-73.25)"></rect>
  <rect class="cls-7" x="21.07" y="29.6" width="1.69" height="1.69" transform="translate(-13.56 42.66) rotate(-73.25)"></rect>
  <rect class="cls-7" x="21.35" y="27.5" width="1.69" height="1.69" transform="translate(-11.34 41.43) rotate(-73.25)"></rect>
  <rect class="cls-7" x="22.12" y="25.39" width="1.69" height="1.69" transform="translate(-8.77 40.67) rotate(-73.25)"></rect>
  <rect class="cls-7" x="23.42" y="23.28" width="1.69" height="1.69" transform="translate(-5.83 40.41) rotate(-73.25)"></rect>
  <rect class="cls-7" x="25.57" y="23.55" width="1.69" height="1.69" transform="translate(-4.56 42.66) rotate(-73.25)"></rect>
  <rect class="cls-7" x="26.62" y="26.02" width="1.69" height="1.69" transform="translate(-6.17 45.42) rotate(-73.25)"></rect>
  <rect class="cls-7" x="26.09" y="28.13" width="1.69" height="1.69" transform="translate(-8.57 46.42) rotate(-73.25)"></rect>
  <rect class="cls-7" x="25.57" y="30.23" width="1.69" height="1.69" transform="translate(-10.96 47.42) rotate(-73.25)"></rect>
  <rect class="cls-7" x="25.04" y="32.34" width="1.69" height="1.69" transform="translate(-13.35 48.41) rotate(-73.25)"></rect>
  <rect class="cls-7" x="23.18" y="33.82" width="1.69" height="1.69" transform="translate(-16.09 47.68) rotate(-73.25)"></rect>
  <rect class="cls-7" x="21.6" y="35.43" width="1.69" height="1.69" transform="translate(-18.76 47.32) rotate(-73.25)"></rect>
  <rect class="cls-7" x="16.58" y="37.87" width="1.69" height="1.69" transform="translate(-24.67 44.24) rotate(-73.25)"></rect>
  <rect class="cls-7" x="22.41" y="42.56" width="1.69" height="1.69" transform="translate(-25.01 53.16) rotate(-73.25)"></rect>
  <rect class="cls-7" x="24.51" y="41.12" width="1.69" height="1.69" transform="translate(-22.14 54.16) rotate(-73.25)"></rect>
  <rect class="cls-7" x="26.62" y="39.48" width="1.69" height="1.69" transform="translate(-19.06 55.01) rotate(-73.25)"></rect>
  <rect class="cls-7" x="28.73" y="38.03" width="1.69" height="1.69" transform="translate(-16.18 55.99) rotate(-73.25)"></rect>
  <rect class="cls-7" x="30.83" y="36.81" width="1.69" height="1.69" transform="translate(-13.51 57.14) rotate(-73.25)"></rect>
  <rect class="cls-7" x="32.69" y="35.18" width="1.69" height="1.69" transform="translate(-10.62 57.76) rotate(-73.25)"></rect>
  <rect class="cls-7" x="35.29" y="34.38" width="1.69" height="1.69" transform="translate(-8 59.68) rotate(-73.25)"></rect>
  <rect class="cls-7" x="37.73" y="33.33" width="1.69" height="1.69" transform="translate(-5.26 61.27) rotate(-73.25)"></rect>
  <rect class="cls-7" x="39.57" y="34.82" width="1.69" height="1.69" transform="translate(-5.38 64.09) rotate(-73.25)"></rect>
  <rect class="cls-7" x="39" y="36.93" width="1.69" height="1.69" transform="translate(-7.81 65.04) rotate(-73.25)"></rect>
  <rect class="cls-7" x="36.64" y="38.43" width="1.69" height="1.69" transform="translate(-10.92 63.86) rotate(-73.25)"></rect>
  <rect class="cls-7" x="33.43" y="40.65" width="1.69" height="1.69" transform="translate(-15.33 62.36) rotate(-73.25)"></rect>
  <rect class="cls-7" x="34.54" y="36.43" width="1.69" height="1.69" transform="translate(-10.51 60.42) rotate(-73.25)"></rect>
  <rect class="cls-7" x="33.99" y="38.54" width="1.69" height="1.69" transform="translate(-12.92 61.4) rotate(-73.25)"></rect>
  <rect class="cls-7" x="34.73" y="43" width="1.69" height="1.69" transform="translate(-16.66 65.28) rotate(-73.25)"></rect>
  <rect class="cls-7" x="37.08" y="42.97" width="1.69" height="1.69" transform="translate(-14.96 67.51) rotate(-73.25)"></rect>
  <rect class="cls-7" x="39.19" y="41.5" width="1.69" height="1.69" transform="translate(-12.05 68.49) rotate(-73.25)"></rect>
  <rect class="cls-7" x="41.3" y="40.07" width="1.69" height="1.69" transform="translate(-9.18 69.48) rotate(-73.25)"></rect>
  <rect class="cls-7" x="43.41" y="38.43" width="1.69" height="1.69" transform="translate(-6.11 70.33) rotate(-73.25)"></rect>
  <rect class="cls-7" x="56.34" y="38.55" width="1.69" height="1.69" transform="translate(2.99 82.8) rotate(-73.25)"></rect>
  <rect class="cls-7" x="58.45" y="37.02" width="1.69" height="1.69" transform="translate(5.94 83.74) rotate(-73.25)"></rect>
  <rect class="cls-7" x="60.66" y="35.92" width="1.69" height="1.69" transform="translate(8.58 85.07) rotate(-73.25)"></rect>
  <rect class="cls-7" x="63.7" y="34.65" width="1.69" height="1.69" transform="translate(11.96 87.07) rotate(-73.25)"></rect>
  <rect class="cls-7" x="64.48" y="32.5" width="1.69" height="1.69" transform="translate(14.58 86.29) rotate(-73.25)"></rect>
  <rect class="cls-7" x="65.15" y="30.39" width="1.69" height="1.69" transform="translate(17.07 85.43) rotate(-73.25)"></rect>
  <rect class="cls-7" x="65.62" y="28.28" width="1.69" height="1.69" transform="translate(19.42 84.38) rotate(-73.25)"></rect>
  <rect class="cls-7" x="66.2" y="26.18" width="1.69" height="1.69" transform="translate(21.85 83.44) rotate(-73.25)"></rect>
  <rect class="cls-7" x="67.25" y="31.11" width="1.69" height="1.69" transform="translate(17.88 87.95) rotate(-73.25)"></rect>
  <rect class="cls-7" x="63.08" y="36.78" width="1.69" height="1.69" transform="translate(9.48 88) rotate(-73.25)"></rect>
  <rect class="cls-7" x="62.77" y="38.88" width="1.69" height="1.69" transform="translate(7.24 89.2) rotate(-73.25)"></rect>
  <rect class="cls-7" x="62.03" y="40.99" width="1.69" height="1.69" transform="translate(4.69 89.99) rotate(-73.25)"></rect>
  <rect class="cls-7" x="63.28" y="43.21" width="1.69" height="1.69" transform="translate(3.46 92.77) rotate(-73.25)"></rect>
  <rect class="cls-7" x="65.54" y="43.54" width="1.69" height="1.69" transform="translate(4.75 95.16) rotate(-73.25)"></rect>
  <rect class="cls-7" x="68.03" y="43.27" width="1.69" height="1.69" transform="translate(6.79 97.36) rotate(-73.25)"></rect>
  <rect class="cls-7" x="70.42" y="42.65" width="1.69" height="1.69" transform="translate(9.09 99.21) rotate(-73.25)"></rect>
  <rect class="cls-7" x="72.74" y="41.2" width="1.69" height="1.69" transform="translate(12.13 100.39) rotate(-73.25)"></rect>
  <rect class="cls-7" x="74.58" y="39.4" width="1.69" height="1.69" transform="translate(15.15 100.88) rotate(-73.25)"></rect>
  <rect class="cls-7" x="76.41" y="37.76" width="1.69" height="1.69" transform="translate(18.03 101.47) rotate(-73.25)"></rect>
  <rect class="cls-7" x="77.74" y="36.03" width="1.69" height="1.69" transform="translate(20.63 101.5) rotate(-73.25)"></rect>
  <rect class="cls-7" x="79.5" y="34.18" width="1.69" height="1.69" transform="translate(23.66 101.87) rotate(-73.25)"></rect>
  <rect class="cls-7" x="81.8" y="34.82" width="1.69" height="1.69" transform="translate(24.68 104.53) rotate(-73.25)"></rect>
  <rect class="cls-7" x="85.29" y="33.92" width="1.69" height="1.69" transform="translate(28.02 107.23) rotate(-73.25)"></rect>
  <rect class="cls-7" x="83.91" y="35.66" width="1.69" height="1.69" transform="translate(25.38 107.15) rotate(-73.25)"></rect>
  <rect class="cls-7" x="83.78" y="37.81" width="1.69" height="1.69" transform="translate(23.23 108.56) rotate(-73.25)"></rect>
  <rect class="cls-7" x="83.13" y="39.91" width="1.69" height="1.69" transform="translate(20.75 109.42) rotate(-73.25)"></rect>
  <rect class="cls-7" x="82.32" y="42.02" width="1.69" height="1.69" transform="translate(18.16 110.15) rotate(-73.25)"></rect>
  <rect class="cls-7" x="84.3" y="43.54" width="1.69" height="1.69" transform="translate(18.11 113.13) rotate(-73.25)"></rect>
  <rect class="cls-7" x="86.95" y="43.25" width="1.69" height="1.69" transform="translate(20.27 115.46) rotate(-73.25)"></rect>
  <rect class="cls-7" x="88.62" y="41.7" width="1.69" height="1.69" transform="translate(22.95 115.96) rotate(-73.25)"></rect>
  <rect class="cls-7" x="90.98" y="40.65" width="1.69" height="1.69" transform="translate(25.63 117.46) rotate(-73.25)"></rect>
  <rect class="cls-7" x="92.84" y="39.08" width="1.69" height="1.69" transform="translate(28.45 118.13) rotate(-73.25)"></rect>
  <rect class="cls-7" x="94.56" y="37.49" width="1.69" height="1.69" transform="translate(31.21 118.65) rotate(-73.25)"></rect>
  <rect class="cls-7" x="96.81" y="36.24" width="1.69" height="1.69" transform="translate(34.01 119.91) rotate(-73.25)"></rect>
  <rect class="cls-7" x="99.16" y="35.07" width="1.69" height="1.69" transform="translate(36.79 121.33) rotate(-73.25)"></rect>
  <rect class="cls-7" x="100.8" y="33.12" width="1.69" height="1.69" transform="translate(39.83 121.51) rotate(-73.25)"></rect>
  <rect class="cls-7" x="102.9" y="33.12" width="1.69" height="1.69" transform="translate(41.33 123.53) rotate(-73.25)"></rect>
  <rect class="cls-7" x="104.9" y="34.57" width="1.69" height="1.69" transform="translate(41.36 126.47) rotate(-73.25)"></rect>
  <rect class="cls-7" x="104.56" y="36.68" width="1.69" height="1.69" transform="translate(39.1 127.64) rotate(-73.25)"></rect>
  <rect class="cls-7" x="102.79" y="38.28" width="1.69" height="1.69" transform="translate(36.31 127.09) rotate(-73.25)"></rect>
  <rect class="cls-7" x="100.75" y="39.85" width="1.69" height="1.69" transform="translate(33.35 126.26) rotate(-73.25)"></rect>
  <rect class="cls-7" x="98.91" y="37.38" width="1.69" height="1.69" transform="translate(34.41 122.74) rotate(-73.25)"></rect>
  <rect class="cls-7" x="98.56" y="39.59" width="1.69" height="1.69" transform="translate(32.04 123.98) rotate(-73.25)"></rect>
  <rect class="cls-7" x="98.91" y="41.93" width="1.69" height="1.69" transform="translate(30.05 125.98) rotate(-73.25)"></rect>
  <rect class="cls-7" x="100.73" y="43.25" width="1.69" height="1.69" transform="translate(30.08 128.65) rotate(-73.25)"></rect>
  <rect class="cls-7" x="103.08" y="42.51" width="1.69" height="1.69" transform="translate(32.47 130.38) rotate(-73.25)"></rect>
  <rect class="cls-7" x="105.43" y="41.14" width="1.69" height="1.69" transform="translate(35.45 131.66) rotate(-73.25)"></rect>
  <rect class="cls-7" x="107.35" y="39.53" width="1.69" height="1.69" transform="translate(38.36 132.35) rotate(-73.25)"></rect>
  <rect class="cls-7" x="109.19" y="38.03" width="1.69" height="1.69" transform="translate(41.11 133.05) rotate(-73.25)"></rect>
  <rect class="cls-7" x="111.24" y="36.68" width="1.69" height="1.69" transform="translate(43.86 134.05) rotate(-73.25)"></rect>
  <rect class="cls-7" x="113.1" y="35.17" width="1.69" height="1.69" transform="translate(46.63 134.75) rotate(-73.25)"></rect>
  <rect class="cls-7" x="115.45" y="33.88" width="1.69" height="1.69" transform="translate(49.53 136.09) rotate(-73.25)"></rect>
  <rect class="cls-7" x="116.11" y="36.24" width="1.69" height="1.69" transform="translate(47.75 138.39) rotate(-73.25)"></rect>
  <rect class="cls-7" x="117.78" y="38.03" width="1.69" height="1.69" transform="translate(47.22 141.27) rotate(-73.25)"></rect>
  <rect class="cls-7" x="117.78" y="40.4" width="1.69" height="1.69" transform="translate(44.95 142.96) rotate(-73.25)"></rect>
  <rect class="cls-7" x="118.03" y="43" width="1.69" height="1.69" transform="translate(42.64 145.05) rotate(-73.25)"></rect>
  <rect class="cls-7" x="115.68" y="43.25" width="1.69" height="1.69" transform="translate(40.73 142.97) rotate(-73.25)"></rect>
  <rect class="cls-7" x="113.34" y="42.75" width="1.69" height="1.69" transform="translate(39.54 140.38) rotate(-73.25)"></rect>
  <rect class="cls-7" x="120.14" y="40.89" width="1.69" height="1.69" transform="translate(46.16 145.57) rotate(-73.25)"></rect>
  <rect class="cls-7" x="122.53" y="39.53" width="1.69" height="1.69" transform="translate(49.17 146.89) rotate(-73.25)"></rect>
  <rect class="cls-7" x="124.64" y="37.98" width="1.69" height="1.69" transform="translate(52.15 147.8) rotate(-73.25)"></rect>
  <rect class="cls-7" x="126.75" y="36.5" width="1.69" height="1.69" transform="translate(55.07 148.76) rotate(-73.25)"></rect>
  <rect class="cls-7" x="128.57" y="34.69" width="1.69" height="1.69" transform="translate(58.1 149.22) rotate(-73.25)"></rect>
  <rect class="cls-7" x="137.57" y="39.53" width="1.69" height="1.69" transform="translate(59.87 161.29) rotate(-73.25)"></rect>
  <rect class="cls-7" x="139.95" y="39.59" width="1.69" height="1.69" transform="translate(61.5 163.61) rotate(-73.25)"></rect>
  <rect class="cls-7" x="141.78" y="37.78" width="1.69" height="1.69" transform="translate(64.54 164.08) rotate(-73.25)"></rect>
  <rect class="cls-7" x="143.76" y="36.22" width="1.69" height="1.69" transform="translate(67.44 164.86) rotate(-73.25)"></rect>
  <rect class="cls-7" x="145.87" y="34.72" width="1.69" height="1.69" transform="translate(70.38 165.8) rotate(-73.25)"></rect>
  <rect class="cls-7" x="147.9" y="33.22" width="1.69" height="1.69" transform="translate(73.26 166.69) rotate(-73.25)"></rect>
  <rect class="cls-7" x="150" y="34.1" width="1.69" height="1.69" transform="translate(73.92 169.33) rotate(-73.25)"></rect>
  <rect class="cls-7" x="152.11" y="34.94" width="1.69" height="1.69" transform="translate(74.62 171.94) rotate(-73.25)"></rect>
  <rect class="cls-7" x="153.73" y="33.05" width="1.69" height="1.69" transform="translate(77.58 172.15) rotate(-73.25)"></rect>
  <rect class="cls-7" x="152" y="37.49" width="1.69" height="1.69" transform="translate(72.1 173.65) rotate(-73.25)"></rect>
  <rect class="cls-7" x="151.49" y="39.82" width="1.69" height="1.69" transform="translate(69.5 174.83) rotate(-73.25)"></rect>
  <rect class="cls-7" x="151.06" y="42.13" width="1.69" height="1.69" transform="translate(66.98 176.05) rotate(-73.25)"></rect>
  <rect class="cls-7" x="152.92" y="43.49" width="1.69" height="1.69" transform="translate(67 178.81) rotate(-73.25)"></rect>
  <rect class="cls-7" x="155.25" y="42.98" width="1.69" height="1.69" transform="translate(69.15 180.68) rotate(-73.25)"></rect>
  <rect class="cls-7" x="157.36" y="41.54" width="1.69" height="1.69" transform="translate(72.03 181.67) rotate(-73.25)"></rect>
  <rect class="cls-7" x="159.46" y="40.02" width="1.69" height="1.69" transform="translate(74.98 182.61) rotate(-73.25)"></rect>
  <rect class="cls-7" x="161.57" y="38.54" width="1.69" height="1.69" transform="translate(77.91 183.57) rotate(-73.25)"></rect>
  <rect class="cls-7" x="102.54" y="29.06" width="1.69" height="1.69" transform="translate(44.96 120.29) rotate(-73.25)"></rect>
  <rect class="cls-7" x="104.89" y="27.59" width="1.69" height="1.69" transform="translate(48.04 121.5) rotate(-73.25)"></rect>
  <rect class="cls-7" x="131.49" y="33.88" width="1.69" height="1.69" transform="translate(60.95 151.45) rotate(-73.25)"></rect>
  <rect class="cls-7" x="134.14" y="33.05" width="1.69" height="1.69" transform="translate(63.64 153.39) rotate(-73.25)"></rect>
  <rect class="cls-7" x="136.25" y="34.12" width="1.69" height="1.69" transform="translate(64.11 156.17) rotate(-73.25)"></rect>
  <rect class="cls-7" x="135.82" y="36.5" width="1.69" height="1.69" transform="translate(61.53 157.45) rotate(-73.25)"></rect>
  <rect class="cls-7" x="130.44" y="35.99" width="1.69" height="1.69" transform="translate(58.19 151.94) rotate(-73.25)"></rect>
  <rect class="cls-7" x="129.68" y="38.19" width="1.69" height="1.69" transform="translate(55.54 152.77) rotate(-73.25)"></rect>
  <rect class="cls-7" x="135.2" y="38.97" width="1.69" height="1.69" transform="translate(58.72 158.62) rotate(-73.25)"></rect>
  <rect class="cls-7" x="129.1" y="40.3" width="1.69" height="1.69" transform="translate(53.1 153.73) rotate(-73.25)"></rect>
  <rect class="cls-7" x="130.46" y="42.65" width="1.69" height="1.69" transform="translate(51.82 156.7) rotate(-73.25)"></rect>
  <rect class="cls-7" x="132.72" y="43.25" width="1.69" height="1.69" transform="translate(52.86 159.29) rotate(-73.25)"></rect>
  <rect class="cls-7" x="134.39" y="41.35" width="1.69" height="1.69" transform="translate(55.86 159.54) rotate(-73.25)"></rect>
</svg>
