<?xml version="1.0" encoding="UTF-8"?>
<svg xmlns="http://www.w3.org/2000/svg" id="RC_NOUVEAU" data-name="RC NOUVEAU" viewBox="0 0 180 80">
  <defs>
    <style>
      .cls-1 {
        fill: #f8af35;
      }

      .cls-2 {
        fill: #fff;
      }

      .cls-3 {
        fill: #1d1d1b;
      }
    </style>
  </defs>
  <rect class="cls-3" x="-3.61" y="-1.5" width="190.43" height="85.7"></rect>
  <g>
    <path class="cls-1" d="m38.61,19.06H15.24v-4.48h23.37v4.48Zm0,46.23H15.24v-4.48h23.37v4.48Zm-.06-17.9c-.77.35-1.86.56-2.66.56-2.49,0-4.8-2.63-7.04-4.8,3.82-.6,6.72-3.43,6.72-7.39,0-5.85-4.8-7.74-9.49-7.74h-10.47v4.27h11c2.24,0,3.85,1.23,3.85,3.57,0,2.21-1.61,3.54-3.85,3.54h-11v12.43h4.9v-8.58h2.38c2.98,2.21,6.9,8.93,12.22,8.93,1.54,0,2.94-.42,3.92-.91l-.49-3.89Z"></path>
    <path class="cls-2" d="m53.44,14.57h11.51c5,0,8.2,3.59,8.2,8.83,0,4.18-2.56,7.25-6.07,8.08,2.09,2.4,4.18,5.24,6.42,5.24.63,0,1.58-.24,2.25-.59l.59,4.61c-.94.55-2.72,1.02-4.26,1.02-5.44,0-9.06-8-12.02-10.05h-.79v9.65h-5.83V14.57Zm5.83,12.69h4.22c2.25,0,3.74-1.46,3.74-3.78,0-2.48-1.5-3.82-3.74-3.82h-4.22v7.6Z"></path>
    <polygon class="cls-2" points="80 41.37 80 14.57 98.44 14.57 98.44 19.69 85.59 19.69 85.59 25.17 96 25.17 96 30.13 85.59 30.13 85.59 36.28 98.44 36.28 98.44 41.37 80 41.37"></polygon>
    <rect class="cls-2" x="103.88" y="22.59" width="5.83" height="18.78"></rect>
    <rect class="cls-2" x="103.88" y="14.58" width="5.83" height="5.08"></rect>
    <polygon class="cls-2" points="136.82 24.26 130.08 34.23 129.1 34.23 122.32 24.26 122.32 41.37 116.49 41.37 116.49 14.57 122.08 14.57 129.57 25.6 137.06 14.57 142.65 14.57 142.65 41.37 136.82 41.37 136.82 24.26"></polygon>
    <path class="cls-2" d="m149.74,34.35c1.73,1.18,4.06,2.17,6.5,2.17,2.05,0,3.74-.87,3.74-2.96,0-1.46-.87-2.17-2.88-2.84l-3.78-1.22c-3.47-1.18-5.28-3.47-5.28-7.09,0-4.53,3.39-8.2,9.46-8.2,3.15,0,6.3.87,8.12,1.89l-1.61,5.08c-1.73-1.1-4.22-1.77-6.27-1.77-2.64,0-3.94.98-3.94,2.6,0,1.42.79,2.13,2.25,2.6l3.86,1.34c4.18,1.46,6.07,3.7,6.07,7.25,0,4.85-3.55,8.55-9.38,8.55-3.35,0-6.62-1.18-8.2-2.09l1.34-5.32Z"></path>
    <path class="cls-2" d="m69.17,63.01c-1.5,1.47-4.07,2.83-6.84,2.83-4.94,0-8.66-3.75-8.66-10.08s3.73-10.14,8.66-10.14c4.3,0,6.73,2.25,6.81,6.84l-3.84.75c-.06-2.51-1.13-3.64-3.15-3.64-2.51,0-4.13,2.25-4.13,6.18s1.73,6.12,4.68,6.12c1.79,0,3.61-1.24,4.79-2.4l1.67,3.52Z"></path>
    <path class="cls-2" d="m77.14,45.92h4.97l6.26,19.63h-4.24l-1.1-3.84h-6.93l-1.13,3.84h-4.24l6.41-19.63Zm.03,12.65h4.82l-2.37-8.4-2.45,8.4Z"></path>
    <polygon class="cls-2" points="106.15 53.02 101.22 60.33 100.49 60.33 95.53 53.02 95.53 65.55 91.26 65.55 91.26 45.92 95.35 45.92 100.84 54 106.33 45.92 110.43 45.92 110.43 65.55 106.15 65.55 106.15 53.02"></polygon>
    <path class="cls-2" d="m115.42,45.92h8.37c3.32,0,6.21,2.25,6.21,7.19,0,4.45-2.89,7.07-6.21,7.07h-4.1v5.37h-4.27v-19.63Zm4.27,3.72v6.81h3.18c1.56,0,2.77-1.3,2.77-3.38,0-2.22-1.21-3.44-2.77-3.44h-3.18Z"></path>
    <path class="cls-2" d="m137.54,57.33c0,3.03,1.07,4.59,3.49,4.59s3.55-1.67,3.55-4.62v-11.38h4.27v11.69c0,4.62-2.37,8.26-7.82,8.26s-7.77-3.26-7.77-8.26v-11.69h4.27v11.41Z"></path>
    <path class="cls-2" d="m153.85,60.41c1.27.87,2.97,1.59,4.76,1.59,1.5,0,2.74-.63,2.74-2.17,0-1.07-.63-1.59-2.11-2.08l-2.77-.9c-2.54-.87-3.87-2.54-3.87-5.2,0-3.32,2.48-6.01,6.93-6.01,2.31,0,4.62.64,5.95,1.39l-1.18,3.72c-1.27-.81-3.09-1.3-4.59-1.3-1.94,0-2.89.72-2.89,1.91,0,1.04.58,1.56,1.65,1.91l2.83.98c3.06,1.07,4.45,2.71,4.45,5.31,0,3.55-2.6,6.26-6.87,6.26-2.45,0-4.85-.87-6.01-1.53l.98-3.9Z"></path>
  </g>
</svg>
