<?xml version="1.0" encoding="UTF-8"?>
<svg xmlns="http://www.w3.org/2000/svg" xmlns:xlink="http://www.w3.org/1999/xlink" id="BIBLIOTHEQUES" viewBox="0 0 180 80">
  <defs>
    <style>
      .cls-1 {
        fill: #fff;
      }

      .cls-2 {
        fill: #017cb6;
      }

      .cls-3 {
        fill: url(#Dégradé_sans_nom_17);
      }

      .cls-4 {
        fill: #009cd2;
      }

      .cls-5 {
        fill: url(#linear-gradient);
      }
    </style>
    <linearGradient id="Dégradé_sans_nom_17" data-name="Dégradé sans nom 17" x1="70.14" y1="31.96" x2="100.43" y2="10.75" gradientUnits="userSpaceOnUse">
      <stop offset="0" stop-color="#0c78b8"></stop>
      <stop offset=".45" stop-color="#21b4e4"></stop>
      <stop offset=".55" stop-color="#21b3dc"></stop>
      <stop offset=".71" stop-color="#24b1c6"></stop>
      <stop offset=".9" stop-color="#27aea3"></stop>
      <stop offset="1" stop-color="#2aad8f"></stop>
    </linearGradient>
    <linearGradient id="linear-gradient" x1="67.77" y1="67.76" x2="106.53" y2="67.76" gradientUnits="userSpaceOnUse">
      <stop offset="0" stop-color="#3bbae7"></stop>
      <stop offset="1" stop-color="#3876b6"></stop>
    </linearGradient>
  </defs>
  <path class="cls-3" d="m89.58,3.74c3.14,0,5.82,1.11,8.04,3.32,2.22,2.22,3.33,4.89,3.33,8.01,0,1.81-.37,3.47-1.1,4.96,2.03,2.17,3.05,4.77,3.05,7.79s-1.11,5.78-3.33,8c-2.22,2.22-4.9,3.33-8.04,3.33h-16.36V3.74h14.41Z"></path>
  <g>
    <path class="cls-2" d="m66.98,54.47v-8.76h1.32c.59,0,1.05.05,1.4.14.35.09.65.24.89.46.25.22.44.5.58.83.15.34.22.68.22,1.02,0,.63-.24,1.16-.72,1.59.47.16.83.44,1.1.83.27.39.41.85.41,1.37,0,.68-.24,1.26-.73,1.74-.29.29-.62.49-.98.61-.4.11-.89.16-1.49.16h-2Zm1.32-5h.41c.49,0,.85-.11,1.08-.33.23-.22.34-.54.34-.96s-.12-.72-.35-.94c-.23-.21-.58-.32-1.02-.32h-.46v2.55Zm0,3.75h.82c.6,0,1.04-.12,1.32-.35.29-.25.44-.57.44-.96s-.14-.7-.43-.95c-.28-.25-.77-.38-1.48-.38h-.67v2.65Z"></path>
    <path class="cls-2" d="m76.33,45.72v8.76h-1.32v-8.76h1.32Z"></path>
    <path class="cls-2" d="m79.59,54.47v-8.76h1.32c.59,0,1.05.05,1.4.14.35.09.65.24.89.46.25.22.44.5.58.83.15.34.22.68.22,1.02,0,.63-.24,1.16-.72,1.59.47.16.83.44,1.1.83.27.39.41.85.41,1.37,0,.68-.24,1.26-.73,1.74-.29.29-.62.49-.98.61-.4.11-.89.16-1.49.16h-2Zm1.32-5h.41c.49,0,.85-.11,1.08-.33.23-.22.34-.54.34-.96s-.12-.72-.35-.94c-.23-.21-.58-.32-1.02-.32h-.46v2.55Zm0,3.75h.82c.6,0,1.04-.12,1.32-.35.29-.25.44-.57.44-.96s-.14-.7-.43-.95c-.28-.25-.77-.38-1.48-.38h-.67v2.65Z"></path>
    <path class="cls-2" d="m88.95,45.72v7.51h2.57v1.24h-3.9v-8.76h1.32Z"></path>
    <path class="cls-2" d="m95.26,45.72v8.76h-1.32v-8.76h1.32Z"></path>
    <path class="cls-2" d="m98.09,50.06c0-1.23.45-2.29,1.36-3.18.9-.88,1.98-1.33,3.24-1.33s2.32.45,3.21,1.34c.9.89,1.34,1.96,1.34,3.22s-.45,2.33-1.35,3.2c-.9.88-1.99,1.32-3.27,1.32-1.13,0-2.15-.39-3.05-1.17-.99-.87-1.49-2-1.49-3.4Zm1.33.02c0,.97.33,1.76.98,2.39.65.62,1.39.94,2.24.94.92,0,1.69-.32,2.33-.95.63-.64.95-1.43.95-2.35s-.31-1.72-.94-2.35c-.62-.64-1.39-.95-2.3-.95s-1.68.32-2.31.95c-.63.63-.94,1.4-.94,2.33Z"></path>
    <path class="cls-2" d="m69.08,58.72v5.05h-.89v-5.05h-1.35v-.83h3.59v.83h-1.35Z"></path>
    <path class="cls-2" d="m72.89,60.19h2.54v-2.3h.89v5.88h-.89v-2.75h-2.54v2.75h-.89v-5.88h.89v2.3Z"></path>
    <path class="cls-2" d="m81.75,58.72h-2.36v1.41h2.29v.83h-2.29v1.97h2.36v.83h-3.25v-5.88h3.25v.83Zm-2.78-2.42l.75-.53,1.22,1.23-.42.35-1.55-1.05Z"></path>
    <path class="cls-2" d="m89.68,63.87h-1.12l-.46-.47c-.49.31-1.04.47-1.64.47-.78,0-1.47-.26-2.08-.79-.66-.58-.99-1.32-.99-2.23s.31-1.63.93-2.22c.6-.57,1.32-.86,2.14-.86.75,0,1.42.25,2.01.75.71.6,1.07,1.39,1.07,2.37,0,.76-.28,1.44-.84,2.03l.97.95Zm-2.44-2.43l.85.85c.38-.39.56-.87.56-1.45,0-.63-.21-1.16-.63-1.59-.42-.43-.94-.64-1.56-.64s-1.15.21-1.55.64c-.41.42-.61.96-.61,1.61s.21,1.15.63,1.56c.44.42.94.63,1.51.63.38,0,.73-.09,1.04-.26l-1.38-1.34h1.15Z"></path>
    <path class="cls-2" d="m92.34,57.88v3.54c0,.51.08.88.25,1.11.25.34.59.51,1.04.51s.8-.17,1.04-.51c.17-.23.25-.6.25-1.11v-3.54h.89v3.79c0,.62-.19,1.13-.58,1.53-.43.45-.97.67-1.6.67s-1.16-.22-1.6-.67c-.39-.4-.58-.91-.58-1.53v-3.79h.89Z"></path>
    <path class="cls-2" d="m101.24,58.72h-2.36v1.41h2.29v.83h-2.29v1.97h2.36v.83h-3.25v-5.88h3.25v.83Z"></path>
    <path class="cls-2" d="m106.51,58.76l-.72.43c-.13-.23-.26-.39-.38-.46-.13-.08-.29-.12-.49-.12-.25,0-.45.07-.61.21-.16.14-.24.31-.24.52,0,.29.21.52.64.69l.59.24c.48.19.83.43,1.05.71.22.28.33.62.33,1.02,0,.54-.18.99-.54,1.34-.36.36-.81.53-1.35.53s-.93-.15-1.27-.45c-.33-.3-.53-.73-.61-1.28l.9-.2c.04.35.11.58.21.72.18.25.45.38.8.38.28,0,.51-.09.69-.28.18-.19.27-.42.27-.7,0-.11-.02-.22-.05-.31-.03-.1-.08-.18-.15-.26-.07-.08-.15-.15-.26-.22-.11-.07-.23-.14-.38-.2l-.57-.24c-.81-.34-1.21-.84-1.21-1.49,0-.44.17-.81.51-1.11.34-.3.76-.45,1.26-.45.68,0,1.21.33,1.59.99Z"></path>
  </g>
  <g>
    <path class="cls-4" d="m80.78,75.59h-.32l-1.43-2.07h-.14v2.07h-.28v-4.38h.55c.35,0,.7,0,1,.22.31.22.44.57.44.94,0,.76-.53,1.16-1.25,1.14l1.43,2.07Zm-1.53-2.33c.27,0,.55-.01.77-.2.21-.17.31-.43.31-.69,0-.32-.15-.65-.46-.79-.23-.11-.53-.1-.78-.1h-.18v1.78h.35Z"></path>
    <path class="cls-4" d="m82.31,71.48v1.59h1.76v.26h-1.76v2h1.81v.26h-2.09v-4.38h2.09v.26h-1.81Z"></path>
    <path class="cls-4" d="m85.83,75.59h-.28v-4.38h.28v4.38Z"></path>
    <path class="cls-4" d="m91.02,71.97h-.01l-1.53,3.77-1.52-3.77h-.01l-.75,3.62h-.27l.94-4.52,1.61,3.98,1.61-3.98.94,4.52h-.27l-.75-3.62Z"></path>
    <path class="cls-4" d="m95.17,71.94c-.2-.31-.48-.52-.89-.52-.47,0-.82.38-.82.84s.44.65.79.82l.84.44c.33.21.5.48.5.87,0,.73-.66,1.27-1.37,1.27-.61,0-1.09-.38-1.29-.94l.24-.11c.19.46.53.79,1.06.79.57,0,1.08-.45,1.08-1.03,0-.49-.5-.7-.88-.89l-.79-.42c-.29-.18-.45-.44-.45-.78,0-.65.46-1.11,1.12-1.11.44,0,.86.24,1.07.62l-.2.16Z"></path>
  </g>
  <rect class="cls-5" x="67.77" y="67.45" width="38.77" height=".62"></rect>
  <path class="cls-1" d="m89.97,13.68c-.09,2.06-1.84,3.66-3.9,3.57-2.06-.09-3.66-1.84-3.57-3.9.09-2.06,1.84-3.66,3.9-3.57,2.06.09,3.66,1.84,3.57,3.9Z"></path>
  <path class="cls-1" d="m92.42,27.09c-.07,1.45-1.3,2.58-2.75,2.52-1.45-.07-2.58-1.3-2.52-2.75.07-1.46,1.3-2.58,2.75-2.52,1.45.07,2.58,1.3,2.51,2.75Z"></path>
  <rect class="cls-1" x="85.75" y="10.44" width="1.4" height="28.71"></rect>
</svg>
