<?xml version="1.0" encoding="UTF-8"?>
<svg xmlns="http://www.w3.org/2000/svg" id="Legend_r" data-name="Legend&amp;apos;r" viewBox="0 0 180 80">
  <defs>
    <style>
      .cls-1 {
        fill: #3d378d;
      }

      .cls-2 {
        fill: #fdeede;
      }

      .cls-3 {
        fill: #fdeedd;
      }

      .cls-4 {
        fill: #f9b036;
      }
    </style>
  </defs>
  <rect class="cls-1" x="-10.17" y="-9.83" width="201.91" height="101.22"></rect>
  <g>
    <path class="cls-4" d="m25.69,54.13v-17.08h3.52v14.01h8.87v3.06h-12.38Z"></path>
    <path class="cls-4" d="m41.26,54.13v-17.08h13.51v3.09h-10.15v3.69h8.31v3.09h-8.31v4.12h10.15v3.09h-13.51Z"></path>
    <path class="cls-4" d="m73.77,44.04v8.01c-1.58,1.26-4.67,2.34-7.28,2.34-5.05,0-9.09-3.26-9.09-8.76s4.04-8.82,9.09-8.82c2.76,0,4.92.93,6.63,2.31l-1.63,2.69c-1.33-1.11-2.91-1.73-4.92-1.73-3.11,0-5.53,2.01-5.53,5.55s2.41,5.5,5.68,5.5c1.36,0,2.61-.35,3.54-.9v-3.14h-4.5v-3.04h8.01Z"></path>
    <path class="cls-4" d="m78.09,54.13v-17.08h13.51v3.09h-10.15v3.69h8.31v3.09h-8.31v4.12h10.15v3.09h-13.51Z"></path>
    <path class="cls-4" d="m99.18,42.66v11.48h-3.52v-17.08h3.06l9.59,11.5v-11.5h3.52v17.08h-3.06l-9.59-11.48Z"></path>
    <path class="cls-4" d="m116.82,37.05h6.84c5.05.03,8.82,3.01,8.82,8.56s-3.77,8.51-8.82,8.51h-6.84v-17.08Zm3.52,3.06v10.95h3.17c3.14,0,5.32-1.93,5.32-5.45s-2.18-5.5-5.32-5.5h-3.17Z"></path>
    <polygon class="cls-4" points="48.48 37.88 45.51 37.88 47.87 34.06 51.36 34.06 48.48 37.88"></polygon>
    <g>
      <path class="cls-2" d="m45.21,63.99v-4.53h1.12v3.56h2.25v.97h-3.37Z"></path>
      <path class="cls-2" d="m53.34,59.47h1.31l1.72,4.53h-1.13l-.31-.83h-1.9l-.31.83h-1.13l1.75-4.53Zm-.03,2.88h1.34l-.65-1.77-.69,1.77Z"></path>
      <path class="cls-2" d="m68.26,63.33c-.41.39-1.11.73-1.86.73-1.34,0-2.34-.87-2.34-2.32s1.01-2.34,2.34-2.34c1.17,0,1.82.65,1.85,1.71l-1.03.21c0-.55-.26-.89-.84-.89-.69,0-1.17.47-1.17,1.31s.48,1.29,1.21,1.29c.53,0,.99-.24,1.31-.53l.52.83Z"></path>
      <path class="cls-2" d="m75.25,62.19h-2.14v1.8h-1.12v-4.53h1.12v1.75h2.14v-1.75h1.12v4.53h-1.12v-1.8Z"></path>
      <path class="cls-2" d="m81.59,59.47h1.31l1.72,4.53h-1.13l-.31-.83h-1.9l-.31.83h-1.13l1.75-4.53Zm-.03,2.88h1.34l-.65-1.77-.69,1.77Z"></path>
      <path class="cls-2" d="m92.15,61.22l-1.37,1.64h-.19l-1.36-1.64v2.77h-1.12v-4.53h.97l1.61,1.89,1.61-1.89h.97v4.53h-1.12v-2.77Z"></path>
      <path class="cls-2" d="m97.3,59.47h2.25c.9,0,1.67.53,1.67,1.68,0,1.03-.77,1.65-1.67,1.65h-1.13v1.2h-1.12v-4.53Zm1.12.97v1.39h.95c.39,0,.69-.27.69-.69,0-.44-.3-.7-.69-.7h-.95Z"></path>
      <path class="cls-2" d="m105.89,59.47h1.31l1.72,4.53h-1.13l-.31-.83h-1.9l-.31.83h-1.13l1.75-4.53Zm-.03,2.88h1.34l-.65-1.77-.69,1.77Z"></path>
      <path class="cls-2" d="m116.42,61.32v2.11c-.42.34-1.26.63-1.95.63-1.34,0-2.41-.87-2.41-2.32s1.07-2.34,2.41-2.34c.73,0,1.33.25,1.78.61l-.51.85c-.34-.27-.74-.42-1.24-.42-.73,0-1.28.47-1.28,1.31s.55,1.29,1.33,1.29c.29,0,.59-.07.82-.19v-.67h-1.09v-.85h2.14Z"></path>
      <path class="cls-2" d="m121.39,61.24v2.75h-1.12v-4.53h.97l2.28,2.75v-2.75h1.12v4.53h-.97l-2.28-2.75Z"></path>
      <path class="cls-2" d="m128.68,63.99v-4.53h3.64v.97h-2.57v.78h2.08v.94h-2.08v.87h2.57v.97h-3.64Z"></path>
    </g>
    <g>
      <path class="cls-4" d="m155.31,60.34v2.76h-16.38v-2.76h16.38Z"></path>
      <path class="cls-4" d="m132.76,37h3.51v3.16h-3.51v-3.16Z"></path>
      <path class="cls-4" d="m155.53,50.94c-.55.25-1.33.4-1.91.4-1.78,0-3.44-1.88-5.05-3.44,2.74-.43,4.82-2.46,4.82-5.3,0-4.19-3.44-5.55-6.81-5.55h-7.51v3.06h7.89c1.61,0,2.76.88,2.76,2.56,0,1.58-1.16,2.54-2.76,2.54h-7.89v8.92h3.52v-6.15h1.71c2.14,1.58,4.95,6.4,8.77,6.4,1.11,0,2.11-.3,2.81-.65l-.35-2.79Z"></path>
    </g>
    <g>
      <g>
        <path class="cls-3" d="m68.79,14.65h7.51c3.37,0,6.81,1.36,6.81,5.55,0,2.84-2.08,4.87-4.82,5.3,1.61,1.56,3.27,3.44,5.05,3.44.58,0,1.36-.15,1.91-.4l.35,2.79c-.7.35-1.71.65-2.81.65-3.82,0-6.63-4.82-8.77-6.4h-1.71v6.15h-3.52V14.65Zm3.52,3.06v5.1h4.37c1.61,0,2.76-.95,2.76-2.54,0-1.68-1.16-2.56-2.76-2.56h-4.37Z"></path>
        <path class="cls-3" d="m89.49,31.73V14.65h13.51v3.09h-10.15v3.69h8.31v3.09h-8.31v4.12h10.15v3.09h-13.51Z"></path>
        <path class="cls-3" d="m108.16,20.12h3.69v11.61h-3.69v-11.61Z"></path>
        <path class="cls-3" d="m108.01,14.58h3.99v3.33h-3.99v-3.33Z"></path>
        <path class="cls-3" d="m132.76,20.2l-5.73,6.88h-.63l-5.7-6.88v11.53h-3.52V14.65h3.16l6.38,7.61,6.38-7.61h3.16v17.08h-3.52v-11.53Z"></path>
        <path class="cls-3" d="m144.89,24.17c-2.59-.68-3.92-2.26-3.92-4.57,0-2.84,2.13-5.17,6.83-5.17,2.46,0,4.82.65,6.13,1.36l-1,3.29c-1.26-.8-3.39-1.43-5.25-1.43-2.16,0-3.06.68-3.06,1.66s.63,1.31,1.86,1.66l3.16.9c3.09.88,4.6,2.29,4.6,4.72,0,3.21-2.84,5.4-6.96,5.4-2.49,0-4.92-.85-6.03-1.48l.83-3.34c1.23.8,3.21,1.61,5.27,1.61s3.21-.78,3.21-1.91c0-.93-.9-1.38-2.44-1.81l-3.24-.88Z"></path>
      </g>
      <path class="cls-3" d="m62.57,21.73v2.76h-16.38v-2.76h16.38Z"></path>
    </g>
  </g>
</svg>
