<?xml version="1.0" encoding="UTF-8"?>
<svg xmlns="http://www.w3.org/2000/svg" id="COMEDIE" viewBox="0 0 200 200">
  <defs>
    <style>
      .cls-1, .cls-2, .cls-3 {
        stroke-width: 0px;
      }

      .cls-2 {
        fill: none;
      }

      .cls-3 {
        fill: #1d1dff;
      }
    </style>
  </defs>
  <path class="cls-1" d="m86.3,122.94c0,3.02,5.61,2.39,5.61,8.42v5.65h-5.61v-14.08Z"></path>
  <path class="cls-1" d="m79.23,24.93v12.26c.5,0,5.52,0,7.52,0,6.77,0,12.26-5.49,12.26-12.26h-5.75c0,3.59-2.91,6.5-6.5,6.5-.64,0-1.28,0-1.92,0,0-6.08-5.61-5.45-5.61-8.49v1.98Z"></path>
  <g>
    <path class="cls-3" d="m52.28,163.42c2.68-2.15,6.4-1.32,8.57-3.5-1.36-1.36-2.72-2.72-4.07-4.07-1.54,1.39-3.54,2.15-5.62,2.15.37,1.8.75,3.61,1.12,5.41Z"></path>
    <polygon class="cls-1" points="61.64 179.84 52.65 179.84 52.65 185.64 62.69 185.64 62.69 190.17 47.1 190.17 47.1 165.73 62.69 165.73 62.69 170.26 52.65 170.26 52.65 175.34 61.64 175.34 61.64 179.84"></polygon>
  </g>
  <polygon class="cls-1" points="118.49 179.84 109.5 179.84 109.5 185.64 119.55 185.64 119.55 190.17 103.95 190.17 103.95 165.73 119.55 165.73 119.55 170.26 109.5 170.26 109.5 175.34 118.49 175.34 118.49 179.84"></polygon>
  <path class="cls-1" d="m31.69,31.02c-2.47.94-3.99,2.93-4.56,5.96-5.68-1.06-9.98-6.04-9.98-12.03,0-6.76,5.48-12.24,12.24-12.24,3.43,0,6.53,1.41,8.75,3.68-1.35,1.35-2.71,2.71-4.06,4.06-1.18-1.23-2.84-2-4.69-2-3.59,0-6.49,2.91-6.49,6.49s2.91,6.49,6.49,6.49c.81,0,1.59-.15,2.31-.42Z"></path>
  <path class="cls-3" d="m27.13,36.98c.73.14,1.49.21,2.26.21,3.33,0,6.35-1.33,8.55-3.49-1.35-1.35-2.71-2.71-4.06-4.06-.62.6-1.36,1.07-2.19,1.38-2.47.94-3.99,2.93-4.56,5.96Z"></path>
  <path class="cls-3" d="m93.25,24.93h5.75c0-6.77-5.48-12.22-12.25-12.22-2.01,0-7.02,0-7.52,0v10.24c0,3.04,5.61,2.41,5.61,8.49v-13.01h1.92c3.59,0,6.5,2.91,6.5,6.5Z"></path>
  <polygon class="cls-1" points="55.7 69.93 63.56 60.87 68.85 60.87 68.85 85.32 62.76 85.32 62.76 70.05 56.16 77.72 55.24 77.72 48.64 70.05 48.64 85.32 42.55 85.32 42.55 60.87 47.84 60.87 55.7 69.93"></polygon>
  <path class="cls-3" d="m91.91,131.37v-18.83h-5.61v10.4c0,3.02,5.61,2.39,5.61,8.42Z"></path>
  <path class="cls-2" d="m52.1,163.42s0,0,0,0"></path>
  <path class="cls-3" d="m41.63,124.78c0-6.76-5.48-12.24-12.24-12.24-2.49,0-4.81.74-6.74,2.02.64.97,3.65,1.79,4.5,4.12.7-.26,1.45-.4,2.24-.4,3.59,0,6.49,2.91,6.49,6.49,0,1.24,4.24,2.06,4.88,4.53.56-1.4.86-2.93.86-4.53Z"></path>
  <path class="cls-1" d="m29.39,137.02c5.16,0,9.58-3.19,11.37-7.71-.64-2.47-4.88-3.28-4.88-4.53,0,3.59-2.91,6.49-6.49,6.49s-6.49-2.91-6.49-6.49c0-2.8,1.77-5.19,4.26-6.1-.85-2.33-3.87-3.15-4.5-4.12-3.31,2.19-5.5,5.95-5.5,10.22,0,6.76,5.48,12.24,12.24,12.24Z"></path>
  <path class="cls-1" d="m172.74,90.79v3.38s5.51,0,5.51,0h5.51s0-.68,0-.68v-2.71c0-3.04-2.47-5.51-5.51-5.51s-5.51,2.47-5.51,5.51Zm8.43,0v.86s-5.85,0-5.85,0v-.86c0-1.61,1.31-2.92,2.92-2.92s2.92,1.31,2.92,2.92Z"></path>
  <path class="cls-1" d="m148.23,114.39v3.38s5.51,0,5.51,0h5.51s0-.68,0-.68v-2.71c0-3.04-2.47-5.51-5.51-5.51s-5.51,2.47-5.51,5.51Zm8.43,0v.86s-5.85,0-5.85,0v-.86c0-1.61,1.31-2.92,2.92-2.92s2.92,1.31,2.92,2.92Z"></path>
  <path class="cls-1" d="m156.73,185.05c0,1.64-1.33,2.97-2.97,2.97s-2.97-1.33-2.97-2.97c0-.84.35-1.61.92-2.15l-1.86-1.86c-1.04,1.02-1.69,2.44-1.69,4.01,0,3.1,2.51,5.61,5.61,5.61s5.61-2.51,5.61-5.61c0-1.53-.61-2.91-1.6-3.92l-1.86,1.86c.51.53.83,1.26.83,2.06Z"></path>
  <path class="cls-3" d="m172.63,147.61c0,3.11,2.52,5.63,5.63,5.63s5.63-2.52,5.63-5.63-2.52-5.63-5.63-5.63-5.63,2.52-5.63,5.63Zm8.61,0c0,1.65-1.34,2.99-2.99,2.99s-2.99-1.34-2.99-2.99,1.34-2.99,2.99-2.99,2.99,1.34,2.99,2.99Z"></path>
  <path class="cls-3" d="m148.24,24.71h6.38c1.08,0,1.96.88,1.96,1.96s-.88,1.96-1.96,1.96h-6.38s0,2.92,0,2.92h6.38c2.69,0,4.88-2.19,4.88-4.88s-2.19-4.88-4.88-4.88h-6.38s0,2.92,0,2.92Z"></path>
  <path class="cls-3" d="m172.75,171.15v2.83s11.01,3.78,11.01,3.78v-2.8s-2.3-.67-2.3-.67v-3.53s2.3-.7,2.3-.7v-2.8s-11.01,3.9-11.01,3.9Zm6.68,2.55l-3.91-1.15,3.91-1.17v2.33Z"></path>
  <path class="cls-3" d="m172.75,121.58v2.83s11.01,3.78,11.01,3.78v-2.8s-2.3-.67-2.3-.67v-3.53s2.3-.7,2.3-.7v-2.8s-11.01,3.9-11.01,3.9Zm6.68,2.55l-3.91-1.15,3.91-1.17v2.33Z"></path>
  <path class="cls-3" d="m148.24,89.18v2.83s11.01,3.78,11.01,3.78v-2.8s-2.3-.67-2.3-.67v-3.53s2.3-.7,2.3-.7v-2.8s-11.01,3.9-11.01,3.9Zm6.68,2.55l-3.91-1.15,3.91-1.17v2.33Z"></path>
  <path class="cls-3" d="m148.25,62.75v2.83s11.01,3.78,11.01,3.78v-2.8s-2.3-.67-2.3-.67v-3.53s2.3-.7,2.3-.7v-2.8s-11.01,3.9-11.01,3.9Zm6.68,2.55l-3.91-1.15,3.91-1.17v2.33Z"></path>
  <path class="cls-3" d="m176.86,29.21l-4.09-3.55v-2.39h11v2.75h-6.85s3.46,2.98,3.46,2.98v.41s-3.46,2.98-3.46,2.98h6.85v2.75h-11v-2.39s4.09-3.55,4.09-3.55Z"></path>
  <path class="cls-3" d="m152.34,77.33l-4.09-3.55v-2.39h11.01v2.75h-6.86s3.46,2.98,3.46,2.98v.41s-3.46,2.98-3.46,2.98h6.86v2.75h-11.01v-2.39s4.09-3.55,4.09-3.55Z"></path>
  <path class="cls-3" d="m172.75,37.48h11.01v2.53h-11.01v-2.53Z"></path>
  <path class="cls-3" d="m172.75,155h11.01v2.53h-11.01v-2.53Z"></path>
  <path class="cls-3" d="m148.25,46.35h11.01v2.53h-11.01v-2.53Z"></path>
  <path class="cls-3" d="m179.11,42.83v4.06s2.62,0,2.62,0v-4.53h2.04v7.03h-11.01v-7.03h2.04v4.53s2.29,0,2.29,0v-4.06h2.03Z"></path>
  <path class="cls-3" d="m154.58,13.18v4.06s2.62,0,2.62,0v-4.53h2.04v7.03h-11.01v-7.03h2.04v4.53s2.29,0,2.29,0v-4.06h2.03Z"></path>
  <path class="cls-3" d="m179.11,76.27v4.06s2.62,0,2.62,0v-4.53h2.04v7.03h-11.01v-7.03h2.04v4.53s2.29,0,2.29,0v-4.06h2.03Z"></path>
  <path class="cls-3" d="m154.6,131.76v4.06s2.62,0,2.62,0v-4.53h2.04v7.03h-11.01v-7.03h2.04v4.53s2.29,0,2.29,0v-4.06h2.03Z"></path>
  <path class="cls-3" d="m154.6,172.9v4.06s2.62,0,2.62,0v-4.53h2.04v7.03h-11.01v-7.03h2.04v4.53s2.29,0,2.29,0v-4.06h2.03Z"></path>
  <path class="cls-3" d="m180.44,18.15c.29-.02.45-.11.72-.31.4-.32.62-.87.62-1.54,0-1.01-.45-1.62-1.19-1.62-.41,0-.76.21-.92.55-.13.28-.22.61-.54,1.98-.26,1.21-.42,1.63-.76,2.12-.58.83-1.46,1.28-2.53,1.28-2.03,0-3.31-1.63-3.31-4.23,0-1.67.51-2.95,1.5-3.66.43-.33,1.13-.55,1.88-.72v2.85c-.85.16-1.21.63-1.21,1.63,0,.8.43,1.4,1.04,1.4.37,0,.65-.2.84-.62q.12-.26.43-1.82c.21-1,.43-1.63.75-2.14.59-.95,1.48-1.42,2.69-1.42.99,0,1.83.32,2.42.92.74.76,1.12,1.92,1.12,3.47,0,1.12-.24,2.23-.65,2.94-.37.66-.94,1.15-1.69,1.42-.32.13-.62.2-1.23.29v-2.78Z"></path>
  <path class="cls-1" d="m183.76,54.71v-2.98l-5.39,2.26c-.66-.84-1.48-1.27-2.44-1.27s-1.73.34-2.34,1.02c-.55.61-.83,1.47-.83,2.58v4.51s11.01,0,11.01,0v-2.84s-2.44,0-2.44,0l-1.24-1.66,3.68-1.63Zm-8.44,3.28v-1.37c0-.69.23-1.04.68-1.04.3,0,.58.17.8.38l1.51,2.03h-2.99Z"></path>
  <path class="cls-3" d="m159.25,143.15v-2.98l-5.39,2.26c-.66-.84-1.48-1.27-2.44-1.27s-1.73.34-2.34,1.02c-.55.61-.83,1.47-.83,2.58v4.51s11.01,0,11.01,0v-2.84s-2.44,0-2.44,0l-1.24-1.66,3.68-1.63Zm-8.44,3.28v-1.37c0-.69.23-1.04.68-1.04.3,0,.58.17.8.38l1.51,2.03h-2.99Z"></path>
  <path class="cls-3" d="m159.25,100.68v-2.98l-5.39,2.26c-.66-.84-1.48-1.27-2.44-1.27s-1.73.34-2.34,1.02c-.55.61-.83,1.47-.83,2.58v4.51s11.01,0,11.01,0v-2.84s-2.44,0-2.44,0l-1.24-1.66,3.68-1.63Zm-8.44,3.28v-1.37c0-.69.23-1.04.68-1.04.3,0,.58.17.8.38l1.51,2.03h-2.99Z"></path>
  <polygon class="cls-1" points="172.75 182.63 180.11 182.63 172.75 187.79 172.75 190.17 183.76 190.17 183.76 187.42 176.92 187.42 183.76 182.67 183.76 179.87 172.75 179.87 172.75 182.63"></polygon>
  <polygon class="cls-3" points="172.75 132.67 180.11 132.67 172.75 137.83 172.75 140.22 183.76 140.22 183.76 137.47 176.92 137.47 183.76 132.72 183.76 129.92 172.75 129.92 172.75 132.67"></polygon>
  <polygon class="cls-3" points="148.25 162.77 155.61 162.77 148.25 167.92 148.25 170.31 159.26 170.31 159.26 167.56 152.42 167.56 159.26 162.81 159.26 160.01 148.25 160.01 148.25 162.77"></polygon>
  <polygon class="cls-3" points="148.24 151.13 148.24 158.16 150.29 158.16 150.29 155.93 159.25 155.93 159.25 153.36 150.29 153.36 150.29 151.13 148.24 151.13"></polygon>
  <polygon class="cls-3" points="172.75 160.05 172.75 167.08 174.8 167.08 174.8 164.85 183.76 164.85 183.76 162.28 174.8 162.28 174.8 160.05 172.75 160.05"></polygon>
  <polygon class="cls-3" points="148.24 50.72 148.24 57.76 150.29 57.76 150.29 55.52 159.25 55.52 159.25 52.96 150.29 52.96 150.29 50.72 148.24 50.72"></polygon>
  <polygon class="cls-3" points="183.74 116.05 183.74 109.13 181.7 109.13 181.7 113.49 172.72 113.49 172.72 116.05 183.74 116.05"></polygon>
  <g>
    <path class="cls-3" d="m148.12,38.87c0,3.11,2.52,5.63,5.63,5.63s5.63-2.52,5.63-5.63-2.52-5.63-5.63-5.63-5.63,2.52-5.63,5.63Zm8.61,0c0,1.65-1.34,2.99-2.99,2.99s-2.99-1.34-2.99-2.99,1.34-2.99,2.99-2.99,2.99,1.34,2.99,2.99Z"></path>
    <path class="cls-3" d="m163.16,35.48c0,.64-.12,1.4-.29,2.11-.1.4-.22.77-.25,1.19-.03.33-.05.71-.05,1.26h-2.27c0-.55.02-.93.05-1.26.03-.41.15-.79.25-1.19.17-.71.29-1.47.29-2.11h2.27Z"></path>
  </g>
</svg>
