<?xml version="1.0" encoding="UTF-8"?>
<svg xmlns="http://www.w3.org/2000/svg" id="MANEGE" viewBox="0 0 200 200">
  <defs>
    <style>
      .cls-1 {
        fill: #1d1d1b;
        stroke-width: 0px;
      }
    </style>
  </defs>
  <polygon class="cls-1" points="65.3 19 65.3 21.21 65.3 108.66 65.3 110.87 67.52 110.87 82.64 110.87 84.86 110.87 84.86 108.66 84.86 19 65.3 19"></polygon>
  <polygon class="cls-1" points="26.2 19 26.2 21.21 26.2 108.66 26.2 110.87 28.41 110.87 43.54 110.87 45.75 110.87 45.75 108.66 45.75 19 26.2 19"></polygon>
  <path class="cls-1" d="m139.63,27.62c-19.92,0-36.12,16.21-36.12,36.13s16.21,36.12,36.12,36.12,36.13-16.2,36.13-36.12-16.21-36.13-36.13-36.13Zm0,52.88c-9.24,0-16.75-7.51-16.75-16.75s7.51-16.75,16.75-16.75,16.75,7.51,16.75,16.75-7.51,16.75-16.75,16.75Z"></path>
  <g>
    <path class="cls-1" d="m53.09,154.88v-12.77c0-2.96-1.03-5.01-3.99-5.01s-4.2,2.27-4.2,5.14v12.64h-5.23v-12.68c0-2.79-.81-5.1-3.99-5.1-1.84,0-4.24,1.24-4.24,4.89v12.9h-5.23v-21.94h5.06v2.66h.09c1.5-2.01,3.64-3.09,6.21-3.09,2.91,0,4.93,1.11,6.3,3.26,1.54-1.97,3.77-3.26,6.77-3.26,4.07,0,7.67,2.36,7.67,7.71v14.66h-5.23Z"></path>
    <path class="cls-1" d="m76.32,154.88c-.09-.34-.17-1.67-.21-2.01h-.09c-1.93,2.01-3.51,2.44-6.34,2.44-4.54,0-7.63-2.49-7.63-6.64s3.86-6.77,8.1-6.77h5.83v-2.01c0-2.31-1.54-3.3-4.2-3.3-2.27,0-3.94.77-3.94,2.19v.77h-4.71v-.6c0-4.8,4.59-6.43,8.7-6.43,4.89,0,9.38,1.63,9.38,6.98v10.67c0,.99.13,4.24.39,4.71h-5.27Zm-.34-9.17h-5.14c-2.23,0-3.69.77-3.69,2.7s1.5,2.79,3.94,2.79c4.2,0,4.89-2.06,4.89-4.41v-1.07Z"></path>
    <path class="cls-1" d="m99.89,154.88v-12.73c0-3.3-1.41-5.06-4.07-5.06-2.87,0-4.54,1.76-4.54,5.49v12.3h-5.23v-21.94h5.1v2.7h.09c1.46-2.1,3.77-3.13,6.21-3.13,4.93,0,7.67,3.09,7.67,8.31v14.06h-5.23Z"></path>
    <path class="cls-1" d="m119.3,155.4c-5.4,0-10.24-2.96-10.24-8.96v-4.29c0-6.17,4.63-9.6,10.07-9.6,4.76,0,9.47,2.79,9.47,8.61v4.24h-14.1v1.2c0,2.79,2.27,4.41,5.06,4.41,1.76,0,3.6-1.16,4.76-2.83l4.29,1.89c-2.01,3.56-5.44,5.31-9.3,5.31Zm-1.11-25.41l-5.53-7.46h5.53l3.64,7.46h-3.64Zm5.19,11.18c0-3-2.1-4.2-4.24-4.2s-4.63,1.2-4.63,4.5v.3h8.87v-.6Z"></path>
    <path class="cls-1" d="m141.37,163.58c-3.56,0-7.8-1.71-8.91-5.31l5.36-1.63c.81,1.67,2.14,2.74,4.03,2.74,3.17,0,4.93-2.01,4.93-5.1v-2.57l-.09.04c-1.33,1.89-3.43,2.83-5.87,2.83-5.31,0-8.7-3-8.7-8.61v-4.2c0-5.96,3.77-9.26,8.61-9.26,2.57,0,4.88,1.37,6,3.04h.04v-2.61h5.06v20.95c0,5.1-2.87,9.68-10.46,9.68Zm5.4-22.37c0-2.66-2.06-4.2-4.76-4.2-2.19,0-4.59,1.16-4.59,4.33v4.84c0,2.66,2.06,4.24,4.76,4.24,2.19,0,4.59-1.16,4.59-4.33v-4.89Z"></path>
    <path class="cls-1" d="m166.18,155.4c-5.4,0-10.24-2.96-10.24-8.96v-4.29c0-6.17,4.63-9.6,10.07-9.6,4.76,0,9.47,2.79,9.47,8.61v4.24h-14.1v1.2c0,2.79,2.27,4.41,5.06,4.41,1.76,0,3.6-1.16,4.76-2.83l4.29,1.89c-2.01,3.56-5.44,5.31-9.3,5.31Zm4.07-14.23c0-3-2.1-4.2-4.24-4.2s-4.63,1.2-4.63,4.5v.3h8.87v-.6Z"></path>
  </g>
  <g>
    <path class="cls-1" d="m29.05,178.23c-1.29,0-2.5-.34-3.21-1.39l1.21-.91c.45.59,1.16.94,1.98.94.7,0,1.42-.24,1.42-.88,0-.56-.38-.69-1.35-.86l-.94-.17c-1.18-.21-1.97-.79-1.97-1.87,0-1.66,1.32-2.36,2.85-2.36,1.29,0,2.22.32,2.82,1.18l-1.24.84c-.42-.49-.9-.7-1.6-.7s-1.16.25-1.16.8c0,.51.62.58,1.36.72l1.08.21c1.22.24,1.92.93,1.92,2.01,0,1.66-1.7,2.44-3.17,2.44Z"></path>
    <path class="cls-1" d="m36.84,178.24c-1.77,0-3.35-1.02-3.35-2.93v-1.4c0-2.02,1.52-3.14,3.3-3.14,1.56,0,3.14.91,3.14,2.82v.14h-1.67v-.14c0-.98-.77-1.38-1.47-1.38s-1.52.39-1.52,1.47v1.68c0,.91.66,1.45,1.57,1.45.7,0,1.42-.39,1.42-1.38v-.07h1.67v.07c0,1.91-1.53,2.81-3.09,2.81Z"></path>
    <path class="cls-1" d="m44.46,178.24c-1.77,0-3.35-.97-3.35-2.93v-1.4c0-2.02,1.52-3.14,3.3-3.14,1.56,0,3.1.91,3.1,2.82v1.39h-4.62v.39c0,.91.74,1.45,1.66,1.45.58,0,1.18-.38,1.56-.93l1.4.62c-.66,1.16-1.78,1.74-3.05,1.74Zm-.36-8.32l-1.81-2.44h1.81l1.19,2.44h-1.19Zm1.7,3.66c0-.98-.69-1.38-1.39-1.38s-1.52.39-1.52,1.47v.1h2.91v-.2Z"></path>
    <path class="cls-1" d="m53.64,178.08v-4.17c0-1.08-.46-1.66-1.33-1.66-.94,0-1.49.58-1.49,1.8v4.03h-1.71v-7.19h1.67v.88h.03c.48-.69,1.24-1.02,2.04-1.02,1.61,0,2.51,1.01,2.51,2.72v4.6h-1.71Z"></path>
    <path class="cls-1" d="m60.21,178.24c-1.77,0-3.35-.97-3.35-2.93v-1.4c0-2.02,1.52-3.14,3.3-3.14,1.56,0,3.1.91,3.1,2.82v1.39h-4.62v.39c0,.91.74,1.45,1.66,1.45.58,0,1.18-.38,1.56-.93l1.4.62c-.66,1.16-1.78,1.74-3.05,1.74Zm1.33-4.66c0-.98-.69-1.38-1.39-1.38s-1.52.39-1.52,1.47v.1h2.91v-.2Z"></path>
    <path class="cls-1" d="m72.85,178.08v-4.17c0-1.08-.46-1.66-1.33-1.66-.94,0-1.49.58-1.49,1.8v4.03h-1.71v-7.19h1.67v.88h.03c.48-.69,1.24-1.02,2.04-1.02,1.61,0,2.51,1.01,2.51,2.72v4.6h-1.71Z"></path>
    <path class="cls-1" d="m80.62,178.08c-.03-.11-.06-.55-.07-.66h-.03c-.63.66-1.15.8-2.08.8-1.49,0-2.5-.81-2.5-2.18s1.26-2.22,2.65-2.22h1.91v-.66c0-.76-.51-1.08-1.38-1.08-.74,0-1.29.25-1.29.72v.25h-1.54v-.2c0-1.57,1.5-2.11,2.85-2.11,1.6,0,3.07.53,3.07,2.29v3.49c0,.32.04,1.39.13,1.54h-1.73Zm-.11-3h-1.68c-.73,0-1.21.25-1.21.88s.49.91,1.29.91c1.38,0,1.6-.67,1.6-1.45v-.35Z"></path>
    <path class="cls-1" d="m86.44,178.16c-1.11,0-2.01-.51-2.01-1.78v-4.13h-.97v-1.36h.97v-2.18h1.71v2.18h1.56v1.36h-1.56v3.72c0,.53.28.69.67.69.35,0,.55-.01.88-.07v1.46c-.36.07-1.07.11-1.26.11Z"></path>
    <path class="cls-1" d="m89.02,169.6v-1.53h1.71v1.53h-1.71Zm0,8.48v-7.19h1.71v7.19h-1.71Z"></path>
    <path class="cls-1" d="m95.62,178.24c-1.74,0-3.3-.98-3.3-2.82v-1.64c0-1.95,1.66-3.02,3.24-3.02,1.74,0,3.3,1.15,3.3,2.99v1.47c0,1.95-1.66,3.02-3.24,3.02Zm1.5-4.65c0-.87-.67-1.38-1.56-1.38-.72,0-1.5.38-1.5,1.42v1.77c0,.87.67,1.39,1.56,1.39.72,0,1.5-.38,1.5-1.42v-1.78Z"></path>
    <path class="cls-1" d="m104.99,178.08v-4.17c0-1.08-.46-1.66-1.33-1.66-.94,0-1.49.58-1.49,1.8v4.03h-1.71v-7.19h1.67v.88h.03c.48-.69,1.24-1.02,2.04-1.02,1.61,0,2.51,1.01,2.51,2.72v4.6h-1.71Z"></path>
    <path class="cls-1" d="m112.77,178.08c-.03-.11-.06-.55-.07-.66h-.03c-.63.66-1.15.8-2.08.8-1.49,0-2.5-.81-2.5-2.18s1.26-2.22,2.65-2.22h1.91v-.66c0-.76-.51-1.08-1.38-1.08-.74,0-1.29.25-1.29.72v.25h-1.54v-.2c0-1.57,1.5-2.11,2.85-2.11,1.6,0,3.07.53,3.07,2.29v3.49c0,.32.04,1.39.13,1.54h-1.73Zm-.11-3h-1.68c-.73,0-1.21.25-1.21.88s.49.91,1.29.91c1.38,0,1.6-.67,1.6-1.45v-.35Z"></path>
    <path class="cls-1" d="m117.9,178.17c-1.7,0-1.74-1.38-1.74-2.02v-8.08h1.71v8.07c0,.32.15.59.62.59.31,0,.48-.03.79-.06v1.31c-.36.1-.93.2-1.38.2Z"></path>
    <path class="cls-1" d="m123.68,178.24c-1.77,0-3.35-.97-3.35-2.93v-1.4c0-2.02,1.52-3.14,3.3-3.14,1.56,0,3.1.91,3.1,2.82v1.39h-4.62v.39c0,.91.74,1.45,1.66,1.45.58,0,1.18-.38,1.56-.93l1.4.62c-.66,1.16-1.78,1.74-3.05,1.74Zm1.33-4.66c0-.98-.69-1.38-1.39-1.38s-1.52.39-1.52,1.47v.1h2.91v-.2Z"></path>
    <path class="cls-1" d="m131.37,174.86v-1.32h4.06v1.32h-4.06Z"></path>
    <path class="cls-1" d="m144.28,172.32c-.17,0-.48.03-.65.07-1.04.27-1.61.9-1.61,2.01v3.68h-1.71v-7.19h1.67v1.19h.03c.42-.76,1.49-1.33,2.34-1.33.18,0,.39,0,.58.04v1.57c-.22-.04-.41-.04-.65-.04Z"></path>
    <path class="cls-1" d="m149.3,178.24c-1.77,0-3.35-.97-3.35-2.93v-1.4c0-2.02,1.52-3.14,3.3-3.14,1.56,0,3.1.91,3.1,2.82v1.39h-4.62v.39c0,.91.74,1.45,1.66,1.45.58,0,1.18-.38,1.56-.93l1.4.62c-.66,1.16-1.78,1.74-3.05,1.74Zm1.33-4.66c0-.98-.69-1.38-1.39-1.38s-1.52.39-1.52,1.47v.1h2.91v-.2Z"></path>
    <path class="cls-1" d="m153.95,169.6v-1.53h1.71v1.53h-1.71Zm0,8.48v-7.19h1.71v7.19h-1.71Z"></path>
    <path class="cls-1" d="m166.3,178.08v-4.18c0-.97-.34-1.64-1.31-1.64s-1.38.74-1.38,1.68v4.14h-1.71v-4.15c0-.91-.27-1.67-1.31-1.67-.6,0-1.39.41-1.39,1.6v4.22h-1.71v-7.19h1.66v.87h.03c.49-.66,1.19-1.01,2.04-1.01.95,0,1.61.36,2.06,1.07.51-.65,1.24-1.07,2.22-1.07,1.33,0,2.51.77,2.51,2.53v4.8h-1.71Z"></path>
    <path class="cls-1" d="m172.66,178.23c-1.29,0-2.5-.34-3.21-1.39l1.21-.91c.45.59,1.16.94,1.98.94.7,0,1.42-.24,1.42-.88,0-.56-.38-.69-1.35-.86l-.94-.17c-1.18-.21-1.97-.79-1.97-1.87,0-1.66,1.32-2.36,2.85-2.36,1.29,0,2.22.32,2.82,1.18l-1.24.84c-.42-.49-.9-.7-1.6-.7s-1.16.25-1.16.8c0,.51.62.58,1.36.72l1.08.21c1.22.24,1.92.93,1.92,2.01,0,1.66-1.7,2.44-3.17,2.44Z"></path>
  </g>
</svg>
