<?xml version="1.0" encoding="UTF-8"?>
<svg xmlns="http://www.w3.org/2000/svg" id="CESARE" viewBox="0 0 200 200">
  <defs>
    <style>
      .cls-1 {
        fill: #1d1d1b;
        stroke-width: 0px;
      }
    </style>
  </defs>
  <polygon class="cls-1" points="83.21 115.13 83.21 115.92 85.75 115.92 85.75 115.13 85.18 115.13 83.21 115.13"></polygon>
  <g>
    <path class="cls-1" d="m189.65,118.78c-.18,0-.33-.06-.46-.18-.13-.12-.19-.27-.19-.45s.06-.33.19-.45c.13-.12.28-.18.46-.18h2.1v-.93h-2.26c-.23,0-.44.04-.63.14-.19.09-.35.21-.48.36-.13.15-.24.32-.31.51-.07.19-.11.39-.11.6s.03.41.1.59c.06.18.16.35.28.49.12.14.28.25.46.33.18.08.39.12.62.12h1.08c.18.02.33.08.45.2s.18.27.18.45-.06.34-.19.46c-.13.12-.28.18-.47.18h-2.26v.94h2.44c.23,0,.45-.05.63-.14.19-.09.35-.21.48-.37.13-.15.23-.32.31-.52.07-.19.11-.4.11-.61s-.04-.41-.11-.6c-.07-.19-.17-.35-.3-.49-.13-.14-.28-.25-.45-.34-.18-.08-.37-.13-.58-.13h-1.08Zm-4.49-2.17l-1.69,4-1.69-4h-1.21v5.38h1.07v-3.5l1.43,3.5h.81l1.43-3.5v3.5h1.07v-5.38h-1.21Zm-7.48,5.38h1.07v-5.38h-1.07v5.38Zm-1.65-4.51v-.88h-3.47v5.38h3.47v-.88h-2.4v-1.43h2.21v-.85h-2.21v-1.35h2.4Zm-8.05.02h.89c.29,0,.51.07.66.2.15.14.23.33.23.57s-.08.45-.23.59c-.15.14-.37.21-.66.21h-.89v-1.58Zm2.91,4.48l-1.23-2.13c.37-.11.66-.32.86-.61.2-.29.3-.62.3-.97,0-.31-.07-.59-.21-.85-.14-.26-.36-.46-.65-.6-.29-.15-.64-.22-1.05-.22h-2v5.38h1.07v-2.02h.6l1.08,2.02h1.24Zm-13.91-4.51v-.88h-3.47v5.38h3.47v-.88h-2.4v-1.43h2.21v-.85h-2.21v-1.35h2.4Zm-6.55-.87h-1.07v5.38h2.82v-.85h-1.75v-4.52Zm-5.74,3.49l.77-2.39.77,2.39h-1.54Zm2.18,1.89h1.13l-1.91-5.38h-1.24l-1.91,5.38h1.12l.35-1.02h2.12l.35,1.02Zm-9.21-1.28c.23.42.55.74.96.97.41.23.86.35,1.36.35.59,0,1.11-.15,1.55-.46.44-.31.75-.73.92-1.28h-1.18c-.13.26-.31.45-.53.59-.22.13-.48.2-.78.2s-.58-.07-.83-.22c-.25-.15-.44-.36-.57-.63-.14-.27-.2-.58-.2-.94s.07-.67.2-.94c.14-.27.33-.48.57-.62.25-.15.52-.22.83-.22s.56.06.78.2c.22.13.4.33.53.58h1.18c-.18-.54-.49-.97-.93-1.28-.44-.31-.96-.46-1.55-.46-.5,0-.96.12-1.36.35-.41.23-.72.56-.96.98-.23.42-.35.89-.35,1.42s.12,1,.35,1.42m-2.86,1.28h1.07v-5.38h-1.07v5.38Zm-4.13-3.2c-.18,0-.33-.06-.46-.18-.13-.12-.19-.27-.19-.45s.06-.33.19-.45c.13-.12.28-.18.46-.18h2.1v-.93h-2.26c-.23,0-.44.04-.63.14-.19.09-.35.21-.48.36-.13.15-.23.32-.31.51-.07.19-.11.39-.11.6s.03.41.1.59c.06.18.16.35.28.49.12.14.28.25.46.33.18.08.39.12.62.12h1.08c.18.02.33.08.45.2.12.12.18.27.18.45s-.06.34-.19.46-.28.18-.46.18h-2.27v.94h2.44c.23,0,.44-.05.63-.14.19-.09.35-.21.48-.37.13-.15.23-.32.31-.52.07-.19.11-.4.11-.61s-.04-.41-.11-.6-.17-.35-.3-.49c-.13-.14-.28-.25-.45-.34-.18-.08-.37-.13-.58-.13h-1.08Zm-7.45-2.17v3.32c0,.46.09.84.28,1.16.19.32.44.55.77.71.32.16.68.24,1.08.24s.77-.08,1.09-.24c.33-.16.59-.4.79-.71.2-.32.29-.7.29-1.16v-3.32h-1.08v3.33c0,.36-.09.64-.28.82-.19.18-.45.28-.8.28s-.6-.09-.79-.28c-.19-.18-.28-.46-.28-.82v-3.33h-1.07Zm-2.89,0l-1.69,4-1.69-4h-1.21v5.38h1.07v-3.5l1.43,3.5h.81l1.43-3.5v3.5h1.07v-5.38h-1.2Zm-8.76,0h-1.07v3.7l-2.42-3.7h-1.07v5.38h1.07v-3.69l2.42,3.69h1.07v-5.38Zm-9.48,4.25c-.24-.14-.44-.35-.58-.62-.15-.27-.22-.59-.22-.95s.07-.67.22-.94c.15-.27.34-.47.58-.62.24-.14.52-.21.83-.21s.59.07.83.21c.24.14.43.35.58.62.15.27.22.58.22.94s-.07.68-.22.95c-.15.27-.34.48-.58.62-.24.14-.52.21-.83.21s-.59-.07-.83-.21m2.18.84c.41-.24.73-.56.97-.98.24-.42.36-.89.36-1.42s-.12-.99-.36-1.41c-.24-.42-.56-.75-.97-.98-.41-.24-.86-.35-1.35-.35s-.94.12-1.34.35c-.41.24-.73.56-.97.98-.24.42-.36.89-.36,1.41s.12,1,.36,1.42c.24.42.57.75.97.98s.86.35,1.34.35.94-.12,1.34-.35m-6.52.3h1.07v-5.38h-1.07v5.38Zm-5.43-5.38v.91h1.48v4.47h1.07v-4.47h1.46v-.91h-4Zm-3.61,3.49l.77-2.39.77,2.39h-1.54Zm2.18,1.89h1.13l-1.91-5.38h-1.24l-1.91,5.38h1.12l.35-1.02h2.12l.35,1.02Zm-5.15-4.51v-.88h-3.47v5.38h3.47v-.88h-2.4v-1.43h2.21v-.85h-2.21v-1.35h2.4Zm-7.94.02h.89c.29,0,.51.07.66.2.15.14.23.33.23.57s-.08.45-.23.59c-.15.14-.37.21-.66.21h-.89v-1.58Zm2.91,4.48l-1.23-2.13c.37-.11.66-.32.86-.61.2-.29.3-.62.3-.97,0-.31-.07-.59-.21-.85-.14-.26-.36-.46-.65-.6-.29-.15-.64-.22-1.05-.22h-2v5.38h1.07v-2.02h.6l1.08,2.02h1.24Zm-10.18-1.28c.23.42.55.74.96.97.41.23.86.35,1.36.35.59,0,1.11-.15,1.55-.46.44-.31.75-.73.92-1.28h-1.18c-.13.26-.31.45-.53.59-.22.13-.48.2-.78.2s-.58-.07-.83-.22c-.25-.15-.44-.36-.57-.63-.14-.27-.2-.58-.2-.94s.07-.67.2-.94c.14-.27.33-.48.57-.62.25-.15.52-.22.83-.22s.56.06.78.2c.22.13.4.33.53.58h1.18c-.18-.54-.49-.97-.93-1.28-.44-.31-.96-.46-1.55-.46-.5,0-.96.12-1.36.35-.41.23-.72.56-.96.98-.23.42-.35.89-.35,1.42s.12,1,.35,1.42m-3.93-3.23v-.88h-3.47v5.38h3.47v-.88h-2.4v-1.43h2.21v-.85h-2.21v-1.35h2.4Zm-8.72,3.57v-3.52h.81c.56,0,.99.16,1.31.47.31.31.47.75.47,1.31s-.16.99-.47,1.29c-.31.3-.75.45-1.31.45h-.81Zm-1.07-4.44v5.38h1.91c.56,0,1.05-.11,1.48-.33.42-.22.75-.53.98-.94.23-.4.35-.87.35-1.41s-.12-1.01-.35-1.42c-.23-.41-.56-.72-.98-.94-.42-.22-.92-.33-1.48-.33h-1.91Z"></path>
    <path class="cls-1" d="m132.32,107.66h-1.07v5.38h2.82v-.85h-1.75v-4.52Zm-5.73,3.49l.77-2.39.77,2.39h-1.54Zm2.18,1.89h1.13l-1.91-5.38h-1.24l-1.91,5.38h1.12l.35-1.02h2.12l.35,1.02Zm-5.3-5.38h-1.07v3.7l-2.42-3.7h-1.07v5.38h1.07v-3.69l2.42,3.69h1.07v-5.38Zm-9.46,4.25c-.24-.14-.44-.35-.58-.62-.15-.27-.22-.59-.22-.95s.07-.67.22-.94c.15-.27.34-.48.58-.62.24-.14.52-.21.83-.21s.59.07.83.21c.24.14.43.35.58.62.15.27.22.58.22.94s-.07.68-.22.95c-.15.27-.34.48-.58.62-.24.14-.52.21-.83.21s-.59-.07-.83-.21m2.18.84c.41-.24.73-.56.97-.98.24-.42.36-.89.36-1.42s-.12-.99-.36-1.41c-.24-.42-.56-.75-.97-.98-.41-.24-.86-.35-1.35-.35s-.94.12-1.34.35c-.41.24-.73.56-.97.98-.24.42-.36.89-.36,1.41s.12,1,.36,1.42c.24.42.57.75.97.98.41.24.86.35,1.34.35s.94-.12,1.34-.35m-6.51.3h1.07v-5.38h-1.07v5.38Zm-5.41-5.38v.91h1.48v4.47h1.07v-4.47h1.46v-.91h-4Zm-4.35,3.49l.77-2.39.77,2.39h-1.54Zm2.18,1.89h1.13l-1.91-5.38h-1.24l-1.91,5.38h1.12l.35-1.02h2.12l.35,1.02Zm-5.3-5.38h-1.07v3.7l-2.42-3.7h-1.07v5.38h1.07v-3.69l2.42,3.69h1.07v-5.38Zm-8.36.88v-.88h-3.47v5.38h3.47v-.88h-2.4v-1.42h2.21v-.86h-2.21v-1.35h2.4Zm-7.92.02h.89c.29,0,.51.07.66.2.15.14.23.33.23.57s-.08.45-.23.59c-.15.14-.37.21-.66.21h-.89v-1.58Zm2.91,4.48l-1.23-2.13c.37-.11.66-.32.86-.61.2-.29.3-.62.3-.97,0-.31-.07-.59-.21-.85-.14-.26-.36-.46-.65-.6-.29-.15-.64-.22-1.05-.22h-2v5.38h1.07v-2.02h.59l1.08,2.02h1.24Zm-9.39-5.38v.91h1.48v4.47h1.07v-4.47h1.46v-.91h-4Zm-1.38,0h-1.07v3.7l-2.42-3.7h-1.07v5.38h1.07v-3.69l2.42,3.69h1.07v-5.38Zm-6.07.88v-.88h-3.47v5.38h3.47v-.88h-2.4v-1.42h2.21v-.86h-2.21v-1.35h2.4Zm-9.65,3.23c.23.42.55.74.96.97s.86.35,1.36.35c.59,0,1.11-.15,1.55-.46.44-.31.75-.73.92-1.28h-1.18c-.13.26-.31.45-.53.59-.22.13-.48.2-.78.2s-.58-.07-.83-.22c-.25-.15-.44-.36-.57-.63-.14-.27-.2-.58-.2-.94s.07-.67.2-.94c.14-.27.33-.48.57-.62.25-.15.52-.22.83-.22s.56.07.78.2c.22.13.4.32.53.58h1.18c-.18-.54-.49-.97-.93-1.28-.44-.31-.96-.46-1.55-.46-.5,0-.96.12-1.36.35s-.72.56-.96.98c-.23.42-.35.89-.35,1.42s.12,1,.35,1.42"></path>
  </g>
  <polygon class="cls-1" points="160.65 118.83 160.65 119.77 163.47 119.77 163.47 118.83 162.89 118.83 160.65 118.83"></polygon>
  <g>
    <path class="cls-1" d="m15.24,99.22c0-8.25.15-15.91.66-22.26h-7.24v45.07h7.26c-.55-6.48-.68-14.26-.68-22.81"></path>
    <path class="cls-1" d="m39.85,99.47c0-8.61,2.77-16.46,7.93-22.5h-8.36c-4.14,6.49-6.29,14.21-6.29,22.5s2.18,16.08,6.36,22.57h8.35c-5.19-6.04-7.98-13.93-7.98-22.57"></path>
    <path class="cls-1" d="m23.59,76.96c-2.04,6.89-2.89,14.45-2.89,22.39s.89,15.71,2.98,22.67h7.8c-2.55-6.76-4.11-14.47-4.11-22.67s1.52-15.7,4-22.39h-7.78Z"></path>
    <path class="cls-1" d="m169.4,87.14v-4.02h-7c-3.1,0-4.97,2.59-5.05,5.37h-.01v13.01h4.3v-12.99c.05-.73.52-1.37,1.37-1.37h6.4Z"></path>
    <path class="cls-1" d="m122.08,95.94c0,2.85-2.03,5.55-5.23,5.55h-8.95v-4.03h8.33c.85,0,1.54-.79,1.54-1.6s-.68-1.61-1.54-1.61l-4.11-.02c-3.19,0-4.98-2.67-4.98-5.55s2.06-5.55,5.23-5.55h8.26v4.03h-7.61c-.89,0-1.5.8-1.5,1.53,0,.78.52,1.63,1.46,1.63l4.15.02c2.92,0,4.95,2.72,4.95,5.6"></path>
    <path class="cls-1" d="m74.14,89.36c-.12-.91-.48-1.86-1.11-2.84-.69-1.08-1.67-1.98-2.94-2.72-1.27-.74-2.78-1.11-4.53-1.11s-3.31.43-4.76,1.29c-1.44.86-2.59,2.02-3.42,3.48-.84,1.46-1.26,3.07-1.26,4.81s.42,3.34,1.26,4.81c.84,1.46,1.98,2.62,3.42,3.48,1.44.86,3.03,1.29,4.76,1.29,1.6,0,3.05-.38,4.33-1.14,1.28-.76,2.29-1.69,3.02-2.78.63-.94,1-1.81,1.14-2.63h-4.48c-.25.63-.69,1.18-1.34,1.65-.79.56-1.68.83-2.66.83s-1.83-.25-2.59-.76c-.77-.51-1.36-1.19-1.78-2.03-.42-.85-.63-1.75-.63-2.72s.2-1.87.61-2.72c.41-.85.99-1.52,1.76-2.03.76-.51,1.64-.76,2.63-.76s1.83.27,2.59.8c.68.48,1.15,1.08,1.42,1.81h4.58Z"></path>
    <path class="cls-1" d="m143.58,92.27c0,.96-.21,1.84-.63,2.64s-1,1.44-1.74,1.9c-.74.47-1.56.7-2.44.7s-1.88-.23-2.62-.7c-.74-.47-1.32-1.1-1.74-1.9s-.63-1.68-.63-2.64.21-1.84.63-2.64c.42-.8,1-1.44,1.74-1.9.74-.47,1.71-.7,2.62-.7s1.7.23,2.44.7c.74.47,1.32,1.1,1.74,1.9.42.8.63,1.68.63,2.64m4.32,9.24v-18.48h-4.32v2.46c-.69-.86-1.54-1.45-2.54-1.96-1-.5-2.09-.75-3.28-.75-1.51,0-3.13.43-4.4,1.28-1.27.85-2.28,2-3.02,3.45-.74,1.45-1.11,3.03-1.11,4.76s.37,3.31,1.11,4.76c.74,1.45,1.75,2.6,3.02,3.45,1.27.85,2.89,1.28,4.4,1.28,2.37,0,4.31-.83,5.82-2.67v2.44h4.32Z"></path>
    <path class="cls-1" d="m94.87,90.41h-9c.22-1.17.72-2.03,1.5-2.75.78-.72,1.84-1.08,3.09-1.08s2.21.36,2.96,1.08c.74.72,1.23,1.57,1.45,2.75m4.31,3.26c.05-.48.07-1.11.07-1.51,0-1.7-.38-3.27-1.15-4.71-.77-1.44-1.83-2.57-3.17-3.41-1.34-.84-2.83-1.26-4.47-1.26s-3.27.42-4.67,1.26c-1.41.84-2.52,1.98-3.33,3.43-.82,1.45-1.23,3.05-1.23,4.8s.4,3.41,1.21,4.85c.81,1.44,1.88,2.57,3.33,3.39,1.44.83,3.1,1.24,4.88,1.24s3.27-.37,4.48-1.11c1.21-.74,2.15-1.59,2.74-2.55.59-.96.94-1.81,1.06-2.55h-4.39c-.22.62-.66,1.18-1.32,1.67-.66.49-1.55.74-2.57.74-1.44,0-2.62-.41-3.44-1.24-.82-.83-1.31-1.71-1.48-3.03h13.46Z"></path>
  </g>
  <polygon class="cls-1" points="87.78 76.99 87.78 80.18 98.56 80.18 98.56 76.99 96.23 76.99 87.78 76.99"></polygon>
  <path class="cls-1" d="m188.11,90.41h-9c.22-1.17.72-2.03,1.5-2.75.78-.72,1.84-1.08,3.09-1.08s2.21.36,2.96,1.08c.74.72,1.23,1.57,1.45,2.75m4.31,3.26c.05-.48.07-1.11.07-1.51,0-1.7-.38-3.27-1.15-4.71-.77-1.44-1.83-2.57-3.17-3.41-1.34-.84-2.83-1.26-4.47-1.26s-3.27.42-4.67,1.26c-1.41.84-2.52,1.98-3.33,3.43-.82,1.45-1.23,3.05-1.23,4.8s.4,3.41,1.21,4.85c.81,1.44,1.88,2.57,3.33,3.39,1.44.83,3.1,1.24,4.88,1.24s3.27-.37,4.48-1.11c1.21-.74,2.15-1.59,2.74-2.55.59-.96.94-1.81,1.06-2.55h-4.39c-.22.62-.66,1.18-1.32,1.67-.66.49-1.55.74-2.57.74-1.44,0-2.62-.41-3.44-1.24-.82-.83-1.31-1.71-1.48-3.03h13.46Z"></path>
  <polygon class="cls-1" points="181.03 76.99 181.03 80.18 191.81 80.18 191.81 76.99 189.48 76.99 181.03 76.99"></polygon>
</svg>
