<?xml version="1.0" encoding="UTF-8"?>
<svg xmlns="http://www.w3.org/2000/svg" viewBox="0 0 48.43 55.96">
  <title>acces_emploi</title>
  <path d="M32.83,26.8H17.25a1.47,1.47,0,0,1-1-.36L9.87,20.78a1.17,1.17,0,0,0-.8-.3H3.54V1.37A1.37,1.37,0,0,1,4.91,0H31.46a1.38,1.38,0,0,1,1.37,1.37Z" transform="translate(0)" fill="#e6e6e6"></path>
  <circle cx="9.9" cy="5.95" r="2.91" fill="#fff"></circle>
  <path d="M21.22,4.39H15.81a.38.38,0,0,0,0,.75h5.41a.38.38,0,1,0,0-.75Z" transform="translate(0)" fill="#fff"></path>
  <path d="M29.07,6.76H15.74a.39.39,0,0,0-.3.46.4.4,0,0,0,.3.29H29.07a.38.38,0,0,0,.3-.45.4.4,0,0,0-.3-.3Z" transform="translate(0)" fill="#fff"></path>
  <path d="M28,11.77H8.34a.39.39,0,0,0-.27.48.37.37,0,0,0,.27.27H28a.38.38,0,0,0,.27-.47A.4.4,0,0,0,28,11.77Z" transform="translate(0)" fill="#fff"></path>
  <path d="M28,14.1H8.34a.39.39,0,0,0-.27.48.37.37,0,0,0,.27.27H28a.38.38,0,0,0,.27-.47A.4.4,0,0,0,28,14.1Z" transform="translate(0)" fill="#fff"></path>
  <path d="M28,16.43H8.34a.39.39,0,0,0-.27.48.37.37,0,0,0,.27.27H28a.38.38,0,0,0,.27-.47A.4.4,0,0,0,28,16.43Z" transform="translate(0)" fill="#fff"></path>
  <path d="M28,18.76H8.34a.39.39,0,0,0-.27.48.37.37,0,0,0,.27.27H28A.38.38,0,0,0,28.3,19,.4.4,0,0,0,28,18.76Z" transform="translate(0)" fill="#fff"></path>
  <path d="M45.73,26.8H17.25a1.53,1.53,0,0,1-.8-.24V7.12a1.37,1.37,0,0,1,1.37-1.38H44.36a1.38,1.38,0,0,1,1.37,1.38Z" transform="translate(0)" fill="#00608f"></path>
  <circle cx="22.8" cy="11.69" r="2.91" fill="#fff"></circle>
  <path d="M34.12,10.13H28.71a.38.38,0,0,0,0,.75h5.41a.38.38,0,0,0,0-.75Z" transform="translate(0)" fill="#fff"></path>
  <path d="M42,12.5H28.64a.39.39,0,0,0-.3.46.37.37,0,0,0,.3.29H42a.39.39,0,0,0,0-.75Z" transform="translate(0)" fill="#fff"></path>
  <path d="M40.93,17.52H21.24A.38.38,0,0,0,21,18a.43.43,0,0,0,.28.28H40.93a.39.39,0,0,0,.27-.48A.37.37,0,0,0,40.93,17.52Z" transform="translate(0)" fill="#fff"></path>
  <path d="M40.93,19.85H21.24a.38.38,0,0,0-.28.47.43.43,0,0,0,.28.28H40.93a.39.39,0,0,0,.27-.48A.37.37,0,0,0,40.93,19.85Z" transform="translate(0)" fill="#fff"></path>
  <path d="M40.93,22.18H21.24a.38.38,0,0,0-.28.47.43.43,0,0,0,.28.28H40.93a.39.39,0,0,0,.27-.48A.37.37,0,0,0,40.93,22.18Z" transform="translate(0)" fill="#fff"></path>
  <path d="M40.93,24.51H21.24A.38.38,0,0,0,21,25a.43.43,0,0,0,.28.28H40.93a.39.39,0,0,0,.27-.48A.37.37,0,0,0,40.93,24.51Z" transform="translate(0)" fill="#fff"></path>
  <path d="M46.52,26.59H17.25a1.26,1.26,0,0,1-.77-.27l-.05-.05L14,24.09,10,20.62a1.41,1.41,0,0,0-.94-.36H1.91A1.42,1.42,0,0,0,.5,21.68V54.05a1.41,1.41,0,0,0,1.41,1.41h44.6a1.41,1.41,0,0,0,1.42-1.41V28A1.41,1.41,0,0,0,46.52,26.59Zm1.25,27.46a1.25,1.25,0,0,1-1.25,1.25H1.92A1.25,1.25,0,0,1,.67,54.05V21.68a1.25,1.25,0,0,1,1.25-1.25H9.08a1.23,1.23,0,0,1,.82.31l3.8,3.35,2.62,2.31a1.47,1.47,0,0,0,.94.36H46.53A1.24,1.24,0,0,1,47.77,28Z" transform="translate(0)" fill="#3f3d56" stroke="#3f3d56"></path>
  <path d="M37.12,49.72H12.65a1.25,1.25,0,0,1-1.25-1.24V35a1.26,1.26,0,0,1,1.25-1.25H37.12A1.25,1.25,0,0,1,38.36,35V48.47A1.25,1.25,0,0,1,37.12,49.72ZM12.65,33.91A1.08,1.08,0,0,0,11.57,35V48.47a1.08,1.08,0,0,0,1.08,1.09H37.12a1.09,1.09,0,0,0,1.08-1.09V35a1.09,1.09,0,0,0-1.08-1.08Z" transform="translate(0)" fill="#e6e6e6" stroke="#e6e6e6"></path>
  <circle cx="16.6" cy="38.74" r="2.91" fill="#e6e6e6"></circle>
  <path d="M27.92,37.18H22.51a.36.36,0,0,0-.37.37.37.37,0,0,0,.37.38h5.41a.37.37,0,0,0,.37-.38A.36.36,0,0,0,27.92,37.18Z" transform="translate(0)" fill="#e6e6e6"></path>
  <path d="M35.77,39.55H22.44a.38.38,0,0,0,0,.75H35.77a.38.38,0,0,0,.29-.46.38.38,0,0,0-.29-.29Z" transform="translate(0)" fill="#e6e6e6"></path>
  <path d="M34.73,44.56H15a.39.39,0,0,0,0,.75H34.73a.38.38,0,0,0,.27-.47A.38.38,0,0,0,34.73,44.56Z" transform="translate(0)" fill="#e6e6e6"></path>
  <path d="M34.73,46.89H15a.39.39,0,0,0,0,.75H34.73a.38.38,0,0,0,.27-.47A.38.38,0,0,0,34.73,46.89Z" transform="translate(0)" fill="#e6e6e6"></path>
</svg>
