<?xml version="1.0" encoding="UTF-8"?>
<svg xmlns="http://www.w3.org/2000/svg" xmlns:xlink="http://www.w3.org/1999/xlink" id="inclusive" viewBox="0 0 120 120">
  <defs>
    <style>
      .cls-1 {
        fill: #283582;
      }

      .cls-2 {
        fill: #5a606d;
      }

      .cls-3 {
        clip-path: url(#clippath);
      }

      .cls-4 {
        fill: none;
      }
    </style>
    <clipPath id="clippath">
      <rect class="cls-4" x="34.92" y="35.75" width="72.34" height="62.87"></rect>
    </clipPath>
  </defs>
  <g class="cls-3">
    <path class="cls-2" d="m59.85,69.17c.2.22.3.5.3.78,0-.28-.1-.56-.3-.78m-1.65-.03l-8.1,8.1c-.43.43-1.03.65-1.62.65s-1.19-.22-1.62-.65c-.43-.43-.67-1.01-.67-1.62s.24-1.19.67-1.62l.83-.82c-.11.05-.24.08-.36.09h-.11c-.3,0-.59-.11-.81-.33l-.86-.86-.3.3c-.87.87-1.35,2.02-1.35,3.24s.48,2.38,1.35,3.24c.86.87,2.02,1.34,3.24,1.34.1,0,.19,0,.29,0,.07-1.08.51-2.13,1.33-2.95l8.1-8.1m-1.2-8.37c-.15.05-.3.14-.42.27l-9.42,9.42.05.05c1.16-1.17,3.78-3.78,9.79-9.74"></path>
    <path class="cls-2" d="m96.21,62.99l-.47.47c-.23.22-.52.34-.81.34s-.59-.11-.81-.34c-.13-.13-.22-.28-.28-.44.4,1.38.57,2.81.49,4.24-.16,3.05-1.41,5.93-3.51,8.12l-10.05,10.06c-.45.45-1.04.67-1.63.67-.34,0-.68-.07-.99-.22-.28.72-.74,1.37-1.35,1.88.72.43,1.53.64,2.34.64,1.18,0,2.35-.45,3.25-1.35l10.06-10.08c2.49-2.59,3.97-6,4.16-9.6.08-1.48-.06-2.95-.42-4.39"></path>
    <path class="cls-2" d="m80.31,48.78h0m1.15-.33l-.03.03c-.22.22-.52.34-.81.34-.1,0-.2-.01-.3-.04.1.03.2.04.3.04.32,0,.62-.14.84-.37m-4.62-2.58c-1.62,0-3.23.32-4.73.94.05.04.1.09.14.13l.15.12,1.53,1.53c.95-.29,1.93-.43,2.92-.43,1.14,0,2.28.19,3.36.58-.14-.06-.28-.14-.39-.26-.45-.45-.45-1.17,0-1.62l.5-.5c-1.13-.33-2.3-.5-3.46-.5"></path>
    <path class="cls-2" d="m64.92,75.25h0s0,0,0,0m.07-.67c.05.22.02.45-.07.66.09-.21.11-.44.07-.66m-1.12-.92c-.22,0-.45.07-.64.2.19-.13.42-.2.64-.2m-4.86-4.86c-.29,0-.59.11-.81.34l-8.1,8.1c-.82.82-1.26,1.88-1.33,2.95-.08,1.27.37,2.56,1.33,3.53.89.89,2.07,1.34,3.24,1.34.1,0,.19,0,.29-.01.07-1.11.54-2.15,1.33-2.95-.45.45-1.03.67-1.62.67s-1.17-.22-1.62-.67c-.89-.89-.89-2.35,0-3.24l8.11-8.1c.22-.23.33-.52.33-.81,0-.28-.1-.56-.3-.78,0-.01-.02-.02-.03-.03-.22-.22-.52-.34-.81-.34"></path>
    <path class="cls-2" d="m63.87,73.66h0c-.22,0-.45.07-.64.2-.06.04-.12.08-.17.14l-8.1,8.1c-.8.8-1.26,1.84-1.33,2.95,0,.1,0,.19,0,.29,0,1.23.48,2.38,1.34,3.24.86.86,2.02,1.34,3.24,1.34.1,0,.19,0,.29,0,.07-1.1.52-2.13,1.3-2.93-.43.42-1.01.62-1.59.62s-1.19-.22-1.62-.65c-.43-.43-.67-1.01-.67-1.62s.24-1.19.67-1.62l8.1-8.11c.11-.11.19-.23.25-.36h0c.09-.22.11-.45.07-.67-.04-.22-.15-.42-.31-.59-.22-.22-.52-.34-.81-.34"></path>
    <path class="cls-2" d="m65.09,81.69l-5.27,5.27s-.02.02-.03.03c-.78.79-1.24,1.82-1.3,2.92,0,.1-.01.19-.01.29,0,1.22.48,2.37,1.34,3.24.88.88,2.06,1.34,3.25,1.34.87,0,1.74-.25,2.51-.75.53-.35.68-1.06.33-1.59-.01-.02-.02-.03-.03-.04l-.08-.08h0c-.05-.06-.1-.11-.15-.16-.2-.15-.45-.24-.7-.24-.22,0-.43.06-.63.19-.38.25-.82.37-1.25.37-.59,0-1.18-.23-1.63-.67-.9-.89-.9-2.35,0-3.24l5.17-5.17-.81-.81c-.28-.28-.52-.59-.71-.91m2.31-.72s0,0,.01.01l.02.02s-.01-.01-.02-.02c0,0-.01,0-.02-.01"></path>
    <path class="cls-2" d="m69.46,91.69c-.65,0-1.32-.26-1.83-.77l-.22-.22c-.89-.89-.89-2.35,0-3.24.45-.45,1.03-.67,1.62-.67s1.17.22,1.62.67l.35.35c.45.45.69,1.05.67,1.68-.02.63-.29,1.22-.76,1.64-.4.37-.93.54-1.46.54m-1.61-7.03c-.75.2-1.47.6-2.06,1.19-1.73,1.73-1.78,4.53-.15,6.32.05.05.1.11.15.16h0s.08.08.08.08l.14.14c.96.96,2.21,1.45,3.44,1.45,1.08,0,2.15-.38,3-1.14.95-.85,1.49-2.02,1.52-3.29,0-.26,0-.52-.04-.77-1.21,0-2.43-.49-3.36-1.42l-2.72-2.72"></path>
    <path class="cls-2" d="m72.24,76.09s.02.02.04.04l2.89,2.89-2.89-2.9s-.03-.02-.04-.03m-3.21-1.3c-1.17,0-2.35.45-3.24,1.34-1.51,1.51-1.74,3.81-.71,5.57.19.33.43.63.71.91l.81.81,1.25,1.25,2.72,2.72c.93.93,2.15,1.41,3.36,1.42h.03c.87,0,1.74-.25,2.49-.76.13-.09.26-.18.38-.29.61-.51,1.07-1.15,1.35-1.88.15-.39.25-.8.29-1.22.02-.25.03-.49.01-.74-1.1-.08-2.19-.56-3.04-1.41l.09.09c.49.49.73,1.16.66,1.84-.07.69-.43,1.3-1.02,1.7-.35.24-.77.36-1.2.36-.63,0-1.29-.26-1.77-.74l-4.75-4.75-.02-.02s0,0-.01-.01c-.88-.9-.88-2.34.01-3.23.45-.45,1.03-.67,1.62-.67s1.17.22,1.62.67c-.8-.8-1.26-1.83-1.33-2.95-.1,0-.19,0-.29,0"></path>
    <path class="cls-2" d="m77.12,71.24s.01.02.02.02l1.62,1.62-1.62-1.62s-.02-.01-.02-.02m-3.22-1.28c-1.19,0-2.38.43-3.24,1.3-.87.87-1.34,2.02-1.34,3.24,0,.1,0,.19,0,.29.07,1.12.54,2.16,1.33,2.95l4.77,4.77s0,0,0,0c.85.85,1.94,1.32,3.04,1.41.12,0,.23.01.34.01.87,0,1.74-.25,2.49-.76,1.15-.78,1.89-2.01,2.02-3.38.02-.24.03-.48.01-.72-1.1-.07-2.15-.54-2.93-1.31.47.48.7,1.14.64,1.82-.07.7-.43,1.3-1.02,1.7-.35.24-.77.36-1.2.36-.63,0-1.28-.26-1.77-.75l-1.88-1.88-2.9-2.89s-.02-.03-.03-.04c-.41-.43-.64-.99-.64-1.58s.24-1.19.67-1.62c.43-.43,1.01-.67,1.62-.67s1.19.24,1.62.67c-.81-.81-1.25-1.85-1.33-2.91-.1,0-.19,0-.29,0"></path>
    <path class="cls-2" d="m77.12,71.24c-.87-.9-.86-2.33.02-3.22.43-.43,1.01-.67,1.62-.67s1.19.24,1.62.67l4.72,4.72c.92.92,1.03,2.4.22,3.29-.43.48-1.01.75-1.65.76h-.07c-.61,0-1.18-.24-1.61-.67l-3.24-3.24-1.62-1.62s-.02-.02-.02-.02m1.64-6.18c-1.17,0-2.35.45-3.24,1.34-.98.98-1.42,2.29-1.33,3.57.08,1.06.52,2.1,1.33,2.91l4.86,4.86s.01.01.02.02c.78.78,1.83,1.24,2.93,1.31.1,0,.19,0,.29,0h.12c1.27-.03,2.44-.57,3.29-1.52,1.63-1.81,1.5-4.64-.31-6.44l-4.73-4.72c-.89-.89-2.07-1.34-3.24-1.34"></path>
    <path class="cls-2" d="m50.81,37.18c-.29,0-.59.11-.81.34-.45.45-.45,1.17,0,1.62l6.51,6.51.3.24c.17.09.36.14.56.14.13,0,.27-.02.4-.07,1.42-.52,2.88-.77,4.33-.77,3.18,0,6.28,1.22,8.67,3.52l.11.09,7.18,7.18c.89.89.89,2.35,0,3.24-.45.45-1.03.67-1.62.67s-1.18-.22-1.62-.67l-7.29-7.29c-.22-.22-.52-.33-.81-.33s-.58.11-.81.33c-3.59,3.56-6.53,6.46-8.92,8.84-6.01,5.96-8.63,8.57-9.79,9.74l-.05-.05-.66-.66c-2.66-2.67-3.61-6.56-2.46-10.15,0-.01,0-.03.01-.04,0,.01,0,.03-.01.04l-.28.46-.22.22c-.23.22-.52.33-.81.33s-.59-.11-.81-.33l-.35-.35c-.94,4.12.28,8.42,3.3,11.44l.66.66.86.86c.22.22.51.33.81.33h.11c.13-.02.25-.05.36-.1.15-.07.29-.17.4-.3.63-.67,12.96-12.89,18.64-18.51l6.49,6.49c.9.89,2.07,1.34,3.24,1.34s2.35-.45,3.24-1.34c1.79-1.79,1.79-4.7,0-6.48l-5.77-5.77-1.53-1.53-.14-.12s-.1-.09-.14-.13c-2.79-2.56-6.35-3.91-10-3.91-1.48,0-2.96.22-4.42.67l-6.06-6.06c-.22-.22-.52-.34-.81-.34"></path>
    <path class="cls-2" d="m36.17,51.82c-.29,0-.59.11-.81.34-.45.45-.45,1.17,0,1.62l6.2,6.2.35.35c.22.22.52.33.81.33s.58-.11.81-.33l.22-.22.28-.46s0-.03.01-.04c.42-1.28,1.07-2.44,1.95-3.46.42-.48.36-1.2-.12-1.62-.22-.19-.48-.28-.75-.28-.32,0-.64.13-.87.4-.77.88-1.4,1.86-1.88,2.91l-5.4-5.4c-.22-.22-.52-.34-.81-.34"></path>
    <path class="cls-2" d="m101.48,54.95c-.29,0-.59.11-.81.34l-6.55,6.55c-.32.32-.41.78-.28,1.18.05.16.15.32.28.44.22.22.52.34.81.34s.59-.11.81-.34l.47-.47,6.08-6.08c.45-.45.45-1.17,0-1.62-.22-.22-.52-.34-.81-.34"></path>
    <path class="cls-2" d="m86.84,40.31c-.29,0-.59.11-.81.34l-5.73,5.73-.5.5c-.45.45-.45,1.17,0,1.62.12.12.25.2.39.26.04.01.07.03.11.04,0,0,0,0,0,0,.1.03.2.04.3.04.29,0,.58-.11.81-.34l.03-.03,6.19-6.19c.45-.45.45-1.17,0-1.62-.22-.22-.52-.34-.81-.34"></path>
    <path class="cls-2" d="m49.23,50.24c-.29,0-.59.11-.81.34-.45.45-.45,1.17,0,1.62.22.22.52.33.81.33s.59-.11.81-.33c.45-.45.45-1.17,0-1.62-.22-.22-.52-.34-.81-.34"></path>
  </g>
  <rect class="cls-1" x="0" y="1.34" width="17.01" height="121.05"></rect>
</svg>
