<?xml version="1.0" encoding="UTF-8"?>
<svg xmlns="http://www.w3.org/2000/svg" xmlns:xlink="http://www.w3.org/1999/xlink" id="sepanouir" viewBox="0 0 120 120">
  <defs>
    <style>
      .cls-1 {
        fill: #621e6a;
      }

      .cls-2 {
        fill: #5a606d;
      }

      .cls-3 {
        clip-path: url(#clippath);
      }

      .cls-4 {
        fill: none;
      }
    </style>
    <clipPath id="clippath">
      <rect class="cls-4" x="33.28" y="38.15" width="69.37" height="53.84"></rect>
    </clipPath>
  </defs>
  <g class="cls-3">
    <path class="cls-2" d="m56.34,40.73c-4.12,0-7.94,1.58-10.8,4.44-4.82,4.82-5.83,12.43-2.45,18.51.23.41.65.63,1.08.63.2,0,.41-.05.6-.15.6-.33.81-1.09.48-1.68-2.85-5.11-2.01-11.51,2.04-15.55,2.37-2.38,5.51-3.72,8.96-3.72.08,0,.16,0,.24,0,3.51.03,6.82,1.43,9.31,3.92l4.24,4.23c.21.21.57.34.87.37.03,0,.06,0,.09,0,.33,0,.64-.13.87-.36l4.24-4.24c2.49-2.49,5.8-3.88,9.31-3.92h.06c3.47,0,6.73,1.3,9.15,3.72,2.43,2.43,3.75,5.7,3.71,9.2-.03,3.51-1.43,6.82-3.91,9.31-7.2,7.17-20.13,20.04-23.47,23.35-2.44-2.4-9.74-9.64-15.62-15.49-.24-.24-.56-.36-.87-.36s-.63.12-.88.37c-.48.49-.48,1.27,0,1.75,6.38,6.35,16.31,16.19,16.55,16.39.22.2.54.3.84.3s.58-.11.81-.3c.27-.23,17.15-17.04,24.4-24.25,2.95-2.95,4.6-6.87,4.64-11.03.04-4.17-1.54-8.07-4.44-10.97-2.87-2.87-6.7-4.44-10.82-4.44h-.16c-4.16.04-8.08,1.69-11.03,4.64l-3.41,3.4-3.41-3.4c-2.95-2.95-6.87-4.6-11.03-4.64h-.17"></path>
    <path class="cls-2" d="m70.79,55.9c-.53.01-1,.37-1.15.87l-4.43,14.44-4.19-8.51c-.19-.39-.57-.65-1-.69-.03,0-.07,0-.1,0-.4,0-.77.18-1,.5l-3.59,4.85h-16.57c-.68,0-1.24.55-1.24,1.24s.55,1.23,1.24,1.23h17.19c.39,0,.76-.19,1-.5l2.75-3.72,4.66,9.48c.21.43.64.69,1.11.69h.1c.5-.05.93-.39,1.08-.87l4.26-13.88,2.91,8.07c.18.49.64.82,1.16.82h6.63c.68,0,1.24-.55,1.24-1.24s-.55-1.24-1.24-1.24h-5.77l-3.88-10.74c-.18-.5-.62-.81-1.19-.82"></path>
  </g>
  <rect class="cls-1" x=".78" y=".84" width="17.01" height="119.98"></rect>
</svg>
