<?xml version="1.0" encoding="UTF-8"?>
<svg xmlns="http://www.w3.org/2000/svg" xmlns:xlink="http://www.w3.org/1999/xlink" id="concertation" viewBox="0 0 120 120">
  <defs>
    <style>
      .cls-1 {
        fill: #5a606d;
      }

      .cls-2 {
        clip-path: url(#clippath);
      }

      .cls-3 {
        fill: none;
      }

      .cls-4 {
        fill: #f28f00;
      }
    </style>
    <clipPath id="clippath">
      <rect class="cls-3" x="30.38" y="22.22" width="71.65" height="81.91"></rect>
    </clipPath>
  </defs>
  <g class="cls-2">
    <path class="cls-1" d="m82.5,29.58h-29.29c-2.28,0-4.14,1.86-4.14,4.14v16.21h2.54v-16.21c0-.88.72-1.59,1.6-1.59h29.29c.88,0,1.59.71,1.59,1.59v3.3h2.55v-3.3c0-2.28-1.86-4.14-4.14-4.14"></path>
    <path class="cls-1" d="m86.64,62.62h-2.54v28.62c0,.9-.75,1.69-1.6,1.69h-29.29c-.85,0-1.59-.79-1.59-1.69v-15.69h-2.55v15.69c0,2.29,1.9,4.23,4.14,4.23h29.29c2.24,0,4.14-1.94,4.14-4.23v-28.62Z"></path>
    <path class="cls-1" d="m70.23,86.54h-4.76c-.7,0-1.27.57-1.27,1.27s.57,1.27,1.27,1.27h4.76c.7,0,1.27-.57,1.27-1.27s-.57-1.27-1.27-1.27"></path>
    <rect class="cls-1" x="76.36" y="46.08" width="15.58" height="2.54"></rect>
    <rect class="cls-1" x="76.36" y="50.96" width="11.61" height="2.54"></rect>
    <path class="cls-1" d="m72.79,60.36v-17.41h22.72v13.77h-18.27c-.32,0-.63.12-.86.34l-3.59,3.3Zm23.99-19.95h-25.27c-.7,0-1.27.57-1.27,1.27v21.58c0,.5.3.96.76,1.16l.51.11c.31,0,.62-.12.86-.34l5.35-4.92h19.05c.7,0,1.27-.57,1.27-1.27v-16.32c0-.7-.57-1.27-1.27-1.27"></path>
    <rect class="cls-1" x="43.76" y="58.96" width="15.58" height="2.55"></rect>
    <rect class="cls-1" x="47.73" y="63.84" width="11.61" height="2.54"></rect>
    <path class="cls-1" d="m40.19,69.61v-13.78h22.72v17.41l-3.58-3.3c-.24-.22-.54-.33-.86-.33h-18.28Zm23.99-16.32h-25.27c-.7,0-1.27.57-1.27,1.27v16.32c0,.7.57,1.27,1.27,1.27h19.05l5.35,4.93c.24.22.55.33.86.33l.51-.11c.46-.2.76-.66.76-1.17v-21.58c0-.7-.57-1.27-1.27-1.27"></path>
  </g>
  <rect class="cls-4" x=".26" y="-.37" width="17.01" height="121.97"></rect>
</svg>
