<?xml version="1.0" encoding="UTF-8"?>
<svg xmlns="http://www.w3.org/2000/svg" xmlns:xlink="http://www.w3.org/1999/xlink" id="transports" viewBox="0 0 120 120">
  <defs>
    <style>
      .cls-1 {
        fill: #5a606d;
      }

      .cls-2 {
        clip-path: url(#clippath);
      }

      .cls-3 {
        fill: none;
      }

      .cls-4 {
        fill: #faba20;
      }
    </style>
    <clipPath id="clippath">
      <rect class="cls-3" x="40.79" y="27.85" width="50.55" height="70"></rect>
    </clipPath>
  </defs>
  <g class="cls-2">
    <path class="cls-1" d="m52.09,77.85c-1.88,0-3.42-1.53-3.42-3.42v-40.06c0-1.88,1.53-3.42,3.42-3.42h27.95c1.88,0,3.42,1.53,3.42,3.42v6.15h.93v3.11h-.93v19h.93v3.11h-.93v8.69c0,1.88-1.53,3.42-3.42,3.42h-27.95Zm27.95-50h-27.95c-3.59,0-6.52,2.93-6.52,6.52v40.06c0,3.02,2.07,5.57,4.87,6.31l.96-1.54c.29-.47.8-.73,1.32-.73.28,0,.56.08.82.23.73.45.95,1.41.49,2.14l-.07.11h24.42c-.42-.73-.18-1.66.54-2.1.25-.15.53-.23.81-.23.52,0,1.03.26,1.33.74l.81,1.32c2.71-.79,4.7-3.3,4.7-6.26v-40.06c0-3.6-2.93-6.52-6.52-6.52"></path>
    <polygon class="cls-1" points="84.39 40.52 83.45 40.52 52.55 40.52 52.55 43.63 83.45 43.63 84.39 43.63 84.39 40.52"></polygon>
    <rect class="cls-1" x="59.23" y="34.31" width="13.66" height="3.11"></rect>
    <polygon class="cls-1" points="84.39 62.63 83.45 62.63 52.55 62.63 52.55 65.74 83.45 65.74 84.39 65.74 84.39 62.63"></polygon>
    <path class="cls-1" d="m52.71,78.47c-.52,0-1.02.26-1.32.73l-.96,1.54-9.19,14.73c-.46.73-.23,1.69.49,2.14.24.15.51.23.78.23h.08c.5-.01.99-.27,1.28-.73l4.54-7.28h-.06c-.86,0-1.55-.7-1.55-1.55s.7-1.55,1.55-1.55h1.99l3.6-5.78.07-.11c.46-.73.23-1.69-.49-2.14-.26-.16-.54-.23-.82-.23"></path>
    <path class="cls-1" d="m79.73,78.62c-.28,0-.56.07-.81.23-.72.44-.96,1.37-.54,2.1,0,.01.01.02.02.03l3.51,5.74h1.85c.86,0,1.55.7,1.55,1.55s-.67,1.53-1.51,1.55l4.44,7.27c.28.47.78.73,1.29.74h.08c.26,0,.53-.08.77-.23.73-.45.96-1.4.51-2.13l-9.03-14.79-.81-1.32c-.29-.48-.8-.74-1.33-.74"></path>
    <path class="cls-1" d="m83.76,86.73h-35.4c-.86,0-1.55.7-1.55,1.55s.7,1.55,1.55,1.55h35.45c.84-.02,1.51-.71,1.51-1.55s-.7-1.55-1.55-1.55"></path>
    <path class="cls-1" d="m57.12,71.33h-3.23c-.86,0-1.55.7-1.55,1.55s.7,1.55,1.55,1.55h3.23c.86,0,1.55-.7,1.55-1.55s-.7-1.55-1.55-1.55"></path>
    <path class="cls-1" d="m78.24,71.33h-3.23c-.86,0-1.55.7-1.55,1.55s.7,1.55,1.55,1.55h3.23c.86,0,1.55-.7,1.55-1.55s-.7-1.55-1.55-1.55"></path>
  </g>
  <rect class="cls-4" x="-.05" y=".66" width="17.01" height="119.86"></rect>
</svg>
