<?xml version="1.0" encoding="UTF-8"?>
<svg xmlns="http://www.w3.org/2000/svg" id="innovations_urbaines" data-name="innovations urbaines" viewBox="0 0 120 120">
  <defs>
    <style>
      .cls-1 {
        fill: #5b616d;
      }

      .cls-2 {
        fill: #3ab7b6;
      }
    </style>
  </defs>
  <g>
    <rect class="cls-1" x="58.26" y="38.39" width="14.95" height="2.63"></rect>
    <rect class="cls-1" x="58.26" y="46.8" width="14.95" height="2.63"></rect>
    <rect class="cls-1" x="58.26" y="55.22" width="14.95" height="2.63"></rect>
    <rect class="cls-1" x="58.26" y="72.04" width="14.95" height="2.63"></rect>
    <rect class="cls-1" x="58.26" y="80.46" width="14.95" height="2.63"></rect>
    <rect class="cls-1" x="58.26" y="63.63" width="14.95" height="2.63"></rect>
    <rect class="cls-1" x="58.26" y="88.87" width="14.95" height="2.63"></rect>
    <rect class="cls-1" x="38.64" y="72.04" width="8.3" height="2.63"></rect>
    <rect class="cls-1" x="38.64" y="80.46" width="8.3" height="2.63"></rect>
    <rect class="cls-1" x="38.64" y="63.63" width="8.3" height="2.63"></rect>
    <rect class="cls-1" x="38.64" y="88.87" width="8.3" height="2.63"></rect>
    <rect class="cls-1" x="84.4" y="72.04" width="8.24" height="2.63"></rect>
    <rect class="cls-1" x="84.4" y="80.46" width="8.24" height="2.63"></rect>
    <rect class="cls-1" x="84.4" y="88.87" width="8.24" height="2.63"></rect>
    <path class="cls-1" d="m65.71,22.09h0c-.73,0-1.31.59-1.31,1.31v6.61h2.63v-6.61c0-.73-.59-1.31-1.32-1.31"></path>
    <path class="cls-1" d="m75.81,30.02h-20.19c-2.47,0-4.47,2.01-4.47,4.47v57.6h2.63v-57.6c0-1.01.82-1.84,1.84-1.84h20.19c1.01,0,1.84.83,1.84,1.84v57.6h2.63v-57.6c0-2.46-2.01-4.47-4.47-4.47"></path>
    <path class="cls-1" d="m46.94,54.88h-10.91c-2.47,0-4.47,2.01-4.47,4.47v32.74h2.63v-32.74c0-1.01.82-1.84,1.84-1.84h10.91v-2.63Z"></path>
    <path class="cls-1" d="m99.98,86.77c-.82,1.28-1.69,2.52-2.63,3.71v1.61h2.63v-5.32Z"></path>
    <path class="cls-1" d="m95.51,63.38h-11.11v2.63h11.11c1.01,0,1.84.82,1.84,1.84v22.63c.94-1.19,1.81-2.43,2.63-3.71v-18.92c0-2.46-2.01-4.47-4.47-4.47"></path>
  </g>
  <rect class="cls-2" x=".04" y="-.87" width="17.01" height="120.91"></rect>
</svg>
