<?xml version="1.0" encoding="UTF-8"?>
<svg xmlns="http://www.w3.org/2000/svg" xmlns:xlink="http://www.w3.org/1999/xlink" id="ville_verte" data-name="ville verte" viewBox="0 0 120 120">
  <defs>
    <style>
      .cls-1 {
        fill: #5a606d;
      }

      .cls-2 {
        clip-path: url(#clippath);
      }

      .cls-3 {
        fill: none;
      }

      .cls-4 {
        fill: #a4c615;
      }
    </style>
    <clipPath id="clippath">
      <rect class="cls-3" x="31.36" y="31.19" width="77.73" height="60.62"></rect>
    </clipPath>
  </defs>
  <g class="cls-2">
    <path class="cls-1" d="m108.48,65.83c-.06,3.51-.54,6.92-1.38,10.18,1.26-1.84,1.99-4.06,1.99-6.45,0-1.3-.21-2.55-.61-3.73"></path>
    <path class="cls-1" d="m89.87,77.15c-1.67,1.26-3.75,1.92-5.82,1.92-1.17,0-2.34-.21-3.43-.64l-.71,1.81c1.32.52,2.73.77,4.14.77,2.02,0,4.05-.52,5.82-1.54v-2.33Zm.99-27.62c-2.51,0-4.9.84-6.92,2.43l1.2,1.53c1.67-1.32,3.65-2.01,5.71-2.01,4.59,0,8.63,3.57,9.6,8.49l.1.52.5.19c3.69,1.44,6.08,4.92,6.08,8.88,0,5.26-4.28,9.54-9.53,9.54-2.1,0-4.14-.7-5.8-1.97v2.33c1.75,1.02,3.75,1.58,5.8,1.58,3.94,0,7.42-1.99,9.48-5.02.84-3.26,1.31-6.67,1.38-10.18-1.01-2.98-3.23-5.44-6.22-6.76-1.33-5.56-6.05-9.54-11.4-9.54"></path>
    <path class="cls-1" d="m89.87,69.86v2.31l.95.57c.46.28.61.87.33,1.33-.18.3-.5.47-.83.47l-.44-.12v15.45h1.94v-19.56l-.54.27-.44.11c-.35,0-.69-.19-.87-.53-.05-.1-.08-.2-.1-.3m.97-7.32c-.54,0-.97.43-.97.97v6.07c.04-.3.23-.58.52-.73l1.42-.72v-4.62c0-.54-.43-.97-.97-.97"></path>
    <path class="cls-1" d="m85.98,69.99c-.33,0-.65.17-.83.47-.28.46-.13,1.06.33,1.33l4.34,2.61.06.02.44.12c.33,0,.65-.17.83-.47.28-.46.13-1.06-.33-1.33l-.95-.57-3.39-2.05c-.16-.09-.33-.14-.5-.14"></path>
    <path class="cls-1" d="m96.29,65.97c-.15,0-.3.03-.44.11l-4.03,2.06-1.42.72c-.29.15-.48.43-.52.73-.01.09-.01.18,0,.28.01.1.05.2.1.3.17.34.51.53.87.53l.44-.1.54-.28,4.92-2.51c.48-.24.67-.83.42-1.31-.17-.34-.51-.53-.87-.53"></path>
    <path class="cls-1" d="m67.59,35.44c-8.2,0-13.78,15.69-15.38,25.58-1.63,10.09,4.16,15.85,10.12,17.89l.62-1.84c-5.21-1.78-10.26-6.84-8.83-15.74,1.56-9.66,6.92-23.95,13.47-23.95s11.66,14.23,13.33,23.8c.88,5.09,0,9.34-2.55,12.31-2.26,2.63-5.88,4.23-9.83,4.38v1.94c4.51-.16,8.68-2.01,11.31-5.06,2.94-3.42,3.98-8.23,2.99-13.91-1.64-9.44-6.7-25.41-15.24-25.41"></path>
    <path class="cls-1" d="m58.73,62.45c-.28,0-.56.12-.75.35-.34.41-.28,1.03.13,1.37l8.49,6.99v-2.51l-7.25-5.97c-.18-.15-.4-.22-.62-.22"></path>
    <path class="cls-1" d="m62,55.18c-.28,0-.56.12-.75.35-.34.41-.28,1.02.13,1.37l5.18,4.28s.03.02.04.03v-2.52l-3.98-3.29c-.18-.15-.4-.22-.62-.22"></path>
    <path class="cls-1" d="m76.38,62.45c-.22,0-.44.07-.62.22l-7.23,5.95v2.51l8.46-6.97c.41-.34.47-.95.13-1.37-.19-.23-.47-.35-.75-.35"></path>
    <path class="cls-1" d="m73.12,55.18c-.22,0-.44.07-.62.22l-3.96,3.27v2.52s0,0,.01-.01l5.18-4.28c.41-.34.47-.95.13-1.37-.19-.23-.47-.35-.75-.35"></path>
    <path class="cls-1" d="m67.57,50.15c-.54,0-.97.43-.97.97v38.75h1.94v-28.68s0-2.52,0-2.52v-7.56c0-.54-.43-.97-.97-.97"></path>
    <path class="cls-1" d="m53.24,76.78c-1.65,2.18-4.42,3.55-7.54,3.71v1.94c3.73-.18,7.07-1.81,9.09-4.48l-1.55-1.17Z"></path>
    <path class="cls-1" d="m44.75,47.7c-7.29,0-11.21,14.4-12.11,19.95-1.28,7.93,3.28,12.47,7.97,14.07l.63-1.84c-1.91-.65-8.05-3.44-6.68-11.92,1.19-7.39,5.26-18.32,10.19-18.32,1.8,0,3.56,1.37,5.24,4.08l1.65-1.02c-2.05-3.32-4.37-5-6.89-5"></path>
    <path class="cls-1" d="m37.9,68.58c-.28,0-.56.12-.75.35-.34.41-.28,1.02.13,1.37l6.48,5.34v-2.51l-5.25-4.32c-.18-.15-.4-.22-.62-.22"></path>
    <path class="cls-1" d="m40.42,62.96c-.28,0-.56.12-.75.35-.34.41-.28,1.02.13,1.37l3.95,3.27v-2.52l-2.72-2.25c-.18-.15-.4-.22-.62-.22"></path>
    <polygon class="cls-1" points="49.34 70.1 45.7 73.1 45.7 75.62 50.58 71.6 49.34 70.1"></polygon>
    <polygon class="cls-1" points="48.52 63.09 45.7 65.41 45.7 67.93 49.76 64.58 48.52 63.09"></polygon>
    <path class="cls-1" d="m44.73,59.06c-.54,0-.97.43-.97.97v29.83h1.94v-14.25s0-2.51,0-2.51v-13.07c0-.54-.43-.97-.97-.97"></path>
    <path class="cls-1" d="m87.2,41.87c-2.41,0-4.37-1.96-4.37-4.37s1.96-4.37,4.37-4.37,4.37,1.96,4.37,4.37-1.96,4.37-4.37,4.37m0-10.68h0c-3.48,0-6.31,2.83-6.31,6.31s2.83,6.31,6.31,6.31,6.31-2.83,6.31-6.31-2.83-6.31-6.31-6.31"></path>
    <path class="cls-1" d="m100.43,90.38c-.34.49-.7.97-1.06,1.44h.24c.52-.01.94-.44.94-.97,0-.17-.04-.33-.12-.47"></path>
    <path class="cls-1" d="m99.58,89.87h-62.91c-.54,0-.97.43-.97.97s.42.96.94.97h62.73c.36-.47.72-.95,1.06-1.44-.17-.3-.48-.51-.85-.51"></path>
    <path class="cls-1" d="m105.85,89.87h-2.33c-.54,0-.97.43-.97.97s.42.96.94.97h2.38c.52-.02.94-.44.94-.97s-.43-.97-.97-.97"></path>
  </g>
  <rect class="cls-4" x=".47" y="-.15" width="17.01" height="121.19"></rect>
</svg>
