<?xml version="1.0" encoding="utf-8"?>
<!-- Generator: Adobe Illustrator 25.2.2, SVG Export Plug-In . SVG Version: 6.00 Build 0)  -->
<svg version="1.1" id="Calque_1" xmlns="http://www.w3.org/2000/svg" xmlns:xlink="http://www.w3.org/1999/xlink" x="0px" y="0px"
	 viewBox="0 0 46 46" style="enable-background:new 0 0 46 46;" xml:space="preserve">
<style type="text/css">
	.st0{fill:#FFFFFF;}
	.st1{fill:#214292;}
	.st2{fill:#101418;}
</style>
<path class="st0" d="M45.09,23.01c0,12.1-9.81,21.91-21.91,21.91c-12.1,0-21.91-9.81-21.91-21.91S11.09,1.1,23.19,1.1
	C35.28,1.1,45.09,10.91,45.09,23.01"/>
<path class="st1" d="M23.83,2.02c-0.5-0.02-0.89-0.43-0.88-0.93c0.02-0.5,0.43-0.89,0.94-0.88c0.5,0.02,0.89,0.43,0.88,0.93
	c-0.01,0.49-0.42,0.88-0.91,0.88H23.83z M20.15,1.29c-0.05-0.5,0.32-0.94,0.81-0.99c0.5-0.05,0.94,0.32,0.99,0.82
	c0.05,0.5-0.32,0.94-0.82,0.99c-0.03,0-0.06,0-0.09,0C20.59,2.11,20.19,1.76,20.15,1.29 M26.51,2.27c-0.5-0.08-0.83-0.54-0.75-1.04
	c0.08-0.49,0.54-0.83,1.04-0.75c0.49,0.08,0.83,0.54,0.75,1.04c-0.07,0.45-0.46,0.77-0.89,0.77C26.6,2.28,26.55,2.28,26.51,2.27
	 M17.4,1.86c-0.11-0.49,0.19-0.98,0.68-1.09c0.49-0.11,0.98,0.19,1.09,0.68c0.11,0.49-0.19,0.98-0.68,1.09
	c-0.07,0.02-0.13,0.02-0.2,0.02C17.87,2.56,17.49,2.28,17.4,1.86 M29.13,2.86c-0.48-0.14-0.75-0.65-0.61-1.13
	c0.14-0.48,0.65-0.76,1.12-0.61h0c0.48,0.14,0.75,0.65,0.61,1.12c-0.12,0.4-0.48,0.65-0.87,0.65C29.3,2.9,29.22,2.89,29.13,2.86
	 M14.74,2.77c-0.17-0.47,0.07-0.99,0.54-1.17c0.47-0.17,0.99,0.07,1.16,0.54c0.17,0.47-0.07,0.99-0.54,1.16
	c-0.1,0.04-0.21,0.06-0.31,0.06C15.22,3.36,14.87,3.14,14.74,2.77 M31.66,3.79c-0.46-0.2-0.67-0.74-0.46-1.2
	c0.2-0.46,0.74-0.67,1.2-0.46c0.46,0.2,0.67,0.74,0.46,1.2c-0.15,0.34-0.48,0.54-0.83,0.54C31.9,3.86,31.78,3.84,31.66,3.79
	 M12.22,4.02c-0.23-0.44-0.06-0.99,0.38-1.22c0.44-0.23,0.99-0.06,1.23,0.38c0.23,0.44,0.06,0.99-0.38,1.23
	c-0.13,0.07-0.28,0.1-0.42,0.1C12.7,4.5,12.38,4.33,12.22,4.02 M34.04,5.03L34.04,5.03c-0.43-0.26-0.57-0.82-0.31-1.25
	c0.26-0.43,0.82-0.57,1.25-0.31c0.43,0.26,0.57,0.82,0.31,1.25c-0.17,0.28-0.47,0.44-0.78,0.44C34.35,5.16,34.19,5.12,34.04,5.03
	 M9.89,5.58C9.6,5.17,9.7,4.6,10.11,4.31c0.41-0.29,0.98-0.19,1.26,0.22c0.29,0.41,0.19,0.98-0.22,1.26
	c-0.16,0.11-0.34,0.16-0.52,0.16C10.34,5.96,10.06,5.83,9.89,5.58 M36.25,6.57L36.25,6.57c-0.39-0.31-0.46-0.88-0.15-1.27
	c0.31-0.39,0.88-0.46,1.27-0.15c0.39,0.31,0.46,0.88,0.15,1.27c-0.18,0.23-0.44,0.34-0.71,0.34C36.62,6.77,36.42,6.7,36.25,6.57
	 M7.77,7.42C7.43,7.05,7.46,6.48,7.83,6.14C8.2,5.8,8.77,5.83,9.11,6.2c0.34,0.37,0.31,0.94-0.06,1.28
	C8.88,7.64,8.66,7.72,8.44,7.72C8.19,7.72,7.95,7.62,7.77,7.42 M38.25,8.38c-0.35-0.36-0.34-0.93,0.02-1.28
	c0.36-0.35,0.93-0.34,1.28,0.02c0.35,0.36,0.34,0.94-0.02,1.28c-0.18,0.17-0.4,0.26-0.63,0.26C38.66,8.65,38.43,8.56,38.25,8.38
	 M5.9,9.52c-0.38-0.32-0.43-0.9-0.1-1.28h0c0.32-0.38,0.9-0.43,1.28-0.1c0.38,0.32,0.43,0.89,0.1,1.28C7,9.63,6.75,9.73,6.49,9.73
	C6.28,9.73,6.07,9.66,5.9,9.52 M40,10.42c-0.3-0.4-0.22-0.97,0.18-1.27c0.4-0.3,0.97-0.22,1.27,0.18c0.3,0.4,0.22,0.97-0.18,1.27
	c-0.16,0.12-0.35,0.18-0.54,0.18C40.44,10.78,40.17,10.66,40,10.42 M4.32,11.84C3.9,11.57,3.78,11,4.05,10.58
	c0.27-0.42,0.83-0.54,1.25-0.26c0.42,0.27,0.54,0.83,0.27,1.25c-0.17,0.27-0.46,0.41-0.76,0.41C4.64,11.99,4.47,11.94,4.32,11.84
	 M41.47,12.67c-0.25-0.44-0.09-0.99,0.34-1.24c0.44-0.25,0.99-0.09,1.24,0.34c0.25,0.44,0.09,0.99-0.34,1.24
	c-0.14,0.08-0.29,0.12-0.45,0.12C41.94,13.13,41.63,12.97,41.47,12.67 M3.04,14.34c-0.45-0.22-0.64-0.76-0.43-1.21
	c0.22-0.45,0.76-0.64,1.21-0.42c0.45,0.22,0.64,0.76,0.42,1.21c-0.16,0.32-0.48,0.51-0.82,0.51C3.3,14.43,3.17,14.4,3.04,14.34
	 M42.64,15.09c-0.19-0.46,0.03-0.99,0.5-1.18c0.46-0.19,0.99,0.03,1.18,0.5c0.19,0.46-0.03,0.99-0.5,1.18
	c-0.11,0.05-0.23,0.07-0.34,0.07C43.12,15.65,42.78,15.44,42.64,15.09 M2.1,16.99c-0.48-0.16-0.73-0.67-0.58-1.14
	c0.16-0.48,0.67-0.73,1.14-0.58c0.48,0.16,0.73,0.67,0.58,1.14c-0.13,0.38-0.48,0.62-0.86,0.62C2.29,17.03,2.19,17.02,2.1,16.99
	 M43.49,17.64c-0.13-0.49,0.16-0.98,0.65-1.11c0.48-0.13,0.98,0.16,1.11,0.65c0.13,0.48-0.16,0.98-0.65,1.11
	c-0.08,0.02-0.16,0.03-0.23,0.03C43.97,18.31,43.6,18.05,43.49,17.64 M1.5,19.73c-0.49-0.09-0.81-0.57-0.72-1.06
	c0.09-0.49,0.57-0.81,1.06-0.72c0.49,0.09,0.81,0.57,0.72,1.06c-0.08,0.43-0.46,0.74-0.89,0.74C1.62,19.75,1.56,19.75,1.5,19.73
	 M44.01,20.28c-0.06-0.5,0.29-0.95,0.78-1.02c0.5-0.06,0.95,0.29,1.02,0.78c0.06,0.5-0.29,0.95-0.78,1.02
	c-0.04,0-0.08,0.01-0.12,0.01C44.46,21.07,44.07,20.74,44.01,20.28 M1.27,22.53c-0.5-0.03-0.88-0.46-0.85-0.96
	c0.03-0.5,0.46-0.88,0.96-0.85c0.5,0.03,0.88,0.46,0.85,0.96c-0.03,0.48-0.43,0.85-0.91,0.85C1.3,22.54,1.29,22.53,1.27,22.53
	 M44.19,23.01v-0.02v-0.03c0-0.5,0.4-0.91,0.91-0.91c0.5,0,0.91,0.41,0.91,0.9c0,0.01,0,0.02,0,0.03c0,0.01,0,0.02,0,0.02
	c0,0.5-0.41,0.91-0.91,0.91C44.59,23.92,44.19,23.51,44.19,23.01 M0.42,24.49c-0.03-0.5,0.35-0.93,0.85-0.96
	c0.5-0.03,0.93,0.35,0.96,0.85c0.03,0.5-0.35,0.93-0.85,0.96c-0.02,0-0.04,0-0.06,0C0.85,25.34,0.45,24.97,0.42,24.49 M44.8,26.71
	c-0.5-0.06-0.85-0.52-0.79-1.01c0.06-0.5,0.52-0.85,1.02-0.78c0.5,0.06,0.85,0.52,0.78,1.01c-0.06,0.46-0.45,0.79-0.9,0.79
	C44.88,26.72,44.84,26.71,44.8,26.71 M0.79,27.39L0.79,27.39c-0.1-0.49,0.23-0.97,0.72-1.06c0.49-0.1,0.97,0.23,1.06,0.72
	c0.1,0.49-0.23,0.97-0.72,1.06c-0.06,0.01-0.11,0.02-0.17,0.02C1.26,28.13,0.88,27.82,0.79,27.39 M44.15,29.44
	c-0.48-0.13-0.77-0.62-0.65-1.11c0.13-0.48,0.62-0.77,1.11-0.65c0.48,0.12,0.77,0.62,0.65,1.11c-0.11,0.41-0.47,0.68-0.88,0.68
	C44.31,29.47,44.23,29.46,44.15,29.44 M1.54,30.22c-0.16-0.47,0.1-0.99,0.57-1.15c0.48-0.16,0.99,0.1,1.15,0.57
	c0.16,0.48-0.1,0.99-0.57,1.15c-0.09,0.03-0.19,0.05-0.29,0.05C2.02,30.84,1.66,30.6,1.54,30.22 M43.16,32.07
	c-0.46-0.19-0.69-0.72-0.5-1.18c0.19-0.46,0.72-0.69,1.18-0.5c0.47,0.19,0.69,0.72,0.5,1.18c-0.14,0.35-0.48,0.57-0.84,0.57
	C43.38,32.14,43.27,32.12,43.16,32.07 M2.64,32.93c-0.22-0.45-0.03-0.99,0.42-1.21s0.99-0.03,1.21,0.42
	c0.22,0.45,0.03,0.99-0.42,1.21c-0.13,0.06-0.26,0.09-0.4,0.09C3.12,33.44,2.79,33.25,2.64,32.93 M41.83,34.55
	c-0.44-0.25-0.59-0.8-0.34-1.24c0.25-0.44,0.8-0.59,1.24-0.34c0.44,0.25,0.59,0.8,0.34,1.24c-0.17,0.3-0.47,0.46-0.79,0.46
	C42.13,34.67,41.97,34.63,41.83,34.55 M4.07,35.47L4.07,35.47c-0.27-0.42-0.16-0.98,0.26-1.26c0.42-0.27,0.98-0.16,1.26,0.26
	c0.27,0.42,0.16,0.98-0.26,1.26c-0.15,0.1-0.32,0.15-0.5,0.15C4.54,35.88,4.25,35.74,4.07,35.47 M40.2,36.84
	c-0.4-0.3-0.48-0.87-0.18-1.27c0.3-0.4,0.87-0.48,1.27-0.18c0.4,0.3,0.48,0.87,0.18,1.27c-0.18,0.24-0.45,0.36-0.73,0.36
	C40.55,37.02,40.36,36.96,40.2,36.84 M5.83,37.81c-0.33-0.38-0.28-0.95,0.1-1.28c0.38-0.33,0.95-0.28,1.28,0.1
	c0.33,0.38,0.28,0.95-0.1,1.28c-0.17,0.15-0.38,0.22-0.59,0.22C6.26,38.13,6.01,38.02,5.83,37.81 M38.29,38.9
	c-0.36-0.35-0.37-0.92-0.02-1.28c0.35-0.36,0.92-0.37,1.28-0.02c0.36,0.35,0.37,0.92,0.02,1.28c-0.18,0.19-0.42,0.28-0.65,0.28
	C38.7,39.15,38.47,39.07,38.29,38.9 M7.86,39.91C7.49,39.57,7.46,39,7.8,38.62c0.34-0.37,0.91-0.4,1.28-0.06
	c0.37,0.34,0.4,0.91,0.06,1.28c-0.18,0.2-0.43,0.3-0.67,0.3C8.25,40.14,8.03,40.06,7.86,39.91 M36.14,40.7
	c-0.31-0.39-0.25-0.96,0.14-1.28c0.39-0.31,0.96-0.25,1.28,0.14c0.31,0.39,0.25,0.96-0.14,1.27v0c-0.17,0.13-0.37,0.2-0.56,0.2
	C36.58,41.04,36.32,40.92,36.14,40.7 M10.14,41.73c-0.41-0.29-0.51-0.85-0.22-1.26c0.29-0.41,0.85-0.51,1.26-0.22
	c0.41,0.29,0.51,0.85,0.22,1.26c-0.18,0.25-0.46,0.39-0.74,0.39C10.48,41.89,10.3,41.84,10.14,41.73 M33.77,42.21
	c-0.26-0.43-0.12-0.99,0.3-1.25c0.43-0.26,0.99-0.13,1.25,0.3c0.26,0.43,0.12,0.99-0.3,1.25c-0.15,0.09-0.31,0.13-0.47,0.13
	C34.24,42.65,33.94,42.49,33.77,42.21 M12.64,43.24c-0.44-0.23-0.61-0.78-0.38-1.22c0.23-0.45,0.78-0.62,1.22-0.38
	c0.44,0.23,0.62,0.78,0.38,1.22c-0.16,0.31-0.48,0.49-0.81,0.49C12.92,43.35,12.78,43.32,12.64,43.24 M31.23,43.41
	c-0.2-0.46,0-0.99,0.46-1.2c0.46-0.2,0.99,0,1.2,0.46c0.2,0.46,0,0.99-0.46,1.2c-0.12,0.05-0.24,0.08-0.37,0.08
	C31.72,43.95,31.38,43.75,31.23,43.41 M15.32,44.43L15.32,44.43c-0.47-0.17-0.71-0.69-0.54-1.16c0.17-0.47,0.7-0.71,1.16-0.54
	c0.47,0.17,0.71,0.69,0.54,1.16c-0.13,0.37-0.48,0.59-0.85,0.59C15.53,44.48,15.42,44.47,15.32,44.43 M28.56,44.27
	c-0.14-0.48,0.13-0.99,0.61-1.13c0.48-0.14,0.99,0.13,1.13,0.61c0.14,0.48-0.13,0.98-0.61,1.13c-0.08,0.03-0.17,0.04-0.26,0.04
	C29.04,44.92,28.68,44.66,28.56,44.27 M18.12,45.26c-0.49-0.11-0.79-0.6-0.68-1.09c0.11-0.49,0.6-0.79,1.08-0.68
	c0.49,0.11,0.79,0.6,0.69,1.08c-0.1,0.42-0.47,0.71-0.88,0.71C18.26,45.28,18.19,45.27,18.12,45.26 M25.8,44.78
	c-0.08-0.49,0.26-0.96,0.75-1.04c0.49-0.08,0.96,0.26,1.04,0.75c0.08,0.49-0.26,0.96-0.75,1.04c-0.05,0.01-0.1,0.01-0.15,0.01
	C26.25,45.54,25.87,45.23,25.8,44.78 M21.01,45.72L21.01,45.72c-0.5-0.05-0.86-0.49-0.82-0.99c0.05-0.5,0.49-0.86,0.99-0.82
	c0.5,0.05,0.86,0.49,0.82,0.99c-0.04,0.47-0.44,0.82-0.9,0.82C21.07,45.72,21.04,45.72,21.01,45.72 M22.99,44.93
	c-0.02-0.5,0.38-0.92,0.88-0.94h0c0.5-0.02,0.92,0.38,0.94,0.88c0.02,0.5-0.38,0.92-0.88,0.94H23.9
	C23.41,45.81,23.01,45.42,22.99,44.93"/>
<path class="st0" d="M23.2,42.58C12.39,42.59,3.62,33.83,3.61,23.02C3.61,12.21,12.37,3.44,23.18,3.44S42.75,12.19,42.76,23
	C42.76,33.81,34.01,42.58,23.2,42.58"/>
<path class="st1" d="M24.36,4.28L24.36,4.28c-0.44-0.03-0.78-0.41-0.75-0.85c0.03-0.45,0.41-0.78,0.85-0.76
	c0.44,0.03,0.78,0.41,0.75,0.85c-0.03,0.43-0.38,0.76-0.8,0.76H24.36z M21.1,3.53c-0.03-0.44,0.31-0.83,0.75-0.86
	c0.45-0.03,0.83,0.31,0.86,0.75c0.03,0.45-0.31,0.83-0.75,0.86c-0.02,0-0.04,0-0.05,0C21.48,4.28,21.13,3.96,21.1,3.53 M26.75,4.58
	c-0.44-0.08-0.72-0.51-0.64-0.95C26.19,3.2,26.61,2.91,27.05,3c0.44,0.08,0.72,0.51,0.64,0.94c-0.07,0.39-0.41,0.66-0.79,0.66
	C26.85,4.59,26.8,4.59,26.75,4.58 M18.63,3.95c-0.08-0.44,0.2-0.86,0.64-0.95c0.44-0.08,0.86,0.2,0.95,0.64
	c0.08,0.44-0.2,0.86-0.64,0.95c-0.05,0.01-0.1,0.02-0.16,0.02C19.04,4.61,18.7,4.34,18.63,3.95 M29.07,5.18L29.07,5.18
	c-0.42-0.14-0.65-0.6-0.51-1.02c0.14-0.42,0.6-0.65,1.02-0.51h0c0.42,0.14,0.65,0.59,0.51,1.02c-0.11,0.34-0.43,0.55-0.77,0.55
	C29.24,5.23,29.16,5.21,29.07,5.18 M16.23,4.69c-0.14-0.42,0.09-0.88,0.51-1.02c0.42-0.14,0.88,0.09,1.02,0.51
	c0.14,0.42-0.09,0.88-0.51,1.02c-0.08,0.03-0.17,0.04-0.25,0.04C16.65,5.24,16.34,5.03,16.23,4.69 M31.3,6.08L31.3,6.08
	c-0.4-0.19-0.57-0.68-0.38-1.08c0.19-0.4,0.68-0.57,1.08-0.38c0.4,0.19,0.57,0.67,0.38,1.08C32.24,6,31.95,6.16,31.65,6.16
	C31.53,6.16,31.41,6.14,31.3,6.08 M13.94,5.73c-0.19-0.4-0.03-0.88,0.38-1.08c0.4-0.2,0.88-0.03,1.08,0.37
	c0.2,0.4,0.03,0.88-0.37,1.08c-0.11,0.05-0.23,0.08-0.35,0.08C14.37,6.19,14.08,6.02,13.94,5.73 M33.4,7.26
	c-0.37-0.24-0.48-0.74-0.24-1.12c0.24-0.37,0.74-0.48,1.11-0.24c0.37,0.24,0.48,0.74,0.24,1.11c-0.16,0.24-0.41,0.37-0.68,0.37
	C33.69,7.39,33.53,7.35,33.4,7.26 M11.81,7.06c-0.24-0.37-0.14-0.87,0.23-1.12c0.37-0.24,0.87-0.14,1.12,0.23
	c0.24,0.37,0.14,0.87-0.23,1.12c-0.13,0.09-0.29,0.13-0.44,0.13C12.23,7.42,11.97,7.29,11.81,7.06 M35.33,8.7L35.33,8.7
	c-0.34-0.29-0.38-0.8-0.09-1.13c0.29-0.34,0.8-0.38,1.14-0.09c0.34,0.29,0.38,0.8,0.09,1.14c-0.16,0.19-0.39,0.28-0.61,0.28
	C35.66,8.89,35.48,8.83,35.33,8.7 M9.87,8.64C9.58,8.31,9.62,7.8,9.96,7.51c0.34-0.29,0.85-0.25,1.14,0.09
	c0.29,0.34,0.25,0.85-0.09,1.14c-0.15,0.13-0.34,0.19-0.52,0.19C10.25,8.93,10.03,8.83,9.87,8.64 M37.06,10.37L37.06,10.37
	c-0.3-0.33-0.28-0.84,0.05-1.14c0.33-0.3,0.84-0.28,1.14,0.05c0.3,0.33,0.28,0.84-0.05,1.14c-0.15,0.14-0.35,0.21-0.54,0.21
	C37.44,10.63,37.22,10.54,37.06,10.37 M8.14,10.46c-0.33-0.3-0.35-0.81-0.06-1.14c0.3-0.33,0.81-0.35,1.14-0.06
	c0.33,0.3,0.35,0.81,0.06,1.14c-0.16,0.18-0.38,0.26-0.6,0.26C8.49,10.67,8.3,10.6,8.14,10.46 M38.56,12.25
	c-0.26-0.36-0.17-0.87,0.2-1.12c0.36-0.26,0.87-0.17,1.12,0.2c0.26,0.36,0.17,0.87-0.2,1.12c-0.14,0.1-0.3,0.15-0.46,0.15
	C38.97,12.59,38.72,12.47,38.56,12.25 M6.66,12.49c-0.36-0.26-0.45-0.76-0.2-1.12c0.25-0.37,0.76-0.46,1.12-0.2
	c0.36,0.25,0.46,0.76,0.2,1.12c-0.16,0.23-0.41,0.35-0.66,0.35C6.96,12.63,6.8,12.59,6.66,12.49 M39.81,14.3
	c-0.21-0.4-0.05-0.88,0.34-1.09c0.4-0.21,0.88-0.06,1.09,0.34c0.21,0.39,0.06,0.88-0.34,1.09c-0.12,0.06-0.25,0.09-0.37,0.09
	C40.24,14.73,39.96,14.57,39.81,14.3 M5.45,14.69C5.05,14.48,4.9,14,5.11,13.6c0.21-0.4,0.69-0.55,1.09-0.34
	c0.4,0.21,0.55,0.69,0.34,1.09c-0.14,0.28-0.43,0.43-0.72,0.43C5.69,14.78,5.57,14.75,5.45,14.69 M40.79,16.49
	c-0.15-0.42,0.06-0.88,0.48-1.04c0.42-0.16,0.88,0.06,1.04,0.48c0.15,0.42-0.06,0.88-0.48,1.04c-0.09,0.03-0.19,0.05-0.28,0.05
	C41.22,17.02,40.91,16.82,40.79,16.49 M4.53,17.02c-0.42-0.15-0.63-0.62-0.48-1.04c0.15-0.42,0.61-0.63,1.03-0.48
	c0.42,0.15,0.63,0.61,0.48,1.03c-0.12,0.33-0.43,0.53-0.76,0.53C4.71,17.07,4.62,17.06,4.53,17.02 M41.48,18.8L41.48,18.8
	c-0.1-0.44,0.17-0.87,0.61-0.97c0.43-0.1,0.87,0.17,0.97,0.61c0.1,0.43-0.17,0.86-0.6,0.97c-0.06,0.01-0.12,0.02-0.18,0.02
	C41.89,19.42,41.56,19.17,41.48,18.8 M3.92,19.46c-0.43-0.1-0.71-0.53-0.61-0.96c0.1-0.44,0.53-0.71,0.96-0.61
	c0.43,0.1,0.71,0.53,0.61,0.96c-0.08,0.37-0.42,0.63-0.79,0.63C4.04,19.48,3.98,19.47,3.92,19.46 M41.86,21.17
	c-0.04-0.44,0.28-0.84,0.72-0.88c0.44-0.04,0.84,0.28,0.88,0.72c0.04,0.44-0.28,0.84-0.72,0.88c-0.03,0-0.05,0-0.08,0
	C42.25,21.9,41.9,21.58,41.86,21.17 M3.62,21.95c-0.44-0.04-0.77-0.44-0.73-0.88c0.04-0.44,0.44-0.77,0.88-0.73
	c0.44,0.04,0.77,0.44,0.73,0.88c-0.04,0.42-0.39,0.73-0.8,0.73C3.68,21.96,3.65,21.96,3.62,21.95 M42.73,24.4
	c-0.45-0.01-0.8-0.38-0.78-0.83c0.01-0.44,0.39-0.79,0.83-0.78c0.45,0.01,0.8,0.39,0.78,0.83c-0.01,0.44-0.37,0.78-0.8,0.78H42.73z
	 M2.82,23.68c-0.01-0.45,0.33-0.82,0.78-0.83c0.45-0.01,0.82,0.33,0.83,0.78c0.01,0.45-0.33,0.82-0.78,0.83H3.62
	C3.19,24.46,2.83,24.12,2.82,23.68 M42.39,26.89c-0.44-0.07-0.74-0.48-0.67-0.92c0.07-0.44,0.48-0.74,0.92-0.67
	c0.44,0.07,0.74,0.48,0.67,0.92c-0.06,0.4-0.41,0.68-0.8,0.68C42.48,26.9,42.43,26.9,42.39,26.89 M3.07,26.28
	C3,25.84,3.3,25.43,3.74,25.36c0.44-0.07,0.85,0.23,0.92,0.67c0.07,0.44-0.23,0.85-0.67,0.93c-0.04,0.01-0.09,0.01-0.13,0.01
	C3.48,26.96,3.13,26.68,3.07,26.28 M41.74,29.31c-0.43-0.13-0.67-0.57-0.55-1c0.13-0.43,0.57-0.67,1-0.55
	c0.43,0.13,0.67,0.57,0.55,1c-0.1,0.35-0.43,0.58-0.77,0.58C41.89,29.34,41.82,29.33,41.74,29.31 M3.65,28.83
	c-0.13-0.43,0.12-0.88,0.54-1c0.43-0.13,0.88,0.12,1,0.54c0.13,0.43-0.12,0.87-0.54,1C4.58,29.39,4.5,29.4,4.42,29.4
	C4.08,29.4,3.75,29.18,3.65,28.83 M40.78,31.63c-0.41-0.18-0.59-0.66-0.41-1.06c0.18-0.41,0.66-0.59,1.06-0.41
	c0.41,0.18,0.59,0.66,0.41,1.06c-0.13,0.3-0.43,0.48-0.74,0.48C41,31.7,40.89,31.68,40.78,31.63 M4.55,31.28
	c-0.18-0.41,0-0.88,0.41-1.06c0.41-0.18,0.88,0,1.06,0.41c0.18,0.41,0,0.88-0.41,1.06c-0.1,0.05-0.22,0.07-0.33,0.07
	C4.98,31.76,4.69,31.58,4.55,31.28 M39.53,33.81c-0.38-0.23-0.5-0.73-0.27-1.11c0.23-0.38,0.73-0.5,1.11-0.27
	c0.38,0.23,0.5,0.73,0.27,1.11c-0.15,0.25-0.42,0.39-0.69,0.39C39.8,33.93,39.66,33.89,39.53,33.81 M5.77,33.59
	c-0.23-0.38-0.11-0.88,0.27-1.11c0.38-0.23,0.88-0.11,1.11,0.27c0.23,0.38,0.11,0.88-0.27,1.11c-0.13,0.08-0.28,0.12-0.42,0.12
	C6.18,33.97,5.92,33.84,5.77,33.59 M38.01,35.81c-0.35-0.28-0.41-0.79-0.13-1.13c0.28-0.35,0.79-0.41,1.13-0.13
	c0.35,0.28,0.41,0.78,0.13,1.13c-0.16,0.2-0.4,0.31-0.63,0.31C38.34,35.99,38.16,35.93,38.01,35.81 M7.26,35.73
	c-0.28-0.35-0.22-0.86,0.13-1.13c0.35-0.28,0.85-0.22,1.13,0.13c0.28,0.35,0.22,0.85-0.12,1.13c-0.15,0.12-0.33,0.18-0.5,0.18
	C7.66,36.03,7.42,35.92,7.26,35.73 M36.25,37.6c-0.31-0.32-0.3-0.83,0.02-1.14c0.32-0.31,0.83-0.3,1.14,0.02
	c0.31,0.32,0.3,0.83-0.02,1.14c-0.16,0.15-0.36,0.23-0.56,0.23C36.62,37.84,36.41,37.76,36.25,37.6 M9.02,37.66
	C8.7,37.35,8.69,36.83,9,36.52c0.31-0.32,0.82-0.33,1.14-0.02c0.32,0.31,0.33,0.82,0.02,1.14C10,37.8,9.79,37.88,9.58,37.88
	C9.38,37.88,9.17,37.81,9.02,37.66 M34.28,39.15c-0.27-0.35-0.2-0.86,0.16-1.13c0.35-0.27,0.86-0.2,1.13,0.16
	c0.27,0.35,0.2,0.86-0.16,1.13c-0.15,0.11-0.31,0.16-0.48,0.16C34.68,39.48,34.44,39.36,34.28,39.15 M11.01,39.35
	c-0.36-0.27-0.43-0.77-0.16-1.13c0.27-0.36,0.77-0.43,1.13-0.16c0.36,0.27,0.43,0.77,0.16,1.13c-0.16,0.21-0.4,0.32-0.65,0.32
	C11.32,39.51,11.15,39.46,11.01,39.35 M32.13,40.44c-0.22-0.39-0.08-0.88,0.3-1.1c0.39-0.22,0.88-0.08,1.1,0.3
	c0.22,0.39,0.08,0.88-0.3,1.1c-0.12,0.07-0.26,0.11-0.4,0.11C32.55,40.85,32.28,40.7,32.13,40.44 M13.2,40.77
	c-0.39-0.22-0.53-0.71-0.31-1.1c0.22-0.39,0.71-0.53,1.1-0.31c0.39,0.22,0.53,0.71,0.31,1.1c-0.15,0.26-0.42,0.41-0.7,0.41
	C13.46,40.88,13.32,40.84,13.2,40.77 M29.83,41.44c-0.17-0.41,0.03-0.88,0.44-1.05c0.41-0.17,0.88,0.03,1.05,0.44
	c0.17,0.41-0.03,0.88-0.44,1.05c-0.1,0.04-0.2,0.06-0.3,0.06C30.26,41.94,29.96,41.75,29.83,41.44 M15.55,41.91
	c-0.41-0.17-0.61-0.64-0.45-1.05c0.17-0.41,0.64-0.61,1.05-0.45c0.41,0.17,0.61,0.64,0.45,1.05c-0.13,0.31-0.43,0.5-0.75,0.5
	C15.75,41.97,15.65,41.95,15.55,41.91 M27.42,42.14c-0.11-0.43,0.14-0.87,0.57-0.98c0.43-0.11,0.87,0.14,0.99,0.57
	c0.11,0.43-0.14,0.87-0.57,0.99c-0.07,0.02-0.14,0.03-0.21,0.03C27.84,42.74,27.52,42.5,27.42,42.14 M18.03,42.73
	c-0.43-0.11-0.69-0.55-0.58-0.98c0.11-0.43,0.55-0.69,0.98-0.58c0.43,0.11,0.69,0.55,0.58,0.98c-0.09,0.36-0.42,0.6-0.78,0.6
	C18.17,42.75,18.1,42.75,18.03,42.73 M24.94,42.52c-0.06-0.44,0.25-0.85,0.7-0.91c0.44-0.06,0.84,0.25,0.9,0.7
	c0.06,0.44-0.25,0.85-0.7,0.9c-0.04,0.01-0.07,0.01-0.1,0.01C25.34,43.22,24.99,42.93,24.94,42.52 M20.59,43.22
	c-0.44-0.06-0.75-0.46-0.7-0.9c0.06-0.44,0.46-0.75,0.9-0.7c0.44,0.06,0.75,0.46,0.7,0.9c-0.05,0.41-0.4,0.71-0.8,0.71
	C20.66,43.23,20.63,43.23,20.59,43.22 M23.22,43.39H23.2c-0.45,0-0.81-0.36-0.81-0.81s0.36-0.81,0.81-0.81h0.02h0.02
	c0.45,0,0.81,0.36,0.81,0.8c0,0.45-0.36,0.81-0.8,0.81H23.22z"/>
<path class="st0" d="M23.21,40.25c-9.52,0.01-17.25-7.7-17.26-17.22c-0.01-9.52,7.7-17.25,17.22-17.26
	c9.52-0.01,17.25,7.7,17.26,17.22C40.44,32.51,32.73,40.24,23.21,40.25"/>
<path class="st1" d="M22.44,5.77c0-0.39,0.31-0.71,0.7-0.71c0.39,0,0.71,0.31,0.71,0.71c0,0.39-0.31,0.71-0.7,0.71h0
	C22.76,6.47,22.44,6.16,22.44,5.77 M25.22,6.6c-0.39-0.05-0.66-0.4-0.61-0.79c0.05-0.39,0.4-0.66,0.79-0.61
	c0.39,0.05,0.66,0.4,0.61,0.79c-0.04,0.36-0.35,0.62-0.7,0.62C25.28,6.6,25.25,6.6,25.22,6.6 M20.29,6
	c-0.05-0.39,0.22-0.74,0.61-0.79c0.39-0.05,0.74,0.22,0.79,0.61c0.05,0.39-0.22,0.74-0.61,0.79c-0.03,0-0.06,0.01-0.09,0.01
	C20.64,6.61,20.33,6.35,20.29,6 M27.26,6.98L27.26,6.98c-0.38-0.09-0.61-0.48-0.51-0.86c0.09-0.38,0.48-0.61,0.86-0.51
	c0.38,0.09,0.61,0.48,0.51,0.86C28.04,6.79,27.75,7,27.44,7C27.38,7,27.32,7,27.26,6.98 M18.18,6.49c-0.1-0.38,0.13-0.76,0.51-0.86
	c0.38-0.1,0.76,0.13,0.86,0.51c0.1,0.38-0.13,0.76-0.51,0.86c-0.06,0.02-0.12,0.02-0.18,0.02C18.55,7.02,18.26,6.81,18.18,6.49
	 M29.24,7.62c-0.36-0.14-0.54-0.55-0.4-0.91c0.14-0.36,0.55-0.54,0.91-0.4c0.36,0.14,0.54,0.55,0.4,0.92
	c-0.11,0.28-0.38,0.45-0.66,0.45C29.41,7.67,29.32,7.65,29.24,7.62 M16.15,7.25c-0.15-0.36,0.03-0.77,0.4-0.92
	c0.36-0.14,0.77,0.03,0.91,0.4c0.15,0.36-0.03,0.77-0.39,0.92c-0.09,0.03-0.17,0.05-0.26,0.05C16.52,7.69,16.26,7.53,16.15,7.25
	 M31.12,8.5c-0.34-0.19-0.47-0.61-0.28-0.96c0.19-0.34,0.62-0.47,0.96-0.28c0.34,0.19,0.47,0.62,0.28,0.96
	c-0.13,0.23-0.37,0.36-0.62,0.36C31.34,8.59,31.23,8.56,31.12,8.5 M14.23,8.26c-0.19-0.34-0.06-0.77,0.28-0.96
	c0.34-0.19,0.77-0.06,0.96,0.28c0.19,0.34,0.06,0.77-0.28,0.96c-0.11,0.06-0.23,0.09-0.34,0.09C14.6,8.62,14.36,8.49,14.23,8.26
	 M32.87,9.61c-0.32-0.23-0.39-0.67-0.16-0.99c0.23-0.31,0.67-0.38,0.99-0.16c0.32,0.23,0.39,0.67,0.16,0.99
	c-0.14,0.19-0.35,0.29-0.57,0.29C33.14,9.74,33,9.7,32.87,9.61 M12.46,9.5c-0.23-0.31-0.16-0.76,0.15-0.99h0
	c0.31-0.23,0.75-0.16,0.99,0.15c0.23,0.31,0.16,0.76-0.16,0.99c-0.12,0.09-0.27,0.13-0.42,0.13C12.81,9.78,12.6,9.69,12.46,9.5
	 M34.48,10.93L34.48,10.93c-0.29-0.27-0.3-0.71-0.03-1c0.27-0.28,0.71-0.3,1-0.03c0.28,0.27,0.3,0.71,0.03,1
	c-0.14,0.15-0.33,0.22-0.51,0.22C34.79,11.12,34.61,11.06,34.48,10.93 M10.85,10.95c-0.27-0.28-0.26-0.73,0.03-1
	c0.28-0.27,0.73-0.25,1,0.03c0.27,0.28,0.25,0.73-0.03,1c-0.13,0.13-0.31,0.19-0.48,0.19C11.18,11.17,10.99,11.09,10.85,10.95
	 M35.9,12.44c-0.25-0.3-0.21-0.75,0.09-1c0.3-0.25,0.74-0.21,0.99,0.09c0.25,0.3,0.21,0.74-0.09,0.99
	c-0.13,0.11-0.29,0.16-0.45,0.16C36.24,12.7,36.04,12.61,35.9,12.44 M9.43,12.59c-0.3-0.25-0.34-0.69-0.09-0.99
	c0.25-0.3,0.69-0.34,0.99-0.09c0.3,0.25,0.34,0.69,0.09,0.99c-0.14,0.17-0.34,0.26-0.54,0.26C9.73,12.75,9.57,12.7,9.43,12.59
	 M37.13,14.12c-0.21-0.33-0.11-0.77,0.21-0.98c0.33-0.21,0.76-0.11,0.97,0.22c0.21,0.33,0.11,0.76-0.21,0.97
	c-0.12,0.07-0.25,0.11-0.38,0.11C37.49,14.44,37.26,14.33,37.13,14.12 M8.24,14.39c-0.33-0.21-0.43-0.64-0.22-0.97
	c0.21-0.33,0.65-0.43,0.97-0.22c0.33,0.21,0.43,0.65,0.22,0.97c-0.14,0.21-0.36,0.33-0.6,0.33C8.48,14.5,8.35,14.47,8.24,14.39
	 M38.13,15.93c-0.17-0.35-0.02-0.77,0.33-0.94c0.35-0.17,0.77-0.02,0.94,0.33c0.17,0.35,0.02,0.77-0.33,0.94
	c-0.1,0.05-0.2,0.07-0.3,0.07C38.51,16.33,38.25,16.18,38.13,15.93 M7.27,16.33c-0.35-0.17-0.5-0.59-0.34-0.94
	c0.17-0.35,0.59-0.5,0.94-0.34c0.35,0.17,0.5,0.58,0.34,0.94c-0.12,0.26-0.37,0.41-0.64,0.41C7.47,16.4,7.37,16.38,7.27,16.33
	 M38.9,17.86c-0.12-0.37,0.08-0.77,0.45-0.89c0.37-0.12,0.77,0.08,0.89,0.45c0.12,0.37-0.08,0.77-0.45,0.89
	c-0.07,0.02-0.15,0.03-0.22,0.03C39.27,18.34,39,18.15,38.9,17.86 M6.56,18.38c-0.37-0.12-0.57-0.52-0.46-0.89
	c0.12-0.37,0.52-0.57,0.89-0.46c0.37,0.12,0.57,0.52,0.45,0.89c-0.1,0.3-0.37,0.49-0.67,0.49C6.71,18.41,6.63,18.4,6.56,18.38
	 M39.42,19.87L39.42,19.87c-0.07-0.38,0.18-0.75,0.56-0.83c0.38-0.07,0.75,0.18,0.82,0.56c0.07,0.38-0.18,0.75-0.56,0.83
	c-0.04,0.01-0.09,0.01-0.13,0.01C39.78,20.44,39.49,20.2,39.42,19.87 M6.11,20.5c-0.38-0.07-0.64-0.44-0.56-0.82
	c0.07-0.38,0.44-0.63,0.82-0.56c0.38,0.07,0.63,0.44,0.56,0.82c-0.06,0.34-0.36,0.57-0.69,0.57C6.2,20.51,6.16,20.51,6.11,20.5
	 M39.68,21.92L39.68,21.92c-0.03-0.39,0.27-0.72,0.66-0.75c0.39-0.02,0.73,0.27,0.75,0.66c0.03,0.39-0.27,0.72-0.66,0.75h-0.05
	C40.02,22.58,39.71,22.3,39.68,21.92 M5.94,22.66c-0.39-0.02-0.69-0.36-0.66-0.75c0.02-0.39,0.36-0.69,0.75-0.66
	c0.39,0.02,0.69,0.36,0.66,0.75c-0.02,0.37-0.33,0.66-0.71,0.66C5.97,22.66,5.95,22.66,5.94,22.66 M40.35,24.75
	c-0.39-0.02-0.69-0.36-0.66-0.74c0.02-0.39,0.36-0.69,0.75-0.66c0.39,0.02,0.69,0.36,0.66,0.75c-0.02,0.37-0.33,0.66-0.7,0.66
	C40.38,24.75,40.37,24.75,40.35,24.75 M5.28,24.16c-0.03-0.39,0.27-0.72,0.66-0.75c0.39-0.02,0.72,0.27,0.75,0.66
	c0.03,0.39-0.27,0.72-0.66,0.75H5.98C5.61,24.82,5.3,24.54,5.28,24.16 M40,26.89c-0.38-0.07-0.63-0.44-0.56-0.82
	c0.07-0.38,0.44-0.64,0.82-0.56c0.38,0.07,0.63,0.44,0.56,0.82c-0.06,0.34-0.36,0.58-0.69,0.58C40.09,26.9,40.05,26.89,40,26.89
	 M5.56,26.4c-0.07-0.38,0.18-0.75,0.56-0.82c0.38-0.07,0.75,0.18,0.83,0.56c0.07,0.38-0.18,0.75-0.56,0.82
	c-0.05,0.01-0.09,0.01-0.14,0.01C5.92,26.97,5.63,26.74,5.56,26.4 M39.38,28.96c-0.37-0.12-0.57-0.52-0.46-0.89
	c0.12-0.37,0.52-0.57,0.89-0.46c0.37,0.12,0.57,0.52,0.46,0.89C40.18,28.8,39.9,29,39.6,29C39.53,29,39.46,28.99,39.38,28.96
	 M6.12,28.58C6,28.21,6.21,27.81,6.58,27.69c0.37-0.12,0.77,0.08,0.89,0.45c0.12,0.37-0.08,0.77-0.45,0.89
	c-0.07,0.02-0.15,0.03-0.22,0.03C6.5,29.07,6.22,28.88,6.12,28.58 M38.51,30.94c-0.35-0.17-0.51-0.58-0.34-0.94
	c0.17-0.35,0.58-0.51,0.94-0.34c0.35,0.17,0.5,0.58,0.34,0.94c-0.12,0.26-0.37,0.41-0.64,0.41C38.71,31.01,38.61,30.99,38.51,30.94
	 M6.96,30.67L6.96,30.67c-0.17-0.35-0.02-0.77,0.33-0.94c0.35-0.17,0.77-0.01,0.94,0.34c0.17,0.35,0.02,0.77-0.33,0.94
	c-0.1,0.05-0.2,0.07-0.3,0.07C7.33,31.08,7.08,30.93,6.96,30.67 M37.39,32.8c-0.33-0.21-0.43-0.65-0.22-0.97
	c0.21-0.33,0.64-0.43,0.97-0.22c0.33,0.21,0.43,0.65,0.22,0.97h0c-0.13,0.21-0.36,0.33-0.6,0.33C37.64,32.91,37.51,32.88,37.39,32.8
	 M8.05,32.64L8.05,32.64c-0.21-0.33-0.11-0.76,0.22-0.97c0.33-0.21,0.76-0.11,0.97,0.22c0.21,0.33,0.11,0.77-0.22,0.97
	c-0.12,0.08-0.25,0.11-0.38,0.11C8.41,32.97,8.18,32.86,8.05,32.64 M36.05,34.5c-0.3-0.25-0.34-0.69-0.09-0.99
	c0.25-0.3,0.69-0.34,0.99-0.1c0.3,0.25,0.34,0.69,0.09,0.99c-0.14,0.17-0.34,0.26-0.54,0.26C36.34,34.66,36.18,34.61,36.05,34.5
	 M9.37,34.46c-0.25-0.3-0.21-0.74,0.09-0.99c0.3-0.25,0.75-0.21,0.99,0.09c0.25,0.3,0.21,0.74-0.09,0.99
	c-0.13,0.11-0.29,0.16-0.45,0.16C9.71,34.72,9.51,34.63,9.37,34.46 M34.51,36.02c-0.27-0.28-0.26-0.73,0.03-1
	c0.28-0.27,0.73-0.26,1,0.03c0.27,0.28,0.26,0.73-0.03,1c-0.13,0.13-0.31,0.19-0.48,0.19C34.84,36.25,34.65,36.17,34.51,36.02
	 M10.92,36.11L10.92,36.11c-0.28-0.27-0.3-0.71-0.03-1c0.27-0.28,0.71-0.3,1-0.03c0.28,0.27,0.3,0.71,0.03,1
	c-0.14,0.15-0.33,0.22-0.51,0.22C11.23,36.29,11.05,36.23,10.92,36.11 M32.79,37.34c-0.23-0.31-0.16-0.76,0.15-0.99h0
	c0.31-0.23,0.76-0.16,0.99,0.15c0.23,0.31,0.16,0.76-0.15,0.99c-0.13,0.09-0.27,0.13-0.42,0.13C33.14,37.63,32.93,37.53,32.79,37.34
	 M12.65,37.54L12.65,37.54c-0.31-0.23-0.38-0.67-0.16-0.98c0.23-0.32,0.67-0.39,0.98-0.16c0.32,0.23,0.39,0.67,0.16,0.99
	c-0.14,0.19-0.35,0.29-0.57,0.29C12.93,37.67,12.78,37.63,12.65,37.54 M30.92,38.44c-0.19-0.34-0.07-0.77,0.27-0.96
	c0.34-0.19,0.77-0.07,0.96,0.27c0.19,0.34,0.07,0.77-0.27,0.96c-0.11,0.06-0.23,0.09-0.34,0.09C31.29,38.8,31.05,38.67,30.92,38.44
	 M14.56,38.75L14.56,38.75c-0.34-0.19-0.47-0.62-0.28-0.96c0.19-0.34,0.62-0.47,0.96-0.28c0.34,0.19,0.47,0.61,0.28,0.96
	c-0.13,0.23-0.37,0.37-0.62,0.37C14.78,38.83,14.67,38.81,14.56,38.75 M28.93,39.28c-0.15-0.36,0.03-0.77,0.39-0.92
	c0.36-0.14,0.77,0.03,0.92,0.4c0.15,0.36-0.03,0.77-0.39,0.91c-0.09,0.04-0.18,0.05-0.26,0.05C29.3,39.73,29.04,39.56,28.93,39.28
	 M16.6,39.7L16.6,39.7c-0.36-0.14-0.54-0.55-0.4-0.92c0.15-0.36,0.55-0.54,0.92-0.4c0.36,0.14,0.54,0.55,0.4,0.92
	c-0.11,0.28-0.38,0.45-0.66,0.45C16.77,39.75,16.68,39.74,16.6,39.7 M26.85,39.87c-0.1-0.38,0.13-0.76,0.51-0.86
	c0.38-0.1,0.76,0.13,0.86,0.51c0.1,0.38-0.13,0.76-0.51,0.86c-0.06,0.02-0.12,0.02-0.18,0.02C27.21,40.4,26.93,40.19,26.85,39.87
	 M18.74,40.4c-0.38-0.1-0.6-0.48-0.51-0.86c0.1-0.38,0.48-0.6,0.86-0.51c0.38,0.09,0.6,0.48,0.51,0.86
	c-0.08,0.32-0.37,0.53-0.68,0.53C18.86,40.42,18.8,40.41,18.74,40.4 M24.7,40.19c-0.05-0.38,0.22-0.74,0.61-0.79
	c0.39-0.05,0.74,0.22,0.79,0.61c0.05,0.39-0.22,0.74-0.61,0.79c-0.03,0-0.06,0.01-0.09,0.01C25.05,40.81,24.75,40.55,24.7,40.19
	 M20.96,40.82L20.96,40.82c-0.39-0.05-0.66-0.4-0.61-0.79c0.05-0.39,0.4-0.66,0.79-0.61c0.38,0.05,0.66,0.4,0.61,0.79
	c-0.04,0.36-0.35,0.62-0.7,0.62C21.02,40.82,20.99,40.82,20.96,40.82 M23.23,40.95H23.2c-0.39,0-0.71-0.32-0.71-0.71
	c0-0.39,0.32-0.71,0.71-0.71h0.02h0.02c0.39,0,0.71,0.31,0.71,0.7c0,0.39-0.31,0.71-0.7,0.71h0H23.23z"/>
<path class="st0" d="M23.22,37.91C14.98,37.93,8.3,31.27,8.28,23.04C8.27,14.81,14.93,8.12,23.16,8.1
	c8.23-0.02,14.92,6.64,14.93,14.88C38.11,31.21,31.45,37.9,23.22,37.91"/>
<path class="st1" d="M22.54,8.11c0-0.33,0.27-0.6,0.6-0.61c0.33,0,0.6,0.27,0.6,0.6c0,0.33-0.27,0.61-0.6,0.61h0
	C22.81,8.71,22.54,8.44,22.54,8.11 M24.87,8.81c-0.33-0.04-0.57-0.34-0.53-0.67c0.04-0.33,0.34-0.57,0.67-0.53
	c0.33,0.04,0.57,0.34,0.53,0.67c-0.04,0.31-0.3,0.53-0.6,0.53C24.92,8.81,24.89,8.81,24.87,8.81 M20.75,8.29
	c-0.04-0.33,0.19-0.63,0.53-0.67c0.33-0.04,0.63,0.2,0.67,0.53c0.04,0.33-0.2,0.63-0.53,0.68c-0.02,0-0.05,0-0.07,0
	C21.05,8.82,20.78,8.6,20.75,8.29 M26.57,9.11c-0.32-0.08-0.52-0.41-0.45-0.73c0.08-0.32,0.41-0.52,0.73-0.45
	c0.32,0.08,0.52,0.41,0.45,0.73c-0.07,0.28-0.31,0.46-0.59,0.46C26.66,9.13,26.62,9.12,26.57,9.11 M18.99,8.69
	c-0.08-0.32,0.11-0.65,0.44-0.73c0.32-0.08,0.65,0.12,0.73,0.44c0.08,0.32-0.12,0.65-0.44,0.73c-0.05,0.01-0.1,0.02-0.15,0.02
	C19.31,9.15,19.06,8.96,18.99,8.69 M28.22,9.62c-0.31-0.12-0.47-0.47-0.35-0.78c0.12-0.31,0.47-0.47,0.78-0.35
	C28.96,8.6,29.11,8.95,29,9.27c-0.09,0.24-0.32,0.39-0.57,0.39C28.36,9.66,28.29,9.65,28.22,9.62 M17.3,9.3
	c-0.12-0.31,0.04-0.66,0.35-0.78c0.31-0.12,0.66,0.04,0.78,0.35c0.12,0.31-0.04,0.66-0.35,0.78c-0.07,0.03-0.14,0.04-0.22,0.04
	C17.62,9.69,17.39,9.54,17.3,9.3 M29.79,10.32c-0.29-0.15-0.41-0.52-0.26-0.81c0.15-0.3,0.52-0.41,0.82-0.26
	c0.3,0.15,0.41,0.52,0.26,0.81c-0.11,0.21-0.32,0.33-0.54,0.33C29.98,10.39,29.88,10.37,29.79,10.32 M15.69,10.11
	c-0.16-0.29-0.04-0.66,0.25-0.82c0.29-0.16,0.66-0.04,0.82,0.25c0.16,0.29,0.04,0.66-0.25,0.82c-0.09,0.05-0.19,0.07-0.28,0.07
	C16.01,10.43,15.8,10.31,15.69,10.11 M31.28,11.21c-0.28-0.19-0.35-0.56-0.16-0.84c0.19-0.27,0.57-0.34,0.84-0.16
	c0.28,0.19,0.35,0.56,0.16,0.84c-0.12,0.17-0.31,0.26-0.5,0.26C31.5,11.32,31.38,11.29,31.28,11.21 M14.19,11.11
	c-0.19-0.28-0.12-0.65,0.15-0.84c0.27-0.19,0.65-0.12,0.84,0.15c0.19,0.27,0.12,0.65-0.15,0.84c-0.1,0.07-0.23,0.11-0.34,0.11
	C14.5,11.37,14.31,11.28,14.19,11.11 M32.64,12.28L32.64,12.28c-0.25-0.22-0.27-0.6-0.05-0.85c0.22-0.25,0.6-0.28,0.85-0.05
	c0.25,0.22,0.27,0.6,0.05,0.85c-0.12,0.14-0.29,0.21-0.46,0.21C32.89,12.43,32.75,12.38,32.64,12.28 M12.82,12.28
	c-0.22-0.25-0.2-0.63,0.05-0.85h0c0.25-0.22,0.63-0.2,0.85,0.05c0.22,0.25,0.2,0.63-0.05,0.85c-0.11,0.1-0.26,0.15-0.4,0.15
	C13.11,12.48,12.94,12.41,12.82,12.28 M33.86,13.49c-0.22-0.25-0.2-0.63,0.05-0.85c0.25-0.22,0.63-0.2,0.85,0.05
	c0.22,0.25,0.2,0.63-0.05,0.85c-0.12,0.1-0.26,0.15-0.4,0.15C34.15,13.69,33.98,13.63,33.86,13.49 M11.6,13.61
	c-0.25-0.22-0.27-0.6-0.05-0.85c0.22-0.25,0.6-0.27,0.85-0.05c0.25,0.22,0.27,0.6,0.05,0.85c-0.12,0.14-0.29,0.21-0.45,0.21
	C11.86,13.76,11.72,13.71,11.6,13.61 M34.93,14.85L34.93,14.85c-0.19-0.27-0.12-0.65,0.15-0.84c0.27-0.19,0.65-0.13,0.84,0.15
	c0.19,0.27,0.12,0.65-0.15,0.84c-0.1,0.07-0.23,0.11-0.34,0.11C35.24,15.11,35.05,15.02,34.93,14.85 M10.55,15.07
	c-0.27-0.19-0.34-0.57-0.16-0.84c0.19-0.28,0.56-0.34,0.84-0.16c0.28,0.19,0.34,0.56,0.16,0.84c-0.12,0.17-0.31,0.26-0.5,0.26
	C10.78,15.18,10.66,15.14,10.55,15.07 M35.83,16.32L35.83,16.32c-0.16-0.29-0.04-0.66,0.25-0.82c0.3-0.16,0.66-0.04,0.82,0.25
	c0.16,0.3,0.04,0.66-0.25,0.82c-0.09,0.05-0.19,0.07-0.28,0.07C36.15,16.64,35.94,16.53,35.83,16.32 M9.69,16.65
	c-0.29-0.16-0.41-0.52-0.26-0.82c0.16-0.3,0.52-0.41,0.82-0.26c0.3,0.16,0.41,0.52,0.26,0.82c-0.11,0.21-0.32,0.32-0.54,0.32
	C9.87,16.72,9.78,16.7,9.69,16.65 M36.54,17.89c-0.12-0.31,0.04-0.66,0.35-0.78c0.31-0.12,0.66,0.04,0.78,0.35
	c0.12,0.31-0.04,0.66-0.35,0.78c-0.07,0.03-0.15,0.04-0.22,0.04C36.87,18.28,36.64,18.13,36.54,17.89 M9.02,18.32
	c-0.31-0.12-0.47-0.47-0.35-0.78c0.12-0.31,0.47-0.47,0.78-0.35c0.31,0.12,0.47,0.47,0.35,0.78c-0.09,0.24-0.32,0.39-0.57,0.39
	C9.16,18.36,9.09,18.35,9.02,18.32 M37.06,19.54c-0.08-0.32,0.12-0.65,0.44-0.73c0.32-0.08,0.65,0.12,0.73,0.44
	c0.08,0.32-0.12,0.65-0.44,0.73C37.75,19.99,37.7,20,37.65,20C37.38,20,37.13,19.81,37.06,19.54 M8.56,20.06
	c-0.32-0.08-0.52-0.41-0.45-0.73c0.08-0.32,0.41-0.52,0.73-0.45c0.32,0.08,0.52,0.41,0.45,0.73l0,0c-0.07,0.28-0.31,0.46-0.59,0.46
	C8.66,20.08,8.61,20.08,8.56,20.06 M37.38,21.24c-0.04-0.33,0.2-0.63,0.53-0.68c0.33-0.04,0.63,0.19,0.68,0.53
	c0.04,0.33-0.2,0.63-0.53,0.67c-0.02,0-0.05,0.01-0.07,0.01C37.68,21.77,37.42,21.54,37.38,21.24 M8.31,21.85
	c-0.33-0.04-0.57-0.34-0.53-0.67c0.04-0.33,0.34-0.57,0.67-0.53c0.33,0.04,0.57,0.34,0.53,0.67c-0.04,0.31-0.3,0.53-0.6,0.53
	C8.36,21.85,8.34,21.85,8.31,21.85 M37.49,22.96c0-0.33,0.27-0.61,0.6-0.61c0.33,0,0.61,0.27,0.61,0.6c0,0.33-0.27,0.6-0.6,0.61h0
	C37.76,23.56,37.49,23.29,37.49,22.96 M7.68,23.05c0-0.33,0.27-0.6,0.6-0.61c0.33,0,0.6,0.27,0.6,0.6c0,0.33-0.27,0.6-0.6,0.6h0
	C7.95,23.65,7.68,23.38,7.68,23.05 M37.92,25.36c-0.33-0.04-0.57-0.34-0.53-0.67c0.04-0.33,0.34-0.57,0.67-0.53
	c0.33,0.04,0.57,0.34,0.53,0.67c-0.04,0.31-0.3,0.53-0.6,0.53C37.97,25.36,37.94,25.36,37.92,25.36 M7.79,24.91
	c-0.04-0.33,0.2-0.63,0.53-0.67c0.33-0.04,0.63,0.19,0.67,0.53c0.04,0.33-0.2,0.63-0.53,0.67c-0.02,0-0.05,0-0.07,0
	C8.09,25.44,7.83,25.22,7.79,24.91 M37.53,27.11c-0.32-0.08-0.52-0.41-0.45-0.73c0.08-0.32,0.41-0.52,0.73-0.45
	c0.32,0.08,0.52,0.41,0.45,0.73c-0.07,0.28-0.31,0.46-0.59,0.46C37.63,27.13,37.58,27.13,37.53,27.11 M8.13,26.76
	c-0.08-0.32,0.12-0.65,0.44-0.73c0.32-0.08,0.65,0.12,0.73,0.44c0.08,0.32-0.12,0.65-0.44,0.73c-0.05,0.01-0.1,0.02-0.15,0.02
	C8.45,27.21,8.2,27.03,8.13,26.76 M36.93,28.81c-0.31-0.12-0.47-0.47-0.35-0.78c0.12-0.31,0.47-0.47,0.78-0.35
	c0.31,0.12,0.47,0.47,0.35,0.78c-0.09,0.24-0.32,0.39-0.57,0.39C37.07,28.85,37,28.84,36.93,28.81 M8.69,28.54
	c-0.12-0.31,0.04-0.66,0.35-0.78s0.66,0.04,0.78,0.35c0.12,0.31-0.04,0.66-0.35,0.78c-0.07,0.03-0.15,0.04-0.22,0.04
	C9.01,28.93,8.78,28.78,8.69,28.54 M36.13,30.43c-0.3-0.16-0.41-0.52-0.26-0.82c0.15-0.3,0.52-0.41,0.81-0.26
	c0.3,0.16,0.41,0.52,0.26,0.82c-0.11,0.21-0.32,0.32-0.54,0.32C36.31,30.5,36.22,30.47,36.13,30.43 M9.47,30.25
	c-0.16-0.29-0.04-0.66,0.25-0.82c0.3-0.15,0.66-0.04,0.82,0.25c0.16,0.29,0.04,0.66-0.25,0.82c-0.09,0.05-0.19,0.07-0.28,0.07
	C9.78,30.57,9.58,30.45,9.47,30.25 M35.14,31.93c-0.28-0.19-0.35-0.57-0.16-0.84c0.19-0.28,0.56-0.35,0.84-0.16
	c0.28,0.19,0.34,0.57,0.16,0.84c-0.12,0.17-0.31,0.26-0.5,0.26C35.37,32.04,35.24,32,35.14,31.93 M10.44,31.85
	c-0.19-0.27-0.12-0.65,0.15-0.84c0.27-0.19,0.65-0.12,0.84,0.15c0.19,0.27,0.12,0.65-0.15,0.84c-0.11,0.07-0.23,0.11-0.34,0.11
	C10.75,32.11,10.56,32.02,10.44,31.85 M33.98,33.31c-0.25-0.22-0.27-0.6-0.05-0.85c0.22-0.25,0.6-0.28,0.85-0.05
	c0.25,0.22,0.27,0.6,0.05,0.85c-0.12,0.14-0.29,0.21-0.45,0.21C34.23,33.46,34.09,33.41,33.98,33.31 M11.6,33.32
	c-0.22-0.25-0.2-0.63,0.05-0.85c0.25-0.22,0.63-0.2,0.85,0.05c0.22,0.25,0.2,0.63-0.05,0.85c-0.11,0.1-0.26,0.15-0.4,0.15
	C11.88,33.52,11.72,33.45,11.6,33.32 M32.66,34.53c-0.22-0.25-0.2-0.63,0.05-0.85c0.25-0.22,0.63-0.2,0.85,0.05
	c0.22,0.25,0.2,0.63-0.05,0.85c-0.11,0.1-0.26,0.15-0.4,0.15C32.94,34.73,32.78,34.67,32.66,34.53 M12.93,34.64L12.93,34.64
	c-0.25-0.22-0.27-0.6-0.05-0.85c0.22-0.25,0.6-0.27,0.85-0.05c0.25,0.22,0.27,0.6,0.05,0.85c-0.12,0.13-0.29,0.21-0.45,0.21
	C13.18,34.79,13.04,34.74,12.93,34.64 M31.2,35.59c-0.19-0.27-0.12-0.65,0.15-0.84c0.27-0.19,0.65-0.12,0.84,0.15
	c0.19,0.27,0.12,0.65-0.15,0.84c-0.11,0.07-0.23,0.11-0.35,0.11C31.51,35.85,31.32,35.76,31.2,35.59 M14.4,35.79
	c-0.28-0.19-0.34-0.56-0.16-0.84c0.19-0.27,0.57-0.34,0.84-0.16c0.28,0.19,0.34,0.57,0.15,0.84c-0.12,0.17-0.31,0.26-0.5,0.26
	C14.62,35.9,14.51,35.86,14.4,35.79 M29.63,36.47c-0.16-0.3-0.04-0.66,0.25-0.82c0.29-0.16,0.66-0.04,0.82,0.25
	c0.15,0.3,0.04,0.66-0.25,0.82c-0.09,0.05-0.19,0.07-0.28,0.07C29.95,36.79,29.74,36.67,29.63,36.47 M16,36.76L16,36.76
	c-0.3-0.16-0.41-0.52-0.26-0.82c0.16-0.29,0.52-0.41,0.82-0.25c0.3,0.16,0.41,0.52,0.25,0.82c-0.11,0.21-0.32,0.32-0.53,0.32
	C16.19,36.83,16.09,36.81,16,36.76 M27.96,37.15c-0.12-0.31,0.04-0.66,0.35-0.78c0.31-0.12,0.66,0.04,0.78,0.35
	c0.12,0.31-0.04,0.66-0.35,0.78c-0.07,0.03-0.15,0.04-0.22,0.04C28.28,37.53,28.05,37.39,27.96,37.15 M17.71,37.52L17.71,37.52
	c-0.31-0.12-0.47-0.47-0.35-0.78c0.12-0.31,0.47-0.47,0.78-0.35c0.31,0.12,0.47,0.47,0.35,0.78c-0.09,0.24-0.32,0.39-0.56,0.39
	C17.86,37.56,17.78,37.55,17.71,37.52 M26.22,37.62c-0.08-0.32,0.11-0.65,0.44-0.73c0.32-0.08,0.65,0.12,0.73,0.44
	c0.08,0.32-0.12,0.65-0.44,0.73c-0.05,0.01-0.1,0.02-0.15,0.02C26.54,38.07,26.29,37.89,26.22,37.62 M19.5,38.08L19.5,38.08
	c-0.32-0.08-0.52-0.41-0.44-0.73c0.08-0.32,0.41-0.52,0.73-0.45c0.32,0.08,0.52,0.41,0.45,0.73c-0.07,0.28-0.31,0.46-0.59,0.46
	C19.6,38.1,19.55,38.09,19.5,38.08 M24.44,37.87c-0.04-0.33,0.2-0.63,0.53-0.68c0.33-0.04,0.63,0.19,0.68,0.53
	c0.04,0.33-0.2,0.63-0.53,0.67c-0.02,0-0.05,0.01-0.07,0.01C24.74,38.4,24.48,38.18,24.44,37.87 M21.35,38.41L21.35,38.41
	c-0.33-0.04-0.57-0.34-0.53-0.67c0.04-0.33,0.34-0.57,0.67-0.53c0.33,0.04,0.57,0.34,0.53,0.67c-0.04,0.31-0.3,0.53-0.6,0.53
	C21.39,38.41,21.37,38.41,21.35,38.41 M23.23,38.52h-0.01c-0.33,0-0.6-0.27-0.6-0.6c0-0.33,0.27-0.6,0.6-0.6h0.01h0.01
	c0.33,0,0.61,0.27,0.61,0.6c0,0.33-0.27,0.61-0.6,0.61h0H23.23z"/>
<path class="st0" d="M23.22,35.58c-6.94,0.02-12.59-5.59-12.61-12.53c-0.02-6.94,5.59-12.59,12.53-12.61
	c6.94-0.02,12.59,5.59,12.61,12.53C35.78,29.91,30.17,35.56,23.22,35.58"/>
<path class="st1" d="M23.85,10.96L23.85,10.96c-0.28-0.02-0.49-0.25-0.48-0.53c0.01-0.28,0.25-0.49,0.53-0.48h0
	c0.28,0.02,0.49,0.25,0.48,0.53c-0.01,0.27-0.24,0.48-0.5,0.48H23.85z M21.88,10.49c-0.02-0.28,0.19-0.52,0.47-0.53
	c0.28-0.02,0.52,0.19,0.53,0.47c0.02,0.28-0.19,0.52-0.47,0.54h-0.03C22.12,10.97,21.9,10.76,21.88,10.49 M25.26,11.12
	c-0.27-0.05-0.46-0.31-0.41-0.58c0.05-0.27,0.31-0.46,0.58-0.41c0.27,0.05,0.46,0.31,0.41,0.58c-0.04,0.24-0.25,0.42-0.5,0.42
	C25.32,11.13,25.3,11.12,25.26,11.12 M20.41,10.73c-0.05-0.27,0.13-0.54,0.4-0.59c0.27-0.05,0.54,0.13,0.59,0.41
	c0.05,0.27-0.13,0.54-0.41,0.59c-0.03,0.01-0.06,0.01-0.09,0.01C20.67,11.15,20.46,10.98,20.41,10.73 M26.66,11.45
	c-0.27-0.08-0.42-0.36-0.34-0.63c0.08-0.27,0.36-0.42,0.63-0.34c0.27,0.08,0.42,0.36,0.34,0.63c-0.06,0.22-0.26,0.36-0.48,0.36
	C26.75,11.47,26.7,11.46,26.66,11.45 M18.98,11.15c-0.08-0.27,0.07-0.55,0.33-0.63v0c0.27-0.08,0.55,0.07,0.63,0.33
	c0.08,0.27-0.07,0.55-0.33,0.63c-0.05,0.02-0.1,0.02-0.15,0.02C19.24,11.5,19.04,11.36,18.98,11.15 M28,11.94
	c-0.26-0.11-0.37-0.41-0.26-0.66c0.11-0.26,0.41-0.37,0.66-0.26c0.25,0.11,0.37,0.41,0.26,0.66c-0.08,0.19-0.27,0.3-0.46,0.3
	C28.13,11.98,28.06,11.97,28,11.94 M17.61,11.73c-0.11-0.25,0-0.55,0.26-0.67c0.25-0.11,0.55,0,0.67,0.26
	c0.11,0.25,0,0.55-0.25,0.67c-0.07,0.03-0.14,0.04-0.21,0.04C17.87,12.03,17.69,11.92,17.61,11.73 M29.27,12.59
	c-0.24-0.14-0.32-0.45-0.18-0.69c0.14-0.24,0.45-0.32,0.69-0.18c0.24,0.14,0.32,0.45,0.18,0.69c-0.09,0.16-0.26,0.25-0.44,0.25
	C29.44,12.65,29.35,12.63,29.27,12.59 M16.31,12.47c-0.14-0.24-0.06-0.55,0.17-0.69c0.24-0.14,0.55-0.06,0.69,0.18
	c0.14,0.24,0.06,0.55-0.17,0.69c-0.08,0.05-0.17,0.07-0.26,0.07C16.58,12.71,16.41,12.63,16.31,12.47 M30.46,13.38
	c-0.22-0.17-0.26-0.48-0.1-0.71c0.17-0.22,0.48-0.27,0.71-0.1c0.22,0.17,0.27,0.48,0.1,0.71c-0.1,0.13-0.25,0.2-0.4,0.2
	C30.66,13.48,30.55,13.45,30.46,13.38 M15.12,13.36c-0.17-0.22-0.13-0.54,0.09-0.71c0.22-0.17,0.54-0.13,0.71,0.09
	c0.17,0.22,0.13,0.54-0.09,0.71c-0.09,0.07-0.2,0.1-0.31,0.1C15.37,13.55,15.22,13.48,15.12,13.36 M31.55,14.31
	c-0.2-0.19-0.21-0.51-0.01-0.71c0.19-0.2,0.51-0.21,0.71-0.01c0.2,0.19,0.21,0.51,0.01,0.71c-0.1,0.1-0.23,0.15-0.36,0.15
	C31.77,14.45,31.65,14.4,31.55,14.31 M14.03,14.38c-0.19-0.2-0.19-0.52,0.01-0.71c0.2-0.2,0.52-0.19,0.71,0.01
	c0.19,0.2,0.19,0.52-0.01,0.71c-0.1,0.1-0.23,0.14-0.35,0.14C14.26,14.53,14.13,14.48,14.03,14.38 M32.52,15.36
	c-0.18-0.21-0.15-0.53,0.07-0.71c0.21-0.18,0.53-0.15,0.71,0.07c0.18,0.22,0.15,0.53-0.07,0.71c-0.09,0.08-0.21,0.11-0.32,0.11
	C32.76,15.54,32.62,15.48,32.52,15.36 M13.08,15.52c-0.22-0.18-0.25-0.49-0.08-0.71c0.17-0.22,0.49-0.25,0.71-0.08
	c0.22,0.17,0.25,0.49,0.08,0.71c-0.1,0.13-0.25,0.19-0.39,0.19C13.28,15.63,13.17,15.59,13.08,15.52 M33.36,16.51L33.36,16.51
	c-0.15-0.24-0.08-0.55,0.15-0.7c0.23-0.15,0.55-0.08,0.7,0.15c0.15,0.24,0.08,0.55-0.15,0.7c-0.08,0.05-0.18,0.08-0.27,0.08
	C33.62,16.75,33.45,16.67,33.36,16.51 M12.26,16.77c-0.24-0.15-0.31-0.46-0.16-0.7c0.15-0.24,0.46-0.31,0.7-0.16
	c0.23,0.15,0.31,0.46,0.16,0.7c-0.1,0.15-0.26,0.24-0.43,0.24C12.44,16.84,12.34,16.82,12.26,16.77 M34.06,17.76
	c-0.12-0.25-0.02-0.55,0.23-0.67c0.25-0.12,0.55-0.02,0.67,0.23c0.12,0.25,0.02,0.55-0.24,0.67c-0.07,0.03-0.15,0.05-0.22,0.05
	C34.32,18.05,34.14,17.94,34.06,17.76 M11.6,18.1c-0.25-0.12-0.36-0.42-0.24-0.67v0c0.12-0.25,0.42-0.36,0.67-0.24
	c0.25,0.12,0.36,0.42,0.24,0.67c-0.09,0.18-0.27,0.29-0.46,0.29C11.74,18.15,11.67,18.14,11.6,18.1 M34.6,19.08
	c-0.09-0.26,0.05-0.55,0.31-0.64c0.26-0.09,0.55,0.05,0.64,0.31c0.09,0.26-0.05,0.55-0.31,0.64c-0.05,0.02-0.11,0.03-0.16,0.03
	C34.87,19.42,34.67,19.29,34.6,19.08 M11.1,19.51c-0.26-0.09-0.41-0.37-0.32-0.64c0.09-0.26,0.37-0.41,0.64-0.32
	c0.26,0.09,0.41,0.37,0.32,0.64c-0.07,0.21-0.27,0.34-0.48,0.34C11.21,19.53,11.15,19.52,11.1,19.51 M34.98,20.46
	c-0.06-0.27,0.11-0.54,0.39-0.6c0.27-0.06,0.54,0.11,0.6,0.39c0.06,0.27-0.11,0.54-0.39,0.6c-0.04,0.01-0.07,0.01-0.11,0.01
	C35.24,20.86,35.03,20.7,34.98,20.46 M10.77,20.96c-0.27-0.06-0.45-0.32-0.39-0.59c0.06-0.27,0.32-0.45,0.6-0.39
	c0.27,0.06,0.45,0.32,0.39,0.59c-0.05,0.24-0.26,0.4-0.49,0.4C10.84,20.97,10.8,20.97,10.77,20.96 M35.2,21.87
	c-0.02-0.28,0.18-0.52,0.46-0.55c0.28-0.03,0.52,0.18,0.55,0.46c0.03,0.28-0.18,0.52-0.46,0.55c-0.01,0-0.03,0-0.05,0
	C35.45,22.33,35.23,22.13,35.2,21.87 M10.62,22.44c-0.28-0.02-0.48-0.27-0.46-0.54c0.02-0.28,0.27-0.48,0.54-0.46
	c0.28,0.02,0.48,0.27,0.46,0.54c-0.02,0.26-0.24,0.46-0.5,0.46C10.65,22.44,10.63,22.44,10.62,22.44 M35.74,23.82
	c-0.28-0.01-0.5-0.24-0.49-0.52c0.01-0.28,0.24-0.5,0.52-0.49c0.28,0.01,0.5,0.24,0.49,0.52c-0.01,0.27-0.23,0.49-0.5,0.49H35.74z
	 M10.12,23.45c-0.01-0.28,0.21-0.51,0.49-0.52c0.28-0.01,0.51,0.21,0.52,0.49c0.01,0.28-0.21,0.51-0.49,0.52h-0.02
	C10.35,23.93,10.13,23.72,10.12,23.45 M35.56,25.3c-0.28-0.04-0.47-0.29-0.43-0.57c0.04-0.28,0.29-0.47,0.57-0.43
	c0.28,0.04,0.47,0.29,0.43,0.57c-0.04,0.25-0.25,0.43-0.5,0.43C35.61,25.3,35.59,25.3,35.56,25.3 M10.26,24.99
	c-0.04-0.28,0.15-0.53,0.42-0.57c0.27-0.04,0.53,0.15,0.57,0.42c0.04,0.28-0.15,0.53-0.42,0.57c-0.03,0-0.05,0.01-0.08,0.01
	C10.51,25.42,10.3,25.24,10.26,24.99 M35.2,26.74c-0.27-0.07-0.43-0.35-0.36-0.62c0.07-0.27,0.35-0.43,0.62-0.36
	c0.27,0.07,0.43,0.35,0.36,0.62c-0.06,0.23-0.26,0.37-0.49,0.37C35.29,26.76,35.25,26.75,35.2,26.74 M10.58,26.5
	c-0.07-0.27,0.08-0.55,0.35-0.62c0.27-0.07,0.55,0.08,0.62,0.35c0.07,0.27-0.08,0.54-0.35,0.62c-0.04,0.01-0.09,0.02-0.14,0.02
	C10.85,26.87,10.65,26.73,10.58,26.5 M34.68,28.14c-0.26-0.1-0.38-0.4-0.28-0.66c0.1-0.26,0.4-0.38,0.66-0.28
	c0.26,0.1,0.38,0.4,0.28,0.65c-0.08,0.2-0.27,0.32-0.47,0.32C34.8,28.17,34.74,28.16,34.68,28.14 M11.08,27.97
	c-0.11-0.26,0.02-0.55,0.27-0.66c0.26-0.11,0.55,0.02,0.66,0.27c0.11,0.26-0.02,0.55-0.27,0.66c-0.06,0.02-0.13,0.04-0.19,0.04
	C11.35,28.28,11.16,28.16,11.08,27.97 M33.99,29.46c-0.25-0.13-0.33-0.44-0.2-0.68c0.13-0.24,0.44-0.33,0.68-0.2
	c0.24,0.13,0.33,0.44,0.2,0.68c-0.09,0.17-0.26,0.26-0.44,0.26C34.15,29.52,34.07,29.5,33.99,29.46 M11.76,29.36
	c-0.13-0.24-0.05-0.55,0.2-0.69c0.24-0.14,0.55-0.05,0.69,0.2c0.13,0.24,0.05,0.55-0.2,0.69c-0.08,0.04-0.16,0.06-0.24,0.06
	C12.02,29.62,11.85,29.53,11.76,29.36 M33.15,30.69c-0.23-0.16-0.28-0.48-0.12-0.7c0.16-0.23,0.48-0.28,0.7-0.12
	c0.23,0.16,0.28,0.48,0.12,0.7c-0.1,0.14-0.25,0.21-0.41,0.21C33.34,30.78,33.24,30.75,33.15,30.69 M12.59,30.67L12.59,30.67
	c-0.16-0.23-0.11-0.54,0.11-0.71c0.23-0.16,0.54-0.11,0.7,0.11c0.16,0.23,0.11,0.54-0.11,0.71c-0.09,0.06-0.19,0.09-0.29,0.09
	C12.84,30.88,12.69,30.8,12.59,30.67 M32.17,31.82c-0.21-0.19-0.22-0.51-0.04-0.71c0.19-0.21,0.51-0.22,0.71-0.03
	c0.21,0.19,0.22,0.5,0.04,0.71c-0.1,0.11-0.24,0.17-0.37,0.17C32.39,31.94,32.27,31.9,32.17,31.82 M13.57,31.87L13.57,31.87
	c-0.19-0.2-0.18-0.52,0.03-0.71c0.21-0.19,0.52-0.18,0.71,0.03c0.19,0.21,0.18,0.52-0.03,0.71c-0.1,0.09-0.22,0.13-0.34,0.13
	C13.8,32.03,13.67,31.97,13.57,31.87 M31.07,32.82c-0.18-0.21-0.16-0.53,0.05-0.71c0.21-0.18,0.53-0.16,0.71,0.05
	c0.18,0.21,0.16,0.53-0.05,0.71c-0.1,0.08-0.21,0.13-0.33,0.13C31.31,32.99,31.17,32.93,31.07,32.82 M14.68,32.94L14.68,32.94
	c-0.21-0.18-0.24-0.5-0.05-0.71c0.18-0.21,0.5-0.24,0.71-0.05c0.21,0.18,0.24,0.5,0.05,0.71c-0.1,0.12-0.24,0.18-0.38,0.18
	C14.89,33.06,14.78,33.02,14.68,32.94 M29.85,33.68c-0.16-0.23-0.1-0.54,0.13-0.7c0.23-0.16,0.54-0.1,0.7,0.13
	c0.16,0.23,0.1,0.54-0.13,0.7c-0.09,0.06-0.19,0.09-0.28,0.09C30.11,33.9,29.95,33.82,29.85,33.68 M15.92,33.88
	c-0.23-0.16-0.29-0.47-0.14-0.7c0.16-0.23,0.47-0.29,0.7-0.14c0.23,0.15,0.29,0.47,0.14,0.7c-0.1,0.15-0.26,0.22-0.42,0.22
	C16.1,33.96,16,33.94,15.92,33.88 M28.55,34.39c-0.13-0.25-0.03-0.55,0.22-0.68c0.25-0.13,0.55-0.03,0.68,0.21
	c0.13,0.25,0.03,0.55-0.21,0.68c-0.07,0.04-0.16,0.06-0.23,0.06C28.81,34.66,28.64,34.57,28.55,34.39 M17.25,34.66L17.25,34.66
	c-0.25-0.13-0.35-0.43-0.22-0.68c0.13-0.25,0.43-0.35,0.68-0.22h0c0.25,0.13,0.35,0.43,0.22,0.68c-0.09,0.18-0.27,0.28-0.45,0.28
	C17.4,34.72,17.33,34.7,17.25,34.66 M27.16,34.95c-0.1-0.26,0.03-0.55,0.29-0.65c0.26-0.1,0.55,0.03,0.65,0.29
	c0.1,0.26-0.03,0.55-0.29,0.65c-0.06,0.02-0.12,0.03-0.18,0.03C27.43,35.27,27.24,35.15,27.16,34.95 M18.67,35.28
	c-0.26-0.09-0.4-0.38-0.3-0.65c0.1-0.26,0.39-0.4,0.65-0.3c0.26,0.1,0.4,0.38,0.3,0.65c-0.07,0.2-0.27,0.33-0.47,0.33
	C18.79,35.31,18.73,35.3,18.67,35.28 M25.72,35.33c-0.07-0.27,0.1-0.54,0.37-0.61c0.27-0.07,0.54,0.1,0.61,0.37
	c0.07,0.27-0.1,0.54-0.37,0.61c-0.04,0.01-0.08,0.01-0.12,0.01C25.99,35.72,25.78,35.56,25.72,35.33 M20.16,35.73L20.16,35.73
	c-0.27-0.06-0.44-0.33-0.37-0.61c0.06-0.27,0.34-0.44,0.61-0.37c0.27,0.06,0.44,0.33,0.38,0.61c-0.05,0.23-0.26,0.39-0.49,0.39
	C20.23,35.74,20.19,35.74,20.16,35.73 M24.25,35.55c-0.03-0.28,0.16-0.53,0.44-0.56c0.28-0.03,0.53,0.16,0.56,0.44
	c0.03,0.28-0.16,0.53-0.44,0.56c-0.02,0-0.04,0-0.06,0C24.5,35.99,24.28,35.8,24.25,35.55 M21.68,36c-0.28-0.03-0.48-0.28-0.44-0.56
	c0.03-0.28,0.28-0.47,0.56-0.44c0.28,0.03,0.47,0.28,0.44,0.56c-0.03,0.26-0.25,0.45-0.5,0.45C21.72,36,21.7,36,21.68,36
	 M23.25,36.08h-0.02c-0.28,0-0.5-0.22-0.5-0.5c0-0.28,0.23-0.5,0.5-0.5h0.02h0.02c0.28,0,0.51,0.22,0.51,0.5
	c0,0.28-0.22,0.5-0.5,0.51h0H23.25z"/>
<path class="st0" d="M23.23,33.25c-5.65,0.03-10.26-4.54-10.29-10.19c-0.03-5.65,4.54-10.26,10.19-10.29
	c5.65-0.03,10.26,4.54,10.29,10.19C33.45,28.62,28.89,33.22,23.23,33.25"/>
<path class="st1" d="M22.72,12.77c0-0.22,0.18-0.41,0.4-0.41c0.22,0,0.4,0.18,0.41,0.4c0,0.22-0.18,0.41-0.4,0.41h0h0
	C22.9,13.17,22.72,13,22.72,12.77 M24.22,13.23L24.22,13.23c-0.22-0.02-0.38-0.22-0.36-0.44c0.02-0.22,0.22-0.38,0.44-0.36
	c0.22,0.02,0.38,0.22,0.36,0.44c-0.02,0.21-0.2,0.36-0.4,0.36C24.25,13.23,24.24,13.23,24.22,13.23 M21.57,12.89
	c-0.03-0.22,0.13-0.42,0.35-0.45c0.22-0.03,0.42,0.13,0.45,0.35c0.03,0.22-0.13,0.42-0.35,0.45c-0.02,0-0.03,0-0.05,0
	C21.77,13.25,21.6,13.09,21.57,12.89 M25.31,13.4c-0.22-0.05-0.36-0.26-0.31-0.48c0.05-0.22,0.26-0.35,0.48-0.31
	c0.22,0.05,0.35,0.26,0.31,0.48c-0.04,0.19-0.21,0.32-0.39,0.32C25.37,13.41,25.34,13.41,25.31,13.4 M20.45,13.13
	c-0.05-0.22,0.08-0.43,0.3-0.49c0.22-0.05,0.43,0.08,0.48,0.3c0.05,0.22-0.08,0.43-0.3,0.48c-0.03,0.01-0.06,0.01-0.09,0.01
	C20.66,13.44,20.49,13.32,20.45,13.13 M26.37,13.7c-0.21-0.07-0.32-0.3-0.25-0.51c0.07-0.21,0.3-0.32,0.51-0.25
	c0.21,0.07,0.32,0.3,0.25,0.51c-0.06,0.17-0.21,0.27-0.38,0.27C26.46,13.72,26.42,13.72,26.37,13.7 M19.36,13.5
	c-0.07-0.21,0.03-0.44,0.24-0.51c0.21-0.08,0.44,0.03,0.52,0.24c0.07,0.21-0.03,0.44-0.25,0.51h0c-0.05,0.02-0.09,0.02-0.14,0.02
	C19.58,13.77,19.42,13.66,19.36,13.5 M27.39,14.12L27.39,14.12c-0.2-0.09-0.29-0.33-0.19-0.54c0.09-0.2,0.33-0.29,0.54-0.19
	c0.2,0.09,0.29,0.33,0.19,0.54c-0.07,0.15-0.21,0.23-0.36,0.23C27.51,14.15,27.45,14.14,27.39,14.12 M18.32,13.99
	c-0.1-0.2-0.01-0.44,0.19-0.54c0.2-0.1,0.44-0.02,0.54,0.18c0.1,0.2,0.02,0.44-0.18,0.54c-0.06,0.03-0.12,0.04-0.18,0.04
	C18.54,14.21,18.39,14.13,18.32,13.99 M28.36,14.64L28.36,14.64c-0.19-0.12-0.25-0.37-0.13-0.55c0.12-0.19,0.36-0.25,0.55-0.13
	c0.19,0.12,0.25,0.36,0.13,0.55c-0.08,0.12-0.21,0.19-0.34,0.19C28.5,14.7,28.43,14.68,28.36,14.64 M17.35,14.59
	c-0.12-0.19-0.06-0.44,0.12-0.56c0.19-0.12,0.44-0.07,0.56,0.12c0.12,0.19,0.06,0.44-0.12,0.56c-0.07,0.04-0.14,0.06-0.22,0.06
	C17.55,14.78,17.42,14.71,17.35,14.59 M29.26,15.28c-0.18-0.14-0.2-0.39-0.07-0.57c0.14-0.18,0.39-0.21,0.57-0.07
	c0.17,0.14,0.2,0.39,0.07,0.57c-0.08,0.1-0.2,0.16-0.32,0.16C29.43,15.36,29.34,15.34,29.26,15.28 M16.44,15.3
	c-0.14-0.17-0.11-0.43,0.06-0.57c0.17-0.14,0.43-0.11,0.57,0.06c0.14,0.17,0.11,0.43-0.06,0.57h0c-0.07,0.06-0.17,0.09-0.25,0.09
	C16.64,15.45,16.52,15.39,16.44,15.3 M30.09,16.01c-0.16-0.16-0.16-0.41,0-0.57c0.16-0.16,0.41-0.16,0.57,0
	c0.16,0.16,0.16,0.41,0,0.57c-0.08,0.08-0.18,0.12-0.29,0.12C30.27,16.12,30.17,16.08,30.09,16.01 M15.62,16.1
	c-0.16-0.16-0.16-0.41,0-0.57c0.16-0.16,0.41-0.16,0.57,0c0.16,0.16,0.16,0.41,0,0.57c-0.08,0.08-0.18,0.12-0.29,0.12
	C15.8,16.22,15.7,16.18,15.62,16.1 M30.83,16.82c-0.14-0.17-0.11-0.43,0.06-0.57c0.17-0.14,0.43-0.11,0.57,0.06
	c0.14,0.17,0.11,0.43-0.06,0.57c-0.07,0.06-0.16,0.09-0.25,0.09C31.03,16.97,30.91,16.92,30.83,16.82 M14.89,16.99
	c-0.18-0.14-0.21-0.39-0.07-0.57c0.14-0.17,0.39-0.2,0.57-0.07c0.17,0.14,0.2,0.39,0.07,0.57c-0.08,0.1-0.2,0.15-0.32,0.15
	C15.06,17.08,14.97,17.05,14.89,16.99 M31.48,17.72c-0.12-0.19-0.06-0.44,0.12-0.56c0.19-0.12,0.44-0.06,0.56,0.12
	c0.12,0.19,0.06,0.44-0.12,0.56c-0.07,0.04-0.14,0.06-0.22,0.06C31.68,17.9,31.55,17.84,31.48,17.72 M14.27,17.95
	c-0.19-0.12-0.25-0.36-0.13-0.55c0.12-0.19,0.36-0.25,0.55-0.13c0.19,0.12,0.25,0.36,0.13,0.55c-0.08,0.12-0.21,0.19-0.34,0.19
	C14.41,18.01,14.34,18,14.27,17.95 M32.02,18.68L32.02,18.68c-0.1-0.2-0.02-0.44,0.19-0.54c0.2-0.1,0.44-0.02,0.54,0.18
	c0.1,0.2,0.02,0.44-0.18,0.54c-0.06,0.03-0.12,0.04-0.18,0.04C32.23,18.9,32.09,18.82,32.02,18.68 M13.76,18.98
	c-0.2-0.09-0.29-0.34-0.19-0.54v0c0.1-0.2,0.34-0.29,0.54-0.19c0.2,0.09,0.29,0.33,0.19,0.54c-0.07,0.15-0.21,0.23-0.36,0.23
	C13.88,19.02,13.82,19.01,13.76,18.98 M32.45,19.69c-0.08-0.21,0.03-0.44,0.24-0.52c0.21-0.07,0.44,0.03,0.52,0.24
	c0.07,0.21-0.03,0.44-0.24,0.52c-0.04,0.02-0.09,0.02-0.14,0.02C32.66,19.96,32.51,19.86,32.45,19.69 M13.37,20.06
	c-0.21-0.07-0.32-0.3-0.25-0.51c0.07-0.21,0.3-0.32,0.51-0.25c0.21,0.07,0.32,0.3,0.25,0.51c-0.06,0.17-0.21,0.27-0.38,0.27
	C13.46,20.09,13.41,20.08,13.37,20.06 M32.76,20.75L32.76,20.75c-0.05-0.22,0.08-0.43,0.3-0.48c0.22-0.05,0.43,0.08,0.49,0.3
	c0.05,0.22-0.08,0.43-0.3,0.48c-0.03,0.01-0.06,0.01-0.09,0.01C32.97,21.06,32.8,20.93,32.76,20.75 M13.1,21.18
	c-0.22-0.05-0.35-0.26-0.31-0.48c0.05-0.22,0.26-0.35,0.48-0.31c0.22,0.05,0.35,0.26,0.31,0.48c-0.04,0.19-0.21,0.32-0.39,0.32
	C13.16,21.19,13.13,21.19,13.1,21.18 M32.95,21.83c-0.03-0.22,0.13-0.42,0.35-0.45c0.22-0.03,0.42,0.13,0.45,0.35
	c0.03,0.22-0.13,0.42-0.35,0.45c-0.02,0-0.03,0-0.05,0C33.15,22.19,32.98,22.04,32.95,21.83 M12.96,22.32
	c-0.22-0.02-0.38-0.22-0.36-0.44c0.02-0.22,0.22-0.38,0.44-0.36c0.22,0.02,0.38,0.22,0.36,0.44c-0.02,0.21-0.2,0.36-0.4,0.36
	C12.99,22.32,12.98,22.32,12.96,22.32 M33.02,22.93L33.02,22.93c0-0.22,0.18-0.41,0.4-0.41c0.22,0,0.4,0.18,0.41,0.4
	c0,0.22-0.18,0.4-0.4,0.41h0C33.2,23.33,33.02,23.16,33.02,22.93 M12.55,23.07L12.55,23.07c0-0.22,0.18-0.4,0.4-0.41
	c0.22,0,0.4,0.18,0.41,0.4c0,0.22-0.18,0.41-0.4,0.41h0C12.73,23.47,12.55,23.29,12.55,23.07 M33.33,24.48
	c-0.22-0.02-0.38-0.22-0.36-0.44c0.02-0.22,0.22-0.38,0.44-0.36c0.22,0.02,0.38,0.22,0.36,0.44c-0.02,0.21-0.2,0.36-0.4,0.36
	C33.36,24.48,33.34,24.48,33.33,24.48 M12.62,24.26c-0.03-0.22,0.13-0.42,0.35-0.45c0.22-0.03,0.42,0.13,0.45,0.35
	c0.03,0.22-0.13,0.42-0.35,0.45c-0.02,0-0.03,0-0.05,0C12.82,24.61,12.64,24.46,12.62,24.26 M33.1,25.6
	c-0.22-0.05-0.35-0.26-0.31-0.48c0.05-0.22,0.26-0.35,0.48-0.31c0.22,0.05,0.35,0.26,0.31,0.48c-0.04,0.19-0.21,0.32-0.4,0.32
	C33.16,25.61,33.13,25.61,33.1,25.6 M12.82,25.43L12.82,25.43c-0.05-0.22,0.08-0.43,0.3-0.49c0.22-0.05,0.43,0.08,0.48,0.3
	c0.05,0.22-0.08,0.43-0.3,0.48c-0.03,0.01-0.06,0.01-0.09,0.01C13.03,25.74,12.87,25.62,12.82,25.43 M32.75,26.7
	c-0.21-0.07-0.32-0.3-0.25-0.51c0.07-0.21,0.3-0.32,0.51-0.25c0.21,0.07,0.32,0.3,0.25,0.51c-0.06,0.17-0.21,0.27-0.38,0.27
	C32.84,26.72,32.79,26.71,32.75,26.7 M13.16,26.58c-0.07-0.21,0.03-0.44,0.24-0.51c0.21-0.07,0.44,0.03,0.52,0.24
	c0.07,0.21-0.04,0.44-0.25,0.52c-0.04,0.02-0.09,0.02-0.13,0.02C13.37,26.85,13.22,26.74,13.16,26.58 M32.27,27.74
	c-0.2-0.09-0.29-0.34-0.19-0.54c0.1-0.2,0.34-0.29,0.54-0.19c0.2,0.09,0.29,0.34,0.19,0.54c-0.07,0.15-0.21,0.23-0.36,0.23
	C32.39,27.78,32.33,27.77,32.27,27.74 M13.62,27.68c-0.1-0.2-0.02-0.44,0.18-0.54c0.2-0.1,0.44-0.02,0.54,0.18
	c0.1,0.2,0.01,0.44-0.19,0.54c-0.06,0.03-0.12,0.04-0.18,0.04C13.83,27.9,13.69,27.82,13.62,27.68 M31.69,28.73
	c-0.19-0.12-0.25-0.36-0.13-0.55c0.12-0.19,0.36-0.25,0.55-0.13c0.19,0.12,0.25,0.37,0.13,0.56c-0.08,0.12-0.21,0.19-0.34,0.19
	C31.83,28.79,31.75,28.77,31.69,28.73 M14.21,28.72c-0.12-0.19-0.06-0.44,0.12-0.56c0.19-0.12,0.44-0.06,0.56,0.12
	c0.12,0.19,0.06,0.44-0.12,0.56c-0.07,0.04-0.14,0.06-0.22,0.06C14.41,28.9,14.28,28.84,14.21,28.72 M30.99,29.64
	c-0.18-0.14-0.21-0.39-0.07-0.57v0c0.14-0.18,0.39-0.21,0.56-0.07c0.18,0.14,0.21,0.39,0.07,0.57c-0.08,0.1-0.2,0.15-0.32,0.15
	C31.15,29.73,31.07,29.7,30.99,29.64 M14.9,29.69L14.9,29.69c-0.14-0.17-0.11-0.43,0.06-0.57c0.17-0.14,0.43-0.11,0.57,0.06
	c0.14,0.17,0.11,0.43-0.06,0.57c-0.07,0.06-0.16,0.09-0.25,0.09C15.1,29.84,14.98,29.78,14.9,29.69 M30.2,30.48
	c-0.16-0.16-0.16-0.41,0-0.57c0.16-0.16,0.41-0.16,0.57,0c0.16,0.16,0.16,0.41,0,0.57c-0.08,0.08-0.18,0.12-0.29,0.12
	C30.38,30.59,30.28,30.55,30.2,30.48 M15.7,30.57c-0.16-0.16-0.16-0.41,0-0.57c0.16-0.16,0.41-0.16,0.57,0
	c0.16,0.16,0.16,0.41,0,0.57c-0.08,0.08-0.18,0.12-0.29,0.12C15.88,30.69,15.78,30.65,15.7,30.57 M29.32,31.21
	c-0.14-0.17-0.11-0.43,0.06-0.57h0c0.17-0.14,0.43-0.11,0.57,0.06c0.14,0.17,0.11,0.43-0.06,0.57c-0.07,0.06-0.16,0.09-0.25,0.09
	C29.52,31.36,29.4,31.31,29.32,31.21 M16.59,31.36c-0.17-0.14-0.2-0.39-0.06-0.56c0.14-0.18,0.39-0.21,0.57-0.07
	c0.17,0.14,0.2,0.39,0.06,0.57c-0.08,0.1-0.2,0.15-0.32,0.15C16.75,31.45,16.67,31.42,16.59,31.36 M28.37,31.85
	c-0.12-0.19-0.07-0.44,0.12-0.56c0.19-0.12,0.44-0.06,0.56,0.12c0.12,0.19,0.06,0.44-0.12,0.56c-0.07,0.04-0.14,0.06-0.22,0.06
	C28.57,32.04,28.44,31.97,28.37,31.85 M17.57,32.05L17.57,32.05c-0.19-0.12-0.25-0.37-0.13-0.56c0.12-0.19,0.37-0.25,0.56-0.13
	c0.19,0.12,0.25,0.37,0.13,0.56c-0.08,0.12-0.21,0.19-0.34,0.19C17.71,32.11,17.64,32.09,17.57,32.05 M27.34,32.38
	c-0.1-0.2-0.02-0.44,0.18-0.54c0.2-0.1,0.44-0.02,0.54,0.18c0.1,0.2,0.02,0.44-0.18,0.54c-0.06,0.03-0.12,0.04-0.18,0.04
	C27.56,32.6,27.41,32.52,27.34,32.38 M18.62,32.62c-0.2-0.09-0.29-0.34-0.19-0.54c0.1-0.2,0.34-0.29,0.54-0.19
	c0.2,0.1,0.29,0.34,0.19,0.54c-0.07,0.15-0.21,0.23-0.36,0.23C18.73,32.66,18.67,32.65,18.62,32.62 M26.27,32.78
	c-0.07-0.21,0.03-0.44,0.24-0.52c0.21-0.08,0.44,0.03,0.52,0.24c0.07,0.21-0.03,0.44-0.24,0.52c-0.04,0.02-0.09,0.02-0.13,0.02
	C26.48,33.05,26.33,32.95,26.27,32.78 M19.72,33.07c-0.21-0.07-0.32-0.3-0.25-0.51c0.07-0.21,0.3-0.32,0.51-0.25
	c0.21,0.07,0.32,0.3,0.25,0.51c-0.06,0.17-0.21,0.27-0.38,0.27C19.81,33.09,19.76,33.09,19.72,33.07 M25.16,33.07
	c-0.05-0.22,0.08-0.43,0.3-0.49c0.22-0.05,0.43,0.08,0.48,0.3c0.05,0.22-0.08,0.43-0.3,0.48c-0.03,0.01-0.06,0.01-0.09,0.01
	C25.37,33.38,25.2,33.25,25.16,33.07 M20.87,33.4L20.87,33.4c-0.22-0.05-0.35-0.26-0.31-0.48c0.05-0.22,0.26-0.35,0.48-0.31h0
	c0.22,0.05,0.35,0.26,0.3,0.48c-0.04,0.19-0.21,0.32-0.39,0.32C20.93,33.41,20.9,33.4,20.87,33.4 M24.02,33.22
	c-0.03-0.22,0.13-0.42,0.35-0.45c0.22-0.03,0.42,0.13,0.45,0.35c0.03,0.22-0.13,0.42-0.35,0.45c-0.02,0-0.03,0-0.05,0
	C24.22,33.58,24.04,33.43,24.02,33.22 M22.05,33.59c-0.22-0.02-0.38-0.22-0.36-0.44c0.02-0.22,0.22-0.38,0.44-0.36
	c0.22,0.02,0.38,0.22,0.36,0.44c-0.02,0.21-0.2,0.36-0.4,0.36C22.07,33.59,22.06,33.59,22.05,33.59 M23.25,33.65h-0.02
	c-0.22,0-0.4-0.18-0.4-0.4c0-0.22,0.18-0.4,0.4-0.4h0.02h0.02c0.22,0,0.4,0.18,0.41,0.4c0,0.22-0.18,0.41-0.4,0.41h0H23.25z"/>
<path class="st0" d="M23.24,30.91c-4.37,0.03-7.93-3.48-7.96-7.85c-0.03-4.37,3.48-7.93,7.85-7.96c4.37-0.03,7.93,3.48,7.96,7.85
	C31.12,27.32,27.61,30.88,23.24,30.91"/>
<path class="st1" d="M22.81,15.11c0-0.17,0.13-0.3,0.3-0.31c0.17,0,0.3,0.13,0.3,0.3c0,0.17-0.13,0.3-0.3,0.3h0
	C22.95,15.41,22.81,15.27,22.81,15.11 M23.88,15.44c-0.17-0.02-0.29-0.16-0.27-0.33c0.01-0.17,0.16-0.29,0.33-0.27
	c0.17,0.02,0.29,0.16,0.27,0.33c-0.01,0.16-0.15,0.27-0.3,0.27H23.88z M22.01,15.18c-0.02-0.17,0.1-0.31,0.27-0.33
	c0.17-0.02,0.31,0.1,0.33,0.27c0.02,0.17-0.1,0.32-0.27,0.33c-0.01,0-0.02,0-0.03,0C22.16,15.45,22.03,15.34,22.01,15.18
	 M24.65,15.55c-0.16-0.03-0.27-0.19-0.24-0.35c0.03-0.17,0.19-0.27,0.35-0.24c0.16,0.03,0.27,0.19,0.24,0.35
	c-0.03,0.15-0.15,0.24-0.3,0.24C24.69,15.55,24.67,15.55,24.65,15.55 M21.23,15.34c-0.04-0.17,0.07-0.32,0.23-0.36
	c0.16-0.03,0.32,0.07,0.36,0.23c0.03,0.16-0.07,0.32-0.23,0.36c-0.02,0-0.04,0.01-0.06,0.01C21.38,15.58,21.26,15.48,21.23,15.34
	 M25.39,15.73c-0.16-0.05-0.25-0.22-0.2-0.38c0.05-0.16,0.22-0.25,0.38-0.2c0.16,0.05,0.25,0.22,0.2,0.38
	c-0.04,0.13-0.16,0.22-0.29,0.22C25.45,15.74,25.42,15.74,25.39,15.73 M20.46,15.58c-0.05-0.16,0.04-0.33,0.19-0.38h0
	c0.16-0.05,0.33,0.04,0.38,0.2c0.05,0.16-0.03,0.33-0.19,0.38c-0.03,0.01-0.06,0.02-0.09,0.02C20.62,15.79,20.5,15.71,20.46,15.58
	 M26.12,15.99c-0.15-0.06-0.23-0.24-0.16-0.4c0.06-0.15,0.24-0.23,0.4-0.16c0.15,0.06,0.23,0.24,0.16,0.4
	c-0.05,0.12-0.16,0.19-0.28,0.19C26.2,16.02,26.16,16.01,26.12,15.99 M19.73,15.89c-0.07-0.15,0-0.33,0.16-0.4
	c0.15-0.07,0.33,0,0.4,0.16c0.07,0.15,0,0.33-0.16,0.4c-0.04,0.02-0.08,0.03-0.12,0.03C19.89,16.07,19.78,16.01,19.73,15.89
	 M26.81,16.33c-0.15-0.08-0.2-0.26-0.12-0.41c0.08-0.15,0.26-0.2,0.41-0.12c0.15,0.08,0.2,0.26,0.12,0.41
	c-0.05,0.1-0.16,0.16-0.27,0.16C26.91,16.36,26.86,16.35,26.81,16.33 M19.02,16.28c-0.08-0.15-0.03-0.33,0.11-0.41
	c0.15-0.08,0.33-0.03,0.41,0.11c0.08,0.15,0.03,0.33-0.11,0.41c-0.05,0.03-0.1,0.04-0.15,0.04C19.18,16.43,19.08,16.38,19.02,16.28
	 M27.47,16.73L27.47,16.73c-0.14-0.09-0.17-0.28-0.08-0.42c0.09-0.14,0.28-0.17,0.42-0.08h0c0.14,0.09,0.17,0.28,0.08,0.42
	c-0.06,0.08-0.15,0.13-0.25,0.13C27.58,16.78,27.52,16.76,27.47,16.73 M18.37,16.73c-0.1-0.14-0.06-0.32,0.07-0.42
	c0.14-0.1,0.32-0.06,0.42,0.07c0.1,0.14,0.06,0.32-0.07,0.42c-0.05,0.04-0.11,0.06-0.18,0.06C18.52,16.86,18.43,16.82,18.37,16.73
	 M28.08,17.19L28.08,17.19c-0.13-0.11-0.14-0.3-0.04-0.43c0.11-0.13,0.3-0.15,0.43-0.04c0.13,0.11,0.14,0.3,0.04,0.43
	c-0.06,0.07-0.15,0.11-0.23,0.11C28.21,17.26,28.14,17.24,28.08,17.19 M17.76,17.25c-0.11-0.12-0.1-0.32,0.03-0.43
	c0.12-0.11,0.32-0.1,0.43,0.03c0.11,0.12,0.1,0.32-0.03,0.43c-0.06,0.05-0.13,0.07-0.2,0.07C17.9,17.36,17.82,17.32,17.76,17.25
	 M28.65,17.72c-0.12-0.12-0.11-0.31,0.01-0.43c0.12-0.12,0.31-0.11,0.43,0.01c0.12,0.12,0.11,0.31-0.01,0.43
	c-0.06,0.06-0.13,0.08-0.21,0.08C28.78,17.81,28.7,17.78,28.65,17.72 M17.2,17.83c-0.12-0.11-0.13-0.3-0.02-0.43
	c0.11-0.12,0.31-0.13,0.43-0.01c0.12,0.11,0.13,0.31,0.02,0.43c-0.06,0.06-0.14,0.1-0.22,0.1C17.34,17.92,17.26,17.89,17.2,17.83
	 M29.15,18.3L29.15,18.3c-0.1-0.13-0.08-0.32,0.05-0.43c0.13-0.1,0.32-0.08,0.43,0.05c0.1,0.13,0.08,0.32-0.05,0.43
	c-0.05,0.04-0.12,0.06-0.19,0.06C29.3,18.41,29.21,18.37,29.15,18.3 M16.71,18.46c-0.13-0.1-0.16-0.29-0.06-0.42
	c0.1-0.13,0.29-0.16,0.43-0.06c0.13,0.1,0.16,0.29,0.06,0.42c-0.06,0.08-0.15,0.12-0.24,0.12C16.83,18.53,16.76,18.51,16.71,18.46
	 M29.6,18.92L29.6,18.92c-0.09-0.14-0.05-0.33,0.09-0.42c0.14-0.09,0.33-0.05,0.42,0.09c0.09,0.14,0.05,0.33-0.09,0.42
	c-0.05,0.03-0.11,0.05-0.16,0.05C29.75,19.06,29.66,19.01,29.6,18.92 M16.28,19.14c-0.14-0.09-0.19-0.27-0.1-0.42
	c0.09-0.14,0.27-0.19,0.42-0.1c0.14,0.09,0.19,0.27,0.1,0.42c-0.06,0.09-0.16,0.15-0.26,0.15C16.39,19.19,16.33,19.17,16.28,19.14
	 M29.98,19.59c-0.07-0.15-0.02-0.33,0.13-0.41c0.15-0.07,0.33-0.01,0.41,0.13c0.07,0.15,0.01,0.33-0.13,0.41
	c-0.04,0.02-0.09,0.03-0.14,0.03C30.14,19.76,30.03,19.7,29.98,19.59 M15.93,19.86c-0.15-0.07-0.21-0.25-0.14-0.41
	c0.07-0.15,0.25-0.21,0.4-0.14c0.15,0.07,0.22,0.25,0.14,0.4c-0.05,0.11-0.16,0.17-0.27,0.17C16.01,19.89,15.97,19.88,15.93,19.86
	 M30.29,20.3c-0.06-0.16,0.02-0.33,0.18-0.39c0.16-0.06,0.33,0.02,0.39,0.18c0.06,0.16-0.02,0.33-0.17,0.39
	c-0.04,0.01-0.07,0.02-0.11,0.02C30.45,20.49,30.34,20.42,30.29,20.3 M15.65,20.61c-0.16-0.06-0.24-0.23-0.18-0.39
	c0.06-0.16,0.23-0.24,0.39-0.18c0.16,0.06,0.24,0.23,0.18,0.39c-0.04,0.12-0.16,0.2-0.28,0.2C15.71,20.63,15.68,20.62,15.65,20.61
	 M30.53,21.03L30.53,21.03c-0.04-0.16,0.05-0.33,0.21-0.37c0.16-0.04,0.33,0.05,0.37,0.21c0.04,0.16-0.05,0.33-0.21,0.37
	c-0.03,0.01-0.05,0.01-0.08,0.01C30.68,21.25,30.56,21.16,30.53,21.03 M15.44,21.38c-0.16-0.04-0.26-0.21-0.22-0.37
	c0.04-0.16,0.2-0.26,0.36-0.22c0.16,0.04,0.26,0.2,0.22,0.37c-0.03,0.14-0.16,0.23-0.29,0.23C15.49,21.39,15.47,21.39,15.44,21.38
	 M30.69,21.78L30.69,21.78c-0.03-0.16,0.08-0.32,0.25-0.35c0.17-0.03,0.32,0.09,0.35,0.25c0.03,0.17-0.09,0.32-0.25,0.35
	c-0.02,0-0.03,0-0.05,0C30.84,22.03,30.71,21.93,30.69,21.78 M15.32,22.17c-0.17-0.02-0.28-0.18-0.26-0.34
	c0.02-0.17,0.18-0.28,0.34-0.26c0.17,0.02,0.28,0.18,0.26,0.34h0c-0.02,0.15-0.15,0.26-0.3,0.26
	C15.35,22.18,15.33,22.18,15.32,22.17 M30.77,22.55c-0.01-0.17,0.12-0.31,0.28-0.32c0.17-0.01,0.31,0.12,0.32,0.28
	c0.01,0.17-0.12,0.31-0.28,0.32h-0.02C30.92,22.83,30.78,22.7,30.77,22.55 M15.28,22.98c-0.17-0.01-0.3-0.15-0.29-0.31
	c0.01-0.17,0.15-0.3,0.31-0.29c0.17,0.01,0.3,0.15,0.29,0.31v0c-0.01,0.16-0.14,0.29-0.3,0.29H15.28z M31.07,23.63
	c-0.17-0.01-0.3-0.15-0.29-0.31c0.01-0.17,0.15-0.3,0.31-0.29c0.17,0.01,0.3,0.15,0.29,0.31c-0.01,0.16-0.14,0.29-0.3,0.29H31.07z
	 M14.99,23.49c-0.01-0.17,0.12-0.31,0.28-0.32c0.17-0.01,0.31,0.12,0.32,0.28c0.01,0.17-0.12,0.31-0.28,0.32H15.3
	C15.14,23.78,15,23.65,14.99,23.49 M30.97,24.42c-0.17-0.02-0.28-0.18-0.26-0.34c0.02-0.17,0.18-0.28,0.34-0.26
	c0.16,0.02,0.28,0.18,0.26,0.34c-0.02,0.15-0.15,0.26-0.3,0.26C31,24.43,30.99,24.43,30.97,24.42 M15.08,24.32L15.08,24.32
	c-0.03-0.17,0.08-0.32,0.25-0.35c0.17-0.03,0.32,0.09,0.35,0.25c0.03,0.17-0.09,0.32-0.25,0.35c-0.02,0-0.03,0-0.05,0
	C15.24,24.57,15.11,24.47,15.08,24.32 M30.79,25.2c-0.16-0.04-0.26-0.21-0.22-0.37c0.04-0.16,0.21-0.26,0.37-0.22
	c0.16,0.04,0.26,0.21,0.22,0.37c-0.03,0.14-0.16,0.23-0.29,0.23C30.84,25.21,30.81,25.21,30.79,25.2 M15.26,25.13
	c-0.04-0.16,0.05-0.33,0.21-0.37c0.16-0.04,0.33,0.05,0.37,0.22c0.04,0.16-0.05,0.33-0.21,0.37c-0.03,0.01-0.05,0.01-0.08,0.01
	C15.41,25.35,15.29,25.26,15.26,25.13 M30.53,25.96c-0.16-0.06-0.24-0.23-0.18-0.39c0.06-0.16,0.23-0.24,0.39-0.18
	c0.16,0.06,0.24,0.23,0.18,0.39c-0.04,0.12-0.16,0.2-0.28,0.2C30.59,25.98,30.56,25.97,30.53,25.96 M15.51,25.92
	c-0.06-0.16,0.02-0.33,0.18-0.39c0.16-0.06,0.33,0.02,0.39,0.18c0.06,0.16-0.02,0.33-0.18,0.39c-0.04,0.01-0.07,0.02-0.11,0.02
	C15.67,26.12,15.56,26.04,15.51,25.92 M30.19,26.69c-0.15-0.07-0.21-0.25-0.14-0.4c0.07-0.15,0.25-0.21,0.4-0.14
	c0.15,0.07,0.21,0.25,0.14,0.4h0c-0.05,0.11-0.16,0.17-0.27,0.17C30.28,26.72,30.23,26.71,30.19,26.69 M15.85,26.68
	c-0.07-0.15-0.01-0.33,0.14-0.41c0.15-0.08,0.33-0.02,0.41,0.14c0.07,0.15,0.01,0.33-0.13,0.41c-0.04,0.02-0.09,0.03-0.13,0.03
	C16,26.85,15.9,26.79,15.85,26.68 M29.78,27.38c-0.14-0.09-0.19-0.27-0.1-0.42c0.09-0.14,0.27-0.19,0.42-0.1
	c0.14,0.09,0.19,0.27,0.1,0.42c-0.06,0.09-0.16,0.15-0.26,0.15C29.88,27.42,29.83,27.41,29.78,27.38 M16.25,27.41
	c-0.09-0.14-0.05-0.33,0.09-0.42c0.14-0.09,0.33-0.05,0.42,0.09c0.09,0.14,0.05,0.33-0.09,0.42c-0.05,0.03-0.11,0.05-0.16,0.05
	C16.41,27.54,16.31,27.5,16.25,27.41 M29.31,28.02c-0.13-0.1-0.16-0.29-0.06-0.42c0.1-0.13,0.29-0.16,0.42-0.06
	c0.13,0.1,0.16,0.29,0.06,0.42c-0.06,0.08-0.15,0.12-0.24,0.12C29.43,28.08,29.36,28.06,29.31,28.02 M16.73,28.08
	c-0.1-0.13-0.08-0.32,0.05-0.43c0.13-0.1,0.32-0.08,0.43,0.05c0.1,0.13,0.08,0.32-0.05,0.43c-0.06,0.04-0.12,0.06-0.19,0.06
	C16.88,28.2,16.8,28.16,16.73,28.08 M28.77,28.61c-0.12-0.11-0.13-0.31-0.02-0.43c0.11-0.12,0.3-0.13,0.43-0.02
	c0.12,0.11,0.13,0.3,0.02,0.43c-0.06,0.06-0.14,0.1-0.22,0.1C28.9,28.7,28.83,28.67,28.77,28.61 M17.28,28.71
	c-0.11-0.12-0.11-0.31,0.01-0.43c0.12-0.11,0.31-0.11,0.43,0.01c0.12,0.12,0.11,0.31-0.01,0.43c-0.06,0.06-0.13,0.08-0.21,0.08
	C17.42,28.8,17.34,28.77,17.28,28.71 M28.17,29.15c-0.11-0.12-0.1-0.32,0.03-0.43c0.12-0.11,0.32-0.1,0.43,0.03
	c0.11,0.13,0.1,0.32-0.03,0.43c-0.06,0.05-0.13,0.07-0.2,0.07C28.31,29.25,28.23,29.22,28.17,29.15 M17.89,29.28
	c-0.13-0.11-0.14-0.3-0.03-0.43c0.11-0.13,0.3-0.14,0.43-0.04c0.13,0.11,0.14,0.3,0.04,0.43c-0.06,0.07-0.15,0.11-0.23,0.11
	C18.01,29.35,17.94,29.32,17.89,29.28 M27.53,29.62c-0.1-0.14-0.07-0.32,0.07-0.42c0.13-0.1,0.32-0.06,0.42,0.07
	c0.1,0.13,0.06,0.32-0.07,0.42c-0.05,0.04-0.11,0.06-0.18,0.06C27.68,29.75,27.58,29.71,27.53,29.62 M18.55,29.78
	c-0.14-0.09-0.17-0.28-0.08-0.42c0.09-0.14,0.28-0.17,0.42-0.08c0.14,0.09,0.17,0.28,0.08,0.42c-0.06,0.09-0.15,0.13-0.25,0.13
	C18.66,29.83,18.6,29.82,18.55,29.78 M26.84,30.03c-0.08-0.15-0.03-0.33,0.11-0.41c0.15-0.08,0.33-0.03,0.41,0.11
	c0.08,0.14,0.03,0.33-0.11,0.41c-0.05,0.03-0.1,0.04-0.15,0.04C26.99,30.18,26.89,30.13,26.84,30.03 M19.26,30.22L19.26,30.22
	c-0.15-0.08-0.2-0.26-0.12-0.41c0.08-0.15,0.26-0.2,0.41-0.12c0.15,0.08,0.2,0.26,0.12,0.41c-0.05,0.1-0.16,0.16-0.27,0.16
	C19.35,30.25,19.3,30.24,19.26,30.22 M26.11,30.36c-0.07-0.15,0-0.33,0.15-0.4c0.15-0.07,0.33,0,0.4,0.15c0.07,0.15,0,0.33-0.15,0.4
	c-0.04,0.02-0.08,0.03-0.12,0.03C26.27,30.54,26.16,30.48,26.11,30.36 M20.01,30.58c-0.16-0.06-0.23-0.24-0.16-0.4
	c0.06-0.16,0.24-0.23,0.4-0.16c0.16,0.06,0.23,0.24,0.16,0.4c-0.05,0.11-0.16,0.19-0.28,0.19C20.08,30.6,20.04,30.59,20.01,30.58
	 M25.35,30.62c-0.05-0.16,0.03-0.33,0.19-0.38c0.16-0.05,0.33,0.04,0.38,0.19c0.05,0.16-0.03,0.33-0.19,0.38
	c-0.03,0.01-0.06,0.01-0.09,0.01C25.51,30.83,25.39,30.75,25.35,30.62 M20.79,30.86L20.79,30.86c-0.16-0.05-0.25-0.22-0.2-0.38
	c0.05-0.16,0.22-0.25,0.38-0.2c0.16,0.05,0.25,0.22,0.2,0.38c-0.04,0.13-0.16,0.21-0.29,0.21C20.85,30.87,20.82,30.87,20.79,30.86
	 M24.57,30.8c-0.03-0.16,0.07-0.32,0.23-0.36c0.16-0.04,0.32,0.07,0.36,0.23c0.03,0.16-0.07,0.32-0.23,0.36
	c-0.02,0.01-0.04,0.01-0.06,0.01C24.72,31.04,24.6,30.94,24.57,30.8 M21.59,31.06L21.59,31.06c-0.16-0.03-0.27-0.19-0.24-0.36
	c0.03-0.16,0.19-0.27,0.35-0.24c0.17,0.03,0.27,0.19,0.24,0.35c-0.03,0.15-0.16,0.24-0.3,0.24C21.63,31.07,21.61,31.06,21.59,31.06
	 M23.77,30.9c-0.02-0.17,0.1-0.31,0.27-0.33c0.17-0.02,0.31,0.1,0.33,0.27c0.02,0.17-0.1,0.31-0.27,0.33c-0.01,0-0.02,0-0.03,0
	C23.92,31.17,23.79,31.05,23.77,30.9 M22.41,31.18c-0.17-0.02-0.29-0.16-0.27-0.33c0.02-0.17,0.16-0.29,0.33-0.27
	c0.17,0.02,0.29,0.16,0.27,0.33c-0.02,0.16-0.15,0.27-0.3,0.27H22.41z M22.94,30.91c0-0.17,0.13-0.3,0.3-0.3h0.01h0.02
	c0.17,0,0.3,0.13,0.31,0.3c0,0.17-0.13,0.3-0.3,0.31h-0.02h-0.02h0C23.08,31.21,22.94,31.08,22.94,30.91"/>
<path class="st0" d="M34.94,23.01c0,6.49-5.26,11.75-11.75,11.75c-6.49,0-11.75-5.26-11.75-11.75s5.26-11.75,11.75-11.75
	C29.68,11.25,34.94,16.52,34.94,23.01"/>
<path class="st2" d="M14.89,18.6c0.41,0,0.66-0.14,0.66-0.56c0-0.42-0.28-0.55-0.66-0.55H14.1v1.11H14.89z M14.63,18.8H14.1v1.13
	h-0.22v-2.66h1c0.5,0,0.88,0.22,0.89,0.77c0,0.55-0.41,0.76-0.89,0.76h-0.01l0.89,1.13H15.5L14.63,18.8z"/>
<polygon class="st2" points="18.66,18.49 19.99,18.49 19.99,18.71 18.66,18.71 18.66,19.71 20.11,19.71 20.11,19.93 18.44,19.93 
	18.44,17.27 20.11,17.27 20.11,17.49 18.66,17.49 "/>
<rect x="23.02" y="17.27" class="st2" width="0.22" height="2.66"/>
<polygon class="st2" points="26.04,17.58 26.04,19.93 25.82,19.93 25.82,17.27 26.14,17.27 27.03,19.28 27.92,17.27 28.24,17.27 
	28.24,19.93 28.02,19.93 28.02,17.58 27.14,19.57 26.93,19.57 "/>
<path class="st2" d="M31.54,18.44c0.46,0.09,0.96,0.19,0.93,0.83c-0.02,0.47-0.48,0.7-0.95,0.7c-0.4,0-0.81-0.17-0.96-0.51l0.2-0.09
	c0.11,0.26,0.44,0.38,0.76,0.38c0.35,0,0.69-0.16,0.72-0.48c0.03-0.44-0.36-0.53-0.77-0.62c-0.44-0.09-0.9-0.19-0.88-0.74
	c0.02-0.45,0.46-0.68,0.92-0.68c0.39,0,0.79,0.17,0.94,0.5l-0.2,0.09c-0.11-0.25-0.43-0.37-0.74-0.37c-0.35,0-0.68,0.15-0.7,0.46
	C30.8,18.29,31.16,18.37,31.54,18.44"/>
<path class="st1" d="M15.41,22.56c-0.09-0.2-0.3-0.29-0.5-0.29c-0.24,0-0.47,0.13-0.47,0.37v0.97c0,0.24,0.24,0.35,0.49,0.35
	c0.25,0,0.5-0.12,0.5-0.35v-0.13h-0.6v-0.54h1.15v0.66c0,0.59-0.52,0.89-1.04,0.89c-0.52,0-1.04-0.29-1.04-0.89v-0.97
	c0-0.58,0.52-0.87,1.04-0.87c0.36,0,0.73,0.15,0.93,0.56L15.41,22.56z"/>
<path class="st1" d="M19.08,22.98c0.24,0,0.4-0.1,0.4-0.33c0-0.23-0.17-0.3-0.4-0.3h-0.49v0.63H19.08z M18.78,23.48h-0.2v0.97h-0.56
	v-2.66h1.05c0.53,0,0.93,0.24,0.95,0.85c0,0.49-0.22,0.72-0.6,0.8l0.79,1.01h-0.68L18.78,23.48z"/>
<path class="st1" d="M27.83,23.72c-0.03-0.17-0.08-0.51-0.08-0.56v-1.36h0.55v2.66h-0.59l-0.81-1.4l-0.16-0.36L26.7,22.7l0.07,0.45
	v1.3h-0.56v-2.66h0.54l0.84,1.45l0.19,0.48L27.83,23.72z"/>
<path class="st1" d="M31.47,23.9c0.24,0,0.46-0.08,0.46-0.29v-0.95c0-0.22-0.22-0.31-0.46-0.31h-0.42v1.55H31.47z M31.47,21.79
	c0.53,0,1.01,0.26,1.01,0.86v0.95c0,0.6-0.49,0.85-1.01,0.85h-0.98v-2.66H31.47z"/>
<path class="st1" d="M15.87,28.23c-0.23,0.37-0.59,0.56-0.95,0.56c-0.51,0-1.04-0.3-1.04-0.88v-0.97c0-0.58,0.52-0.88,1.04-0.88
	c0.35,0,0.74,0.18,0.92,0.57l-0.44,0.24c-0.11-0.2-0.32-0.29-0.52-0.29c-0.24,0-0.45,0.14-0.45,0.36v0.97
	c0,0.22,0.21,0.35,0.44,0.35c0.2,0,0.42-0.09,0.52-0.29L15.87,28.23z"/>
<polygon class="st1" points="17.75,27.15 18.89,27.15 18.89,27.68 17.75,27.68 17.75,28.21 18.99,28.21 18.99,28.75 17.19,28.75 
	17.19,26.08 18.99,26.08 18.99,26.62 17.75,26.62 "/>
<path class="st1" d="M22.04,28.01c-0.03-0.17-0.08-0.51-0.08-0.56v-1.36h0.55v2.66h-0.59l-0.81-1.4l-0.16-0.36L20.91,27l0.07,0.45
	v1.3h-0.56v-2.66h0.54l0.84,1.45L22,28.02L22.04,28.01z"/>
<polygon class="st1" points="25.17,26.64 25.17,28.75 24.61,28.75 24.61,26.64 23.85,26.64 23.85,26.08 25.93,26.08 25.93,26.64 "/>
<path class="st1" d="M28.31,27.27c0.24,0,0.4-0.1,0.4-0.33c0-0.23-0.17-0.3-0.4-0.3h-0.49v0.63H28.31z M28.02,27.77h-0.2v0.97h-0.56
	v-2.66h1.05c0.53,0,0.93,0.24,0.95,0.85c0,0.49-0.22,0.72-0.6,0.8l0.79,1.01h-0.68L28.02,27.77z"/>
<polygon class="st1" points="31.24,27.15 32.39,27.15 32.39,27.68 31.24,27.68 31.24,28.21 32.49,28.21 32.49,28.75 30.69,28.75 
	30.69,26.08 32.49,26.08 32.49,26.62 31.24,26.62 "/>
<polygon class="st1" points="23.13,21.74 21.57,24.45 22.21,24.45 23.13,22.84 24.06,24.45 24.7,24.45 "/>
<path class="st1" d="M22.98,23.85c-0.08,0.08-0.08,0.22,0,0.31c0.08,0.08,0.22,0.08,0.31,0c0.08-0.08,0.08-0.22,0-0.31
	C23.2,23.77,23.07,23.77,22.98,23.85"/>
</svg>
