<?xml version="1.0" encoding="utf-8"?>
<!-- Generator: Adobe Illustrator 25.2.2, SVG Export Plug-In . SVG Version: 6.00 Build 0)  -->
<svg version="1.1" id="Calque_1" xmlns="http://www.w3.org/2000/svg" xmlns:xlink="http://www.w3.org/1999/xlink" x="0px" y="0px"
	 viewBox="0 0 46 46" style="enable-background:new 0 0 46 46;" xml:space="preserve">
<style type="text/css">
	.st0{fill:#AC79B5;}
	.st1{fill:#FFFFFF;}
	.st2{fill:#101418;}
</style>
<path class="st0" d="M13.22,24.83H-0.12v1.57H12.9c0.65,0,0.97,0.78,0.51,1.24l-9.2,9.2l1.11,1.11l9.43-9.43
	C16.12,27.16,15.15,24.83,13.22,24.83"/>
<path class="st0" d="M17.29,31.14l-9.43,9.43l1.11,1.11l9.2-9.2c0.46-0.46,1.24-0.13,1.24,0.51v13.01l1.57,0V32.67
	C20.98,30.75,18.65,29.78,17.29,31.14"/>
<path class="st0" d="M24.63,32.74v13.34h1.57V33.06c0-0.65,0.78-0.97,1.24-0.51l9.2,9.2l1.11-1.11l-9.43-9.43
	C26.96,29.84,24.63,30.81,24.63,32.74"/>
<path class="st0" d="M30.94,28.67l9.43,9.43l1.11-1.11l-9.2-9.2c-0.46-0.46-0.13-1.24,0.51-1.24h13.01l0-1.57H32.47
	C30.54,24.98,29.58,27.31,30.94,28.67"/>
<path class="st0" d="M32.53,21.33h13.34v-1.57H32.86c-0.65,0-0.97-0.78-0.51-1.24l9.2-9.2l-1.11-1.11L31,17.64
	C29.64,19,30.6,21.33,32.53,21.33"/>
<path class="st0" d="M28.47,15.02l9.43-9.43l-1.11-1.11l-9.2,9.2c-0.46,0.46-1.24,0.13-1.24-0.51V0.15l-1.57,0v13.34
	C24.77,15.42,27.1,16.38,28.47,15.02"/>
<path class="st0" d="M21.1,13.46V0.12h-1.57v13.01c0,0.65-0.78,0.97-1.24,0.51l-9.2-9.2L7.97,5.56l9.43,9.43
	C18.77,16.35,21.1,15.39,21.1,13.46"/>
<path class="st0" d="M14.78,17.52L5.35,8.09L4.24,9.2l9.2,9.2c0.46,0.46,0.13,1.24-0.51,1.24H-0.08l0,1.57h13.34
	C15.18,21.22,16.15,18.89,14.78,17.52"/>
<path class="st1" d="M35.08,23.11c0,6.7-5.43,12.14-12.14,12.14c-6.7,0-12.14-5.43-12.14-12.14c0-6.7,5.43-12.14,12.14-12.14
	C29.65,10.98,35.08,16.41,35.08,23.11"/>
<path class="st2" d="M14.34,18.35c0.42,0,0.69-0.14,0.69-0.57c0-0.43-0.29-0.57-0.69-0.57h-0.81v1.14H14.34z M14.07,18.56h-0.54
	v1.16H13.3v-2.74h1.03c0.52,0,0.91,0.23,0.92,0.8c0,0.57-0.42,0.78-0.92,0.78h-0.01l0.92,1.16h-0.28L14.07,18.56z"/>
<polygon class="st2" points="18.1,18.23 19.48,18.23 19.48,18.46 18.1,18.46 18.1,19.49 19.59,19.49 19.59,19.72 17.87,19.72 
	17.87,16.98 19.59,16.98 19.59,17.2 18.1,17.2 "/>
<rect x="22.64" y="16.98" class="st2" width="0.23" height="2.74"/>
<polygon class="st2" points="25.69,17.29 25.69,19.72 25.46,19.72 25.46,16.98 25.8,16.98 26.71,19.05 27.63,16.98 27.96,16.98 
	27.96,19.72 27.73,19.72 27.73,17.29 26.82,19.34 26.61,19.34 "/>
<path class="st2" d="M31.4,18.19c0.47,0.09,0.99,0.2,0.96,0.85c-0.02,0.48-0.5,0.72-0.98,0.72c-0.41,0-0.83-0.18-0.99-0.53
	l0.21-0.09c0.12,0.26,0.45,0.4,0.79,0.4c0.36,0,0.72-0.16,0.74-0.5c0.03-0.46-0.37-0.55-0.79-0.64c-0.45-0.09-0.93-0.19-0.91-0.76
	c0.02-0.46,0.48-0.7,0.95-0.7c0.41,0,0.82,0.17,0.97,0.52l-0.21,0.09c-0.11-0.26-0.45-0.38-0.76-0.38c-0.36,0-0.7,0.15-0.73,0.47
	C30.64,18.03,31,18.11,31.4,18.19"/>
<path class="st0" d="M14.74,22.43c-0.09-0.21-0.31-0.3-0.52-0.3c-0.25,0-0.49,0.14-0.49,0.38v1c0,0.24,0.25,0.36,0.51,0.36
	c0.26,0,0.52-0.12,0.52-0.36v-0.13h-0.62v-0.55h1.18v0.69c0,0.61-0.54,0.91-1.07,0.92c-0.54,0-1.08-0.3-1.08-0.92v-1
	c0-0.6,0.53-0.9,1.07-0.9c0.37,0,0.76,0.15,0.97,0.58L14.74,22.43z"/>
<path class="st0" d="M18.53,22.87c0.25,0,0.41-0.1,0.41-0.34c0-0.23-0.17-0.31-0.41-0.31h-0.51v0.65H18.53z M18.22,23.39h-0.2v1
	h-0.57v-2.74h1.08c0.55,0,0.97,0.25,0.98,0.88c0,0.5-0.23,0.75-0.62,0.83l0.82,1.04H19L18.22,23.39z"/>
<path class="st0" d="M27.57,23.63c-0.03-0.18-0.08-0.52-0.08-0.58v-1.4h0.57v2.74h-0.61l-0.84-1.44l-0.17-0.37l-0.04,0.01l0.07,0.47
	v1.34h-0.57v-2.74h0.56l0.87,1.5l0.19,0.5L27.57,23.63z"/>
<path class="st0" d="M31.32,23.82c0.25,0,0.47-0.08,0.47-0.3v-0.98c0-0.22-0.22-0.32-0.47-0.32h-0.44v1.6H31.32z M31.32,21.65
	c0.54,0,1.05,0.27,1.05,0.89v0.98c0,0.62-0.5,0.88-1.05,0.88h-1.01v-2.74H31.32z"/>
<path class="st0" d="M15.22,28.29c-0.24,0.38-0.61,0.57-0.98,0.57c-0.53,0-1.08-0.31-1.08-0.91v-1c0-0.6,0.54-0.91,1.08-0.91
	c0.36,0,0.77,0.19,0.95,0.59l-0.46,0.25c-0.11-0.21-0.33-0.3-0.54-0.29c-0.24,0-0.47,0.14-0.47,0.37v1c0,0.22,0.22,0.36,0.46,0.36
	c0.21,0,0.43-0.09,0.54-0.3L15.22,28.29z"/>
<polygon class="st0" points="17.16,27.17 18.34,27.17 18.34,27.73 17.16,27.73 17.16,28.27 18.44,28.27 18.44,28.82 16.58,28.82 
	16.58,26.07 18.44,26.07 18.44,26.63 17.16,26.63 "/>
<path class="st0" d="M21.59,28.06c-0.03-0.18-0.08-0.52-0.08-0.58v-1.4h0.57v2.74h-0.61l-0.84-1.44l-0.17-0.37l-0.04,0.01l0.07,0.47
	v1.34h-0.57v-2.74h0.56l0.87,1.5l0.19,0.5L21.59,28.06z"/>
<polygon class="st0" points="24.82,26.65 24.82,28.82 24.25,28.82 24.25,26.65 23.46,26.65 23.46,26.07 25.61,26.07 25.61,26.65 "/>
<path class="st0" d="M28.07,27.3c0.25,0,0.41-0.1,0.41-0.34c0-0.23-0.17-0.31-0.41-0.31h-0.51v0.65H28.07z M27.76,27.82h-0.2v1
	h-0.57v-2.74h1.08c0.55,0,0.97,0.25,0.98,0.88c0,0.5-0.23,0.75-0.62,0.83l0.82,1.04h-0.7L27.76,27.82z"/>
<polygon class="st0" points="31.09,27.17 32.28,27.17 32.28,27.73 31.09,27.73 31.09,28.27 32.38,28.27 32.38,28.82 30.52,28.82 
	30.52,26.07 32.38,26.07 32.38,26.63 31.09,26.63 "/>
<polygon class="st0" points="22.72,21.48 21.1,24.28 21.76,24.28 22.72,22.61 23.68,24.28 24.33,24.28 "/>
<path class="st0" d="M22.56,23.66c-0.09,0.09-0.09,0.23,0,0.32c0.09,0.09,0.23,0.09,0.32,0c0.09-0.09,0.09-0.23,0-0.32
	C22.79,23.57,22.65,23.57,22.56,23.66"/>
</svg>
