<?xml version="1.0" encoding="UTF-8"?>
<svg xmlns="http://www.w3.org/2000/svg" xmlns:xlink="http://www.w3.org/1999/xlink" viewBox="0 0 120 120">
  <defs>
    <style>.uuid-7bbcca0c-d481-4e4f-a05e-061d98f66594{clip-path:url(#uuid-cab2e31f-325a-4b2a-9fd7-8c7d2f9e10fc);}.uuid-00206e93-902c-4b59-98d4-0c3ec8f28244{clip-path:url(#uuid-de071d21-7c44-4c92-b1be-ddaf4b0ef65f);}.uuid-4ff12e7c-0c67-45f4-96c4-44dc78c5de7d{fill:#ba2f55;}.uuid-5791d0e3-f48a-4c56-995b-b65279c1daa6,.uuid-a90cbfc0-c107-4ff4-a585-6608f902db68{fill:#fff;}.uuid-467ef6d0-e01b-4fc3-be78-37395919e8b2{fill:#571d60;}.uuid-cce7df9e-39f9-417e-a7ca-11c87125a6bf{fill:#ff5e8a;}.uuid-5a3a9c47-ed78-4a90-a404-f94e164d5877{clip-path:url(#uuid-ffbc90aa-6a5f-4d2b-9071-f9f576571050);}.uuid-a90cbfc0-c107-4ff4-a585-6608f902db68{fill-rule:evenodd;}.uuid-a3c248f3-c254-4514-97ea-9d3a6f5165b8{opacity:.1;}.uuid-a3c248f3-c254-4514-97ea-9d3a6f5165b8,.uuid-40cdd68b-e81f-4e62-b4d6-884333bfe078{mix-blend-mode:multiply;}.uuid-e4da453f-c630-4426-ac8a-c9d311d0b5d0{clip-path:url(#uuid-19391e4f-d12f-4acc-a3a1-85466e6f0d66);}.uuid-599be880-6f74-47c4-9e07-4b23b91bfe4d{fill:#f5f5f5;}.uuid-5c6950f1-db0c-4fd5-8bf3-4b19da4cbc60{fill:#ffd300;}.uuid-f393bbd0-28f7-4911-8556-6a14f9e21881{clip-path:url(#uuid-4fd80f85-e0ee-460d-900a-c43566b68f9e);}.uuid-1c696301-aff8-4983-8f7b-37e682a011b3{clip-path:url(#uuid-5ace234e-425d-4ac4-8813-734a2b6e1552);}.uuid-d48b134d-2bec-44af-be0d-a120bc4149b2{fill:#6a9427;}.uuid-a211946f-46c3-4f83-b8e7-264f24abc04a{isolation:isolate;}.uuid-2df6af5c-48df-425d-bd94-58cfcd6cfde4{fill:#ffb880;}.uuid-be45235c-f3be-4110-9664-198649a741c3{fill:#dba46c;}.uuid-1a03e0da-7ef3-4775-af73-eff925ad6a3a{fill:#ff7a5c;}.uuid-3e536a2e-eddb-4148-991b-7d53ba413adc{clip-path:url(#uuid-a3673c93-a9fe-421b-baa6-898465f93fdf);}.uuid-c5f7c15e-8dbf-4f76-bf2f-ee0003afe4b9{fill:#ffc394;}.uuid-eb66f05c-5ce6-4389-a3cd-6b3b994f3a7b{clip-path:url(#uuid-a629a39e-523a-4c66-b3ac-89f711fd8be5);}.uuid-4de400e7-396f-4da1-a202-efec2662f726{fill:#252c3d;}.uuid-9748373e-5b53-48a2-a1fd-84b9e085ba4b{stroke:#fff;stroke-miterlimit:10;stroke-width:10.31px;}.uuid-9748373e-5b53-48a2-a1fd-84b9e085ba4b,.uuid-c17c8445-10d1-4e43-9c10-5c437b79bdb8{fill:none;}.uuid-c95ecaad-0246-44e9-8410-ae2712268c6a{clip-path:url(#uuid-db54adc7-70e3-4271-b483-8e28daa0cfaa);}.uuid-9958fd87-cad0-4711-9150-d15a45481c76{clip-path:url(#uuid-e4c4670f-a143-4eae-bbc0-795ff54d773a);}.uuid-b4ee1b4e-a99c-4a13-9073-1f298a25091a{fill:#692372;}.uuid-690aef5a-133b-4ee2-a003-ce7ad446d58d{fill:#323b52;}.uuid-1f7ddacd-7ab8-4c97-ab54-27ad11741930{fill:#5a6b94;}.uuid-44c934ff-5cca-4727-9ff8-c102778b821f{clip-path:url(#uuid-9964622b-c952-4adf-81d0-953026031b92);}.uuid-e8d4857e-9da5-406a-b453-5bb28d6dc14e{clip-path:url(#uuid-8c9624c0-1b24-4a84-8b8f-fd35363f04e1);}.uuid-9db3fa35-66f1-4151-8d6e-332220b77f5f{clip-path:url(#uuid-c41349a3-c41c-446d-a575-a229e6f5cc26);}.uuid-b4557a8b-3f03-416a-815d-52411dd32423{fill:#ed4f7a;}.uuid-7d089f03-97a7-4e92-bc74-74d25a47b2df{clip-path:url(#uuid-b2786daa-dca3-46bb-b967-dc43476cce2e);}.uuid-40cdd68b-e81f-4e62-b4d6-884333bfe078{opacity:.5;}.uuid-4a3a2941-8dde-4634-8c89-237689b3dcdf{fill:#d65357;}.uuid-98a5ec5d-0648-432b-bc09-f087d5f98da5{fill:#eb7595;}.uuid-0e97dd8d-c02f-4116-9910-3c73cf6a6997{fill:#d75357;}.uuid-9b1868be-6ff5-42fb-90db-64a519e0ce13{fill:#f9b618;}.uuid-46f64472-8645-4ad5-96d3-e0ef13f2a1c3{clip-path:url(#uuid-b10cd861-3e68-4052-a590-d4aba8e09c90);}.uuid-6c2150c1-18f5-4a89-8d0a-eb709143ead3{fill:#b9c8ed;}.uuid-ec66bb30-67bc-4cca-a5f8-2500aee24012{fill:#ffcc9c;}.uuid-e78fb7a8-df14-4edf-8f05-7c6af7826cb7{clip-path:url(#uuid-3f7046bd-c344-49a8-9a89-c8bb11da2ded);}.uuid-52533826-1e62-459d-b286-5a6e12669406{fill:#4c5a7d;}.uuid-cc9a792c-bc94-4d99-a860-a06cbbd2786c{fill:#e8907f;}.uuid-95a69438-66ae-4f90-bd90-408db284ea61{fill:#c74f33;}.uuid-6db717e2-6064-4bbf-9b3d-4ab5c0a7bb11{clip-path:url(#uuid-2a294fc1-db98-4da0-80da-183785326d39);}.uuid-8c3f9728-1bf4-4718-bb81-95ee9341441e{clip-path:url(#uuid-89493191-b95c-4a5f-a1a7-d20dd28231d7);}.uuid-51413979-f3e9-46d2-b72f-123837eff26f{clip-path:url(#uuid-ef954d77-bdaa-439b-a0f9-60cad3a82678);}.uuid-4b57136e-08ff-4711-92ad-5d29147ddf09{fill:#ffd4ae;}.uuid-f375a87f-30df-449d-b182-0632bac41fe4{fill:#ffc9a3;}.uuid-06ec612b-059b-4cbc-aec7-411fed5a2e5b{fill:#eda56b;}.uuid-27988165-7e20-4d88-9af8-ed5116f984eb{fill:#5a9eb3;}.uuid-8a3d54e8-4339-4da7-89a3-bac224575441{fill:#a47a1a;}.uuid-2ed43ae1-c400-423e-b20d-9bb40fddc3e3{clip-path:url(#uuid-0f078a18-503d-44ff-b448-eb1d16166af1);}</style>
    <clipPath id="uuid-4fd80f85-e0ee-460d-900a-c43566b68f9e">
      <rect class="uuid-c17c8445-10d1-4e43-9c10-5c437b79bdb8" x="77.02" y="76.53" width=".46" height=".48"></rect>
    </clipPath>
    <clipPath id="uuid-b10cd861-3e68-4052-a590-d4aba8e09c90">
      <rect class="uuid-c17c8445-10d1-4e43-9c10-5c437b79bdb8" x="77.02" y="76.53" width=".46" height=".48"></rect>
    </clipPath>
    <clipPath id="uuid-db54adc7-70e3-4271-b483-8e28daa0cfaa">
      <rect class="uuid-c17c8445-10d1-4e43-9c10-5c437b79bdb8" x="78.17" y="76.69" width=".45" height=".47"></rect>
    </clipPath>
    <clipPath id="uuid-2a294fc1-db98-4da0-80da-183785326d39">
      <rect class="uuid-c17c8445-10d1-4e43-9c10-5c437b79bdb8" x="78.17" y="76.69" width=".45" height=".47"></rect>
    </clipPath>
    <clipPath id="uuid-3f7046bd-c344-49a8-9a89-c8bb11da2ded">
      <rect class="uuid-c17c8445-10d1-4e43-9c10-5c437b79bdb8" x="74.96" y="76.73" width=".21" height=".08"></rect>
    </clipPath>
    <clipPath id="uuid-0f078a18-503d-44ff-b448-eb1d16166af1">
      <rect class="uuid-c17c8445-10d1-4e43-9c10-5c437b79bdb8" x="74.96" y="76.73" width=".21" height=".08"></rect>
    </clipPath>
    <clipPath id="uuid-8c9624c0-1b24-4a84-8b8f-fd35363f04e1">
      <rect class="uuid-c17c8445-10d1-4e43-9c10-5c437b79bdb8" x="75.96" y="76.32" width=".47" height=".45"></rect>
    </clipPath>
    <clipPath id="uuid-5ace234e-425d-4ac4-8813-734a2b6e1552">
      <rect class="uuid-c17c8445-10d1-4e43-9c10-5c437b79bdb8" x="75.96" y="76.32" width=".47" height=".45"></rect>
    </clipPath>
    <clipPath id="uuid-ffbc90aa-6a5f-4d2b-9071-f9f576571050">
      <rect class="uuid-c17c8445-10d1-4e43-9c10-5c437b79bdb8" x="74.8" y="76.17" width=".39" height=".45"></rect>
    </clipPath>
    <clipPath id="uuid-c41349a3-c41c-446d-a575-a229e6f5cc26">
      <rect class="uuid-c17c8445-10d1-4e43-9c10-5c437b79bdb8" x="74.8" y="76.17" width=".39" height=".45"></rect>
    </clipPath>
    <clipPath id="uuid-89493191-b95c-4a5f-a1a7-d20dd28231d7">
      <rect class="uuid-c17c8445-10d1-4e43-9c10-5c437b79bdb8" x="40.85" y="76.53" width=".46" height=".48"></rect>
    </clipPath>
    <clipPath id="uuid-de071d21-7c44-4c92-b1be-ddaf4b0ef65f">
      <rect class="uuid-c17c8445-10d1-4e43-9c10-5c437b79bdb8" x="40.85" y="76.53" width=".46" height=".48"></rect>
    </clipPath>
    <clipPath id="uuid-a3673c93-a9fe-421b-baa6-898465f93fdf">
      <rect class="uuid-c17c8445-10d1-4e43-9c10-5c437b79bdb8" x="42" y="76.69" width=".45" height=".47"></rect>
    </clipPath>
    <clipPath id="uuid-a629a39e-523a-4c66-b3ac-89f711fd8be5">
      <rect class="uuid-c17c8445-10d1-4e43-9c10-5c437b79bdb8" x="42" y="76.69" width=".45" height=".47"></rect>
    </clipPath>
    <clipPath id="uuid-ef954d77-bdaa-439b-a0f9-60cad3a82678">
      <rect class="uuid-c17c8445-10d1-4e43-9c10-5c437b79bdb8" x="38.78" y="76.73" width=".22" height=".08"></rect>
    </clipPath>
    <clipPath id="uuid-9964622b-c952-4adf-81d0-953026031b92">
      <rect class="uuid-c17c8445-10d1-4e43-9c10-5c437b79bdb8" x="38.79" y="76.73" width=".21" height=".08"></rect>
    </clipPath>
    <clipPath id="uuid-e4c4670f-a143-4eae-bbc0-795ff54d773a">
      <rect class="uuid-c17c8445-10d1-4e43-9c10-5c437b79bdb8" x="39.79" y="76.32" width=".47" height=".45"></rect>
    </clipPath>
    <clipPath id="uuid-cab2e31f-325a-4b2a-9fd7-8c7d2f9e10fc">
      <rect class="uuid-c17c8445-10d1-4e43-9c10-5c437b79bdb8" x="39.79" y="76.32" width=".47" height=".45"></rect>
    </clipPath>
    <clipPath id="uuid-19391e4f-d12f-4acc-a3a1-85466e6f0d66">
      <rect class="uuid-c17c8445-10d1-4e43-9c10-5c437b79bdb8" x="38.63" y="76.17" width=".39" height=".45"></rect>
    </clipPath>
    <clipPath id="uuid-b2786daa-dca3-46bb-b967-dc43476cce2e">
      <rect class="uuid-c17c8445-10d1-4e43-9c10-5c437b79bdb8" x="38.63" y="76.17" width=".39" height=".45"></rect>
    </clipPath>
  </defs>
  <g class="uuid-a211946f-46c3-4f83-b8e7-264f24abc04a">
    <g id="uuid-2b3a2e03-b688-4afa-a1a7-f7c4687e5a7e">
      <circle class="uuid-599be880-6f74-47c4-9e07-4b23b91bfe4d" cx="59.58" cy="59.92" r="50"></circle>
      <g>
        <path class="uuid-a90cbfc0-c107-4ff4-a585-6608f902db68" d="M32.39,82.9c.41,0,.74,.29,.74,.66s-.33,.66-.74,.66v3.12c2.34,0,4.24-1.69,4.24-3.77s-1.9-3.77-4.24-3.77v3.11Zm0,1.31c-.41,0-.74-.29-.74-.66s.33-.66,.74-.66v-3.11c-2.34,0-4.24,1.69-4.24,3.77s1.9,3.77,4.24,3.77v-3.12Z"></path>
        <path class="uuid-a90cbfc0-c107-4ff4-a585-6608f902db68" d="M86.01,82.9c.4,0,.73,.29,.73,.65s-.33,.65-.73,.65v3.12c2.34,0,4.23-1.69,4.23-3.77s-1.9-3.77-4.23-3.77v3.12Zm0,1.31c-.4,0-.73-.29-.73-.65s.33-.65,.73-.65v-3.12c-2.34,0-4.24,1.69-4.24,3.77s1.9,3.77,4.24,3.77v-3.12Z"></path>
        <path class="uuid-a90cbfc0-c107-4ff4-a585-6608f902db68" d="M106.74,67.7v6.95c0,.43,.35,.79,.79,.79h1.92c.43,0,.79-.36,.79-.79v-6.95c0-.43-.35-.79-.79-.79h-.42v-2.33h-3.23v-.77c0-.78-.52-1.42-1.17-1.42h-3.42v1.71h2.54v18.24h-2.54v2.56h3.42c.64,0,1.17-.64,1.17-1.42v-18.22h2.55v1.65h-.81c-.43,0-.79,.35-.79,.79m-5.54,14.64h-2.55v-18.24h2.55v-1.71h-6.01v1.71h2.52v18.24h-2.52v2.56h6.01v-2.56Zm-6.01,0h-2.53v-18.24h2.53v-1.71h-12.59v1.71h7.16v7.45h-7.16v8.15c.94-.74,2.12-1.18,3.4-1.18,3.03,0,5.5,2.46,5.5,5.49,0,.3-.03,.59-.07,.88h3.77v-2.56Zm-12.59-10.79h-7.16v-7.45h7.16v-1.71h-12.54v1.71h4.45v7.45h-4.45v13.35h10.52c-.05-.28-.07-.58-.07-.88,0-1.75,.82-3.31,2.1-4.32v-8.15Zm-12.54,0h-4.45v-7.45h4.45v-1.71h-8.87v1.71h2.55v18.24h-2.55v2.56h8.87v-13.35Zm-8.87,10.79h-2.55v-18.24h2.55v-1.71h-6.01v1.71h2.53v18.24h-2.53v2.56h6.01v-2.56Zm-6.01,0h-2.52v-18.24h2.52v-1.71h-9.23v1.71h4.91v7.45h-4.91v13.35h9.23v-2.56Zm-9.23-10.79h-4.92v-7.45h4.92v-1.71h-11.79v1.71h5.93v7.45h-5.93v7.27c2.16,.74,3.71,2.79,3.71,5.2,0,.3-.03,.59-.07,.88h8.14v-13.35Zm-11.79,0h-5.93v-7.45h5.93v-1.71h-12.6v1.71h5.73v7.45h-5.73v13.35h5.39c-.05-.28-.07-.58-.07-.88,0-3.03,2.46-5.49,5.5-5.49,.62,0,1.22,.1,1.78,.3v-7.27Zm-12.6,0h-5.73v-7.45h5.73v-1.71H11.28c-.82,0-1.49,.68-1.49,1.5v19.5c0,.83,.67,1.5,1.49,1.5h10.29v-13.35Z"></path>
        <path class="uuid-5791d0e3-f48a-4c56-995b-b65279c1daa6" d="M113.74,63.65h-4.32l-.06-.62c-.11-1.1-1.04-1.93-2.14-1.93H11.91c-.9,0-1.64,.72-1.66,1.62l-.33,13.75-.14,5.7-.03,1.27-.03,1.08-.03,1.42c-.02,.9,.68,1.66,1.58,1.7l17.46,.82h2.29c.89,1.82,2.76,3.07,4.92,3.07s4.03-1.25,4.92-3.07h39.87c.89,1.82,2.76,3.07,4.92,3.07s4.03-1.25,4.92-3.07h18.53c.05,0,.11,0,.16,0,.02,0,.03,0,.05,0,.03,0,.07,0,.11-.02,.02,0,.04,0,.06-.01,.03,0,.07-.02,.1-.03,.02,0,.04-.01,.05-.02,.03-.01,.06-.02,.09-.03,.02,0,.03-.02,.05-.02,.03-.01,.06-.03,.09-.04,.02,0,.03-.02,.05-.03,.03-.02,.06-.03,.08-.05,.02-.01,.03-.02,.05-.03,.03-.02,.05-.04,.08-.06,.01-.01,.03-.02,.04-.03,.03-.02,.05-.04,.07-.07,.01-.01,.03-.02,.04-.04,.02-.03,.05-.05,.07-.08,.01-.01,.02-.02,.03-.04,.02-.03,.05-.06,.07-.09,0,0,.02-.02,.02-.03,.06-.08,.11-.17,.15-.27,0-.02,.01-.03,.02-.05,.01-.03,.03-.06,.04-.1,0-.02,.01-.04,.02-.06,0-.03,.02-.06,.02-.09,0-.02,0-.04,.01-.07,0-.02,0-.04,.01-.06,0,0,0-.01,0-.02,0-.07,.02-.13,.02-.2l.03-2.32v-.2s.01-.58,.01-.58l.05-3.15,.02-1.3,.02-1.76-.18-1.75-1.12-10.88-.05-.49h3.3c.08,0,.14,.06,.14,.13v4.55c0,.18,.14,.33,.33,.33h.19c.34,0,.62-.27,.64-.6l.23-4.6c0-.32-.26-.57-.57-.57"></path>
        <path class="uuid-9748373e-5b53-48a2-a1fd-84b9e085ba4b" d="M113.74,63.65h-4.32l-.06-.62c-.11-1.1-1.04-1.93-2.14-1.93H11.91c-.9,0-1.64,.72-1.66,1.62l-.33,13.75-.14,5.7-.03,1.27-.03,1.08-.03,1.42c-.02,.9,.68,1.66,1.58,1.7l17.46,.82h2.29c.89,1.82,2.76,3.07,4.92,3.07s4.03-1.25,4.92-3.07h39.87c.89,1.82,2.76,3.07,4.92,3.07s4.03-1.25,4.92-3.07h18.53c.05,0,.11,0,.16,0,.02,0,.03,0,.05,0,.03,0,.07,0,.11-.02,.02,0,.04,0,.06-.01,.03,0,.07-.02,.1-.03,.02,0,.04-.01,.05-.02,.03-.01,.06-.02,.09-.03,.02,0,.03-.02,.05-.02,.03-.01,.06-.03,.09-.04,.02,0,.03-.02,.05-.03,.03-.02,.06-.03,.08-.05,.02-.01,.03-.02,.05-.03,.03-.02,.05-.04,.08-.06,.01-.01,.03-.02,.04-.03,.03-.02,.05-.04,.07-.07,.01-.01,.03-.02,.04-.04,.02-.03,.05-.05,.07-.08,.01-.01,.02-.02,.03-.04,.02-.03,.05-.06,.07-.09,0,0,.02-.02,.02-.03,.06-.08,.11-.17,.15-.27,0-.02,.01-.03,.02-.05,.01-.03,.03-.06,.04-.1,0-.02,.01-.04,.02-.06,0-.03,.02-.06,.02-.09,0-.02,0-.04,.01-.07,0-.02,0-.04,.01-.06,0,0,0-.01,0-.02,0-.07,.02-.13,.02-.2l.03-2.32v-.2s.01-.58,.01-.58l.05-3.15,.02-1.3,.02-1.76-.18-1.75-1.12-10.88-.05-.49h3.3c.08,0,.14,.06,.14,.13v4.55c0,.18,.14,.33,.33,.33h.19c.34,0,.62-.27,.64-.6l.23-4.6c0-.32-.26-.57-.57-.57Z"></path>
        <polygon class="uuid-4de400e7-396f-4da1-a202-efec2662f726" points="27.63 86.43 29.48 88.35 42.42 88.35 43.47 87.2 42.87 81.88 40.89 79.94 38.59 79.18 34.5 79.18 31.4 79.9 28.36 83.08 27.63 86.43"></polygon>
        <polygon class="uuid-4de400e7-396f-4da1-a202-efec2662f726" points="77.64 86.95 79.06 88.35 92.19 88.35 92.83 87.4 92.65 84.91 91.78 82.68 90.58 81.05 88.95 79.67 87.36 79.18 85.24 79.18 82.89 79.44 81 80.22 79.85 82.25 78.74 83.76 77.64 86.95"></polygon>
        <path class="uuid-5c6950f1-db0c-4fd5-8bf3-4b19da4cbc60" d="M110.85,77.42l-.03,1.76-.02,1.3-.04,2.85v.3s-.01,.58-.01,.58v.2s-.04,2.32-.04,2.32c0,.07,0,.15-.02,.22-.12,.79-.8,1.4-1.63,1.4h-16.89s-.16-1.54-.26-2.38c-.07-.54-.18-1.06-.34-1.56-.12-.37-.26-.74-.43-1.08-1.04-2.15-3-3.66-5.53-3.66s-4.45,1.51-5.5,3.66c-.17,.35-.32,.71-.44,1.08-.17,.5-.29,1.02-.36,1.56-.14,1-.14,.92-.25,2.38H42.42s-.09-1.44-.19-2.38c-.06-.54-.16-1.06-.31-1.56-.12-.37-.26-.74-.42-1.08-1.04-2.16-3.03-3.66-5.57-3.66s-4.57,1.51-5.6,3.66c-.16,.34-.3,.71-.41,1.08-.15,.5-.25,1.02-.29,1.56-.07,.84-.15,2.38-.15,2.38h-.75l-17.46-.82c-.9-.04-1.6-.8-1.58-1.7l.03-1.42,.03-1.08,.03-1.27,.14-5.7,.33-13.75c.02-.9,.76-1.62,1.66-1.62H107.22c1.1,0,2.03,.83,2.14,1.93l.19,1.88,1.12,10.88,.18,1.75Z"></path>
        <path class="uuid-52533826-1e62-459d-b286-5a6e12669406" d="M110.85,77.42l-.03,1.76h-.8c-.31,0-.61-.1-.86-.29l-1.1-.84c-.42-.32-.67-.82-.67-1.35v-11.45c0-.25,.2-.45,.45-.45h1.7l1.12,10.88,.18,1.75Z"></path>
        <rect class="uuid-690aef5a-133b-4ee2-a003-ce7ad446d58d" x="94.97" y="64.79" width="11.47" height="23.13"></rect>
        <path class="uuid-52533826-1e62-459d-b286-5a6e12669406" d="M94.08,65.17v13.16c0,.21-.17,.37-.37,.37h-11.55c-.21,0-.37-.17-.37-.37v-13.16c0-.21,.17-.37,.37-.37h11.55c.21,0,.37,.17,.37,.37"></path>
        <path class="uuid-52533826-1e62-459d-b286-5a6e12669406" d="M80.47,65.17v13.16c0,.21-.17,.37-.37,.37h-20.99c-.2,0-.37-.17-.37-.37v-13.16c0-.21,.17-.37,.37-.37h20.99c.21,0,.37,.17,.37,.37"></path>
        <rect class="uuid-690aef5a-133b-4ee2-a003-ce7ad446d58d" x="45.93" y="64.79" width="11.47" height="23.13"></rect>
        <path class="uuid-52533826-1e62-459d-b286-5a6e12669406" d="M44.56,65.17v13.16c0,.21-.17,.37-.37,.37h-11.55c-.21,0-.37-.17-.37-.37v-13.16c0-.21,.17-.37,.37-.37h11.55c.21,0,.37,.17,.37,.37"></path>
        <path class="uuid-52533826-1e62-459d-b286-5a6e12669406" d="M30.86,65.15v13.16c0,.21-.17,.37-.37,.37H14.41c-.2,0-.37-.17-.37-.37v-13.16c0-.21,.17-.37,.37-.37H30.48c.21,0,.37,.17,.37,.37"></path>
        <rect class="uuid-52533826-1e62-459d-b286-5a6e12669406" x="95.73" y="66.71" width="4.64" height="17.98"></rect>
        <rect class="uuid-52533826-1e62-459d-b286-5a6e12669406" x="101.05" y="66.71" width="4.64" height="17.98"></rect>
        <path class="uuid-690aef5a-133b-4ee2-a003-ce7ad446d58d" d="M104.87,76.85l.82-.25v.35l-.72,.22s-.03,0-.05,0c-.07,0-.14-.05-.16-.12-.03-.09,.02-.18,.11-.21"></path>
        <path class="uuid-690aef5a-133b-4ee2-a003-ce7ad446d58d" d="M110.1,75.63l-2.71,.81v-.35l2.61-.78s.03,0,.05,0c.07,0,.14,.05,.16,.12,.03,.09-.02,.18-.11,.21"></path>
        <path class="uuid-690aef5a-133b-4ee2-a003-ce7ad446d58d" d="M100.54,73.77c.38,.42,.62-.19,.62-.19,.37-.52,0-2.06,0-2.06,0,0-.61-.44-1.04,.13,0,0-.14,1.5,.43,2.12"></path>
        <path class="uuid-690aef5a-133b-4ee2-a003-ce7ad446d58d" d="M100.74,77.64c.04,.28,.29,.49,.58,.45,.28-.03,.49-.29,.45-.58l-.4-3.2c-.04-.28-.29-.49-.58-.45-.28,.04-.49,.29-.45,.58l.4,3.2Z"></path>
        <polygon class="uuid-2df6af5c-48df-425d-bd94-58cfcd6cfde4" points="102.38 71.88 102.34 72.97 103.46 73.82 103.51 73.35 103.55 72.33 102.38 71.88"></polygon>
        <path class="uuid-2df6af5c-48df-425d-bd94-58cfcd6cfde4" d="M104.09,72.34c-.03,.05-.06,.11-.09,.15-.12,.06-.3,.09-.46,.09-.14,0-.27-.03-.32-.1-.02-.02-.07-.12-.09-.22,0-.03-.01-.06-.01-.09h0s0,0,0-.01c0-.01,0-.03,0-.04,0,0,0,0,0-.01,0,0,0-.02,0-.03,0-.02,.01-.03,.03-.04,.02-.03,.05-.04,.1-.05,.01,0,.07-.02,.14-.03,.17-.03,.43-.08,.57-.08,.03,0,.05,0,.07,0h0s.01,0,.02,0c.01,0,.02,.02,.03,.05,.03,.09,.02,.27,0,.4"></path>
        <path class="uuid-2df6af5c-48df-425d-bd94-58cfcd6cfde4" d="M102.53,71.67c.05,.22,.44,.62,.54,.61,.1,0,.21-.25,.3-.31,.12-.08,.19-.1,.24-.12,.05-.02,.14-.02,.21-.03,.07,0,.22,.09,.27,.11,.03,.01,.07-.03,.11-.08,.02-.1,.03-.19,.03-.25-.01-.19-.11-.25-.11-.36,0-.1-.02-.21-.03-.27,0,0,0-.01,0-.02,0-.02,0-.04-.02-.08,0-.08,0-.14-.03-.24-.05-.15-.14-.21-.22-.28-.15,0-.5-.15-.69-.14-.29,0-.51,.36-.54,.44-.03,.08-.05,.48-.06,.59,0,.11-.04,.2,.01,.42"></path>
        <path class="uuid-be45235c-f3be-4110-9664-198649a741c3" d="M103.57,71.8s-.04-.02-.05-.03c0,0-.01-.01-.02-.02,0,0,0-.01,0-.02,0-.01,0-.03,0-.05,0-.02,.01-.04,.02-.06-.02,.01-.03,.03-.04,.05,0,0,0,.02,0,.03,0,.01,0,.02,0,.03,0,.01,0,.02,.02,.03,0,0,.02,.02,.03,.02,.02,0,.04,.01,.06,0"></path>
        <path class="uuid-be45235c-f3be-4110-9664-198649a741c3" d="M103.72,71.75s-.1-.03-.12,0c-.02,.02,.12,0,.12,0"></path>
        <path class="uuid-4de400e7-396f-4da1-a202-efec2662f726" d="M104.2,71.87c-.03,.14-.07,.31-.09,.42,0,0,0,.01,0,.02,0,0,0,0,0,0,0,0,0,.02-.01,.03-.03,.05-.06,.1-.09,.15-.1,.13-.23,.24-.41,.29-.02,0-.04,0-.06,0-.19-.04-.54-.13-.65-.2-.09-.05-.18-.11-.25-.24-.04-.08-.08-.18-.11-.33h0s0-.05-.01-.07h0s0,0,0,0c-.02-.13-.06-.23-.1-.29-.03-.04-.06-.08-.08-.1-.08-.06-.15-.06-.15-.06,0,0,0-.04-.01-.11,0-.05-.01-.12-.02-.2,0-.03,0-.06,0-.09h0s0-.05,0-.09c0-.02,0-.03,0-.05,0-.02,0-.04,0-.05h0c0-.05,0-.1,0-.15,0-.15,.28-.39,.64-.52,0,0,0,0,0,0,0,0,0,0,0,0,0,0,0,0,0,0,.11-.04,.23-.06,.35-.08h0c.25-.02,.5,.04,.7,.23h-.04s0,0,0,0h0c-.18,0-.55-.07-.73-.07-.1,0-.19,.04-.26,.09,0,0,0,0,0,0,0,0,0,0,0,0s0,0,0,0c-.11,.09-.17,.21-.19,.26h0s0,0,0,0c0,0,0,0,0,.01,0,0,0,.01,0,.02,0,0,0,.01,0,.02,0,0,0,.01,0,.01,0,0,0,0,0,.01,0,0,0,0,0,0,0,0,0,0,0,.01,0,0,0,.01,0,.02,0,0,0,0,0,0,0,0,0,.02,0,.02,0,0,0,.02,0,.03,0,0,0,.01,0,.02,0,0,0,.02,0,.02,0,.01,0,.03,0,.04h0s0,.04,0,.05c0,.02,0,.03,0,.05,0,.02,0,.04,0,.05,0,.01,0,.02,0,.03,0,.01,0,.03,0,.04,0,0,0,.01,0,.02,0,.01,0,.02,0,.03h0s0,.01,0,.01h0s0,.02,0,.02c0,0,0,.02,0,.02,0,0,0,.02,0,.02,0,0,0,.01,0,.02,0,0,0,0,0,0h0s0,.03,0,.05h0s0,.02,0,.03c0,0,0,.02,0,.02,0,.04,0,.09,0,.15,0,.01,0,.03,0,.05h0s0,.02,0,.02c0,0,0,0,0,0,0,.01,0,.03,0,.04,0,0,0,0,0,.01h0s0,0,0,0h0s0,0,0,0c0,0,0,0,0,0,0,0,0,0,0,0,.04,.09,.15,.23,.28,.33,0,0,.02,.01,.03,.02h0s0,0,0,0c.01,.01,.03,.02,.04,.03,.02,.01,.03,.02,.04,.03,.05,.03,.1,.06,.14,.06,.02,0,.03,0,.04-.02h0s0,0,0,0h0s.01-.02,.02-.04c0,0,0,0,0-.01h0s0-.02,.01-.03c0-.02,0-.03,0-.04,.01-.04,.01-.08,.02-.08,.07-.03,.68-.2,.9-.11,.05,.02,.08,.07,.11,.03,0,0,0,0,0,0m-.17,.38s0,0,0-.01h0c.03-.12,.03-.25,.03-.31,0-.02,0-.03,0-.03,0,0,0,0-.02,0h0s-.03,0-.06,0h0c-.14,0-.44,.06-.61,.09-.02,0-.04,0-.06,0-.04,0-.07,.01-.08,.01,0,0,.01,.03,.04,.09h0s0,0,0,0h0s.02,.03,.03,.05c.01,.02,.03,.04,.04,.07,.01,.02,.03,.04,.04,.06,.04,.05,.09,.1,.15,.15,0,0,0,0,0,0h0c.09,.04,.41,0,.44-.07,.02-.03,.03-.07,.04-.1h0Z"></path>
        <path class="uuid-2df6af5c-48df-425d-bd94-58cfcd6cfde4" d="M102.24,71.62c-.07,.1-.1,.17,.13,.45,.1,0,.21-.04,.13-.26-.02-.05-.04-.11-.06-.17-.07-.03-.13-.05-.18-.04-.02,0-.02,0-.03,.01"></path>
        <path class="uuid-2df6af5c-48df-425d-bd94-58cfcd6cfde4" d="M102.05,71.67c.02,.08,.07,.18,.12,.26-.02-.03-.03-.06-.04-.08-.05-.13,0-.19,.05-.27,.02-.02,.04-.04,.07-.04,.04,0,.09,0,.15,.02-.06-.12-.14-.21-.25-.19-.12,.02-.14,.15-.1,.3"></path>
        <path class="uuid-4de400e7-396f-4da1-a202-efec2662f726" d="M103.98,70.44c-.2,.1-.84-.1-.96-.07-.5,.12-.5,.94-.5,.94,0,0-.22-.29-.35-.19,0,0-.03,.16-.05-.13-.02-.27-.13-.72,.16-1.02,.26-.28,1.16-.26,1.11-.21,0,0,.34,.04,.31,.09,0,0,.33,.12,.31,.15,0,0,.17,.35-.02,.45"></path>
        <path class="uuid-cc9a792c-bc94-4d99-a860-a06cbbd2786c" d="M103.31,71.99s.32,.04,.44,.02c.13-.02,.27-.11,.27-.11,0,0-.2,.03-.26,.05s-.45,.04-.45,.04"></path>
        <path class="uuid-cc9a792c-bc94-4d99-a860-a06cbbd2786c" d="M103.31,71.99s.24,.35,.52,.23c.16-.07,.19-.31,.19-.32,0,.01-.08,.21-.26,.24-.16,.03-.28,0-.45-.15"></path>
        <path class="uuid-5791d0e3-f48a-4c56-995b-b65279c1daa6" d="M103.31,71.99h0c.18,.15,.3,.18,.45,.15,.17-.03,.25-.23,.26-.24,0,0-.14,.1-.27,.11-.13,.02-.44-.02-.44-.02"></path>
        <path class="uuid-b4557a8b-3f03-416a-815d-52411dd32423" d="M102.36,73.03s-.36,.21-.62,.73c-.21,.42-.44,1.93-.36,2.61,.17,1.37,.26,1.51,.26,1.51,0,0,.68,.05,1.23-.07,.51-.1,.93-.26,.93-.26,0,0,.28-1.75,.2-2.57-.08-.81-.38-1.55-.38-1.55,0,0-.31-.03-.39-.05-.18-.04-.87-.36-.87-.36"></path>
        <path class="uuid-2df6af5c-48df-425d-bd94-58cfcd6cfde4" d="M105.69,75.67v.56c-.8,.11-1.31,.21-1.58,0-.03-.03-.08-.06-.13-.11h0c-.06-.05-.13-.11-.21-.18-.02-.01-.03-.03-.05-.05-.12-.1-.26-.22-.4-.35-.04-.04-.07-.07-.11-.11-.05-.05-.1-.1-.14-.14,0,0,0,0,0,0-.02-.02-.04-.05-.07-.07-.26-.28-.49-.57-.59-.84-.03-.1-.06-.18-.08-.25-.12-.47,.08-.55,.28-.65,.1-.04,.19-.06,.28-.06,.03,0,.05,0,.07,0h0c.2,.04,.38,.19,.51,.37,.03,.04,.06,.09,.09,.13,.1,.16,.17,.31,.21,.42,.02,.04,.04,.09,.08,.15,.02,.03,.04,.05,.06,.08,.01,.02,.03,.04,.04,.06h0c.08,.11,.18,.22,.28,.34,.13,.15,.26,.3,.37,.42,.15,.16,.26,.28,.26,.28,0,0,.37-.01,.82,0"></path>
        <path class="uuid-2df6af5c-48df-425d-bd94-58cfcd6cfde4" d="M107.89,76.2c-.13,.28-.31,.28-.49,.27-.02,0-.04,0-.06,0,.02,0,.04,0,.06-.01,.05-.02,.05-.07,0-.12v-.61c.11,0,.19,0,.25,.03,.15,.05,.34,.25,.25,.45"></path>
        <path class="uuid-cce7df9e-39f9-417e-a7ca-11c87125a6bf" d="M105.69,75.61v.91c-.73,.03-1.5,.06-1.53,.03-.05-.05-.12-.11-.2-.18-.38-.34-1-.88-1.3-1.23-.27-.31-.53-.9-.47-1.29,.05-.3,.3-.49,.46-.5,.06,0,.13,0,.2,0h0c.16,.03,.36,.12,.61,.36,.11,.11,.24,.24,.37,.41,.04,.05,.09,.11,.13,.17,.39,.52,.62,.95,.86,1.24,.02,.02,.4,.05,.86,.07"></path>
        <path class="uuid-cce7df9e-39f9-417e-a7ca-11c87125a6bf" d="M102.33,73.05v-.4s1.11,.3,1.21,.42c.09,.13,.08,.36,.08,.36,0,0-.39,.1-1.29-.39"></path>
        <path class="uuid-b4557a8b-3f03-416a-815d-52411dd32423" d="M104.18,70.53c-.02-.07-.39-.62-.99-.49-.44,.09-.72,.39-.87,.63-.13,.19-.18,.35-.18,.35,0-.03-.17-.56,.03-.98,.13-.29,.59-.61,.96-.65,.37-.04,.77,.32,.85,.44,.06,.08,.13,.37,.17,.56,.02,.07,.03,.13,.03,.15"></path>
        <path class="uuid-cce7df9e-39f9-417e-a7ca-11c87125a6bf" d="M104.49,70.82c-.16-.09-.33-.13-.56-.14-.44-.03-.71,.44-.91,.34-.19-.1-.7-.36-.7-.36,.16-.24,.43-.54,.87-.63,.5-.09,.84,.23,.96,.34l.35,.41s.1,.11-.02,.04"></path>
        <path class="uuid-2df6af5c-48df-425d-bd94-58cfcd6cfde4" d="M102.13,71.84s.02,.05,.04,.08c0,0,0,0,0,.01,.05,.07,.1,.12,.15,.13,.01,0,.03,0,.04,0-.23-.28-.2-.35-.13-.45,0,0,0-.01,.03-.01,.04,0,.1,.01,.18,.04-.01-.03-.03-.06-.04-.09-.06-.02-.11-.03-.15-.02-.03,0-.06,.02-.07,.04-.05,.07-.1,.14-.05,.27"></path>
        <polygon class="uuid-4de400e7-396f-4da1-a202-efec2662f726" points="99.32 80.97 100.37 78.52 100.37 84.69 99.32 84.69 99.32 80.97"></polygon>
        <polygon class="uuid-4de400e7-396f-4da1-a202-efec2662f726" points="105.69 77.12 105.69 84.69 101.05 84.69 101.05 77.36 104.84 77.36 105.69 77.12"></polygon>
        <path class="uuid-690aef5a-133b-4ee2-a003-ce7ad446d58d" d="M91.1,85.95c0,3.02-2.45,5.47-5.47,5.47s-5.47-2.45-5.47-5.47,2.45-5.47,5.47-5.47,5.47,2.45,5.47,5.47"></path>
        <path class="uuid-4de400e7-396f-4da1-a202-efec2662f726" d="M88.89,85.95c0,1.8-1.46,3.27-3.27,3.27s-3.27-1.46-3.27-3.27,1.46-3.27,3.27-3.27,3.27,1.46,3.27,3.27"></path>
        <path class="uuid-6c2150c1-18f5-4a89-8d0a-eb709143ead3" d="M87.95,85.95c0,1.28-1.04,2.32-2.32,2.32s-2.32-1.04-2.32-2.32,1.04-2.32,2.32-2.32,2.32,1.04,2.32,2.32"></path>
        <path class="uuid-4de400e7-396f-4da1-a202-efec2662f726" d="M85.83,84.41c0,.11-.09,.2-.21,.2s-.2-.09-.2-.2,.09-.21,.2-.21,.21,.09,.21,.21"></path>
        <path class="uuid-4de400e7-396f-4da1-a202-efec2662f726" d="M84.89,84.58c.07,.09,.05,.22-.05,.29s-.22,.05-.29-.04-.05-.22,.05-.29c.09-.07,.22-.05,.29,.05"></path>
        <path class="uuid-4de400e7-396f-4da1-a202-efec2662f726" d="M84.23,85.28c.11,.03,.17,.15,.13,.26-.03,.11-.15,.17-.26,.13-.11-.03-.17-.15-.13-.26,.03-.11,.15-.17,.26-.13"></path>
        <path class="uuid-4de400e7-396f-4da1-a202-efec2662f726" d="M84.1,86.23c.11-.03,.22,.02,.26,.13,.03,.11-.02,.22-.13,.26-.11,.03-.23-.03-.26-.13-.03-.11,.02-.22,.13-.26"></path>
        <path class="uuid-4de400e7-396f-4da1-a202-efec2662f726" d="M84.56,87.08c.07-.09,.19-.11,.29-.05,.09,.07,.11,.2,.05,.29-.07,.09-.19,.11-.29,.05s-.11-.19-.05-.29"></path>
        <path class="uuid-4de400e7-396f-4da1-a202-efec2662f726" d="M85.42,87.49c0-.11,.09-.21,.2-.21s.21,.09,.21,.21-.09,.21-.21,.21-.2-.09-.2-.21"></path>
        <path class="uuid-4de400e7-396f-4da1-a202-efec2662f726" d="M86.37,87.32c-.07-.09-.05-.22,.05-.29s.22-.05,.29,.04c.07,.09,.05,.22-.05,.29-.09,.07-.22,.05-.29-.05"></path>
        <path class="uuid-4de400e7-396f-4da1-a202-efec2662f726" d="M87.03,86.62c-.11-.03-.17-.15-.13-.26,.03-.11,.15-.17,.26-.13,.11,.04,.17,.15,.13,.26-.03,.11-.15,.17-.26,.13"></path>
        <path class="uuid-4de400e7-396f-4da1-a202-efec2662f726" d="M87.16,85.67c-.11,.03-.22-.02-.26-.13-.03-.11,.02-.22,.13-.26,.11-.03,.22,.02,.26,.13,.04,.11-.02,.22-.13,.26"></path>
        <path class="uuid-4de400e7-396f-4da1-a202-efec2662f726" d="M86.7,84.83c-.07,.09-.19,.11-.29,.05-.09-.07-.11-.19-.05-.29,.07-.09,.19-.11,.29-.04s.11,.19,.05,.29"></path>
        <path class="uuid-4de400e7-396f-4da1-a202-efec2662f726" d="M86.63,85.95c0,.55-.45,1-1,1s-1-.45-1-1,.45-1,1-1,1,.45,1,1"></path>
        <path class="uuid-690aef5a-133b-4ee2-a003-ce7ad446d58d" d="M41.4,85.95c0,3.02-2.45,5.47-5.47,5.47s-5.47-2.45-5.47-5.47,2.45-5.47,5.47-5.47,5.47,2.45,5.47,5.47"></path>
        <path class="uuid-4de400e7-396f-4da1-a202-efec2662f726" d="M39.2,85.95c0,1.8-1.46,3.27-3.27,3.27s-3.27-1.46-3.27-3.27,1.46-3.27,3.27-3.27,3.27,1.46,3.27,3.27"></path>
        <path class="uuid-6c2150c1-18f5-4a89-8d0a-eb709143ead3" d="M38.25,85.95c0,1.28-1.04,2.32-2.32,2.32s-2.32-1.04-2.32-2.32,1.04-2.32,2.32-2.32,2.32,1.04,2.32,2.32"></path>
        <path class="uuid-4de400e7-396f-4da1-a202-efec2662f726" d="M36.13,84.41c0,.11-.09,.2-.21,.2s-.2-.09-.2-.2,.09-.21,.2-.21,.21,.09,.21,.21"></path>
        <path class="uuid-4de400e7-396f-4da1-a202-efec2662f726" d="M35.19,84.58c.07,.09,.05,.22-.05,.29-.09,.07-.22,.05-.29-.04-.07-.09-.05-.22,.05-.29,.09-.07,.22-.05,.29,.05"></path>
        <path class="uuid-4de400e7-396f-4da1-a202-efec2662f726" d="M34.53,85.28c.11,.03,.17,.15,.13,.26-.03,.11-.15,.17-.26,.13-.11-.03-.17-.15-.13-.26,.03-.11,.15-.17,.26-.13"></path>
        <path class="uuid-4de400e7-396f-4da1-a202-efec2662f726" d="M34.4,86.23c.11-.03,.22,.02,.26,.13,.03,.11-.02,.22-.13,.26-.11,.03-.23-.03-.26-.13-.03-.11,.03-.22,.13-.26"></path>
        <path class="uuid-4de400e7-396f-4da1-a202-efec2662f726" d="M34.86,87.08c.07-.09,.19-.11,.29-.05,.09,.07,.11,.2,.05,.29-.07,.09-.19,.11-.29,.05-.09-.07-.11-.19-.05-.29"></path>
        <path class="uuid-4de400e7-396f-4da1-a202-efec2662f726" d="M35.72,87.49c0-.11,.09-.21,.2-.21s.21,.09,.21,.21-.09,.21-.21,.21-.2-.09-.2-.21"></path>
        <path class="uuid-4de400e7-396f-4da1-a202-efec2662f726" d="M36.67,87.32c-.07-.09-.05-.22,.05-.29,.09-.07,.22-.05,.29,.04,.07,.09,.05,.22-.05,.29s-.22,.05-.29-.05"></path>
        <path class="uuid-4de400e7-396f-4da1-a202-efec2662f726" d="M37.33,86.62c-.11-.03-.17-.15-.13-.26,.03-.11,.15-.17,.26-.13,.11,.04,.17,.15,.13,.26-.03,.11-.15,.17-.26,.13"></path>
        <path class="uuid-4de400e7-396f-4da1-a202-efec2662f726" d="M37.46,85.67c-.11,.03-.22-.02-.26-.13-.03-.11,.02-.22,.13-.26,.11-.03,.22,.02,.26,.13,.04,.11-.02,.22-.13,.26"></path>
        <path class="uuid-4de400e7-396f-4da1-a202-efec2662f726" d="M37,84.83c-.07,.09-.19,.11-.29,.05s-.11-.19-.05-.29c.07-.09,.19-.11,.29-.04,.09,.07,.11,.19,.05,.29"></path>
        <path class="uuid-4de400e7-396f-4da1-a202-efec2662f726" d="M36.93,85.95c0,.55-.45,1-1,1s-1-.45-1-1,.45-1,1-1,1,.45,1,1"></path>
        <path class="uuid-9b1868be-6ff5-42fb-90db-64a519e0ce13" d="M106.9,63.22H12.97c-.27,0-.5-.22-.5-.49s.22-.5,.5-.5H106.9c.27,0,.49,.22,.49,.5s-.22,.49-.49,.49"></path>
        <path class="uuid-9b1868be-6ff5-42fb-90db-64a519e0ce13" d="M92.55,80.48h-1.11c-.16,0-.28-.13-.28-.28s.13-.28,.28-.28h1.11c.16,0,.28,.13,.28,.28s-.13,.28-.28,.28"></path>
        <path class="uuid-6c2150c1-18f5-4a89-8d0a-eb709143ead3" d="M110.81,80.48l-.04,3.15h-.23c-.41,0-.75-.32-.77-.73l-.08-1.99c0-.23,.17-.42,.4-.42h.72Z"></path>
        <path class="uuid-4ff12e7c-0c67-45f4-96c4-44dc78c5de7d" d="M10.57,76.84l-.21,4.66c-.01,.31-.27,.55-.58,.55l.14-5.7h.18c.26,0,.48,.22,.46,.49"></path>
        <path class="uuid-9b1868be-6ff5-42fb-90db-64a519e0ce13" d="M110.76,84.21l-.04,2.52c-.01,.9-.74,1.62-1.64,1.62h-1.16v-3.19c0-.53,.43-.95,.95-.95h1.89Z"></path>
        <path class="uuid-9b1868be-6ff5-42fb-90db-64a519e0ce13" d="M9.75,83.33H30.33c-.16,.34-.3,.71-.41,1.08H9.72l.03-1.08Z"></path>
        <path class="uuid-9b1868be-6ff5-42fb-90db-64a519e0ce13" d="M41.5,83.33h4.44v1.08h-4.01c-.11-.37-.26-.74-.42-1.08"></path>
        <path class="uuid-9b1868be-6ff5-42fb-90db-64a519e0ce13" d="M80.11,83.33c-.17,.34-.32,.71-.44,1.08h-22.27v-1.08h22.71Z"></path>
        <path class="uuid-9b1868be-6ff5-42fb-90db-64a519e0ce13" d="M94.97,83.33v1.08h-3.39c-.12-.37-.26-.74-.43-1.08h3.82Z"></path>
        <path class="uuid-5c6950f1-db0c-4fd5-8bf3-4b19da4cbc60" d="M113.74,63.53h-4.71c-.17,0-.3,.13-.3,.3v.17c0,.16,.13,.29,.29,.29h3.78c.08,0,.14,.06,.14,.13v4.55c0,.18,.14,.33,.33,.33h.19c.34,0,.62-.27,.64-.6l.23-4.6c0-.32-.26-.57-.57-.57"></path>
        <path class="uuid-9b1868be-6ff5-42fb-90db-64a519e0ce13" d="M113.58,68.42h0c-.1,0-.17-.09-.16-.18l.19-3.27c0-.1,.09-.17,.18-.16s.17,.09,.16,.18l-.19,3.27c0,.1-.09,.17-.18,.16"></path>
        <path class="uuid-1f7ddacd-7ab8-4c97-ab54-27ad11741930" d="M36.22,66.33h8.34v12c0,.21-.17,.37-.37,.37h-8.34v-12c0-.21,.17-.37,.37-.37"></path>
        <path class="uuid-1f7ddacd-7ab8-4c97-ab54-27ad11741930" d="M48.14,66.7v13.16c0,.21-.17,.37-.37,.37h-1.83v-13.91h1.83c.21,0,.37,.17,.37,.37"></path>
        <path class="uuid-1f7ddacd-7ab8-4c97-ab54-27ad11741930" d="M17.99,66.31h12.87v12c0,.21-.17,.37-.37,.37h-12.87v-12c0-.21,.17-.37,.37-.37"></path>
        <path class="uuid-1f7ddacd-7ab8-4c97-ab54-27ad11741930" d="M34.43,66.68v12.02h-1.8c-.21,0-.37-.17-.37-.37v-12.02h1.8c.21,0,.37,.17,.37,.37"></path>
        <path class="uuid-1f7ddacd-7ab8-4c97-ab54-27ad11741930" d="M94.08,66.31v12.02c0,.21-.17,.37-.37,.37h-9.04v-12.02c0-.21,.17-.37,.37-.37h9.04Z"></path>
        <path class="uuid-1f7ddacd-7ab8-4c97-ab54-27ad11741930" d="M80.47,66.31v12.02c0,.21-.12,.37-.27,.37h-13.54v-12.02c0-.21,.12-.37,.27-.37h13.54Z"></path>
        <path class="uuid-1f7ddacd-7ab8-4c97-ab54-27ad11741930" d="M83.35,66.68v12.02h-1.19c-.21,0-.37-.17-.37-.37v-12.02h1.19c.21,0,.37,.17,.37,.37"></path>
        <path class="uuid-690aef5a-133b-4ee2-a003-ce7ad446d58d" d="M36.58,78.7h-.92l-.43-3.34c-.03-.25,.14-.48,.39-.51,.02,0,.04,0,.06,0,.23,0,.42,.17,.45,.4l.02,.14,.32,2.43,.11,.88Z"></path>
        <path class="uuid-1f7ddacd-7ab8-4c97-ab54-27ad11741930" d="M49.79,66.33h7.62v13.91h-7.53c-.22,0-.4-.18-.4-.4v-13.09c0-.23,.14-.42,.31-.42"></path>
        <path class="uuid-1f7ddacd-7ab8-4c97-ab54-27ad11741930" d="M65.37,66.64v12.06h-6.26c-.21,0-.37-.17-.37-.37v-12h6.32c.18,0,.32,.14,.32,.31"></path>
        <path class="uuid-4de400e7-396f-4da1-a202-efec2662f726" d="M110.85,77.42l-.03,1.76h-.8c-.31,0-.61-.1-.86-.29l-1.1-.84c-.42-.32-.67-.82-.67-1.35v-.08l3.28-.95,.18,1.75Z"></path>
        <rect class="uuid-4de400e7-396f-4da1-a202-efec2662f726" x="95.73" y="79.18" width="4.64" height="5.51"></rect>
        <rect class="uuid-4de400e7-396f-4da1-a202-efec2662f726" x="101.05" y="80.48" width="2.32" height="4.21"></rect>
        <rect class="uuid-4de400e7-396f-4da1-a202-efec2662f726" x="45.93" y="85.47" width="11.47" height="2.45"></rect>
        <path class="uuid-690aef5a-133b-4ee2-a003-ce7ad446d58d" d="M23.52,78.68h-.95l-.41-3.19c-.03-.26,.15-.49,.41-.53,.02,0,.04,0,.06,0,.23,0,.44,.18,.47,.41l.12,.88,.15,1.18,.16,1.25Z"></path>
        <path class="uuid-690aef5a-133b-4ee2-a003-ce7ad446d58d" d="M87.36,78.7h-.89l-.38-2.91c-.03-.24,.14-.46,.38-.5,.02,0,.04,0,.06,0,.22,0,.41,.17,.44,.39l.05,.42,.08,.6,.26,2.01Z"></path>
        <path class="uuid-690aef5a-133b-4ee2-a003-ce7ad446d58d" d="M71.39,78.7h-.85l-.33-2.54c-.01-.09,0-.18,.05-.26,.06-.11,.18-.2,.32-.22,.02,0,.04,0,.05,0,.21,0,.39,.16,.42,.37v.06s.02,.05,.02,.05l.12,.94,.06,.46,.15,1.13Z"></path>
        <path class="uuid-ec66bb30-67bc-4cca-a5f8-2500aee24012" d="M78.02,77.37v.08s-.01,0-.01,.01l-.03,.2-.03,.22-.6-.09,.05-.36,.02-.14v-.08s.61,.08,.61,.08v.07Z"></path>
        <path class="uuid-ec66bb30-67bc-4cca-a5f8-2500aee24012" d="M77.08,76.57s0,0-.01,.01c-.01,.01-.03,.02-.04,.02,0,0,0,0-.01,0,0,0-.02,0-.03,0,0,0-.01,0-.02,0-.03-.02-.06-.06-.07-.1-.01-.07,.02-.13,.07-.14,0,0,0,0,0,0,.06,0,.12,.04,.13,.12,0,.04,0,.09-.02,.11"></path>
        <path class="uuid-ec66bb30-67bc-4cca-a5f8-2500aee24012" d="M78.54,76.7s0,.04,.02,.06c0,.02,.02,.03,.04,.03,0,0,.02,0,.03,0,.05,0,.1-.03,.13-.08,.03-.07,.02-.14-.04-.16,0,0,0,0-.01,0-.02,0-.03,0-.05,0-.04,0-.08,.04-.1,.08-.01,.02-.02,.05-.02,.07"></path>
        <path class="uuid-c5f7c15e-8dbf-4f76-bf2f-ee0003afe4b9" d="M77,76.4s0,.06,0,.09c0,.04,0,.08,.01,.12,0,.01,0,.02,0,.03,0,.03,.02,.07,.02,.1,0,0,0,0,0,.01,0,.02,.01,.04,.02,.06,0,0,0,.01,0,.02h0c.02,.06,.05,.11,.07,.16,.02,.04,.05,.08,.07,.11,.06,.08,.13,.13,.2,.18,0,0,0,0,.01,0,0,0,0,0,0,0,.02,.02,.04,.03,.06,.04,0,0,.02,.01,.03,.02,0,0,0,0,0,0,.03,.02,.06,.04,.1,.05,.01,0,.02,0,.03,.01,.01,0,.03,0,.04,0,.11,.01,.2-.02,.31-.07,0,0,0,0,0,0,0,0,0,0,0,0h0c.08-.03,.16-.06,.23-.12,.04-.03,.07-.06,.1-.09,.04-.04,.08-.08,.12-.13,0,0,0,0,.01-.01,.01-.02,.02-.03,.03-.05h0s0,0,0-.01h0s.06-.1,.08-.15c0,0,0,0,0,0,.01-.02,.02-.05,.03-.07h0s.02-.05,.02-.08h0s0,0,0,0c0,0,0,0,0,0h0s0-.04,.01-.06c0,0,0,0,0-.01,0,0,0,0,0-.01,0,0,0-.02,0-.03,.07-.5-.21-.84-.74-.92-.06,0-.12-.01-.18-.01-.38,0-.64,.19-.74,.54-.01,.03-.02,.07-.03,.1h0s0,.04,0,.06c0,.02,0,.03,0,.05h0s0,.03,0,.04v.03"></path>
        <g class="uuid-a3c248f3-c254-4514-97ea-9d3a6f5165b8">
          <g class="uuid-f393bbd0-28f7-4911-8556-6a14f9e21881">
            <g class="uuid-46f64472-8645-4ad5-96d3-e0ef13f2a1c3">
              <path class="uuid-1a03e0da-7ef3-4775-af73-eff925ad6a3a" d="M77.48,76.8c-.02,.13-.14,.22-.28,.2-.02,0-.03,0-.05,0-.03-.05-.05-.1-.08-.16,0,0,0-.01,0-.02,0-.02-.02-.04-.02-.07,0,0,0,0,0,0,0-.03-.02-.07-.03-.1,.05-.08,.14-.12,.24-.11,.13,.02,.23,.14,.21,.27"></path>
            </g>
          </g>
        </g>
        <g class="uuid-a3c248f3-c254-4514-97ea-9d3a6f5165b8">
          <g class="uuid-c95ecaad-0246-44e9-8410-ae2712268c6a">
            <g class="uuid-6db717e2-6064-4bbf-9b3d-4ab5c0a7bb11">
              <path class="uuid-1a03e0da-7ef3-4775-af73-eff925ad6a3a" d="M78.62,76.79h0c-.03,.06-.05,.11-.09,.16,0,0,0,0,0,.01h0s-.02,.03-.03,.05c0,0,0,0,0,.01-.04,.05-.08,.09-.12,.13-.13-.03-.21-.14-.19-.27,.02-.13,.14-.22,.28-.2,.07,0,.14,.05,.18,.11"></path>
            </g>
          </g>
        </g>
        <path class="uuid-4de400e7-396f-4da1-a202-efec2662f726" d="M77,76.34s-.08-.34,.05-.59c.13-.24,.22-.31,.22-.31,0,0-.05-.28,.42-.33,.43-.05,.61-.11,.66-.15,0,0,.41,.56,.47,.84,.06,.24-.06,.69-.13,.76,0,0-.03-.52-.35-.68-.23-.11-.43-.07-.43-.07,0,0,.29,.18,.45,.21,0,0-.58,.13-.94-.3,0,0-.4,.28-.42,.62"></path>
        <path class="uuid-95a69438-66ae-4f90-bd90-408db284ea61" d="M78.08,77s-.07,.11-.18,.14c-.04,.01-.08,.02-.13,.01-.04,0-.08-.02-.11-.03-.11-.06-.15-.19-.16-.2,0,0,.04,.01,.1,.02,.05,.01,.11,.02,.18,.03,.07,0,.13,.01,.19,.02,.06,0,.1,0,.1,0"></path>
        <path class="uuid-5791d0e3-f48a-4c56-995b-b65279c1daa6" d="M78,77s-.11,.06-.22,.04c-.11-.02-.17-.07-.2-.1,.06,.01,.13,.03,.21,.04,.08,.01,.15,.01,.21,.02"></path>
        <path class="uuid-1a03e0da-7ef3-4775-af73-eff925ad6a3a" d="M77.79,77.01c-.24-.03-.34-.11-.34-.11,0,0,0,0,0,0,0,0,0,0,0,0,0,0,.02,.04,.34,.08,0,0,0,0,0,0,.33,.04,.35,0,.35,0s0,0,0,0c0,0,0,0,0,0,0,0-.09,.07-.37,.04"></path>
        <path class="uuid-1a03e0da-7ef3-4775-af73-eff925ad6a3a" d="M77.92,77.14s-.11,.03-.16,.02c-.04,0-.1-.03-.13-.05,.02-.02,.09-.02,.14-.01,.05,0,.13,.03,.14,.04"></path>
        <path class="uuid-1a03e0da-7ef3-4775-af73-eff925ad6a3a" d="M77.77,77.17h0c-.2-.03-.26-.23-.27-.23,0,0,0,0,0,0,0,0,0,0,0,0,0,0,.07,.16,.26,.19,.19,.03,.3-.12,.3-.12,0,0,0,0,0,0,0,0,0,0,0,0,0,0-.11,.18-.31,.16"></path>
        <path class="uuid-27988165-7e20-4d88-9af8-ed5116f984eb" d="M78.83,77.76c-.14-.29-.56-.31-.56-.31h0c-.1-.01-.23-.02-.25,0h0s-.04,.14-.16,.18c-.03,.01-.08,.02-.13,.02h-.01c-.2,0-.29-.18-.3-.22,0,0,0,0,0,0,0,0-.26-.03-.39,0-.13,.02-.27,.09-.41,.27-.05,.07-.11,.15-.16,.25,0,.01-.02,.03-.02,.04-.03,.06-.06,.13-.09,.21-.03,.08-.06,.16-.08,.25,0,0,0,0,0,.01l.08,.02h0l.1,.02,.5,.1h.02s0,0,0,0l.14-.18-.05,.29h1.27l.12-.26,.03,.26h.48c.02-.42,0-.71-.12-.94"></path>
        <g class="uuid-40cdd68b-e81f-4e62-b4d6-884333bfe078">
          <g class="uuid-e78fb7a8-df14-4edf-8f05-7c6af7826cb7">
            <g class="uuid-2ed43ae1-c400-423e-b20d-9bb40fddc3e3">
              <path class="uuid-4b57136e-08ff-4711-92ad-5d29147ddf09" d="M74.96,76.73s.02,.03,.04,.04c.02,0,.11,0,.13,0,.02,0,.03-.02,.05-.04,0,.02,0,.04-.03,.06,0,0-.02,.02-.04,.02-.01,0-.08,0-.09,0-.01,0-.02-.01-.03-.02-.02-.02-.03-.04-.02-.06"></path>
            </g>
          </g>
        </g>
        <path class="uuid-4a3a2941-8dde-4634-8c89-237689b3dcdf" d="M75.31,76.92s0,0-.01,.01c0,0,0,0,.01-.01"></path>
        <path class="uuid-98a5ec5d-0648-432b-bc09-f087d5f98da5" d="M76.97,78.65v-.07s-.01,0-.01,0c-.03-.13-.08-.33-.14-.53-.06-.2-.15-.31-.21-.37-.05-.04-.09-.05-.09-.05l-.22-.11-.08-.04h0s-.02-.01-.02-.01h-.02s0-.01,0-.01h0s0,0,0,0h0l-.07-.04-.23-.12h-.02s-.01-.01-.01-.01h-.02s0-.01,0-.01h0s-.01,.12-.01,.12l-.03,.22-.3-.03h0s-.28-.03-.28-.03h0s0-.08,0-.08l.03-.26h0s0,0,0,0h-.01s0,0,0,0h-.05s0,.02,0,.02h0l-.14,.04h0l-.05,.02-.1,.03h0l-.08,.02-.28,.08s0,0,0,0c0,0-.01,0-.04,0-.13,.03-.29,.09-.41,.37-.15,.36-.25,.64-.25,.64l.49,.17,.08,.03,.09-.32h0s0,0,0,0c0,.05,0,.13,.01,.2,0,.07,0,.15,.02,.22h1.77c.03-.09,.05-.17,.07-.23l.07,.22h0s.58,0,.58,0c0-.01,0-.03,0-.05"></path>
        <polygon class="uuid-98a5ec5d-0648-432b-bc09-f087d5f98da5" points="73.8 78.4 74.37 78.6 74.41 78.47 73.85 78.28 73.8 78.4"></polygon>
        <polygon class="uuid-98a5ec5d-0648-432b-bc09-f087d5f98da5" points="76.98 78.7 76.39 78.7 76.39 78.7 76.48 78.68 76.95 78.58 76.95 78.58 76.95 78.58 76.97 78.65 76.98 78.7"></polygon>
        <path class="uuid-ec66bb30-67bc-4cca-a5f8-2500aee24012" d="M75.15,77.65c.06,.11,.2,.17,.27,.18,.07,0,.24,.02,.37-.11,.11-.12,.09-.33,.08-.45h-.02s-.03-.03-.03-.03h0s0,0,0,0l-.04,.34-.3-.03h0s-.28-.03-.28-.03v-.07s.04-.27,.04-.27h0s0,0,0,0h-.01s-.06,.02-.06,.02c-.01,.06-.03,.16-.03,.26,0,.08,0,.15,.03,.2"></path>
        <path class="uuid-4de400e7-396f-4da1-a202-efec2662f726" d="M75.83,76.4c0,.11,.11,.24,.21,.24,.1,0,.19-.15,.19-.25,0-.11-.1-.13-.2-.13-.1,0-.2,.04-.19,.14"></path>
        <path class="uuid-4de400e7-396f-4da1-a202-efec2662f726" d="M75.84,76.69c0,.11,.11,.24,.21,.24,.1,0,.19-.15,.19-.25,0-.11-.1-.13-.2-.13-.1,0-.2,.04-.19,.14"></path>
        <path class="uuid-4de400e7-396f-4da1-a202-efec2662f726" d="M75.85,76.99c0,.11,.11,.24,.21,.24,.1,0,.19-.15,.19-.25,0-.11-.1-.13-.2-.13-.1,0-.2,.04-.19,.14"></path>
        <path class="uuid-4de400e7-396f-4da1-a202-efec2662f726" d="M75.86,77.28c0,.11,.11,.24,.21,.24,.1,0,.19-.15,.19-.25,0-.11-.1-.13-.2-.13-.1,0-.2,.04-.19,.14"></path>
        <path class="uuid-4de400e7-396f-4da1-a202-efec2662f726" d="M75.86,77.58c0,.11,.11,.24,.21,.24,.1,0,.19-.15,.19-.25,0-.11-.1-.13-.2-.13-.1,0-.2,.04-.19,.14"></path>
        <polygon class="uuid-27988165-7e20-4d88-9af8-ed5116f984eb" points="76.17 77.77 75.96 77.77 75.96 77.88 76.17 77.88 76.17 77.77"></polygon>
        <path class="uuid-4de400e7-396f-4da1-a202-efec2662f726" d="M76.17,77.88s.18,.14,.14,.33c-.04,.19-.24,.31-.24,.31,0,0-.21-.15-.21-.35,0-.2,.11-.29,.11-.29h.21Z"></path>
        <path class="uuid-4de400e7-396f-4da1-a202-efec2662f726" d="M75.42,76.34c-.02,.1-.15,.22-.25,.19-.1-.02-.16-.18-.14-.29,.02-.1,.13-.11,.22-.09,.1,.02,.19,.08,.16,.18"></path>
        <path class="uuid-4de400e7-396f-4da1-a202-efec2662f726" d="M75.36,76.63c-.02,.1-.15,.22-.25,.19-.1-.02-.16-.18-.14-.29,.02-.1,.13-.11,.23-.09,.1,.02,.18,.08,.16,.18"></path>
        <path class="uuid-4de400e7-396f-4da1-a202-efec2662f726" d="M75.29,76.92c-.02,.1-.15,.22-.25,.19-.1-.02-.16-.18-.14-.29,.02-.1,.13-.11,.22-.09,.1,.02,.19,.08,.16,.18"></path>
        <path class="uuid-4de400e7-396f-4da1-a202-efec2662f726" d="M75.22,77.21c-.02,.1-.15,.22-.25,.19-.1-.02-.16-.18-.14-.29,.02-.1,.13-.11,.22-.09,.1,.02,.19,.08,.16,.18"></path>
        <path class="uuid-4de400e7-396f-4da1-a202-efec2662f726" d="M75.16,77.49c-.02,.1-.15,.22-.25,.19-.1-.02-.16-.18-.14-.29,.02-.1,.13-.11,.22-.09,.1,.02,.19,.08,.16,.18"></path>
        <rect class="uuid-27988165-7e20-4d88-9af8-ed5116f984eb" x="74.85" y="77.59" width=".11" height=".21" transform="translate(-17.76 133.01) rotate(-76.88)"></rect>
        <path class="uuid-4de400e7-396f-4da1-a202-efec2662f726" d="M74.79,77.73s-.2,.1-.2,.29c0,.2,.18,.36,.18,.36,0,0,.24-.1,.28-.3,.04-.2-.05-.3-.05-.3l-.2-.05Z"></path>
        <path class="uuid-4de400e7-396f-4da1-a202-efec2662f726" d="M76.22,76.89c.33-.23,.55-.64,.52-1.2-.01-.26-.21-.53-.29-.61-.34-.34-.99-.38-1.35-.18-.58,.32-.49,1.12-.38,1.38,.06,.15,.13,.09,.11,.11-.08,.13,1.08,.71,1.38,.49"></path>
        <polygon class="uuid-ec66bb30-67bc-4cca-a5f8-2500aee24012" points="75.16 77.58 75.8 77.65 75.84 77.26 75.87 77.03 75.23 76.95 75.22 77.03 75.21 77.18 75.18 77.45 75.16 77.58"></polygon>
        <path class="uuid-ec66bb30-67bc-4cca-a5f8-2500aee24012" d="M76.3,76.63s0,.01,0,.02c0,.01,.02,.03,.04,.03,0,0,0,0,.01,0,0,0,.02,0,.03,0,0,0,.01,0,.02,0,.04,0,.08-.04,.1-.09,.03-.07,.01-.14-.04-.17,0,0,0,0,0,0-.06-.03-.13,.01-.16,.08-.02,.04-.02,.09,0,.13"></path>
        <path class="uuid-ec66bb30-67bc-4cca-a5f8-2500aee24012" d="M74.93,76.35c.02,.08-.02,.15-.08,.16-.06,.01-.13-.04-.14-.12-.02-.08,.02-.15,.08-.16s.12,.04,.14,.12"></path>
        <path class="uuid-c5f7c15e-8dbf-4f76-bf2f-ee0003afe4b9" d="M74.8,76.14h0s0,.06,0,.09c0,0,0,0,0,0,0,.09,.03,.18,.05,.26,0,0,0,0,0,.02,0,.02,.01,.04,.02,.06,0,0,0,.01,0,.02,0,0,0,.02,.01,.03,.04,.09,.09,.18,.14,.26,.05,.07,.13,.13,.19,.18,0,0,0,0,.01,.01,.09,.07,.18,.14,.29,.15,.01,0,.03,0,.04,0,0,0,.02,0,.03,0h0s.07-.01,.11-.03c0,0,0,0,0,0,.01,0,.02,0,.03-.01,.02,0,.05-.02,.07-.03,0,0,0,0,0,0,.09-.03,.17-.07,.25-.13,.08-.07,.15-.15,.21-.24,0,0,0-.01,.01-.02h0s0,0,0,0c.01-.02,.02-.03,.03-.05,0,0,0,0,0-.01,.03-.05,.05-.09,.07-.14,.02-.04,.03-.07,.04-.11,0-.03,.02-.06,.03-.09,0,0,0-.02,0-.03,0-.01,0-.03,0-.04,0-.02,0-.03,0-.05,0-.02,0-.04,0-.06,0-.04,0-.08,0-.11-.01-.44-.28-.72-.76-.78-.54-.06-.9,.22-.96,.76,0,.01,0,.03,0,.04,0,.03,0,.05,0,.08Z"></path>
        <path class="uuid-06ec612b-059b-4cbc-aec7-411fed5a2e5b" d="M75.75,76.45s-.04,.03-.07,.04c-.03,0-.17,0-.19-.02-.03-.01-.06-.03-.08-.05,0,.02,0,.06,.04,.08,.02,0,.04,.02,.06,.03s.12,.02,.14,.01c.02,0,.04,0,.06-.01,.03-.02,.05-.05,.04-.07"></path>
        <path class="uuid-0e97dd8d-c02f-4116-9910-3c73cf6a6997" d="M75.78,76.76s0,0,0,0c.02,0,.04-.02,.06-.03-.01,0-.03,.02-.05,.03"></path>
        <path class="uuid-0e97dd8d-c02f-4116-9910-3c73cf6a6997" d="M75.32,76.69s.05,.04,.08,.06c0,0,0,0,0,0-.03-.02-.05-.04-.07-.05"></path>
        <path class="uuid-0e97dd8d-c02f-4116-9910-3c73cf6a6997" d="M75.31,76.67s0,0,.01,.01c0,0,0,0-.01-.01"></path>
        <path class="uuid-5791d0e3-f48a-4c56-995b-b65279c1daa6" d="M75.32,76.67s.02,.03,.07,.07c0,0,0,0,0,0t0,0s.08,.05,.14,.06c0,0,0,0,.01,0,0,0,0,0,.01,0,.08,0,.16-.02,.21-.04h0s0,0,0,0c.03-.02,.05-.03,.05-.03,0,0-.04,0-.1,0h-.03s-.09,0-.14,0c-.05,0-.1-.01-.14-.02-.02,0-.03,0-.05,0,0,0,0,0,0,0-.04,0-.06,0-.06-.01"></path>
        <path class="uuid-0e97dd8d-c02f-4116-9910-3c73cf6a6997" d="M75.27,76.63l.02,.02s0,0,.02,.03c0,0,0,0,.02,0,.01,0,.18,.04,.25,.05,.07,0,.25,0,.26,0,0,0,0,0,.01,0,0,0,0,0,0,0,0,0,0,0,0,0,.02,0,.04-.03,.04-.03,0,0-.02,0-.02,0-.03,0-.16-.03-.29-.05-.12-.01-.29,0-.31-.03"></path>
        <path class="uuid-0e97dd8d-c02f-4116-9910-3c73cf6a6997" d="M75.27,76.63s.03,.22,.29,.25c.19,.02,.26-.09,.3-.12,.01-.01,.04-.05,.04-.05h-.02s0,.02-.02,.03c0,0,0,0,0,0,0,0,0,0,0,0,0,0,0,0,0,0-.02,0-.04,.02-.06,.03h0c-.06,.03-.13,.04-.21,.03-.08,0-.12-.03-.16-.05h0s-.06-.04-.08-.06t0,0s0,0-.02-.01c-.01-.02-.02-.03-.02-.03l-.02-.02Z"></path>
        <path class="uuid-0e97dd8d-c02f-4116-9910-3c73cf6a6997" d="M75.31,76.67h0s0,0,.01,.01c0,0,0,0,0,0,.02,.01,.04,.03,.07,.05-.05-.03-.07-.06-.07-.07,0,0-.01,0-.01,0"></path>
        <path class="uuid-0e97dd8d-c02f-4116-9910-3c73cf6a6997" d="M75.78,76.76s.04-.02,.05-.03t0,0s0,0,0,0h-.01s-.02,.02-.05,.03"></path>
        <path class="uuid-4de400e7-396f-4da1-a202-efec2662f726" d="M75.77,74.82c-.93-.07-.99,.9-.99,.9l.59,.06,.07-.18-.02,.19,.18,.02,.03-.23,.03,.23,.45,.04,.02-.19,.06,.2,.18,.02-.04-.23,.1,.23,.17,.02s.16-.99-.83-1.07"></path>
        <g class="uuid-a3c248f3-c254-4514-97ea-9d3a6f5165b8">
          <g class="uuid-e8d4857e-9da5-406a-b453-5bb28d6dc14e">
            <g class="uuid-1c696301-aff8-4983-8f7b-37e682a011b3">
              <path class="uuid-1a03e0da-7ef3-4775-af73-eff925ad6a3a" d="M75.96,76.54c0,.13,.11,.23,.23,.23,.05,0,.09-.01,.12-.03,.01-.02,.02-.03,.03-.05,0,0,0,0,0-.01,.03-.05,.05-.09,.07-.14,0-.12-.11-.21-.23-.21s-.23,.1-.23,.23"></path>
            </g>
          </g>
        </g>
        <g class="uuid-a3c248f3-c254-4514-97ea-9d3a6f5165b8">
          <g class="uuid-5a3a9c47-ed78-4a90-a404-f94e164d5877">
            <g class="uuid-9db3fa35-66f1-4151-8d6e-332220b77f5f">
              <path class="uuid-1a03e0da-7ef3-4775-af73-eff925ad6a3a" d="M74.81,76.23c0,.09,.03,.18,.05,.26,0,0,0,0,0,.02,0,.02,.01,.04,.02,.06,0,0,0,.01,0,.02,0,0,0,.02,.01,.03,.02,0,.04,0,.07,0,.13,0,.23-.1,.23-.23s-.11-.23-.23-.23c-.06,0-.12,.02-.16,.06"></path>
            </g>
          </g>
        </g>
        <path class="uuid-98a5ec5d-0648-432b-bc09-f087d5f98da5" d="M74.59,78.7h-.1c0-.07-.01-.15-.02-.22,0-.08-.01-.15-.01-.2l-.04,.13-.02,.07v.03s-.01,.01-.01,.01l-.02,.09h-.04s-.04-.03-.04-.03h0s.03-.08,.05-.13c.01-.03,.03-.07,.04-.1,.02-.03,.03-.07,.04-.1,0,0,0,0,0-.01,.01-.02,.02-.04,.03-.06,.01-.03,.04-.11,.04-.11,0,0,.01,.07,.03,.18,0,0,0,0,0,0,.02,.12,.04,.28,.06,.46"></path>
        <path class="uuid-f375a87f-30df-449d-b182-0632bac41fe4" d="M74.33,78.58l-.03,.12h-.51s.02-.09,.03-.13c.02-.09,.04-.15,.04-.16l.22,.08,.09,.03,.12,.04h.04Z"></path>
        <path class="uuid-98a5ec5d-0648-432b-bc09-f087d5f98da5" d="M76.48,78.68v.02s-.08,0-.08,0h0s-.07-.23-.07-.23c-.02,.06-.04,.14-.07,.23h-.11s.03-.07,.04-.1c.02-.06,.05-.12,.07-.17,.06-.12,.11-.18,.12-.19h0s0,0,0,0h0s0,.02,0,.02l.05,.22,.05,.2Z"></path>
        <path class="uuid-ec66bb30-67bc-4cca-a5f8-2500aee24012" d="M41.85,77.37v.08s-.01,0-.01,.01l-.03,.2-.03,.22-.6-.09,.05-.36,.02-.14v-.08s.61,.08,.61,.08v.07Z"></path>
        <path class="uuid-ec66bb30-67bc-4cca-a5f8-2500aee24012" d="M40.91,76.57s0,0-.01,.01c-.01,.01-.03,.02-.04,.02,0,0,0,0-.01,0,0,0-.02,0-.03,0,0,0-.01,0-.02,0-.03-.02-.06-.06-.07-.1-.01-.07,.02-.13,.07-.14,0,0,0,0,0,0,.06,0,.12,.04,.13,.12,0,.04,0,.09-.03,.11"></path>
        <path class="uuid-ec66bb30-67bc-4cca-a5f8-2500aee24012" d="M42.36,76.7s0,.04,.02,.06c0,.02,.02,.03,.04,.03,0,0,.02,0,.03,0,.05,0,.1-.03,.13-.08,.03-.07,.02-.14-.04-.16,0,0,0,0-.01,0-.02,0-.03,0-.05,0-.04,0-.08,.04-.1,.08-.01,.02-.02,.05-.02,.07"></path>
        <path class="uuid-c5f7c15e-8dbf-4f76-bf2f-ee0003afe4b9" d="M40.83,76.4s0,.06,0,.09c0,.04,0,.08,.01,.12,0,.01,0,.02,0,.03,0,.03,.02,.07,.03,.1,0,0,0,0,0,.01,0,.02,.01,.04,.02,.06,0,0,0,.01,0,.02h0c.02,.06,.05,.11,.07,.16,.02,.04,.05,.08,.07,.11,.06,.08,.13,.13,.2,.18,0,0,0,0,.01,0,0,0,0,0,0,0,.02,.02,.04,.03,.06,.04,0,0,.02,.01,.03,.02,0,0,0,0,0,0,.03,.02,.06,.04,.1,.05,.01,0,.02,0,.03,.01,.01,0,.03,0,.04,0,.11,.01,.2-.02,.31-.07,0,0,0,0,0,0,0,0,0,0,0,0h0c.08-.03,.16-.06,.23-.12,.04-.03,.07-.06,.1-.09,.04-.04,.08-.08,.12-.13,0,0,0,0,.01-.01,.01-.02,.02-.03,.03-.05h0s0,0,0-.01h0s.06-.1,.08-.15c0,0,0,0,0,0,.01-.02,.02-.05,.03-.07h0s.02-.05,.02-.08h0s0,0,0,0c0,0,0,0,0,0h0s0-.04,.01-.06c0,0,0,0,0-.01,0,0,0,0,0-.01,0,0,0-.02,0-.03,.07-.5-.21-.84-.74-.92-.06,0-.12-.01-.18-.01-.38,0-.64,.19-.74,.54,0,.03-.02,.07-.03,.1h0s0,.04,0,.06c0,.02,0,.03,0,.05h0s0,.03,0,.04v.03"></path>
        <g class="uuid-a3c248f3-c254-4514-97ea-9d3a6f5165b8">
          <g class="uuid-8c3f9728-1bf4-4718-bb81-95ee9341441e">
            <g class="uuid-00206e93-902c-4b59-98d4-0c3ec8f28244">
              <path class="uuid-1a03e0da-7ef3-4775-af73-eff925ad6a3a" d="M41.31,76.8c-.02,.13-.14,.22-.28,.2-.02,0-.03,0-.05,0-.03-.05-.05-.1-.08-.16,0,0,0-.01,0-.02,0-.02-.02-.04-.02-.07,0,0,0,0,0,0,0-.03-.02-.07-.03-.1,.05-.08,.14-.12,.24-.11,.13,.02,.23,.14,.21,.27"></path>
            </g>
          </g>
        </g>
        <g class="uuid-a3c248f3-c254-4514-97ea-9d3a6f5165b8">
          <g class="uuid-3e536a2e-eddb-4148-991b-7d53ba413adc">
            <g class="uuid-eb66f05c-5ce6-4389-a3cd-6b3b994f3a7b">
              <path class="uuid-1a03e0da-7ef3-4775-af73-eff925ad6a3a" d="M42.45,76.79h0c-.03,.06-.05,.11-.09,.16,0,0,0,0,0,.01h0s-.02,.03-.03,.05c0,0,0,0,0,.01-.04,.05-.08,.09-.12,.13-.13-.03-.21-.14-.19-.27,.02-.13,.14-.22,.28-.2,.07,0,.14,.05,.18,.11"></path>
            </g>
          </g>
        </g>
        <path class="uuid-9b1868be-6ff5-42fb-90db-64a519e0ce13" d="M40.83,76.34s-.08-.34,.05-.59c.13-.24,.22-.31,.22-.31,0,0-.05-.28,.42-.33,.43-.05,.61-.11,.66-.15,0,0,.41,.56,.47,.84,.06,.24-.06,.69-.13,.76,0,0-.03-.52-.35-.68-.23-.11-.43-.07-.43-.07,0,0,.29,.18,.45,.21,0,0-.58,.13-.94-.3,0,0-.4,.28-.42,.62"></path>
        <path class="uuid-95a69438-66ae-4f90-bd90-408db284ea61" d="M41.91,77s-.07,.11-.18,.14c-.04,.01-.08,.02-.13,.01-.04,0-.08-.02-.11-.03-.11-.06-.15-.19-.16-.2,0,0,.04,.01,.1,.02,.05,.01,.11,.02,.18,.03,.07,0,.13,.01,.19,.02,.06,0,.1,0,.1,0"></path>
        <path class="uuid-5791d0e3-f48a-4c56-995b-b65279c1daa6" d="M41.83,77s-.11,.06-.22,.04c-.11-.02-.17-.07-.2-.1,.06,.01,.13,.03,.21,.04,.08,.01,.15,.01,.21,.02"></path>
        <path class="uuid-1a03e0da-7ef3-4775-af73-eff925ad6a3a" d="M41.62,77.01c-.24-.03-.34-.11-.34-.11,0,0,0,0,0,0,0,0,0,0,0,0,0,0,.02,.04,.34,.08,0,0,0,0,0,0,.33,.04,.35,0,.35,0s0,0,0,0c0,0,0,0,0,0,0,0-.09,.07-.37,.04"></path>
        <path class="uuid-1a03e0da-7ef3-4775-af73-eff925ad6a3a" d="M41.75,77.14s-.11,.03-.16,.02c-.04,0-.1-.03-.13-.05,.02-.02,.09-.02,.14-.01,.05,0,.13,.03,.14,.04"></path>
        <path class="uuid-1a03e0da-7ef3-4775-af73-eff925ad6a3a" d="M41.6,77.17h0c-.2-.03-.26-.23-.27-.23,0,0,0,0,0,0,0,0,0,0,0,0,0,0,.07,.16,.26,.19,.19,.03,.3-.12,.3-.12,0,0,0,0,0,0,0,0,0,0,0,0,0,0-.11,.18-.31,.16"></path>
        <path class="uuid-d48b134d-2bec-44af-be0d-a120bc4149b2" d="M42.66,77.76c-.14-.29-.56-.31-.56-.31h0c-.1-.01-.23-.02-.25,0h0s-.04,.14-.16,.18c-.03,.01-.08,.02-.13,.02h-.01c-.2,0-.29-.18-.3-.22,0,0,0,0,0,0,0,0-.26-.03-.39,0-.13,.02-.27,.09-.41,.27-.05,.07-.11,.15-.16,.25,0,.01-.02,.03-.02,.04-.03,.06-.06,.13-.09,.21-.03,.08-.06,.16-.08,.25,0,0,0,0,0,.01l.08,.02h0l.1,.02,.5,.1h.02s0,0,0,0l.14-.18-.05,.29h1.27l.12-.26,.03,.26h.48c.02-.42,0-.71-.12-.94"></path>
        <g class="uuid-40cdd68b-e81f-4e62-b4d6-884333bfe078">
          <g class="uuid-51413979-f3e9-46d2-b72f-123837eff26f">
            <g class="uuid-44c934ff-5cca-4727-9ff8-c102778b821f">
              <path class="uuid-4b57136e-08ff-4711-92ad-5d29147ddf09" d="M38.79,76.73s.02,.03,.04,.04c.02,0,.11,0,.13,0,.02,0,.03-.02,.05-.04,0,.02,0,.04-.03,.06,0,0-.02,.02-.04,.02-.01,0-.08,0-.09,0-.01,0-.03-.01-.03-.02-.02-.02-.03-.04-.02-.06"></path>
            </g>
          </g>
        </g>
        <path class="uuid-4a3a2941-8dde-4634-8c89-237689b3dcdf" d="M39.14,76.92s0,0-.01,.01c0,0,0,0,.01-.01"></path>
        <path class="uuid-b4ee1b4e-a99c-4a13-9073-1f298a25091a" d="M40.8,78.65v-.07s-.01,0-.01,0c-.03-.13-.08-.33-.14-.53-.06-.2-.15-.31-.21-.37-.05-.04-.09-.05-.09-.05l-.22-.11-.08-.04h0s-.02-.01-.02-.01h-.02s0-.01,0-.01h0s0,0,0,0h0l-.07-.04-.23-.12h-.02s-.01-.01-.01-.01h-.02s0-.01,0-.01h0s-.01,.12-.01,.12l-.03,.22-.3-.03h0s-.28-.03-.28-.03h0s0-.08,0-.08l.03-.26h0s0,0,0,0h-.01s0,0,0,0h-.05s0,.02,0,.02h0l-.14,.04h0l-.05,.02-.1,.03h0l-.08,.02-.28,.08s0,0,0,0c0,0-.01,0-.04,0-.13,.03-.29,.09-.41,.37-.15,.36-.25,.64-.25,.64l.49,.17,.08,.03,.09-.32h0s0,0,0,0c0,.05,0,.13,.01,.2,0,.07,0,.15,.02,.22h1.77c.03-.09,.05-.17,.07-.23l.07,.22h0s.58,0,.58,0c0-.01,0-.03,0-.05"></path>
        <polygon class="uuid-467ef6d0-e01b-4fc3-be78-37395919e8b2" points="37.63 78.4 38.2 78.6 38.24 78.47 37.68 78.28 37.63 78.4"></polygon>
        <polygon class="uuid-467ef6d0-e01b-4fc3-be78-37395919e8b2" points="40.8 78.7 40.22 78.7 40.22 78.7 40.3 78.68 40.78 78.58 40.78 78.58 40.78 78.58 40.79 78.65 40.8 78.7"></polygon>
        <path class="uuid-ec66bb30-67bc-4cca-a5f8-2500aee24012" d="M38.98,77.65c.06,.11,.2,.17,.27,.18,.07,0,.24,.02,.37-.11,.11-.12,.09-.33,.08-.45h-.03s-.03-.03-.03-.03h0s0,0,0,0l-.04,.34-.3-.03h0s-.28-.03-.28-.03v-.07s.04-.27,.04-.27h0s0,0,0,0h-.01s-.06,.02-.06,.02c-.01,.06-.03,.16-.03,.26,0,.08,0,.15,.03,.2"></path>
        <path class="uuid-4de400e7-396f-4da1-a202-efec2662f726" d="M39.66,76.4c0,.11,.11,.24,.21,.24,.1,0,.19-.15,.19-.25,0-.11-.1-.13-.2-.13-.1,0-.2,.04-.19,.14"></path>
        <path class="uuid-4de400e7-396f-4da1-a202-efec2662f726" d="M39.67,76.69c0,.11,.11,.24,.21,.24,.1,0,.19-.15,.19-.25,0-.11-.1-.13-.2-.13-.1,0-.2,.04-.19,.14"></path>
        <path class="uuid-8a3d54e8-4339-4da7-89a3-bac224575441" d="M39.67,76.99c0,.11,.11,.24,.21,.24,.1,0,.19-.15,.19-.25,0-.11-.1-.13-.2-.13-.1,0-.2,.04-.19,.14"></path>
        <path class="uuid-8a3d54e8-4339-4da7-89a3-bac224575441" d="M39.68,77.28c0,.11,.11,.24,.21,.24,.1,0,.19-.15,.19-.25,0-.11-.1-.13-.2-.13-.1,0-.2,.04-.19,.14"></path>
        <path class="uuid-8a3d54e8-4339-4da7-89a3-bac224575441" d="M39.69,77.58c0,.11,.11,.24,.21,.24,.1,0,.19-.15,.19-.25,0-.11-.1-.13-.2-.13-.1,0-.2,.04-.19,.14"></path>
        <polygon class="uuid-27988165-7e20-4d88-9af8-ed5116f984eb" points="40 77.77 39.79 77.77 39.79 77.88 40 77.88 40 77.77"></polygon>
        <path class="uuid-8a3d54e8-4339-4da7-89a3-bac224575441" d="M40,77.88s.18,.14,.14,.33c-.04,.19-.24,.31-.24,.31,0,0-.21-.15-.21-.35,0-.2,.11-.29,.11-.29h.21Z"></path>
        <path class="uuid-4de400e7-396f-4da1-a202-efec2662f726" d="M39.25,76.34c-.02,.1-.15,.22-.25,.19-.1-.02-.16-.18-.14-.29,.02-.1,.13-.11,.22-.09,.1,.02,.19,.08,.16,.18"></path>
        <path class="uuid-4de400e7-396f-4da1-a202-efec2662f726" d="M39.18,76.63c-.02,.1-.15,.22-.25,.19-.1-.02-.16-.18-.14-.29,.02-.1,.13-.11,.23-.09,.1,.02,.18,.08,.16,.18"></path>
        <path class="uuid-8a3d54e8-4339-4da7-89a3-bac224575441" d="M39.12,76.92c-.02,.1-.15,.22-.25,.19-.1-.02-.16-.18-.14-.29,.02-.1,.13-.11,.22-.09,.1,.02,.19,.08,.16,.18"></path>
        <path class="uuid-8a3d54e8-4339-4da7-89a3-bac224575441" d="M39.05,77.21c-.02,.1-.15,.22-.25,.19-.1-.02-.16-.18-.14-.29,.02-.1,.13-.11,.22-.09,.1,.02,.19,.08,.16,.18"></path>
        <path class="uuid-8a3d54e8-4339-4da7-89a3-bac224575441" d="M38.98,77.49c-.02,.1-.15,.22-.25,.19-.1-.02-.16-.18-.14-.29,.02-.1,.13-.11,.22-.09,.1,.02,.19,.08,.16,.18"></path>
        <rect class="uuid-27988165-7e20-4d88-9af8-ed5116f984eb" x="38.68" y="77.59" width=".11" height=".21" transform="translate(-45.73 97.78) rotate(-76.88)"></rect>
        <path class="uuid-8a3d54e8-4339-4da7-89a3-bac224575441" d="M38.62,77.73s-.2,.1-.2,.29c0,.2,.18,.36,.18,.36,0,0,.24-.1,.28-.3,.04-.2-.05-.3-.05-.3l-.2-.05Z"></path>
        <path class="uuid-8a3d54e8-4339-4da7-89a3-bac224575441" d="M40.05,76.89c.33-.23,.55-.64,.52-1.2-.01-.26-.21-.53-.29-.61-.34-.34-.99-.38-1.35-.18-.58,.32-.49,1.12-.38,1.38,.06,.15,.13,.09,.11,.11-.08,.13,1.08,.71,1.38,.49"></path>
        <polygon class="uuid-ec66bb30-67bc-4cca-a5f8-2500aee24012" points="38.99 77.58 39.63 77.65 39.67 77.26 39.7 77.03 39.06 76.95 39.05 77.03 39.03 77.18 39 77.45 38.99 77.58"></polygon>
        <path class="uuid-ec66bb30-67bc-4cca-a5f8-2500aee24012" d="M40.12,76.63s0,.01,0,.02c0,.01,.02,.03,.04,.03,0,0,0,0,.01,0,0,0,.02,0,.03,0,0,0,.01,0,.02,0,.04,0,.08-.04,.1-.09,.03-.07,.01-.14-.04-.17,0,0,0,0,0,0-.06-.03-.13,.01-.16,.08-.02,.04-.02,.09,0,.13"></path>
        <path class="uuid-ec66bb30-67bc-4cca-a5f8-2500aee24012" d="M38.76,76.35c.02,.08-.02,.15-.08,.16-.06,.01-.13-.04-.14-.12-.02-.08,.02-.15,.08-.16,.06-.01,.12,.04,.14,.12"></path>
        <path class="uuid-c5f7c15e-8dbf-4f76-bf2f-ee0003afe4b9" d="M38.63,76.14h0s0,.06,0,.09c0,0,0,0,0,0,0,.09,.03,.18,.05,.26,0,0,0,0,0,.02,0,.02,.01,.04,.02,.06,0,0,0,.01,0,.02,0,0,0,.02,.01,.03,.04,.09,.09,.18,.14,.26,.05,.07,.13,.13,.19,.18,0,0,0,0,.01,.01,.09,.07,.18,.14,.29,.15,.01,0,.03,0,.04,0,0,0,.02,0,.03,0h0s.07-.01,.11-.03c0,0,0,0,0,0,.01,0,.02,0,.03-.01,.02,0,.05-.02,.07-.03,0,0,0,0,0,0,.09-.03,.17-.07,.25-.13,.08-.07,.15-.15,.21-.24,0,0,0-.01,.01-.02h0s0,0,0,0c.01-.02,.02-.03,.03-.05,0,0,0,0,0-.01,.03-.05,.05-.09,.07-.14,.02-.04,.03-.07,.04-.11,0-.03,.02-.06,.03-.09,0,0,0-.02,0-.03,0-.01,0-.03,0-.04,0-.02,0-.03,0-.05,0-.02,0-.04,0-.06,0-.04,0-.08,0-.11-.01-.44-.28-.72-.76-.78-.54-.06-.9,.22-.96,.76,0,.01,0,.03,0,.04,0,.03,0,.05,0,.08Z"></path>
        <path class="uuid-06ec612b-059b-4cbc-aec7-411fed5a2e5b" d="M39.57,76.45s-.04,.03-.07,.04c-.03,0-.17,0-.19-.02-.03-.01-.06-.03-.08-.05,0,.02,0,.06,.04,.08,.02,0,.04,.02,.06,.03s.12,.02,.14,.01c.02,0,.04,0,.06-.01,.03-.02,.05-.05,.04-.07"></path>
        <path class="uuid-0e97dd8d-c02f-4116-9910-3c73cf6a6997" d="M39.61,76.76s0,0,0,0c.02,0,.04-.02,.06-.03-.01,0-.03,.02-.05,.03"></path>
        <path class="uuid-0e97dd8d-c02f-4116-9910-3c73cf6a6997" d="M39.15,76.69s.05,.04,.08,.06c0,0,0,0,0,0-.03-.02-.05-.04-.07-.05"></path>
        <path class="uuid-0e97dd8d-c02f-4116-9910-3c73cf6a6997" d="M39.13,76.67s0,0,.01,.01c0,0,0,0-.01-.01"></path>
        <path class="uuid-5791d0e3-f48a-4c56-995b-b65279c1daa6" d="M39.15,76.67s.02,.03,.07,.07c0,0,0,0,0,0t0,0s.08,.05,.14,.06c0,0,0,0,.01,0,0,0,0,0,.01,0,.08,0,.16-.02,.21-.04h0s0,0,0,0c.03-.02,.05-.03,.05-.03,0,0-.04,0-.1,0h-.03s-.09,0-.14,0c-.05,0-.1-.01-.14-.02-.02,0-.03,0-.05,0,0,0,0,0,0,0-.04,0-.06,0-.06-.01"></path>
        <path class="uuid-0e97dd8d-c02f-4116-9910-3c73cf6a6997" d="M39.09,76.63l.02,.02s0,0,.02,.03c0,0,0,0,.02,0,.01,0,.18,.04,.25,.05,.07,0,.25,0,.26,0,0,0,0,0,.01,0,0,0,0,0,0,0,0,0,0,0,0,0,.02,0,.04-.03,.04-.03,0,0-.02,0-.02,0-.03,0-.16-.03-.29-.05-.12-.01-.29,0-.31-.03"></path>
        <path class="uuid-0e97dd8d-c02f-4116-9910-3c73cf6a6997" d="M39.09,76.63s.03,.22,.29,.25c.19,.02,.26-.09,.3-.12,.01-.01,.04-.05,.04-.05h-.02s0,.02-.02,.03c0,0,0,0,0,0,0,0,0,0,0,0,0,0,0,0,0,0-.02,0-.04,.02-.06,.03h0c-.06,.03-.13,.04-.21,.03-.08,0-.12-.03-.16-.05h0s-.06-.04-.08-.06t0,0s0,0-.02-.01c-.01-.02-.02-.03-.02-.03l-.02-.02Z"></path>
        <path class="uuid-0e97dd8d-c02f-4116-9910-3c73cf6a6997" d="M39.13,76.67h0s0,0,.01,.01c0,0,0,0,0,0,.02,.01,.04,.03,.07,.05-.05-.03-.07-.06-.07-.07,0,0-.01,0-.01,0"></path>
        <path class="uuid-0e97dd8d-c02f-4116-9910-3c73cf6a6997" d="M39.61,76.76s.04-.02,.05-.03t0,0s0,0,0,0h-.01s-.02,.02-.05,.03"></path>
        <path class="uuid-8a3d54e8-4339-4da7-89a3-bac224575441" d="M39.6,74.82c-.93-.07-.99,.9-.99,.9l.59,.06,.07-.18-.02,.19,.18,.02,.03-.23,.03,.23,.45,.04,.02-.19,.06,.2,.18,.02-.04-.23,.1,.23,.17,.02s.16-.99-.83-1.07"></path>
        <g class="uuid-a3c248f3-c254-4514-97ea-9d3a6f5165b8">
          <g class="uuid-9958fd87-cad0-4711-9150-d15a45481c76">
            <g class="uuid-7bbcca0c-d481-4e4f-a05e-061d98f66594">
              <path class="uuid-1a03e0da-7ef3-4775-af73-eff925ad6a3a" d="M39.79,76.54c0,.13,.11,.23,.23,.23,.05,0,.09-.01,.12-.03,.01-.02,.02-.03,.03-.05,0,0,0,0,0-.01,.03-.05,.05-.09,.07-.14,0-.12-.11-.21-.23-.21s-.23,.1-.23,.23"></path>
            </g>
          </g>
        </g>
        <g class="uuid-a3c248f3-c254-4514-97ea-9d3a6f5165b8">
          <g class="uuid-e4da453f-c630-4426-ac8a-c9d311d0b5d0">
            <g class="uuid-7d089f03-97a7-4e92-bc74-74d25a47b2df">
              <path class="uuid-1a03e0da-7ef3-4775-af73-eff925ad6a3a" d="M38.63,76.23c0,.09,.03,.18,.05,.26,0,0,0,0,0,.02,0,.02,.01,.04,.02,.06,0,0,0,.01,0,.02,0,0,0,.02,.01,.03,.02,0,.04,0,.07,0,.13,0,.23-.1,.23-.23s-.11-.23-.23-.23c-.06,0-.12,.02-.16,.06"></path>
            </g>
          </g>
        </g>
        <path class="uuid-467ef6d0-e01b-4fc3-be78-37395919e8b2" d="M38.41,78.7h-.1c0-.07-.01-.15-.02-.22,0-.08-.01-.15-.01-.2l-.04,.13-.02,.07v.03s-.01,.01-.01,.01l-.02,.09h-.04s-.04-.03-.04-.03h0s.03-.08,.05-.13c.01-.03,.03-.07,.04-.1,.02-.03,.03-.07,.04-.1,0,0,0,0,0-.01,.01-.02,.02-.04,.03-.06,.01-.03,.04-.11,.04-.11,0,0,.01,.07,.03,.18,0,0,0,0,0,0,.02,.12,.04,.28,.06,.46"></path>
        <path class="uuid-f375a87f-30df-449d-b182-0632bac41fe4" d="M38.16,78.58l-.03,.12h-.51s.02-.09,.03-.13c.02-.09,.04-.15,.04-.16l.22,.08,.09,.03,.12,.04h.04Z"></path>
        <path class="uuid-467ef6d0-e01b-4fc3-be78-37395919e8b2" d="M40.3,78.68v.02s-.08,0-.08,0h0s-.07-.23-.07-.23c-.02,.06-.04,.14-.07,.23h-.11s.03-.07,.04-.1c.02-.06,.05-.12,.07-.17,.06-.12,.11-.18,.12-.19h0s0,0,0,0h0s0,.02,0,.02l.05,.22,.05,.2Z"></path>
        <path class="uuid-690aef5a-133b-4ee2-a003-ce7ad446d58d" d="M61.62,78.7h-.92l-.43-3.34c-.03-.25,.14-.48,.39-.51,.02,0,.04,0,.06,0,.23,0,.42,.17,.45,.4l.02,.14,.32,2.43,.11,.88Z"></path>
        <path class="uuid-4de400e7-396f-4da1-a202-efec2662f726" d="M52.62,82.41v.28c0,.16-.15,.28-.34,.3l-2.83,.13v2.52h-1.86v-2.44l-.47,.02c-.26,.01-.48-.13-.53-.34l-.13-.57-.04-.17-.23-1.92-.26-2.17v-2.13c.07-.05,.14-.08,.23-.1,.02,0,.04,0,.06,0,.25,0,.46,.18,.49,.43l.02,.16,.34,2.66,.15,1.15,.24,1.92h4.83c.17,0,.31,.11,.31,.25"></path>
        <path class="uuid-52533826-1e62-459d-b286-5a6e12669406" d="M64.35,78.7h-.92l-.43-3.34c-.03-.25,.14-.48,.39-.51,.02,0,.04,0,.06,0,.23,0,.42,.17,.45,.4l.02,.14,.32,2.43,.11,.88Z"></path>
        <path class="uuid-52533826-1e62-459d-b286-5a6e12669406" d="M83.85,78.7h-.92l-.43-3.34c-.03-.25,.14-.48,.39-.51,.02,0,.04,0,.06,0,.23,0,.42,.17,.45,.4l.02,.14,.32,2.43,.11,.88Z"></path>
        <path class="uuid-52533826-1e62-459d-b286-5a6e12669406" d="M34.03,78.7h-.92l-.43-3.34c-.03-.25,.14-.48,.39-.51,.02,0,.04,0,.06,0,.23,0,.42,.17,.45,.4l.02,.14,.32,2.43,.11,.88Z"></path>
        <path class="uuid-52533826-1e62-459d-b286-5a6e12669406" d="M20.6,78.68h-.92l-.43-3.34c-.03-.25,.14-.48,.39-.51,.02,0,.04,0,.06,0,.23,0,.42,.17,.45,.4l.02,.14,.32,2.43,.11,.88Z"></path>
        <rect class="uuid-c17c8445-10d1-4e43-9c10-5c437b79bdb8" x="-10.04" y="47.98" width="132.67" height="67.24"></rect>
      </g>
    </g>
  </g>
</svg>
