<?xml version="1.0" encoding="UTF-8"?>
<svg xmlns="http://www.w3.org/2000/svg" xmlns:xlink="http://www.w3.org/1999/xlink" viewBox="0 0 120 120">
  <defs>
    <style>.uuid-cd7621cc-022b-48d4-813f-ab093c74cded{clip-path:url(#uuid-79496579-0197-4676-8cea-8a2f71dc2889);}.uuid-2b2e93e6-fe9a-4dae-9d7b-3db390a4f4b1{fill:#70cbc9;}.uuid-ed4dd67e-03ae-4b45-8299-a8a4c89232ee{fill:#fff;}.uuid-f180e90e-34a1-4237-97bd-5385b2d1c297{fill:#ba9f69;}.uuid-29038d6f-5a6f-4320-8975-5803c7705729{fill:#fcde74;}.uuid-d15bce3d-9ba4-4c98-9d25-405926dd613d{fill:#dbac00;}.uuid-3b143ed5-a84a-4a18-baa2-8228ccf534dc{fill:#f5f5f5;}.uuid-dda4be61-034d-4c57-8858-4d257047e66c{fill:#b2b2b2;}.uuid-f98a7a50-1490-4192-b14e-5556d3bdaa3b{isolation:isolate;}.uuid-659e735b-9413-4fa9-a74f-97b388ea3ee7{fill:#fccfbb;}.uuid-8bc5e4ec-57dd-430b-a627-852eaf51982a{fill:#883524;}.uuid-fef7210f-51f5-4e6d-85d1-c5456e6b48d8{clip-path:url(#uuid-1fb60528-44a4-41ac-99f6-2e2793ebbcd4);}.uuid-bf5a7167-4def-4d49-8044-e5cf39310a41{fill:#fcc603;}.uuid-80aad457-8698-4ccf-bc09-0fbf6f2ac0ba{fill:#6d8a47;}.uuid-9394d958-2be4-4e1d-ac8c-ccd363ead4b8{clip-path:url(#uuid-badd8cdc-c4e9-4ca0-966a-7f470ff24f14);}.uuid-3a5b7139-26fe-4b5f-93aa-d9f8c8a8fded{opacity:.2;}.uuid-3a5b7139-26fe-4b5f-93aa-d9f8c8a8fded,.uuid-844d663e-efb1-417f-9589-efc43dbe944d{mix-blend-mode:multiply;}.uuid-6f036e6c-cb2c-4e2d-a695-ca3fdf38c485{clip-path:url(#uuid-03f235fb-32c6-493d-86c4-07302c0b93d0);}.uuid-3a0106f2-8a71-425c-be44-7d839b549957{fill:#ec3c40;}.uuid-c42972a2-28c5-4c80-919c-77d2c48127f8{fill:none;}.uuid-a81ebc0d-507d-41d5-bb97-03b0c9a0e2fc{clip-path:url(#uuid-6eedb861-d8af-4af3-884c-e385a50b82ad);}.uuid-a1af7aec-c1a5-4693-9ad2-c6ad6cc99986{fill:#9bb05b;}.uuid-1544a9dd-3e3b-46b3-a818-53444e456ac1{clip-path:url(#uuid-2cff2cc8-f130-4051-8aa1-88798d87fb24);}.uuid-b12a23d2-7956-41f4-98c2-b28a07f3a346{fill:#964332;}.uuid-85551275-55fd-48a1-b399-4850544e3f4f{fill:#e5e1c6;}.uuid-675ad32c-cd21-4d68-9b0b-dbdc20e508a4{clip-path:url(#uuid-92cef873-bb11-4d14-9263-b643441295fd);}.uuid-0c68e3fc-ab32-4ae7-afd9-d009f98bc441{clip-path:url(#uuid-5905f940-e351-4e88-b3e7-a3fb431d3aa6);}.uuid-b9e28f80-cf8b-4410-83b7-9ef44c9ff5c2{fill:#f8eecc;}</style>
    <clipPath id="uuid-79496579-0197-4676-8cea-8a2f71dc2889">
      <rect class="uuid-c42972a2-28c5-4c80-919c-77d2c48127f8" x="48.05" y="49.63" width="16.7" height="12.8"></rect>
    </clipPath>
    <clipPath id="uuid-92cef873-bb11-4d14-9263-b643441295fd">
      <rect class="uuid-c42972a2-28c5-4c80-919c-77d2c48127f8" x="48.05" y="49.63" width="16.7" height="12.8"></rect>
    </clipPath>
    <clipPath id="uuid-03f235fb-32c6-493d-86c4-07302c0b93d0">
      <rect class="uuid-c42972a2-28c5-4c80-919c-77d2c48127f8" x="50.15" y="53.25" width="23.12" height="11"></rect>
    </clipPath>
    <clipPath id="uuid-1fb60528-44a4-41ac-99f6-2e2793ebbcd4">
      <rect class="uuid-c42972a2-28c5-4c80-919c-77d2c48127f8" x="50.15" y="53.25" width="23.12" height="11"></rect>
    </clipPath>
    <clipPath id="uuid-5905f940-e351-4e88-b3e7-a3fb431d3aa6">
      <rect class="uuid-c42972a2-28c5-4c80-919c-77d2c48127f8" x="32.37" y="67.33" width="3.83" height="35.7"></rect>
    </clipPath>
    <clipPath id="uuid-2cff2cc8-f130-4051-8aa1-88798d87fb24">
      <rect class="uuid-c42972a2-28c5-4c80-919c-77d2c48127f8" x="32.37" y="67.33" width="3.83" height="35.7"></rect>
    </clipPath>
    <clipPath id="uuid-badd8cdc-c4e9-4ca0-966a-7f470ff24f14">
      <rect class="uuid-c42972a2-28c5-4c80-919c-77d2c48127f8" x="71.75" y="81.58" width="15.02" height="8.16"></rect>
    </clipPath>
    <clipPath id="uuid-6eedb861-d8af-4af3-884c-e385a50b82ad">
      <rect class="uuid-c42972a2-28c5-4c80-919c-77d2c48127f8" x="71.75" y="81.58" width="15.02" height="8.16"></rect>
    </clipPath>
  </defs>
  <g class="uuid-f98a7a50-1490-4192-b14e-5556d3bdaa3b">
    <g id="uuid-bcecb438-24f9-42f6-81b8-503e4dcf7b12">
      <circle class="uuid-3b143ed5-a84a-4a18-baa2-8228ccf534dc" cx="61.17" cy="60" r="50"></circle>
      <g>
        <path class="uuid-ed4dd67e-03ae-4b45-8299-a8a4c89232ee" d="M86.31,81.29v-11.34c0-1.33-1.09-2.42-2.42-2.42h-.19l-.25-.59,.43-.55,.02-.03,.23-.29-1.31-1.03-.26-.2-5.17-12.14-4.12,1.75-.71-1-3.88-5.44-2.81,2.01-1.12,.8h0s-1.27-.99-1.27-.99l-3.15-2.48-2.14,2.72-1.22,1.55-.27,.34-.27,.34-.69,.88-1.93-5.28c-.49-1.34-1.92-2.07-3.18-1.61l-17.77,6.48c-1.26,.46-1.89,1.93-1.4,3.28l4.18,11.46h-.86c-1.33,0-2.42,1.09-2.42,2.42v30.85c0,1.33,1.09,2.42,2.42,2.42h18.23v1.5c0,.28,.16,.55,.46,.8,.08,.06,.16,.12,.25,.18,.18,.11,.38,.22,.62,.33,.08,.03,.16,.07,.25,.1,.19,.07,.4,.14,.62,.21,.08,.02,.16,.05,.25,.07,.2,.05,.41,.1,.62,.14,.08,.02,.16,.03,.25,.05,.2,.04,.41,.07,.62,.1,.08,.01,.16,.02,.25,.03,.2,.03,.41,.05,.62,.06,.08,0,.16,.01,.25,.02,.2,.02,.41,.02,.62,.03,.08,0,.16,0,.25,0,.1,0,.2,0,.31,0,.08,0,.16,0,.24,0,.03,0,.05,0,.08,0,.08,0,.17,0,.25,0,.21,0,.42-.01,.62-.03,.08,0,.17-.01,.25-.02,.11,0,.21-.02,.32-.03,.1,0,.2-.02,.3-.03,.08,0,.17-.02,.25-.03,.13-.02,.26-.03,.38-.05,.08-.01,.16-.03,.24-.04,0,0,.02,0,.02,0,.05,0,.1-.02,.16-.03,.01,0,.02,0,.03,0,.01,0,.03,0,.04,0,.03,0,.07-.01,.1-.02,.03,0,.05,0,.08-.02,.05,0,.1-.02,.14-.03,.03,0,.05-.01,.08-.02,.05-.01,.1-.02,.14-.04,.02,0,.05-.01,.07-.02,0,0,0,0,.01,0,.05-.01,.1-.02,.14-.04,.03,0,.05-.01,.08-.02,0,0,0,0,.01,0,.05-.01,.09-.03,.13-.04,.03,0,.05-.02,.08-.03,.05-.01,.1-.03,.14-.05,.03,0,.05-.02,.08-.03,.05-.02,.1-.03,.14-.05,.01,0,.02,0,.04-.01,.02,0,.03-.01,.04-.02,.05-.02,.1-.04,.14-.06,.02,0,.04-.02,.06-.03,0,0,.01,0,.02,0,0,0,.02,0,.03-.01,0,0,0,0,0,0h0s.08-.03,.11-.05c.03-.01,.05-.03,.08-.04,.02,0,.03-.02,.05-.03,.12-.06,.22-.12,.32-.19,.09-.06,.18-.12,.25-.18,0,0,0,0,0,0,.23-.19,.37-.39,.42-.61,.02-.06,.03-.12,.03-.18v-1.5h18.43c1.33,0,2.42-1.09,2.42-2.42v-11.34h.46v-8.16h-.46Zm-31.09,22.21c-.06-.02-.13-.04-.19-.06,.11,.03,.22,.07,.34,.1-.05-.02-.1-.03-.15-.04m.25,.07s-.06-.02-.09-.02c.23,.06,.47,.11,.72,.16,0,0,0,0-.01,0-.21-.04-.42-.09-.62-.14m.71,.16c.2,.04,.41,.07,.63,.1-.16-.02-.32-.04-.47-.07-.05,0-.11-.02-.16-.03m.97,.15c.08,.01,.16,.02,.23,.03-.06,0-.12-.01-.18-.02-.02,0-.04,0-.05,0m.67,.07s-.05,0-.07,0h0c.2,.02,.41,.03,.62,.04-.1,0-.21,0-.31-.02-.08,0-.16-.01-.25-.02m1.11,.05s-.08,0-.11,0c.06,0,.11,0,.17,0h-.06Zm.62,0h-.12s-.1,0-.14,0c.22,0,.44,0,.66-.01-.05,0-.1,0-.14,0-.08,0-.17,0-.25,0m.87-.04c-.12,0-.24,.01-.35,.02,.28-.01,.56-.03,.83-.06-.07,0-.15,.02-.22,.02-.08,0-.16,.01-.25,.02m1.09-.11s.1-.02,.14-.02c-.04,0-.08,.01-.12,.02,0,0-.01,0-.02,0m.95-.16s-.04,0-.06,.01c-.07,.01-.15,.03-.22,.04,0,0-.02,0-.02,0,0,0-.02,0-.03,0,.2-.03,.39-.07,.57-.11-.07,.02-.15,.03-.22,.05m.79-.19s-.05,.01-.08,.02c-.05,.01-.1,.03-.14,.04,0,0,0,0-.01,0-.02,0-.05,.01-.06,.02h0s-.09,.02-.14,.03c.18-.04,.34-.09,.5-.13-.02,0-.03,0-.05,.02,0,0,0,0-.01,0m.12-.04s.05-.02,.07-.02c-.02,0-.03,0-.05,.01,0,0-.02,0-.02,0m.51-.17s-.02,0-.02,0c.07-.03,.12-.05,.19-.08h0s-.08,.04-.13,.05c-.02,0-.03,.01-.04,.02"></path>
        <path class="uuid-ed4dd67e-03ae-4b45-8299-a8a4c89232ee" d="M59.24,114.14h-.3c-.24,0-.38,0-.53-.02-.23,0-.51-.02-.79-.04-.14,0-.28-.02-.41-.03-.28-.02-.55-.05-.81-.08-.16-.02-.31-.04-.46-.06-.3-.04-.59-.09-.87-.14-.17-.03-.34-.06-.5-.1-.26-.05-.59-.13-.92-.21l-.44-.12c-.4-.11-.82-.25-1.2-.4-.13-.05-.25-.1-.38-.15l-.18-.08c-.61-.27-1.18-.57-1.7-.91-.32-.21-.64-.45-.94-.69-.23-.19-.45-.39-.66-.61h-13.36c-5.36,0-9.73-4.36-9.73-9.73v-30.85c0-2.03,.63-3.92,1.69-5.48l-2.15-5.9c-1.87-5.14,.72-10.8,5.76-12.64l17.78-6.48c2.49-.91,5.29-.74,7.68,.47,.26,.13,.5,.27,.75,.42l2.54-3.24,5.84,4.6,5.42-3.87,5.44,7.61,5.45-2.32,7.29,17.14,4.46,6.32c.39,1.05,.61,2.19,.61,3.38v30.85c0,5.36-4.37,9.73-9.73,9.73h-13.55c-.11,.11-.21,.21-.32,.31l-.15,.14-4.4,2.35-1.13,.27h0l-.73,.26h-.62c-.17,.03-.32,.05-.46,.07-.12,.02-.24,.03-.37,.05-.17,.02-.34,.04-.51,.05l-.37,.03c-.13,0-.27,.02-.42,.03-.27,.02-.54,.03-.82,.04-.09,0-.19,0-.28,0h-.12c-.14,0-.27,0-.41,0m3.37-18.23h16.4v-21.08h-.14l-5.34-12.55-2.8,1.19-6.55-9.18-10.8,13.74-4.81-13.19-8.62,3.14,6.14,16.85h-6.41v21.08h22.93Z"></path>
        <path class="uuid-ed4dd67e-03ae-4b45-8299-a8a4c89232ee" d="M54.87,111.47c0-.35-.25-.67-.69-.96-.77-.51-2.14-.9-3.78-1.06-.55-.05-1.14-.08-1.74-.08h-.06s0,0,0,0c.02-.06,.02-.12,.02-.18v-2.84h0s0,0,0,0c0-.35-.25-.67-.69-.96-.77-.51-2.14-.89-3.78-1.06-.55-.05-1.14-.08-1.74-.08-.26,0-.52,0-.78,.02-.04,0-.08,0-.12,0-.36,.02-.71,.04-1.04,.08-.04,0-.08,0-.12,.01-.03,0-.05,0-.08,0-.05,0-.1,.02-.15,.02-.03,0-.05,.01-.08,.02-.05,0-.1,.01-.14,.02-.03,0-.05,0-.08,.01-.05,0-.1,.01-.15,.02-.03,0-.05,0-.08,.01-.05,0-.1,.02-.14,.02-.03,0-.05,.01-.08,.02-.05,0-.1,.02-.15,.03-.03,0-.05,0-.08,.02-.05,0-.1,.02-.14,.03-.03,0-.05,.01-.08,.02,0,0,0,0,0,0-.05,0-.09,.02-.14,.03-.03,0-.05,.01-.08,.02-.05,.02-.1,.03-.15,.04-.03,0-.05,.02-.08,.02-.05,.01-.1,.03-.14,.04-.03,0-.05,.02-.08,.03-.05,.01-.1,.03-.15,.05-.02,0-.05,.02-.08,.02-.05,.02-.1,.03-.15,.05-.03,0-.05,.02-.08,.03-.05,.02-.1,.04-.14,.06-.03,.01-.05,.02-.08,.03-.05,.02-.1,.04-.14,.06-.03,.01-.05,.02-.08,.03-.05,.02-.1,.05-.14,.07-.03,.01-.05,.03-.08,.04-.05,.03-.1,.06-.14,.08-.03,.02-.05,.03-.08,.05-.05,.03-.1,.07-.14,.1-.03,.02-.05,.04-.08,.06-.05,.04-.1,.09-.15,.13-.03,.03-.05,.05-.08,.08-.06,.07-.11,.13-.15,.2-.03,.06-.06,.12-.08,.18-.02,.07-.03,.14-.03,.21,0,.03,0,.07,0,.11h0s0,0,0,0c0-.03,0-.07,0-.11v2.84c0,.28,.16,.55,.46,.79,.07,.06,.16,.12,.25,.18,.18,.12,.38,.22,.62,.33,.08,.03,.16,.07,.25,.1,.19,.07,.4,.14,.62,.21,.08,.02,.16,.05,.25,.07,.2,.05,.4,.1,.62,.14,.08,.02,.16,.03,.25,.05,.2,.04,.41,.07,.62,.1,.08,.01,.16,.02,.25,.03,.2,.03,.41,.05,.62,.06,.08,0,.16,.01,.25,.02,.2,.02,.41,.03,.62,.03,.08,0,.16,0,.25,0,.1,0,.2,0,.31,0h.06c-.02,.06-.03,.13-.03,.19,0,.03,0,.07,0,.11,0,.02,0,.03,0,.05,0,.03,.02,.05,.02,.08,0-.03-.02-.05-.03-.08,0-.02,0-.03,0-.05,0-.03,0-.07,0-.11v2.84c0,.28,.16,.55,.46,.8,.07,.06,.16,.12,.25,.18,.18,.11,.38,.22,.62,.33,.08,.03,.16,.07,.25,.1,.19,.07,.4,.14,.62,.21,.08,.02,.16,.05,.25,.07,.2,.05,.41,.1,.62,.14,.08,.02,.16,.03,.25,.05,.2,.04,.41,.07,.62,.1,.08,.01,.16,.02,.25,.03,.2,.02,.41,.04,.62,.06,.08,0,.16,.01,.25,.02,.2,.02,.41,.02,.62,.03,.08,0,.16,0,.25,0,.1,0,.2,0,.31,0,.08,0,.16,0,.24,0,.03,0,.05,0,.08,0,.08,0,.17,0,.25,0,.21,0,.42-.01,.62-.03,.08,0,.17,0,.25-.02,.11,0,.21-.02,.32-.03,.1,0,.2-.02,.3-.03,.08-.01,.17-.02,.25-.03,.13-.02,.26-.03,.38-.05,.08-.01,.16-.03,.24-.04,0,0,.01,0,.02,0,.05,0,.11-.02,.16-.03,0,0,.02,0,.03,0,.01,0,.03,0,.04,0,.03,0,.07-.01,.1-.02,.03,0,.05,0,.08-.02,.05,0,.1-.02,.14-.03,.03,0,.05-.01,.08-.02,.05-.01,.1-.02,.14-.04,.02,0,.05-.01,.07-.02,0,0,0,0,.01,0,.05-.01,.1-.02,.14-.04,.03,0,.05-.01,.08-.02,0,0,0,0,.01,0,.04-.01,.09-.03,.13-.04,.03,0,.05-.02,.08-.03,.05-.01,.1-.03,.14-.05,.03,0,.05-.02,.08-.03,.05-.02,.1-.03,.14-.05,.01,0,.02,0,.04-.02,.02,0,.03,0,.04-.02,.05-.02,.1-.04,.14-.06,.02,0,.04-.02,.06-.03,0,0,.01,0,.02,0,0,0,.02,0,.03-.01,0,0,0,0,0,0h0s.08-.03,.11-.05c.03-.01,.05-.03,.08-.04,.02,0,.03-.02,.05-.03,.12-.06,.22-.12,.32-.19,.09-.06,.18-.12,.25-.18,0,0,0,0,0,0,.23-.19,.37-.39,.42-.61,.02-.06,.03-.12,.03-.18v-2.84s0,0,0,0c0,0,0,0,0,0m-17.01-3.7s0,0,0,0h0s0,0,0,0m-.06-.02s-.01,0-.02,0c0,0,0,0,0,0,0,0,0,0,0,0m9.74-.23h0s.01,0,.02,0c0,0,0,0,0,0m-.45,.2s-.03,.01-.04,.02c0,0-.01,0-.02,0,0,0,.01,0,.02,0,.02,0,.03,0,.04-.02,0,0,.01,0,.02,0,0,0-.01,0-.02,0m-.09,.04s0,0,0,0t0,0m-.46,.15s0,0,0,0,0,0,0,0c0,0-.01,0-.02,0m-.15,.04s.02,0,.02,0h0s-.02,0-.03,0m-.19,.05s0,0-.01,0c-.02,0-.04,.01-.06,.02,.01,0,.02,0,.03,0,.01,0,.02,0,.03,0,0,0,0,0,.01,0,0,0,.02,0,.03,0-.01,0-.02,0-.03,0m-.57,.13s-.04,0-.06,.01c-.03,0-.07,.01-.11,.02,.04,0,.08-.02,.13-.02,.01,0,.03,0,.05,0,.05-.01,.1-.02,.14-.03-.05,.01-.09,.02-.14,.03m-.29,.05s0,0,0,0c0,0,.01,0,.02,0,0,0-.01,0-.02,0m-.66,.11s0,0,0,0h0s0,0-.01,0m-.23,.03s-.04,0-.06,0c.02,0,.04,0,.06,0,.02,0,.04,0,.07,0-.02,0-.05,0-.07,0m-1.48,.11h0s.03,0,.05,0c-.02,0-.03,0-.05,0m4.95-1.12s.05-.03,.08-.05c0,0,.02-.01,.03-.02,0,0,.01-.01,.02-.02,0,0-.01,.01-.02,.02,0,0-.02,.01-.03,.02-.02,.02-.05,.03-.08,.05,0,0,0,0,0,0,0,0,0,0,0,0m.3-.23s0,0,0,0c0,0,0,0,0,0,0,0,0,0-.01,.01,0,0,0,0,.02-.01m-.07,.05s0,0-.01,.01c0,0,0,0,.01,0,0,0,0,0,0,0m.45-.62s0,0,0,.02c0,0,0,0,0-.01,0,0,0,0,0,0m-12.39-.07s0,.03,0,.04c0,0,0,.01,0,.02,0,0,0-.01,0-.02,0-.02,0-.03,0-.04m.04,.16h0s0,0,0,0c0,.02,.02,.04,.02,.06,0,0,0,.01,0,.02,0,0,0-.01,0-.02,0-.02-.02-.04-.02-.06m.07,.14s.03,.05,.05,.07t0,0s0,0,0,0c-.02-.02-.03-.05-.05-.07m.16,.21s-.01-.01-.02-.02c0,0,.01,.02,.02,.02,0,0,.01,.01,.01,.02,0,0,.02,.02,.03,.03,0,0,.01,.01,.02,.02,0,0-.01-.01-.02-.02-.01-.02-.03-.03-.04-.04m.16,.15s0,0,0,0c0,0,0,0,0,0m.21,.15s.03,.02,.05,.03h0s-.03-.02-.05-.03m.21,.13s-.02-.01-.03-.02c.01,0,.02,.02,.04,.02,.02,.01,.05,.03,.07,.04,.02,.01,.05,.03,.07,.04-.02-.01-.05-.02-.07-.04-.02-.02-.05-.03-.07-.04m.5,.24s0,0,0,0h0s0,0,0,0m.19,.08s.01,0,.02,0h0s0,0,0,0c0,0-.01,0-.02,0m.3,.11s.01,0,.02,0c.02,0,.05,.02,.08,.03,.03,0,.06,.02,.09,.03-.03,0-.06-.02-.09-.03-.03-.01-.07-.02-.1-.03m.5,.15h0s-.04-.01-.06-.02c.02,0,.04,.01,.06,.02h0s.06,.02,.09,.02c0,0,0,0,0,0,0,0,0,0,0,0-.03,0-.06-.02-.09-.02m1.77,.33s.04,0,.06,0c.03,0,.05,0,.08,0-.03,0-.05,0-.08,0-.02,0-.04,0-.06,0m.61,.06s-.08,0-.12-.01c.04,0,.08,0,.12,.01,.02,0,.04,0,.07,0,.02,0,.05,0,.07,0-.02,0-.05,0-.07,0-.02,0-.05,0-.07,0m.87,.05s.04,0,.06,0c.02,0,.03,0,.05,0-.02,0-.03,0-.05,0-.02,0-.04,0-.06,0m.12,0c.08,0,.15,0,.23,0h-.04c-.06,0-.13,0-.19,0m.61,3.37s0-.01,0-.02c0,0,0,.01,0,.02,0,.02,.02,.04,.03,.07,0,.02,.02,.03,.03,.05-.01-.02-.02-.03-.03-.05-.01-.02-.03-.04-.03-.07m.25,.34s-.03-.03-.04-.04c-.01-.02-.02-.03-.03-.04,.01,.01,.02,.03,.04,.04,.01,.01,.03,.03,.04,.04,.05,.05,.11,.1,.17,.15-.02-.01-.03-.02-.04-.03-.05-.04-.09-.08-.13-.12m.37,.29s0,0,.01,0h0s0,0,0,0m.18,.11s.04,.02,.07,.04c.01,0,.02,.01,.04,.02-.01,0-.03-.01-.04-.02-.02-.01-.04-.02-.06-.03m1.12,.47c.1,.03,.21,.06,.32,.09-.04-.01-.08-.02-.12-.03-.07-.02-.13-.04-.2-.06m.44,.13s-.05-.01-.08-.02c.22,.06,.46,.11,.71,.16h0c-.21-.04-.42-.09-.62-.14m.72,.16c.21,.04,.42,.07,.64,.1-.16-.02-.33-.05-.49-.08-.05,0-.1-.02-.15-.03m.96,.15c.08,.01,.15,.02,.23,.03-.06,0-.12-.01-.18-.02-.02,0-.04,0-.05,0m.67,.07s-.04,0-.07,0h0c.2,.02,.41,.03,.62,.04-.1,0-.21,0-.31-.02-.08,0-.17-.01-.25-.02m1.12,.06s-.08,0-.12,0c.06,0,.12,0,.18,0h-.06Zm.62,0s-.08,0-.12,0c-.04,0-.09,0-.13,0,.22,0,.43,0,.64-.01-.05,0-.1,0-.14,0-.08,0-.16,0-.25,0m.87-.03c-.12,0-.24,.01-.36,.02,.28-.01,.56-.03,.82-.06-.07,0-.15,.01-.22,.02-.08,0-.17,.01-.25,.02m1.09-.11s.1-.02,.14-.02c-.04,0-.08,.01-.13,.02,0,0-.01,0-.02,0m.95-.16s-.04,0-.06,.01c-.07,.01-.15,.03-.23,.04,0,0-.01,0-.02,0-.01,0-.02,0-.03,0,.2-.03,.39-.07,.57-.11-.07,.02-.15,.03-.22,.05m.79-.19s-.05,.01-.08,.02c-.05,.02-.1,.03-.14,.04,0,0,0,0-.01,0-.02,0-.05,.01-.06,.02h0s-.09,.02-.14,.03c.18-.04,.35-.09,.51-.13-.02,0-.04,.01-.05,.02,0,0,0,0-.01,0m.12-.04s.04-.01,.06-.02c-.01,0-.03,0-.04,.01,0,0-.02,0-.02,0m.78-.28s-.01,0-.02,0c-.02,0-.04,.02-.06,.02-.05,.02-.1,.04-.14,.06-.02,0-.03,.01-.04,.02,0,0-.02,0-.03,0,.14-.05,.27-.11,.39-.17-.03,.02-.07,.03-.1,.05m.18-.08s.06-.03,.09-.05c-.02,0-.03,.02-.04,.02-.02,0-.03,.02-.05,.02m.42-.24s0,0,0,0c-.05,.03-.1,.06-.15,.09-.03,.01-.05,.03-.08,.04-.02,.02-.05,.03-.07,.04,.15-.08,.28-.15,.39-.24,0,0-.01,0-.02,.01-.03,.02-.05,.03-.08,.05m.25-.18s-.02,.02-.03,.02c-.01,.01-.02,.02-.04,.03,.11-.08,.2-.17,.28-.26-.05,.06-.1,.11-.16,.17-.02,.01-.03,.03-.05,.04"></path>
        <path class="uuid-ed4dd67e-03ae-4b45-8299-a8a4c89232ee" d="M33.25,113.74c-2.26-1.44-3.85-4.02-3.85-5.6l4.9-9.67s.1-.05,.15-.07c.11-.05,.23-.1,.35-.15l1.14-.42s.04-.01,.06-.02l1.77-.54h.42c.09-.02,.18-.03,.27-.05,.05,0,.1-.02,.15-.02h.02s.03,0,.05-.01c.01,0,.03,0,.04,0l.32-.08,.7-.06c.4-.04,.82-.08,1.24-.1l.33-.02c1.16-.06,2.43-.02,3.59,.1,.09,0,.18,.02,.27,.03l21.31-42.62-9.24,46.19,4.95,10.9,3.51-1.22c0,.42,6.13-.79,6.06-.38,0,0-9.35,7.71-20.21,8.75-9.68,.93-18.29-4.96-18.29-4.96m6.36-7.77h0s0,0,0,0Zm.04,0h.02s-.02,0-.02,0Zm.02,0l.29-.04-.29,.04Zm.51-.07h.04s-.04,0-.04,0Zm.39-.06h.02s-.02,0-.02,0Zm-4.1-8.15s-.05,.01-.07,.02l.07-.02Z"></path>
        <path class="uuid-85551275-55fd-48a1-b399-4850544e3f4f" d="M47.61,63.33c.34,.07,.67,.17,.98,.27,.25,.08,.49,.18,.72,.28,.12,.05,.24,.1,.36,.16,.03,.02,.06,.03,.1,.04,.06,.03,.12,.06,.19,.09,.06,.03,.12,.05,.19,.08,.01,0,.03,.01,.04,.02,.14,.06,.27,.12,.41,.18,0,0,0,0,.01,0,.45,.2,.92,.4,1.41,.61,.22,.1,.44,.19,.67,.29,.18,.08,.37,.16,.55,.24,.02,0,.05,.02,.07,.03,.12,.05,.24,.1,.35,.16,.04,.02,.08,.04,.13,.05,.25,.11,.51,.22,.77,.34,.91,.39,1.86,.81,2.85,1.23,0,0,.01,0,.02,0,.96,.42,1.95,.85,2.97,1.28,.69,.3,1.39,.6,2.09,.9,.25,.11,.51,.22,.77,.33,.23,.1,.46,.2,.69,.3,.5,.06,1.01,.12,1.51,.18,.12,.02,.24,.03,.36,.04,.32,.04,.64,.08,.96,.12,1.1,.14,2.21,.27,3.3,.4,.17,.02,.34,.04,.51,.06,.12,.02,.24,.03,.36,.04,.05,0,.1,.01,.15,.02,.43,.05,.85,.1,1.28,.16h0c.13,.02,.26,.03,.38,.05,.28,.03,.56,.07,.85,.1,.7,.09,1.41,.17,2.09,.25,.17,.02,.34,.04,.51,.06,.17,.02,.34,.04,.51,.06,.86,.11,1.71,.21,2.52,.3l.06-.08,.63-.8,.6-.76,.55-.7,.64-.82,.38-.48,.03-.04,.18-.23,.35-.44,1.22-1.55,.02-.03,.23-.29-1.31-1.03-7.14-5.61-3.2-2.52-1.17-.92-2.3-1.81-.35-.28-.36-.28-1.73-1.36-6.22-4.89-2.14,2.72-1.22,1.55-.27,.35-.27,.34-2.77,3.52-3.37,4.29-2.68,3.42Z"></path>
        <path class="uuid-80aad457-8698-4ccf-bc09-0fbf6f2ac0ba" d="M49.77,64.08c.06,.03,.12,.06,.19,.09,.06,.03,.12,.05,.19,.08,.01,0,.03,.01,.04,.02,.14,.06,.27,.12,.41,.18l2.41-3.06,5.83-7.42,.54-.69,1.22-1.55,.36-.46,2.25,1.77,1.09,.85,1.74,1.37,.35,.28,.35,.28,2.3,1.81,1.28,1.01,1.05,.83,.67,.53,.97,.76,4.72,3.71h0l2.25,1.76-.96,1.23-.55,.7-1.25,1.59h0s-.6,.77-.6,.77l-.92,1.17c.17,.02,.34,.04,.51,.06,.17,.02,.34,.04,.51,.06l.85-1.09,.34-.43,1.15-1.47,.55-.7,1.06-1.34,.03-.03,.15-.19,.37-.47-2.66-2.09-.31-.24-.96-.76h0s-5.24-4.12-5.24-4.12l-1.05-.83-1.25-.98-2.3-1.81-.35-.28-.35-.28-1.74-1.36-4.18-3.29-.91,1.15-1.21,1.54-.54,.69-2.77,3.52-3.15,4.01-2.45,3.12Z"></path>
        <path class="uuid-80aad457-8698-4ccf-bc09-0fbf6f2ac0ba" d="M72.37,71.26c.13,.02,.26,.03,.38,.05,.28,.04,.56,.07,.84,.1,.71,.09,1.41,.17,2.09,.25,.17,.02,.34,.04,.51,.06l.89-1.13,.47-.59,2.85-3.63,.19-.24-1.06-.84-1.53-1.2-.27,.35-.25,.31-2.52,3.21-1.46,1.86-.3,.38h0s-.83,1.05-.83,1.05Z"></path>
        <path class="uuid-80aad457-8698-4ccf-bc09-0fbf6f2ac0ba" d="M50.19,64.27c.14,.06,.27,.12,.41,.18,0,0,0,0,.01,0,.45,.2,.92,.4,1.41,.61,.22,.1,.44,.19,.67,.29,.18,.08,.37,.16,.55,.24,.02,.01,.05,.02,.07,.03l.1-.13,2.15-2.74,3.8-4.82,1.09-1.38,.67-.85,.54-.69,1.22-1.55,.34-.44,.27-.35-2.59-2.04-.63,.81-1.21,1.55-.54,.69-5.88,7.47-2.43,3.09Z"></path>
        <path class="uuid-80aad457-8698-4ccf-bc09-0fbf6f2ac0ba" d="M40.59,81.81s0-.06-.01-.09c0,.03,0,.06,0,.09h0Z"></path>
        <path class="uuid-a1af7aec-c1a5-4693-9ad2-c6ad6cc99986" d="M51.04,64.3l.98,.77c.22,.1,.44,.19,.66,.29,.18,.08,.37,.16,.56,.24,.02,.01,.05,.02,.07,.03,.12,.05,.24,.1,.36,.16,.04,.02,.08,.03,.13,.05,.25,.11,.51,.22,.77,.34l2.18-2.77,4.74-6.03-1.04-.82-2.05-1.61-5.16,6.56-2.19,2.79Z"></path>
        <path class="uuid-a1af7aec-c1a5-4693-9ad2-c6ad6cc99986" d="M72.37,71.26c.13,.02,.26,.03,.38,.05,.28,.04,.56,.07,.84,.1,.71,.09,1.41,.17,2.09,.25,.17,.02,.34,.04,.51,.06,.17,.02,.34,.04,.51,.06l.85-1.09,.33-.43-.34-.27-.35-.27-1.44-1.13-.81-.63-1.46,1.86-.3,.38h0s-.83,1.05-.83,1.05Z"></path>
        <path class="uuid-80aad457-8698-4ccf-bc09-0fbf6f2ac0ba" d="M59.97,66.77s0,.1,0,.15c0,.61,.14,1.22,.42,1.78,.69,.3,1.39,.6,2.09,.9,.25,.11,.51,.22,.76,.33,.23,.1,.46,.2,.69,.3,.5,.06,1.01,.12,1.51,.18,.12,.02,.24,.03,.36,.04,.49-.25,.94-.62,1.31-1.08,.06-.08,.13-.17,.18-.25,.12-.18,.22-.37,.31-.56,.44-.95,.47-2.03,.13-2.99-.24-.7-.68-1.33-1.3-1.82-.55-.43-1.18-.7-1.82-.8-.93-.15-1.89,.02-2.71,.51-.26,.16-.51,.34-.73,.56-.07,.06-.13,.13-.19,.2-.06,.07-.13,.14-.18,.21-.22,.28-.4,.59-.53,.9-.2,.46-.3,.96-.32,1.44"></path>
        <path class="uuid-85551275-55fd-48a1-b399-4850544e3f4f" d="M47.1,63.23c.52,.09,1.02,.22,1.5,.38,.25,.09,.49,.18,.72,.28,.11,.05,.24,.11,.36,.16,.09,.04,.19,.08,.28,.13,.06,.03,.12,.05,.19,.08,.15,.06,.31,.13,.47,.2,.65,.28,1.34,.59,2.07,.91,.18,.08,.37,.16,.55,.24,.14,.06,.28,.13,.43,.19,.04,.02,.08,.04,.13,.05,1.14,.49,2.35,1.02,3.62,1.57,0,0,.01,0,.02,0,1.61,.7,3.32,1.43,5.06,2.19,.25,.11,.51,.22,.77,.33,1.26,.54,2.54,1.09,3.82,1.64,.11,.05,.22,.1,.34,.14,.29,.13,.59,.25,.88,.38,1.02,.44,2.04,.88,3.05,1.31,.16,.07,.31,.14,.47,.2,.16,.07,.32,.13,.47,.2,.4,.17,.79,.34,1.18,.51h0c.12,.05,.24,.1,.35,.15,.26,.11,.52,.22,.78,.34,.65,.28,1.3,.56,1.94,.83,.16,.07,.32,.14,.47,.2,.16,.07,.32,.13,.47,.2,.8,.34,1.58,.68,2.33,1l.08-.06,.83-.59,.79-.56,.73-.52,.85-.61,.5-.35,.04-.03,.23-.17,.46-.33,1.61-1.15,.03-.02,.3-.22-.97-1.36-5.28-7.39-2.37-3.31-.87-1.21-1.7-2.38-.26-.37-.26-.37-1.28-1.8-4.6-6.44-2.81,2.01-1.6,1.15-.36,.26-.36,.25-3.64,2.6-8.79,6.28-.89,.64-3.12,2.23Z"></path>
        <path class="uuid-80aad457-8698-4ccf-bc09-0fbf6f2ac0ba" d="M49.68,64.04c.09,.04,.19,.08,.28,.13,.06,.03,.12,.05,.19,.08,.15,.07,.31,.14,.47,.21l1.95-1.39,1.52-1.09,11.24-8.04,.72-.51,1.6-1.15,.47-.34,1.66,2.33,.81,1.12,1.28,1.8,.26,.37,.26,.36,1.7,2.38,.94,1.32,.78,1.08,.49,.69,.72,1,3.49,4.88h0s1.66,2.32,1.66,2.32l-1.27,.91-.73,.52-1.64,1.18h0l-.79,.57-1.21,.86c.16,.07,.32,.14,.47,.2,.16,.07,.32,.13,.47,.2l1.12-.8,.44-.31h0s1.52-1.09,1.52-1.09l.73-.52,1.39-.99,.04-.03,.2-.14,.48-.35-1.97-2.75-.23-.32-.71-1h0s-3.88-5.42-3.88-5.42l-.77-1.09-.92-1.29-1.7-2.38-.26-.37-.26-.37-1.28-1.8-3.1-4.33-1.19,.85-1.6,1.14-.71,.51-3.64,2.6-7.95,5.68-1.73,1.24-1.82,1.3Z"></path>
        <path class="uuid-80aad457-8698-4ccf-bc09-0fbf6f2ac0ba" d="M73.47,74.33c.12,.05,.24,.1,.35,.15,.26,.11,.52,.22,.78,.34,.65,.28,1.3,.56,1.94,.83,.16,.07,.32,.14,.47,.21l1.17-.83,.61-.44,3.75-2.68,.24-.18-.79-1.1-1.13-1.58-.36,.26-.32,.23-3.32,2.37-1.93,1.38-.39,.28h0s-1.09,.78-1.09,.78Z"></path>
        <path class="uuid-80aad457-8698-4ccf-bc09-0fbf6f2ac0ba" d="M50.61,64.46c.65,.28,1.34,.59,2.07,.91,.18,.08,.37,.16,.55,.24,.14,.06,.28,.12,.43,.19l1.27-.91,1.52-1.09,.13-.09,.29-.21,7.82-5.59,1.43-1.02,.88-.63,.72-.51,1.6-1.14,.45-.32,.36-.26-1.92-2.68-.83,.6-1.6,1.14-.72,.51-11.42,8.16-2.95,2.11-.56,.4c.15,.07,.31,.13,.47,.2"></path>
        <path class="uuid-80aad457-8698-4ccf-bc09-0fbf6f2ac0ba" d="M40.01,75.55s.01-.06,.02-.09c0,.03-.01,.06-.02,.09h0Z"></path>
        <rect class="uuid-a1af7aec-c1a5-4693-9ad2-c6ad6cc99986" x="54.98" y="57.84" width="11.89" height="3.93" transform="translate(-23.42 46.59) rotate(-35.57)"></rect>
        <path class="uuid-a1af7aec-c1a5-4693-9ad2-c6ad6cc99986" d="M73.47,74.33c.12,.05,.24,.1,.35,.15,.26,.11,.52,.22,.78,.34,.65,.28,1.3,.56,1.94,.83,.16,.07,.32,.14,.47,.21s.32,.13,.47,.2l1.12-.8,.44-.31-.25-.36-.26-.36-1.06-1.49-.6-.83-1.93,1.38-.39,.28h0s-1.09,.78-1.09,.78Z"></path>
        <path class="uuid-80aad457-8698-4ccf-bc09-0fbf6f2ac0ba" d="M62.83,66.54s-.03,.09-.04,.14c-.26,.88-.21,1.84,.18,2.71,.08,.19,.18,.37,.29,.54,1.26,.54,2.54,1.09,3.82,1.64,.11,.05,.22,.1,.34,.14,.54-.11,1.08-.33,1.56-.67,.27-.19,.5-.41,.7-.64,.68-.79,1.02-1.82,.96-2.83-.04-.74-.28-1.47-.74-2.12-.41-.57-.94-1-1.52-1.28-.85-.41-1.82-.51-2.74-.27-.29,.08-.58,.19-.86,.33-.08,.04-.16,.09-.24,.14-.08,.05-.16,.1-.24,.15-.72,.52-1.22,1.23-1.48,2.01"></path>
        <path class="uuid-85551275-55fd-48a1-b399-4850544e3f4f" d="M49.96,64.17c.06,.03,.12,.05,.19,.08,.16,.07,.31,.13,.47,.2,.65,.28,1.34,.59,2.07,.91,.18,.08,.37,.16,.55,.24,.14,.06,.28,.13,.43,.19,.04,.02,.08,.03,.13,.05,1.14,.49,2.35,1.02,3.62,1.57,0,0,.01,0,.02,0,1.61,.7,3.32,1.43,5.06,2.19,.25,.11,.51,.22,.76,.33,1.26,.54,2.54,1.09,3.82,1.64,.11,.05,.22,.1,.34,.14,.29,.13,.59,.26,.88,.38,1.02,.44,2.04,.88,3.05,1.31,.16,.07,.31,.13,.47,.2,.16,.07,.32,.14,.47,.2,.4,.17,.79,.34,1.18,.51h0c.12,.05,.24,.1,.36,.15,.26,.11,.52,.22,.78,.33,.65,.28,1.3,.56,1.94,.83,.16,.07,.32,.14,.47,.21,.16,.07,.32,.13,.47,.2,.8,.34,1.58,.68,2.33,1,.35,.15,.7,.3,1.04,.45,1.32,.57,2.54,1.09,3.64,1.55,.19,.08,.38,.16,.56,.24,.19,.08,.38,.16,.56,.24,1.12,.48,.35-6.87,.35-6.87l-.67-1.58-7.91-18.59-4.12,1.75-1.86,.79-.83,.35-.51,.22-1.86,.79-.83,.35-1.02,.43-1.66,.7-9.55,4.06-.61,.26-1.98,.84-1.86,.79-.74,.32Z"></path>
        <path class="uuid-80aad457-8698-4ccf-bc09-0fbf6f2ac0ba" d="M52.69,65.36c.18,.08,.37,.16,.55,.24,.14,.06,.28,.12,.43,.19,.04,.02,.08,.03,.13,.05l3.18-1.35,.44-.19,.55-.24,.95-.41h0s3.65-1.55,3.65-1.55l6.66-2.84,.83-.35,1.85-.79,.49-.21,.83-.35,1.85-.79,.88-.38,1.12,2.63,.57,1.34,2.97,6.98,.52,1.23,.07,.16,.27,.63,.48,1.13,.05,.11,.54,1.28,.18,.41,.87,2.05,.71,1.67h0s1.12,2.63,1.12,2.63l-.29,.13-.64,.27c.19,.08,.38,.16,.56,.24,.19,.08,.38,.16,.56,.24l.15-.06,.26-.11,.09-.04-.87-3.31-.63-1.49h0s-.29-.69-.29-.69l-2.32-5.44-.52-1.23-1.48-3.46-3.59-8.44-1.87,.8-1.85,.79-.83,.35-.49,.21-1.86,.79-.83,.35-6.47,2.76h0s-1.26,.54-1.26,.54l-2.64,1.12-1.35,.57-.38,.16-.15,.06-3.76,1.6Z"></path>
        <path class="uuid-80aad457-8698-4ccf-bc09-0fbf6f2ac0ba" d="M80.86,77.49c1.32,.57,2.55,1.09,3.64,1.56,.19,.08,.38,.16,.56,.24l.57-.24,.38-.16-1.29-3.04-.41,.17-2.39,1.02-1.06,.45Z"></path>
        <path class="uuid-80aad457-8698-4ccf-bc09-0fbf6f2ac0ba" d="M53.24,65.6c.14,.06,.28,.12,.43,.19,.04,.02,.08,.03,.13,.05,1.14,.49,2.35,1.02,3.62,1.57h0s3.76-1.6,3.76-1.6l.84-.36,2.53-1.07,.25-.11,.84-.36,5.31-2.26,.83-.35,1.18-.5,.68-.29,.46-.2,.83-.35,1.85-.79,.3-.13,.4-.17-1.29-3.03-1.37,.58-1.85,.79-.83,.35-.49,.21-1.85,.79-.83,.35-7.05,3.01-1.34,.57h0l-2.84,1.21-.26,.11-.76,.32-1.77,.75-1.7,.72Z"></path>
        <rect class="uuid-a1af7aec-c1a5-4693-9ad2-c6ad6cc99986" x="61.29" y="60.56" width="11.89" height="3.93" transform="translate(-19.12 31.34) rotate(-23.06)"></rect>
        <path class="uuid-80aad457-8698-4ccf-bc09-0fbf6f2ac0ba" d="M67.07,71.58c.11,.05,.22,.1,.34,.14,.29,.13,.59,.26,.88,.38,1.02,.44,2.04,.88,3.05,1.31,.16,.07,.31,.13,.47,.2,.16,.07,.32,.14,.47,.2,.4,.17,.79,.34,1.18,.51h0c.12,.05,.24,.1,.36,.15,.29-.27,.54-.59,.73-.93h0c.07-.13,.14-.26,.19-.39,.19-.43,.3-.9,.33-1.38,.01-.18,0-.36,0-.54-.01-.16-.03-.33-.07-.49-.05-.25-.13-.51-.24-.75-.29-.68-.75-1.24-1.31-1.65-.8-.59-1.81-.87-2.82-.76-.38,.04-.76,.14-1.13,.3-.75,.32-1.36,.85-1.78,1.49-.43,.66-.66,1.43-.66,2.22"></path>
        <path class="uuid-a1af7aec-c1a5-4693-9ad2-c6ad6cc99986" d="M41.77,85.69s-.03-.04-.04-.06c.03,.07,.07,.13,.11,.2-.02-.04-.05-.09-.07-.13"></path>
        <path class="uuid-a1af7aec-c1a5-4693-9ad2-c6ad6cc99986" d="M39.82,77.36v-.02s0,.1,0,.15c0-.04,0-.09,0-.13"></path>
        <path class="uuid-a1af7aec-c1a5-4693-9ad2-c6ad6cc99986" d="M39.95,75.93s0-.05,0-.08c0,.04-.01,.08-.02,.13,0,0,0,0,0-.02,0-.01,0-.02,0-.03"></path>
        <path class="uuid-a1af7aec-c1a5-4693-9ad2-c6ad6cc99986" d="M40.01,75.55s.01-.06,.02-.09c0,.03-.01,.06-.02,.09-.01,.08-.02,.16-.04,.24,0-.02,0-.03,0-.05,0-.01,0-.03,0-.04,0-.01,0-.02,0-.03,0-.04,.01-.08,.02-.12"></path>
        <path class="uuid-80aad457-8698-4ccf-bc09-0fbf6f2ac0ba" d="M41.66,85.47h0s.02,.04,.02,.05h0s-.02-.03-.02-.04h0Zm-1.48-10.73h0s.68-.29,.68-.29h0s-.68,.29-.68,.29h0Zm0,0h0s.68-.29,.68-.29h0s-.68,.29-.68,.29h0Zm0,0h0s.68-.29,.68-.29h0s-.68,.29-.68,.29h0Zm0,0h0s.68-.29,.68-.29h0s-.68,.29-.68,.29h0Zm0,0h0s.68-.29,.68-.29h0s-.68,.29-.68,.29h0Zm0,0h0s.68-.29,.68-.29h0s-.68,.29-.68,.29h0Z"></path>
        <g class="uuid-844d663e-efb1-417f-9589-efc43dbe944d">
          <g class="uuid-cd7621cc-022b-48d4-813f-ab093c74cded">
            <g class="uuid-675ad32c-cd21-4d68-9b0b-dbdc20e508a4">
              <polygon class="uuid-dda4be61-034d-4c57-8858-4d257047e66c" points="64.75 50.62 48.04 62.43 63.48 49.63 64.75 50.62"></polygon>
            </g>
          </g>
        </g>
        <g class="uuid-844d663e-efb1-417f-9589-efc43dbe944d">
          <g class="uuid-6f036e6c-cb2c-4e2d-a695-ca3fdf38c485">
            <g class="uuid-fef7210f-51f5-4e6d-85d1-c5456e6b48d8">
              <polygon class="uuid-dda4be61-034d-4c57-8858-4d257047e66c" points="73.27 54.25 50.15 64.25 72.56 53.25 73.27 54.25"></polygon>
            </g>
          </g>
        </g>
        <path class="uuid-3a0106f2-8a71-425c-be44-7d839b549957" d="M64.12,83.07l-17.78,6.48c-1.26,.46-2.69-.26-3.18-1.61l-11.7-32.08c-.49-1.34,.14-2.82,1.4-3.28l17.77-6.48c1.26-.46,2.69,.27,3.18,1.61l11.69,32.08c.49,1.34-.14,2.82-1.4,3.28"></path>
        <rect class="uuid-659e735b-9413-4fa9-a74f-97b388ea3ee7" x="43.23" y="79.37" width="5.03" height="8.51" transform="translate(-25.89 20.75) rotate(-20.04)"></rect>
        <path class="uuid-b9e28f80-cf8b-4410-83b7-9ef44c9ff5c2" d="M42.47,53.32c.04,.11-.03,.23-.15,.27l-1.26,.46c-.12,.05-.25,0-.29-.11l-.21-.57c-.04-.11,.03-.23,.15-.27l1.26-.46c.12-.04,.25,0,.29,.11l.21,.57Zm-1.47,.54l1.26-.46-.21-.57-1.26,.46,.21,.57Z"></path>
        <path class="uuid-b9e28f80-cf8b-4410-83b7-9ef44c9ff5c2" d="M41.5,55.25l.44-.16c.06-.02,.12-.02,.14,.06,.03,.07-.01,.11-.07,.14l-.55,.2c-.08,.03-.13,0-.14-.06l-.28-.76s0-.11,.07-.14,.13,0,.14,.06l.1,.28,1.26-.46-.1-.29s0-.11,.07-.14c.08-.03,.13,0,.14,.06l.17,.48-1.47,.54,.07,.19Z"></path>
        <path class="uuid-b9e28f80-cf8b-4410-83b7-9ef44c9ff5c2" d="M41.8,56.08l.24,.67c.02,.05,0,.11-.07,.14-.08,.03-.13,0-.14-.06l-.31-.86,.71-.26c.16-.06,.27-.02,.33,.13l.2,.54,.52-.19-.24-.67s0-.11,.07-.14c.08-.03,.13,0,.14,.06l.24,.64c.02,.06,.03,.11,0,.18-.04,.07-.09,.1-.17,.13l-.45,.16c-.08,.03-.14,.04-.21,.01-.07-.03-.1-.07-.12-.13l-.2-.55-.52,.19Z"></path>
        <path class="uuid-b9e28f80-cf8b-4410-83b7-9ef44c9ff5c2" d="M43.53,56.92s0-.11,.07-.14c.08-.03,.13,0,.14,.06l.24,.67c.04,.11-.02,.23-.15,.27l-.42,.15c-.09,.03-.16,.04-.24,0-.04,.08-.1,.12-.18,.15l-.42,.15c-.12,.04-.25,0-.29-.11l-.24-.67s0-.11,.07-.14c.08-.03,.13,0,.14,.06l.24,.67,.36-.13c.12-.04,.14-.1,.12-.15l-.14-.38s0-.11,.07-.14c.08-.03,.13,0,.14,.06l.14,.38c.02,.05,.07,.08,.19,.04l.36-.13-.24-.67Z"></path>
        <path class="uuid-b9e28f80-cf8b-4410-83b7-9ef44c9ff5c2" d="M44.56,61.92l.63-.23c.05-.02,.12-.02,.14,.06,.03,.07-.02,.12-.07,.14l-.63,.23c.02,.05,0,.11-.07,.14-.08,.03-.13,0-.14-.06l-.44,.16c-.07,.03-.12,.01-.14-.06-.03-.07,0-.11,.07-.14l.44-.16-.21-.57,1.03-.38c.05-.02,.12-.02,.14,.06,.03,.07-.02,.12-.07,.14l-.81,.3,.14,.38Z"></path>
        <path class="uuid-b9e28f80-cf8b-4410-83b7-9ef44c9ff5c2" d="M45.15,62.97l.13,.36c.02,.06,.03,.11,0,.18-.04,.07-.09,.1-.16,.13l-.47,.17c-.07,.03-.12,.04-.19,.02-.08-.02-.11-.07-.13-.14l-.16-.43s-.01-.09,0-.14v-.09c.02-.06,.02-.13,.09-.16,.06-.02,.12,0,.14,.05,0,.02,0,.04,0,.07v.07s-.03,.09-.01,.12l.16,.45,.52-.19-.21-.57,.95-.35,.24,.67c.02,.05,0,.11-.07,.14-.08,.03-.13,0-.14-.06l-.17-.48-.52,.19Z"></path>
        <path class="uuid-b9e28f80-cf8b-4410-83b7-9ef44c9ff5c2" d="M45.4,64.24l.24,.65c.04,.1,0,.13-.1,.17l-.49,.18c-.1,.04-.15,.01-.18-.08l-.26-.7c-.03-.09,0-.14,.09-.18l1.45-.53s.11-.03,.14,.04l.04,.12s-.02,.11-.08,.13c-.06,.02-.12,0-.14-.06l-.7,.26Zm-.22,.08l-.34,.12,.21,.57,.34-.12-.21-.57Z"></path>
        <path class="uuid-b9e28f80-cf8b-4410-83b7-9ef44c9ff5c2" d="M46.62,65.37s-.12,0-.14-.06c-.02-.06,.03-.12,.07-.14l.11-.04s.12,0,.14,.06l.32,.86-.63,.23c-.08,.03-.08,.03-.16,0l-.36-.18c-.07-.03-.07-.03-.15,0l-.42,.15c-.07,.03-.12,.01-.14-.06s0-.11,.07-.14l.52-.19c.07-.03,.08-.03,.14,0l.36,.17c.09,.04,.08,.04,.18,0l.3-.11-.21-.57Z"></path>
        <path class="uuid-b9e28f80-cf8b-4410-83b7-9ef44c9ff5c2" d="M48.53,69.95c.02,.06-.02,.12-.07,.14l-.63,.23c.02,.06,.02,.12,0,.16-.02,.05-.07,.08-.14,.11l-.52,.19c-.13,.05-.25,0-.29-.11l-.21-.57c-.04-.12,.01-.22,.15-.27l.52-.19c.07-.02,.13-.03,.18,0,.05,.02,.09,.06,.11,.12l.63-.23c.06-.02,.12,0,.14,.06l.14,.38Zm-1.44,.63l.52-.19-.21-.57-.52,.19,.21,.57Zm.67-.46l.52-.19-.07-.18-.52,.19,.07,.18Z"></path>
        <path class="uuid-b9e28f80-cf8b-4410-83b7-9ef44c9ff5c2" d="M48.3,71.72l-.24-.67c-.02-.05,.02-.12,.07-.14l.56-.2c.06-.02,.12,0,.14,.06l.28,.76c.02,.05-.02,.12-.07,.14l-1.47,.54c-.06,.02-.12,0-.14-.06l-.04-.1c-.02-.06,.02-.11,.07-.14,.07-.02,.13,0,.14,.06l.7-.26Zm.22-.08l.34-.12-.21-.57-.34,.12,.21,.57Z"></path>
        <path class="uuid-b9e28f80-cf8b-4410-83b7-9ef44c9ff5c2" d="M49.58,72.83c.04,.11-.03,.23-.15,.27l-1.26,.46c-.12,.05-.25,0-.29-.11l-.21-.57c-.04-.11,.03-.23,.15-.27l1.26-.46c.12-.04,.25,0,.29,.11l.21,.57Zm-1.47,.54l1.26-.46-.21-.57-1.26,.46,.21,.57Z"></path>
        <path class="uuid-b9e28f80-cf8b-4410-83b7-9ef44c9ff5c2" d="M50.09,74.22c.04,.11-.03,.23-.15,.27l-1.26,.46c-.12,.05-.25,0-.29-.11l-.21-.57c-.04-.11,.03-.23,.15-.27l1.26-.46c.12-.04,.25,0,.29,.11l.21,.57Zm-1.47,.54l1.26-.46-.21-.57-1.26,.46,.21,.57Z"></path>
        <path class="uuid-b9e28f80-cf8b-4410-83b7-9ef44c9ff5c2" d="M51.62,78.4c.04,.11-.03,.23-.15,.27l-1.26,.46c-.12,.05-.25,0-.29-.11l-.21-.57c-.04-.11,.03-.23,.15-.27l1.26-.46c.12-.04,.25,0,.29,.11l.21,.57Zm-1.47,.54l1.26-.46-.21-.57-1.26,.46,.21,.57Z"></path>
        <path class="uuid-b9e28f80-cf8b-4410-83b7-9ef44c9ff5c2" d="M52.12,79.8c.04,.11-.03,.23-.15,.27l-1.26,.46c-.12,.04-.25,0-.29-.11l-.21-.57c-.04-.11,.03-.23,.15-.27l1.26-.46c.12-.04,.25,0,.29,.11l.21,.57Zm-1.47,.54l1.26-.46-.21-.57-1.26,.46,.21,.57Z"></path>
        <path class="uuid-b9e28f80-cf8b-4410-83b7-9ef44c9ff5c2" d="M52.63,81.19c.04,.11-.03,.23-.15,.27l-1.26,.46c-.12,.05-.25,0-.29-.11l-.21-.57c-.04-.11,.03-.23,.15-.27l1.26-.46c.12-.04,.25,0,.29,.11l.21,.57Zm-1.47,.54l1.26-.46-.21-.57-1.26,.46,.21,.57Z"></path>
        <path class="uuid-b9e28f80-cf8b-4410-83b7-9ef44c9ff5c2" d="M53.14,82.58c.04,.11-.03,.23-.15,.27l-1.26,.46c-.12,.05-.25,0-.29-.11l-.21-.57c-.04-.11,.03-.23,.15-.27l1.26-.46c.12-.04,.25,0,.29,.11l.21,.57Zm-1.47,.54l1.26-.46-.21-.57-1.26,.46,.21,.57Z"></path>
        <path class="uuid-2b2e93e6-fe9a-4dae-9d7b-3db390a4f4b1" d="M50.94,55.64c-1.51,.55-3.19-.24-3.75-1.77s.22-3.21,1.73-3.77c1.51-.55,3.19,.24,3.75,1.77,.56,1.53-.22,3.21-1.73,3.77"></path>
        <path class="uuid-8bc5e4ec-57dd-430b-a627-852eaf51982a" d="M86.31,69.75v30.85c0,1.33-1.09,2.42-2.42,2.42H34.79c-1.33,0-2.42-1.09-2.42-2.42v-30.85c0-1.33,1.09-2.42,2.42-2.42h49.09c1.33,0,2.42,1.09,2.42,2.42"></path>
        <g class="uuid-3a5b7139-26fe-4b5f-93aa-d9f8c8a8fded">
          <g class="uuid-0c68e3fc-ab32-4ae7-afd9-d009f98bc441">
            <g class="uuid-1544a9dd-3e3b-46b3-a818-53444e456ac1">
              <path class="uuid-8bc5e4ec-57dd-430b-a627-852eaf51982a" d="M36.2,67.33v35.7h-1.4c-1.33,0-2.42-1.09-2.42-2.42v-30.85c0-1.33,1.09-2.42,2.42-2.42h1.4Z"></path>
            </g>
          </g>
        </g>
        <path class="uuid-f180e90e-34a1-4237-97bd-5385b2d1c297" d="M82.35,69.6h-1.66c-.09,0-.16-.07-.16-.16s.07-.16,.16-.16h1.66c.09,0,.16,.07,.16,.16s-.07,.16-.16,.16m-2.98,0h-1.66c-.09,0-.16-.07-.16-.16s.07-.16,.16-.16h1.66c.09,0,.16,.07,.16,.16s-.07,.16-.16,.16m-2.98,0h-1.65c-.09,0-.16-.07-.16-.16s.07-.16,.16-.16h1.65c.09,0,.16,.07,.16,.16s-.07,.16-.16,.16m-2.98,0h-1.65c-.09,0-.16-.07-.16-.16s.07-.16,.16-.16h1.65c.09,0,.16,.07,.16,.16s-.07,.16-.16,.16m-2.98,0h-1.66c-.09,0-.16-.07-.16-.16s.07-.16,.16-.16h1.66c.09,0,.16,.07,.16,.16s-.07,.16-.16,.16m-2.98,0h-1.66c-.09,0-.16-.07-.16-.16s.07-.16,.16-.16h1.66c.09,0,.16,.07,.16,.16s-.07,.16-.16,.16m-2.98,0h-1.65c-.09,0-.16-.07-.16-.16s.07-.16,.16-.16h1.65c.09,0,.16,.07,.16,.16s-.07,.16-.16,.16m-2.98,0h-1.65c-.09,0-.16-.07-.16-.16s.07-.16,.16-.16h1.65c.09,0,.16,.07,.16,.16s-.07,.16-.16,.16m-2.98,0h-1.66c-.09,0-.16-.07-.16-.16s.07-.16,.16-.16h1.66c.09,0,.16,.07,.16,.16s-.07,.16-.16,.16m-2.98,0h-1.66c-.09,0-.16-.07-.16-.16s.07-.16,.16-.16h1.66c.09,0,.16,.07,.16,.16s-.07,.16-.16,.16m-2.98,0h-1.65c-.09,0-.16-.07-.16-.16s.07-.16,.16-.16h1.65c.09,0,.16,.07,.16,.16s-.07,.16-.16,.16m-2.98,0h-1.66c-.09,0-.16-.07-.16-.16s.07-.16,.16-.16h1.66c.09,0,.16,.07,.16,.16s-.07,.16-.16,.16m-2.98,0h-1.65c-.09,0-.16-.07-.16-.16s.07-.16,.16-.16h1.65c.09,0,.16,.07,.16,.16s-.07,.16-.16,.16m-2.98,0h-1.66c-.09,0-.16-.07-.16-.16s.07-.16,.16-.16h1.66c.09,0,.16,.07,.16,.16s-.07,.16-.16,.16m-2.98,0h-1.66c-.09,0-.16-.07-.16-.16s.07-.16,.16-.16h1.66c.09,0,.16,.07,.16,.16s-.07,.16-.16,.16m-2.98,0h-1.66c-.09,0-.16-.07-.16-.16s.07-.16,.16-.16h1.66c.09,0,.16,.07,.16,.16s-.07,.16-.16,.16m-2.98,0h-1.66c-.09,0-.16-.07-.16-.16s.07-.16,.16-.16h1.66c.09,0,.16,.07,.16,.16s-.07,.16-.16,.16"></path>
        <path class="uuid-f180e90e-34a1-4237-97bd-5385b2d1c297" d="M84.49,70.41c-.09,0-.16-.07-.16-.16v-.65h-.65c-.09,0-.16-.07-.16-.16s.07-.16,.16-.16h.81c.09,0,.16,.07,.16,.16v.81c0,.09-.07,.16-.16,.16"></path>
        <path class="uuid-f180e90e-34a1-4237-97bd-5385b2d1c297" d="M84.49,98.65c-.09,0-.16-.07-.16-.16v-1.57c0-.09,.07-.16,.16-.16s.16,.07,.16,.16v1.57c0,.09-.07,.16-.16,.16m0-2.82c-.09,0-.16-.07-.16-.16v-1.57c0-.09,.07-.16,.16-.16s.16,.07,.16,.16v1.57c0,.09-.07,.16-.16,.16m0-2.82c-.09,0-.16-.07-.16-.16v-1.57c0-.09,.07-.16,.16-.16s.16,.07,.16,.16v1.57c0,.09-.07,.16-.16,.16m0-2.82c-.09,0-.16-.07-.16-.16v-1.57c0-.09,.07-.16,.16-.16s.16,.07,.16,.16v1.57c0,.09-.07,.16-.16,.16m0-2.82c-.09,0-.16-.07-.16-.16v-1.57c0-.09,.07-.16,.16-.16s.16,.07,.16,.16v1.57c0,.09-.07,.16-.16,.16m0-2.82c-.09,0-.16-.07-.16-.16v-1.57c0-.09,.07-.16,.16-.16s.16,.07,.16,.16v1.57c0,.09-.07,.16-.16,.16m0-2.82c-.09,0-.16-.07-.16-.16v-1.57c0-.09,.07-.16,.16-.16s.16,.07,.16,.16v1.57c0,.09-.07,.16-.16,.16m0-2.82c-.09,0-.16-.07-.16-.16v-1.57c0-.09,.07-.16,.16-.16s.16,.07,.16,.16v1.57c0,.09-.07,.16-.16,.16m0-2.82c-.09,0-.16-.07-.16-.16v-1.57c0-.09,.07-.16,.16-.16s.16,.07,.16,.16v1.57c0,.09-.07,.16-.16,.16m0-2.82c-.09,0-.16-.07-.16-.16v-1.57c0-.09,.07-.16,.16-.16s.16,.07,.16,.16v1.57c0,.09-.07,.16-.16,.16"></path>
        <path class="uuid-f180e90e-34a1-4237-97bd-5385b2d1c297" d="M84.49,100.71h-.81c-.09,0-.16-.07-.16-.16s.07-.16,.16-.16h.65v-.65c0-.09,.07-.16,.16-.16s.16,.07,.16,.16v.81c0,.09-.07,.16-.16,.16"></path>
        <path class="uuid-f180e90e-34a1-4237-97bd-5385b2d1c297" d="M82.35,100.71h-1.66c-.09,0-.16-.07-.16-.16s.07-.16,.16-.16h1.66c.09,0,.16,.07,.16,.16s-.07,.16-.16,.16m-2.98,0h-1.66c-.09,0-.16-.07-.16-.16s.07-.16,.16-.16h1.66c.09,0,.16,.07,.16,.16s-.07,.16-.16,.16m-2.98,0h-1.65c-.09,0-.16-.07-.16-.16s.07-.16,.16-.16h1.65c.09,0,.16,.07,.16,.16s-.07,.16-.16,.16m-2.98,0h-1.65c-.09,0-.16-.07-.16-.16s.07-.16,.16-.16h1.65c.09,0,.16,.07,.16,.16s-.07,.16-.16,.16m-2.98,0h-1.66c-.09,0-.16-.07-.16-.16s.07-.16,.16-.16h1.66c.09,0,.16,.07,.16,.16s-.07,.16-.16,.16m-2.98,0h-1.66c-.09,0-.16-.07-.16-.16s.07-.16,.16-.16h1.66c.09,0,.16,.07,.16,.16s-.07,.16-.16,.16m-2.98,0h-1.65c-.09,0-.16-.07-.16-.16s.07-.16,.16-.16h1.65c.09,0,.16,.07,.16,.16s-.07,.16-.16,.16m-2.98,0h-1.65c-.09,0-.16-.07-.16-.16s.07-.16,.16-.16h1.65c.09,0,.16,.07,.16,.16s-.07,.16-.16,.16m-2.98,0h-1.66c-.09,0-.16-.07-.16-.16s.07-.16,.16-.16h1.66c.09,0,.16,.07,.16,.16s-.07,.16-.16,.16m-2.98,0h-1.66c-.09,0-.16-.07-.16-.16s.07-.16,.16-.16h1.66c.09,0,.16,.07,.16,.16s-.07,.16-.16,.16m-2.98,0h-1.65c-.09,0-.16-.07-.16-.16s.07-.16,.16-.16h1.65c.09,0,.16,.07,.16,.16s-.07,.16-.16,.16m-2.98,0h-1.66c-.09,0-.16-.07-.16-.16s.07-.16,.16-.16h1.66c.09,0,.16,.07,.16,.16s-.07,.16-.16,.16m-2.98,0h-1.66c-.09,0-.16-.07-.16-.16s.07-.16,.16-.16h1.66c.09,0,.16,.07,.16,.16s-.07,.16-.16,.16m-2.98,0h-1.66c-.09,0-.16-.07-.16-.16s.07-.16,.16-.16h1.66c.09,0,.16,.07,.16,.16s-.07,.16-.16,.16m-2.98,0h-1.66c-.09,0-.16-.07-.16-.16s.07-.16,.16-.16h1.66c.09,0,.16,.07,.16,.16s-.07,.16-.16,.16m-2.98,0h-1.66c-.09,0-.16-.07-.16-.16s.07-.16,.16-.16h1.66c.09,0,.16,.07,.16,.16s-.07,.16-.16,.16m-2.98,0h-1.66c-.09,0-.16-.07-.16-.16s.07-.16,.16-.16h1.66c.09,0,.16,.07,.16,.16s-.07,.16-.16,.16"></path>
        <g class="uuid-844d663e-efb1-417f-9589-efc43dbe944d">
          <g class="uuid-9394d958-2be4-4e1d-ac8c-ccd363ead4b8">
            <g class="uuid-a81ebc0d-507d-41d5-bb97-03b0c9a0e2fc">
              <path class="uuid-b12a23d2-7956-41f4-98c2-b28a07f3a346" d="M86.77,81.58v7.68h-.46v.48h-10.52c-2.22,0-4.04-1.82-4.04-4.04v-.09c0-.06,0-.13,0-.19v-.02c.11-2.13,1.88-3.83,4.03-3.83h10.98Z"></path>
            </g>
          </g>
        </g>
        <path class="uuid-b12a23d2-7956-41f4-98c2-b28a07f3a346" d="M86.77,81.09v8.16h-10.98c-2.15,0-3.93-1.71-4.03-3.83v-.02c0-.06,0-.13,0-.19v-.09c0-2.22,1.82-4.04,4.04-4.04h10.98Z"></path>
        <path class="uuid-f180e90e-34a1-4237-97bd-5385b2d1c297" d="M85.44,88.73h-1.58c-.09,0-.16-.07-.16-.16s.07-.16,.16-.16h1.58c.09,0,.16,.07,.16,.16s-.07,.16-.16,.16m-2.53,0h-1.58c-.09,0-.16-.07-.16-.16s.07-.16,.16-.16h1.58c.09,0,.16,.07,.16,.16s-.07,.16-.16,.16m-2.53,0h-1.58c-.09,0-.16-.07-.16-.16s.07-.16,.16-.16h1.58c.09,0,.16,.07,.16,.16s-.07,.16-.16,.16m-2.53,0h-1.58c-.09,0-.16-.07-.16-.16s.07-.16,.16-.16h1.58c.09,0,.16,.07,.16,.16s-.07,.16-.16,.16m-2.53-.08s-.02,0-.04,0c-.54-.12-1.05-.37-1.47-.73-.07-.06-.08-.16-.02-.23,.06-.07,.16-.08,.23-.02,.39,.32,.85,.55,1.34,.66,.09,.02,.14,.11,.12,.19-.02,.08-.08,.13-.16,.13m-2.04-1.4c-.05,0-.1-.03-.13-.07-.31-.46-.51-.99-.58-1.54-.01-.09,.05-.17,.14-.18,.09-.01,.17,.05,.18,.14,.06,.5,.24,.98,.53,1.4,.05,.07,.03,.18-.04,.22-.03,.02-.06,.03-.09,.03m-.55-2.41s-.02,0-.02,0c-.09-.01-.15-.09-.14-.18,.08-.55,.29-1.07,.61-1.53,.05-.07,.15-.09,.22-.04,.07,.05,.09,.15,.04,.22-.29,.41-.48,.89-.55,1.39-.01,.08-.08,.14-.16,.14m1.23-2.15s-.1-.02-.13-.06c-.06-.07-.05-.17,.02-.23,.43-.35,.95-.59,1.48-.7,.09-.02,.17,.04,.19,.13,.02,.09-.04,.17-.13,.19-.49,.1-.96,.32-1.35,.64-.03,.02-.07,.04-.1,.04m11.54-.74h-1.58c-.09,0-.16-.07-.16-.16s.07-.16,.16-.16h1.58c.09,0,.16,.07,.16,.16s-.07,.16-.16,.16m-2.53,0h-1.58c-.09,0-.16-.07-.16-.16s.07-.16,.16-.16h1.58c.09,0,.16,.07,.16,.16s-.07,.16-.16,.16m-2.53,0h-1.58c-.09,0-.16-.07-.16-.16s.07-.16,.16-.16h1.58c.09,0,.16,.07,.16,.16s-.07,.16-.16,.16m-2.53,0h-1.58c-.09,0-.16-.07-.16-.16s.07-.16,.16-.16h1.58c.09,0,.16,.07,.16,.16s-.07,.16-.16,.16"></path>
        <path class="uuid-29038d6f-5a6f-4320-8975-5803c7705729" d="M40.05,106.28h1.6c-.09,.12-.21,.2-.35,.25-.14,.05-.29,.08-.46,.08-.18,0-.34-.03-.49-.09-.15-.06-.25-.14-.3-.24"></path>
        <path class="uuid-29038d6f-5a6f-4320-8975-5803c7705729" d="M44.98,105.95l-1.8-.02c.09-.15,.21-.25,.36-.32,.15-.06,.33-.1,.54-.09,.23,0,.43,.04,.6,.12,.17,.08,.27,.18,.31,.31"></path>
        <path class="uuid-29038d6f-5a6f-4320-8975-5803c7705729" d="M47.94,105.17c-.77-.51-2.13-.89-3.78-1.06-.55-.05-1.14-.08-1.74-.08-.26,0-.52,0-.78,.02-.04,0-.08,0-.12,0-.36,.02-.71,.04-1.04,.08-.04,0-.08,0-.12,.02-.03,0-.05,0-.08,0-.05,0-.1,.02-.14,.02-.02,0-.05,.01-.08,.01-.05,0-.1,.01-.14,.02-.03,0-.05,0-.08,.01-.05,0-.1,.01-.15,.02-.03,0-.05,0-.08,.01-.05,0-.1,.02-.15,.03-.02,0-.05,.01-.08,.01-.05,.01-.1,.02-.15,.03-.03,0-.05,.01-.08,.02-.05,.01-.1,.02-.14,.03-.03,0-.05,.01-.08,.02,0,0,0,0,0,0-.05,0-.09,.02-.14,.03-.03,0-.05,.01-.08,.02-.05,.01-.1,.03-.14,.04-.03,0-.05,.02-.08,.02-.05,.02-.1,.03-.15,.04-.03,0-.05,.02-.08,.03-.05,.02-.1,.03-.15,.05-.02,0-.05,.02-.08,.03-.05,.02-.1,.03-.14,.05-.03,0-.05,.02-.08,.03-.05,.02-.1,.04-.14,.06-.03,.01-.05,.02-.08,.03-.05,.02-.1,.04-.14,.06-.03,.01-.05,.02-.08,.03-.05,.03-.1,.05-.14,.07-.03,.01-.05,.03-.08,.04-.05,.03-.1,.06-.15,.08-.03,.02-.05,.03-.08,.05-.05,.03-.1,.07-.14,.1-.03,.02-.05,.04-.08,.06-.05,.04-.1,.09-.14,.13-.03,.03-.05,.05-.08,.08-.06,.07-.11,.13-.15,.2-.03,.06-.06,.12-.08,.18-.02,.07-.03,.14-.03,.22,0,.03,0,.07,0,.1h0s0,.04,.01,.05c0,.02,0,.04,.01,.06,0,.02,.02,.04,.02,.06,0,.02,.02,.04,.02,.06,0,.02,.02,.04,.03,.07,.02,.03,.04,.06,.06,.09,.02,.03,.03,.05,.05,.07,.02,.02,.04,.05,.06,.07,0,0,0,0,.01,.01,0,.01,.02,.02,.03,.03,.02,.03,.05,.05,.08,.08,.02,.01,.03,.03,.05,.04h0s.02,.02,.02,.02c0,0,.02,.01,.02,.02,.01,.01,.03,.02,.04,.03,.01,0,.02,.02,.04,.03,.01,.01,.03,.02,.05,.03,.03,.02,.05,.03,.08,.05h0s.02,.01,.02,.02c.05,.03,.09,.06,.14,.09,.02,.01,.05,.03,.07,.04,.04,.02,.08,.04,.12,.06,.03,.02,.05,.03,.08,.04h0s.07,.04,.11,.05c.02,.01,.05,.02,.07,.03h0s.03,.02,.05,.02h0s.08,.03,.12,.05c.01,0,.02,.01,.03,.01,.01,0,.03,.01,.04,.02h0s.02,0,.03,.01c0,0,.01,0,.02,0,.02,0,.03,.01,.05,.02,.04,.02,.08,.03,.13,.05,.02,0,.05,.02,.08,.02,.03,.01,.05,.02,.08,.03,.08,.03,.16,.05,.24,.07,.05,.02,.1,.03,.15,.05h0s.06,.02,.09,.02c.08,.02,.16,.04,.24,.06,.12,.03,.25,.05,.38,.08,.08,.02,.16,.03,.25,.05,.11,.02,.21,.04,.32,.05,.1,.02,.2,.03,.3,.04h0s.1,.02,.15,.02c.03,0,.06,0,.1,.01,.11,.02,.22,.03,.34,.04,.07,0,.14,.01,.22,.02,.02,0,.05,0,.07,0,.06,0,.12,.01,.18,.02,.02,0,.04,0,.06,0,.05,0,.1,0,.14,0,.09,0,.18,.01,.27,.02h.01c.06,0,.13,0,.19,0,.02,0,.03,0,.05,0,.08,0,.17,0,.25,0,.08,0,.17,0,.25,0,.06,0,.13,0,.19,0,.04,0,.08,0,.12,0,.06,0,.13,0,.2,0,.02,0,.03,0,.05,0,.06,0,.13,0,.2,0,.08,0,.16,0,.24-.01,.06,0,.12,0,.18-.01,.08,0,.17-.01,.25-.02,.05,0,.1,0,.15-.01,.05,0,.1,0,.14-.01,.01,0,.02,0,.03,0,.04,0,.07,0,.11-.01,.04,0,.07,0,.11-.01,.03,0,.06,0,.09-.01,.07,0,.14-.02,.21-.03,0,0,.02,0,.02,0h0c.09-.01,.19-.03,.28-.04,.09-.01,.18-.03,.27-.04h0s.03,0,.04,0h.03s.09-.02,.14-.03c.04,0,.09-.02,.13-.03,.02,0,.03,0,.05,0,.1-.02,.19-.04,.28-.06,.04,0,.08-.02,.11-.03,.04,0,.09-.02,.13-.03,.01,0,.02,0,.03,0,0,0,0,0,.01,0,.02,0,.05-.02,.07-.02,.05-.01,.09-.02,.14-.04,0,0,0,0,.01,0,0,0,0,0,.01,0h0s.05-.02,.08-.02c.01,0,.02,0,.03-.01,0,0,.01,0,.02,0,.03-.01,.05-.02,.08-.03,.02,0,.04-.01,.06-.02,.02,0,.04-.01,.05-.02,.02,0,.05-.02,.07-.03,.02,0,.03,0,.04-.01,.05-.02,.09-.03,.13-.05,0,0,0,0,.01,0,.01,0,.03-.01,.04-.02,.02,0,.03,0,.04-.02,.02,0,.05-.02,.07-.03,.03-.01,.07-.03,.1-.04,.01,0,.02,0,.03-.01,0,0,.02,0,.02,0,.05-.02,.09-.04,.13-.06,.02,0,.04-.02,.05-.03,.03-.02,.07-.03,.1-.05,.04-.02,.08-.04,.12-.07,.01,0,.03-.01,.04-.02,.05-.03,.1-.06,.14-.09,0,0,0,0,0,0,.03-.02,.05-.03,.08-.05,0,0,.02-.01,.02-.02,.03-.02,.05-.03,.07-.05,.02-.01,.03-.02,.05-.04,0,0,0,0,.01-.01,0,0,.01,0,.01,0,.02-.01,.04-.03,.05-.05,.03-.03,.06-.06,.1-.09,.03-.03,.06-.06,.08-.1,.02-.02,.03-.04,.05-.06,.07-.1,.12-.2,.15-.3,0,0,0,0,0,0,0,0,0-.01,0-.02s0,0,0,0c0-.01,0-.03,0-.04,0-.02,0-.04,0-.06h0s0-.04,0-.07c0-.35-.25-.67-.69-.96"></path>
        <path class="uuid-bf5a7167-4def-4d49-8044-e5cf39310a41" d="M48.63,106.13v2.84c0,.06,0,.12-.03,.18-.05,.21-.2,.42-.42,.6,0,0,0,0,0,0-.07,.06-.16,.12-.25,.18-.1,.06-.21,.13-.32,.19-.02,.01-.03,.02-.05,.03-.02,.01-.05,.02-.08,.04-.04,.02-.08,.04-.11,.05h0s0,0,0,0c0,0-.02,0-.03,.01,0,0-.01,0-.02,0-.02,.01-.04,.02-.06,.03-.05,.02-.1,.04-.14,.06-.01,0-.03,.01-.04,.02-.01,0-.02,.01-.04,.02-.05,.02-.1,.03-.14,.05-.03,0-.05,.02-.08,.03-.05,.02-.1,.03-.14,.05-.03,0-.05,.02-.08,.03-.04,.01-.09,.03-.13,.04,0,0,0,0-.01,0-.03,0-.05,.02-.08,.02-.05,.01-.1,.03-.14,.04,0,0,0,0-.01,0-.02,0-.05,.01-.07,.02-.05,.01-.1,.02-.14,.04-.03,0-.05,.01-.08,.02-.05,.01-.1,.02-.14,.03-.03,0-.05,.01-.08,.02-.03,0-.07,.02-.1,.02-.01,0-.03,0-.04,0,0,0-.02,0-.03,0-.05,.01-.1,.02-.16,.03,0,0-.02,0-.02,0-.08,.02-.16,.03-.24,.04-.13,.02-.25,.04-.38,.05-.08,.01-.16,.02-.25,.03-.1,.01-.2,.02-.3,.03-.11,.01-.21,.02-.32,.03-.08,0-.16,.01-.25,.02-.2,.02-.41,.02-.62,.03-.08,0-.16,0-.25,0-.02,0-.05,0-.08,0-.08,0-.15,0-.24,0-.1,0-.21,0-.31,0-.08,0-.17,0-.25,0-.21,0-.42-.02-.62-.03-.08,0-.17,0-.25-.02-.21-.02-.42-.04-.62-.06-.08,0-.17-.02-.25-.03-.21-.03-.42-.06-.62-.1-.08-.02-.16-.03-.25-.05-.21-.04-.42-.09-.62-.14-.08-.02-.17-.04-.25-.07-.22-.06-.43-.13-.62-.21-.09-.03-.17-.06-.25-.1-.24-.1-.44-.21-.62-.32-.09-.06-.18-.12-.25-.18-.29-.25-.46-.51-.46-.8v-2.84s0,.07,0,.11c0,.02,0,.03,.01,.05,0,.04,.02,.08,.04,.12,0,.02,.01,.04,.02,.06,0,.02,.02,.05,.03,.07,.02,.03,.04,.06,.06,.09,.04,.05,.07,.1,.11,.14,.01,.02,.03,.03,.04,.04,.04,.04,.08,.08,.13,.11,.02,.01,.03,.03,.05,.04,.03,.02,.05,.04,.08,.06,.04,.03,.08,.06,.12,.09,0,0,.02,0,.02,.01,.04,.03,.09,.06,.14,.09,.02,.01,.05,.03,.07,.04,.04,.02,.08,.04,.12,.06,.03,.02,.05,.03,.08,.04,.04,.02,.07,.03,.11,.05,.02,.01,.05,.02,.07,.03,.01,0,.03,.02,.05,.02,.04,.02,.08,.03,.12,.05,.03,.01,.05,.02,.08,.03,.02,0,.03,.01,.05,.02,.06,.02,.11,.04,.17,.06,.05,.02,.11,.03,.16,.05,.08,.02,.16,.05,.24,.07,.05,.02,.1,.03,.15,.05h0s.06,.02,.09,.02c.2,.05,.4,.1,.62,.14,.08,.02,.16,.03,.25,.05,.2,.04,.41,.07,.62,.1,0,0,0,0,0,0,.05,0,.1,.01,.14,.02,.03,0,.06,0,.1,.01,.11,.02,.22,.03,.34,.04,.07,0,.14,.02,.22,.02,.02,0,.05,0,.07,0,.08,0,.16,.01,.25,.02,.14,.01,.28,.02,.43,.02,.06,0,.13,0,.19,0,.02,0,.03,0,.05,0,.06,0,.13,0,.19,0h.06c.08,0,.17,0,.25,0,.06,0,.13,0,.19,0,.04,0,.08,0,.12,0,.08,0,.17,0,.25,0,.07,0,.13,0,.2,0,.14,0,.28-.01,.42-.02,.08,0,.17-.01,.25-.02,.1,0,.19-.02,.29-.03,.01,0,.02,0,.03,0,.04,0,.07,0,.11,0,.03,0,.07-.01,.1-.01,.03,0,.06,0,.09-.01,.07,0,.14-.02,.22-.03,.01,0,.02,0,.03,0,.19-.03,.37-.05,.54-.09h0s.05,0,.07-.01c0,0,.01,0,.02,0,.08-.02,.15-.03,.22-.04,.02,0,.04,0,.06-.01,.1-.02,.19-.04,.28-.06,.07-.02,.14-.03,.21-.05h0s.04,0,.06-.02c0,0,0,0,.01,0,.05-.01,.1-.03,.14-.04,.03,0,.05-.01,.08-.02,0,0,0,0,.01,0,.03,0,.06-.02,.08-.02,.02,0,.03,0,.05-.02,.03,0,.05-.02,.08-.02,.02,0,.04-.01,.06-.02,.03,0,.06-.02,.09-.03,.03,0,.05-.02,.08-.03,.05-.01,.09-.03,.13-.05,0,0,0,0,.01,0,.01,0,.02,0,.04-.01,.02,0,.03-.01,.04-.02,.05-.02,.1-.04,.14-.06,.02,0,.04-.02,.06-.02,0,0,.01,0,.02,0,.05-.02,.09-.04,.13-.06,0,0,0,0,.01,0,.03-.01,.05-.02,.08-.04,.02-.01,.04-.02,.06-.03,.03-.02,.06-.03,.08-.05,.03-.01,.05-.03,.08-.04,.05-.03,.1-.06,.14-.09,0,0,0,0,0,0,.03-.02,.05-.04,.08-.05,0,0,.02-.01,.03-.02,.03-.02,.05-.03,.07-.05,.02,0,.03-.02,.05-.04,0,0,.02-.02,.03-.02,.02-.01,.04-.03,.05-.04,.07-.06,.13-.12,.18-.19,.02-.02,.03-.04,.05-.06,.07-.1,.12-.2,.15-.3,0,0,0-.01,0-.02,0,0,0-.01,0-.02,0-.01,0-.03,0-.04,0-.02,0-.04,0-.06,0-.02,0-.04,0-.07"></path>
        <path class="uuid-d15bce3d-9ba4-4c98-9d25-405926dd613d" d="M42.45,104.33c-2.87,0-5.84,.66-5.84,1.77s2.97,1.78,5.84,1.78,5.84-.66,5.84-1.78-2.97-1.77-5.84-1.77m0,3.29c-3.32,0-5.55-.78-5.55-1.52s2.23-1.51,5.55-1.51,5.55,.78,5.55,1.51-2.23,1.52-5.55,1.52"></path>
        <path class="uuid-d15bce3d-9ba4-4c98-9d25-405926dd613d" d="M36.9,107.11v2.84c-.09-.06-.18-.12-.25-.18v-2.83s.03,.03,.05,.04c.03,.02,.05,.04,.08,.06,.04,.03,.08,.06,.12,.09"></path>
        <path class="uuid-d15bce3d-9ba4-4c98-9d25-405926dd613d" d="M37.77,107.53v2.83c-.09-.03-.17-.06-.25-.1v-2.84s.03,.02,.05,.02c.04,.02,.08,.03,.12,.05,.03,.01,.05,.02,.08,.03"></path>
        <path class="uuid-d15bce3d-9ba4-4c98-9d25-405926dd613d" d="M38.64,107.81v2.83c-.08-.02-.17-.04-.25-.07v-2.83c.05,.02,.1,.03,.16,.05h0s.06,.01,.09,.02"></path>
        <path class="uuid-d15bce3d-9ba4-4c98-9d25-405926dd613d" d="M39.5,108v2.84c-.08-.02-.16-.03-.25-.05v-2.84c.08,.02,.16,.03,.25,.05"></path>
        <path class="uuid-d15bce3d-9ba4-4c98-9d25-405926dd613d" d="M40.37,108.12v2.84c-.08,0-.17-.02-.25-.03v-2.84h0s.1,.01,.14,.02c.03,0,.06,0,.1,.01"></path>
        <path class="uuid-d15bce3d-9ba4-4c98-9d25-405926dd613d" d="M41.23,108.2v2.84c-.08,0-.16,0-.25-.02v-2.84c.08,0,.16,.01,.25,.02"></path>
        <path class="uuid-d15bce3d-9ba4-4c98-9d25-405926dd613d" d="M42.1,108.24v2.84c-.08,0-.17,0-.25,0v-2.84s.04,0,.06,0c.06,0,.13,0,.19,0"></path>
        <path class="uuid-d15bce3d-9ba4-4c98-9d25-405926dd613d" d="M42.97,108.23v2.83c-.08,0-.16,0-.25,0v-2.84c.08,0,.17,0,.25,0"></path>
        <path class="uuid-d15bce3d-9ba4-4c98-9d25-405926dd613d" d="M43.84,108.18v2.84c-.08,0-.16,.01-.25,.02v-2.84c.08,0,.16-.01,.25-.02"></path>
        <path class="uuid-d15bce3d-9ba4-4c98-9d25-405926dd613d" d="M44.7,108.09v2.83c-.08,.01-.16,.02-.25,.03v-2.84c.07,0,.14-.02,.22-.03,0,0,.02,0,.03,0"></path>
        <path class="uuid-d15bce3d-9ba4-4c98-9d25-405926dd613d" d="M45.57,107.95v2.83s-.03,0-.04,0c0,0-.02,0-.03,0-.05,.01-.1,.02-.16,.03,0,0-.01,0-.02,0v-2.84s.01,0,.02,0c.08-.01,.15-.03,.22-.04"></path>
        <path class="uuid-d15bce3d-9ba4-4c98-9d25-405926dd613d" d="M46.44,107.74v2.84s0,0-.01,0c-.03,0-.05,.02-.08,.02-.05,.02-.1,.03-.14,.04,0,0,0,0-.01,0v-2.83s.01,0,.01,0c.05-.01,.1-.03,.14-.04,.03,0,.05-.02,.08-.02,0,0,0,0,.01,0"></path>
        <path class="uuid-d15bce3d-9ba4-4c98-9d25-405926dd613d" d="M47.3,107.43v2.84s-.04,.02-.06,.03c-.05,.02-.1,.04-.15,.06-.01,0-.03,0-.04,.02v-2.84s.03-.01,.04-.02c.05-.02,.1-.04,.15-.06,.02,0,.04-.02,.06-.02"></path>
        <path class="uuid-d15bce3d-9ba4-4c98-9d25-405926dd613d" d="M48.17,106.92v2.84c-.07,.06-.16,.12-.25,.18v-2.84s.05-.03,.08-.05c0,0,.02-.01,.03-.02,.03-.02,.05-.03,.07-.05,.02-.01,.03-.02,.05-.04,0,0,.02-.02,.03-.02"></path>
        <path class="uuid-29038d6f-5a6f-4320-8975-5803c7705729" d="M54.87,111.27s0,.04,0,.07c0,.02,0,.04,0,.06,0,.01,0,.03,0,.04,0,.01,0,.02,0,.03-.03,.1-.08,.2-.15,.3-.02,.02-.03,.04-.05,.06-.08,.1-.18,.2-.3,.29-.02,.02-.05,.04-.07,.05-.12,.09-.26,.17-.42,.25-.05,.03-.1,.05-.15,.08-.14,.06-.29,.13-.45,.19-.1,.03-.2,.07-.3,.1-.06,.02-.13,.04-.19,.06-.19,.06-.39,.11-.6,.16-.21,.05-.44,.09-.67,.13h0c-.19,.03-.38,.06-.58,.09-.1,.01-.2,.03-.3,.04-.04,0-.07,0-.11,.01-.03,0-.07,0-.1,.01-.01,0-.02,0-.03,0-.31,.03-.63,.05-.96,.06-.25,.01-.5,.02-.76,.02-.08,0-.17,0-.25,0-.08,0-.17,0-.25,0-.08,0-.17,0-.25,0-.25-.01-.5-.03-.74-.05-.07,0-.14-.01-.22-.02-.15-.01-.29-.03-.43-.05-.05,0-.1-.01-.14-.02-.57-.07-1.11-.18-1.58-.3h0c-.14-.04-.27-.08-.39-.12-.05-.02-.11-.03-.16-.05-.06-.02-.12-.04-.18-.06-.04-.02-.08-.03-.12-.05-.04-.02-.08-.03-.12-.05-.04-.02-.08-.03-.12-.05-.04-.02-.07-.03-.11-.05-.03-.01-.05-.03-.08-.04-.04-.02-.08-.04-.12-.06-.02-.02-.05-.03-.07-.04-.05-.03-.09-.06-.14-.09-.05-.03-.1-.06-.14-.1-.03-.02-.05-.04-.08-.06-.06-.05-.12-.1-.18-.15-.01-.01-.03-.03-.04-.04-.04-.05-.08-.09-.12-.14-.02-.03-.04-.06-.06-.09-.01-.02-.02-.04-.03-.07-.01-.02-.02-.04-.02-.06-.02-.04-.03-.08-.04-.12,0-.02,0-.03-.01-.05,0-.03,0-.07,0-.11,0-.07,.01-.14,.03-.21,.02-.06,.05-.12,.08-.18,.04-.07,.09-.14,.14-.2,.03-.03,.05-.06,.08-.08,.05-.04,.09-.09,.14-.13,.03-.02,.05-.04,.08-.06,.05-.03,.1-.07,.14-.1,.03-.02,.05-.03,.08-.05,.05-.03,.1-.06,.14-.08,.03-.01,.05-.03,.08-.04,.05-.03,.1-.05,.14-.07,.02-.01,.05-.02,.08-.03,.05-.02,.1-.04,.14-.07,.03,0,.05-.02,.08-.03,.05-.02,.1-.04,.14-.05,.03,0,.05-.02,.08-.03,.05-.02,.1-.03,.14-.05,.03,0,.05-.02,.08-.03,.05-.02,.1-.03,.15-.05,.03-.01,.05-.02,.08-.03,.05-.02,.1-.03,.14-.04,.03,0,.05-.01,.08-.02,.05-.01,.1-.02,.15-.04,.02,0,.05-.01,.08-.02,.05-.01,.09-.02,.14-.03,0,0,0,0,0,0,.03,0,.05-.01,.08-.02,.05-.01,.1-.02,.15-.03,.03,0,.05-.01,.08-.02,.05-.01,.1-.02,.14-.03,.03,0,.05,0,.08-.01,.05,0,.1-.02,.14-.03,.03,0,.05-.01,.08-.01,.05-.01,.1-.02,.15-.02,.03,0,.05,0,.08-.01,.05,0,.1-.02,.15-.02,.03,0,.05,0,.08-.01,.05,0,.1-.01,.14-.02,.03,0,.05,0,.08,0,.04,0,.08,0,.12-.01,.34-.04,.68-.06,1.04-.08,.04,0,.08,0,.12,0,.25-.01,.51-.02,.77-.02,.61,0,1.19,.03,1.75,.08,1.65,.16,3.01,.55,3.78,1.06,.44,.29,.69,.62,.69,.96"></path>
        <path class="uuid-bf5a7167-4def-4d49-8044-e5cf39310a41" d="M54.87,111.27v2.84c0,.06,0,.12-.03,.18-.05,.21-.2,.42-.42,.61,0,0,0,0,0,0-.07,.06-.16,.12-.25,.18-.1,.06-.21,.13-.32,.19-.02,.01-.03,.02-.05,.03-.02,.01-.05,.02-.08,.04-.04,.02-.08,.04-.11,.05h0s0,0,0,0c0,0-.02,0-.03,.01,0,0-.01,0-.02,0-.02,.01-.04,.02-.06,.03-.05,.02-.1,.04-.14,.06-.01,0-.03,.01-.04,.02-.01,0-.02,.01-.04,.01-.05,.02-.1,.03-.14,.05-.03,.01-.05,.02-.08,.03-.05,.02-.1,.03-.14,.05-.03,0-.05,.02-.08,.03-.04,.01-.09,.03-.13,.04,0,0,0,0-.01,0-.03,0-.05,.02-.08,.02-.05,.02-.1,.03-.14,.04,0,0,0,0-.01,0-.02,0-.05,.01-.07,.02-.05,.01-.1,.02-.14,.04-.03,0-.05,.01-.08,.02-.05,.01-.1,.02-.14,.03-.03,0-.05,.01-.08,.02-.03,0-.07,.02-.1,.02-.01,0-.03,0-.04,0,0,0-.02,0-.03,0-.05,.01-.1,.02-.16,.03,0,0-.02,0-.02,0-.08,.02-.16,.03-.24,.04-.13,.02-.25,.04-.38,.05-.08,.01-.16,.02-.25,.03-.1,.01-.2,.02-.3,.03-.11,.01-.21,.02-.32,.03-.08,0-.16,.01-.25,.02-.2,.01-.41,.02-.62,.03-.08,0-.16,0-.25,0-.02,0-.05,0-.08,0-.08,0-.15,0-.24,0-.1,0-.21,0-.31,0-.08,0-.17,0-.25,0-.21,0-.42-.02-.62-.03-.08,0-.17,0-.25-.02-.21-.02-.42-.04-.62-.06-.08,0-.17-.02-.25-.03-.21-.03-.42-.06-.62-.1-.08-.02-.16-.03-.25-.05-.21-.04-.42-.09-.62-.14-.08-.02-.17-.04-.25-.07-.22-.06-.43-.13-.62-.21-.09-.03-.17-.06-.25-.1-.24-.1-.44-.21-.62-.32-.09-.06-.18-.12-.25-.18-.29-.25-.46-.51-.46-.79v-2.84s0,.07,0,.11c0,.02,0,.03,.01,.05,0,.04,.02,.08,.04,.12,0,.02,.01,.04,.02,.06,0,.02,.02,.05,.03,.07,.02,.03,.04,.06,.06,.09,.04,.05,.07,.1,.11,.14,.01,.02,.03,.03,.04,.04,.04,.04,.08,.08,.13,.11,.02,.01,.03,.03,.05,.04,.03,.02,.05,.04,.08,.06,.04,.03,.08,.06,.12,.08,0,0,.02,0,.02,.01,.04,.03,.09,.06,.14,.09,.02,.01,.05,.02,.07,.04,.04,.02,.08,.04,.12,.06,.03,.02,.05,.03,.08,.04,.04,.02,.07,.03,.11,.05,.02,.01,.05,.02,.07,.03,.01,0,.03,.02,.05,.02,.04,.02,.08,.03,.12,.05,.03,.01,.05,.02,.08,.03,.02,0,.03,.01,.05,.02,.06,.02,.11,.04,.17,.06,.05,.02,.11,.04,.16,.05,.08,.02,.16,.05,.24,.07,.05,.02,.1,.03,.15,.05h0s.06,.02,.09,.02c.2,.05,.4,.1,.62,.14,.08,.02,.16,.03,.25,.05,.2,.03,.41,.07,.62,.09,0,0,0,0,0,0,.05,0,.1,.01,.14,.02,.03,0,.06,0,.1,.01,.11,.01,.22,.02,.34,.03,.07,0,.14,.02,.22,.02,.02,0,.05,0,.07,0,.08,0,.16,.01,.25,.02,.14,.01,.28,.02,.43,.02,.06,0,.13,0,.19,0,.02,0,.03,0,.05,0,.06,0,.13,0,.19,0h.06c.08,0,.17,0,.25,0,.06,0,.13,0,.19,0,.04,0,.08,0,.12,0,.08,0,.17,0,.25,0,.07,0,.13,0,.2,0,.14,0,.28-.01,.42-.02,.08,0,.17-.01,.25-.02,.1,0,.19-.02,.29-.03,.01,0,.02,0,.03,0,.03,0,.07,0,.11,0,.03,0,.07-.01,.1-.01,.03,0,.06,0,.09-.01,.07,0,.14-.02,.22-.03,.01,0,.02,0,.03,0,.19-.03,.37-.05,.54-.09h0s.05,0,.07-.01c0,0,.01,0,.02,0,.08-.02,.15-.03,.22-.04,.02,0,.04,0,.06-.01,.1-.02,.19-.04,.28-.06,.07-.02,.14-.03,.21-.05h0s.04,0,.06-.02c0,0,0,0,.01,0,.05-.02,.1-.03,.14-.04,.03,0,.05-.02,.08-.02,0,0,0,0,.01,0,.03,0,.06-.02,.08-.02,.02,0,.03,0,.05-.02,.03,0,.05-.02,.08-.02,.02,0,.04-.01,.06-.02,.03,0,.06-.02,.09-.03,.03,0,.05-.02,.08-.03,.05-.01,.09-.03,.13-.05,0,0,0,0,.01,0,.01,0,.02,0,.04-.01,.02,0,.03-.01,.04-.02,.05-.02,.1-.04,.14-.06,.02,0,.04-.02,.06-.02,0,0,.02,0,.02,0,.05-.02,.09-.04,.13-.06,0,0,0,0,.01,0,.03-.01,.05-.02,.08-.04,.02-.01,.04-.02,.06-.03,.03-.02,.06-.03,.08-.04,.03-.01,.05-.03,.08-.04,.05-.03,.1-.06,.14-.09,0,0,0,0,0,0,.03-.02,.05-.04,.08-.05,0,0,.02-.01,.03-.02,.03-.02,.05-.03,.07-.05,.02,0,.03-.02,.05-.04,0,0,.02-.02,.03-.02,.02-.01,.04-.03,.05-.04,.07-.06,.13-.12,.18-.19,.02-.02,.03-.04,.05-.06,.07-.1,.12-.2,.15-.3,0,0,0-.01,0-.02,0,0,0-.01,0-.02,0-.01,0-.03,0-.04,0-.02,0-.04,0-.06,0-.02,0-.04,0-.07"></path>
        <path class="uuid-d15bce3d-9ba4-4c98-9d25-405926dd613d" d="M48.69,113.01c-2.87,0-5.84-.66-5.84-1.77s2.97-1.78,5.84-1.78,5.84,.66,5.84,1.78-2.97,1.77-5.84,1.77m0-3.29c-3.32,0-5.55,.78-5.55,1.51s2.23,1.51,5.55,1.51,5.55-.78,5.55-1.51-2.23-1.51-5.55-1.51"></path>
        <path class="uuid-d15bce3d-9ba4-4c98-9d25-405926dd613d" d="M43.15,112.24v2.84c-.09-.06-.18-.12-.25-.18v-2.83s.03,.03,.05,.04c.03,.02,.05,.04,.08,.06,.04,.03,.08,.06,.12,.09"></path>
        <path class="uuid-d15bce3d-9ba4-4c98-9d25-405926dd613d" d="M44.01,112.67v2.83c-.09-.03-.17-.06-.25-.1v-2.84s.03,.02,.05,.02c.04,.02,.08,.03,.12,.05,.03,.01,.05,.02,.08,.03"></path>
        <path class="uuid-d15bce3d-9ba4-4c98-9d25-405926dd613d" d="M44.88,112.94v2.83c-.08-.02-.17-.04-.25-.07v-2.83c.05,.02,.1,.03,.16,.05h0s.06,.02,.09,.02"></path>
        <path class="uuid-d15bce3d-9ba4-4c98-9d25-405926dd613d" d="M45.75,113.13v2.84c-.08-.02-.16-.03-.25-.05v-2.84c.08,.02,.16,.03,.25,.05"></path>
        <path class="uuid-d15bce3d-9ba4-4c98-9d25-405926dd613d" d="M46.61,113.26v2.84c-.08,0-.17-.02-.25-.03v-2.84h0s.1,.02,.14,.02c.03,0,.06,0,.1,.01"></path>
        <path class="uuid-d15bce3d-9ba4-4c98-9d25-405926dd613d" d="M47.48,113.33v2.84c-.08,0-.16,0-.25-.02v-2.84c.08,0,.16,.01,.25,.02"></path>
        <path class="uuid-d15bce3d-9ba4-4c98-9d25-405926dd613d" d="M48.35,113.37v2.84c-.08,0-.17,0-.25,0v-2.84s.04,0,.06,0c.06,0,.13,0,.19,0"></path>
        <path class="uuid-d15bce3d-9ba4-4c98-9d25-405926dd613d" d="M49.22,113.36v2.83c-.08,0-.16,0-.25,0v-2.84c.08,0,.17,0,.25,0"></path>
        <path class="uuid-d15bce3d-9ba4-4c98-9d25-405926dd613d" d="M50.08,113.32v2.84c-.08,0-.16,.01-.25,.02v-2.84c.08,0,.16,0,.25-.02"></path>
        <path class="uuid-d15bce3d-9ba4-4c98-9d25-405926dd613d" d="M50.95,113.23v2.83c-.08,.01-.16,.02-.25,.03v-2.84c.07,0,.14-.02,.22-.03,0,0,.02,0,.03,0"></path>
        <path class="uuid-d15bce3d-9ba4-4c98-9d25-405926dd613d" d="M51.81,113.08v2.83s-.03,0-.04,0c0,0-.02,0-.03,0-.05,.01-.1,.02-.16,.03,0,0-.01,0-.02,0v-2.84s.01,0,.02,0c.08-.01,.15-.03,.22-.04"></path>
        <path class="uuid-d15bce3d-9ba4-4c98-9d25-405926dd613d" d="M52.68,112.87v2.84s0,0-.01,0c-.03,0-.05,.02-.08,.02-.05,.02-.1,.03-.15,.04,0,0,0,0-.01,0v-2.83s.01,0,.01,0c.05-.01,.1-.03,.15-.04,.03,0,.05-.02,.08-.02,0,0,0,0,.01,0"></path>
        <path class="uuid-d15bce3d-9ba4-4c98-9d25-405926dd613d" d="M53.55,112.57v2.84s-.04,.02-.06,.03c-.05,.02-.1,.04-.15,.06-.01,0-.03,0-.04,.02v-2.84s.03-.01,.04-.02c.05-.02,.1-.04,.15-.06,.02,0,.04-.02,.06-.02"></path>
        <path class="uuid-d15bce3d-9ba4-4c98-9d25-405926dd613d" d="M54.42,112.06v2.84c-.07,.06-.16,.12-.25,.18v-2.84s.05-.03,.08-.05c0,0,.02-.01,.03-.02,.03-.02,.05-.03,.07-.05,.02-.01,.03-.02,.05-.04,0,0,.02-.02,.03-.02"></path>
        <path class="uuid-29038d6f-5a6f-4320-8975-5803c7705729" d="M65.45,101.69s0,.05,0,.07c0,.02,0,.04,0,.06,0,.01,0,.03,0,.04,0,.01,0,.02,0,.03-.03,.1-.08,.2-.15,.3-.02,.02-.03,.04-.05,.06-.08,.1-.18,.2-.31,.29-.02,.02-.05,.04-.07,.05-.12,.09-.26,.17-.42,.25-.05,.03-.1,.05-.15,.08-.14,.06-.29,.13-.45,.19-.1,.03-.2,.07-.3,.1-.06,.02-.13,.04-.19,.06-.19,.06-.39,.11-.6,.16-.21,.05-.44,.09-.67,.13h0c-.19,.03-.38,.06-.58,.09-.1,.01-.2,.03-.3,.04-.04,0-.07,0-.1,.01-.03,0-.07,0-.11,.01-.01,0-.02,0-.03,0-.31,.03-.63,.05-.96,.06-.25,.01-.5,.02-.76,.02-.08,0-.17,0-.25,0-.08,0-.17,0-.25,0-.08,0-.17,0-.25,0-.25-.01-.5-.03-.74-.05-.07,0-.14-.01-.22-.02-.15-.01-.29-.03-.43-.05-.05,0-.1-.01-.14-.02-.57-.07-1.11-.18-1.58-.3h0c-.14-.04-.27-.08-.39-.12-.05-.02-.11-.04-.16-.05-.06-.02-.12-.04-.18-.06-.04-.02-.08-.03-.12-.05-.04-.02-.08-.03-.12-.05-.04-.02-.08-.03-.12-.05-.04-.02-.07-.03-.11-.05-.03-.01-.05-.03-.08-.04-.04-.02-.08-.04-.12-.06-.02-.02-.05-.03-.07-.04-.05-.03-.09-.06-.14-.09-.05-.03-.1-.06-.14-.1-.03-.02-.05-.04-.08-.06-.06-.05-.12-.1-.18-.16-.01-.01-.03-.03-.04-.04-.04-.05-.08-.1-.11-.14-.02-.03-.04-.06-.06-.09-.01-.02-.02-.04-.03-.07-.01-.02-.02-.04-.02-.06-.02-.04-.03-.08-.04-.12,0-.02,0-.04-.01-.05,0-.03,0-.07,0-.11,0-.07,.01-.14,.03-.21,.02-.06,.05-.12,.08-.18,.04-.07,.09-.14,.15-.2,.02-.03,.05-.06,.08-.08,.05-.04,.09-.08,.14-.13,.03-.02,.05-.04,.08-.06,.05-.03,.1-.07,.14-.1,.03-.02,.05-.03,.08-.05,.05-.03,.1-.06,.14-.08,.03-.01,.05-.03,.08-.04,.05-.03,.1-.05,.14-.07,.02-.01,.05-.02,.08-.03,.05-.02,.1-.04,.14-.07,.03,0,.05-.02,.08-.03,.05-.02,.1-.04,.14-.05,.03-.01,.05-.02,.08-.03,.05-.02,.1-.03,.14-.05,.03,0,.05-.02,.08-.03,.05-.02,.1-.03,.15-.05,.03,0,.05-.02,.08-.02,.05-.02,.1-.03,.14-.04,.03,0,.05-.01,.08-.02,.05-.01,.1-.02,.15-.04,.02,0,.05-.01,.08-.02,.05-.01,.09-.02,.14-.03,0,0,0,0,0,0,.03,0,.05-.01,.08-.02,.05-.01,.1-.02,.15-.03,.03,0,.05-.01,.08-.02,.05-.01,.1-.02,.14-.03,.03,0,.05,0,.08-.01,.05,0,.1-.02,.14-.03,.03,0,.05,0,.08-.01,.05-.01,.1-.02,.15-.02,.03,0,.05,0,.08-.01,.05,0,.1-.02,.15-.02,.03,0,.05,0,.08-.01,.05,0,.1-.01,.14-.02,.03,0,.05,0,.08,0,.04,0,.08,0,.12-.01,.34-.04,.68-.06,1.04-.08,.04,0,.08,0,.12,0,.25-.01,.51-.02,.77-.02,.61,0,1.19,.03,1.75,.08,1.65,.16,3.01,.55,3.78,1.06,.44,.29,.69,.62,.69,.96"></path>
        <path class="uuid-bf5a7167-4def-4d49-8044-e5cf39310a41" d="M65.45,101.69v2.84c0,.06,0,.12-.03,.18-.05,.21-.2,.42-.42,.6,0,0,0,0,0,0-.07,.06-.16,.12-.25,.18-.1,.06-.21,.13-.32,.19-.02,.01-.03,.02-.05,.03-.02,.01-.05,.02-.08,.04-.04,.02-.08,.04-.11,.05h0s0,0,0,0c0,0-.02,0-.03,.01,0,0-.01,0-.02,0-.02,.01-.04,.02-.06,.03-.05,.02-.1,.04-.14,.06-.01,0-.03,.01-.04,.02-.01,0-.02,.01-.04,.02-.05,.02-.1,.03-.14,.05-.03,0-.05,.02-.08,.03-.05,.02-.1,.03-.14,.05-.03,0-.05,.02-.08,.03-.04,.01-.09,.03-.13,.04,0,0,0,0-.01,0-.03,0-.05,.02-.08,.02-.05,.02-.1,.03-.14,.04,0,0,0,0-.01,0-.02,0-.05,.01-.07,.02-.05,.01-.1,.02-.14,.04-.03,0-.05,.01-.08,.02-.05,.01-.1,.02-.14,.03-.03,0-.05,.01-.08,.02-.03,0-.07,.02-.1,.02-.01,0-.03,0-.04,0,0,0-.02,0-.03,0-.05,.01-.1,.02-.16,.03,0,0-.02,0-.02,0-.08,.02-.16,.03-.24,.04-.13,.02-.25,.04-.38,.05-.08,.01-.16,.02-.25,.03-.1,.01-.2,.02-.3,.03-.11,.01-.21,.02-.32,.03-.08,0-.16,.01-.25,.02-.2,.02-.41,.02-.62,.03-.08,0-.16,0-.25,0-.02,0-.05,0-.08,0-.08,0-.15,0-.24,0-.1,0-.21,0-.31,0-.08,0-.17,0-.25,0-.21,0-.42-.02-.62-.03-.08,0-.17,0-.25-.02-.21-.02-.42-.04-.62-.06-.08,0-.17-.02-.25-.03-.21-.03-.42-.06-.62-.1-.08-.02-.16-.03-.25-.05-.21-.04-.42-.09-.62-.14-.08-.02-.17-.04-.25-.07-.22-.06-.43-.13-.62-.21-.09-.03-.17-.06-.25-.1-.23-.1-.44-.21-.62-.32-.09-.06-.18-.12-.25-.18-.29-.25-.46-.51-.46-.8v-2.84s0,.07,0,.11c0,.02,0,.03,.01,.05,0,.04,.02,.08,.04,.12,0,.02,.01,.04,.02,.06,0,.02,.02,.05,.03,.07,.02,.03,.04,.06,.06,.09,.04,.05,.07,.1,.11,.14,.01,.02,.03,.03,.04,.04,.04,.04,.08,.08,.13,.11,.02,.01,.03,.03,.05,.04,.03,.02,.05,.04,.08,.06,.04,.03,.08,.06,.12,.09,0,0,.02,0,.02,.01,.04,.03,.09,.06,.14,.09,.02,.01,.05,.03,.07,.04,.04,.02,.08,.04,.12,.06,.03,.02,.05,.03,.08,.04,.04,.02,.07,.03,.11,.05,.02,.01,.05,.02,.07,.03,.02,0,.03,.02,.05,.02,.04,.02,.08,.03,.12,.05,.03,.01,.05,.02,.08,.03,.02,0,.03,.01,.05,.02,.06,.02,.11,.04,.17,.06,.05,.02,.1,.03,.16,.05,.08,.02,.16,.05,.24,.07,.05,.02,.1,.03,.15,.05h0s.06,.02,.09,.02c.2,.05,.4,.1,.62,.14,.08,.02,.16,.03,.25,.05,.2,.03,.41,.07,.62,.09,0,0,0,0,0,0,.05,0,.1,.01,.14,.02,.03,0,.06,0,.1,.01,.11,.02,.22,.03,.34,.04,.07,0,.14,.02,.22,.02,.02,0,.05,0,.07,0,.08,0,.16,.01,.25,.02,.14,.01,.28,.02,.43,.02,.06,0,.13,0,.19,0,.02,0,.03,0,.05,0,.06,0,.13,0,.19,0h.06c.08,0,.17,0,.25,0,.06,0,.13,0,.19,0,.04,0,.08,0,.12,0,.08,0,.17,0,.25,0,.07,0,.13,0,.2,0,.14,0,.28-.01,.42-.02,.08,0,.17-.01,.25-.02,.1,0,.19-.02,.29-.03,.01,0,.02,0,.03,0,.03,0,.07,0,.11,0,.03,0,.07-.01,.1-.01,.03,0,.06,0,.09-.01,.07,0,.14-.02,.22-.03,.01,0,.02,0,.03,0,.19-.03,.37-.05,.54-.09h0s.05,0,.07-.01c0,0,.01,0,.02,0,.08-.02,.15-.03,.22-.04,.02,0,.04,0,.06-.01,.1-.02,.19-.04,.28-.06,.07-.02,.14-.03,.21-.05h0s.04,0,.06-.02c0,0,0,0,.01,0,.05-.01,.1-.03,.14-.04,.03,0,.05-.02,.08-.02,0,0,0,0,.01,0,.03,0,.06-.02,.08-.02,.02,0,.03,0,.05-.02,.03,0,.05-.02,.08-.02,.02,0,.04-.01,.06-.02,.03,0,.06-.02,.09-.03,.03,0,.05-.02,.08-.03,.05-.01,.09-.03,.13-.05,0,0,0,0,.01,0,.01,0,.02,0,.04-.01,.02,0,.03-.01,.04-.02,.05-.02,.1-.04,.14-.06,.02,0,.04-.02,.06-.02,0,0,.02,0,.02,0,.05-.02,.09-.04,.13-.06,0,0,0,0,.01,0,.03-.01,.05-.02,.08-.04,.02-.01,.04-.02,.06-.03,.03-.02,.06-.03,.08-.05,.03-.01,.05-.03,.08-.04,.05-.03,.1-.06,.14-.09,0,0,0,0,0,0,.03-.02,.05-.04,.08-.05,0,0,.02-.01,.03-.02,.03-.02,.05-.03,.07-.05,.02,0,.03-.02,.05-.04,0,0,.02-.02,.03-.02,.02-.01,.04-.03,.05-.04,.07-.06,.13-.12,.18-.19,.02-.02,.03-.04,.05-.06,.07-.1,.12-.2,.15-.3,0,0,0-.01,0-.02,0,0,0-.01,0-.02,0-.01,0-.03,0-.04,0-.02,0-.04,0-.06,0-.02,0-.04,0-.07"></path>
        <path class="uuid-d15bce3d-9ba4-4c98-9d25-405926dd613d" d="M59.27,103.43c-2.87,0-5.84-.66-5.84-1.77s2.97-1.78,5.84-1.78,5.84,.66,5.84,1.78-2.97,1.77-5.84,1.77m0-3.29c-3.32,0-5.55,.78-5.55,1.51s2.23,1.51,5.55,1.51,5.55-.78,5.55-1.51-2.23-1.51-5.55-1.51"></path>
        <path class="uuid-d15bce3d-9ba4-4c98-9d25-405926dd613d" d="M53.73,102.67v2.84c-.09-.06-.18-.12-.25-.18v-2.84s.03,.03,.05,.04c.03,.02,.05,.04,.08,.06,.04,.03,.08,.06,.12,.09"></path>
        <path class="uuid-d15bce3d-9ba4-4c98-9d25-405926dd613d" d="M54.6,103.09v2.83c-.09-.03-.17-.06-.25-.1v-2.84s.03,.02,.05,.02c.04,.02,.08,.03,.12,.05,.03,.01,.05,.02,.08,.03"></path>
        <path class="uuid-d15bce3d-9ba4-4c98-9d25-405926dd613d" d="M55.46,103.37v2.83c-.08-.02-.17-.04-.25-.07v-2.83c.05,.02,.1,.03,.16,.04h0s.06,.02,.09,.02"></path>
        <path class="uuid-d15bce3d-9ba4-4c98-9d25-405926dd613d" d="M56.33,103.55v2.84c-.08-.02-.16-.03-.25-.05v-2.84c.08,.02,.16,.03,.25,.05"></path>
        <path class="uuid-d15bce3d-9ba4-4c98-9d25-405926dd613d" d="M57.2,103.68v2.84c-.08,0-.17-.02-.25-.03v-2.84h0s.1,.02,.14,.02c.03,0,.06,0,.1,.01"></path>
        <path class="uuid-d15bce3d-9ba4-4c98-9d25-405926dd613d" d="M58.06,103.76v2.84c-.08,0-.16,0-.25-.02v-2.84c.08,0,.16,.01,.25,.02"></path>
        <path class="uuid-d15bce3d-9ba4-4c98-9d25-405926dd613d" d="M58.93,103.79v2.84c-.08,0-.17,0-.25,0v-2.84s.04,0,.06,0c.06,0,.13,0,.19,0"></path>
        <path class="uuid-d15bce3d-9ba4-4c98-9d25-405926dd613d" d="M59.8,103.79v2.83c-.08,0-.16,0-.25,0v-2.84c.08,0,.17,0,.25,0"></path>
        <path class="uuid-d15bce3d-9ba4-4c98-9d25-405926dd613d" d="M60.66,103.74v2.84c-.08,0-.16,.01-.25,.02v-2.84c.08,0,.16,0,.25-.02"></path>
        <path class="uuid-d15bce3d-9ba4-4c98-9d25-405926dd613d" d="M61.53,103.65v2.83c-.08,.01-.16,.02-.25,.03v-2.84c.07,0,.14-.02,.22-.03,0,0,.02,0,.03,0"></path>
        <path class="uuid-d15bce3d-9ba4-4c98-9d25-405926dd613d" d="M62.4,103.51v2.83s-.03,0-.04,0c0,0-.02,0-.03,0-.05,.01-.1,.02-.16,.03,0,0-.01,0-.02,0v-2.84s.01,0,.02,0c.08-.01,.15-.03,.22-.04"></path>
        <path class="uuid-d15bce3d-9ba4-4c98-9d25-405926dd613d" d="M63.26,103.29v2.84s0,0-.01,0c-.03,0-.05,.02-.08,.02-.05,.02-.1,.03-.15,.04,0,0,0,0-.01,0v-2.83s.01,0,.01,0c.05-.01,.1-.03,.15-.04,.03,0,.05-.02,.08-.02,0,0,0,0,.01,0"></path>
        <path class="uuid-d15bce3d-9ba4-4c98-9d25-405926dd613d" d="M64.13,102.99v2.84s-.04,.02-.06,.03c-.05,.02-.1,.04-.15,.06-.01,0-.03,0-.04,.02v-2.84s.03-.01,.04-.02c.05-.02,.1-.04,.15-.06,.02,0,.04-.02,.06-.02"></path>
        <path class="uuid-d15bce3d-9ba4-4c98-9d25-405926dd613d" d="M65,102.48v2.84c-.07,.06-.16,.12-.25,.18v-2.84s.05-.03,.08-.05c0,0,.02-.01,.03-.02,.03-.02,.05-.03,.07-.05,.02-.01,.03-.02,.05-.04,0,0,.02-.02,.03-.02"></path>
      </g>
    </g>
  </g>
</svg>
