<?xml version="1.0" encoding="UTF-8"?>
<svg xmlns="http://www.w3.org/2000/svg" xmlns:xlink="http://www.w3.org/1999/xlink" viewBox="0 0 120 120">
  <defs>
    <style>.uuid-9ed331c8-c5b0-404d-a5ae-075ffe0c83fa{clip-path:url(#uuid-30113028-bec2-4ef5-a8e9-533330e40b90);}.uuid-1c3eaaf2-e031-4fc8-a56b-278874258bef{clip-path:url(#uuid-244596c6-6bea-4be4-9428-d73a71493687);}.uuid-698f9c2f-3b0e-4839-8798-f922a061111a{fill:#ddd;}.uuid-077f2daf-969b-47ec-a300-5cf28ece5207{clip-path:url(#uuid-e471d749-f21e-4feb-8bc7-edbb1e33c0ce);}.uuid-55289580-20ad-45ef-ba65-2b5edd1b8340{clip-path:url(#uuid-ef3acb90-5d9a-4161-b06b-2e1b88e6ca44);}.uuid-dd315a39-aec0-4205-8380-434a23a6f193{fill:#fff;}.uuid-38ae124f-f469-4e6f-aaa4-7019795640c5{clip-path:url(#uuid-eb924dc9-2ba6-4481-adf3-99cf602cc915);}.uuid-12b2e471-89bc-4d58-a0fa-4375b3cf2b9d{fill:#0e2f30;}.uuid-fab6ffad-49c3-49e9-8274-603982f10fa4{fill:#a7a8a8;}.uuid-9bca0493-0e70-4c89-abe5-e32a7d9f28d5{opacity:.86;}.uuid-9bca0493-0e70-4c89-abe5-e32a7d9f28d5,.uuid-efd13242-8b46-4e51-a3fa-da11e80b2cfa{mix-blend-mode:screen;}.uuid-39404b01-bb6b-46ff-bc96-1df1b6add82d{fill:#9e774c;}.uuid-002c16b8-cc93-4784-9989-1099fc406903{clip-path:url(#uuid-5fbceaf9-5627-4a96-915d-8fb862c98db1);}.uuid-1739694c-e640-4dc0-902c-27cecbd32f3f{fill:#842021;}.uuid-3cbcf570-5ee5-4f33-a1a3-38360ef672a1{clip-path:url(#uuid-538e7b99-18d4-4f8f-b15b-a589ce376791);}.uuid-36682c65-72f3-4ed3-bb6b-6d2c8ec6b9aa{fill:#f5f5f5;}.uuid-91818fd1-76a4-4fa9-b71f-c9e1702c1425{clip-path:url(#uuid-da358136-f4db-485c-99cd-807261f1f88f);}.uuid-452da939-9a4a-47ad-8361-af882d9307e9{clip-path:url(#uuid-21f24048-8528-4f05-9596-7c611f4f8d65);}.uuid-547e6aad-84ac-470d-b7d1-28b2a631b555{clip-path:url(#uuid-cac9f94f-5d32-4d47-bbe7-d4d2ffe0d03e);}.uuid-2abf9f2f-be72-444e-89d3-28e8be2e6cc3{opacity:.83;}.uuid-b79be077-003b-4ae0-98d7-a91a560e4033{isolation:isolate;}.uuid-712dc170-daf4-4184-ad35-38ea093c3b4f{clip-path:url(#uuid-5f03bf22-d399-4980-8e0d-c96c3fa54cb5);}.uuid-7cb75f29-517a-49d2-a051-266f28df1023{fill:#ffb880;}.uuid-af2730da-25c5-49a7-a572-c17660df9a0d{fill:#dba46c;}.uuid-f202427c-3a7b-40ef-9bfb-53f42c364a93{clip-path:url(#uuid-635ef1d4-391e-47a9-9eb2-5cc1567e3928);}.uuid-0a76934b-1ce6-4b9f-a255-c64ed438717f{fill:#0a2024;}.uuid-a68051df-0473-4a50-831c-9aa906bd41f8{clip-path:url(#uuid-86e35e01-e1aa-452b-8e3c-8b41878a1028);}.uuid-1f77bda6-74f2-4346-96d0-7dad980a8a8d{fill:#b3b8bc;}.uuid-d2653b1a-8ad5-4d4a-a85d-6130136ed7f5{clip-path:url(#uuid-94bb4b5c-8dce-442b-bf59-05ed1d4f3e9c);}.uuid-1ca62bf2-2a2a-4cdf-a232-40c13560c12b{fill:#ee7b20;}.uuid-5c2284ff-8c37-45d5-bfab-6631ed59f1e1{fill:#abb3c7;}.uuid-3bb1d2c0-c630-4efa-ba79-665d516cf092{fill:#0b2728;}.uuid-5d2e6d13-954f-43b8-8874-7aa5b8d15d68{clip-path:url(#uuid-6051ac94-5625-4d88-87f3-e835b4ef7d4d);}.uuid-73116895-8490-4fb1-8a97-ca8c535b6406{fill:#83a5b1;}.uuid-9e62c5c3-ce68-4573-a443-d852352b6f3f{clip-path:url(#uuid-d8c872f0-0a83-4b60-bf4a-c673cbcc5010);}.uuid-bf2f87da-2a59-4e4d-b01b-0e58dc25af82{clip-path:url(#uuid-3f43c030-4924-443e-8877-3b3eac34654b);}.uuid-51c4d2d2-0910-484f-88f9-f12c713e8622{clip-path:url(#uuid-aa5892db-7e27-46a3-aaf7-13fb023b0634);}.uuid-92aa3ceb-8d1a-4ad6-93a2-169bff459278{fill:#9ba1a5;}.uuid-6c9e4acc-8b8b-4085-af70-dfaee1fee8d8{clip-path:url(#uuid-744c4718-a060-4b48-a5a4-db65e3be2c0a);}.uuid-0851fa8e-6162-4a4b-8c77-25fafbd5c888{fill:#2f302e;}.uuid-840dbba3-59dd-439c-b50f-62141d4624b9{clip-path:url(#uuid-3c0afcba-4b40-4e12-901c-4e4663215e0f);}.uuid-1beb6ca1-b581-4c81-9046-0f715c2c57db{fill:#e2003a;}.uuid-ae0c1357-804d-4123-aab5-fbae2ff688ed{clip-path:url(#uuid-b6924a42-f6aa-45af-868c-3c75687a0cae);}.uuid-8baee241-7c3c-4e41-9d37-aa3191d965cc{stroke:#fff;stroke-miterlimit:10;stroke-width:10.31px;}.uuid-8baee241-7c3c-4e41-9d37-aa3191d965cc,.uuid-90eb4873-f869-478b-8526-354e138025ef{fill:none;}.uuid-ec45d0a2-b255-4bae-a674-77f16cf8de09{opacity:.34;}.uuid-ec45d0a2-b255-4bae-a674-77f16cf8de09,.uuid-a4ca8292-9799-47a6-8109-683e89bfc0d6,.uuid-66170450-d951-4f67-8364-506e4167e32b{mix-blend-mode:multiply;}.uuid-1037a41f-d26b-40ba-87e4-005adda20974{fill:#172224;}.uuid-f4001394-3c31-4074-be46-f1d49324f903{clip-path:url(#uuid-ccb06167-516d-49fd-ab5b-86aac9977148);}.uuid-8b9a18ac-db4c-4b14-abb9-b778c5b02d86{fill:#ddd62e;}.uuid-a4ca8292-9799-47a6-8109-683e89bfc0d6{opacity:.21;}.uuid-eeac6ae7-9098-4349-bf10-69d675ed153d{clip-path:url(#uuid-f119b1e7-eb95-49fb-84fb-99bceb8b6065);}.uuid-2b10de4a-c10d-469c-a61b-e063e96e99fb{clip-path:url(#uuid-f8d702db-774b-4f9d-9901-64cb0630d8a9);}.uuid-2e4a16a9-a453-4d1a-a77a-06ae483d0646{clip-path:url(#uuid-5980e2ff-6306-49f6-9e37-de539dfd9159);}.uuid-c14e8a67-f4a9-4b04-b100-7135a9cdbe1d{fill:#2b2b2b;}.uuid-52d06300-00db-4a4f-a179-cb1899336af7{fill:#a3aabd;}.uuid-27b0d5a4-98ed-4883-b61b-1fd3d55e9813{clip-path:url(#uuid-e5d9cf1d-f8c7-48c3-967d-c3492f627824);}.uuid-b992a7c9-6b4d-47a8-bf7e-64c9c1284285{fill:#ffd2a2;}.uuid-66170450-d951-4f67-8364-506e4167e32b{opacity:.5;}.uuid-c4c62916-3c1a-4776-be70-cb13d22bb231{fill:#d77c7d;}.uuid-7fd860ad-5a0f-43a8-b930-aeba2e8cf1bb{fill:#e4ebf9;}.uuid-7fd91b8b-2bd3-4ba0-8438-34333858abb7{clip-path:url(#uuid-8e1001b1-b1fa-4ad7-b6fa-11f461e26308);}.uuid-92106b92-dca9-4e12-87ed-10a634ea8f5c{fill:#6e4d22;}.uuid-c5cf26aa-37ed-4736-9b18-2a01a4f3e7b7{clip-path:url(#uuid-0eaa2b34-8cc3-489b-a94c-7ee0704c8e09);}.uuid-962cb3a8-be97-4ea2-a18b-e1716fc2c637{fill:#db1414;}.uuid-64687e01-e3ef-4148-ae14-ad652fb1dc4b{clip-path:url(#uuid-73714c51-b0dd-4d52-85ad-3f9679f94c03);}.uuid-8a367cfd-3656-4b6c-a2f9-28d2701b73e9{clip-path:url(#uuid-ab44f9ab-5078-4a46-b41f-c8e208413a63);}.uuid-48c963f1-ee90-4862-9019-382e8e98758d{fill:#1c292b;}.uuid-efd13242-8b46-4e51-a3fa-da11e80b2cfa{opacity:.25;}.uuid-706f79b9-d86b-46c9-be10-985a6f336433{fill:#432918;}.uuid-47190e6e-8945-4306-af08-ebd5017305ce{fill:#b3bacf;}.uuid-e5135a54-1b22-447b-9451-eeb837e86a8a{clip-path:url(#uuid-a2722500-23e5-4f9f-ac5e-23cdc374b103);}.uuid-b67e9651-992b-4910-b719-ccc32e2bc83b{clip-path:url(#uuid-4eaffc81-18e9-457d-80c4-95b70b6b7939);}.uuid-f7eacef4-656b-4236-ae6f-3416bbc96790{fill:#7a5729;}.uuid-298cb8d9-684e-48c9-a762-72f89617bc26{fill:#094349;}.uuid-667fe587-42e1-4fb2-8c9a-83f58ff18e38{opacity:.45;}.uuid-cbb2fc38-9393-45ed-a589-d44c2284075d{fill:#727b76;}.uuid-e0f54d89-9a9e-4fdf-9bb9-86d8f3989cf7{fill:#cd5b5d;}.uuid-21ba4204-6042-4065-9846-d59e05639f3d{fill:#862430;}.uuid-fbb91f45-f139-49d6-a196-b05ae3dda28e{fill:#c20909;}.uuid-0f958c13-3e9f-4b14-b483-a8c384ffd89e{fill:#976b32;}.uuid-bff39337-880a-4bf7-943f-76a3a94c2f93{fill:#fcc105;}.uuid-66c94bc4-e556-4801-a4f5-1866728f9998{fill:#e42e29;}.uuid-5303ac49-bb6a-437c-bc26-1b499253d5a5{mix-blend-mode:hard-light;opacity:.98;}.uuid-ca71ed38-4b16-4c98-bf72-bcbb76e8d1c6{fill:#101819;}.uuid-03162efc-28e4-46d8-8ca0-03999a48859f{fill:#0c5961;}.uuid-93da71cf-6345-4b34-8ce3-2ca9e32216c1{fill:#fbb03b;}</style>
    <clipPath id="uuid-244596c6-6bea-4be4-9428-d73a71493687">
      <rect class="uuid-90eb4873-f869-478b-8526-354e138025ef" x="36.93" y="54.75" width="59.54" height="13.94"></rect>
    </clipPath>
    <clipPath id="uuid-5f03bf22-d399-4980-8e0d-c96c3fa54cb5">
      <rect class="uuid-90eb4873-f869-478b-8526-354e138025ef" x="36.93" y="54.75" width="59.54" height="13.94"></rect>
    </clipPath>
    <clipPath id="uuid-21f24048-8528-4f05-9596-7c611f4f8d65">
      <rect class="uuid-90eb4873-f869-478b-8526-354e138025ef" x="67.46" y="62.97" width="2.13" height="3.07"></rect>
    </clipPath>
    <clipPath id="uuid-5fbceaf9-5627-4a96-915d-8fb862c98db1">
      <rect class="uuid-90eb4873-f869-478b-8526-354e138025ef" x="67.46" y="62.97" width="2.13" height="3.08"></rect>
    </clipPath>
    <clipPath id="uuid-30113028-bec2-4ef5-a8e9-533330e40b90">
      <rect class="uuid-90eb4873-f869-478b-8526-354e138025ef" x="66.12" y="63.03" width=".82" height=".33"></rect>
    </clipPath>
    <clipPath id="uuid-744c4718-a060-4b48-a5a4-db65e3be2c0a">
      <rect class="uuid-90eb4873-f869-478b-8526-354e138025ef" x="66.12" y="63.03" width=".82" height=".33"></rect>
    </clipPath>
    <clipPath id="uuid-73714c51-b0dd-4d52-85ad-3f9679f94c03">
      <rect class="uuid-90eb4873-f869-478b-8526-354e138025ef" x="68.14" y="62.9" width="1.27" height="1.15"></rect>
    </clipPath>
    <clipPath id="uuid-d8c872f0-0a83-4b60-bf4a-c673cbcc5010">
      <rect class="uuid-90eb4873-f869-478b-8526-354e138025ef" x="68.14" y="62.9" width="1.27" height="1.15"></rect>
    </clipPath>
    <clipPath id="uuid-ab44f9ab-5078-4a46-b41f-c8e208413a63">
      <rect class="uuid-90eb4873-f869-478b-8526-354e138025ef" x="66.39" y="64.85" width="1.28" height=".59"></rect>
    </clipPath>
    <clipPath id="uuid-cac9f94f-5d32-4d47-bbe7-d4d2ffe0d03e">
      <rect class="uuid-90eb4873-f869-478b-8526-354e138025ef" x="66.39" y="64.85" width="1.28" height=".59"></rect>
    </clipPath>
    <clipPath id="uuid-635ef1d4-391e-47a9-9eb2-5cc1567e3928">
      <rect class="uuid-90eb4873-f869-478b-8526-354e138025ef" x="39.6" y="54.29" width="56.28" height="10.64"></rect>
    </clipPath>
    <clipPath id="uuid-ccb06167-516d-49fd-ab5b-86aac9977148">
      <rect class="uuid-90eb4873-f869-478b-8526-354e138025ef" x="39.6" y="54.28" width="56.27" height="10.64"></rect>
    </clipPath>
    <clipPath id="uuid-94bb4b5c-8dce-442b-bf59-05ed1d4f3e9c">
      <rect class="uuid-90eb4873-f869-478b-8526-354e138025ef" x="32.23" y="75.4" width="77.27" height="16.09"></rect>
    </clipPath>
    <clipPath id="uuid-3c0afcba-4b40-4e12-901c-4e4663215e0f">
      <rect class="uuid-90eb4873-f869-478b-8526-354e138025ef" x="32.23" y="75.4" width="77.27" height="16.09"></rect>
    </clipPath>
    <clipPath id="uuid-4eaffc81-18e9-457d-80c4-95b70b6b7939">
      <rect class="uuid-90eb4873-f869-478b-8526-354e138025ef" x="7.76" y="77.68" width="20.74" height="14.04"></rect>
    </clipPath>
    <clipPath id="uuid-3f43c030-4924-443e-8877-3b3eac34654b">
      <rect class="uuid-90eb4873-f869-478b-8526-354e138025ef" x="7.76" y="77.68" width="20.74" height="14.04"></rect>
    </clipPath>
    <clipPath id="uuid-da358136-f4db-485c-99cd-807261f1f88f">
      <rect class="uuid-90eb4873-f869-478b-8526-354e138025ef" x="11.73" y="58.18" width="93.49" height="14.41"></rect>
    </clipPath>
    <clipPath id="uuid-86e35e01-e1aa-452b-8e3c-8b41878a1028">
      <rect class="uuid-90eb4873-f869-478b-8526-354e138025ef" x="11.73" y="58.17" width="93.49" height="14.41"></rect>
    </clipPath>
    <clipPath id="uuid-f119b1e7-eb95-49fb-84fb-99bceb8b6065">
      <rect class="uuid-90eb4873-f869-478b-8526-354e138025ef" x="9.31" y="69.8" width="13.83" height="5.07"></rect>
    </clipPath>
    <clipPath id="uuid-a2722500-23e5-4f9f-ac5e-23cdc374b103">
      <rect class="uuid-90eb4873-f869-478b-8526-354e138025ef" x="9.31" y="69.8" width="13.84" height="5.07"></rect>
    </clipPath>
    <clipPath id="uuid-ef3acb90-5d9a-4161-b06b-2e1b88e6ca44">
      <rect class="uuid-90eb4873-f869-478b-8526-354e138025ef" x="69.16" y="69.56" width="6.16" height="2.16"></rect>
    </clipPath>
    <clipPath id="uuid-aa5892db-7e27-46a3-aaf7-13fb023b0634">
      <rect class="uuid-90eb4873-f869-478b-8526-354e138025ef" x="69.16" y="69.56" width="6.16" height="2.17"></rect>
    </clipPath>
    <clipPath id="uuid-b6924a42-f6aa-45af-868c-3c75687a0cae">
      <rect class="uuid-90eb4873-f869-478b-8526-354e138025ef" x="69.35" y="70" width="5.79" height="1.34"></rect>
    </clipPath>
    <clipPath id="uuid-e5d9cf1d-f8c7-48c3-967d-c3492f627824">
      <rect class="uuid-90eb4873-f869-478b-8526-354e138025ef" x="69.35" y="70" width="5.79" height="1.34"></rect>
    </clipPath>
    <clipPath id="uuid-0eaa2b34-8cc3-489b-a94c-7ee0704c8e09">
      <rect class="uuid-90eb4873-f869-478b-8526-354e138025ef" x="42.7" y="63.27" width="5.84" height="4.08"></rect>
    </clipPath>
    <clipPath id="uuid-e471d749-f21e-4feb-8bc7-edbb1e33c0ce">
      <rect class="uuid-90eb4873-f869-478b-8526-354e138025ef" x="42.7" y="63.27" width="5.84" height="4.08"></rect>
    </clipPath>
    <clipPath id="uuid-eb924dc9-2ba6-4481-adf3-99cf602cc915">
      <rect class="uuid-90eb4873-f869-478b-8526-354e138025ef" x="40.64" y="88.07" width="43.23" height="3.42"></rect>
    </clipPath>
    <clipPath id="uuid-6051ac94-5625-4d88-87f3-e835b4ef7d4d">
      <rect class="uuid-90eb4873-f869-478b-8526-354e138025ef" x="40.64" y="88.07" width="43.23" height="3.42"></rect>
    </clipPath>
    <clipPath id="uuid-8e1001b1-b1fa-4ad7-b6fa-11f461e26308">
      <rect class="uuid-90eb4873-f869-478b-8526-354e138025ef" x="104.88" y="86.98" width="3.79" height="2.75"></rect>
    </clipPath>
    <clipPath id="uuid-f8d702db-774b-4f9d-9901-64cb0630d8a9">
      <rect class="uuid-90eb4873-f869-478b-8526-354e138025ef" x="104.88" y="86.98" width="3.79" height="2.75"></rect>
    </clipPath>
    <clipPath id="uuid-538e7b99-18d4-4f8f-b15b-a589ce376791">
      <rect class="uuid-90eb4873-f869-478b-8526-354e138025ef" x="9.63" y="89.1" width="10.72" height="2.62"></rect>
    </clipPath>
    <clipPath id="uuid-5980e2ff-6306-49f6-9e37-de539dfd9159">
      <rect class="uuid-90eb4873-f869-478b-8526-354e138025ef" x="9.63" y="89.1" width="10.72" height="2.62"></rect>
    </clipPath>
  </defs>
  <g class="uuid-b79be077-003b-4ae0-98d7-a91a560e4033">
    <g id="uuid-67d50291-7998-409f-8e73-20a81736e9b7">
      <circle class="uuid-36682c65-72f3-4ed3-bb6b-6d2c8ec6b9aa" cx="60" cy="60.39" r="50"></circle>
      <g>
        <path class="uuid-dd315a39-aec0-4205-8380-434a23a6f193" d="M7.78,80.36c.15-2.16,1.02-2.58,1.02-2.58-.02-.08-.03-.15-.05-.22-.38-1.81,.02-2.77,.59-3.4h0c.19-.21,.4-.38,.61-.54,.29-.22,.58-.43,.87-.63,0,0,.02-.01,.02-.02,.34-.24,.68-.47,1.02-.69,1.89-1.24,3.71-2.17,5.33-2.88,3.91-1.7,6.71-2.07,6.71-2.07,2.95-.27,4.43-.31,4.43-.31,.05-.03,.1-.07,.15-.1,8.78-5.62,20.9-10.54,20.9-10.54,.86-.36,1.73-.68,2.62-.97,.22-.07,.44-.14,.66-.21,6.04-1.94,12.14-2.08,18.62-2.1,10.6-.03,29.45,1.93,29.45,1.93-.28,.58-.97,1.47-.97,1.47,.52,.44,1,.93,1.44,1.46,1.27,1.49,2.25,3.28,3.02,5.12,.02,.04,.04,.09,.06,.14,.17,.4,.32,.81,.47,1.22,.1,.28,.2,.56,.29,.84,.02,.07,.05,.14,.07,.21,.03,.08,.06,.17,.08,.25,.05,.16,.1,.32,.15,.48,.01,.04,.02,.08,.04,.12,.07,.26,.15,.51,.21,.76,.02,.08,.05,.17,.07,.25,.07,.26,.14,.52,.2,.77,.08,.34,.16,.67,.23,.99,.71,3.29,.85,5.82,.85,5.82,.22,.06,.41,.15,.6,.26,2.29,1.38,2.04,6.24,1.79,8.45-.02,.18-.04,.35-.06,.52-.01,.06-.02,.12-.03,.19-.01,.1-.03,.21-.05,.3-.01,.07-.02,.14-.03,.2-.02,.09-.03,.17-.05,.26-.01,.07-.03,.13-.04,.2-.02,.08-.03,.16-.05,.24-.01,.06-.03,.13-.04,.19-.02,.08-.04,.15-.06,.22-.01,.06-.03,.12-.05,.17-.02,.08-.05,.16-.08,.24-.03,.1-.07,.2-.1,.29-.01,.04-.03,.08-.04,.11,0,0,0,0,0,.01-.1,.26-.21,.49-.33,.7l-.03,.05c-.05,.08-.1,.16-.15,.24-.02,.03-.04,.06-.06,.09-.04,.06-.09,.12-.13,.17-.02,.03-.05,.06-.07,.09-.04,.05-.09,.1-.13,.15-.03,.03-.05,.05-.08,.08-.05,.05-.1,.09-.14,.13-.03,.02-.05,.05-.08,.07-.06,.05-.11,.09-.17,.13-.02,.02-.04,.03-.07,.05-.08,.06-.16,.11-.25,.16-.52,.29-1.29,.57-2.08,.63l-1.54,.08c-.95,4.28-4.78,7.46-9.33,7.42-4.14-.03-7.64-2.73-8.9-6.45l-1.25,.07c-8.54,.25-27.56,.48-43.22,.65h-1.55c-1.47,3.41-4.85,5.77-8.78,5.73-3.81-.03-7.07-2.3-8.55-5.55h-1.42c-2.47,.03-3.91,.05-3.91,.05-.17,0-.33-.02-.48-.03-.04,0-.07,0-.11,0-.15-.01-.29-.02-.43-.03-.01,0-.02,0-.04,0-.15-.01-.3-.03-.44-.05-.03,0-.05,0-.08-.01-.13-.01-.25-.03-.38-.05-.02,0-.03,0-.05,0-.14-.02-.27-.05-.4-.07-.02,0-.03,0-.05-.01-.12-.02-.23-.04-.34-.07-.02,0-.04,0-.06-.01-.12-.03-.24-.06-.36-.08,0,0-.01,0-.02,0-.11-.03-.21-.06-.32-.09-.02,0-.04-.01-.06-.02-.22-.06-.42-.13-.61-.2-.02,0-.04-.01-.06-.02-.09-.03-.17-.07-.25-.1,0,0-.01,0-.02-.01-.09-.04-.17-.08-.26-.12-.02,0-.04-.02-.06-.03-.07-.03-.13-.07-.2-.1-.02,0-.03-.02-.05-.03-.07-.04-.15-.08-.22-.12-.02-.01-.03-.02-.05-.03-.05-.03-.11-.07-.16-.1-.02-.01-.04-.02-.06-.04-.06-.04-.12-.09-.18-.13-.02-.01-.03-.02-.05-.03-.05-.03-.09-.07-.13-.1-.02-.02-.04-.03-.06-.05-.05-.04-.1-.08-.14-.13-.01-.01-.03-.03-.04-.04-.04-.04-.08-.08-.12-.12-.02-.02-.03-.04-.05-.05-.03-.04-.07-.08-.1-.11-.01-.01-.02-.02-.03-.04-.04-.05-.08-.1-.12-.15-.01-.02-.03-.03-.04-.05-.03-.04-.06-.08-.09-.12-.01-.01-.02-.03-.03-.04,0,0,0,0,0-.01,0-.01-.01-.02-.02-.03-.04-.06-.07-.11-.11-.17-.01-.02-.02-.04-.04-.06-.03-.05-.06-.1-.09-.16-.01-.02-.02-.04-.03-.06-.03-.06-.06-.12-.09-.18,0-.01-.01-.02-.02-.03-.07-.15-.13-.3-.19-.45,0-.02-.01-.03-.02-.05-.02-.06-.04-.12-.06-.17,0-.02-.01-.04-.02-.06-.02-.06-.04-.11-.05-.17,0-.02-.01-.04-.02-.06-.02-.07-.05-.15-.07-.22-.1-.35-.18-.69-.27-1.02-.68-2.6-.83-4.4-.74-5.63"></path>
        <path class="uuid-8baee241-7c3c-4e41-9d37-aa3191d965cc" d="M7.78,80.36c.15-2.16,1.02-2.58,1.02-2.58-.02-.08-.03-.15-.05-.22-.38-1.81,.02-2.77,.59-3.4h0c.19-.21,.4-.38,.61-.54,.29-.22,.58-.43,.87-.63,0,0,.02-.01,.02-.02,.34-.24,.68-.47,1.02-.69,1.89-1.24,3.71-2.17,5.33-2.88,3.91-1.7,6.71-2.07,6.71-2.07,2.95-.27,4.43-.31,4.43-.31,.05-.03,.1-.07,.15-.1,8.78-5.62,20.9-10.54,20.9-10.54,.86-.36,1.73-.68,2.62-.97,.22-.07,.44-.14,.66-.21,6.04-1.94,12.14-2.08,18.62-2.1,10.6-.03,29.45,1.93,29.45,1.93-.28,.58-.97,1.47-.97,1.47,.52,.44,1,.93,1.44,1.46,1.27,1.49,2.25,3.28,3.02,5.12,.02,.04,.04,.09,.06,.14,.17,.4,.32,.81,.47,1.22,.1,.28,.2,.56,.29,.84,.02,.07,.05,.14,.07,.21,.03,.08,.06,.17,.08,.25,.05,.16,.1,.32,.15,.48,.01,.04,.02,.08,.04,.12,.07,.26,.15,.51,.21,.76,.02,.08,.05,.17,.07,.25,.07,.26,.14,.52,.2,.77,.08,.34,.16,.67,.23,.99,.71,3.29,.85,5.82,.85,5.82,.22,.06,.41,.15,.6,.26,2.29,1.38,2.04,6.24,1.79,8.45-.02,.18-.04,.35-.06,.52-.01,.06-.02,.12-.03,.19-.01,.1-.03,.21-.05,.3-.01,.07-.02,.14-.03,.2-.02,.09-.03,.17-.05,.26-.01,.07-.03,.13-.04,.2-.02,.08-.03,.16-.05,.24-.01,.06-.03,.13-.04,.19-.02,.08-.04,.15-.06,.22-.01,.06-.03,.12-.05,.17-.02,.08-.05,.16-.08,.24-.03,.1-.07,.2-.1,.29-.01,.04-.03,.08-.04,.11,0,0,0,0,0,.01-.1,.26-.21,.49-.33,.7l-.03,.05c-.05,.08-.1,.16-.15,.24-.02,.03-.04,.06-.06,.09-.04,.06-.09,.12-.13,.17-.02,.03-.05,.06-.07,.09-.04,.05-.09,.1-.13,.15-.03,.03-.05,.05-.08,.08-.05,.05-.1,.09-.14,.13-.03,.02-.05,.05-.08,.07-.06,.05-.11,.09-.17,.13-.02,.02-.04,.03-.07,.05-.08,.06-.16,.11-.25,.16-.52,.29-1.29,.57-2.08,.63l-1.54,.08c-.95,4.28-4.78,7.46-9.33,7.42-4.14-.03-7.64-2.73-8.9-6.45l-1.25,.07c-8.54,.25-27.56,.48-43.22,.65h-1.55c-1.47,3.41-4.85,5.77-8.78,5.73-3.81-.03-7.07-2.3-8.55-5.55h-1.42c-2.47,.03-3.91,.05-3.91,.05-.17,0-.33-.02-.48-.03-.04,0-.07,0-.11,0-.15-.01-.29-.02-.43-.03-.01,0-.02,0-.04,0-.15-.01-.3-.03-.44-.05-.03,0-.05,0-.08-.01-.13-.01-.25-.03-.38-.05-.02,0-.03,0-.05,0-.14-.02-.27-.05-.4-.07-.02,0-.03,0-.05-.01-.12-.02-.23-.04-.34-.07-.02,0-.04,0-.06-.01-.12-.03-.24-.06-.36-.08,0,0-.01,0-.02,0-.11-.03-.21-.06-.32-.09-.02,0-.04-.01-.06-.02-.22-.06-.42-.13-.61-.2-.02,0-.04-.01-.06-.02-.09-.03-.17-.07-.25-.1,0,0-.01,0-.02-.01-.09-.04-.17-.08-.26-.12-.02,0-.04-.02-.06-.03-.07-.03-.13-.07-.2-.1-.02,0-.03-.02-.05-.03-.07-.04-.15-.08-.22-.12-.02-.01-.03-.02-.05-.03-.05-.03-.11-.07-.16-.1-.02-.01-.04-.02-.06-.04-.06-.04-.12-.09-.18-.13-.02-.01-.03-.02-.05-.03-.05-.03-.09-.07-.13-.1-.02-.02-.04-.03-.06-.05-.05-.04-.1-.08-.14-.13-.01-.01-.03-.03-.04-.04-.04-.04-.08-.08-.12-.12-.02-.02-.03-.04-.05-.05-.03-.04-.07-.08-.1-.11-.01-.01-.02-.02-.03-.04-.04-.05-.08-.1-.12-.15-.01-.02-.03-.03-.04-.05-.03-.04-.06-.08-.09-.12-.01-.01-.02-.03-.03-.04,0,0,0,0,0-.01,0-.01-.01-.02-.02-.03-.04-.06-.07-.11-.11-.17-.01-.02-.02-.04-.04-.06-.03-.05-.06-.1-.09-.16-.01-.02-.02-.04-.03-.06-.03-.06-.06-.12-.09-.18,0-.01-.01-.02-.02-.03-.07-.15-.13-.3-.19-.45,0-.02-.01-.03-.02-.05-.02-.06-.04-.12-.06-.17,0-.02-.01-.04-.02-.06-.02-.06-.04-.11-.05-.17,0-.02-.01-.04-.02-.06-.02-.07-.05-.15-.07-.22-.1-.35-.18-.69-.27-1.02-.68-2.6-.83-4.4-.74-5.63Z"></path>
        <path class="uuid-3bb1d2c0-c630-4efa-ba79-665d516cf092" d="M48.52,72.61c-4.51,.76-10.4,4.51-10.4,4.51-1.91,.42-.36-8.81-.47-9.27,0-.02-.01-.04-.01-.06,1.96-1.33,5.44-3.23,8.78-3.29,0,0-.28,3.64,2.11,8.11"></path>
        <path class="uuid-3bb1d2c0-c630-4efa-ba79-665d516cf092" d="M52.38,72.82c.09,.29-.1,.6-.42,.7-.32,.1-.66-.05-.75-.34l-2.7-8.64c-.09-.29,.1-.6,.42-.7,.32-.1,.65,.05,.74,.34l2.7,8.64Z"></path>
        <path class="uuid-3bb1d2c0-c630-4efa-ba79-665d516cf092" d="M51.43,70.36c.04,.12-.39,.36-.95,.54-.56,.17-1.05,.22-1.09,.1l-1.13-3.61c-.04-.12,.39-.36,.95-.54,.56-.18,1.05-.22,1.09-.1l1.13,3.61Z"></path>
        <polygon class="uuid-3bb1d2c0-c630-4efa-ba79-665d516cf092" points="43.99 68.69 48.92 67.43 49.96 70.35 44.65 72.55 43.99 68.69"></polygon>
        <path class="uuid-12b2e471-89bc-4d58-a0fa-4375b3cf2b9d" d="M97.5,66.18c-.19,.27-.37,.55-.54,.83-3.44,5.6-5.03,14.52-5.62,18.77-.05,.32-.09,.65-.13,.95-.05,.36-.08,.66-.11,.9-.04,.35-.06,.54-.06,.54h-.01s-.51,.04-.51,.04l-15.28,1.05-.41-3.47c-.69-.44-1.2-.89-1.55-1.32-1.2-1.44-.71-2.69,.04-3.01,1.69-.71,5.01-1.29,11.66,.82,.41,.13,.83,.27,1.26,.42,0,0,.18-1.07,.43-2.39,.31-1.65,.72-3.69,1.02-4.55,.05-.14,.09-.27,.14-.4,.03-.09,.06-.18,.09-.27,.94-2.68,1.86-4.93,2.81-6.75,.22-.42,.44-.82,.67-1.19,.44-.74,.9-1.39,1.37-1.96,.4-.48,.77-.83,1.12-1.07-.38,.05-.58,.07-.58,.07-2.34,.49-1.35-3.24-1.35-3.24,.38-1.77,1-2.2,1-2.2,.61-.46,2.51,.92,2.51,.92,2.9,1.65,1.23,3.53,.81,3.95-.18,.05-.36,.1-.55,.15,1.22,.49,1.77,2.43,1.77,2.43"></path>
        <path class="uuid-0a76934b-1ce6-4b9f-a255-c64ed438717f" d="M91.33,85.78c-.05,.32-.09,.65-.13,.95-.04,.33-.08,.63-.11,.9-.02,.2-.05,.38-.06,.54-.04,.33-.06,.53-.06,.53l-.98,.03-14.75,.52-.41-3.47h16.51Z"></path>
        <path class="uuid-12b2e471-89bc-4d58-a0fa-4375b3cf2b9d" d="M76.62,64.99c-.2,.28-.39,.58-.57,.88-3.61,5.88-5.28,15.24-5.9,19.7-.05,.34-.09,.68-.13,1-.05,.38-.08,.7-.11,.94-.04,.37-.06,.57-.06,.57h-.01s-.54,.04-.54,.04l-16.03,1.1-.43-3.65c-.73-.46-1.26-.93-1.63-1.38-1.26-1.51-.74-2.83,.04-3.16,1.77-.74,5.26-1.36,12.24,.86,.43,.14,.87,.28,1.32,.44,0,0,.19-1.12,.45-2.52,.32-1.73,.76-3.87,1.07-4.78,.05-.14,.1-.28,.15-.42,.03-.09,.07-.19,.1-.28,.99-2.81,1.95-5.17,2.95-7.08,.23-.44,.47-.86,.7-1.25,.47-.78,.94-1.46,1.44-2.05,.42-.5,.81-.87,1.18-1.12-.4,.06-.61,.07-.61,.07-2.46,.51-1.41-3.4-1.41-3.4,.4-1.86,1.05-2.31,1.05-2.31,.65-.48,2.64,.97,2.64,.97,3.04,1.74,1.29,3.71,.84,4.14-.19,.05-.38,.1-.57,.15,1.28,.52,1.86,2.55,1.86,2.55"></path>
        <path class="uuid-0a76934b-1ce6-4b9f-a255-c64ed438717f" d="M70.15,85.56c-.05,.34-.09,.68-.13,1-.04,.34-.08,.66-.12,.95-.02,.21-.05,.4-.07,.57-.04,.35-.06,.56-.06,.56l-1.03,.04-15.48,.54-.43-3.65h17.32Z"></path>
        <g class="uuid-2abf9f2f-be72-444e-89d3-28e8be2e6cc3">
          <g class="uuid-1c3eaaf2-e031-4fc8-a56b-278874258bef">
            <g class="uuid-712dc170-daf4-4184-ad35-38ea093c3b4f">
              <polygon class="uuid-298cb8d9-684e-48c9-a762-72f89617bc26" points="36.93 68.68 78.01 67.06 96.47 61.61 92.9 55.63 76.62 54.75 57.99 55.17 52.4 57.08 45.55 60.34 38.92 65.48 36.93 68.68"></polygon>
            </g>
          </g>
        </g>
        <polygon class="uuid-7cb75f29-517a-49d2-a051-266f28df1023" points="69.96 65.7 67.88 66.54 67.51 65.24 67.46 65.02 67.39 64.75 69.27 63.68 69.34 63.89 69.65 64.79 69.96 65.7"></polygon>
        <path class="uuid-dd315a39-aec0-4205-8380-434a23a6f193" d="M65.59,71.41c.17,.96,1.07,1.25,1.07,1.25,0,0,.62,3.4,.71,3.84,.15,.76,.26,1.36,.26,1.36,0,0,.96,.43,2.14,.31,.55-.06,2.44-.69,2.44-.69-.17-.48-.56-1.89-.61-2.08-.16-.59-.05-6.23-.25-7.28-.2-1.05-.58-2.18-1.42-2.49,0,0-1.62,.58-2.04,.92,0,0-.48,1.58-.8,2.02-.33,.45-.42,.65-.96,1.27-.47,.54-.64,.95-.53,1.58"></path>
        <g class="uuid-66170450-d951-4f67-8364-506e4167e32b">
          <g class="uuid-452da939-9a4a-47ad-8361-af882d9307e9">
            <g class="uuid-002c16b8-cc93-4784-9989-1099fc406903">
              <path class="uuid-7cb75f29-517a-49d2-a051-266f28df1023" d="M69.58,64.6c-.39,.72-1.2,1.14-1.84,1.45l-.29-1.03s.02-.01,.03-.02c.25-.13,.55-.34,.91-.61,.24-.19,.54-.91,.64-1.42l.55,1.63Z"></path>
            </g>
          </g>
        </g>
        <path class="uuid-7cb75f29-517a-49d2-a051-266f28df1023" d="M69.35,67.43c-.54-.23-1.35-.13-1.8,.94-.45,1.06-.15,1.62-.32,2.16-.34,1.1-2.06,2.22-2.06,2.22-.6,.36-3.56,.75-4.34,1.04-.11,.04-1.09,.14-1.35,.04-.26-.1-.83-.1-1.08,.11-.25,.21-.32,.34-.4,.51-.1,.22-.15,.66,0,.95,.04,.09,.53,.16,.88,.2,.21,.03,.27-.18,.3-.24,.13-.28,.42-.22,.42-.22,1.03,.1,.96-.22,1.18-.22,.67,.03,4.03-.53,5.07-.75,1.14-.25,3.13-2.2,4.3-5.05,.28-.69-.06-1.38-.78-1.69"></path>
        <path class="uuid-f7eacef4-656b-4236-ae6f-3416bbc96790" d="M67.7,57.19h0s0,.03,0,.03c0,.02,0,.05,.01,.07,.01,.05,.03,.11,.04,.17,.07,.27,.21,.67,.36,1.13,0,0,0,0,0,0,.03,.1,.07,.21,.11,.32,.2,.59,.42,1.26,.6,1.91,.03,.1,.06,.21,.08,.32,.01,.04,.02,.08,.03,.13,.04,.17,.08,.33,.12,.5,.01,.07,.03,.14,.04,.21,0,.03,.01,.07,.02,.1,.13,.68,.16,1.27,.03,1.65-.08,.24-.15,.47-.21,.71-.05,.2-.08,.39-.1,.59-.03,.25-.04,.49-.03,.74,0,.13,.02,.26,.03,.39,.01,.07,.02,.13,.03,.2,.01,.05,.02,.1,.03,.16,.13,.56,.4,1.11,.83,1.65,.22,.27,.44,.44,.64,.53,.12,.06,.23,.09,.34,.1,.09,.01,.18,.01,.25,0,.26-.03,.43-.14,.45-.16-.02,.01-.2,.09-.37,.04h0s-.03,0-.04-.01c-.02,0-.03-.01-.05-.02-.09-.05-.17-.14-.22-.3-.03-.08-.05-.17-.07-.26-.04-.17-.06-.37-.07-.59,0-.31,.01-.66,.07-1.05,.11-.7,.34-1.52,.71-2.42,.5-1.23,1.14-3.58,.44-5.41-.17-.46-.43-.89-.8-1.26-.43-.43-1.3-.82-2.07-.85,0,0,0,0,0,0-.04,0-.08,0-.12,0-.6,.01-.96,.22-1.13,.57,0,.02-.01,.06,0,.11"></path>
        <path class="uuid-b992a7c9-6b4d-47a8-bf7e-64c9c1284285" d="M64.67,61.03s0,.09,0,.13c0,.04,0,.07,.01,.09,.18,.73-.12,.87,.07,2.1,.08,.49,.5,1.11,.7,1.35,.16,.19,.59,.95,1.21,1.09,.86,.2,1.56-.51,1.94-.75,.44-.27,.84-.58,1.13-.87,.25-.25,.44-.8,.65-1.52,.03-.11,.07-.22,.1-.33,0-.02,.05-.04,.06-.06,0-.02,.06-.04,.06-.06,0,0-.04-.02-.04-.03,.01-.04,0-.07,0-.11,.01-.06,.01-.13,.02-.19,.01-.07,.01-.14,.02-.22,0,0,.01,0,.01,0,.01-.15,.02-.29,.03-.42h0c.01-1.65-.67-2.68-2.36-2.92-1.07-.15-2.41-.39-2.89,.3-.37,.54-.16,.62-.47,1.38-.03,.09-.14,.39-.22,.65-.03,.11-.05,.25-.05,.37"></path>
        <path class="uuid-7cb75f29-517a-49d2-a051-266f28df1023" d="M70.08,63.32s.01,.05,.02,.07c.03,.06,.07,.11,.12,.14,.01,.01,.03,.02,.05,.02,.03,.01,.06,.02,.1,.02h0s.05,0,.07,0c.14-.03,.29-.15,.38-.33,.14-.27,.12-.58-.04-.71,0,0-.02-.01-.02-.02-.18-.12-.45,.02-.6,.3-.09,.17-.12,.37-.08,.51"></path>
        <path class="uuid-92106b92-dca9-4e12-87ed-10a634ea8f5c" d="M70.72,62.48s.6-1.39,.54-2.42c-.06-.96-.28-2.43-2.68-2.78-2.45-.35,3.14,2.07,2.14,5.2"></path>
        <path class="uuid-f7eacef4-656b-4236-ae6f-3416bbc96790" d="M64.66,61.08c.41-.6,.91-.87,1.3-1.05,.63-.3,1.37-.51,1.79-.79,.16-.11,.32-.21,.47-.31,.13-.09,.25-.17,.36-.25,.13-.09,.25-.18,.36-.26,.32-.25,.53-.46,.57-.63,.03-.13-.03-.25-.21-.33-.06-.03-.15-.06-.24-.09,0,0,0,0,0,0-.13-.03-.29-.06-.48-.09,0,0,0,0-.01,0h0c-.08-.01-.17-.02-.25-.03-.22-.02-.42-.03-.61-.02h-.02c-.26,.01-.49,.04-.7,.09h0c-.17,.04-.32,.1-.46,.16h0c-.83,.38-1.47,1.14-1.7,1.71-.27,.67-.16,1.9-.16,1.9"></path>
        <path class="uuid-93da71cf-6345-4b34-8ce3-2ca9e32216c1" d="M67.67,57.27s0,.02,0,.02c0,.06,.03,.12,.08,.17,.09,.09,.25,.18,.44,.23,.08,.02,.16,.04,.24,.05,.33,.05,.63,0,.78-.11,.05-.04,.08-.08,.09-.14,0-.02,0-.04,0-.05,0,0,0-.02,0-.02-.05-.17-.36-.35-.76-.4-.39-.06-.74,.02-.84,.17,0,0-.01,.02-.01,.03,0,.01-.01,.03-.01,.04"></path>
        <path class="uuid-39404b01-bb6b-46ff-bc96-1df1b6add82d" d="M67.36,61.47s.05,.03,.07,.02c.19-.14,.41-.25,.65-.31,.23-.06,.5-.04,.74,.03,.03,.01,.07,0,.08-.02,.01-.02,0-.06-.04-.07-.13-.05-.25-.09-.39-.11-.14-.02-.28-.03-.41,0-.27,.04-.52,.14-.75,.27-.03,.02-.04,.05-.02,.08l.08,.13Z"></path>
        <path class="uuid-39404b01-bb6b-46ff-bc96-1df1b6add82d" d="M64.67,61.03s0,.09,0,.13c.18-.02,.37-.02,.53,.03,.23,.07,.45,.19,.64,.33,.02,.02,.05,.01,.07-.02l.09-.13s0-.06-.02-.08c-.23-.13-.47-.24-.74-.29-.14-.02-.28-.02-.41,0-.05,0-.1,.02-.15,.03"></path>
        <path class="uuid-0f958c13-3e9f-4b14-b483-a8c384ffd89e" d="M65.18,58.58c-.3,.46,1.61,2.33,2.67,2.6,.91,.23,2.33,1.43,2.72,1.5,0,0,.18-.32,.19-.32s-.2,.32-.19,.32c.53,.44,.76,.36,.76,.36-.13-.12,.05-1.5-.1-2.3-.17-.84-.42-1.81-.92-2.35-.22-.24-.49-.44-.78-.59-.1-.05-.2-.1-.3-.15-.42-.18-.85-.28-1.26-.32-.08,0-.16-.02-.24-.02-.01,0-.03,0-.05,0-.26-.01-.33-.01-.69,.03-.57,.07-1.46,.72-1.8,1.26"></path>
        <path class="uuid-73116895-8490-4fb1-8a97-ca8c535b6406" d="M65.57,61.92c0,.18-.19,.32-.39,.31-.21-.01-.37-.17-.36-.35,0-.18,.18-.32,.39-.31,.21,.01,.37,.17,.36,.35"></path>
        <path d="M65.44,61.92c0,.14-.12,.24-.26,.23-.14,0-.24-.12-.24-.26,0-.14,.12-.24,.26-.23,.14,0,.24,.12,.24,.26"></path>
        <path class="uuid-706f79b9-d86b-46c9-be10-985a6f336433" d="M64.48,61.88c-.1,0-.18-.07-.18-.07-.02-.02-.03-.06,0-.08,.02-.02,.06-.02,.08,0,0,0,.11,.09,.2,.03,.03-.02,.06-.04,.09-.07,.1-.09,.24-.21,.55-.19,.42,.03,.63,.31,.65,.42,0,.03-.02,.06-.05,.06-.03,0-.06-.02-.07-.05-.01-.06-.18-.3-.55-.33-.27-.02-.37,.07-.46,.16-.03,.03-.07,.06-.1,.08-.06,.03-.11,.04-.16,.04"></path>
        <path class="uuid-73116895-8490-4fb1-8a97-ca8c535b6406" d="M67.7,61.87c-.02,.18,.14,.35,.34,.37,.21,.02,.39-.11,.41-.29s-.14-.35-.34-.37c-.21-.02-.39,.11-.41,.29"></path>
        <path d="M67.82,61.88c-.01,.14,.09,.26,.22,.27,.14,.01,.26-.09,.28-.22,.01-.14-.09-.26-.22-.27-.14-.01-.26,.09-.28,.22"></path>
        <path class="uuid-706f79b9-d86b-46c9-be10-985a6f336433" d="M68.78,61.99c.1,0,.19-.04,.19-.05,.03-.02,.03-.05,.02-.08-.02-.03-.05-.03-.08-.02,0,0-.12,.07-.2,0-.03-.02-.05-.05-.08-.08-.08-.1-.2-.24-.52-.27-.42-.03-.67,.22-.71,.32-.01,.03,0,.06,.04,.07,.03,.01,.06,0,.07-.04,.02-.06,.22-.27,.59-.24,.27,.02,.35,.13,.44,.23,.03,.03,.06,.07,.09,.1,.05,.04,.1,.06,.15,.06"></path>
        <path class="uuid-e0f54d89-9a9e-4fdf-9bb9-86d8f3989cf7" d="M67.77,64.08s-.39,.8-1.28,.73c-.51-.04-.69-.62-.71-.65,.02,0,.09,.01,.14,.01,.18,0,.41,0,.65,.01,.24,0,.47,0,.65-.02,.2-.01,.52-.08,.54-.08"></path>
        <path class="uuid-e0f54d89-9a9e-4fdf-9bb9-86d8f3989cf7" d="M67.87,64.04c-.45,.1-.76-.12-1.38-.11-.5,0-.5,.18-.76,.23,.58,.43,.83,.41,2.14-.12"></path>
        <g class="uuid-efd13242-8b46-4e51-a3fa-da11e80b2cfa">
          <g class="uuid-9ed331c8-c5b0-404d-a5ae-075ffe0c83fa">
            <g class="uuid-6c9e4acc-8b8b-4085-af70-dfaee1fee8d8">
              <path class="uuid-af2730da-25c5-49a7-a572-c17660df9a0d" d="M66.12,63.21c0,.09,.19,.16,.42,.15,.23,0,.41-.09,.4-.18,0-.09-.19-.16-.42-.15-.23,0-.41,.09-.41,.18"></path>
            </g>
          </g>
        </g>
        <path class="uuid-af2730da-25c5-49a7-a572-c17660df9a0d" d="M66.58,63.53s.08,.03,.15,.01c.07-.02,.12-.06,.1-.09-.01-.03-.08-.03-.15-.01-.07,.02-.12,.06-.1,.09"></path>
        <path class="uuid-af2730da-25c5-49a7-a572-c17660df9a0d" d="M66.28,63.51s-.07,.04-.14,.02c-.07-.02-.12-.05-.11-.08,0-.03,.07-.04,.14-.02,.07,.02,.12,.05,.11,.08"></path>
        <path class="uuid-af2730da-25c5-49a7-a572-c17660df9a0d" d="M66.97,63.17s.17,.15,.06,.31c0,0,.27-.18-.06-.31"></path>
        <g class="uuid-5303ac49-bb6a-437c-bc26-1b499253d5a5">
          <g class="uuid-64687e01-e3ef-4148-ae14-ad652fb1dc4b">
            <g class="uuid-9e62c5c3-ce68-4573-a443-d852352b6f3f">
              <path class="uuid-c4c62916-3c1a-4776-be70-cb13d22bb231" d="M68.14,63.51c.01,.32,.31,.57,.66,.55,.35-.01,.62-.28,.61-.6s-.31-.57-.66-.55c-.35,.01-.62,.28-.61,.6"></path>
            </g>
          </g>
        </g>
        <g class="uuid-efd13242-8b46-4e51-a3fa-da11e80b2cfa">
          <g class="uuid-8a367cfd-3656-4b6c-a2f9-28d2701b73e9">
            <g class="uuid-547e6aad-84ac-470d-b7d1-28b2a631b555">
              <path class="uuid-af2730da-25c5-49a7-a572-c17660df9a0d" d="M66.39,65.17c0,.16,.3,.28,.65,.27,.36-.01,.63-.16,.63-.32,0-.16-.3-.29-.65-.27-.36,.01-.64,.16-.63,.32"></path>
            </g>
          </g>
        </g>
        <g class="uuid-efd13242-8b46-4e51-a3fa-da11e80b2cfa">
          <g class="uuid-f202427c-3a7b-40ef-9bfb-53f42c364a93">
            <g class="uuid-f4001394-3c31-4074-be46-f1d49324f903">
              <path class="uuid-03162efc-28e4-46d8-8ca0-03999a48859f" d="M39.6,64.92s9.3-5.37,56.27-5.4l-2.55-3.89-8.7-.88-13.75-.46-12.23,.87-5.41,1.64-6.25,2.86-7.37,5.26Z"></path>
            </g>
          </g>
        </g>
        <polygon class="uuid-ca71ed38-4b16-4c98-bf72-bcbb76e8d1c6" points="81.32 88.21 83.86 90.85 104.88 89.73 106.42 87.65 105.49 83.49 103.12 79.56 99.59 77.25 96.53 76.14 91.38 76.55 88.2 77.76 84.96 80.19 83.17 83.5 81.32 88.21"></polygon>
        <path class="uuid-ca71ed38-4b16-4c98-bf72-bcbb76e8d1c6" d="M17.24,88.98l3.1,2.7,20.29-.19,1.93-1.7-.29-3.01-.95-3.7s-1.07-2.31-1.25-2.43c-.17-.12-2.37-2.43-2.37-2.43l-3.47-1.45-3.18-.69-3.82,.58-2.49,1.16-2.54,1.62-1.73,2.25-1.27,2.66-1.04,2.6-.92,2.02Z"></path>
        <path class="uuid-48c963f1-ee90-4862-9019-382e8e98758d" d="M74.15,54.75s.98,6.3,1.39,12.32l4.97-.29s-.69-5.87-3.18-12.03h-3.18Z"></path>
        <path class="uuid-48c963f1-ee90-4862-9019-382e8e98758d" d="M35.63,68.97l11.45-.58s-1.16-1.33-2.31-7.49c0,0-9.95,7.37-9.14,8.07"></path>
        <path class="uuid-1beb6ca1-b581-4c81-9046-0f715c2c57db" d="M77.6,76.73c-.39,5.97-1.4,7.98-2.45,9.41-.95,1.3-2.81,1.38-2.84,1.38-.92,.15-20.3,.46-27.2,.46-1.37,0-1.49-.98-1.57-1.64v-.12c-.45-3.29-.71-6.2-.86-8.71-.13-2.15-.18-4.01-.18-5.57,0-1.81,.06-3.2,.12-4.16,.64-.03,1.21-.05,1.59-.07,8.05-.35,32.19-1.37,32.19-1.37l1.3-.06c.03,1.33,.05,2.57,.06,3.72v.19c.01,2.59-.05,4.74-.17,6.53m31.74,7.12c-.15,1.33-.37,2.34-.68,3.13-.42,1.07-.99,1.71-1.71,2.12-.52,.29-1.29,.57-2.08,.63,.03-.35,.05-1.17,.05-1.53s-.02-.68-.05-1.01c-.51-5.43-5.08-9.69-10.65-9.69-5.87,0-10.63,4.72-10.7,10.57,0,.04,0,.08,0,.13,0,.91,.12,1.8,.33,2.65-8.54,.25-27.56,.49-43.22,.65,.26-.81,.43-1.66,.49-2.54,.02-.25,.03-.5,.03-.75,0-5.31-3.86-9.71-8.93-10.55-.58-.1-1.17-.15-1.77-.15-.67,0-1.32,.06-1.96,.18-4.97,.92-8.74,5.28-8.74,10.52,0,.33,.01,.66,.05,.99,.08,.87,.27,1.71,.54,2.5-2.47,.02-3.91,.03-3.91,.03-4.07-.21-5.88-1.29-6.81-2.62-.41-.59-.65-1.24-.83-1.88-.1-.35-.18-.69-.27-1.02-.68-2.6-.83-4.4-.74-5.63,.15-2.16,1.02-2.58,1.02-2.58-.02-.08-.03-.15-.05-.23-.38-1.81,.02-2.77,.59-3.4h0c.19-.21,.4-.38,.61-.54,.59-.45,1.18-.86,1.77-1.25,.05-.03,.09-.07,.14-.09,1.89-1.24,3.71-2.18,5.33-2.88,3.91-1.7,6.71-2.06,6.71-2.06,2.95-.27,4.43-.31,4.43-.31,.05-.03,.1-.06,.15-.1,8.78-5.62,20.9-10.54,20.9-10.54,.86-.36,1.73-.68,2.62-.97,.22-.07,.44-.14,.66-.21,6.04-1.94,12.14-2.07,18.62-2.09,10.6-.03,29.45,1.93,29.45,1.93-.28,.58-.97,1.46-.97,1.46,.52,.44,1,.94,1.44,1.46,1.27,1.49,2.25,3.28,3.02,5.12,.02,.05,.04,.09,.06,.14,.17,.4,.32,.81,.47,1.22,.16,.43,.3,.87,.44,1.3,.25,.81,.47,1.62,.66,2.39,.08,.33,.16,.67,.23,.99,.71,3.29,.85,5.82,.85,5.82,.22,.06,.41,.15,.6,.26,2.29,1.38,2.04,6.24,1.79,8.45m-13.93-23.19c-.18-.25-.42-.55-.68-.89-.02-.02-.04-.05-.06-.08-.98-1.24-2.28-2.78-2.28-2.78-.48-.69-.83-.7-1.18-.73-.48-.04-1.11-.09-1.84-.14-.07,0-.13,0-.2-.01-3.99-.27-10.85-.63-14.17-.65-9.96-.04-11.26,.08-15.08,.39-4.15,.35-6.63,1.37-8.65,2.39-4.89,2.47-8.11,4.89-10.17,6.54-.47,.38-.88,.73-1.24,1.06-.56,.5-.98,.93-1.29,1.27-.38,.41-.6,.7-.7,.85-.05,.07-.08,.11-.08,.11,0,0,.02,0,.05,0,.36-.01,2.7-.12,4.55-.2,.08,0,.15,0,.23,0,.64-.03,1.21-.05,1.59-.07,8.05-.35,32.19-1.37,32.19-1.37l1.3-.06h.23s.38-.02,.38-.02c2.14-.47,3.62-.88,3.62-.88,4.2-1.12,7.12-1.89,7.12-1.89,.39-.1,.75-.2,1.1-.29,.58-.15,1.11-.3,1.58-.43,.07-.02,.13-.04,.2-.06,2.08-.6,3.02-.96,3.02-.96,1.09-.42,.46-1.09,.46-1.09m-17.82,16.07c-.39,5.97-1.4,7.98-2.45,9.41-.95,1.3-2.81,1.38-2.84,1.38-.92,.15-20.3,.46-27.2,.46-1.37,0-1.49-.98-1.57-1.64v-.12c-.45-3.29-.71-6.2-.86-8.71-.13-2.15-.18-4.01-.18-5.57,0-1.81,.06-3.2,.12-4.16,.64-.03,1.21-.05,1.59-.07,8.05-.35,32.19-1.37,32.19-1.37l1.3-.06c.03,1.33,.05,2.57,.06,3.72v.19c.01,2.59-.05,4.74-.17,6.53"></path>
        <g class="uuid-a4ca8292-9799-47a6-8109-683e89bfc0d6">
          <g class="uuid-d2653b1a-8ad5-4d4a-a85d-6130136ed7f5">
            <g class="uuid-840dbba3-59dd-439c-b50f-62141d4624b9">
              <path class="uuid-8b9a18ac-db4c-4b14-abb9-b778c5b02d86" d="M109.35,83.85c-.34,3.12-1.14,4.53-2.39,5.24-.52,.29-1.29,.57-2.08,.63,.03-.35,.05-1.17,.05-1.53,0-5.91-4.79-10.7-10.7-10.7s-10.7,4.79-10.7,10.7c0,.91,.12,1.8,.33,2.65-8.54,.25-27.56,.48-43.22,.65,.34-1.04,.52-2.15,.52-3.3,0-5.31-3.86-9.71-8.93-10.55,3.3-.03,6.81-.07,10.46-.13,10.76-.15,22.83-.4,34.91-.79,10.23-.33,20.47-.76,29.95-1.33,2.29,1.38,2.04,6.24,1.8,8.45"></path>
            </g>
          </g>
        </g>
        <g class="uuid-a4ca8292-9799-47a6-8109-683e89bfc0d6">
          <g class="uuid-b67e9651-992b-4910-b719-ccc32e2bc83b">
            <g class="uuid-bf2f87da-2a59-4e4d-b01b-0e58dc25af82">
              <path class="uuid-8b9a18ac-db4c-4b14-abb9-b778c5b02d86" d="M8.75,77.77c4.29,0,.56,.28,19.75-.09-4.98,.92-8.74,5.28-8.74,10.52,0,1.22,.21,2.39,.59,3.49-2.47,.02-3.91,.03-3.91,.03-5.89-.3-7.05-2.42-7.64-4.5-.1-.34-.18-.69-.27-1.02-.68-2.6-.83-4.4-.74-5.63,.15-2.16,1.02-2.58,1.02-2.58-.02-.08-.03-.15-.05-.22"></path>
            </g>
          </g>
        </g>
        <g class="uuid-9bca0493-0e70-4c89-abe5-e32a7d9f28d5">
          <g class="uuid-91818fd1-76a4-4fa9-b71f-c9e1702c1425">
            <g class="uuid-a68051df-0473-4a50-831c-9aa906bd41f8">
              <path class="uuid-66c94bc4-e556-4801-a4f5-1866728f9998" d="M105.22,65.95c-4.87,1.94-19.74,3.51-27.44,4.25-2.53,.24-4.29,.4-4.67,.45,0,0-14.16,.74-30.6,1.3-10.34,.36-21.6,.64-30.78,.63,.05-.03,.09-.06,.14-.09,1.89-1.24,3.71-2.17,5.33-2.88,4.67-.38,12.23-1,20.67-1.72-.05,.07-.08,.11-.08,.11,0,0,.02,0,.05,0,.37-.02,2.7-.12,4.55-.2,.08,0,.15,0,.23,0,.64-.03,1.21-.05,1.59-.07,8.05-.34,32.19-1.37,32.19-1.37l1.3-.06h.23s.38-.03,.38-.03c2.14-.46,3.62-.88,3.62-.88,4.2-1.12,7.12-1.89,7.12-1.89,.39-.1,.75-.2,1.1-.29,.58-.15,1.11-.3,1.58-.44,.07-.02,.14-.04,.2-.06,2.08-.6,3.02-.96,3.02-.96,1.09-.42,.46-1.09,.46-1.09-.18-.25-.42-.55-.68-.89,2.41-.54,4.63-1.08,6.49-1.6,1.27,1.49,2.25,3.28,3.02,5.12,.02,.04,.04,.09,.06,.13,.17,.4,.32,.81,.47,1.22,.16,.44,.3,.87,.44,1.3"></path>
            </g>
          </g>
        </g>
        <path class="uuid-03162efc-28e4-46d8-8ca0-03999a48859f" d="M53.22,55.97c-12.36,5.37-19.36,11.62-19.36,11.62-1.4-.13-4.66-.29-5.36-.44,8.78-5.62,20.9-10.54,20.9-10.54,.86-.36,1.73-.68,2.62-.97,.57,.19,1.2,.34,1.2,.34"></path>
        <path class="uuid-5c2284ff-8c37-45d5-bfab-6631ed59f1e1" d="M23.09,70.13c-.08,.13-.23,.25-.31,.31-.55,.38-1.3,.76-2.12,1.13,0,0,0,0,0,0,0,0-.01,0-.02,0-.12,.06-.25,.11-.38,.17-.11,.05-.22,.09-.32,.14-.17,.07-.33,.15-.5,.22-.12,.05-.23,.1-.34,.15-.22,.09-.44,.19-.66,.28-.15,.06-.29,.13-.43,.19-.14,.06-.28,.13-.41,.19-.14,.06-.27,.12-.4,.18-.25,.12-.5,.25-.72,.37-.16,.09-.32,.19-.45,.28,0,0-.02,.01-.03,.02-.03,.02-.05,.04-.08,.06-.02,.01-.04,.03-.06,.05-.09,.08-.16,.17-.2,.27,0,.01-.02,.03-.02,.05-.02,.05-.04,.1-.05,.16,0,.02,0,.04-.01,.06,0,.02,0,.03,0,.05,0,.13,.01,.26,.05,.36,.01,.03,.03,.06,.04,.08,.43,.66-.27,.8-.27,.8-2.98,.62-3.44,.63-3.44,.63-1.14,.15-2.04,.19-2.72,.19,.03-.58,.07-1.12,.1-1.63l.03-.49h0c.19-.21,.4-.38,.61-.54,.64-.48,1.28-.93,1.91-1.34,3.49-1.25,7.65-2.21,10.16-2.62,1.13-.18,1.21,.04,1.07,.26"></path>
        <path class="uuid-52d06300-00db-4a4f-a179-cb1899336af7" d="M19.08,72.21v.02c-1.19,.51-2.35,1-3.08,1.49-.01,0-.02,.01-.03,.02-.47,.32-.48,.78-.38,1.04l-4.78,.32,.18-1.95,2.54-.29,5.54-.65Z"></path>
        <path class="uuid-47190e6e-8945-4306-af08-ebd5017305ce" d="M20.8,71.48c-.05,.03-.11,.06-.16,.08-.51,.23-1.03,.45-1.55,.67-1.19,.51-2.34,1-3.07,1.49l-2.55,.08,.17-1.82,7.39-.84c.02,.19-.22,.32-.22,.32"></path>
        <g class="uuid-667fe587-42e1-4fb2-8c9a-83f58ff18e38">
          <g class="uuid-eeac6ae7-9098-4349-bf10-69d675ed153d">
            <g class="uuid-e5135a54-1b22-447b-9451-eeb837e86a8a">
              <path class="uuid-7fd860ad-5a0f-43a8-b930-aeba2e8cf1bb" d="M23.09,70.13c-2.07,.43-3.95,.91-5.64,1.43h0s0,0,0,0c-1.33,.41-2.55,.84-3.65,1.27h0c-.09,.04-.17,.07-.26,.1-.96,.38-1.84,.77-2.62,1.13-.59,.28-1.12,.54-1.61,.8l.03-.49h0c.19-.21,.4-.38,.61-.54,.64-.48,1.28-.93,1.91-1.34,3.49-1.25,7.65-2.21,10.16-2.62,1.13-.18,1.21,.04,1.07,.26"></path>
            </g>
          </g>
        </g>
        <path class="uuid-fbb91f45-f139-49d6-a196-b05ae3dda28e" d="M105.88,68.34c-.29-1.18-.65-2.44-1.1-3.69-.15-.41-.3-.81-.47-1.22-2.19,1.81-7.22,6.25-3.53,6.24,2.01,0,3.86-.14,5.32-.28,0-.02,0-.04,0-.06l-.23-.99Z"></path>
        <path class="uuid-962cb3a8-be97-4ea2-a18b-e1716fc2c637" d="M105.88,68.34c-.69,.03-1.42,.05-2.18,.06-2.35,0-.75-2.01,1.08-3.75,.45,1.26,.82,2.51,1.1,3.69"></path>
        <path class="uuid-1739694c-e640-4dc0-902c-27cecbd32f3f" d="M75.34,86.28c-1.01,1.39-2.92,1.47-3,1.47-.91,.15-20.32,.46-27.22,.46-1.57,0-1.72-1.2-1.8-1.84v-.11c-1.25-9.37-1.1-15.68-.92-18.46,.08,0,.15,0,.23,0-.18,2.75-.33,9.05,.91,18.44v.12c.1,.65,.22,1.64,1.58,1.64,6.9,0,26.27-.31,27.2-.46,.03,0,1.89-.08,2.84-1.38,1.51-2.06,2.93-5.31,2.56-19.85h.23c.38,14.6-1.07,17.89-2.6,19.98"></path>
        <path class="uuid-1037a41f-d26b-40ba-87e4-005adda20974" d="M20.92,87.67c-.04,5.23,4.16,9.51,9.39,9.55,5.23,.04,9.51-4.16,9.55-9.39,.04-5.23-4.16-9.51-9.4-9.55-5.23-.04-9.51,4.16-9.55,9.39"></path>
        <path class="uuid-92aa3ceb-8d1a-4ad6-93a2-169bff459278" d="M23.36,87.75c0,3.88,3.15,7.03,7.03,7.03s7.03-3.15,7.03-7.03-3.15-7.03-7.03-7.03-7.03,3.15-7.03,7.03"></path>
        <path class="uuid-ca71ed38-4b16-4c98-bf72-bcbb76e8d1c6" d="M24.42,87.75c0,.29,.02,.57,.06,.84,.05,.36,.13,.71,.25,1.05,.71,2.14,2.6,3.74,4.89,4.03h0c.25,.03,.51,.05,.77,.05,.1,0,.19,0,.29,0,2.57-.12,4.71-1.86,5.42-4.23,.1-.34,.17-.69,.21-1.05,.03-.23,.04-.46,.04-.69,0-1.92-.91-3.63-2.32-4.72-.28-.22-.57-.41-.88-.57-.83-.44-1.77-.68-2.77-.68-1.09,0-2.12,.29-2.99,.8-.04,.02-.07,.04-.11,.06-.27,.17-.53,.35-.77,.56-.03,.02-.06,.05-.08,.07-1.24,1.1-2.02,2.69-2.02,4.47"></path>
        <path class="uuid-1037a41f-d26b-40ba-87e4-005adda20974" d="M35.91,89.07c0,.23-.17,.42-.38,.42h-1.11c-.21,0-.38-.19-.38-.42v-3.12c0-.23,.17-.42,.38-.42h1.11c.21,0,.38,.19,.38,.42v3.12Z"></path>
        <path class="uuid-48c963f1-ee90-4862-9019-382e8e98758d" d="M34.64,87.47c0,2.35-1.9,4.25-4.25,4.25s-4.25-1.9-4.25-4.25,1.9-4.25,4.25-4.25,4.25,1.9,4.25,4.25"></path>
        <path class="uuid-1f77bda6-74f2-4346-96d0-7dad980a8a8d" d="M30.57,86.88l.45,.2,3.02-4.05c-.28-.22-.57-.41-.88-.57l-2.59,4.41Z"></path>
        <path class="uuid-1f77bda6-74f2-4346-96d0-7dad980a8a8d" d="M26.52,83.21l3.34,4.06,.34-.36-2.81-4.32s-.07,.04-.1,.06c-.27,.17-.53,.35-.77,.56"></path>
        <path class="uuid-1f77bda6-74f2-4346-96d0-7dad980a8a8d" d="M24.48,88.6c.05,.36,.13,.71,.25,1.05l5.09-1.85-.23-.55-5.11,1.35Z"></path>
        <path class="uuid-1f77bda6-74f2-4346-96d0-7dad980a8a8d" d="M29.62,93.67c.25,.03,.51,.05,.77,.05,.1,0,.19,0,.29,0l-.04-5.37h-.55l-.47,5.32Z"></path>
        <path class="uuid-1f77bda6-74f2-4346-96d0-7dad980a8a8d" d="M31.17,87.8l4.93,1.69c.1-.34,.17-.69,.21-1.05l-5-1.2-.15,.55Z"></path>
        <path class="uuid-698f9c2f-3b0e-4839-8798-f922a061111a" d="M29.2,87.75c0,.66,.53,1.19,1.19,1.19s1.19-.53,1.19-1.19-.53-1.19-1.19-1.19-1.19,.53-1.19,1.19"></path>
        <path class="uuid-ca71ed38-4b16-4c98-bf72-bcbb76e8d1c6" d="M29.52,87.75c0,.48,.39,.87,.87,.87s.87-.39,.87-.87-.39-.87-.87-.87-.87,.39-.87,.87"></path>
        <path class="uuid-fab6ffad-49c3-49e9-8274-603982f10fa4" d="M29.89,85.16c0,.21,.18,.38,.4,.38s.39-.17,.39-.38-.18-.38-.39-.38-.4,.17-.4,.38"></path>
        <path class="uuid-fab6ffad-49c3-49e9-8274-603982f10fa4" d="M27.93,86.56c0,.19,.15,.34,.34,.34s.34-.15,.34-.34-.15-.34-.34-.34-.34,.15-.34,.34"></path>
        <path class="uuid-fab6ffad-49c3-49e9-8274-603982f10fa4" d="M28.41,89.29c0,.19,.15,.34,.34,.34s.34-.15,.34-.34-.15-.34-.34-.34-.34,.15-.34,.34"></path>
        <path class="uuid-fab6ffad-49c3-49e9-8274-603982f10fa4" d="M31.5,89.29c0,.19,.15,.34,.34,.34s.34-.15,.34-.34-.15-.34-.34-.34-.34,.15-.34,.34"></path>
        <path class="uuid-fab6ffad-49c3-49e9-8274-603982f10fa4" d="M32.1,86.55c0,.19,.15,.34,.34,.34s.34-.15,.34-.34-.15-.34-.34-.34-.34,.15-.34,.34"></path>
        <path class="uuid-0851fa8e-6162-4a4b-8c77-25fafbd5c888" d="M30.57,85.11c0-.07-.04-.12-.09-.17-.05-.05-.12-.08-.2-.08-.08,0-.14,.04-.19,.08-.05,.05-.08,.1-.1,.16,.06-.03,.1-.06,.16-.09,.05-.02,.09-.04,.14-.04,.09,0,.18,.06,.28,.14"></path>
        <path class="uuid-0851fa8e-6162-4a4b-8c77-25fafbd5c888" d="M28.35,86.28c-.06,0-.13,.01-.19,.04-.06,.03-.11,.09-.13,.17-.01,.08,0,.15,.04,.21,.03,.06,.08,.1,.13,.14-.01-.06-.03-.12-.05-.17-.01-.05-.02-.1,0-.14,.01-.09,.1-.16,.2-.24"></path>
        <path class="uuid-0851fa8e-6162-4a4b-8c77-25fafbd5c888" d="M28.53,89.09c-.04,.05-.06,.12-.06,.19,0,.07,.03,.14,.09,.2,.06,.05,.13,.07,.2,.07,.07,0,.13-.02,.18-.05-.06-.02-.12-.02-.17-.04-.05-.02-.1-.03-.13-.07-.07-.06-.09-.16-.11-.29"></path>
        <path class="uuid-0851fa8e-6162-4a4b-8c77-25fafbd5c888" d="M31.66,89.49c.05,.04,.12,.06,.18,.06s.14-.03,.2-.09c.05-.06,.07-.13,.07-.2,0-.07-.02-.13-.05-.18-.02,.06-.02,.12-.04,.17-.02,.05-.03,.1-.07,.13-.06,.07-.16,.09-.29,.11"></path>
        <path class="uuid-0851fa8e-6162-4a4b-8c77-25fafbd5c888" d="M32.43,86.84c.06,0,.12-.04,.17-.09,.05-.05,.09-.12,.08-.2,0-.08-.04-.14-.08-.19-.05-.05-.1-.08-.16-.1,.03,.06,.06,.1,.09,.16,.02,.05,.04,.09,.04,.14,0,.09-.06,.18-.14,.28"></path>
        <path class="uuid-698f9c2f-3b0e-4839-8798-f922a061111a" d="M29.82,86.55c-.07-.16-.15-.32-.22-.48l-.3-.43-.6-.87-.6-.87-.3-.43c-.13-.13-.24-.26-.37-.38,.07,.16,.15,.32,.22,.48l.3,.43,.6,.87,.6,.87,.3,.44c.13,.13,.24,.26,.37,.38"></path>
        <path class="uuid-cbb2fc38-9393-45ed-a589-d44c2284075d" d="M28.75,88.03c-.18,.02-.35,.05-.53,.08l-.5,.17-1,.34-1,.33-.5,.17c-.16,.08-.32,.16-.47,.25,.18-.02,.35-.06,.53-.08l.5-.17,1-.33,1-.33,.5-.17c.16-.08,.32-.16,.47-.25"></path>
        <path class="uuid-cbb2fc38-9393-45ed-a589-d44c2284075d" d="M35.77,89.04c-.16-.09-.32-.16-.48-.23l-.51-.15-1.01-.3-1.01-.3-.51-.15c-.18-.02-.35-.05-.53-.06,.16,.08,.32,.16,.48,.23l.51,.15,1.01,.3,1.01,.29,.51,.15c.18,.02,.35,.05,.53,.06"></path>
        <path class="uuid-698f9c2f-3b0e-4839-8798-f922a061111a" d="M30.38,93.5c.04-.18,.06-.35,.09-.53v-1.58s0-1.05,0-1.05v-.53c-.03-.18-.05-.35-.08-.53-.04,.17-.06,.35-.09,.53v.53s0,1.06,0,1.06v1.05s0,.53,0,.53c.03,.18,.05,.35,.09,.53"></path>
        <path class="uuid-cbb2fc38-9393-45ed-a589-d44c2284075d" d="M33.71,83.07c-.13,.12-.25,.25-.38,.37l-.31,.43-.62,.85-.62,.85-.31,.43c-.08,.16-.16,.31-.24,.48,.13-.12,.25-.25,.38-.37l.31-.43,.62-.85,.62-.85,.31-.43c.08-.16,.17-.31,.24-.48"></path>
        <path class="uuid-c14e8a67-f4a9-4b04-b100-7135a9cdbe1d" d="M30.39,94.3c3.61,0,6.54-2.93,6.54-6.54s-2.93-6.55-6.54-6.55-6.54,2.94-6.54,6.55,2.93,6.54,6.54,6.54m0-12.97c3.54,0,6.42,2.88,6.42,6.42s-2.88,6.42-6.42,6.42-6.42-2.88-6.42-6.42,2.88-6.42,6.42-6.42"></path>
        <g class="uuid-a4ca8292-9799-47a6-8109-683e89bfc0d6">
          <g class="uuid-55289580-20ad-45ef-ba65-2b5edd1b8340">
            <g class="uuid-51c4d2d2-0910-484f-88f9-f12c713e8622">
              <path class="uuid-21ba4204-6042-4065-9846-d59e05639f3d" d="M74.57,69.88s-1.7-.35-2.39-.31c-.7,.04-1.44,.27-1.91,.58l-.43,.02c-.39,.02-.69,.38-.67,.69,.02,.31,.36,.6,.75,.57l.47-.03c.5,.23,1.24,.36,1.92,.31,.68-.04,1.4-.26,1.87-.55l.47-.03c.39-.02,.7-.35,.68-.66-.02-.31-.36-.63-.75-.6"></path>
            </g>
          </g>
        </g>
        <g class="uuid-9bca0493-0e70-4c89-abe5-e32a7d9f28d5">
          <g class="uuid-ae0c1357-804d-4123-aab5-fbae2ff688ed">
            <g class="uuid-27b0d5a4-98ed-4883-b61b-1fd3d55e9813">
              <path class="uuid-66c94bc4-e556-4801-a4f5-1866728f9998" d="M69.35,70.85c.02,.29,.33,.51,.7,.49,0,0,1.67-.3,2.23-.34,.55-.03,2.22,.06,2.22,.06,.37-.02,.66-.28,.64-.57-.02-.29-.33-.51-.7-.49,0,0-1.66,.25-2.22,.29-.55,.03-2.23-.01-2.23-.01-.37,.02-.66,.28-.64,.57"></path>
            </g>
          </g>
        </g>
        <path class="uuid-1beb6ca1-b581-4c81-9046-0f715c2c57db" d="M48.46,64.92c-.06,.39-.16,.78-.28,1.11-.04,.12-.09,.22-.13,.32-.15,.32-.32,.54-.49,.59-.76,.22-4.15,.86-4.81-.12-.02-.03-.04-.06-.06-.09-.53-.97,.76-2.35,2.12-3.3,1.4-.98,2.23-1.08,3.11-.83,.26,.07,.43,.32,.52,.67,.12,.45,.1,1.06,.01,1.65"></path>
        <g class="uuid-9bca0493-0e70-4c89-abe5-e32a7d9f28d5">
          <g class="uuid-c5cf26aa-37ed-4736-9b18-2a01a4f3e7b7">
            <g class="uuid-077f2daf-969b-47ec-a300-5cf28ece5207">
              <path class="uuid-66c94bc4-e556-4801-a4f5-1866728f9998" d="M48.46,64.92c-.06,.39-.16,.78-.28,1.11-.04,.12-.09,.22-.13,.32-.15,.32-.32,.54-.49,.59-.76,.22-4.15,.86-4.81-.12-.02-.03-.04-.06-.06-.09,1.13-.93,3.84-3.06,5.75-3.46,.12,.45,.1,1.06,.01,1.65"></path>
            </g>
          </g>
        </g>
        <path class="uuid-47190e6e-8945-4306-af08-ebd5017305ce" d="M48.46,64.92c-.06,.39-.16,.78-.28,1.11h-2.57v-1.11h2.84Z"></path>
        <path class="uuid-1037a41f-d26b-40ba-87e4-005adda20974" d="M84.62,87.67c-.04,5.23,4.16,9.51,9.39,9.55,5.23,.04,9.51-4.16,9.55-9.39,.04-5.23-4.16-9.51-9.39-9.55s-9.51,4.16-9.55,9.39"></path>
        <path class="uuid-92aa3ceb-8d1a-4ad6-93a2-169bff459278" d="M87.06,87.75c0,3.88,3.15,7.03,7.03,7.03s7.03-3.15,7.03-7.03-3.15-7.03-7.03-7.03-7.03,3.15-7.03,7.03"></path>
        <path class="uuid-ca71ed38-4b16-4c98-bf72-bcbb76e8d1c6" d="M88.12,87.75c0,.29,.02,.57,.06,.84,.05,.36,.13,.71,.25,1.05,.71,2.14,2.6,3.74,4.89,4.03h0c.25,.03,.51,.05,.77,.05,.1,0,.19,0,.29,0,2.56-.12,4.71-1.86,5.42-4.23,.1-.34,.17-.69,.21-1.05,.03-.22,.04-.46,.04-.69,0-1.92-.91-3.63-2.32-4.72-.28-.22-.57-.41-.88-.57-.83-.44-1.77-.68-2.77-.68-1.09,0-2.12,.29-2.99,.81-.04,.02-.07,.04-.11,.06-.27,.17-.53,.35-.77,.56-.03,.02-.06,.05-.08,.07-1.24,1.1-2.02,2.69-2.02,4.47"></path>
        <path class="uuid-1037a41f-d26b-40ba-87e4-005adda20974" d="M99.61,89.07c0,.23-.17,.42-.38,.42h-1.11c-.21,0-.38-.19-.38-.42v-3.12c0-.23,.17-.42,.38-.42h1.11c.21,0,.38,.19,.38,.42v3.12Z"></path>
        <path class="uuid-48c963f1-ee90-4862-9019-382e8e98758d" d="M98.34,87.47c0,2.35-1.9,4.25-4.25,4.25s-4.25-1.9-4.25-4.25,1.9-4.25,4.25-4.25,4.25,1.9,4.25,4.25"></path>
        <path class="uuid-1f77bda6-74f2-4346-96d0-7dad980a8a8d" d="M94.27,86.88l.45,.2,3.02-4.05c-.28-.22-.57-.41-.88-.57l-2.59,4.41Z"></path>
        <path class="uuid-1f77bda6-74f2-4346-96d0-7dad980a8a8d" d="M90.22,83.21l3.34,4.06,.34-.36-2.81-4.32s-.07,.04-.1,.06c-.27,.17-.53,.35-.77,.56"></path>
        <path class="uuid-1f77bda6-74f2-4346-96d0-7dad980a8a8d" d="M88.18,88.6c.05,.36,.13,.71,.25,1.05l5.09-1.84-.23-.55-5.11,1.35Z"></path>
        <path class="uuid-1f77bda6-74f2-4346-96d0-7dad980a8a8d" d="M93.32,93.67c.25,.03,.51,.05,.77,.05,.1,0,.19,0,.29,0l-.04-5.37h-.55l-.47,5.32Z"></path>
        <path class="uuid-1f77bda6-74f2-4346-96d0-7dad980a8a8d" d="M94.87,87.8l4.93,1.69c.1-.33,.17-.69,.21-1.05l-5-1.2-.15,.55Z"></path>
        <path class="uuid-698f9c2f-3b0e-4839-8798-f922a061111a" d="M92.9,87.75c0,.66,.53,1.19,1.19,1.19s1.19-.53,1.19-1.19-.53-1.19-1.19-1.19-1.19,.53-1.19,1.19"></path>
        <path class="uuid-ca71ed38-4b16-4c98-bf72-bcbb76e8d1c6" d="M93.22,87.75c0,.48,.39,.87,.87,.87s.87-.39,.87-.87-.39-.87-.87-.87-.87,.39-.87,.87"></path>
        <path class="uuid-fab6ffad-49c3-49e9-8274-603982f10fa4" d="M93.59,85.16c0,.21,.18,.38,.4,.38s.39-.17,.39-.38-.18-.38-.39-.38-.4,.17-.4,.38"></path>
        <path class="uuid-fab6ffad-49c3-49e9-8274-603982f10fa4" d="M91.63,86.56c0,.19,.15,.34,.34,.34s.34-.15,.34-.34-.15-.34-.34-.34-.34,.15-.34,.34"></path>
        <path class="uuid-fab6ffad-49c3-49e9-8274-603982f10fa4" d="M92.11,89.29c0,.19,.15,.34,.34,.34s.34-.15,.34-.34-.15-.34-.34-.34-.34,.15-.34,.34"></path>
        <path class="uuid-fab6ffad-49c3-49e9-8274-603982f10fa4" d="M95.2,89.29c0,.19,.15,.34,.34,.34s.34-.15,.34-.34-.15-.34-.34-.34-.34,.15-.34,.34"></path>
        <path class="uuid-fab6ffad-49c3-49e9-8274-603982f10fa4" d="M95.79,86.55c0,.19,.15,.34,.34,.34s.34-.15,.34-.34-.15-.34-.34-.34-.34,.15-.34,.34"></path>
        <path class="uuid-0851fa8e-6162-4a4b-8c77-25fafbd5c888" d="M94.27,85.11c0-.07-.04-.12-.09-.17-.05-.05-.12-.08-.2-.08-.08,0-.14,.04-.19,.08s-.08,.1-.1,.16c.06-.03,.1-.06,.16-.09,.05-.02,.09-.04,.14-.04,.09,0,.18,.06,.28,.14"></path>
        <path class="uuid-0851fa8e-6162-4a4b-8c77-25fafbd5c888" d="M92.05,86.28c-.06,0-.13,.01-.19,.04-.06,.03-.11,.09-.13,.17-.01,.08,0,.15,.04,.21,.03,.06,.08,.1,.13,.14-.01-.06-.04-.12-.05-.17-.01-.06-.02-.1,0-.15,.01-.09,.1-.16,.2-.24"></path>
        <path class="uuid-0851fa8e-6162-4a4b-8c77-25fafbd5c888" d="M92.23,89.09c-.04,.05-.06,.12-.06,.19s.03,.14,.09,.2c.06,.05,.13,.07,.2,.07,.07,0,.13-.02,.18-.05-.06-.01-.12-.02-.17-.04-.05-.02-.1-.03-.13-.07-.07-.06-.09-.16-.11-.29"></path>
        <path class="uuid-0851fa8e-6162-4a4b-8c77-25fafbd5c888" d="M95.36,89.49c.05,.04,.12,.06,.18,.06s.14-.03,.2-.09c.05-.06,.07-.13,.07-.2,0-.07-.02-.13-.05-.18-.02,.06-.02,.12-.04,.17-.02,.05-.03,.1-.07,.13-.06,.07-.16,.09-.29,.11"></path>
        <path class="uuid-0851fa8e-6162-4a4b-8c77-25fafbd5c888" d="M96.13,86.84c.06,0,.12-.04,.17-.09,.05-.05,.09-.12,.08-.2,0-.08-.04-.14-.08-.19-.05-.05-.1-.08-.16-.1,.03,.06,.06,.1,.09,.16,.02,.05,.04,.09,.04,.14,0,.09-.06,.18-.14,.28"></path>
        <path class="uuid-698f9c2f-3b0e-4839-8798-f922a061111a" d="M93.52,86.55c-.07-.16-.15-.32-.22-.48l-.3-.43-.6-.87-.6-.87-.3-.44c-.13-.13-.24-.26-.37-.38,.07,.16,.15,.32,.22,.48l.3,.43,.6,.87,.6,.87,.3,.44c.13,.13,.24,.26,.37,.38"></path>
        <path class="uuid-cbb2fc38-9393-45ed-a589-d44c2284075d" d="M92.45,88.03c-.18,.02-.35,.05-.53,.08l-.5,.17-1,.34-1,.33-.5,.17c-.16,.08-.32,.16-.47,.25,.18-.02,.35-.06,.53-.08l.5-.17,1-.33,1-.33,.5-.17c.16-.08,.31-.16,.47-.25"></path>
        <path class="uuid-cbb2fc38-9393-45ed-a589-d44c2284075d" d="M99.47,89.03c-.16-.09-.32-.16-.48-.23l-.51-.15-1.01-.3-1.01-.29-.51-.15c-.18-.02-.35-.05-.53-.06,.16,.09,.32,.16,.48,.23l.51,.15,1.01,.3,1.01,.29,.51,.15c.18,.02,.35,.05,.53,.06"></path>
        <path class="uuid-698f9c2f-3b0e-4839-8798-f922a061111a" d="M94.08,93.5c.04-.18,.06-.35,.09-.53v-1.58s0-1.05,0-1.05v-.53c-.03-.18-.05-.35-.08-.53-.04,.17-.06,.35-.09,.53v.53s0,1.06,0,1.06v1.05s0,.53,0,.53c.03,.17,.05,.35,.09,.53"></path>
        <path class="uuid-cbb2fc38-9393-45ed-a589-d44c2284075d" d="M97.41,83.07c-.13,.12-.26,.25-.38,.37l-.31,.43-.62,.85-.62,.85-.31,.43c-.08,.16-.16,.32-.24,.48,.13-.12,.25-.25,.38-.37l.31-.43,.62-.85,.62-.85,.31-.43c.08-.16,.17-.31,.24-.48"></path>
        <path class="uuid-c14e8a67-f4a9-4b04-b100-7135a9cdbe1d" d="M94.09,94.3c3.61,0,6.54-2.93,6.54-6.54s-2.93-6.55-6.54-6.55-6.54,2.94-6.54,6.55,2.93,6.54,6.54,6.54m0-12.97c3.54,0,6.42,2.88,6.42,6.42s-2.88,6.42-6.42,6.42-6.42-2.88-6.42-6.42,2.88-6.42,6.42-6.42"></path>
        <path class="uuid-bff39337-880a-4bf7-943f-76a3a94c2f93" d="M10.56,85.52c0,.12,0,.23-.01,.34,0,.06,0,.11-.01,.16-.06,.75-.25,1.19-.66,1.22-.36,.03-.74,.02-1.09-.02-.1-.34-.18-.69-.27-1.02-.68-2.6-.82-4.4-.74-5.63,.68-.06,2.29-.14,2.39,.3,.05,.24,.1,.47,.13,.72h0c.14,.89,.2,1.86,.25,3.21,0,.26,0,.5,0,.72"></path>
        <path class="uuid-1ca62bf2-2a2a-4cdf-a232-40c13560c12b" d="M10.53,86.02c-.23-.18-.46-1.07-.54-2.16-.09-1.23,.04-2.24,.3-2.26h.01c.14,.89,.2,1.86,.24,3.2,.02,.47,.01,.88-.01,1.22"></path>
        <g class="uuid-ec45d0a2-b255-4bae-a674-77f16cf8de09">
          <g class="uuid-38ae124f-f469-4e6f-aaa4-7019795640c5">
            <g class="uuid-5d2e6d13-954f-43b8-8874-7aa5b8d15d68">
              <path class="uuid-8b9a18ac-db4c-4b14-abb9-b778c5b02d86" d="M83.53,88.2c0,.91,.12,1.8,.33,2.65-8.54,.25-27.56,.49-43.23,.65,.27-.81,.43-1.66,.49-2.54,.74,0,1.49-.02,2.24-.02,10.89-.13,23.1-.35,35.33-.7,1.61-.05,3.22-.1,4.83-.15,0,.04,0,.09,0,.13"></path>
            </g>
          </g>
        </g>
        <g class="uuid-ec45d0a2-b255-4bae-a674-77f16cf8de09">
          <g class="uuid-7fd91b8b-2bd3-4ba0-8438-34333858abb7">
            <g class="uuid-2b10de4a-c10d-469c-a61b-e063e96e99fb">
              <path class="uuid-8b9a18ac-db4c-4b14-abb9-b778c5b02d86" d="M108.66,86.98c-.42,1.07-.99,1.71-1.71,2.12-.52,.29-1.29,.57-2.08,.63,.03-.35,.06-1.17,.06-1.53s-.02-.68-.05-1.01c1.27-.06,2.53-.13,3.78-.2"></path>
            </g>
          </g>
        </g>
        <g class="uuid-ec45d0a2-b255-4bae-a674-77f16cf8de09">
          <g class="uuid-3cbcf570-5ee5-4f33-a1a3-38360ef672a1">
            <g class="uuid-2e4a16a9-a453-4d1a-a77a-06ae483d0646">
              <path class="uuid-8b9a18ac-db4c-4b14-abb9-b778c5b02d86" d="M20.35,91.69c-2.47,.02-3.91,.03-3.91,.03-4.07-.21-5.88-1.29-6.81-2.62,2.7,.03,1.73,.18,10.18,.09,.08,.87,.26,1.71,.54,2.5"></path>
            </g>
          </g>
        </g>
      </g>
    </g>
  </g>
</svg>
