<?xml version="1.0" encoding="UTF-8"?>
<svg xmlns="http://www.w3.org/2000/svg" xmlns:xlink="http://www.w3.org/1999/xlink" viewBox="0 0 120 120">
  <defs>
    <style>.uuid-ddf364df-eb29-4433-ae60-d58942d3ab77{clip-path:url(#uuid-6852a4d3-4ae6-42d4-b4d0-d78da68c48ef);}.uuid-b1b67d7e-04bb-49eb-b791-a10e41fb2780{fill:#fff;}.uuid-3105a56f-4617-46cf-8868-be293ab2e063{fill:#e8995a;}.uuid-65eef7d6-b9b7-4e20-8ec5-13c7a634e237{fill:#3d4448;}.uuid-8a01217f-4c2d-40e6-b08f-1da803db3db6{fill:#ffd613;}.uuid-4656a164-4224-4933-804d-736b133a7bcf{fill:#f5f5f5;}.uuid-a766a26a-3de1-4e9d-aa10-9485c20e16bb{fill:#998675;}.uuid-2f521d2f-f120-4a97-a82c-689ae26f3040{fill:#faf4e8;}.uuid-af49c840-7776-4699-8818-7453d77905e2{isolation:isolate;}.uuid-d31b2def-7ff6-469a-a7d9-33cb7ff04f0a{fill:#ffb880;}.uuid-886bf1e1-0a66-4309-bf36-97aaf44c1e5f{fill:#f58484;}.uuid-eadcbd18-7661-4399-8eaf-0cf288030500{fill:#f0c600;}.uuid-58c669d8-8fd9-466f-9497-b9b5e6d9c348{fill:#d4af00;}.uuid-6d8c293a-1dbe-4ee0-82bf-fd81c0fd0cd9{fill:#42300d;}.uuid-39d78eb2-1715-4d55-85d1-8a3e1158e9e7{fill:#820a00;}.uuid-b06a64f4-1def-4a21-8a94-693c6463fba7{fill:#f5b48e;}.uuid-f2cf5263-bdf7-45b8-9386-3586f51da855{fill:#8c0f04;}.uuid-e6daf0c8-3364-45c6-9175-b325f907e3c0{fill:#bdccd4;}.uuid-9eef5a81-2eab-4f72-8475-a65c0285712f{fill:#eda46b;}.uuid-b7fcf7ba-d45d-45e4-82e1-7a325fbe5ff5{fill:#0a5162;}.uuid-9f49872e-33f9-4a3e-8851-87b7285ec867{fill:#fbd3a8;}.uuid-804d3860-4faa-4bb8-92cc-5ef6f062911f{clip-path:url(#uuid-f7e411bf-0713-4104-aefe-afbaadd77cc8);}.uuid-cc00ce3e-e48d-437c-b95c-7bfbfd5fd435{fill:none;}.uuid-5889eb57-4c8b-49c0-9140-c8c9bb2f9aa7{fill:#ffbc87;}.uuid-dc3b6862-3d79-4eed-82d4-6664add43596{fill:#eef8fb;}.uuid-8a99fce7-ce22-4952-bec6-7895c5330e21{mix-blend-mode:multiply;}.uuid-9833aa01-1b94-4753-80f9-145c088696ab{fill:#1d1d1b;}</style>
    <clipPath id="uuid-6852a4d3-4ae6-42d4-b4d0-d78da68c48ef">
      <rect class="uuid-cc00ce3e-e48d-437c-b95c-7bfbfd5fd435" x="54.79" y="36.84" width="3.34" height="1.29"></rect>
    </clipPath>
    <clipPath id="uuid-f7e411bf-0713-4104-aefe-afbaadd77cc8">
      <rect class="uuid-cc00ce3e-e48d-437c-b95c-7bfbfd5fd435" x="54.79" y="36.84" width="3.34" height="1.29"></rect>
    </clipPath>
  </defs>
  <g class="uuid-af49c840-7776-4699-8818-7453d77905e2">
    <g id="uuid-8fb420ea-7d33-4f50-879f-755c713ef99a">
      <circle class="uuid-4656a164-4224-4933-804d-736b133a7bcf" cx="59.28" cy="60.91" r="50"></circle>
      <g>
        <path class="uuid-b1b67d7e-04bb-49eb-b791-a10e41fb2780" d="M46.69,64.96c.18-.18,.7-.48,1.34-.83l-.59-.34c2.55-2.66,4.53-5.65,5.61-7.41-.56-.96-1.29-2.23-1.34-4.23-.07-2.64,2.14-9.83,4.37-11.1,0,0,0,0,0,0l-.43-1s.04,.05,.11,.11c-.03-.03-.07-.06-.11-.11-.05-.05-.11-.11-.18-.19-1.17-.47-2.36-1.44-2.9-2.76-.57-1.41,.1-3.74,.82-5.57-.47-.1-.94-.24-1.07-.37-.31-.31-.85-3.64,2.15-4.69,1.42-.5,2.22-.22,2.22-.22,0,0,1.07-1.39,4.16-1,6.9,.88,8.89,10.5,4.81,14.29-.25,.24-.56,.39-.88,.44l3.4,1.47s1.72,.74,2.5,1.81c.46,.63,4.01,5.27,5.65,7.78,.74,1.13,.68,2.04,.34,2.6-.85,1.41-2.76,3.86-6.37,5.68,.43,1.02,.76,1.92,1.02,2.7h0c1.06,3.16,.93,4.41,.93,4.41,0,0-.13,.05-.36,.14,.21,2.04,.39,4.32,.3,5.81-.26,4.58,.05,19.33,.05,19.33,0,0-.43,.08-1.14,.21,0,1.14-.11,2.22-.35,3.07-.73,2.64-1.9,6.51-2.1,7.82-.14,.92,.1,1.66,.18,2.32h0s.06,.17,.03,.63c-.04,.57-.17,1.46-.16,1.71,.02,.37,0,1.59,.01,2.45,0,.22,0,.43-.03,.59-.12,.78-1.25,1.22-2.45,1.17-1.03-.04-2,.16-2.02-1.04,0-.2,.02-.44,.08-.73,.39-2,.67-2.84,.57-3.77-.02-.21,0-.39,.05-.53-.03-.37,.01-.96,.36-1.75,.41-.94,.73-1.65,.51-4.33-.12-1.44-.44-4.18-.64-6.74-1.16,.13-2.34,.24-3.45,.3l-1.36,19.09,.21,.02-.07,2.73-2.12-.15,.32-2.72h.2s1.35-18.93,1.35-18.93c-.17,0-.33,0-.49,0-.25,2.58-.62,5.38-.91,6.83-.52,2.63-.28,3.38,.02,4.36,.12,.4,.18,.74,.2,1.03,.03-.01,.05-.02,.05-.02l-.04,.31c0,.24-.04,.43-.08,.58l-.21,1.56-.04,1.33s-1.01,.42-1.35,.8c-.34,.38-.48,1.42-2.97,1.33-1.89-.07-2.71-.71-2.61-1.69,0-.04,0-.07,0-.08,.29-.38,2.61-2.44,2.73-2.72,.1-.24,.12-.8,.56-1.21,.08-.75,.54-1.53,.5-2.64-.04-1.32-.78-5.31-1.21-8.01-.12-.78-.19-1.71-.2-2.69-1.38-.55-1.87-1.14-1.87-1.14,0,0,.69-16.38,3.21-24.39-.17-.08-.34-.15-.5-.24,0,0-.21-1.49-.48-3.26-1.62,1.65-3.04,2.96-3.04,2.96l-.92-.52c-.15,.49-.39,1.24-.76,1.61-.53,.54-1.66,1.28-1.97,1.7-.31,.41-.9,.4-.85,.02,0-.02,.01-.05,.02-.08-.06,.02-.11,.03-.17,0-.37-.16-.77-.86-.77-1.27,0-.41-.15-.88-.19-1.29-.04-.4,.3-.89,.75-1.35m18.85-29.74c.03-.06,.05-.12,.08-.18-.02,.06-.05,.12-.08,.18m-11.91-5.76s0,0,0,0c0,0,0,0,0,0,0,0,0,0,0,0m9.3,7.93l-.2,1.48h0s-.03,.21-.03,.21h0s.52,.23,.52,.23c-.27-.43-.41-1.06-.29-1.92m6.44,14.89c-.08,.49-.16,.96-.24,1.41l1.29-.96s-.46-.16-1.05-.45m-12.44,57.06s-.06,.07-.1,.11c.03-.04,.06-.07,.1-.11m-8.49-42.08c.18-.13-.3-.53-.58,.17-.09,.24-.19,.49-.29,.72,.35-.41,.76-.82,.87-.89"></path>
        <path class="uuid-b1b67d7e-04bb-49eb-b791-a10e41fb2780" d="M47.34,70.75c.66,0,1.32-.33,1.75-.92,.08-.09,.46-.39,.71-.59,.4-.31,.81-.63,1.12-.95,.15-.16,.29-.34,.41-.53l.41,.24,.8-.74s.41-.38,.98-.93c.03,.22,.05,.34,.05,.34l.11,.79,.08,.04c-2.26,8.4-2.88,22.87-2.91,23.51l-.02,.59,.37,.45c.1,.12,.55,.62,1.54,1.15,.03,.7,.1,1.36,.19,1.95,.12,.77,.27,1.64,.42,2.53,.35,2.09,.75,4.45,.77,5.3,.01,.44-.1,.82-.23,1.27-.06,.21-.13,.43-.18,.66-.3,.43-.44,.87-.51,1.16-.27,.27-.81,.79-1.16,1.11-.88,.83-1.23,1.16-1.41,1.41-.15,.22-.31,.52-.31,.94-.05,.75,.17,1.43,.65,1.98,.69,.79,1.8,1.21,3.41,1.27,1.27,.04,2.14-.16,2.77-.49l-.46,3.91,5.25,.38,.14-5.76h-.14s1.16-16.29,1.16-16.29c.23-.02,.46-.04,.7-.06,.09,.99,.19,1.96,.28,2.85,.1,.94,.18,1.76,.23,2.35,.19,2.26-.04,2.78-.37,3.56-.35,.81-.52,1.55-.51,2.24-.05,.27-.06,.55-.03,.85,.05,.43-.05,.9-.27,1.94-.08,.39-.18,.84-.28,1.37-.08,.38-.11,.73-.11,1.04,.02,1.66,1.05,2.51,3.06,2.52,.13,0,.26,0,.39,0,2.1,.09,3.74-.92,3.98-2.44,.04-.24,.06-.51,.05-.84,0-.31,0-.66,0-1.01,0-.65,0-1.26-.01-1.51,0-.09,.04-.34,.07-.61,.04-.32,.07-.65,.09-.92,.03-.46,0-.79-.05-1.02-.02-.17-.05-.34-.09-.53-.08-.46-.15-.85-.09-1.29,.12-.84,.78-3.16,1.37-5.2,.24-.86,.49-1.7,.69-2.44,.18-.64,.29-1.38,.36-2.2l1.21-.23-.03-1.28c0-.15-.31-14.73-.06-19.2,.07-1.14,0-2.8-.2-4.92l.15-.06,.1-.9c.03-.26,.11-1.71-.96-4.93l-.04-.12c-.17-.49-.35-1-.55-1.53,3.23-1.93,4.97-4.27,5.76-5.57,.35-.57,1-2.13-.37-4.22-1.35-2.07-3.91-5.46-5.13-7.1-.28-.37-.47-.63-.56-.75-1-1.36-2.9-2.21-3.12-2.3l-1.15-.5c1.66-2.33,2.12-5.77,1.09-9.01-1.2-3.8-4.07-6.35-7.67-6.81-2.48-.32-4.01,.35-4.81,.92-.55-.02-1.31,.05-2.25,.38-1.71,.6-2.87,1.88-3.26,3.61-.27,1.19-.18,2.85,.54,3.58,.06,.06,.13,.13,.22,.19-.03,.11-.07,.22-.1,.32l-1.08-1.26,.87,2.01c-.43,1.73-.42,3.11,0,4.18,.53,1.3,1.57,2.44,2.88,3.18-2.36,2.83-3.92,9-3.86,11.33,.05,1.85,.58,3.18,1.09,4.15-1.05,1.65-2.79,4.16-4.94,6.4l-1.35,1.4,.26,.15c-.46,.55-.91,1.3-.82,2.17,.02,.21,.06,.44,.11,.67,.03,.16,.07,.37,.07,.45,0,.58,.27,1.31,.72,1.89m21.9,40.58c-.17,.07-.5,.15-.93,.13-.18,0-.34,0-.53,0,.1-.49,.19-.91,.26-1.28,.25-1.17,.42-1.96,.32-2.87l.07-.21-.03-.33c0-.11,0-.44,.24-1.01,.19-.45,.36-.87,.48-1.35-.03,.7,.07,1.29,.15,1.74,.02,.13,.05,.25,.06,.37l.02,.15,1.29-.19-1.22,.45c-.04-.12-.05-.19-.05-.19,0,0,0,.07,0,.21-.02,.23-.05,.52-.08,.78-.06,.55-.1,.85-.08,1.11,.01,.22,0,.77,0,1.35,0,.35,0,.71,0,1.03,0,.04,0,.08,0,.11m-10.97-1.12c-.13,.15-.22,.3-.3,.42-.12,.19-.27,.43-1.49,.39-.3-.01-.54-.04-.72-.07,.11-.11,.23-.22,.33-.31,1.4-1.32,1.67-1.59,1.84-2,.07-.17,.11-.33,.15-.48,.02-.08,.05-.21,.07-.25l.41-.38,.04-.53c.02-.15,.08-.38,.16-.62,.13-.44,.3-1.01,.35-1.71,.07,.48,.18,.9,.32,1.35,.09,.29,.14,.53,.15,.73v.07s0,.08,0,.08c0,.13-.02,.2-.02,.21l-.04,.2-.22,1.71v.41c-.34,.18-.67,.41-.92,.66l-.54-.51-.11,.12,.55,.5Zm-2.96,.51s0,0,0,0h0Zm5.08-17.84l-.13,1.38c-.24,2.52-.61,5.27-.88,6.68-.2,.99-.29,1.76-.32,2.4-.13-1.19-.43-3.02-.75-4.93-.15-.87-.29-1.74-.41-2.5-.11-.71-.18-1.57-.18-2.47v-1.01s-.94-.38-.94-.38c-.39-.16-.68-.31-.89-.44,.17-3.3,.97-16.47,3.1-23.23l.4-1.29-.97-.44c-.09-.61-.22-1.49-.37-2.46l-.45-2.96-2.09,2.12c-.85,.86-1.64,1.63-2.2,2.17l-.22-.13h0s-1.29-.74-1.29-.74c1.95-2.26,3.49-4.57,4.51-6.24l.47-.77-.46-.78c-.51-.88-1.09-1.87-1.13-3.51-.06-2.48,2.16-8.91,3.61-9.74l1.07-.61-.44-1.31-.43-.99-.94,.42,.73-.78-.05-.05-2.9-3.39c.04-.78,.29-1.95,.92-3.54l.66-1.66-1.73-.38s-.1-.02-.14-.03c0-.13,0-.28,.01-.44l1.53-.13v-.17s-1.27,.14-1.27,.14l1.26-.16-1.13,.14,1.12-.19-.02-.1-1.47,.33c.1-.56,.43-1.21,1.36-1.54,.72-.25,1.16-.22,1.29-.2l1.17,.55,.45-1.04c.17-.15,.95-.69,2.8-.45,3.48,.44,4.79,3.46,5.2,4.73,.4,1.27,.5,2.59,.31,3.78l-1.96-.78-.05,.11,1.96,.93c-.22,1.18-.73,2.22-1.48,2.92-.05,.05-.11,.06-.13,.07h-.04s-.01-.01-.01-.01c-.03-.04-.15-.28-.07-.9l-2.96-.41s0,0,0,0l-.26,1.93-1.53,.28,1.41,.61h0s6.54,2.83,6.54,2.83c.52,.23,1.5,.79,1.88,1.32,.09,.12,.3,.4,.59,.78,1.21,1.61,3.72,4.95,5.02,6.94,.38,.59,.35,.91,.31,.98-.72,1.18-2.42,3.42-5.76,5.11l-1.25,.63,.54,1.3c.38,.91,.71,1.78,.98,2.58v.02c.45,1.34,.67,2.28,.77,2.9l-.39,.14,.12,1.18c.26,2.48,.36,4.41,.3,5.57-.22,3.84-.05,14.43,.03,18.15l-1.11,.19v1.27c-.01,1.07-.11,2-.3,2.67-.2,.74-.44,1.57-.68,2.41-.17,.58-.33,1.16-.49,1.71l-.8-2.24v4.16c0-.37-.03-.77-.07-1.22-.05-.61-.14-1.45-.23-2.41-.14-1.34-.29-2.85-.41-4.33l-.13-1.55-1.53,.18c-1.24,.14-2.37,.24-3.36,.29l-1.39,.04c-.16,0-.31,0-.46,0l-1.38-.02Zm8.97,10.14s-.01,.06-.02,.09c0-.12,.02-.25,.02-.39v.3Zm-18.19-36.54c-.06,.19-.11,.35-.16,.47-.14-.07-.28-.11-.44-.14,.06-.03,.12-.07,.17-.1l.43-.24Zm17.91-8.11l6.49-4.85-2.66-.95s-.4-.14-.92-.39l-1.77-.84-.34,1.95c-.09,.49-.17,.98-.24,1.44l-.57,3.65Z"></path>
        <path class="uuid-b1b67d7e-04bb-49eb-b791-a10e41fb2780" d="M63.43,115.98c1.62-.16,1.81-1.09,2.38-1.08,.11,0,.22,0,.34,0,2.98,.12,5.32-1.47,5.7-3.86,.05-.33,.08-.7,.08-1.12,0-.3,0-.65,0-.98,0-.68,0-1.15,0-1.46,.01-.12,.04-.33,.05-.48,.04-.32,.08-.68,.1-1,.04-.53,.01-1.01-.07-1.43-.03-.19-.06-.37-.09-.53-.06-.36-.1-.59-.08-.74,.11-.73,.81-3.18,1.32-4.97,.25-.86,.49-1.71,.7-2.46,.1-.38,.19-.79,.26-1.22l1.4-.27-.06-2.71c0-.15-.31-14.67-.06-19.07,.06-1.06,.02-2.51-.13-4.31l.17-1.49c.06-.57,.08-2.21-.97-5.46h0s-.1-.32-.1-.32c-.03-.1-.07-.2-.1-.3,2.79-1.94,4.38-4.11,5.15-5.38,1.07-1.77,.92-4.03-.4-6.04-1.39-2.11-3.96-5.54-5.2-7.19-.27-.36-.46-.61-.55-.73-.94-1.28-2.37-2.15-3.23-2.58,1.12-2.55,1.27-5.68,.31-8.74-1.41-4.45-4.79-7.43-9.06-7.97-2.59-.33-4.37,.25-5.51,.91-.65,.03-1.42,.16-2.31,.47-1.73,.6-4.96,2-4.01,9.7l-.02,.54c-.37,1.83-.3,3.36,.22,4.62,.45,1.11,1.19,2.12,2.12,2.95-2.11,3.52-3.27,8.72-3.22,10.97,.04,1.65,.42,2.96,.85,3.98-1.02,1.53-2.48,3.54-4.22,5.35l-2.86,2.98,.68,.39c-.17,.5-.26,1.07-.2,1.7,.03,.33,.09,.62,.14,.85,.01,.07,.03,.15,.04,.21,.01,.65,.8,1.42,1.66,2.18l1.32,1.18c.92,1.11,3.35,.73,4.38-.04,.12-.1,.36-.29,.52-.42,.2-.16,.41-.32,.61-.49-1.73,8.62-2.24,20.26-2.26,20.84l-.05,1.24,.79,.95c.18,.21,.56,.61,1.22,1.07,.04,.43,.09,.84,.15,1.22,.12,.77,.27,1.65,.42,2.54,.31,1.83,.73,4.34,.75,5.08,0,.15-.06,.38-.16,.72-.04,.14-.13,.63-.56,1.39-.26,.25-.59,.56-.82,.78-.99,.94-1.34,1.27-1.61,1.63,0,0,0,0,0,0,0,0,0,0,0,0-.4,.54-.63,1.2-.65,1.89-.07,1.18,.31,2.3,1.06,3.17,1,1.15,2.55,1.77,4.61,1.84,.31,.01,.61,1.16,.89,1.15,0,0,.43,.23,4.69,.55,2.4,.18,3.52-.18,3.52-.18m8.48-8.64s0,.03,0,.05c0-.02,0-.04,0-.05m-3.68-1.96l-.11,.04s0-.02,0-.03h.1Zm-7.39-15.44h-.61c-.14,0-.28,0-.42,0l-2.75-.04-1.44-.58c.26-4.45,1.08-15.71,2.96-21.67l.86-2.73-1.5-.68c-.07-.46-.15-.99-.23-1.55l-.95-6.27-.07,.07,.05-.07-.97-1.66c-.45-.77-.87-1.49-.9-2.69-.05-1.99,1.77-7.26,2.84-8.27l2.55-1.45-.52-1.05,7.2,3.12c.45,.2,1.04,.58,1.2,.78,.08,.12,.3,.4,.59,.79,.62,.83,1.72,2.29,2.78,3.75h-.03s-.33-.13-.76-.34l-3.76-1.79-.72,4.13c-.09,.5-.17,1-.24,1.46l-1.22,7.74,2.09-1.56,.51,1.21c.36,.85,.66,1.66,.92,2.41l.02,.07c.16,.48,.29,.9,.39,1.27l-.23,.08,.26,2.5c.25,2.36,.35,4.23,.29,5.29-.2,3.47-.08,12.3,0,16.83l-1.07,.19v.03l-1.33,.15-2.5-7.03,.5,7.26c-1.14,.13-2.17,.22-3.08,.26l-.71,.04Zm-10.56-18.9h0m.17-.2s0,0,0,0c0,0,0,0,0,0m-5.09-3.83s0,0,0,0c0,0,0,0,0,0m10.9-27.23l-.11,.05,.07-.07,.05,.02Zm3.43-2.09l-1.87,.35,.15-.17s.07,.08,.07,.08l-2.38-3.14c.11-.5,.31-1.18,.67-2.08l1.12-2.83,.36,.12,1.17-1.52c.18-.07,.63-.18,1.48-.07,2.52,.32,3.5,2.6,3.81,3.57,.28,.88,.37,1.78,.31,2.61l-1.76-.7,.41,.2-.58-.23s0-.02,.01-.03h0s-.02,.04-.02,.04l1.91,.9c-.06,.53-.19,1.02-.38,1.45l-.23-.1-.35,.82-1.62,.3-2.19-.3s0,0,0,0l-.1,.73Z"></path>
        <path class="uuid-b1b67d7e-04bb-49eb-b791-a10e41fb2780" d="M61.19,117.72c1.34,0,2.17-.17,2.52-.26,1.31-.16,2.01-.72,2.41-1.06,3.74,.14,6.69-1.96,7.2-5.13,.07-.42,.1-.86,.09-1.37,0-.3,0-.64,0-.97,0-.63,0-1.09,0-1.41,.01-.1,.03-.23,.04-.33,.04-.37,.08-.75,.11-1.09,.03-.37,.03-.72,0-1.06l-.22-1.46c-.01-.06-.02-.11-.02-.15,.14-.75,.84-3.2,1.26-4.69,.25-.87,.49-1.72,.7-2.48,.03-.11,.06-.22,.09-.33l1.65-.32-.08-3.99c0-.15-.31-14.65-.06-18.95,.06-1.1,.02-2.57-.12-4.37l.15-1.34c.08-.79,.07-2.54-.9-5.67,2.38-1.85,3.84-3.8,4.67-5.17,1.38-2.28,1.22-5.14-.43-7.66-1.41-2.15-4-5.6-5.25-7.26-.27-.36-.46-.61-.54-.72-.74-1.01-1.69-1.79-2.59-2.36,.83-2.65,.8-5.63-.12-8.52-1.59-5.02-5.44-8.39-10.3-9.01-2.84-.36-4.85,.26-6.12,.92-.77,.07-1.57,.25-2.38,.53-2.62,.92-5.99,3.07-5.02,11.2v.3c-.41,2.08-.3,3.84,.32,5.37,.38,.94,.94,1.84,1.64,2.64-1.92,3.75-2.91,8.57-2.85,10.74,.03,1.31,.25,2.55,.66,3.74-.9,1.3-2.16,2.98-3.62,4.5l-4.2,4.38,1.42,.81c-.04,.36-.04,.72,0,1.08,.04,.41,.11,.75,.16,.99l.02,.1c.1,1.2,1.08,2.16,2.16,3.12l1.24,1.12c1.09,1.2,2.97,1.33,4.52,.92-1.3,8.17-1.69,17.39-1.71,17.83l-.08,1.83,1.16,1.4c.19,.23,.5,.56,.95,.92,.03,.22,.06,.43,.09,.63,.12,.78,.27,1.66,.42,2.55,.26,1.54,.67,4.03,.73,4.79-.02,.09-.05,.19-.09,.33l-.03,.12c-.03,.13-.1,.39-.3,.78-.22,.21-.46,.43-.64,.6-.94,.89-1.37,1.3-1.72,1.74l-.06,.07s0,0,0,.01l-.09,.12c-.54,.77-.84,1.67-.86,2.63-.09,1.53,.42,3.04,1.43,4.21,1.15,1.33,2.82,2.11,4.96,2.31,.23,.42,.63,1.05,1.37,1.18,.51,.14,1.71,.33,4.87,.57,.51,.04,.98,.05,1.39,.05m4.61-1.32h0Zm-11.53-.44h0Zm8.71-1.43c-.08,.02-1.04,.27-2.96,.12-2.33-.18-3.45-.32-3.96-.41-.26-.5-.73-1.27-1.68-1.3-1.63-.06-2.82-.51-3.53-1.33-.5-.58-.74-1.3-.7-2.09,.01-.39,.11-.72,.3-.99l.13-.17c.2-.24,.52-.55,1.36-1.35,.24-.22,.57-.54,.83-.79l.16-.15,.11-.19c.47-.84,.62-1.43,.69-1.68,.13-.45,.24-.82,.23-1.23-.03-.77-.35-2.75-.77-5.25-.15-.91-.3-1.78-.42-2.55-.05-.35-.1-.72-.14-1.12l-.06-.72-.59-.4c-.54-.37-.81-.67-.91-.78l-.42-.5,.03-.66c.02-.49,.52-12.08,2.24-20.6l.84-4.18-3.26,2.72c-.19,.16-.38,.31-.57,.45-.09,.07-.2,.16-.3,.24l-.02-.03,.02,.03c-.09,.07-.17,.14-.24,.19-.66,.46-2.07,.52-2.31,.26l-.15-.15-1.32-1.18c-.79-.7-1.07-1.03-1.16-1.2l-.02-.11c-.01-.07-.03-.17-.05-.25-.04-.21-.09-.44-.11-.69,0-.06-.01-.13-.01-.19l1.09,.73,1.15,.97,.05-.07-1.2-.91-1.09-.92c.01-.22,.06-.44,.13-.67l.4-1.19-.08-.05,1.51-1.57c1.87-1.94,3.42-4.1,4.39-5.56l.45-.68-.32-.75c-.46-1.09-.7-2.21-.73-3.42-.05-1.8,.86-5.95,2.42-9.08l5.35-2.36,.49,.99-1.46,.83-.13,.12c-1.5,1.41-3.38,7.14-3.32,9.41,.04,1.59,.63,2.6,1.11,3.42l.51,.88-6.24,10.25,6.98-7.05,.86,5.68,1.03,.46-.46,1.44c-1.93,6.11-2.76,17.45-3.03,22.04l-.06,1.09,2.7,1.08,3.02,.05c.15,0,.3,0,.46,0h.67s.71-.04,.71-.04c.94-.05,2.01-.14,3.17-.27l1.42-.16h0s3.25-.37,3.25-.37v-.1l1.1-.19-.02-1.29c-.08-4.79-.19-13.34,0-16.72,.08-1.45-.11-3.81-.3-5.54l-.14-1.32,.43-.16-.37-1.35c-.12-.42-.26-.88-.41-1.35l-.02-.07c-.26-.78-.59-1.63-.96-2.51l-1.24-2.99-.68,.51,.64-4.09c.07-.46,.15-.94,.24-1.44l.38-2.18,1.7,.81-.02,.1,5.73,1.98-2.44-3.39,.1-.58-.72-.27c-.98-1.34-1.95-2.62-2.52-3.39-.3-.39-.5-.67-.59-.78l-.06-.07c-.44-.54-1.41-1.04-1.75-1.19l-8.51-3.68,1.98-.37,.04-.32,.95,.13,2.65-.49,.07-.17,.2,.09,.61-1.34c.03-.07,.06-.14,.09-.21l.27,.11,.26-2.88-.08-.04c-.02-.77-.16-1.56-.39-2.31-.82-2.59-2.71-4.31-5.05-4.61-1.08-.14-1.78,0-2.17,.15l-.4,.15-.78,1.02-.69-.24-1.65,4.16c-.34,.85-.59,1.63-.74,2.3l-.16,.69,1.97,2.6-2.7,2.88-.58-.52c-.77-.69-1.37-1.51-1.72-2.39-.4-.99-.45-2.22-.14-3.75l.03-.26,.02-.66v-.11c-.85-6.74,1.75-7.65,3-8.09,.66-.23,1.29-.36,1.89-.39l.36-.02,.31-.18c.84-.49,2.31-1,4.57-.72,3.67,.47,6.6,3.06,7.82,6.94,.83,2.62,.74,5.42-.25,7.66l-.58,1.32,1.28,.65c.68,.34,1.93,1.08,2.7,2.13,.09,.12,.28,.38,.55,.74,1.24,1.65,3.79,5.05,5.15,7.11,.99,1.51,1.13,3.17,.37,4.42-.64,1.05-2.1,3.1-4.72,4.93l-.94,.65,.57,1.68c1.02,3.14,.93,4.57,.91,4.83l-.18,1.62v.15c.15,1.73,.19,3.11,.13,4.1-.26,4.49,.05,19.05,.06,19.19l.03,1.43-1.18,.23-.17,1.05c-.06,.38-.14,.73-.23,1.06-.21,.75-.45,1.59-.69,2.45-.7,2.46-1.25,4.4-1.36,5.17-.03,.23-.03,.45,0,.67l-3.34,.18-.33,1.09-.73,2.78,4.6-1.66c-.02,.23-.05,.47-.07,.69-.02,.19-.05,.4-.06,.52v.07s0,0,0,0h0s1.49-.08,1.49-.08l-1.49,.1v.02s0,0,0,0h0v.07c.01,.3,.01,.75,.01,1.41,0,.34,0,.69,0,.99,0,.34-.02,.62-.06,.87-.26,1.62-1.98,2.68-4.17,2.59-.14,0-.29,0-.4,0-.76,0-1.26,.42-1.55,.67-.26,.22-.43,.37-.96,.42l-.16,.02-.14,.05Zm-12.02-11.46h0s0,0,0,0Zm9.83-14.64h-.57c-.13,0-.26,0-.39,0l-2.47-.04-.18-.07c.32-4.98,1.14-14.86,2.83-20.22l1.27-4.02-1.98-.89-.98-6.49,.16-.27-.28-.48-.41-2.71-.74,.74c-.4-.69-.67-1.15-.69-1.96-.04-1.57,1.51-6.03,2.29-7.03l2.52-1.43,4.63,2-1.03,5.91c-.09,.51-.17,1.02-.25,1.49l-1.79,11.39,3.5-2.62c.25,.61,.46,1.2,.65,1.74l.38,3.61c.24,2.24,.34,4.08,.28,5.04-.18,3.11-.11,10.35-.03,15.3l-5.62-15.78,1.14,16.64c-.56,.05-1.08,.09-1.56,.11l-.68,.04Zm-3.53-49.87h-.01s0,.01,0,.01h.01Zm1.29-3.31l-.12,.72-1.13-1.49c.11-.36,.25-.76,.42-1.19l.6-1.5h.03s1.46-1.9,1.46-1.9c.12,0,.27,0,.47,.03,1.61,.2,2.3,1.67,2.57,2.53,.06,.18,.11,.37,.14,.55l-.31,.81-1.37-.6-.62,1.36,.07,.04-.03,.09,1.85,.82-.04,.09-.6,.11-3.4-.47Z"></path>
        <path class="uuid-d31b2def-7ff6-469a-a7d9-33cb7ff04f0a" d="M52.65,63.15s-1.77,1.48-1.88,1.69c-.11,.2-.38,1.5-.91,2.05-.53,.54-1.66,1.28-1.97,1.7-.31,.42-.9,.4-.85,.02,.06-.38,1.21-1.56,1.39-1.69,.18-.13-.3-.53-.58,.17-.27,.7-.59,1.6-.96,1.44-.37-.16-.77-.86-.77-1.27,0-.42-.15-.89-.19-1.29-.04-.4,.3-.89,.75-1.35,.44-.46,3.04-1.59,4.23-2.71l1.73,1.25Z"></path>
        <path class="uuid-58c669d8-8fd9-466f-9497-b9b5e6d9c348" d="M53.93,54.5s-2.57,4.86-6.5,8.95l4.1,2.35s6.92-6.42,7.7-8.64c.78-2.23-5.31-2.65-5.31-2.65"></path>
        <path class="uuid-b06a64f4-1def-4a21-8a94-693c6463fba7" d="M55.51,85.21c-1.32,2.03-1.51,6.64-1.08,9.34,.43,2.7,1.16,6.69,1.21,8.01,.04,1.32-.62,2.18-.5,3.08,.11,.9,3.72,.62,3.72,.62,0,0,.51-.69,.03-2.28-.3-.98-.54-1.72-.02-4.36,.52-2.63,1.32-9.73,1.15-11.87-.17-2.14-2.52-5.59-4.5-2.55"></path>
        <path d="M51.84,109.14c-.15,1.03,.67,1.7,2.61,1.77,2.49,.09,2.63-.95,2.97-1.33,.34-.38,1.35-.8,1.35-.8l.04-1.33c-.48,.37-1.56,1.22-1.87,1.56-.4,.43-.92,1.3-3.24,1.04-.95-.1-1.48-.69-1.86-.91"></path>
        <path class="uuid-39d78eb2-1715-4d55-85d1-8a3e1158e9e7" d="M53.69,110.22c2.33,.06,2.84-.78,3.24-1.22,.31-.34,1.39-1.19,1.87-1.56l.32-2.45s-1.04,.51-1.47,.09c-.43-.43-1.59-.47-2.28-.06-.68,.4-.69,1.12-.81,1.4-.12,.28-2.44,2.33-2.73,2.72-.03,.03-.01,.32,.25,.56,.31,.29,1.08,.51,1.61,.52"></path>
        <path class="uuid-b06a64f4-1def-4a21-8a94-693c6463fba7" d="M69.95,84.98c1.09,2.16,1.56,7.03,.83,9.67-.73,2.64-1.9,6.51-2.1,7.82-.19,1.31,.37,2.24,.16,3.11-.21,.88-3.77,.19-3.77,.19,0,0-.43-.74,.23-2.27,.4-.94,.73-1.65,.51-4.33-.22-2.68-1.14-9.86-.73-11.97s3.24-5.49,4.87-2.24"></path>
        <path d="M64.25,110.31c.02,1.2,.99,1,2.02,1.04,1.2,.05,2.32-.39,2.45-1.17,.03-.16,.04-.36,.03-.59-.4,.42-1.18,.96-2.57,.99-.99,.03-1.58-.11-1.93-.28"></path>
        <path class="uuid-f2cf5263-bdf7-45b8-9386-3586f51da855" d="M64.25,110.31c.35,.16,.94,.3,1.93,.28,1.4-.04,2.18-.58,2.57-.99,0-.86,0-2.08-.01-2.45-.01-.26,.12-1.15,.16-1.71,.03-.46-.03-.64-.03-.64,0,0,.03,.2-.33,.66-.36,.46-.56-.36-1.83-.62-1.27-.27-1.91,.04-1.8,.97,.1,.93-.18,1.77-.57,3.77-.06,.29-.08,.53-.08,.73"></path>
        <path class="uuid-b7fcf7ba-d45d-45e4-82e1-7a325fbe5ff5" d="M71.34,61.69s1.06,7.08,.88,10.36c-.26,4.58,.05,19.33,.05,19.33,0,0-7.82,1.5-12.51,1.42-5.76-.1-7.4-2.09-7.4-2.09,0,0,.79-18.98,3.82-26.07,0,0,11.17,.59,15.16-2.95"></path>
        <path class="uuid-dc3b6862-3d79-4eed-82d4-6664add43596" d="M54.64,28.51s-3.11,5.66-2.07,8.25c1.05,2.59,4.63,3.84,5.64,2.55,1.01-1.29-3.57-10.81-3.57-10.81"></path>
        <path class="uuid-5889eb57-4c8b-49c0-9140-c8c9bb2f9aa7" d="M55.82,39.97c.04,.28,.94,2.24,.8,2.86-.45,2.1,.31,2.75,2.63,1.95,2.32-.8,3.28-4.77,3.28-4.77l.4-2.97c1.35,.03,2.56-1.64,2.84-2.83,.28-1.18-1.24-.96-1.24-.96,0,0,.66-.92,.49-3.13-.39-5.13-7.12-5.43-9.86-3.2-1.83,1.49-1.67,2.72-1.57,4.03,0,.09,.01,.18,.02,.27,.01,.21,.02,.42,.01,.64,0,.19-.02,.39-.06,.58-.03,.18-.07,.37-.14,.57-.72,2.19,.28,2.73,.58,4.09,.25,1.1,1.25,2.21,1.64,2.61,.1,.1,.15,.15,.15,.15,0,0,0,0,0,.01,0,.01,0,.04,.01,.07h0s0,.02,0,.02"></path>
        <path class="uuid-a766a26a-3de1-4e9d-aa10-9485c20e16bb" d="M57.59,31.06c0-.2,1.24-.19,1.93,.28,.35,.24,.46,.88,.46,.88,0,0-.21-.47-.64-.72-.65-.36-1.75-.24-1.75-.44"></path>
        <path class="uuid-a766a26a-3de1-4e9d-aa10-9485c20e16bb" d="M53.59,30.95c0,.09,.01,.18,.02,.27,.62-.13,1.32-.05,1.33-.22,0-.15-.7-.21-1.34-.05"></path>
        <g class="uuid-8a99fce7-ce22-4952-bec6-7895c5330e21">
          <g class="uuid-ddf364df-eb29-4433-ae60-d58942d3ab77">
            <g class="uuid-804d3860-4faa-4bb8-92cc-5ef6f062911f">
              <path class="uuid-886bf1e1-0a66-4309-bf36-97aaf44c1e5f" d="M54.79,36.96c1.12,.55,3.34-.12,3.34-.12,0,0-.98,1.59-2.33,1.24-.61-.16-1.01-1.12-1.01-1.12"></path>
            </g>
          </g>
        </g>
        <path class="uuid-9eef5a81-2eab-4f72-8475-a65c0285712f" d="M61.33,33.21c-.15,0-.28,.02-.41,.03-.06,0-.13,0-.19,0-.06,0-.12-.02-.19-.05,.03,.07,.09,.13,.17,.16,.07,.03,.15,.04,.22,.04,.07,0,.15-.02,.22-.05,.07-.03,.13-.07,.18-.12"></path>
        <path class="uuid-9eef5a81-2eab-4f72-8475-a65c0285712f" d="M60.92,34.09s-.08-.06-.11-.08c-.03-.03-.06-.05-.08-.08-.06-.06-.11-.12-.19-.19-.02,.11,.01,.21,.09,.29,.04,.04,.08,.07,.14,.09,.05,.02,.11,.01,.16-.02"></path>
        <path class="uuid-dc3b6862-3d79-4eed-82d4-6664add43596" d="M64.53,33.26l-.93,1.06s-1.44-.28-2.32-1.29c-.88-1-2.51-4.42-3.63-4.45,0,0-.06,1.92,.59,2.07,0,0-2.52-.79-2.89-1.85,0,0,.27,1.63,1.06,2.11,.06,.04,.12,.06,.18,.09,.93,.32-2.77-.36-2.96-1.89,0,0,.16,1.54,.55,2.05,.06,.07,.12,.12,.18,.15,.53,.18-1.73-.17-2.04-.49-.31-.31-.85-3.64,2.15-4.69,1.42-.5,2.22-.22,2.22-.22,0,0,1.07-1.39,4.16-1,6.9,.88,8.89,10.5,4.81,14.29-1.07,1-3.1,.49-2.74-2.16,0,0,.87-.28,1.63-.92,1.26-1.06,1.88-2.98-.03-2.87"></path>
        <path class="uuid-b1b67d7e-04bb-49eb-b791-a10e41fb2780" d="M57.92,36.95s-1.44,.85-2.89,.26c0,0,.98,1.41,2.89-.26"></path>
        <path class="uuid-3105a56f-4617-46cf-8868-be293ab2e063" d="M60.55,39.68s-2.22,2.72-4.48,1.03l-.43-1s1.33,1.56,2.8-.31c1.2,.38,2.81-.45,3.79-1.98,0,0-1.06,1.52-1.68,2.26"></path>
        <path class="uuid-9eef5a81-2eab-4f72-8475-a65c0285712f" d="M55.3,35.78c.17,.04,.37,.07,.62,.07,.97,0,1.12-.41,1.13-.46,.02-.06-.02-.13-.08-.15-.06-.02-.13,.02-.15,.08,0,.01-.13,.29-.9,.29-.64,0-.82-.16-.88-.25-.15-.21,.05-.5,0-.53-.06-.03-.35,.3-.2,.66,.06,.15,.24,.24,.47,.3"></path>
        <path class="uuid-9eef5a81-2eab-4f72-8475-a65c0285712f" d="M58.77,36.82s-1.24,.15-1.74-1.35c0,0,.77,1.21,1.74,1.35"></path>
        <path class="uuid-b7fcf7ba-d45d-45e4-82e1-7a325fbe5ff5" d="M62.73,38.53s-3.63,6.07-6.65,2.17c0,0-2.01,8.87-.43,11.44,1.58,2.57,3.28,1.17,3.84-.33,.56-1.5,3.24-13.29,3.24-13.29"></path>
        <path class="uuid-8a01217f-4c2d-40e6-b08f-1da803db3db6" d="M70.29,47.12s-1.66,8.18-1.38,8.77c3.65,7.53,3.36,10.21,3.36,10.21,0,0-9.39,3.86-17.2,0,0,0-1.12-7.76-1.44-8.87-.32-1.11-1.85-2.48-1.92-5.41-.07-2.64,2.14-9.83,4.37-11.1,0,0-.69,10.09,.42,11.37,0,0,5.56-10.04,6.2-13.34l5.49,2.38,2.09,6Z"></path>
        <polygon class="uuid-6d8c293a-1dbe-4ee0-82bf-fd81c0fd0cd9" points="58.75 113.75 60.21 113.86 63.95 61.4 62.49 61.3 58.75 113.75"></polygon>
        <path class="uuid-9833aa01-1b94-4753-80f9-145c088696ab" d="M67.68,61.35s.49,.21,.51,.61c.01,.22-.23,.7-1.14,.31-1.15-.49-5.75-.27-6.23-.33-.49-.06-.62-1.7,.12-1.62,.73,.08,6.12,.74,6.74,1.03"></path>
        <polygon class="uuid-9833aa01-1b94-4753-80f9-145c088696ab" points="58.37 114.44 60.5 114.6 60.57 111.86 58.69 111.73 58.37 114.44"></polygon>
        <path class="uuid-9f49872e-33f9-4a3e-8851-87b7285ec867" d="M67.69,58.25s-.77,.83-.92,1.74c-.15,.9-1,1.99-1.46,1.99-.16,0-.56,.2-.91,.23-.29,.02-.52-.13-.82-.13-.36,0-.69-.02-.86-.1-.48-.23,.17,1.09-.7,1.32-.86,.23-.79-1.55-.63-2.52,.15-.97,.67-2.07,2.61-3.3,1.94-1.23,2.46-1.59,2.46-1.59l1.23,2.36Z"></path>
        <path class="uuid-eadcbd18-7661-4399-8eaf-0cf288030500" d="M68.19,41.12s1.72,.74,2.5,1.81c.46,.64,4.01,5.27,5.65,7.78,.74,1.13,.68,2.04,.34,2.6-1.02,1.68-3.56,4.87-8.7,6.67l-2.23-4.1,4.68-3.5s-3.37-1.2-3.85-2.81c-.48-1.6,1.62-8.46,1.62-8.46"></path>
        <path class="uuid-2f521d2f-f120-4a97-a82c-689ae26f3040" d="M59.76,33.01s-1.49,1.16-2.21-.05c0,0,.69-1.12,2.21,.05"></path>
        <path class="uuid-2f521d2f-f120-4a97-a82c-689ae26f3040" d="M55.53,32.86s-1.33,1.04-2.08,.13c-.04-.05-.03-.34,.17-.47,.33-.23,.96-.39,1.91,.34"></path>
        <path class="uuid-e6daf0c8-3364-45c6-9175-b325f907e3c0" d="M57.92,32.95c0,.3,.24,.55,.55,.56,.31,0,.57-.23,.58-.54,0-.3-.24-.55-.55-.56-.31,0-.57,.23-.58,.54"></path>
        <path d="M58.05,33.09c0,.17,.13,.31,.3,.31,.17,0,.31-.13,.31-.3,0-.17-.13-.31-.3-.31-.17,0-.31,.13-.31,.3"></path>
        <path class="uuid-a766a26a-3de1-4e9d-aa10-9485c20e16bb" d="M59.76,33c-.12-.19-.28-.35-.46-.49-.18-.13-.4-.24-.64-.27-.25-.03-.49,.05-.69,.17-.2,.12-.37,.31-.42,.54,.16-.16,.33-.26,.52-.33,.18-.07,.38-.11,.56-.08,.18,.02,.37,.09,.56,.18,.19,.09,.38,.19,.57,.29"></path>
        <path class="uuid-e6daf0c8-3364-45c6-9175-b325f907e3c0" d="M53.69,32.8c0,.3,.24,.55,.55,.56,.31,0,.57-.23,.58-.54,0-.3-.24-.56-.55-.56-.31,0-.57,.23-.58,.54"></path>
        <path d="M53.81,32.94c0,.17,.13,.31,.3,.31,.17,0,.31-.13,.31-.3,0-.17-.13-.31-.3-.31-.17,0-.31,.13-.31,.3"></path>
        <path class="uuid-a766a26a-3de1-4e9d-aa10-9485c20e16bb" d="M55.53,32.85c-.12-.19-.28-.35-.46-.49-.18-.13-.4-.24-.64-.27-.25-.03-.49,.05-.69,.17-.2,.12-.37,.32-.42,.54,.15-.16,.33-.26,.52-.33,.19-.06,.38-.11,.56-.08,.18,.02,.37,.09,.56,.18,.19,.09,.38,.19,.57,.29"></path>
        <path class="uuid-65eef7d6-b9b7-4e20-8ec5-13c7a634e237" d="M54.05,34.39c.95,0,1.73-.76,1.73-1.7s-.78-1.7-1.73-1.7-1.73,.76-1.73,1.7,.78,1.7,1.73,1.7m0-2.9c.68,0,1.24,.54,1.24,1.2s-.56,1.2-1.24,1.2-1.24-.54-1.24-1.2,.56-1.2,1.24-1.2"></path>
        <path class="uuid-65eef7d6-b9b7-4e20-8ec5-13c7a634e237" d="M59.01,35.08c.33,0,.64-.07,.93-.22,.46-.23,.77-.62,.89-1.09,.24-.96-.43-1.96-1.5-2.23-1.07-.27-2.14,.28-2.38,1.24-.12,.47-.02,.96,.27,1.39,.28,.41,.72,.71,1.23,.84,.18,.05,.37,.07,.55,.07m-.24-3.07c.14,0,.28,.02,.42,.05,.78,.2,1.28,.91,1.11,1.57-.08,.32-.3,.58-.61,.74-.33,.17-.72,.21-1.11,.11-.39-.1-.71-.32-.92-.63-.2-.29-.27-.63-.19-.95,.14-.55,.68-.9,1.3-.9"></path>
        <path class="uuid-65eef7d6-b9b7-4e20-8ec5-13c7a634e237" d="M57.14,33.42s.1-.01,.14-.04c.13-.08,.18-.25,.1-.39-.34-.57-1.17-.79-1.77-.47-.14,.07-.19,.24-.12,.38s.24,.19,.38,.12c.34-.18,.85-.05,1.03,.26,.05,.09,.15,.14,.24,.14"></path>
        <path class="uuid-65eef7d6-b9b7-4e20-8ec5-13c7a634e237" d="M60.7,33.33c.06,.02,.14,.02,.2-.01,.74-.36,2.13-.76,2.94-.91,.22-.04,.47-.08,.68-.02,.15,.05,.32,.17,.33,.33,.01,.15,.14,.26,.29,.25,.15-.01,.26-.14,.24-.29-.04-.42-.39-.71-.72-.8-.33-.09-.65-.05-.93,0-.86,.16-2.3,.57-3.08,.96-.13,.07-.19,.23-.12,.36,.03,.07,.09,.12,.16,.14"></path>
      </g>
    </g>
  </g>
</svg>
