<?xml version="1.0" encoding="UTF-8"?>
<svg xmlns="http://www.w3.org/2000/svg" id="Calque_1" data-name="Calque 1" viewBox="0 0 120 120">
  <defs>
    <style>
      .cls-1 {
        font-family: PFHandbookPro-Black, 'PF Handbook Pro';
        font-size: 23.43px;
        font-weight: 800;
      }

      .cls-1, .cls-2 {
        fill: #e85c39;
      }

      .cls-3 {
        letter-spacing: 0em;
      }
    </style>
  </defs>
  <text class="cls-1" transform="translate(24.59 59.1) scale(1.01 1)">
    <tspan x="0" y="0">AC</tspan>
    <tspan class="cls-3" x="23.94" y="0">T</tspan>
    <tspan x="34.58" y="0">ION</tspan>
  </text>
  <g>
    <path class="cls-2" d="m25.49,69.98c-.16,0-.25-.08-.25-.23v-5.57c0-.16.08-.23.25-.23h2.22c.66,0,1.14.17,1.44.5.3.33.45.78.45,1.35v2.36c0,.27-.04.51-.11.74-.07.22-.18.42-.34.58-.15.16-.34.29-.57.38-.23.09-.5.14-.82.14h-2.28Zm2.03-1.25c.25,0,.43-.06.53-.2.1-.13.15-.31.15-.53v-2.12c0-.25-.06-.43-.17-.54-.12-.11-.29-.16-.53-.16h-.59c-.11,0-.18.02-.21.07s-.04.11-.04.18v3.05c0,.09.02.16.05.19.03.04.1.05.2.05h.61Z"></path>
    <path class="cls-2" d="m34.49,68.73c.13,0,.2.08.2.22v.79c0,.16-.07.23-.2.23h-3.48c-.16,0-.24-.08-.24-.23v-5.57c0-.16.08-.23.24-.23h3.4c.13,0,.2.07.2.21v.79c0,.16-.07.23-.2.23h-2c-.1,0-.16.01-.19.04-.03.03-.04.08-.04.14v.66c0,.09.02.16.05.19.03.04.1.05.2.05h1.64c.08,0,.13.02.16.06.03.04.04.1.04.17v.77c0,.07-.02.13-.04.17-.03.04-.08.06-.16.06h-1.67c-.09,0-.15.02-.18.05-.03.03-.04.08-.04.16v.79c0,.09.02.15.06.18.04.03.12.04.22.04h2.03Z"></path>
    <path class="cls-2" d="m41.87,68.73c.06,0,.11.01.14.04.03.03.05.08.05.16v.81c0,.16-.06.23-.19.23h-3.49c-.16,0-.24-.08-.24-.23v-5.62c0-.07.02-.12.06-.15.04-.03.1-.04.17-.04h.93c.07,0,.13.01.17.03.04.02.06.07.06.15v4.38c0,.07,0,.13.02.17.02.04.07.06.16.06h2.14Z"></path>
    <path class="cls-2" d="m47.1,69.74s.01.09,0,.15-.08.09-.2.09h-1c-.06,0-.11-.01-.16-.04s-.08-.07-.09-.13l-.15-.69c-.02-.09-.04-.15-.07-.18-.03-.03-.07-.04-.14-.04h-1.18c-.09,0-.14.02-.15.06s-.03.09-.05.15l-.15.71c-.01.07-.05.11-.1.14s-.1.04-.15.04h-.99c-.07,0-.12,0-.15-.02-.03-.02-.05-.04-.06-.06s-.01-.05,0-.08c0-.03.01-.06.02-.08l1.42-5.63c.04-.11.12-.17.25-.17h1.4c.05,0,.1,0,.15.02.05.01.08.06.1.15l1.45,5.63Zm-2.17-3.1l-.2-1.01s-.02-.05-.04-.05c-.02,0-.03.01-.04.05l-.19,1.01-.19,1c0,.07.03.1.1.1h.68s.06,0,.07-.02c.02-.02.02-.05,0-.1l-.21-.97Z"></path>
    <path class="cls-2" d="m54.44,68.19c0,.31-.06.57-.17.8-.12.23-.27.42-.46.58s-.42.27-.68.35-.54.12-.83.12c-.36,0-.72-.05-1.1-.16-.38-.1-.73-.29-1.06-.57-.09-.07-.15-.14-.16-.2s.02-.14.1-.24l.39-.53c.09-.1.16-.15.22-.14.06.01.13.05.2.1.1.07.21.14.34.2.12.06.25.12.38.16.12.05.25.08.36.1.12.02.21.03.29.03.17,0,.3-.02.4-.05.1-.03.18-.07.23-.13.05-.05.09-.11.1-.17.02-.06.02-.12.02-.17,0-.21-.13-.39-.38-.53-.25-.14-.61-.28-1.06-.43-.18-.06-.36-.13-.53-.22-.17-.09-.31-.2-.44-.34s-.22-.29-.3-.47c-.07-.18-.11-.39-.11-.63,0-.27.05-.52.16-.74s.26-.41.44-.57.4-.28.65-.36.51-.13.79-.13c.42,0,.76.04,1.05.13.28.08.52.19.71.3.08.05.13.1.14.14.02.04,0,.13-.07.25l-.29.57c-.08.15-.19.19-.35.13-.15-.07-.34-.13-.55-.2-.22-.07-.42-.1-.6-.1-.17,0-.33.04-.47.12s-.21.22-.21.42c0,.1.03.2.1.27s.15.14.24.2c.09.05.19.1.3.13.1.04.19.07.27.09.2.07.42.15.65.23.23.08.44.2.63.34.19.14.35.31.48.52.13.21.19.47.19.78Z"></path>
    <path class="cls-2" d="m59.15,65.12s-.07.06-.15.06h-1.03c-.09,0-.15.02-.18.05-.03.03-.04.08-.04.13l-.02,4.43c0,.13-.08.2-.25.2h-.92c-.07,0-.13-.01-.17-.04-.04-.03-.06-.08-.06-.15v-4.42c0-.06,0-.1-.02-.14-.02-.03-.08-.05-.18-.05h-.93c-.08,0-.13-.02-.16-.06s-.04-.1-.04-.17v-.77c0-.07.01-.13.04-.17.03-.04.08-.06.16-.06h3.8c.12,0,.19.08.19.23v.77c0,.07-.01.13-.03.17Z"></path>
    <path class="cls-2" d="m62.38,63.94c.28,0,.54.04.78.12s.44.19.61.35c.17.15.3.34.4.57.09.22.14.49.14.79,0,.34-.08.65-.23.94-.15.29-.35.55-.58.78-.03.05-.05.08-.05.11s.01.07.04.13l.96,2.04c.03.05.03.1,0,.15s-.08.07-.17.07h-.99c-.16,0-.26-.02-.31-.07-.05-.05-.09-.11-.12-.17l-.8-1.85s-.06-.07-.13-.07h-.43c-.07,0-.1.04-.1.11v1.86c0,.13-.08.2-.25.2h-.92c-.17,0-.25-.07-.25-.2v-5.61c0-.07.01-.13.04-.17.03-.04.08-.06.16-.06h2.17Zm-.08,2.64s.08,0,.13-.02c.05-.01.09-.03.12-.06.15-.12.24-.25.29-.39.05-.13.07-.24.07-.33,0-.11-.02-.2-.05-.28s-.08-.14-.14-.19c-.06-.05-.12-.08-.2-.11-.07-.02-.14-.03-.21-.03h-.67c-.09,0-.15.02-.18.05s-.04.09-.04.17v.99c0,.05.01.1.04.14s.08.06.18.06h.67Z"></path>
    <path class="cls-2" d="m69.64,69.74s.01.09,0,.15-.08.09-.2.09h-1c-.06,0-.11-.01-.16-.04s-.08-.07-.09-.13l-.15-.69c-.02-.09-.04-.15-.07-.18-.03-.03-.07-.04-.14-.04h-1.18c-.09,0-.14.02-.15.06s-.03.09-.05.15l-.15.71c-.01.07-.05.11-.1.14s-.1.04-.15.04h-.99c-.07,0-.12,0-.15-.02-.03-.02-.05-.04-.06-.06s-.01-.05,0-.08c0-.03.01-.06.02-.08l1.42-5.63c.04-.11.12-.17.25-.17h1.4c.05,0,.1,0,.15.02.05.01.08.06.1.15l1.45,5.63Zm-2.17-3.1l-.2-1.01s-.02-.05-.04-.05c-.02,0-.03.01-.04.05l-.19,1.01-.19,1c0,.07.03.1.1.1h.68s.06,0,.07-.02c.02-.02.02-.05,0-.1l-.21-.97Z"></path>
    <path class="cls-2" d="m73.9,65.12s-.07.06-.15.06h-1.03c-.09,0-.15.02-.18.05-.03.03-.04.08-.04.13l-.02,4.43c0,.13-.08.2-.25.2h-.92c-.07,0-.13-.01-.17-.04s-.06-.08-.06-.15v-4.42c0-.06,0-.1-.02-.14s-.08-.05-.18-.05h-.93c-.08,0-.13-.02-.16-.06-.03-.04-.04-.1-.04-.17v-.77c0-.07.01-.13.04-.17.03-.04.08-.06.16-.06h3.8c.12,0,.19.08.19.23v.77c0,.07-.01.13-.03.17Z"></path>
    <path class="cls-2" d="m78.47,68.73c.13,0,.2.08.2.22v.79c0,.16-.07.23-.2.23h-3.48c-.16,0-.24-.08-.24-.23v-5.57c0-.16.08-.23.24-.23h3.4c.13,0,.2.07.2.21v.79c0,.16-.07.23-.2.23h-2c-.1,0-.16.01-.19.04s-.04.08-.04.14v.66c0,.09.02.16.05.19.03.04.1.05.2.05h1.64c.08,0,.13.02.16.06.03.04.04.1.04.17v.77c0,.07-.02.13-.04.17-.03.04-.08.06-.16.06h-1.67c-.09,0-.15.02-.18.05-.03.03-.04.08-.04.16v.79c0,.09.02.15.06.18.04.03.12.04.22.04h2.03Zm-2.16-5c-.05.03-.1.03-.15,0-.05-.03-.09-.06-.12-.1l-.28-.32c-.08-.09-.07-.18.02-.25l1.45-1.1c.06-.05.12-.06.17-.04.05.02.1.04.13.07l.57.61s.05.07.05.1c0,.03,0,.06-.01.08-.01.02-.03.04-.05.06-.02.02-.04.03-.05.04l-1.73.86Z"></path>
    <path class="cls-2" d="m81.68,63.85c.2,0,.39.01.58.04.19.03.38.08.55.15.18.08.35.18.5.31.16.13.3.31.43.53.02.04.03.09.03.15s-.03.11-.1.15l-.72.49c-.09.03-.15.03-.19,0s-.09-.07-.13-.12c-.11-.14-.24-.25-.37-.33-.13-.08-.31-.13-.52-.13-.18,0-.34.06-.48.17-.15.11-.22.26-.22.42v2.55c0,.17.07.3.21.41.14.1.31.15.52.15s.37-.06.52-.17.23-.28.23-.48v-.32c0-.09-.05-.14-.14-.14h-.35c-.15,0-.22-.07-.22-.2v-.77c0-.14.07-.21.22-.21h1.61c.17,0,.26.07.26.21v1.52c0,.3-.06.56-.17.79-.11.23-.27.41-.46.57-.2.15-.43.27-.69.34-.26.08-.54.11-.84.11s-.59-.04-.85-.13c-.26-.08-.48-.2-.67-.36-.19-.15-.33-.34-.44-.56-.11-.22-.16-.46-.16-.73v-2.66c0-.26.05-.5.15-.72.1-.22.24-.41.42-.56s.4-.28.65-.36c.25-.08.52-.13.81-.13Z"></path>
    <path class="cls-2" d="m85.29,69.98c-.16,0-.24-.07-.24-.2v-5.64c0-.14.08-.21.24-.21h.93c.07,0,.12.01.17.04s.07.08.07.16v5.64c0,.13-.08.2-.24.2h-.93Z"></path>
    <path class="cls-2" d="m91.44,68.73c.13,0,.2.08.2.22v.79c0,.16-.07.23-.2.23h-3.48c-.16,0-.24-.08-.24-.23v-5.57c0-.16.08-.23.24-.23h3.4c.13,0,.2.07.2.21v.79c0,.16-.07.23-.2.23h-2c-.1,0-.16.01-.19.04-.03.03-.04.08-.04.14v.66c0,.09.02.16.05.19.03.04.1.05.2.05h1.64c.08,0,.13.02.16.06.03.04.04.1.04.17v.77c0,.07-.01.13-.04.17-.03.04-.08.06-.16.06h-1.67c-.09,0-.15.02-.18.05-.03.03-.04.08-.04.16v.79c0,.09.02.15.06.18.04.03.12.04.22.04h2.03Z"></path>
    <path class="cls-2" d="m30.64,75.3c0,.13-.02.26-.06.4-.04.14-.1.27-.17.41-.08.13-.17.25-.27.36-.1.11-.22.2-.34.27-.04.02-.04.04.01.06.39.14.67.37.84.68s.25.62.25.94c0,.69-.21,1.24-.63,1.66-.42.41-1.02.62-1.8.62h-2.78c-.2,0-.3-.1-.3-.29v-6.79c0-.19.1-.29.3-.29h2.71c.7,0,1.25.17,1.65.51.4.34.6.82.6,1.46Zm-2.31.81c.18,0,.32-.06.42-.18.1-.12.15-.28.15-.47s-.06-.35-.17-.45c-.11-.1-.25-.16-.42-.16h-1c-.08,0-.13.02-.16.05s-.04.08-.04.15v.79c0,.18.07.27.22.27h1Zm.12,3.06c.22,0,.38-.08.5-.24.12-.16.17-.33.17-.51,0-.21-.06-.4-.17-.57-.11-.17-.31-.26-.59-.26h-1c-.11,0-.18.02-.21.06-.03.04-.04.1-.04.19v1.12c0,.09.02.14.05.17.03.03.1.04.22.04h1.07Z"></path>
    <path class="cls-2" d="m37.28,80.39s.01.11,0,.18-.1.11-.25.11h-1.22c-.07,0-.14-.02-.19-.05-.06-.04-.09-.09-.11-.16l-.18-.85c-.02-.11-.05-.18-.08-.22-.03-.04-.09-.05-.17-.05h-1.43c-.1,0-.17.02-.19.07s-.04.11-.07.18l-.18.87c-.02.08-.06.14-.12.17-.06.03-.12.05-.18.05h-1.21c-.08,0-.14,0-.18-.03-.04-.02-.07-.04-.08-.07-.01-.03-.01-.06,0-.09,0-.04.02-.07.02-.1l1.74-6.86c.05-.13.15-.2.3-.2h1.71c.06,0,.12,0,.18.02s.1.08.12.18l1.77,6.86Zm-2.65-3.78l-.24-1.23s-.02-.06-.05-.07c-.02,0-.04.02-.05.07l-.23,1.23-.23,1.21c0,.08.03.12.12.12h.83s.07,0,.09-.03c.02-.02.02-.06,0-.12l-.25-1.18Z"></path>
    <path class="cls-2" d="m43.28,78.5c0,.37-.07.7-.21.98-.14.28-.33.51-.57.7-.24.19-.51.33-.83.43-.32.09-.65.14-1.01.14-.43,0-.88-.06-1.34-.19s-.89-.36-1.29-.69c-.11-.09-.18-.17-.19-.24-.02-.07.02-.17.12-.3l.47-.64c.1-.13.19-.18.27-.17.07.02.15.06.24.12.12.09.26.17.41.24s.31.14.46.2.3.1.44.12c.14.03.26.04.36.04.2,0,.36-.02.49-.06s.22-.09.28-.16.11-.13.13-.21.03-.15.03-.21c0-.26-.15-.48-.46-.64-.31-.17-.74-.34-1.3-.52-.23-.07-.44-.16-.65-.27-.2-.11-.38-.25-.54-.41-.15-.16-.27-.35-.36-.57-.09-.22-.13-.47-.13-.77,0-.33.07-.64.2-.91.13-.27.31-.5.54-.69.22-.19.49-.34.79-.44.3-.1.62-.16.96-.16.51,0,.93.05,1.28.16.35.1.63.23.87.37.1.06.15.12.17.17.02.05-.01.15-.09.3l-.35.69c-.1.18-.24.23-.42.16-.19-.08-.41-.16-.68-.24s-.51-.12-.73-.12c-.21,0-.4.05-.57.14-.17.1-.26.27-.26.51,0,.13.04.24.12.33.08.1.18.17.29.24.11.06.23.12.36.16s.24.08.33.11c.25.09.51.18.8.29s.54.24.77.41c.23.17.43.38.58.64.16.25.23.57.23.95Z"></path>
    <path class="cls-2" d="m49.86,80.76c-.39,0-.73-.06-1.04-.17-.31-.11-.57-.26-.78-.46-.22-.19-.38-.43-.49-.7-.11-.27-.17-.57-.17-.9v-3.12c0-.32.06-.61.19-.88.12-.27.3-.5.52-.7.22-.2.48-.35.79-.46.31-.11.63-.16.99-.16.22,0,.45.02.67.05.23.04.44.1.65.2.21.09.41.23.59.39.18.17.35.38.51.63.02.05.04.11.04.18s-.04.13-.12.18l-.87.6c-.1.04-.19.04-.25.01-.06-.03-.11-.08-.15-.15-.12-.21-.26-.36-.42-.45-.16-.09-.35-.14-.55-.14-.15,0-.28.02-.39.07s-.2.11-.27.18c-.07.08-.12.16-.16.26-.03.1-.05.19-.05.27v3.04c0,.17.06.34.19.48.13.15.34.22.64.22.2,0,.39-.05.56-.16s.32-.24.44-.41c.04-.04.08-.09.13-.15.05-.06.12-.07.2-.02l.98.51c.09.04.15.09.18.15s.02.13-.02.21c-.31.52-.69.89-1.12,1.08-.43.2-.9.3-1.42.3Z"></path>
    <path class="cls-2" d="m58.84,80.39s.01.11,0,.18-.1.11-.25.11h-1.22c-.07,0-.14-.02-.19-.05-.06-.04-.09-.09-.11-.16l-.18-.85c-.02-.11-.05-.18-.08-.22-.03-.04-.09-.05-.17-.05h-1.43c-.1,0-.17.02-.19.07s-.04.11-.07.18l-.18.87c-.02.08-.06.14-.12.17-.06.03-.12.05-.18.05h-1.21c-.08,0-.14,0-.18-.03-.04-.02-.07-.04-.08-.07-.01-.03-.01-.06,0-.09,0-.04.02-.07.02-.1l1.74-6.86c.05-.13.15-.2.3-.2h1.71c.06,0,.12,0,.18.02s.1.08.12.18l1.77,6.86Zm-2.65-3.78l-.24-1.23s-.02-.06-.05-.07c-.02,0-.04.02-.05.07l-.23,1.23-.23,1.21c0,.08.03.12.12.12h.83s.07,0,.09-.03c.02-.02.02-.06,0-.12l-.25-1.18Z"></path>
    <path class="cls-2" d="m62.64,73.33c.34,0,.66.05.95.14s.54.24.75.42.37.42.49.69c.12.27.17.59.17.96,0,.41-.09.8-.28,1.15s-.42.67-.71.95c-.04.06-.06.1-.06.13s.02.08.05.16l1.17,2.49c.03.06.03.13,0,.19-.03.06-.1.09-.21.09h-1.21c-.19,0-.32-.03-.38-.09-.06-.06-.11-.13-.15-.21l-.98-2.25c-.02-.06-.07-.08-.16-.08h-.52c-.08,0-.12.04-.12.13v2.26c0,.16-.1.24-.3.24h-1.12c-.2,0-.3-.08-.3-.24v-6.84c0-.09.02-.16.05-.21s.1-.08.2-.08h2.65Zm-.1,3.22s.09,0,.16-.02c.06-.02.11-.04.15-.07.18-.15.29-.31.35-.47.06-.16.08-.3.08-.4,0-.13-.02-.25-.07-.34-.04-.09-.1-.17-.17-.23s-.15-.1-.24-.13c-.09-.03-.17-.04-.25-.04h-.82c-.11,0-.19.02-.22.06-.03.04-.05.11-.05.2v1.2c0,.06.02.12.05.17.03.05.1.07.22.07h.82Z"></path>
    <path class="cls-2" d="m71.56,75.3c0,.13-.02.26-.06.4-.04.14-.1.27-.17.41s-.17.25-.27.36c-.1.11-.22.2-.34.27-.04.02-.04.04.01.06.39.14.67.37.84.68s.25.62.25.94c0,.69-.21,1.24-.63,1.66-.42.41-1.02.62-1.8.62h-2.78c-.2,0-.3-.1-.3-.29v-6.79c0-.19.1-.29.3-.29h2.71c.7,0,1.25.17,1.65.51.4.34.6.82.6,1.46Zm-2.31.81c.18,0,.32-.06.42-.18s.15-.28.15-.47-.06-.35-.17-.45c-.11-.1-.25-.16-.42-.16h-1c-.08,0-.13.02-.16.05-.02.04-.04.08-.04.15v.79c0,.18.07.27.22.27h1Zm.12,3.06c.22,0,.38-.08.5-.24.12-.16.17-.33.17-.51,0-.21-.06-.4-.17-.57-.11-.17-.31-.26-.59-.26h-1c-.11,0-.18.02-.21.06s-.04.1-.04.19v1.12c0,.09.02.14.05.17.03.03.1.04.22.04h1.07Z"></path>
    <path class="cls-2" d="m78.25,78.46c0,.36-.07.68-.2.96s-.32.52-.55.72c-.24.2-.52.35-.84.46-.33.11-.68.16-1.05.16s-.73-.05-1.05-.16c-.32-.11-.6-.26-.84-.46s-.42-.44-.56-.72-.21-.6-.21-.96v-2.93c0-.36.07-.68.2-.97.13-.29.32-.53.55-.73.23-.2.51-.36.83-.46.32-.11.67-.16,1.06-.16s.73.05,1.05.16c.33.11.61.26.84.46.24.2.42.45.56.73.14.29.21.61.21.97v2.93Zm-1.74-2.93c0-.21-.07-.39-.21-.56s-.37-.25-.71-.25c-.31,0-.54.08-.7.25-.16.17-.24.35-.24.56v2.93c0,.2.08.38.24.54.16.16.39.24.69.24.28,0,.51-.08.67-.23.17-.16.25-.34.25-.54v-2.93Z"></path>
    <path class="cls-2" d="m84.89,80.69h-.76c-.1,0-.18,0-.25-.02s-.14-.07-.2-.18l-2.23-3.54s-.02-.02-.02-.01c0,0-.01.02-.01.04v3.49c0,.09-.03.15-.08.18-.06.03-.13.05-.23.05h-1.05c-.1,0-.17-.02-.22-.05-.05-.03-.08-.09-.08-.18v-6.87c0-.17.1-.26.3-.26h.78c.13,0,.22.02.28.05.06.03.12.1.18.2l2.18,3.56h0s.03.02.04.01.02-.02.02-.05v-3.53c0-.17.1-.25.3-.25h1.06c.09,0,.16.02.22.05.06.04.08.1.08.2v6.85c0,.17-.1.26-.3.26Z"></path>
    <path class="cls-2" d="m91.23,79.17c.16,0,.24.09.24.27v.96c0,.19-.08.29-.24.29h-4.24c-.19,0-.29-.1-.29-.29v-6.79c0-.19.1-.29.29-.29h4.15c.16,0,.24.09.24.26v.96c0,.19-.08.29-.24.29h-2.43c-.12,0-.2.02-.24.05s-.05.09-.05.17v.81c0,.11.02.19.06.23.04.04.12.07.24.07h2c.1,0,.16.03.2.08.04.05.05.12.05.21v.94c0,.09-.02.16-.05.21-.04.05-.1.08-.2.08h-2.04c-.11,0-.18.02-.22.06s-.05.1-.05.19v.96c0,.11.03.18.08.21.05.03.14.05.27.05h2.47Z"></path>
  </g>
  <g>
    <path class="cls-2" d="m49.62,104.25c-1.24-.33-2.52.38-2.86,1.61l-2.42,8.67c-.34,1.23.39,2.49,1.62,2.83.21.06.42.08.62.08,1.02,0,1.96-.67,2.24-1.69l2.42-8.67c.34-1.23-.39-2.49-1.62-2.83Z"></path>
    <path class="cls-2" d="m60.69,105.51c-1.29-.08-2.38.9-2.46,2.16l-.53,8.97c-.07,1.27.91,2.36,2.19,2.43.05,0,.09,0,.14,0,1.22,0,2.25-.94,2.32-2.17l.53-8.97c.07-1.27-.91-2.36-2.19-2.43Z"></path>
    <path class="cls-2" d="m73.69,105.85c-.24-1.25-1.46-2.07-2.72-1.84-1.26.23-2.1,1.43-1.86,2.68l1.67,8.84c.21,1.11,1.19,1.88,2.29,1.88.14,0,.29-.01.43-.04,1.26-.23,2.1-1.43,1.86-2.68l-1.67-8.84Z"></path>
    <path class="cls-2" d="m83.44,101.91c-.53-1.16-1.91-1.68-3.08-1.16-1.17.52-1.7,1.88-1.17,3.04l3.71,8.21c.39.85,1.24,1.36,2.13,1.36.32,0,.64-.06.95-.2,1.17-.52,1.7-1.88,1.17-3.04l-3.71-8.21Z"></path>
    <path class="cls-2" d="m92.36,95.76c-.78-1.01-2.25-1.19-3.26-.42-1.02.78-1.21,2.22-.42,3.23l5.55,7.12c.46.59,1.15.9,1.85.9.5,0,1-.16,1.42-.48,1.02-.78,1.21-2.22.42-3.23l-5.55-7.12Z"></path>
    <path class="cls-2" d="m106.27,93.32l-7.35-5.29c-1.04-.75-2.5-.52-3.25.51s-.53,2.47.51,3.21l7.35,5.29c.41.3.89.44,1.37.44.72,0,1.43-.33,1.88-.95.76-1.03.53-2.47-.51-3.21Z"></path>
    <path class="cls-2" d="m112.02,81.74l-8.41-3.41c-1.19-.48-2.55.08-3.04,1.26-.49,1.18.08,2.52,1.27,3l8.41,3.41c.29.12.59.17.88.17.92,0,1.78-.54,2.15-1.43.49-1.18-.08-2.52-1.27-3Z"></path>
    <path class="cls-2" d="m114.88,68.85l-9.05-.93c-1.29-.14-2.42.79-2.56,2.05-.13,1.26.79,2.4,2.07,2.53l9.05.93c.08,0,.16.01.24.01,1.18,0,2.19-.88,2.31-2.06.13-1.26-.79-2.4-2.07-2.53Z"></path>
    <path class="cls-2" d="m115.64,56.58l-9.07.68c-1.28.1-2.24,1.2-2.14,2.47.09,1.21,1.11,2.13,2.32,2.13.06,0,.12,0,.18,0l9.07-.68c1.28-.1,2.24-1.2,2.14-2.47-.1-1.27-1.21-2.21-2.5-2.12Z"></path>
    <path class="cls-2" d="m102.56,49.43c.35.92,1.24,1.49,2.18,1.49.27,0,.55-.05.82-.15l8.51-3.18c1.2-.45,1.81-1.78,1.35-2.97-.45-1.19-1.8-1.79-3-1.34l-8.51,3.18c-1.2.45-1.81,1.78-1.35,2.97Z"></path>
    <path class="cls-2" d="m98.06,39.7c.43.73,1.21,1.14,2.01,1.14.4,0,.81-.1,1.18-.32l7.84-4.56c1.11-.64,1.48-2.05.83-3.15-.65-1.1-2.08-1.46-3.19-.82l-7.84,4.56c-1.11.64-1.48,2.05-.83,3.15Z"></path>
    <path class="cls-2" d="m91.57,31.61c.45.42,1.02.62,1.59.62.62,0,1.24-.24,1.7-.73l6.22-6.55c.88-.93.83-2.38-.1-3.25-.94-.87-2.41-.82-3.29.1l-6.23,6.55c-.88.93-.83,2.38.1,3.25Z"></path>
    <path class="cls-2" d="m82.87,24.74c.4.26.85.39,1.29.39.75,0,1.49-.36,1.94-1.02l5.06-7.47c.71-1.06.43-2.49-.64-3.19-1.07-.71-2.51-.42-3.23.63l-5.06,7.47c-.71,1.06-.43,2.49.64,3.19Z"></path>
    <path class="cls-2" d="m73.24,20.59c.23.07.47.11.7.11.99,0,1.91-.63,2.22-1.61l2.72-8.58c.38-1.21-.3-2.5-1.52-2.88-1.22-.38-2.53.29-2.92,1.51l-2.72,8.58c-.38,1.21.3,2.5,1.52,2.88Z"></path>
    <path class="cls-2" d="m23.32,99.24c-10.01-9.89-15.52-23.04-15.52-37.03s5.51-27.14,15.52-37.03c6.69-6.61,14.91-11.27,23.96-13.62l-3.46,4.92c-.73,1.04-.47,2.48.58,3.2.41.28.87.41,1.33.41.74,0,1.46-.34,1.91-.99l6.53-9.29c.67-.95.28-2.81-.88-3.37l-10.13-4.97c-1.15-.57-2.55-.1-3.12,1.04-.57,1.14-.1,2.52,1.05,3.08l3.78,1.86c-9.36,2.64-17.87,7.58-24.85,14.47C9.14,32.69,3.14,47,3.14,62.21s5.99,29.52,16.88,40.28c1.1,1.08,2.25,2.13,3.42,3.12.44.37.97.55,1.51.55.66,0,1.31-.27,1.77-.81.83-.97.72-2.42-.26-3.24-1.08-.91-2.14-1.88-3.15-2.87Z"></path>
  </g>
</svg>
