<?xml version="1.0" encoding="UTF-8"?>
<svg xmlns="http://www.w3.org/2000/svg" viewBox="0 0 90 90">
  <defs>
    <style>.e1be8a06-c767-4f25-878e-71711cf68984{fill:#0092d2;}</style>
  </defs>
  <g id="a72c80da-872b-46e8-aeef-9e571480d563" data-name="sacres">
    <path class="e1be8a06-c767-4f25-878e-71711cf68984" d="M43.94,28.86a27.45,27.45,0,0,0-9.56,13.65,6.09,6.09,0,1,1-3.59.42,18.89,18.89,0,0,0-13.16-5.51c1.59,5.15,5.1,16.5,8,25.95H63.53c2.89-9.45,6.4-20.8,8-25.95a18.89,18.89,0,0,0-13.17,5.51,6.1,6.1,0,1,1-3.58-.42,27.51,27.51,0,0,0-9.56-13.65c-.2-.16-.41-.32-.64-.47-.22.15-.43.31-.63.47m-30.79,17A31.43,31.43,0,1,1,44.57,77.3,31.46,31.46,0,0,1,13.15,45.88m-3.58,0a35,35,0,1,0,35-35,35,35,0,0,0-35,35"></path>
  </g>
</svg>
