<?xml version="1.0" encoding="UTF-8"?>
<svg xmlns="http://www.w3.org/2000/svg" id="CARTONNERIE" viewBox="0 0 200 200">
  <defs>
    <style>
      .cls-1 {
        fill: #1a171b;
        stroke-width: 0px;
      }
    </style>
  </defs>
  <g>
    <path class="cls-1" d="m98.97,128.04c-27.12,0-49.1-21.98-49.1-49.12s21.98-49.11,49.1-49.11,49.11,21.99,49.11,49.11-21.98,49.12-49.11,49.12m0-108.04c-32.54,0-58.93,26.39-58.93,58.93s26.39,58.94,58.93,58.94,58.94-26.4,58.94-58.94-26.39-58.93-58.94-58.93"></path>
    <path class="cls-1" d="m98.97,108.4c-16.27,0-29.47-13.19-29.47-29.47s13.2-29.46,29.47-29.46,29.48,13.2,29.48,29.46-13.2,29.47-29.48,29.47m0-68.76c-21.69,0-39.28,17.6-39.28,39.29s17.59,39.29,39.28,39.29,39.3-17.6,39.3-39.29-17.61-39.29-39.3-39.29"></path>
    <path class="cls-1" d="m98.97,88.76c-5.42,0-9.82-4.4-9.82-9.83s4.4-9.82,9.82-9.82,9.83,4.4,9.83,9.82-4.4,9.83-9.83,9.83m0-29.47c-10.85,0-19.65,8.79-19.65,19.63s8.8,19.65,19.65,19.65,19.65-8.8,19.65-19.65-8.79-19.63-19.65-19.63"></path>
  </g>
  <g>
    <path class="cls-1" d="m23.22,152.85c0-.18.14-.35.35-.35h1.69c.18,0,.35.16.35.35v10.31h4.69c.2,0,.35.16.35.35v1.51c0,.18-.15.35-.35.35h-6.72c-.21,0-.35-.17-.35-.35v-12.16Z"></path>
    <path class="cls-1" d="m31.41,164.88l5.71-12.37c.06-.1.15-.2.32-.2h.18c.18,0,.26.1.31.2l5.65,12.37c.12.24-.03.48-.31.48h-1.6c-.28,0-.4-.11-.54-.37l-.9-1.99h-5.49l-.91,1.99c-.07.18-.24.37-.53.37h-1.6c-.28,0-.42-.24-.31-.48Zm7.94-3.92l-1.84-4.04h-.06l-1.8,4.04h3.69Z"></path>
    <path class="cls-1" d="m55.02,152.32c1.85,0,3.2.59,4.45,1.71.17.15.17.36.01.51l-1.11,1.16c-.13.14-.32.14-.46,0-.78-.68-1.8-1.09-2.83-1.09-2.36,0-4.11,1.96-4.11,4.28s1.77,4.24,4.12,4.24c1.11,0,2.04-.42,2.81-1.05.14-.13.35-.1.46,0l1.14,1.17c.15.13.11.37-.02.5-1.24,1.21-2.82,1.78-4.46,1.78-3.67,0-6.63-2.92-6.63-6.6s2.96-6.63,6.63-6.63Z"></path>
    <path class="cls-1" d="m60.22,164.88l5.71-12.37c.07-.1.15-.2.32-.2h.18c.18,0,.26.1.31.2l5.66,12.37c.1.24-.04.48-.32.48h-1.59c-.28,0-.41-.11-.54-.37l-.9-1.99h-5.49l-.9,1.99c-.08.18-.24.37-.54.37h-1.59c-.28,0-.43-.24-.32-.48Zm7.94-3.92l-1.84-4.04h-.05l-1.8,4.04h3.69Z"></path>
    <path class="cls-1" d="m74.08,152.85c0-.18.14-.35.34-.35h5.26c2.2,0,4,1.77,4,3.95,0,1.69-1.12,3.06-2.72,3.71l2.52,4.67c.12.23,0,.53-.32.53h-1.93c-.17,0-.26-.09-.29-.17l-2.44-4.86h-2.04v4.69c0,.18-.17.35-.35.35h-1.69c-.2,0-.34-.17-.34-.35v-12.16Zm5.4,5.51c.97,0,1.82-.84,1.82-1.88,0-.97-.84-1.78-1.82-1.78h-2.99v3.66h2.99Z"></path>
    <path class="cls-1" d="m88.03,154.7h-2.81c-.21,0-.35-.16-.35-.35v-1.5c0-.18.14-.35.35-.35h8.03c.2,0,.35.16.35.35v1.5c0,.18-.15.35-.35.35h-2.81v10.31c0,.18-.17.35-.35.35h-1.71c-.18,0-.35-.17-.35-.35v-10.31Z"></path>
    <path class="cls-1" d="m101.06,152.32c3.67,0,6.61,2.96,6.61,6.63s-2.94,6.6-6.61,6.6-6.6-2.92-6.6-6.6,2.92-6.63,6.6-6.63Zm0,10.84c2.31,0,4.23-1.9,4.23-4.22s-1.92-4.24-4.23-4.24-4.21,1.93-4.21,4.24,1.9,4.22,4.21,4.22Z"></path>
    <path class="cls-1" d="m110.08,152.65c0-.18.16-.33.35-.33h.45l7.64,8.12h.02v-7.59c0-.18.15-.35.35-.35h1.7c.18,0,.35.16.35.35v12.36c0,.18-.17.32-.35.32h-.44l-7.68-8.43h-.02v7.9c0,.18-.15.35-.35.35h-1.67c-.19,0-.35-.17-.35-.35v-12.37Z"></path>
    <path class="cls-1" d="m124.28,152.65c0-.18.16-.33.34-.33h.46l7.64,8.12h.02v-7.59c0-.18.15-.35.35-.35h1.69c.18,0,.35.16.35.35v12.36c0,.18-.17.32-.35.32h-.45l-7.68-8.43h-.01v7.9c0,.18-.15.35-.35.35h-1.68c-.18,0-.34-.17-.34-.35v-12.37Z"></path>
    <path class="cls-1" d="m138.48,152.85c0-.18.15-.35.35-.35h7.48c.2,0,.35.16.35.35v1.5c0,.18-.15.35-.35.35h-5.45v3.02h4.54c.18,0,.35.16.35.34v1.53c0,.2-.17.35-.35.35h-4.54v3.22h5.45c.2,0,.35.16.35.35v1.51c0,.18-.15.35-.35.35h-7.48c-.21,0-.35-.17-.35-.35v-12.16Z"></path>
    <path class="cls-1" d="m149.28,152.85c0-.18.15-.35.35-.35h5.26c2.2,0,4.01,1.77,4.01,3.95,0,1.69-1.13,3.06-2.72,3.71l2.51,4.67c.13.23,0,.53-.31.53h-1.93c-.17,0-.26-.09-.29-.17l-2.44-4.86h-2.04v4.69c0,.18-.16.35-.35.35h-1.69c-.2,0-.35-.17-.35-.35v-12.16Zm5.4,5.51c.98,0,1.82-.84,1.82-1.88,0-.97-.84-1.78-1.82-1.78h-2.99v3.66h2.99Z"></path>
    <path class="cls-1" d="m161.52,152.85c0-.18.16-.35.35-.35h1.71c.18,0,.35.16.35.35v12.16c0,.18-.16.35-.35.35h-1.71c-.18,0-.35-.17-.35-.35v-12.16Z"></path>
    <path class="cls-1" d="m167.26,152.85c0-.18.15-.35.35-.35h7.48c.2,0,.35.16.35.35v1.5c0,.18-.15.35-.35.35h-5.43v3.02h4.54c.18,0,.35.16.35.34v1.53c0,.2-.16.35-.35.35h-4.54v3.22h5.43c.2,0,.35.16.35.35v1.51c0,.18-.15.35-.35.35h-7.48c-.2,0-.35-.17-.35-.35v-12.16Z"></path>
    <path class="cls-1" d="m23.22,172.02c.02-.08.11-.17.2-.17h.17c.06,0,.16.06.18.12l2.27,5.55h.04l2.26-5.55c.02-.07.11-.12.18-.12h.17c.09,0,.17.09.2.17l1.33,7.3c.03.16-.04.25-.2.25h-.7c-.1,0-.19-.07-.21-.15l-.8-4.85h-.04l-1.95,4.99c-.02.07-.09.12-.19.12h-.19c-.09,0-.17-.05-.19-.12l-1.96-4.99h-.04l-.78,4.85c-.02.08-.12.15-.2.15h-.71c-.15,0-.23-.09-.21-.25l1.35-7.3Z"></path>
    <path class="cls-1" d="m31.73,172.17c0-.1.1-.2.21-.2h.73c.12,0,.2.1.2.2v4.48c0,1.08.7,1.93,1.8,1.93s1.83-.83,1.83-1.91v-4.5c0-.1.08-.2.2-.2h.73c.11,0,.21.1.21.2v4.56c0,1.65-1.25,2.94-2.97,2.94s-2.94-1.29-2.94-2.94v-4.56Z"></path>
    <path class="cls-1" d="m39.16,178.47c.1-.13.18-.3.28-.45.1-.13.25-.18.37-.08.06.05.9.75,1.74.75.74,0,1.22-.46,1.22-1.01,0-.65-.56-1.06-1.63-1.51-1.11-.47-1.98-1.05-1.98-2.3,0-.86.65-2.02,2.38-2.02,1.08,0,1.9.57,2.01.65.09.06.17.2.07.36-.09.14-.19.29-.28.42-.09.14-.23.21-.38.1-.07-.04-.83-.54-1.47-.54-.91,0-1.22.58-1.22.98,0,.62.48,1,1.38,1.37,1.25.51,2.33,1.11,2.33,2.43,0,1.13-1.01,2.05-2.42,2.05-1.33,0-2.16-.69-2.33-.86-.1-.09-.18-.16-.07-.35Z"></path>
    <path class="cls-1" d="m45.48,172.17c0-.1.1-.2.2-.2h.72c.1,0,.2.1.2.2v7.18c0,.12-.1.21-.2.21h-.72c-.1,0-.2-.09-.2-.21v-7.18Z"></path>
    <path class="cls-1" d="m52.06,171.85c2.17,0,3.91,1.76,3.91,3.93,0,1.54-.91,2.88-2.21,3.53l1.31,2.08c.1.15,0,.32-.17.32h-.85s-.13-.03-.18-.11l-1.17-1.97c-.21.03-.45.04-.64.04-2.17,0-3.9-1.73-3.9-3.89s1.73-3.93,3.9-3.93Zm0,6.74c1.55,0,2.82-1.26,2.82-2.81s-1.27-2.83-2.82-2.83-2.81,1.29-2.81,2.83,1.27,2.81,2.81,2.81Z"></path>
    <path class="cls-1" d="m57.43,172.17c0-.1.1-.2.2-.2h.73c.12,0,.21.1.21.2v4.48c0,1.08.7,1.93,1.8,1.93s1.82-.83,1.82-1.91v-4.5c0-.1.09-.2.21-.2h.72c.11,0,.21.1.21.2v4.56c0,1.65-1.24,2.94-2.96,2.94s-2.94-1.29-2.94-2.94v-4.56Z"></path>
    <path class="cls-1" d="m65.35,172.17c0-.1.08-.2.2-.2h4.34c.12,0,.21.1.21.2v.61c0,.1-.09.2-.21.2h-3.43v2.21h2.89c.11,0,.21.1.21.21v.61c0,.12-.1.2-.21.2h-2.89v2.34h3.43c.12,0,.21.1.21.21v.59c0,.12-.09.21-.21.21h-4.34c-.12,0-.2-.09-.2-.21v-7.18Z"></path>
    <path class="cls-1" d="m71.25,178.47c.1-.13.18-.3.28-.45.1-.13.25-.18.37-.08.07.05.91.75,1.74.75.75,0,1.23-.46,1.23-1.01,0-.65-.57-1.06-1.64-1.51-1.11-.47-1.98-1.05-1.98-2.3,0-.86.65-2.02,2.38-2.02,1.08,0,1.9.57,2,.65.09.06.18.2.07.36-.09.14-.18.29-.28.42-.09.14-.23.21-.38.1-.07-.04-.84-.54-1.46-.54-.92,0-1.23.58-1.23.98,0,.62.48,1,1.38,1.37,1.26.51,2.34,1.11,2.34,2.43,0,1.13-1.01,2.05-2.42,2.05-1.33,0-2.16-.69-2.33-.86-.1-.09-.18-.16-.07-.35Z"></path>
    <path class="cls-1" d="m80.97,179.29l3.33-7.31c.02-.07.12-.12.18-.12h.1c.05,0,.15.06.19.12l3.31,7.31c.06.14-.02.28-.18.28h-.69c-.13,0-.21-.07-.25-.17l-.67-1.48h-3.55c-.22.5-.45.98-.67,1.48-.03.08-.12.17-.24.17h-.69c-.16,0-.24-.14-.18-.28Zm4.92-2.31l-1.34-2.97h-.06l-1.33,2.97h2.72Z"></path>
    <path class="cls-1" d="m92.49,171.85c1.11,0,1.9.37,2.63,1.01.1.09.1.22.01.31l-.48.49c-.07.1-.17.1-.27,0-.51-.45-1.21-.73-1.88-.73-1.55,0-2.73,1.3-2.73,2.82s1.19,2.81,2.74,2.81c.79,0,1.35-.32,1.87-.72.1-.07.2-.06.26-.01l.51.5c.08.07.06.21-.02.29-.74.71-1.67,1.05-2.64,1.05-2.16,0-3.92-1.73-3.92-3.89s1.76-3.93,3.92-3.93Z"></path>
    <path class="cls-1" d="m97.73,172.98h-1.77c-.12,0-.2-.1-.2-.2v-.61c0-.1.09-.2.2-.2h4.67c.12,0,.21.1.21.2v.61c0,.1-.09.2-.21.2h-1.77v6.37c0,.12-.1.21-.21.21h-.72c-.11,0-.21-.09-.21-.21v-6.37Z"></path>
    <path class="cls-1" d="m101.91,172.17c0-.1.1-.2.21-.2h.73c.12,0,.2.1.2.2v4.48c0,1.08.7,1.93,1.8,1.93s1.82-.83,1.82-1.91v-4.5c0-.1.09-.2.21-.2h.73c.11,0,.21.1.21.2v4.56c0,1.65-1.25,2.94-2.97,2.94s-2.94-1.29-2.94-2.94v-4.56Z"></path>
    <path class="cls-1" d="m109.83,172.17c0-.1.09-.2.21-.2h4.34c.12,0,.21.1.21.2v.61c0,.1-.09.2-.21.2h-3.43v2.21h2.89c.11,0,.21.1.21.21v.61c0,.12-.1.2-.21.2h-2.89v2.34h3.43c.12,0,.21.1.21.21v.59c0,.12-.09.21-.21.21h-4.34c-.12,0-.21-.09-.21-.21v-7.18Z"></path>
    <path class="cls-1" d="m116.22,172.17c0-.1.09-.2.2-.2h.72c.1,0,.2.1.2.2v6.39h2.94c.12,0,.21.1.21.21v.59c0,.12-.09.21-.21.21h-3.87c-.12,0-.2-.09-.2-.21v-7.18Z"></path>
    <path class="cls-1" d="m121.63,172.17c0-.1.09-.2.21-.2h.72c.11,0,.2.1.2.2v6.39h2.95c.12,0,.21.1.21.21v.59c0,.12-.09.21-.21.21h-3.87c-.12,0-.21-.09-.21-.21v-7.18Z"></path>
    <path class="cls-1" d="m127.05,172.17c0-.1.09-.2.21-.2h4.34c.12,0,.21.1.21.2v.61c0,.1-.09.2-.21.2h-3.43v2.21h2.9c.11,0,.2.1.2.21v.61c0,.12-.09.2-.2.2h-2.9v2.34h3.43c.12,0,.21.1.21.21v.59c0,.12-.09.21-.21.21h-4.34c-.12,0-.21-.09-.21-.21v-7.18Z"></path>
    <path class="cls-1" d="m132.96,178.47c.1-.13.18-.3.28-.45.1-.13.25-.18.37-.08.07.05.9.75,1.74.75.75,0,1.23-.46,1.23-1.01,0-.65-.57-1.06-1.64-1.51-1.11-.47-1.98-1.05-1.98-2.3,0-.86.65-2.02,2.37-2.02,1.09,0,1.9.57,2.01.65.09.06.18.2.06.36-.08.14-.18.29-.26.42-.09.14-.23.21-.38.1-.08-.04-.84-.54-1.47-.54-.91,0-1.22.58-1.22.98,0,.62.48,1,1.38,1.37,1.26.51,2.34,1.11,2.34,2.43,0,1.13-1.01,2.05-2.42,2.05-1.32,0-2.17-.69-2.33-.86-.1-.09-.18-.16-.07-.35Z"></path>
    <path class="cls-1" d="m141.84,178.16c.43,0,.76.34.76.76s-.33.75-.76.75-.75-.34-.75-.75.34-.76.75-.76Z"></path>
    <path class="cls-1" d="m146.54,172.17c0-.1.09-.2.21-.2h2.96c1.3,0,2.36,1.03,2.36,2.32,0,1-.66,1.82-1.6,2.21l1.49,2.76c.07.13,0,.31-.18.31h-.85c-.09,0-.15-.06-.17-.09l-1.44-2.88h-1.64v2.76c0,.12-.1.21-.21.21h-.7c-.12,0-.21-.09-.21-.21v-7.18Zm3.07,3.49c.71,0,1.33-.6,1.33-1.35,0-.7-.62-1.3-1.33-1.3h-1.93v2.64h1.93Z"></path>
    <path class="cls-1" d="m153.76,172.17c0-.1.09-.2.21-.2h4.34c.12,0,.21.1.21.2v.61c0,.1-.09.2-.21.2h-3.43v2.21h2.91c.1,0,.2.1.2.21v.61c0,.12-.1.2-.2.2h-2.91v2.34h3.43c.12,0,.21.1.21.21v.59c0,.12-.09.21-.21.21h-4.34c-.12,0-.21-.09-.21-.21v-7.18Z"></path>
    <path class="cls-1" d="m160.15,172.17c0-.1.1-.2.2-.2h.72c.1,0,.21.1.21.2v7.18c0,.12-.1.21-.21.21h-.72c-.1,0-.2-.09-.2-.21v-7.18Z"></path>
    <path class="cls-1" d="m164.21,172.02c.02-.08.1-.17.2-.17h.17c.07,0,.16.06.18.12l2.27,5.55h.04l2.26-5.55c.02-.07.12-.12.18-.12h.18c.09,0,.17.09.2.17l1.33,7.3c.03.16-.04.25-.2.25h-.7c-.1,0-.18-.07-.21-.15l-.81-4.85h-.02l-1.96,4.99c-.02.07-.09.12-.18.12h-.2c-.09,0-.16-.05-.18-.12l-1.97-4.99h-.04l-.79,4.85c0,.08-.1.15-.2.15h-.7c-.15,0-.23-.09-.21-.25l1.35-7.3Z"></path>
    <path class="cls-1" d="m172.33,178.47c.1-.13.18-.3.29-.45.09-.13.24-.18.36-.08.07.05.91.75,1.74.75.75,0,1.23-.46,1.23-1.01,0-.65-.57-1.06-1.64-1.51-1.11-.47-1.98-1.05-1.98-2.3,0-.86.65-2.02,2.38-2.02,1.08,0,1.9.57,2,.65.09.06.18.2.07.36-.09.14-.18.29-.27.42-.09.14-.23.21-.38.1-.07-.04-.84-.54-1.46-.54-.92,0-1.22.58-1.22.98,0,.62.47,1,1.37,1.37,1.26.51,2.34,1.11,2.34,2.43,0,1.13-1.02,2.05-2.42,2.05-1.32,0-2.16-.69-2.33-.86-.1-.09-.18-.16-.07-.35Z"></path>
  </g>
</svg>
