<?xml version="1.0" encoding="UTF-8"?>
<svg xmlns="http://www.w3.org/2000/svg" id="SAINT_EX" data-name="SAINT EX" viewBox="0 0 200 200">
  <defs>
    <style>
      .cls-1 {
        fill: #1d1d1b;
        stroke-width: 0px;
      }
    </style>
  </defs>
  <path class="cls-1" d="m136.57,119.18v-10.01h-1.13c-1.1,1.9-2.17,3.68-3.23,5.48l-3.22-5.48h-1.14v10.01h1.07v-7.97l2.82,4.81h.94c.99-1.7,1.95-3.23,2.83-4.79v7.95h1.06Zm-31.53-8.94v-1.07h-6.92v10.01h6.92v-1.07h-5.85v-3.58h5.08v-1.09h-5.08v-3.2h5.85Zm36.44-3.83l-1.67,2.06h1.37l2.07-2.06h-1.77Zm-44.84,6.64v-2.25l-1.6-1.63h-5.85v10.01h1.07v-4.65h2.65l2.53,4.65h1.24c-.87-1.57-1.75-3.18-2.55-4.65h.76l1.75-1.49Zm-6.38.4v-3.2h4.33l.99.97v1.3l-1.1.93h-4.22Zm21.63-4.28h-1.13v10.01h1.07v-8.15l5.09,8.15h1.13v-10.01h-1.07v8.17l-5.09-8.17Zm7.6,0v8.68l1.63,1.33h3.66l1.63-1.33v-8.68h-1.07v8.15c-.3.26-.63.54-.93.79h-2.92l-.93-.79v-8.15h-1.07Zm66.13-8.08H49.02v1.66h136.6v-1.66Zm-40.7,9.15v-1.07h-6.92v10.01h6.92v-1.07h-5.85v-3.58h5.08v-1.09h-5.08v-3.2h5.85Zm39.36,0v-1.07h-6.92v10.01h6.92v-1.07h-5.85v-3.58h5.08v-1.09h-5.08v-3.2h5.85Zm-15.28-1.07v8.68l1.63,1.33h3.66l1.63-1.33v-8.68h-1.07v8.15c-.3.26-.63.54-.93.79h-2.92l-.93-.79v-8.15h-1.07Zm-88.18,0v8.68l1.63,1.33h3.66l1.63-1.33v-8.68h-1.07v8.15c-.3.26-.63.54-.93.79h-2.92l-.93-.79v-8.15h-1.07Zm77.69,1.07v-1.07h-3.23v1.07h1.06v7.87h-1.06v1.07h3.23v-1.07h-1.1v-7.87h1.1Zm8.9.56l-1.6-1.63h-4.23l-1.63,1.63v7.05l1.63,1.33h3.28l1.97,1.96.74-.74-1.47-1.49,1.32-1.06v-7.05Zm-1.07,6.52c-.33.26-.62.53-.94.79h-3.4c-.73-.61-.84-.7-.96-.79v-6.11l.97-.97h3.35l.99.97v6.11Zm-12.53-4.28v-2.25l-1.6-1.63h-5.85v10.01h1.07v-4.65h2.65l2.53,4.65h1.25c-.87-1.57-1.75-3.18-2.55-4.65h.76l1.75-1.49Zm-6.38.4v-3.2h4.33l.99.97v1.3l-1.1.93h-4.22Zm-84.23-16.97l4.54-3.7v-7.27l-4.78-4.9h-8.14c-.51-.39-.94-.76-1.38-1.15-.2-.18-.41-.36-.64-.55-.14-.12-.3-.29-.46-.45-.05-.05-.1-.1-.14-.15v-3.14l2.38-2.38h7.27l2.38,2.38v1.56h3.51v-2.93l-4.52-4.52h-10.02l-4.52,4.52v6.24l4.87,4.12h7.91l2.76,2.72v4.18l-.28.24c-.65.56-1.33,1.14-1.96,1.66h-7.53l-2.25-1.91v-1.43h-3.51v3.14l4.54,3.7h9.98Zm31.01-27.2h-3.15v4.18h3.15v-4.18Zm-13.2,27.16l.81-.81v.84h3.22v-14.16l-4.02-4.02h-6.21l-4.02,4.02v2.85h3.18v-1.57l2.11-2.12h3.62l1.66,1.71h-1.82l-8.76,5.35v3.88l4.02,4.02h6.21Zm-7.05-5.97c2.54-1.55,3.93-2.44,5.06-3.16.51-.32.96-.61,1.43-.9h1.36v4.77c-.46.47-.87.87-1.29,1.27-.27.26-.54.52-.83.8h-3.62l-2.11-2.08v-.71Zm17.06,6.01h3.18v-18.18h-5.63v3.18h2.45v15ZM12.88,137.23l7.02,7.02v-75.25h-7.02v68.23Zm28.97-11.63v-56.59h-7.02v76.76h154.27v-20.17H41.85Zm97.59,16.02l-3.13-5.75h-3.27v5.75h-1.33v-12.39h7.24l1.98,2.02v2.78l-2.16,1.84h-.94c.99,1.82,2.07,3.8,3.15,5.75h-1.54Zm12.49-11.06h-7.24v3.96h6.28v1.34h-6.28v4.42h7.24v1.33h-8.57v-12.39h8.57v1.33Zm6.38,0h-1.36v9.73h1.36v1.33h-4v-1.33h1.31v-9.73h-1.31v-1.33h4v1.33Zm13.18,11.06h-1.31v-9.84c-1.1,1.93-2.28,3.82-3.5,5.93h-1.17l-3.49-5.95v9.86h-1.33v-12.39h1.42l3.98,6.78c1.31-2.23,2.64-4.42,4-6.78h1.4v12.39Zm10.97-9.22h-1.33v-.64l-1.2-1.2h-3.52l-1.2,1.2v1.59c.11.11.23.25.34.34.35.3.62.55.99.83h3.79l2.14,2.19v3.26l-2.02,1.65h-4.55l-2.02-1.65v-1.24h1.33v.58l1.15.97h3.63c.37-.3.78-.66,1.15-.97v-2.09l-1.38-1.36h-3.7l-2.18-1.84v-2.78l2.02-2.02h4.55l2.02,2.02v1.15Zm-42.85.97v-1.61l-1.22-1.2h-5.36v3.96h5.22l1.36-1.15Zm-115.76,12.4h7.02v-76.76h-7.02v76.76Zm78.58-62.16l2.11-2.12h3.62c.42.44.85.85,1.28,1.26.28.27.56.54.84.82v12.92h3.22v-14.16l-4.02-4.02h-6.2l-.1.09c-.23.21-.48.46-.72.71v-.79h-3.22v18.18h3.18v-12.88Zm-26.14,35.59v-8.94h3.1v-1.07h-7.31v1.07h3.13v8.94h1.07Zm-18.2-10.01v8.68l1.63,1.33h3.66l1.63-1.33v-8.68h-1.07v8.15c-.3.26-.63.54-.93.79h-2.92l-.93-.79v-8.15h-1.07Zm112.55-12.69l4.17-6.25,4.17,6.25h3.76l-.53-.8c-2.38-3.63-4.12-6.29-5.48-8.29l6.08-9.09h-3.84l-4.17,6.25-4.17-6.25h-3.84l6.12,9.13-6.12,9.06h3.84Zm-104.2,12.69v10.01h6.92v-1.07h-5.85v-8.94h-1.07Zm-9.79,2.56v-.93l-1.63-1.63h-3.66l-1.63,1.63v7.05l1.63,1.33h3.66l1.63-1.33v-1h-1.07v.47c-.3.26-.63.54-.93.79h-2.92l-.93-.79v-6.11l.97-.97h2.83l.97.97v.51h1.07Zm61.69-19.27l3.99,4.02h4.74v-3.18h-3.46l-2.08-2.11v-9.84h5.54v-3.05h-5.54v-9.02h-3.18v9.02h-2.55v3.05h2.55v11.11Zm44.98,3.95v-3.43h-13.27l-2.31-2.34v-6.54h13.53v-3.55h-13.53v-5.52l2.31-2.34h13.27v-3.43h-14.65l-4.36,4.4v18.36l4.36,4.4h14.65Zm-22.78-13.59h-11.2v3.47h11.2v-3.47Z"></path>
</svg>
