<?xml version="1.0" encoding="UTF-8"?>
<svg xmlns="http://www.w3.org/2000/svg" viewBox="0 0 81.82 90">
  <defs>
    <style>.a1af3758-bdf6-47a1-bb34-c08040439610,.a7a2e47a-cee4-42b7-8933-b714c9cb9ab5{fill:none;}.a7a2e47a-cee4-42b7-8933-b714c9cb9ab5{stroke:#2c2f88;stroke-miterlimit:10;stroke-width:4px;}.afc93de8-61f2-4bac-b327-7915e6b36604{fill:#fceb42;}.bf2a7370-5607-418a-a285-2c9d98475af2{fill:#f49c44;}.ecd39958-43e2-4b89-b753-ec8bfb1b93a3{fill:#fff;}.bad14713-c5f9-44d6-99a5-bece074dee08{fill:#292f39;}.bccec4d8-8286-4f74-ac02-370c3b32512f{fill:#454d5a;}.ba38ec20-07ed-4d76-867d-558b12dec1e3{fill:#414241;}.a7355120-1b79-4551-9fd2-9cd1b2188205{fill:#a0a4a2;}.b308dc52-b6c0-4d28-ad53-c4b1eca65a48{fill:#4f529e;}.afc2a0ec-e119-40ec-9219-5b0302cda5b3{fill:#e1e1e1;}.ea2a8570-a3c8-41cd-832e-c8254e8ab2d4{fill:#322a84;}.a0aba3fb-64fb-4ae5-850f-26c51d737408{fill:#cdcdcb;}.b76dab4f-c75d-4680-a700-b8e6e10d4596{fill:#2a2b63;}.f81f82e7-1153-4f47-88cb-5f36a9cd7cf6{fill:#afd8e9;}.fae6b169-2d89-4117-81b3-aaa0e79b6f41{fill:#b9e1f5;}.e51021fc-9da0-4b30-be61-2340f129db7e{fill:#f5a119;}.a7c5e19f-cc45-47c2-add8-7e5cebe8937a{fill:#a2a9a6;}.fca7c775-cd2b-4ad3-847c-edd46838d052{fill:#3e403f;}.ff2b7573-e83d-41e4-9353-3e14bbe3d7e2{fill:#575958;}.a5f54a42-2120-4bb9-ba68-c220e26685be{fill:#858988;}.e1b2ff14-3e4f-4581-9165-b96f81ed8db6{fill:#ffd786;}.b53535e9-5fb3-4850-9e15-dc7e3854518e{fill:#edbf02;}.a78c6e2b-fb56-47eb-8136-43ac5eb4e317{fill:#fff03e;}</style>
  </defs>
  <g id="b7c31a97-8acf-4d10-8287-66bb3e2e6c30" data-name="risques techno">
    <circle class="a7a2e47a-cee4-42b7-8933-b714c9cb9ab5" cx="41.09" cy="46" r="34.5"></circle>
    <path class="a1af3758-bdf6-47a1-bb34-c08040439610" d="M48.11,46.1C37,44.82,25.94,48.22,23.4,53.69s4.38,11,15.48,12.24,22.17-2.12,24.72-7.59S59.21,47.38,48.11,46.1Z"></path>
    <path class="afc93de8-61f2-4bac-b327-7915e6b36604" d="M32.6,24.32c.14,3.75-1.59,4-1.59,4,2-9.67-6.39-10.87-6.39-10.87,4.22,3.9,1,7.33,1,7.33a3.65,3.65,0,0,0-1-3.9,4.58,4.58,0,0,1-1.24,3.87,6.38,6.38,0,0,0-1.64,2.85c-1,4.22,3.44,5.92,3.75,6.06,3.54,1.67,6.61-1.8,6.61-1.8A5.79,5.79,0,0,0,32.6,24.32Zm-3.16,6.15s-.22,2.46-3,1.79a1.85,1.85,0,0,1-1.27-1.94A1.68,1.68,0,0,1,26,29.07s1.69-.21,1.69-3.32C27.69,25.75,30.23,27.77,29.44,30.47Z"></path>
    <path class="bf2a7370-5607-418a-a285-2c9d98475af2" d="M25.33,31.73c.11,2.71-1.14,2.87-1.14,2.87,1.46-7-4.61-7.84-4.61-7.84,3.05,2.81.7,5.29.7,5.29a2.65,2.65,0,0,0-.73-2.82A3.31,3.31,0,0,1,18.66,32a4.63,4.63,0,0,0-1.19,2.06c-.7,3,2.48,4.27,2.71,4.37,2.55,1.2,4.76-1.3,4.76-1.3A4.17,4.17,0,0,0,25.33,31.73Zm-2.27,4.44a1.55,1.55,0,0,1-2.16,1.29,1.34,1.34,0,0,1-.92-1.4,1.21,1.21,0,0,1,.6-.9s1.21-.15,1.21-2.39C21.79,32.77,23.62,34.22,23.06,36.17Z"></path>
    <polygon class="ecd39958-43e2-4b89-b753-ec8bfb1b93a3" points="20.15 34.85 48.82 51.41 59.01 45.48 30.34 28.93 20.15 34.85"></polygon>
    <polygon class="bad14713-c5f9-44d6-99a5-bece074dee08" points="21.66 47.05 19.39 45.82 19.37 47.8 21.8 49.2 21.82 48.85 21.89 47.17 21.66 47.05"></polygon>
    <polygon class="bccec4d8-8286-4f74-ac02-370c3b32512f" points="20.11 45.77 20.12 45.35 19.39 45.82 21.66 47.05 21.89 47.17 21.82 48.85 21.8 49.2 21.8 49.2 22.12 49.03 22.29 48.94 22.4 46.91 20.11 45.77"></polygon>
    <path class="ba38ec20-07ed-4d76-867d-558b12dec1e3" d="M27.63,52.27h0l.43-.27a1.8,1.8,0,0,1,.12-.47l-.06.05a1.39,1.39,0,0,0-.49.68Z"></path>
    <path class="a7355120-1b79-4551-9fd2-9cd1b2188205" d="M29,50.71l-.26.15a1.21,1.21,0,0,1,.42-.13Z"></path>
    <path class="bad14713-c5f9-44d6-99a5-bece074dee08" d="M31.94,55.13l-.17-.1s0-.07,0-.11a5.28,5.28,0,0,0-.78-2,4,4,0,0,0-1-1.07,2.55,2.55,0,0,0-.69-.37L29,51.42a1.17,1.17,0,0,0-.82.12,1.8,1.8,0,0,0-.12.47,3,3,0,0,0,0,.43,5.34,5.34,0,0,0,2.41,4.18,1.81,1.81,0,0,0,1.58.24,1.65,1.65,0,0,0,.25-.15,1.45,1.45,0,0,0,.46-.65,2.58,2.58,0,0,0,.1-.42Zm-2-2.12h0a.33.33,0,0,1,.24,0,.51.51,0,0,1,.22.09,1.47,1.47,0,0,1,.68,1.17.75.75,0,0,1,0,.23.53.53,0,0,1-.13.19l-.07,0a.51.51,0,0,1-.45-.07,1.5,1.5,0,0,1-.67-1.17A.51.51,0,0,1,29.94,53Z"></path>
    <path class="b308dc52-b6c0-4d28-ad53-c4b1eca65a48" d="M29.94,53a.51.51,0,0,0-.18.44,1.5,1.5,0,0,0,.67,1.17.51.51,0,0,0,.45.07l.07,0a.53.53,0,0,0,.13-.19.75.75,0,0,0,0-.23,1.47,1.47,0,0,0-.68-1.17.51.51,0,0,0-.22-.09A.33.33,0,0,0,30,53h0Z"></path>
    <path class="a7355120-1b79-4551-9fd2-9cd1b2188205" d="M31.49,50l.69.38-.27-.17A2.74,2.74,0,0,0,31.49,50Z"></path>
    <path class="bccec4d8-8286-4f74-ac02-370c3b32512f" d="M32.26,56.71l1.21-.7a3.7,3.7,0,0,1-.07-.66v0l-.54.34,0,0a2.58,2.58,0,0,1-.1.42A1.45,1.45,0,0,1,32.26,56.71Z"></path>
    <path class="a7355120-1b79-4551-9fd2-9cd1b2188205" d="M32.82,54.83l0,.05.05.57c0-.07,0-.14,0-.22A2.8,2.8,0,0,0,32.82,54.83Z"></path>
    <path class="a7355120-1b79-4551-9fd2-9cd1b2188205" d="M32.82,55.64l0,0,0-.21C32.83,55.51,32.83,55.58,32.82,55.64Z"></path>
    <path class="ba38ec20-07ed-4d76-867d-558b12dec1e3" d="M32.86,55.66l.54-.34a2.71,2.71,0,0,1,.1-.68,1.52,1.52,0,0,0-.52.65A2.29,2.29,0,0,0,32.86,55.66Z"></path>
    <path class="a7355120-1b79-4551-9fd2-9cd1b2188205" d="M34.16,53.76l.11,0h0Z"></path>
    <path class="bad14713-c5f9-44d6-99a5-bece074dee08" d="M37.32,58c-.41-.25-.65-.39-.67-.39s0-.1,0-.17-.07-.29-.11-.43v.1a.88.88,0,0,1,0,.24.42.42,0,0,1-.13.18l-.07,0a.49.49,0,0,1-.44-.07,1.47,1.47,0,0,1-.68-1.17.49.49,0,0,1,.18-.43h0l0,0a.47.47,0,0,1,.24,0,.61.61,0,0,1,.23.09,1.36,1.36,0,0,1,.43.43,4.33,4.33,0,0,0-.63-1,3.24,3.24,0,0,0-.7-.62,1.63,1.63,0,0,0-.34-.19l-.26-.08-.13,0a.9.9,0,0,0-.69.17,2.71,2.71,0,0,0-.1.68v0a3.7,3.7,0,0,0,.07.66,5.38,5.38,0,0,0,2.35,3.52,1.77,1.77,0,0,0,1.56.23,1.08,1.08,0,0,0,.26-.14A1.38,1.38,0,0,0,38.1,59a3,3,0,0,0,.1-.43Z"></path>
    <path class="b308dc52-b6c0-4d28-ad53-c4b1eca65a48" d="M35.32,55.92a.49.49,0,0,0-.18.43,1.47,1.47,0,0,0,.68,1.17.49.49,0,0,0,.44.07l.07,0a.42.42,0,0,0,.13-.18.88.88,0,0,0,0-.24V57a6.05,6.05,0,0,0-.24-.64,1.36,1.36,0,0,0-.43-.43.61.61,0,0,0-.23-.09.47.47,0,0,0-.24,0l0,0Z"></path>
    <path class="a7355120-1b79-4551-9fd2-9cd1b2188205" d="M36.82,52.87l.8.43-.32-.21A3.31,3.31,0,0,0,36.82,52.87Z"></path>
    <path class="afc2a0ec-e119-40ec-9219-5b0302cda5b3" d="M20.15,34.85l0,8.35v2.57l2.29,1.14-.12,2-.16.1,5.51,3.24h0a1.39,1.39,0,0,1,.49-.68l.06-.05a1.17,1.17,0,0,1,.82-.12l.24.07a2.55,2.55,0,0,1,.69.37,4,4,0,0,1,1,1.07,5.28,5.28,0,0,1,.78,2s0,.09,0,.11l.17.1.88.51,0,0a2.29,2.29,0,0,1,.12-.37,1.52,1.52,0,0,1,.52-.65.9.9,0,0,1,.69-.17l.13,0,.26.08a1.63,1.63,0,0,1,.34.19,3.24,3.24,0,0,1,.7.62,4.33,4.33,0,0,1,.63,1,6.05,6.05,0,0,1,.24.64c0,.14.08.29.11.43s0,.13,0,.17.26.14.67.39l.88.52.65.38,1.08.63V57.33l.73.41L47,61.31l0,0,0-2.84V57.9l.81.45.88.49h0l0-7.42Z"></path>
    <path class="bccec4d8-8286-4f74-ac02-370c3b32512f" d="M37.64,59.62l1.21-.7-.65-.38a3,3,0,0,1-.1.43A1.38,1.38,0,0,1,37.64,59.62Z"></path>
    <path class="ba38ec20-07ed-4d76-867d-558b12dec1e3" d="M39.93,57.33v2.22l.24.15h0V58l.49-.24Z"></path>
    <polygon class="ea2a8570-a3c8-41cd-832e-c8254e8ab2d4" points="40.17 57.98 47.33 61.98 47.33 61.09 47.08 61.27 47.08 61.33 47.04 61.31 40.66 57.74 40.17 57.98"></polygon>
    <polygon class="a7355120-1b79-4551-9fd2-9cd1b2188205" points="47.04 61.31 47.08 61.33 47.08 61.27 47.04 61.31"></polygon>
    <polygon class="ba38ec20-07ed-4d76-867d-558b12dec1e3" points="47.1 58.44 47.08 61.27 47.33 61.09 47.35 58.61 47.35 58.55 47.4 58.58 47.91 58.35 47.1 57.9 47.1 58.44"></polygon>
    <path class="b308dc52-b6c0-4d28-ad53-c4b1eca65a48" d="M48.8,62.39V59.32l-1.39-.78-.06,0v3.43l-7.16-4v1.71h0l9.7,5.71V63Z"></path>
    <polygon class="a0aba3fb-64fb-4ae5-850f-26c51d737408" points="48.82 51.41 48.8 58.84 49.79 58.25 49.79 57.76 49.8 54.26 49.8 53.64 49.81 53.62 50.1 52.93 57.87 48.41 59 49.07 59.01 45.48 48.82 51.41"></polygon>
    <path class="b76dab4f-c75d-4680-a700-b8e6e10d4596" d="M51.52,62.11l-.09,0-1-.59-.15-.08-.49-.29V58.25l-1,.58h0l-.88-.49-.51.23,1.4.78v3.07l1.09.64V65.4l.38-.22c0-.05,0-.1,0-.16a1.72,1.72,0,0,1,.67-1.53h0l.08,0,1.3-.74.09-.07Z"></path>
    <polygon class="ea2a8570-a3c8-41cd-832e-c8254e8ab2d4" points="55.53 56.55 55.53 56.06 50.68 53.26 50.1 52.93 49.81 53.62 50.2 53.82 55.17 56.39 56.02 56.83 55.53 56.55"></polygon>
    <path class="bccec4d8-8286-4f74-ac02-370c3b32512f" d="M52.3,62.69l-1.3.74a1.35,1.35,0,0,1,.86-.1,2.4,2.4,0,0,1,.8.3l.13.08.61-.36a6.26,6.26,0,0,0-.55-.47l-.46-.26Z"></path>
    <path class="ea2a8570-a3c8-41cd-832e-c8254e8ab2d4" d="M54.62,56.75v3.59l-3.51-1.88V54.94Zm-.37,3,0-2.82-2.88-1.47v2.78Z"></path>
    <polygon class="b308dc52-b6c0-4d28-ad53-c4b1eca65a48" points="59.28 49.23 59 49.07 57.87 48.41 50.1 52.93 50.68 53.26 55.53 56.06 63.3 51.55 59.28 49.23"></polygon>
    <polygon class="f81f82e7-1153-4f47-88cb-5f36a9cd7cf6" points="51.41 55.48 51.41 58.26 54.25 59.77 54.29 56.95 51.41 55.48"></polygon>
    <path class="bad14713-c5f9-44d6-99a5-bece074dee08" d="M52.79,63.71l-.13-.08a2.4,2.4,0,0,0-.8-.3,1.35,1.35,0,0,0-.86.1l-.08,0h0A1.72,1.72,0,0,0,50.24,65c0,.06,0,.11,0,.16a5.35,5.35,0,0,0,2.41,4,1.79,1.79,0,0,0,1.57.24,1.28,1.28,0,0,0,.25-.15,1.38,1.38,0,0,0,.46-.65,2.58,2.58,0,0,0,.13-.83A5.36,5.36,0,0,0,52.79,63.71Zm.38,3.51-.07,0a.49.49,0,0,1-.44-.07A1.49,1.49,0,0,1,52,66a.47.47,0,0,1,.19-.43h0a.33.33,0,0,1,.24,0,.79.79,0,0,1,.23.08,1.53,1.53,0,0,1,.68,1.18.79.79,0,0,1,0,.23A.35.35,0,0,1,53.17,67.22Z"></path>
    <path class="b308dc52-b6c0-4d28-ad53-c4b1eca65a48" d="M52.17,65.59A.47.47,0,0,0,52,66a1.49,1.49,0,0,0,.68,1.18.49.49,0,0,0,.44.07l.07,0A.35.35,0,0,0,53.3,67a.79.79,0,0,0,0-.23,1.53,1.53,0,0,0-.68-1.18.79.79,0,0,0-.23-.08.33.33,0,0,0-.24,0Z"></path>
    <path class="bccec4d8-8286-4f74-ac02-370c3b32512f" d="M53.4,63.35l-.61.36a5.36,5.36,0,0,1,2.28,4.1,2.58,2.58,0,0,1-.13.83,1.38,1.38,0,0,1-.46.65l1.33-.77.06,0a1.27,1.27,0,0,0,.25-.21l-.16-.1a10.14,10.14,0,0,0-.89-2.85,6.88,6.88,0,0,0-1.64-1.95Z"></path>
    <path class="ea2a8570-a3c8-41cd-832e-c8254e8ab2d4" d="M56.23,65A8.81,8.81,0,0,0,55,63.4a12.33,12.33,0,0,0-2-1.61,23.86,23.86,0,0,0-2.94-1.67L49.78,60v1.12l.49.29.15.08,1,.59.09,0,.87.51.46.26a6.26,6.26,0,0,1,.55.47l0,0a6.88,6.88,0,0,1,1.64,1.95A10.14,10.14,0,0,1,56,68.18l.16.1,1.13.66v-.68A10.4,10.4,0,0,0,56.23,65Z"></path>
    <path class="ea2a8570-a3c8-41cd-832e-c8254e8ab2d4" d="M55.83,57.37,57,61.62l-2-1.08v-3.6Zm.65,3.57-.89-3.29-.33-.15.05,2.84Z"></path>
    <path class="b308dc52-b6c0-4d28-ad53-c4b1eca65a48" d="M58.17,62.27,57.69,62l-1.46-5L56,56.83l-.85-.44-5-2.57-.39-.2V60l.27.13A23.86,23.86,0,0,1,53,61.79a12.33,12.33,0,0,1,2,1.61A8.81,8.81,0,0,1,56.23,65a10.4,10.4,0,0,1,1,3.27V64l1.1.46h0l.19-1.15Zm-7.06-3.81V54.94l3.51,1.81v3.59ZM55,60.54v-3.6l.84.43L57,61.62Z"></path>
    <polygon class="f81f82e7-1153-4f47-88cb-5f36a9cd7cf6" points="55.26 57.5 55.31 60.34 56.48 60.94 55.59 57.65 55.26 57.5"></polygon>
    <polygon class="ea2a8570-a3c8-41cd-832e-c8254e8ab2d4" points="55.53 56.06 55.53 56.55 63.3 52.03 63.3 51.55 55.53 56.06"></polygon>
    <polygon class="b308dc52-b6c0-4d28-ad53-c4b1eca65a48" points="55.53 56.55 56.02 56.83 56.23 56.95 64 52.44 63.3 52.03 55.53 56.55"></polygon>
    <path class="ea2a8570-a3c8-41cd-832e-c8254e8ab2d4" d="M64,52.44l1.45,5L57.69,62l-1.46-5Zm-2.37,6.92.31-.18L65,57.38,63.74,53l-3.11,1.82-.31.17L56.7,57.1l1.24,4.4Z"></path>
    <polygon class="fae6b169-2d89-4117-81b3-aaa0e79b6f41" points="56.7 57.1 57.94 61.51 61.63 59.36 61.62 59.33 60.32 54.99 56.7 57.1"></polygon>
    <polygon class="b308dc52-b6c0-4d28-ad53-c4b1eca65a48" points="57.25 68.33 57.25 68.94 58.32 69.56 58.35 69.54 58.35 68.88 58.35 68.79 57.26 68.33 57.25 68.33"></polygon>
    <path class="e51021fc-9da0-4b30-be61-2340f129db7e" d="M57.25,68.26v.07h0A.17.17,0,0,0,57.25,68.26Z"></path>
    <path class="a7c5e19f-cc45-47c2-add8-7e5cebe8937a" d="M57.25,64v4.27a.17.17,0,0,1,0,.07l1.09.46V67.07h0l-.6-.34v-.49l.42.24.13.08.07,0V64.45h0Z"></path>
    <polygon class="ea2a8570-a3c8-41cd-832e-c8254e8ab2d4" points="57.69 61.98 58.17 62.27 65.94 57.75 65.45 57.47 57.69 61.98"></polygon>
    <polygon class="fca7c775-cd2b-4ad3-847c-edd46838d052" points="57.73 66.25 57.73 66.73 58.15 66.49 57.73 66.25"></polygon>
    <polygon class="ff2b7573-e83d-41e4-9353-3e14bbe3d7e2" points="57.73 66.73 58.33 67.08 58.35 67.07 58.35 66.53 58.28 66.57 58.15 66.49 57.73 66.73"></polygon>
    <polygon class="b308dc52-b6c0-4d28-ad53-c4b1eca65a48" points="58.17 62.27 58.45 63.78 66.21 59.27 65.94 57.75 58.17 62.27"></polygon>
    <polygon class="ea2a8570-a3c8-41cd-832e-c8254e8ab2d4" points="58.35 68.88 58.35 69.54 66.08 65.04 66.09 64.44 58.44 68.83 58.35 68.88"></polygon>
    <polygon class="e51021fc-9da0-4b30-be61-2340f129db7e" points="58.35 68.79 58.35 68.88 58.44 68.83 58.35 68.79"></polygon>
    <path class="a5f54a42-2120-4bb9-ba68-c220e26685be" d="M66.09,62.57v1.87l-7.65,4.39-.09,0V67.07ZM58.82,68c0,.17.17.22.35.11l.63-.37a.69.69,0,0,0,.32-.52l0-.5c0-.17-.17-.22-.35-.11l-.62.38a.67.67,0,0,0-.33.51Zm5.45-3.62a.3.3,0,0,0,.13-.21.07.07,0,0,0-.07-.08l-.06,0L60.68,66.2a.24.24,0,0,0-.12.2c0,.08,0,.11.12.07Zm.09.5a.27.27,0,0,0,.13-.21.07.07,0,0,0-.07-.08h0l-3.6,2.09a.27.27,0,0,0-.12.21c0,.08.05.11.12.07Zm.3-.31c0,.17.17.22.35.11l.62-.38a.64.64,0,0,0,.32-.51l0-.5c0-.17-.17-.22-.36-.11l-.62.37a.67.67,0,0,0-.32.52Z"></path>
    <polygon class="ff2b7573-e83d-41e4-9353-3e14bbe3d7e2" points="58.35 66.53 58.35 67.07 66.09 62.57 65.63 62.3 58.35 66.53"></polygon>
    <path class="a5f54a42-2120-4bb9-ba68-c220e26685be" d="M58.36,64.45,66.17,60l-.12,2.09-.42.24-7.28,4.23V64.45Zm.41.61c0,.11.11.15.23.08l.4-.24a.4.4,0,0,0,.2-.33l0-.32c0-.11-.1-.14-.22-.07l-.4.24a.44.44,0,0,0-.21.33Zm0,.89c0,.11.11.14.23.07l.4-.24a.4.4,0,0,0,.2-.33v-.32c0-.11-.11-.14-.23-.07l-.4.24a.44.44,0,0,0-.21.33ZM64,62.15a.3.3,0,0,0,.12-.21h0a.07.07,0,0,0-.12-.06L60.38,64a.28.28,0,0,0-.12.21c0,.07.05.1.12.06Zm.09.49a.28.28,0,0,0,.12-.21h0a.07.07,0,0,0-.12-.06l-3.6,2.09a.28.28,0,0,0-.12.2c0,.08,0,.11.12.07Zm1-1.27c0,.11.1.15.22.08l.4-.23a.41.41,0,0,0,.21-.33v-.32c0-.11-.1-.14-.22-.07l-.4.23a.43.43,0,0,0-.22.32Zm0,.88c0,.11.1.15.22.08l.41-.23a.42.42,0,0,0,.21-.33v-.31c0-.12-.11-.15-.23-.08l-.4.23a.41.41,0,0,0-.21.32Z"></path>
    <polygon class="e51021fc-9da0-4b30-be61-2340f129db7e" points="58.35 64.45 58.36 64.45 58.36 64.45 58.35 64.45"></polygon>
    <polygon class="ea2a8570-a3c8-41cd-832e-c8254e8ab2d4" points="58.36 64.45 66.17 59.97 66.21 59.27 58.3 63.78 58.36 64.45"></polygon>
    <path class="e1b2ff14-3e4f-4581-9165-b96f81ed8db6" d="M59,64.42a.44.44,0,0,0-.21.33l0,.31c0,.11.11.15.23.08l.4-.24a.4.4,0,0,0,.2-.33l0-.32c0-.11-.1-.14-.22-.07Z"></path>
    <path class="e1b2ff14-3e4f-4581-9165-b96f81ed8db6" d="M59.12,67a.67.67,0,0,0-.33.51l0,.5c0,.17.17.22.35.11l.63-.37a.69.69,0,0,0,.32-.52l0-.5c0-.17-.17-.22-.35-.11Z"></path>
    <path class="e1b2ff14-3e4f-4581-9165-b96f81ed8db6" d="M59,65.3a.44.44,0,0,0-.21.33l0,.32c0,.11.11.14.23.07l.4-.24a.4.4,0,0,0,.2-.33v-.32c0-.11-.11-.14-.23-.07Z"></path>
    <path class="fca7c775-cd2b-4ad3-847c-edd46838d052" d="M60.26,64.17c0,.07.05.1.12.06L64,62.15a.3.3,0,0,0,.12-.21h0a.07.07,0,0,0-.12-.06L60.38,64A.28.28,0,0,0,60.26,64.17Z"></path>
    <polygon class="ea2a8570-a3c8-41cd-832e-c8254e8ab2d4" points="60.32 54.99 61.62 59.33 61.63 59.36 61.94 59.18 61.91 59.13 60.63 54.82 60.32 54.99"></polygon>
    <path class="fca7c775-cd2b-4ad3-847c-edd46838d052" d="M60.35,64.66c0,.08,0,.11.12.07l3.6-2.09a.28.28,0,0,0,.12-.21h0a.07.07,0,0,0-.12-.06l-3.6,2.09A.28.28,0,0,0,60.35,64.66Z"></path>
    <path class="fca7c775-cd2b-4ad3-847c-edd46838d052" d="M60.56,66.4c0,.08,0,.11.12.07l3.59-2.09a.3.3,0,0,0,.13-.21.07.07,0,0,0-.07-.08l-.06,0L60.68,66.2A.24.24,0,0,0,60.56,66.4Z"></path>
    <polygon class="fae6b169-2d89-4117-81b3-aaa0e79b6f41" points="60.63 54.82 61.91 59.13 61.94 59.18 65.03 57.38 63.74 53 60.63 54.82"></polygon>
    <path class="fca7c775-cd2b-4ad3-847c-edd46838d052" d="M60.65,66.9c0,.08.05.11.12.07l3.59-2.09a.27.27,0,0,0,.13-.21.07.07,0,0,0-.07-.08h0l-3.6,2.09A.27.27,0,0,0,60.65,66.9Z"></path>
    <path class="e1b2ff14-3e4f-4581-9165-b96f81ed8db6" d="M65,63.55a.67.67,0,0,0-.32.52l0,.5c0,.17.17.22.35.11l.62-.38a.64.64,0,0,0,.32-.51l0-.5c0-.17-.17-.22-.36-.11Z"></path>
    <path class="e1b2ff14-3e4f-4581-9165-b96f81ed8db6" d="M65.23,60.73a.43.43,0,0,0-.22.32l0,.32c0,.11.1.15.22.08l.4-.23a.41.41,0,0,0,.21-.33v-.32c0-.11-.1-.14-.22-.07Z"></path>
    <path class="e1b2ff14-3e4f-4581-9165-b96f81ed8db6" d="M65.25,61.61a.41.41,0,0,0-.21.32v.32c0,.11.1.15.22.08l.41-.23a.42.42,0,0,0,.21-.33v-.31c0-.12-.11-.15-.23-.08Z"></path>
    <polygon class="b53535e9-5fb3-4850-9e15-dc7e3854518e" points="33.56 38.46 38.85 52.07 27.55 45.85 33.56 38.46"></polygon>
    <path class="a78c6e2b-fb56-47eb-8136-43ac5eb4e317" d="M32.88,38.58l-6,7.39,11.3,6.22Zm-.8,2.83,1,.49v5l-1-.49Zm-.12,6c0-.82,1.24-.23,1.24.59S32,48.22,32,47.4Z"></path>
  </g>
</svg>
