<?xml version="1.0" encoding="UTF-8"?>
<svg xmlns="http://www.w3.org/2000/svg" id="Calque_5" data-name="Calque 5" viewBox="0 0 100 100">
  <defs>
    <style>
      .cls-1 {
        fill: #00608f;
      }

      .cls-2 {
        fill: #3f3d56;
      }

      .cls-3 {
        fill: #ccc;
      }
    </style>
  </defs>
  <path class="cls-2" d="M81.23,27.86H19.68c-.64,0-1.15,.52-1.15,1.15v39.39c0,.64,.52,1.15,1.15,1.15h61.55c.64,0,1.15-.52,1.15-1.15V29.01c0-.64-.52-1.15-1.15-1.15Zm-1.15,2.31v7.54H20.83v-7.54h59.24ZM20.83,67.25v-27.23h59.24v27.23H20.83Z"></path>
  <path class="cls-2" d="M88.61,72.17h-1.31V28.51c0-3.08-2.51-5.58-5.6-5.58H19.2c-3.08,0-5.59,2.5-5.59,5.58v43.66h-1.31c-.64,0-1.15,.52-1.15,1.15v1.69c0,2.42,1.97,4.39,4.39,4.39H85.38c2.42,0,4.39-1.97,4.39-4.39v-1.69c0-.64-.52-1.15-1.15-1.15ZM15.91,28.51c0-1.8,1.47-3.27,3.29-3.27h62.51c1.81,0,3.29,1.47,3.29,3.27v43.66H15.91V28.51Zm71.55,46.5c0,1.15-.93,2.08-2.08,2.08H15.53c-1.15,0-2.08-.93-2.08-2.08v-.54H45.61s0,.05,0,.08c0,.64,.52,1.15,1.15,1.15h7.39c.64,0,1.15-.52,1.15-1.15,0-.03,0-.05,0-.08h32.16v.54Z"></path>
  <path class="cls-3" d="M24.6,35.09h6.15c.64,0,1.15-.52,1.15-1.15s-.52-1.15-1.15-1.15h-6.15c-.64,0-1.15,.52-1.15,1.15s.52,1.15,1.15,1.15Z"></path>
  <path class="cls-3" d="M54.15,35.09h1.23c.64,0,1.15-.52,1.15-1.15s-.52-1.15-1.15-1.15h-1.23c-.64,0-1.15,.52-1.15,1.15s.52,1.15,1.15,1.15Z"></path>
  <path class="cls-3" d="M60.3,35.09h1.23c.64,0,1.15-.52,1.15-1.15s-.52-1.15-1.15-1.15h-1.23c-.64,0-1.15,.52-1.15,1.15s.52,1.15,1.15,1.15Z"></path>
  <path class="cls-3" d="M66.46,35.09h1.23c.64,0,1.15-.52,1.15-1.15s-.52-1.15-1.15-1.15h-1.23c-.64,0-1.15,.52-1.15,1.15s.52,1.15,1.15,1.15Z"></path>
  <path class="cls-3" d="M72.61,35.09h1.23c.64,0,1.15-.52,1.15-1.15s-.52-1.15-1.15-1.15h-1.23c-.64,0-1.15,.52-1.15,1.15s.52,1.15,1.15,1.15Z"></path>
  <path class="cls-3" d="M42.54,45.71h-15.95c-.46,0-.83,.37-.83,.83v14.18c0,.46,.37,.83,.83,.83h15.95c.46,0,.83-.37,.83-.83v-14.18c0-.46-.37-.83-.83-.83Z"></path>
  <path class="cls-3" d="M51.68,44.94h23.39c.64,0,1.15-.52,1.15-1.15s-.52-1.15-1.15-1.15h-23.39c-.64,0-1.15,.52-1.15,1.15s.52,1.15,1.15,1.15Z"></path>
  <path class="cls-3" d="M61.53,52.48h-9.85c-.64,0-1.15,.52-1.15,1.15s.52,1.15,1.15,1.15h9.85c.64,0,1.15-.52,1.15-1.15s-.52-1.15-1.15-1.15Z"></path>
  <path class="cls-3" d="M61.53,57.4h-9.85c-.64,0-1.15,.52-1.15,1.15s.52,1.15,1.15,1.15h9.85c.64,0,1.15-.52,1.15-1.15s-.52-1.15-1.15-1.15Z"></path>
  <path class="cls-1" d="M61.53,62.32h-9.85c-.64,0-1.15,.52-1.15,1.15s.52,1.15,1.15,1.15h9.85c.64,0,1.15-.52,1.15-1.15s-.52-1.15-1.15-1.15Z"></path>
  <path class="cls-3" d="M76.3,52.48h-9.85c-.64,0-1.15,.52-1.15,1.15s.52,1.15,1.15,1.15h9.85c.64,0,1.15-.52,1.15-1.15s-.52-1.15-1.15-1.15Z"></path>
  <path class="cls-3" d="M76.3,57.4h-9.85c-.64,0-1.15,.52-1.15,1.15s.52,1.15,1.15,1.15h9.85c.64,0,1.15-.52,1.15-1.15s-.52-1.15-1.15-1.15Z"></path>
  <path class="cls-1" d="M76.3,62.32h-9.85c-.64,0-1.15,.52-1.15,1.15s.52,1.15,1.15,1.15h9.85c.64,0,1.15-.52,1.15-1.15s-.52-1.15-1.15-1.15Z"></path>
  <path class="cls-1" d="M51.68,49.86h16c.64,0,1.15-.52,1.15-1.15s-.52-1.15-1.15-1.15h-16c-.64,0-1.15,.52-1.15,1.15s.52,1.15,1.15,1.15Z"></path>
</svg>
