<?xml version="1.0" encoding="UTF-8"?>
<svg xmlns="http://www.w3.org/2000/svg" id="Agenda" viewBox="0 0 100 100">
  <defs>
    <style>
      .cls-1 {
        fill: #00608f;
      }

      .cls-2 {
        fill: #3f3d56;
      }

      .cls-3 {
        fill: #ccc;
      }
    </style>
  </defs>
  <path class="cls-3" d="M22.97,31.32c2.45,0,4.44-1.99,4.44-4.44,0-2.08-1.45-3.83-3.38-4.31v-2.52h51.94v2.52c-1.93,.48-3.38,2.23-3.38,4.31,0,2.45,1.99,4.44,4.44,4.44s4.43-1.99,4.43-4.44c0-2.08-1.44-3.83-3.38-4.31v-2.52h2.33c1.9,0,3.45,1.55,3.45,3.45v10.21H16.14v-10.21c0-1.9,1.55-3.45,3.45-3.45h2.33v2.52c-1.94,.48-3.38,2.23-3.38,4.31,0,2.45,1.99,4.44,4.43,4.44Z"></path>
  <path class="cls-2" d="M68.09,48.28c0-2.45,1.99-4.44,4.43-4.44s4.44,1.99,4.44,4.44-1.99,4.43-4.44,4.43-4.43-1.99-4.43-4.43Zm2.11,0c0,1.28,1.04,2.32,2.32,2.32s2.33-1.04,2.33-2.32-1.05-2.32-2.33-2.32-2.32,1.04-2.32,2.32Z"></path>
  <path class="cls-2" d="M68.09,59.54c0-2.44,1.99-4.43,4.43-4.43s4.44,1.99,4.44,4.43-1.99,4.44-4.44,4.44-4.43-1.99-4.43-4.44Zm4.43-2.32c-1.28,0-2.32,1.04-2.32,2.32s1.04,2.32,2.32,2.32,2.33-1.04,2.33-2.32-1.05-2.32-2.33-2.32Z"></path>
  <path class="cls-2" d="M68.09,70.8c0-2.44,1.99-4.43,4.43-4.43s4.44,1.99,4.44,4.43-1.99,4.44-4.44,4.44-4.43-1.99-4.43-4.44Zm4.43-2.32c-1.28,0-2.32,1.04-2.32,2.32s1.04,2.33,2.32,2.33,2.33-1.05,2.33-2.33-1.05-2.32-2.33-2.32Z"></path>
  <path class="cls-1" d="M56.83,59.54c0-2.44,1.99-4.43,4.43-4.43s4.44,1.99,4.44,4.43-1.99,4.44-4.44,4.44-4.43-1.99-4.43-4.44Zm4.43-2.32c-.9,0-1.68,.51-2.06,1.27h4.13c-.39-.76-1.17-1.27-2.07-1.27Zm-2.06,3.38c.38,.75,1.16,1.26,2.06,1.26s1.68-.51,2.07-1.26h-4.13Z"></path>
  <path class="cls-2" d="M56.83,48.28c0-2.45,1.99-4.44,4.43-4.44s4.44,1.99,4.44,4.44-1.99,4.43-4.44,4.43-4.43-1.99-4.43-4.43Zm4.43-2.32c-1.28,0-2.32,1.04-2.32,2.32s1.04,2.32,2.32,2.32,2.32-1.04,2.32-2.32-1.04-2.32-2.32-2.32Z"></path>
  <path class="cls-2" d="M56.83,70.8c0-2.44,1.99-4.43,4.43-4.43s4.44,1.99,4.44,4.43-1.99,4.44-4.44,4.44-4.43-1.99-4.43-4.44Zm4.43-2.32c-1.28,0-2.32,1.04-2.32,2.32s1.04,2.33,2.32,2.33,2.32-1.05,2.32-2.33-1.04-2.32-2.32-2.32Z"></path>
  <path class="cls-1" d="M52.07,69.75c-.39-.75-1.17-1.27-2.07-1.27s-1.68,.52-2.07,1.27h4.14Zm-2.07,3.38c.9,0,1.68-.52,2.07-1.27h-4.14c.39,.75,1.17,1.27,2.07,1.27Zm0,2.11c-2.45,0-4.43-1.99-4.43-4.44s1.98-4.43,4.43-4.43,4.43,1.99,4.43,4.43-1.98,4.44-4.43,4.44Z"></path>
  <path class="cls-2" d="M52.32,48.28c0-1.28-1.04-2.32-2.32-2.32s-2.32,1.04-2.32,2.32,1.04,2.32,2.32,2.32,2.32-1.04,2.32-2.32Zm-6.75,0c0-2.45,1.98-4.44,4.43-4.44s4.43,1.99,4.43,4.44-1.98,4.43-4.43,4.43-4.43-1.99-4.43-4.43Z"></path>
  <path class="cls-2" d="M52.32,59.54c0-1.28-1.04-2.32-2.32-2.32s-2.32,1.04-2.32,2.32,1.04,2.32,2.32,2.32,2.32-1.04,2.32-2.32Zm-2.32,4.44c-2.45,0-4.43-1.99-4.43-4.44s1.98-4.43,4.43-4.43,4.43,1.99,4.43,4.43-1.98,4.44-4.43,4.44Z"></path>
  <path class="cls-2" d="M41.06,48.28c0-1.28-1.04-2.32-2.32-2.32s-2.32,1.04-2.32,2.32,1.04,2.32,2.32,2.32,2.32-1.04,2.32-2.32Zm-2.32,4.43c-2.45,0-4.44-1.99-4.44-4.43s1.99-4.44,4.44-4.44,4.43,1.99,4.43,4.44-1.99,4.43-4.43,4.43Z"></path>
  <path class="cls-2" d="M41.06,59.54c0-1.28-1.04-2.32-2.32-2.32s-2.32,1.04-2.32,2.32,1.04,2.32,2.32,2.32,2.32-1.04,2.32-2.32Zm-2.32,4.44c-2.45,0-4.44-1.99-4.44-4.44s1.99-4.43,4.44-4.43,4.43,1.99,4.43,4.43-1.99,4.44-4.43,4.44Z"></path>
  <path class="cls-2" d="M41.06,70.8c0-1.28-1.04-2.32-2.32-2.32s-2.32,1.04-2.32,2.32,1.04,2.33,2.32,2.33,2.32-1.05,2.32-2.33Zm-2.32,4.44c-2.45,0-4.44-1.99-4.44-4.44s1.99-4.43,4.44-4.43,4.43,1.99,4.43,4.43-1.99,4.44-4.43,4.44Z"></path>
  <path class="cls-1" d="M29.54,47.22c-.38-.75-1.16-1.26-2.06-1.26s-1.69,.51-2.07,1.26h4.13Zm-2.06,3.38c.9,0,1.68-.51,2.06-1.26h-4.13c.38,.75,1.17,1.26,2.07,1.26Zm0-6.76c2.44,0,4.43,1.99,4.43,4.44s-1.99,4.43-4.43,4.43-4.44-1.99-4.44-4.43,1.99-4.44,4.44-4.44Z"></path>
  <path class="cls-2" d="M29.8,59.54c0-1.28-1.04-2.32-2.32-2.32s-2.33,1.04-2.33,2.32,1.05,2.32,2.33,2.32,2.32-1.04,2.32-2.32Zm-2.32-4.43c2.44,0,4.43,1.99,4.43,4.43s-1.99,4.44-4.43,4.44-4.44-1.99-4.44-4.44,1.99-4.43,4.44-4.43Z"></path>
  <path class="cls-2" d="M27.48,73.13c1.28,0,2.32-1.05,2.32-2.33s-1.04-2.32-2.32-2.32-2.33,1.04-2.33,2.32,1.05,2.33,2.33,2.33Zm0-6.76c2.44,0,4.43,1.99,4.43,4.43s-1.99,4.44-4.43,4.44-4.44-1.99-4.44-4.44,1.99-4.43,4.44-4.43Z"></path>
  <path class="cls-2" d="M74.71,26.88c0,1.28,1.04,2.32,2.32,2.32s2.32-1.04,2.32-2.32c0-.9-.51-1.68-1.27-2.06v2.06c0,.58-.47,1.06-1.05,1.06s-1.06-.48-1.06-1.06v-2.06c-.75,.38-1.26,1.16-1.26,2.06ZM19.59,83.26h60.82c1.9,0,3.45-1.55,3.45-3.45V35.82H16.14v43.99c0,1.9,1.55,3.45,3.45,3.45Zm3.38-54.06c1.28,0,2.32-1.04,2.32-2.32,0-.9-.51-1.68-1.26-2.06v2.06c0,.58-.48,1.06-1.06,1.06s-1.05-.48-1.05-1.06v-2.06c-.76,.38-1.27,1.16-1.27,2.06,0,1.28,1.04,2.32,2.32,2.32Zm4.44-2.32c0,2.45-1.99,4.44-4.44,4.44s-4.43-1.99-4.43-4.44c0-2.08,1.44-3.83,3.38-4.31v-2.52h-2.33c-1.9,0-3.45,1.55-3.45,3.45v10.21H83.86v-10.21c0-1.9-1.55-3.45-3.45-3.45h-2.33v2.52c1.94,.48,3.38,2.23,3.38,4.31,0,2.45-1.99,4.44-4.43,4.44s-4.44-1.99-4.44-4.44c0-2.08,1.45-3.83,3.38-4.31v-2.52H24.03v2.52c1.93,.48,3.38,2.23,3.38,4.31Zm-13.38,52.93V23.5c0-3.06,2.5-5.56,5.56-5.56h2.33v-2.32c0-.58,.47-1.06,1.05-1.06s1.06,.48,1.06,1.06v2.32h51.94v-2.32c0-.58,.48-1.06,1.06-1.06s1.05,.48,1.05,1.06v2.32h2.33c3.06,0,5.56,2.5,5.56,5.56v56.31c0,3.07-2.5,5.56-5.56,5.56H19.59c-3.06,0-5.56-2.49-5.56-5.56Z"></path>
</svg>
