<?xml version="1.0" encoding="UTF-8"?>
<svg xmlns="http://www.w3.org/2000/svg" id="guide_pratique" viewBox="0 0 120 120">
  <defs>
    <style>
      .cls-1 {
        fill: #00608f;
      }

      .cls-2 {
        fill: #fff;
      }

      .cls-3 {
        fill: #3f3d56;
      }

      .cls-4 {
        fill: #ccc;
      }
    </style>
  </defs>
  <path class="cls-3" d="m88.33,65.75c.66-.18,1.35.2,1.54.86s-.19,1.35-.85,1.54l-18.05,5.16c-.11.03-.23.04-.34.04-.54,0-1.04-.35-1.2-.9-.19-.66.19-1.35.86-1.54l18.04-5.16Z"></path>
  <path class="cls-3" d="m88.33,39.56c.66-.18,1.35.19,1.54.85.19.67-.19,1.36-.85,1.55l-18.05,5.15c-.11.03-.23.05-.34.05-.54,0-1.04-.36-1.2-.91-.19-.66.19-1.35.86-1.54l18.04-5.15Z"></path>
  <path class="cls-3" d="m88.33,48.29c.66-.18,1.35.19,1.54.86.19.66-.19,1.35-.85,1.54l-18.05,5.15c-.11.03-.23.05-.34.05-.54,0-1.04-.36-1.2-.9-.19-.67.19-1.36.86-1.55l18.04-5.15Z"></path>
  <path class="cls-1" d="m87.96,56.97c.65-.18,1.35.2,1.54.86s-.2,1.35-.86,1.54l-18.05,5.16c-.11.03-.22.04-.34.04-.54,0-1.04-.35-1.2-.9-.19-.66.2-1.35.86-1.54l18.05-5.16Z"></path>
  <path class="cls-4" d="m60.32,92.02l-37.42-9.91v-2.43l36.78,9.8c.21.06.42.09.64.09s.43-.03.64-.09l36.78-9.8v2.43l-37.42,9.91Z"></path>
  <path class="cls-2" d="m22.9,84.69l37.1,9.83c.1.02.21.04.32.04s.21-.02.32-.04l37.1-9.83v2.38l-33.71,8.99c-.09,1.43-.97,2.63-2.23,3.18l-.84.22c-.21.06-.43.09-.64.09s-.44-.03-.65-.09l-.84-.22c-1.25-.55-2.13-1.75-2.23-3.18l-33.7-8.99v-2.38Z"></path>
  <path class="cls-3" d="m50.35,44.71c.66.19,1.05.88.86,1.54-.16.55-.66.91-1.2.91-.11,0-.23-.02-.34-.05l-18.05-5.15c-.66-.19-1.04-.88-.86-1.55.19-.66.89-1.04,1.55-.85l18.04,5.15Z"></path>
  <path class="cls-1" d="m50.35,53.44c.66.19,1.05.88.86,1.55-.16.54-.66.9-1.2.9-.11,0-.23-.02-.34-.05l-18.05-5.15c-.66-.19-1.04-.88-.86-1.54.19-.67.89-1.04,1.55-.86l18.04,5.15Z"></path>
  <path class="cls-3" d="m50.35,62.17c.66.19,1.05.89.86,1.55-.16.55-.66.9-1.2.9-.11,0-.23-.01-.34-.05l-18.05-5.15c-.66-.19-1.04-.88-.86-1.54.19-.67.89-1.04,1.55-.86l18.04,5.15Z"></path>
  <path class="cls-3" d="m50.35,70.91c.66.19,1.05.88.86,1.54-.16.55-.66.9-1.2.9-.11,0-.23-.01-.34-.04l-18.05-5.16c-.66-.19-1.04-.88-.86-1.54.19-.67.89-1.04,1.55-.86l18.04,5.16Z"></path>
  <path class="cls-3" d="m61.57,86.74l36.17-9.65V24.71l-36.17,9.64v52.39Zm-1.57,7.78l-37.1-9.83v2.38l33.7,8.99c.1,1.43.98,2.63,2.23,3.18l.84.22c.21.06.43.09.65.09s.43-.03.64-.09l.84-.22c1.26-.55,2.14-1.75,2.23-3.18l33.71-8.99v-2.38l-37.1,9.83c-.11.02-.21.04-.32.04s-.22-.02-.32-.04Zm-.93-7.78v-52.39l-36.17-9.64v52.38l36.17,9.65Zm-36.17-4.63l37.42,9.91,37.42-9.91v-2.43l-36.78,9.8c-.21.06-.43.09-.64.09s-.43-.03-.64-.09l-36.78-9.8v2.43Zm-2.49-57.4c0-.78.36-1.51.97-1.98.44-.34.98-.52,1.52-.52.22,0,.43.03.64.09l36.78,9.8,36.77-9.8c.22-.06.43-.09.65-.09.54,0,1.08.18,1.52.52.61.47.97,1.2.97,1.98v62.36c0,1.13-.76,2.12-1.85,2.41l-32.27,8.61c-.91,2.31-3.16,3.95-5.79,3.95s-4.88-1.64-5.79-3.95l-32.27-8.61c-1.1-.29-1.85-1.28-1.85-2.41V24.71Z"></path>
</svg>
