<?xml version="1.0" encoding="UTF-8"?>
<svg xmlns="http://www.w3.org/2000/svg" viewBox="0 0 90 90">
  <defs>
    <style>.ad1f0232-2203-467d-b3e9-f9628be85f2c{fill:#fff03e;}.ec8913d7-07d6-4adf-971f-74f55e864aaa{fill:#f2f2f2;}.a8aa777b-5373-43fb-b946-70fff595ac73{fill:#dedfe4;opacity:0.5;}.f8a81be7-e46a-4d74-a5de-80352fb3674d{fill:none;stroke:#e84129;stroke-miterlimit:10;stroke-width:4px;}</style>
  </defs>
  <g id="b6c1ab55-1432-4650-8ed4-ee313957c155" data-name="risques climatiques">
    <polygon class="ad1f0232-2203-467d-b3e9-f9628be85f2c" points="50.47 44.4 44.1 56.11 53.27 56 46.67 73.25 46.44 61 36.94 61.11 44.1 44.7 50.47 44.4"></polygon>
    <circle class="ec8913d7-07d6-4adf-971f-74f55e864aaa" cx="56.33" cy="32.49" r="11.22"></circle>
    <path class="a8aa777b-5373-43fb-b946-70fff595ac73" d="M56.52,22.76s9.55.57,9.55,9.67-8.7,9.79-8.7,9.79,6.76-3.32,6.76-9.73S56.52,22.76,56.52,22.76Z"></path>
    <circle class="ec8913d7-07d6-4adf-971f-74f55e864aaa" cx="32.4" cy="47.2" r="11.22"></circle>
    <circle class="ec8913d7-07d6-4adf-971f-74f55e864aaa" cx="45.79" cy="37.13" r="15.5"></circle>
    <path class="a8aa777b-5373-43fb-b946-70fff595ac73" d="M32.4,37.53S42,38.1,42,47.2,33.26,57,33.26,57,40,53.67,40,47.26,32.4,37.53,32.4,37.53Z"></path>
    <path class="a8aa777b-5373-43fb-b946-70fff595ac73" d="M46.76,24.25s12.65.76,12.65,12.8S47.9,50,47.9,50s8.94-4.39,8.94-12.87S46.76,24.25,46.76,24.25Z"></path>
    <circle class="f8a81be7-e46a-4d74-a5de-80352fb3674d" cx="45.18" cy="45" r="34.5"></circle>
  </g>
</svg>
