<?xml version="1.0" encoding="UTF-8"?>
<svg xmlns="http://www.w3.org/2000/svg" id="delib" viewBox="0 0 100 100">
  <defs>
    <style>
      .cls-1 {
        fill: #fff;
      }

      .cls-2 {
        fill: #c1a974;
      }

      .cls-3 {
        fill: #3f3d56;
      }

      .cls-4 {
        fill: #987018;
      }

      .cls-5 {
        fill: #ccc;
      }
    </style>
  </defs>
  <path class="cls-1" d="M67.24,75.35V25.46c0-1.25,.42-2.41,1.12-3.35H27.64c-1.87,0-3.34,1.44-3.34,3.27v49.96c0,1.89,1.5,3.42,3.34,3.42h10.97v-6.72c-1.87-1.88-2.93-4.44-2.93-7.09,0-5.55,4.51-10.06,10.06-10.06s10.06,4.51,10.06,10.06c0,2.71-1.1,5.3-3.03,7.19v6.62l15.6-.03c-.71-.94-1.14-2.12-1.14-3.39ZM34.42,32.56l3.48-4.47c.21-.27,.54-.43,.88-.43s.67,.16,.88,.43l2.6,3.34,2.6-3.34c.21-.27,.54-.43,.88-.43s.67,.16,.88,.43l2.6,3.34,2.6-3.34c.21-.27,.54-.43,.88-.43s.67,.16,.88,.43l3.48,4.47c.38,.49,.29,1.19-.2,1.57-.49,.38-1.19,.29-1.57-.2l-2.6-3.34-2.6,3.34c-.21,.27-.54,.43-.88,.43s-.67-.16-.88-.43l-2.6-3.34-2.6,3.34c-.21,.27-.54,.43-.88,.43s-.67-.16-.88-.43l-2.6-3.34-2.6,3.34c-.22,.28-.55,.43-.88,.43-.24,0-.48-.08-.69-.24-.49-.38-.58-1.08-.2-1.57Zm-3.57,5.51h20.87c.62,0,1.12,.5,1.12,1.12s-.5,1.12-1.12,1.12H30.86c-.62,0-1.12-.5-1.12-1.12s.5-1.12,1.12-1.12Zm25.35,11.18h-20.87c-.62,0-1.12-.5-1.12-1.12s.5-1.12,1.12-1.12h20.87c.62,0,1.12,.5,1.12,1.12s-.5,1.12-1.12,1.12Zm4.47-4.47H30.86c-.62,0-1.12-.5-1.12-1.12s.5-1.12,1.12-1.12h29.82c.62,0,1.12,.5,1.12,1.12s-.5,1.12-1.12,1.12Zm0-4.47h-4.47c-.62,0-1.12-.5-1.12-1.12s.5-1.12,1.12-1.12h4.47c.62,0,1.12,.5,1.12,1.12s-.5,1.12-1.12,1.12Z"></path>
  <path class="cls-5" d="M72.8,22.12c-1.84,0-3.33,1.51-3.33,3.35v6.64h6.71v-6.72c0-1.8-1.51-3.27-3.38-3.27Z"></path>
  <path class="cls-5" d="M69.47,75.35c0,1.86,1.49,3.38,3.33,3.38,1.83,0,3.38-1.55,3.38-3.38v-6.72h-6.71v6.72Z"></path>
  <path class="cls-4" d="M45.74,57.13c-4.32,0-7.83,3.51-7.83,7.83,0,2.2,.94,4.32,2.58,5.81,1.44,1.3,3.3,2.02,5.24,2.02,1.83,0,3.59-.64,4.99-1.81,.1-.14,.23-.26,.39-.35,1.55-1.48,2.44-3.53,2.44-5.67,0-4.32-3.51-7.83-7.83-7.83Zm0,13.42c-3.08,0-5.59-2.51-5.59-5.59s2.51-5.59,5.59-5.59,5.59,2.51,5.59,5.59-2.51,5.59-5.59,5.59Z"></path>
  <path class="cls-2" d="M46.19,84.78l4.35,2.17v-13.15c-1.46,.79-3.11,1.22-4.79,1.22s-3.41-.44-4.9-1.27v13.2l4.35-2.17c.31-.16,.69-.16,1,0Z"></path>
  <path class="cls-2" d="M45.74,61.6c-1.85,0-3.35,1.5-3.35,3.35s1.5,3.35,3.35,3.35,3.35-1.5,3.35-3.35-1.5-3.35-3.35-3.35Z"></path>
  <path class="cls-3" d="M77.3,34.34c.62,0,1.12-.5,1.12-1.12v-7.83c0-3.04-2.52-5.51-5.62-5.51H27.64c-3.13,0-5.58,2.42-5.58,5.51v49.96c0,3.12,2.5,5.66,5.58,5.66h10.97v7.75c0,.39,.2,.75,.53,.95s.74,.22,1.09,.05l5.46-2.73,5.46,2.73c.16,.08,.33,.12,.5,.12,.2,0,.41-.06,.59-.17,.33-.2,.53-.56,.53-.95v-7.75l20.03-.04c3.1,0,5.62-2.52,5.62-5.62v-7.83c0-.62-.5-1.12-1.12-1.12h-7.83V34.34h7.83Zm-1.12,41.01c0,1.83-1.55,3.38-3.38,3.38-1.84,0-3.33-1.53-3.33-3.38v-6.72h6.71v6.72Zm-25.05-4.72c-.16,.08-.29,.2-.39,.35-1.4,1.17-3.17,1.81-4.99,1.81-1.94,0-3.8-.72-5.24-2.02-1.64-1.49-2.58-3.6-2.58-5.81,0-4.32,3.51-7.83,7.83-7.83s7.83,3.51,7.83,7.83c0,2.14-.89,4.19-2.44,5.67Zm-10.28,16.32v-13.2c1.49,.83,3.17,1.27,4.9,1.27s3.33-.42,4.79-1.22v13.15l-4.35-2.17c-.31-.16-.69-.16-1,0l-4.35,2.17Zm11.93-14.8c1.93-1.89,3.03-4.48,3.03-7.19,0-5.55-4.51-10.06-10.06-10.06s-10.06,4.51-10.06,10.06c0,2.65,1.06,5.21,2.93,7.09v6.72h-10.97c-1.84,0-3.34-1.53-3.34-3.42V25.39c0-1.84,1.47-3.27,3.34-3.27h40.72c-.7,.93-1.12,2.09-1.12,3.35v49.89c0,1.27,.42,2.45,1.14,3.39l-15.6,.03v-6.62Zm23.41-40.05h-6.71v-6.64c0-1.84,1.49-3.34,3.33-3.35,1.86,0,3.38,1.47,3.38,3.27v6.72Z"></path>
  <path class="cls-3" d="M45.74,59.37c-3.08,0-5.59,2.51-5.59,5.59s2.51,5.59,5.59,5.59,5.59-2.51,5.59-5.59-2.51-5.59-5.59-5.59Zm0,8.95c-1.85,0-3.35-1.5-3.35-3.35s1.5-3.35,3.35-3.35,3.35,1.5,3.35,3.35-1.5,3.35-3.35,3.35Z"></path>
  <path class="cls-2" d="M60.68,42.54H30.86c-.62,0-1.12,.5-1.12,1.12s.5,1.12,1.12,1.12h29.82c.62,0,1.12-.5,1.12-1.12s-.5-1.12-1.12-1.12Z"></path>
  <path class="cls-2" d="M56.2,47.02h-20.87c-.62,0-1.12,.5-1.12,1.12s.5,1.12,1.12,1.12h20.87c.62,0,1.12-.5,1.12-1.12s-.5-1.12-1.12-1.12Z"></path>
  <path class="cls-2" d="M60.68,38.07h-4.47c-.62,0-1.12,.5-1.12,1.12s.5,1.12,1.12,1.12h4.47c.62,0,1.12-.5,1.12-1.12s-.5-1.12-1.12-1.12Z"></path>
  <path class="cls-2" d="M30.86,40.31h20.87c.62,0,1.12-.5,1.12-1.12s-.5-1.12-1.12-1.12H30.86c-.62,0-1.12,.5-1.12,1.12s.5,1.12,1.12,1.12Z"></path>
  <path class="cls-2" d="M34.62,34.13c.2,.16,.45,.24,.69,.24,.33,0,.66-.15,.88-.43l2.6-3.34,2.6,3.34c.21,.27,.54,.43,.88,.43s.67-.16,.88-.43l2.6-3.34,2.6,3.34c.21,.27,.54,.43,.88,.43s.67-.16,.88-.43l2.6-3.34,2.6,3.34c.38,.49,1.08,.58,1.57,.2,.49-.38,.58-1.08,.2-1.57l-3.48-4.47c-.21-.27-.54-.43-.88-.43s-.67,.16-.88,.43l-2.6,3.34-2.6-3.34c-.21-.27-.54-.43-.88-.43s-.67,.16-.88,.43l-2.6,3.34-2.6-3.34c-.21-.27-.54-.43-.88-.43s-.67,.16-.88,.43l-3.48,4.47c-.38,.49-.29,1.19,.2,1.57Z"></path>
</svg>
