<?xml version="1.0" encoding="UTF-8"?>
<svg xmlns="http://www.w3.org/2000/svg" id="Recherche_globale" data-name="Recherche globale" viewBox="0 0 100 100">
  <defs>
    <style>
      .cls-1 {
        fill: #fff;
      }

      .cls-2 {
        fill: #c1a974;
      }

      .cls-3 {
        fill: #3f3d56;
      }

      .cls-4 {
        fill: #082947;
      }

      .cls-5 {
        fill: #987018;
      }

      .cls-6 {
        fill: #ccc;
      }
    </style>
  </defs>
  <g>
    <path class="cls-2" d="M43.8,77.57h10.97v-5.03c0-.61,.49-1.1,1.1-1.1v-2.19h-12.07v8.32Z"></path>
    <path class="cls-6" d="M81.37,59.71H17.2v4.05c0,1.81,1.48,3.29,3.29,3.29h57.59c1.81,0,3.29-1.48,3.29-3.29v-4.05Z"></path>
    <path class="cls-1" d="M17.2,57.51H81.37V25.25c0-1.81-1.48-3.29-3.29-3.29H20.49c-1.81,0-3.29,1.48-3.29,3.29V57.51ZM54.77,26.71c0-.61,.49-1.1,1.1-1.1h20.75c.61,0,1.1,.49,1.1,1.1v26.05c0,.61-.49,1.1-1.1,1.1h-20.75c-.61,0-1.1-.49-1.1-1.1V26.71Zm-32.81-1.1h28.15c.61,0,1.1,.49,1.1,1.1s-.49,1.1-1.1,1.1H21.95c-.61,0-1.1-.49-1.1-1.1s.49-1.1,1.1-1.1Zm0,5.21h28.15c.61,0,1.1,.49,1.1,1.1s-.49,1.1-1.1,1.1H21.95c-.61,0-1.1-.49-1.1-1.1s.49-1.1,1.1-1.1Zm0,5.21h14.08c.61,0,1.1,.49,1.1,1.1s-.49,1.1-1.1,1.1h-14.08c-.61,0-1.1-.49-1.1-1.1s.49-1.1,1.1-1.1Zm0,5.21h28.15c.61,0,1.1,.49,1.1,1.1s-.49,1.1-1.1,1.1H21.95c-.61,0-1.1-.49-1.1-1.1s.49-1.1,1.1-1.1Zm0,5.21h28.15c.61,0,1.1,.49,1.1,1.1s-.49,1.1-1.1,1.1H21.95c-.61,0-1.1-.49-1.1-1.1s.49-1.1,1.1-1.1Zm0,5.21h14.08c.61,0,1.1,.49,1.1,1.1s-.49,1.1-1.1,1.1h-14.08c-.61,0-1.1-.49-1.1-1.1s.49-1.1,1.1-1.1Z"></path>
    <path class="cls-3" d="M78.08,19.76H20.49c-3.02,0-5.48,2.46-5.48,5.48V63.76c0,3.02,2.46,5.48,5.48,5.48h21.11v8.32h-4.75c-.61,0-1.1,.49-1.1,1.1s.49,1.1,1.1,1.1h24.86c.61,0,1.1-.49,1.1-1.1s-.49-1.1-1.1-1.1h-4.75v-5.03c0-.61-.49-1.1-1.1-1.1s-1.1,.49-1.1,1.1v5.03h-10.97v-8.32h34.28c3.02,0,5.48-2.46,5.48-5.48V25.25c0-3.02-2.46-5.48-5.48-5.48Zm0,47.29H20.49c-1.81,0-3.29-1.48-3.29-3.29v-4.05H81.37v4.05c0,1.81-1.48,3.29-3.29,3.29ZM20.49,21.95h57.59c1.81,0,3.29,1.48,3.29,3.29V57.51H17.2V25.25c0-1.81,1.48-3.29,3.29-3.29Z"></path>
    <path class="cls-2" d="M21.95,27.8h28.15c.61,0,1.1-.49,1.1-1.1s-.49-1.1-1.1-1.1H21.95c-.61,0-1.1,.49-1.1,1.1s.49,1.1,1.1,1.1Z"></path>
    <path class="cls-2" d="M21.95,33.02h28.15c.61,0,1.1-.49,1.1-1.1s-.49-1.1-1.1-1.1H21.95c-.61,0-1.1,.49-1.1,1.1s.49,1.1,1.1,1.1Z"></path>
    <path class="cls-2" d="M21.95,38.23h14.08c.61,0,1.1-.49,1.1-1.1s-.49-1.1-1.1-1.1h-14.08c-.61,0-1.1,.49-1.1,1.1s.49,1.1,1.1,1.1Z"></path>
    <path class="cls-2" d="M21.95,43.44h28.15c.61,0,1.1-.49,1.1-1.1s-.49-1.1-1.1-1.1H21.95c-.61,0-1.1,.49-1.1,1.1s.49,1.1,1.1,1.1Z"></path>
    <path class="cls-2" d="M21.95,48.65h28.15c.61,0,1.1-.49,1.1-1.1s-.49-1.1-1.1-1.1H21.95c-.61,0-1.1,.49-1.1,1.1s.49,1.1,1.1,1.1Z"></path>
    <path class="cls-2" d="M21.95,53.86h14.08c.61,0,1.1-.49,1.1-1.1s-.49-1.1-1.1-1.1h-14.08c-.61,0-1.1,.49-1.1,1.1s.49,1.1,1.1,1.1Z"></path>
    <path class="cls-4" d="M55.86,53.86h20.75c.61,0,1.1-.49,1.1-1.1V26.71c0-.61-.49-1.1-1.1-1.1h-20.75c-.61,0-1.1,.49-1.1,1.1v26.05c0,.61,.49,1.1,1.1,1.1Zm1.1-26.05h18.56v23.86h-18.56V27.8Z"></path>
  </g>
  <g>
    <path class="cls-5" d="M62.88,35.87c-.14-.14-.37-.14-.51,0-.96,.96-.96,2.53,0,3.49,.07,.07,.16,.11,.26,.11s.19-.04,.26-.11c.14-.14,.14-.37,0-.51-.68-.68-.68-1.79,0-2.47,.14-.14,.14-.37,0-.51Z"></path>
    <path class="cls-5" d="M73.65,44.54l-4.37-4.37c1.11-1.97,.84-4.53-.84-6.21-.98-.98-2.28-1.52-3.66-1.52s-2.68,.54-3.66,1.52c-2.02,2.02-2.02,5.3,0,7.32,.98,.98,2.28,1.52,3.66,1.52,.91,0,1.78-.24,2.55-.67l4.37,4.37c.54,.54,1.42,.54,1.96,0,.26-.26,.41-.61,.41-.98,0-.37-.15-.72-.41-.98Zm-11.51-4.28c-1.45-1.45-1.45-3.82,0-5.27,.7-.7,1.64-1.09,2.64-1.09s1.93,.39,2.64,1.09c1.45,1.45,1.45,3.82,0,5.27-.7,.7-1.64,1.09-2.63,1.09s-1.93-.39-2.64-1.09Z"></path>
  </g>
</svg>
