<?xml version="1.0" encoding="UTF-8"?>
<svg xmlns="http://www.w3.org/2000/svg" id="animations" viewBox="0 0 100 100">
  <defs>
    <style>
      .cls-1 {
        fill: #fff;
      }

      .cls-2 {
        fill: #c1a974;
      }

      .cls-3 {
        fill: #3f3d56;
      }

      .cls-4 {
        fill: #987018;
      }

      .cls-5 {
        fill: #ccc;
      }
    </style>
  </defs>
  <path class="cls-1" d="M32.04,34.12c-3.78,4.4-5.86,10-5.86,15.79,0,13.37,10.88,24.26,24.26,24.26s24.26-10.88,24.26-24.26-10.88-24.26-24.26-24.26c-5.79,0-11.39,2.08-15.79,5.86-.39,.33-.97,.3-1.32-.07-.47,.44-.92,.89-1.35,1.36,.37,.35,.4,.93,.07,1.32Zm17.48-2.7v-2.9c0-.53,.43-.96,.96-.96s.96,.43,.96,.96v2.9c2.77,.14,5.48,.91,7.91,2.24,.46,.25,.63,.84,.38,1.3,0,0,0,.02-.01,.02,.65,.4,1.27,.84,1.86,1.33l2.67-1.46c.37-.2,.84-.14,1.14,.16s.37,.76,.16,1.14l-1.46,2.67c.48,.59,.92,1.21,1.33,1.86,0,0,.02,0,.02-.01,.46-.25,1.05-.08,1.3,.38,1.33,2.43,2.09,5.14,2.24,7.91h2.9c.53,0,.96,.43,.96,.96s-.43,.96-.96,.96h-2.9c-.48,9.45-8.08,17.04-17.53,17.53v2.9c0,.53-.43,.96-.96,.96s-.96-.43-.96-.96v-2.9c-2.77-.14-5.48-.91-7.91-2.24-.46-.25-.63-.84-.38-1.3,0,0,0-.02,.01-.02-.65-.4-1.27-.84-1.86-1.33l-2.67,1.46c-.14,.08-.3,.12-.46,.12-.25,0-.49-.1-.68-.28-.3-.3-.37-.76-.16-1.14l1.46-2.67c-.48-.59-.92-1.21-1.33-1.86,0,0-.01,0-.02,.01-.15,.08-.3,.12-.46,.12-.34,0-.67-.18-.84-.5-1.33-2.43-2.09-5.14-2.24-7.91h-2.9c-.53,0-.96-.43-.96-.96s.43-.96,.96-.96h2.9c.48-9.45,8.08-17.04,17.53-17.53Z"></path>
  <path class="cls-5" d="M58.42,35.35c-2.42-1.33-5.17-2.03-7.94-2.03-9.15,0-16.6,7.44-16.6,16.6,0,2.77,.7,5.52,2.03,7.94,.25,.46,.09,1.03-.36,1.29,.4,.65,.85,1.27,1.33,1.86l8.58-15.7s0,0,0,0h0s0-.02,0-.02c.02-.03,.04-.06,.06-.09,0,0,.01-.02,.02-.02,.02-.03,.05-.06,.08-.09,.03-.03,.06-.06,.09-.08,0,0,.02-.01,.02-.02,.03-.02,.06-.04,.09-.06,0,0,0,0,0,0h.01s15.71-8.58,15.71-8.58c-.59-.48-1.21-.92-1.86-1.33-.26,.45-.83,.61-1.29,.36Z"></path>
  <path class="cls-5" d="M55.5,54.54h0s0,.02,0,.02c-.02,.03-.04,.06-.06,.09,0,0-.01,.02-.02,.02-.02,.03-.05,.06-.08,.09-.03,.03-.06,.06-.09,.08,0,0-.02,.01-.02,.02-.03,.02-.06,.04-.09,.06,0,0,0,0,0,0h-.01s-15.71,8.58-15.71,8.58c.59,.48,1.21,.92,1.86,1.33,.26-.45,.83-.61,1.29-.36,2.42,1.33,5.17,2.03,7.94,2.03,9.15,0,16.6-7.44,16.6-16.6,0-2.77-.7-5.52-2.03-7.94-.25-.46-.09-1.02,.36-1.29-.4-.65-.84-1.27-1.33-1.86,0,0-8.58,15.7-8.58,15.71Z"></path>
  <polygon class="cls-2" points="53.07 53.86 46.53 47.32 38.66 61.73 53.07 53.86"></polygon>
  <polygon class="cls-4" points="54.43 52.51 62.29 38.1 47.89 45.97 54.43 52.51"></polygon>
  <path class="cls-4" d="M50.48,21.83c-15.49,0-28.09,12.6-28.09,28.09s12.6,28.09,28.09,28.09,28.09-12.6,28.09-28.09-12.6-28.09-28.09-28.09Zm-.04,54.26c-14.43,0-26.17-11.74-26.17-26.17,0-6.24,2.25-12.3,6.32-17.04,.34-.4,.95-.45,1.35-.1,.01,.01,.02,.02,.03,.03,.43-.47,.89-.92,1.35-1.36-.01-.01-.02-.02-.03-.03-.34-.4-.3-1.01,.1-1.35,4.74-4.08,10.79-6.32,17.04-6.32,14.43,0,26.17,11.74,26.17,26.17s-11.74,26.17-26.17,26.17Z"></path>
  <path class="cls-3" d="M71.69,28.7c-5.67-5.67-13.2-8.79-21.21-8.79s-15.55,3.12-21.21,8.79c-5.67,5.67-8.79,13.2-8.79,21.21s3.12,15.55,8.79,21.21c5.67,5.67,13.2,8.79,21.21,8.79s15.55-3.12,21.21-8.79c5.67-5.67,8.79-13.2,8.79-21.21s-3.12-15.55-8.79-21.21Zm-21.21,49.3c-15.49,0-28.09-12.6-28.09-28.09s12.6-28.09,28.09-28.09,28.09,12.6,28.09,28.09-12.6,28.09-28.09,28.09Z"></path>
  <path class="cls-3" d="M50.44,23.74c-6.24,0-12.3,2.25-17.04,6.32-.4,.34-.45,.95-.1,1.35,0,.01,.02,.02,.03,.03,.35,.37,.93,.4,1.32,.07,4.4-3.78,10-5.86,15.79-5.86,13.37,0,24.26,10.88,24.26,24.26s-10.88,24.26-24.26,24.26-24.26-10.88-24.26-24.26c0-5.79,2.08-11.39,5.86-15.79,.33-.39,.3-.97-.07-1.32-.01-.01-.02-.02-.03-.03-.4-.34-1.01-.3-1.35,.1-4.08,4.74-6.32,10.79-6.32,17.04,0,14.43,11.74,26.17,26.17,26.17s26.17-11.74,26.17-26.17-11.74-26.17-26.17-26.17Z"></path>
  <path class="cls-3" d="M65.05,41.97c1.33,2.42,2.03,5.17,2.03,7.94,0,9.15-7.44,16.6-16.6,16.6-2.77,0-5.52-.7-7.94-2.03-.46-.25-1.03-.09-1.29,.36,0,0,0,.01-.01,.02-.25,.46-.08,1.05,.38,1.3,2.43,1.33,5.14,2.09,7.91,2.24v2.9c0,.53,.43,.96,.96,.96s.96-.43,.96-.96v-2.9c9.45-.48,17.04-8.08,17.53-17.53h2.9c.53,0,.96-.43,.96-.96s-.43-.96-.96-.96h-2.9c-.14-2.77-.91-5.48-2.24-7.91-.25-.46-.84-.63-1.3-.38,0,0-.02,0-.02,.01-.45,.26-.61,.83-.36,1.29Z"></path>
  <path class="cls-3" d="M45.85,44.89h-.01s0,0,0,.01c-.03,.02-.06,.04-.09,.06,0,0-.02,.01-.02,.02-.03,.02-.06,.05-.09,.08-.03,.03-.06,.06-.08,.09,0,0-.01,.02-.02,.02-.02,.03-.04,.06-.06,.09,0,0,0,0,0,0h0s0,.01,0,.02l-8.58,15.7-1.46,2.67c-.2,.37-.14,.84,.16,1.14,.18,.18,.43,.28,.68,.28,.16,0,.31-.04,.46-.12l2.67-1.46,15.7-8.58s.02,0,.02,0c0,0,0,0,0,0,.03-.02,.06-.04,.09-.06,0,0,.02-.01,.02-.02,.03-.02,.06-.05,.09-.08,.03-.03,.06-.06,.08-.09,0,0,.01-.02,.02-.02,.02-.03,.04-.06,.06-.09,0,0,0,0,0,0h0s8.58-15.72,8.58-15.72l1.46-2.67c.2-.37,.14-.84-.16-1.14-.3-.3-.76-.37-1.14-.16l-2.67,1.46s-15.7,8.57-15.71,8.58Zm7.22,8.97l-14.41,7.87,7.87-14.41,6.54,6.54Zm1.35-1.35l-6.54-6.54,14.41-7.87-7.87,14.41Z"></path>
  <path class="cls-3" d="M29.1,48.96c-.53,0-.96,.43-.96,.96s.43,.96,.96,.96h2.9c.14,2.77,.91,5.48,2.24,7.91,.17,.32,.5,.5,.84,.5,.16,0,.31-.04,.46-.12,0,0,.01,0,.02-.01,.45-.26,.61-.83,.36-1.29-1.33-2.42-2.03-5.17-2.03-7.94,0-9.15,7.44-16.6,16.6-16.6,2.77,0,5.52,.7,7.94,2.03,.46,.25,1.02,.09,1.29-.36,0,0,0-.02,.01-.02,.25-.46,.08-1.05-.38-1.3-2.43-1.33-5.14-2.09-7.91-2.24v-2.9c0-.53-.43-.96-.96-.96s-.96,.43-.96,.96v2.9c-9.45,.48-17.04,8.08-17.53,17.53h-2.9Z"></path>
</svg>
