<?xml version="1.0" encoding="UTF-8"?>
<svg xmlns="http://www.w3.org/2000/svg" id="articles" viewBox="0 0 100 100">
  <defs>
    <style>
      .cls-1 {
        fill: #fff;
      }

      .cls-2 {
        fill: #c1a974;
      }

      .cls-3 {
        fill: #3f3d56;
      }

      .cls-4 {
        fill: #987018;
      }

      .cls-5 {
        fill: #ccc;
      }
    </style>
  </defs>
  <path class="cls-4" d="M41.53,52.59v-1.66h-12.26v9.94h12.26v-4.31c0-.55,.45-.99,.99-.99v-1.99c-.55,0-.99-.44-.99-.99Z"></path>
  <polygon class="cls-5" points="62.54 33.31 70.28 33.31 62.54 25.57 62.54 33.31"></polygon>
  <path class="cls-1" d="M76.65,73.2h-3.98c-.55,0-.99-.44-.99-.99V35.29h-10.14c-.55,0-.99-.44-.99-.99v-10.14H21.32v48.04c0,1.64,1.34,2.98,2.98,2.98h52.35c1.64,0,2.98-1.34,2.98-2.98h-1.99c0,.55-.44,.99-.99,.99ZM38.94,37.22l3.48-2.65c.36-.27,.85-.27,1.2,0l2.88,2.19,2.88-2.19c.36-.27,.85-.27,1.2,0l3.48,2.65c.44,.33,.52,.96,.19,1.39-.2,.26-.49,.39-.79,.39-.21,0-.42-.07-.6-.2l-2.88-2.19-2.88,2.19c-.36,.27-.85,.27-1.2,0l-2.88-2.19-2.88,2.19c-.44,.33-1.06,.25-1.39-.19s-.25-1.06,.19-1.39Zm3.58,31.6h-14.25c-.55,0-.99-.44-.99-.99s.45-.99,.99-.99h14.25c.55,0,.99,.44,.99,.99s-.45,.99-.99,.99Zm.99-16.23c0,.55-.45,.99-.99,.99v1.99c.55,0,.99,.44,.99,.99v5.3c0,.55-.45,.99-.99,.99h-14.25c-.55,0-.99-.44-.99-.99v-11.93c0-.55,.45-.99,.99-.99h14.25c.55,0,.99,.44,.99,.99v2.65Zm21.2,16.23h-14.25c-.55,0-.99-.44-.99-.99s.45-.99,.99-.99h14.25c.55,0,.99,.44,.99,.99s-.44,.99-.99,.99Zm0-5.96h-14.25c-.55,0-.99-.44-.99-.99s.45-.99,.99-.99h14.25c.55,0,.99,.44,.99,.99s-.44,.99-.99,.99Zm0-5.96h-14.25c-.55,0-.99-.44-.99-.99s.45-.99,.99-.99h14.25c.55,0,.99,.44,.99,.99s-.44,.99-.99,.99Zm0-5.96h-14.25c-.55,0-.99-.44-.99-.99s.45-.99,.99-.99h14.25c.55,0,.99,.44,.99,.99s-.44,.99-.99,.99Zm0-5.96H28.28c-.55,0-.99-.44-.99-.99s.45-.99,.99-.99h36.45c.55,0,.99,.44,.99,.99s-.44,.99-.99,.99Z"></path>
  <path class="cls-5" d="M73.39,33.61s.03,.04,.05,.06c0,0,.01,.01,.02,.02,.01,.02,.03,.04,.04,.06,0,0,0,.01,.01,.02,.01,.02,.03,.04,.04,.07,0,0,0,0,0,.01,.01,.02,.03,.05,.04,.08,0,0,0,0,0,0,.01,.03,.02,.06,.03,.08,0,0,0,0,0,0,0,.03,.02,.06,.02,.09,0,0,0,.02,0,.02,0,.02,0,.05,.01,.07,0,.03,0,.07,0,.1v36.91h2.98c.55,0,.99,.44,.99,.99h1.99V29.46h-7.17c-.55,0-.99-.44-.99-.99h-3.22l5.13,5.13s0,.01,.01,.02Z"></path>
  <path class="cls-2" d="M40.15,38.8l2.88-2.19,2.88,2.19c.36,.27,.85,.27,1.2,0l2.88-2.19,2.88,2.19c.18,.14,.39,.2,.6,.2,.3,0,.6-.13,.79-.39,.33-.44,.25-1.06-.19-1.39l-3.48-2.65c-.36-.27-.85-.27-1.2,0l-2.88,2.19-2.88-2.19c-.36-.27-.85-.27-1.2,0l-3.48,2.65c-.44,.33-.52,.96-.19,1.39s.96,.52,1.39,.19Z"></path>
  <path class="cls-3" d="M80.63,27.48h-8.16c-.55,0-.99,.44-.99,.99s.44,.99,.99,.99h7.17v42.74c0,1.64-1.34,2.98-2.98,2.98H24.3c-1.64,0-2.98-1.34-2.98-2.98V24.16H60.55v10.14c0,.55,.44,.99,.99,.99h10.14v36.91c0,.55,.44,.99,.99,.99h3.98c.55,0,.99-.44,.99-.99s-.44-.99-.99-.99h-2.98V34.3s0-.07,0-.1c0-.02,0-.05-.01-.07,0,0,0-.02,0-.02,0-.03-.01-.06-.02-.09,0,0,0,0,0,0,0-.03-.02-.06-.03-.08,0,0,0,0,0,0-.01-.03-.02-.05-.04-.08,0,0,0,0,0-.01-.01-.02-.03-.04-.04-.07,0,0,0-.01-.01-.02-.01-.02-.03-.04-.04-.06,0,0-.01-.01-.02-.02-.02-.02-.03-.04-.05-.06,0,0,0-.01-.01-.02l-11.13-11.13s-.01,0-.02-.01c-.02-.02-.04-.03-.06-.05,0,0-.01-.01-.02-.02-.02-.01-.04-.03-.06-.04,0,0-.01,0-.02-.01-.02-.01-.04-.03-.07-.04,0,0,0,0-.01,0-.02-.01-.05-.03-.08-.04,0,0,0,0,0,0-.03-.01-.06-.02-.08-.03,0,0,0,0,0,0-.03,0-.06-.02-.09-.02,0,0-.02,0-.02,0-.02,0-.05,0-.07-.01-.03,0-.07,0-.1,0H20.33c-.55,0-.99,.45-.99,.99v49.04c0,2.74,2.23,4.97,4.97,4.97h52.35c2.74,0,4.97-2.23,4.97-4.97V28.47c0-.55-.44-.99-.99-.99Zm-18.09,5.83v-7.74l7.74,7.74h-7.74Z"></path>
  <path class="cls-2" d="M42.53,66.84h-14.25c-.55,0-.99,.44-.99,.99s.45,.99,.99,.99h14.25c.55,0,.99-.44,.99-.99s-.45-.99-.99-.99Z"></path>
  <path class="cls-2" d="M64.73,66.84h-14.25c-.55,0-.99,.44-.99,.99s.45,.99,.99,.99h14.25c.55,0,.99-.44,.99-.99s-.44-.99-.99-.99Z"></path>
  <path class="cls-2" d="M64.73,60.87h-14.25c-.55,0-.99,.44-.99,.99s.45,.99,.99,.99h14.25c.55,0,.99-.44,.99-.99s-.44-.99-.99-.99Z"></path>
  <path class="cls-2" d="M64.73,54.91h-14.25c-.55,0-.99,.44-.99,.99s.45,.99,.99,.99h14.25c.55,0,.99-.44,.99-.99s-.44-.99-.99-.99Z"></path>
  <path class="cls-3" d="M42.53,48.95h-14.25c-.55,0-.99,.44-.99,.99v11.93c0,.55,.45,.99,.99,.99h14.25c.55,0,.99-.44,.99-.99v-5.3c0-.55-.45-.99-.99-.99s-.99,.44-.99,.99v4.31h-12.26v-9.94h12.26v1.66c0,.55,.45,.99,.99,.99s.99-.44,.99-.99v-2.65c0-.55-.45-.99-.99-.99Z"></path>
  <path class="cls-2" d="M64.73,48.95h-14.25c-.55,0-.99,.44-.99,.99s.45,.99,.99,.99h14.25c.55,0,.99-.44,.99-.99s-.44-.99-.99-.99Z"></path>
  <path class="cls-2" d="M64.73,42.98H28.28c-.55,0-.99,.44-.99,.99s.45,.99,.99,.99h36.45c.55,0,.99-.44,.99-.99s-.44-.99-.99-.99Z"></path>
</svg>
