<?xml version="1.0" encoding="UTF-8"?>
<svg xmlns="http://www.w3.org/2000/svg" xmlns:xlink="http://www.w3.org/1999/xlink" id="zero-dechets" viewBox="0 0 120 120">
  <defs>
    <style>
      .cls-1 {
        fill: #212f3e;
      }

      .cls-2 {
        clip-path: url(#clippath-11);
      }

      .cls-3 {
        fill: #fff;
      }

      .cls-4 {
        fill: #15212c;
      }

      .cls-5 {
        fill: #00253c;
      }

      .cls-6 {
        stroke: #1c1c1b;
        stroke-width: .55px;
      }

      .cls-6, .cls-7, .cls-8, .cls-9, .cls-10 {
        fill: none;
      }

      .cls-6, .cls-10 {
        stroke-miterlimit: 10;
      }

      .cls-11 {
        fill: #808183;
      }

      .cls-12 {
        fill: #1f172a;
      }

      .cls-13 {
        fill: #f6f6f6;
      }

      .cls-14 {
        opacity: .5;
      }

      .cls-15 {
        fill: #9b5d19;
      }

      .cls-16 {
        fill: #dddcda;
      }

      .cls-17 {
        clip-path: url(#clippath-2);
      }

      .cls-18 {
        fill: #f7e111;
      }

      .cls-19 {
        fill: #041120;
      }

      .cls-20 {
        fill: #d6d0d3;
      }

      .cls-21 {
        fill: #353437;
      }

      .cls-22 {
        fill: #d49567;
      }

      .cls-7 {
        stroke: #004471;
        stroke-dasharray: 0 0 1.5 1.5;
        stroke-width: .5px;
      }

      .cls-23 {
        clip-path: url(#clippath-6);
      }

      .cls-24 {
        fill: #f3b1cd;
      }

      .cls-25 {
        fill: #b1b2b4;
      }

      .cls-26 {
        fill: #00808e;
      }

      .cls-27 {
        fill: #0b4e24;
      }

      .cls-28 {
        fill: #212934;
      }

      .cls-29 {
        fill: #d48070;
      }

      .cls-30 {
        fill: #ef90b8;
      }

      .cls-31 {
        fill: #105627;
      }

      .cls-32 {
        clip-path: url(#clippath-7);
      }

      .cls-33 {
        fill: #03411d;
      }

      .cls-34 {
        fill: #f6bca3;
      }

      .cls-35 {
        clip-path: url(#clippath-1);
      }

      .cls-36 {
        clip-path: url(#clippath-4);
      }

      .cls-37 {
        fill: #a2202c;
      }

      .cls-38 {
        fill: #7a1322;
      }

      .cls-39 {
        fill: #a05244;
      }

      .cls-40 {
        fill: #555658;
      }

      .cls-41 {
        clip-path: url(#clippath-12);
      }

      .cls-42 {
        fill: #bdccd4;
      }

      .cls-43 {
        fill: #3e3d40;
      }

      .cls-44 {
        fill: #d9837c;
      }

      .cls-45 {
        clip-path: url(#clippath-9);
      }

      .cls-46 {
        fill: #3d1f10;
      }

      .cls-47 {
        fill: #cc7b6c;
      }

      .cls-48 {
        clip-path: url(#clippath);
      }

      .cls-49 {
        fill: #20130e;
      }

      .cls-50 {
        opacity: .2;
      }

      .cls-51 {
        fill: #4a2710;
      }

      .cls-52 {
        fill: #646567;
      }

      .cls-53 {
        clip-path: url(#clippath-3);
      }

      .cls-54 {
        fill: #04421e;
      }

      .cls-55 {
        fill: #2f3f51;
      }

      .cls-56 {
        fill: #fcdac0;
      }

      .cls-57 {
        clip-path: url(#clippath-8);
      }

      .cls-58 {
        fill: #eba495;
      }

      .cls-59 {
        fill: #d0d1d2;
      }

      .cls-60 {
        fill: #a52d2c;
      }

      .cls-61 {
        fill: #efe5e9;
      }

      .cls-62 {
        fill: #064720;
      }

      .cls-63 {
        clip-path: url(#clippath-5);
      }

      .cls-64 {
        fill: #2595a3;
      }

      .cls-65 {
        fill: #fad4c0;
      }

      .cls-66 {
        fill: #d5d7d8;
      }

      .cls-67 {
        fill: #003617;
      }

      .cls-68 {
        clip-path: url(#clippath-10);
      }

      .cls-69 {
        fill: #888787;
      }

      .cls-70 {
        fill: #ffda46;
      }

      .cls-71 {
        fill: #1c1c1b;
      }

      .cls-9 {
        stroke: #eabb2a;
      }

      .cls-9, .cls-10 {
        stroke-width: 1.5px;
      }

      .cls-72 {
        fill: #3e9cae;
      }

      .cls-73 {
        fill: #223040;
      }

      .cls-10 {
        stroke: #fdc71e;
      }
    </style>
    <clipPath id="clippath">
      <path class="cls-8" d="m99.3,60.16c-2.08,8.59-2.52,24.58-2.52,24.58,1.1,1.19,2.74.3,2.74.3,0,0,.05-7.55,1.04-12.99,1-5.45,3.99-10.1,3.99-10.1,0,0-1.59-5.2-3.26-5.2-.69,0-1.39.89-2,3.4"></path>
    </clipPath>
    <clipPath id="clippath-1">
      <path class="cls-8" d="m103.38,66.88c.27,3.31,3,19.36,3,19.36,1.15.77,2.53,0,2.53,0-1.51-5.15-.92-25.11-.92-25.11l-8.58-.02s3.7,2.47,3.97,5.77"></path>
    </clipPath>
    <clipPath id="clippath-2">
      <path class="cls-8" d="m109.11,44.56c-1.34.54-4.32,3.93-4.32,3.93,0,0,1.96,1.84,2.58,1.78,0,0,3.49-4.88,3.37-5.65-.04-.23-.21-.34-.5-.34s-.66.1-1.13.29"></path>
    </clipPath>
    <clipPath id="clippath-3">
      <rect class="cls-8" x="115.33" y="51.28" width=".43" height=".22"></rect>
    </clipPath>
    <clipPath id="clippath-4">
      <rect class="cls-8" x="114.47" y="50.46" width=".65" height=".3"></rect>
    </clipPath>
    <clipPath id="clippath-5">
      <rect class="cls-8" x="112.76" y="50.75" width=".58" height=".29"></rect>
    </clipPath>
    <clipPath id="clippath-6">
      <rect class="cls-8" x="112.26" y="51.37" width=".36" height=".23"></rect>
    </clipPath>
    <clipPath id="clippath-7">
      <rect class="cls-8" x="112.55" y="52.09" width=".34" height=".2"></rect>
    </clipPath>
    <clipPath id="clippath-8">
      <rect class="cls-8" x="114.25" y="51.65" width=".41" height=".29"></rect>
    </clipPath>
    <clipPath id="clippath-9">
      <rect class="cls-8" x="57.18" y="72.95" width="11.17" height="15.82"></rect>
    </clipPath>
    <clipPath id="clippath-10">
      <rect class="cls-8" x="55.19" y="75.79" width="15.15" height="10.14" transform="translate(-22.28 137.84) rotate(-86)"></rect>
    </clipPath>
    <clipPath id="clippath-11">
      <rect class="cls-8" x="59.55" y="73.12" width="8.8" height="15.45"></rect>
    </clipPath>
    <clipPath id="clippath-12">
      <rect class="cls-8" x="56.47" y="76.95" width="14.95" height="7.78" transform="translate(-21.16 139) rotate(-86)"></rect>
    </clipPath>
  </defs>
  <g>
    <path class="cls-3" d="m104.58,43.36c-.42,0-3.59,3.15-3.96,3.54,0,0,1.16,2.45,1.72,2.89,0,0,2.32-3.26,2.53-4.08.21-.82.35-2.35-.28-2.36"></path>
    <path class="cls-71" d="m97.62,84.41s-1.44,1.19-2.11,1.17c-.67-.02-1.92-.65-2.97-.66-1.05,0-1.33,1.67-1.33,1.67,0,0,1.39,1.12,5.4,1.45l.64-.3.48.44s1.13.21,1.53.03c0,0,.21-2.93-.16-3.65-.37-.72-1.47-.16-1.47-.16"></path>
    <path class="cls-3" d="m97.98,85.94c.74.06.61,1.08.01,1.1-.59.01-.75-1.15-.01-1.1"></path>
    <path class="cls-6" d="m97.98,85.94c.74.06.61,1.08.01,1.1-.59.01-.75-1.15-.01-1.1Z"></path>
    <path class="cls-69" d="m97.62,85.13s-1.27.96-1.74.88l-.51-.43s1.07-.05,1.87-.99c.8-.94.38.54.38.54"></path>
    <path class="cls-3" d="m91.31,86.2s0-.9.9-1.3c.9-.4,2.27.49,2.72,1.49.45,1-.1.91-.1.91,0,0-2.73.06-3.52-1.1"></path>
    <path class="cls-16" d="m99.31,87.69s-5.4,0-8-1.49c0,0-.08,0-.1.41,0,0,1.22,1.18,5.4,1.45l.64-.3.48.44s.58.31,1.56.17l.03-.68Z"></path>
    <path class="cls-73" d="m104.55,61.96s-3,4.65-3.99,10.1c-1,5.45-1.04,12.99-1.04,12.99,0,0-1.64.89-2.74-.3,0,0,.44-15.99,2.52-24.58,2.08-8.59,5.25,1.79,5.25,1.79"></path>
  </g>
  <g class="cls-48">
    <path class="cls-4" d="m101.53,62.64s.76,1.87.21,3.01c-.55,1.14-2.57,7.11-2.91,12.77-.34,5.66-.23,6.92-1.71,6.62,0,0-.47.73.87.91,1.34.17,2.53-.53,2.53-.53,0,0,.87-14.91,1.86-16.79.99-1.87,1.8-3.72,1.09-4.69-.71-.96-1.93-1.3-1.93-1.3"></path>
  </g>
  <g>
    <path class="cls-71" d="m106.94,85.83s-.71,1.03-1.59,1.41c-.88.38-1.73-.43-2.55.44-.82.87-.13,1.8-.13,1.8,0,0,3.61.14,4.14.2l.5-.32s.14.19.34.24c.2.05.91,0,.99-.06.08-.05.39-2.77.08-3.5-.31-.73-1.77-.21-1.77-.21"></path>
    <path class="cls-49" d="m106.18,88.25s-.33-.72-1.71-.91c0,0,1.54-.28,1.71.91"></path>
    <path class="cls-3" d="m102.44,89.27s-.25-.64,0-1.26c.26-.62,1.17-1.07,2.16-.69.99.38,1.09,2.04,1.09,2.04l-3.25-.09Z"></path>
    <path class="cls-3" d="m107.55,88.41c-.65.18-.64-.87.1-.92.73-.06.68.7-.1.92"></path>
    <path class="cls-6" d="m107.55,88.41c-.65.18-.64-.87.1-.92.73-.06.68.7-.1.92Z"></path>
    <path class="cls-69" d="m107.66,86.13s-.7,1.05-1.31,1.36l-.75-.31s1.06-.91,1.33-1.34c.28-.43.72.3.72.3"></path>
    <path class="cls-16" d="m102.39,89.12s3.76.32,6.33,0c0,0,.06.22-.04.46,0,0-.63.16-1.17.1l-.2-.31-.32.33s-2.7.26-4.63-.19c0,0,.02-.24.04-.38"></path>
    <path class="cls-55" d="m107.99,61.13s-.58,19.95.92,25.11c0,0-1.38.77-2.53,0,0,0-2.73-16.05-3-19.36-.27-3.31-3.97-5.77-3.97-5.77l8.58.02Z"></path>
  </g>
  <g class="cls-35">
    <path class="cls-1" d="m101.1,62.16s2.58,1.66,5.79,1.66c0,0-.05,9.15.17,13.06.22,3.91.94,8.32.8,8.68-.15.36-.82.75-1.48.68,0,0,1.04.79,2.53,0,0,0-.82-5.54-.66-13.47.17-8.56-.18-9.07-.2-11.07l-6.95.46Z"></path>
  </g>
  <g>
    <path class="cls-28" d="m101.91,64.07s.27-.01.62.08c.35.09.76.28,1.03.53,0,0-.18-.02-.46-.12-.29-.09-.67-.27-1.18-.49"></path>
    <path class="cls-28" d="m104.25,64.15s-.54-.21-1.28-.45c-.74-.24-1.67-.52-2.43-.75,0,0,.09,0,.27.01.18.01.44.05.77.12.66.15,1.62.44,2.66,1.06"></path>
    <path class="cls-49" d="m107.98,61.52l-.02,1s-4.03,1.59-8.91-1.24l.19-.84s5.45,2.39,8.75,1.08"></path>
    <path class="cls-18" d="m103.91,61.76s-.2,1.02-.37,1.17c-.17.15-2.3-.29-2.44-.77-.15-.47.12-1.05.12-1.05,0,0,2.15.31,2.69.65m-2.41-.43s-.2.44-.09.81c.11.37,1.76.71,1.89.59.13-.12.28-.9.28-.9-.42-.26-2.08-.5-2.08-.5"></path>
    <path class="cls-18" d="m101.23,61.8c.03-.26.67-.09.64.19-.04.32-.67.09-.64-.19"></path>
    <path class="cls-66" d="m104.55,43.36c.35-.05,2.19-.13,3.26.2,0,0,2.44.74,2.77.94.33.2-1.17,5.62-1.4,7.03,0,0-.62,4.46-.8,5.96-.13,1.14-.09,4.53-.28,4.59-.19.06-2.58.84-5.57.08-2.99-.76-3.75-1.38-3.82-1.49-.07-.11,2.51-8.82,3.62-12.15.46-1.39,1.79-5.09,2.2-5.15"></path>
    <path class="cls-3" d="m106.87,44.73s.46.92,1.83,1.49c-.04.3-1.71,8.67-1.68,12.02.02,2.51-1.45,3.89-4.38,3.29-2.92-.59-3.3-1.43-3.03-2.21.27-.77,2.92-10.73,3.26-11.62.34-.89,1.35-4.38,3.1-4.1,2.23.35.9,1.13.9,1.13"></path>
    <path class="cls-3" d="m106.98,45.29c-.73-.26-1.3-.79-1.31-1.16-.01-.38-.05-.63.42-.78.54-.03,1.61.13,2.76.54.62.4.17.88-.13,1.14-.3.26-1.28.42-1.74.26"></path>
    <path class="cls-34" d="m107.39,41.73s-.49,1.6-.62,1.72c-.13.12-.42.03-.42.03,0,0-.72.72.52,1.25,1.24.52,1.89-.32,1.88-.47-.01-.15-.54-.41-.54-.41,0,0,.12-1.35.54-1.86.42-.51-1.36-.26-1.36-.26"></path>
    <path class="cls-65" d="m110.25,30.5s-4.32-.16-5.55,5.97c-1,5,1.25,6.86,5.01,5.95,1.53-.37,2.47-1.48,3.09-2.61.37-.68.86-.71,1.05-1.26.14-.39.01-1.72.03-2.51.04-2.16-.66-5.18-3.62-5.53"></path>
    <path class="cls-65" d="m109.43,41.77c1.45-.77,2.21-2.27,2.65-3.72.26-.87.73-1.02.84-1.69.07-.48-.25-2-.35-2.92-.08-.7-.23-1.47-.47-2.21,1.42,1.1,1.81,3.19,1.78,4.81-.01.79.11,2.12-.03,2.51-.19.55-.67.58-1.05,1.26-.62,1.14-1.56,2.25-3.09,2.61-1.07.26-2.02.29-2.8.09.75,0,1.6-.25,2.53-.74"></path>
    <path class="cls-12" d="m109.68,36.73c-.05.43.06.79.25.81.18.02.37-.31.42-.74.05-.43-.06-.79-.25-.81-.18-.02-.37.31-.42.74"></path>
    <path class="cls-12" d="m105.96,35.98c-.05.43.06.79.25.81.18.02.37-.31.42-.74s-.06-.79-.25-.81c-.18-.02-.37.31-.42.74"></path>
    <path class="cls-19" d="m108.83,34.61c.17-.2.4-.32.64-.38.24-.06.5-.06.75,0,.13.03.25.08.36.13.11.07.22.13.31.23.19.17.31.41.35.66-.25-.08-.44-.17-.63-.22-.09-.04-.19-.06-.27-.09-.09-.02-.18-.05-.27-.07-.18-.04-.37-.08-.57-.12-.2-.04-.41-.08-.67-.14"></path>
    <path class="cls-19" d="m105.27,34.34c.1-.23.29-.39.5-.49.21-.11.48-.15.74-.11.06.02.13.02.19.05.06.03.12.05.18.09.11.08.21.16.28.27.08.1.12.22.16.33.03.12.04.24.03.36-.12-.06-.2-.12-.29-.17-.09-.04-.16-.1-.25-.13-.15-.08-.29-.12-.43-.14-.14-.03-.3-.04-.49-.04-.18,0-.39,0-.63,0"></path>
    <path class="cls-44" d="m107.72,35.2c-.21.48-.47.93-.73,1.38-.27.44-.54.88-.84,1.3l-.03-.23c.14.13.27.26.39.41.12.15.24.29.34.47-.18-.08-.35-.18-.51-.28-.16-.1-.31-.22-.45-.34l-.11-.09.08-.13c.28-.44.57-.86.88-1.28.31-.41.62-.83.98-1.21"></path>
    <path class="cls-5" d="m112.16,40.86s.43-1.26.48-1.46c0,0,1.02.08,1.13-1.41.11-1.5-.81-1.71-1.06-.74l-.12.87-.54-.23.28-1.96s-.43-1.04-.24-2.48c0,0-2.99.74-5.26-.46l1.62-.11s-3.03-.14-3.86-2.99c0,0,1.32.66,2.57.43,0,0-1.62-.07-2.07-1.11,0,0,1.31.74,2.67.58,1.36-.16,5.6-1.37,6.22,2.26,0,0,1.32.03,1.4,2.29.13,3.49-3.21,6.54-3.21,6.54"></path>
    <path class="cls-19" d="m111.13,33.6c.47-1.28.4-2.78-.15-4.13,1.36.1,2.66.68,2.98,2.56,0,0,1.32.03,1.4,2.29.13,3.49-3.21,6.54-3.21,6.54,0,0,.43-1.26.48-1.46,0,0,1.02.08,1.13-1.41.11-1.5-.81-1.71-1.06-.74l-.13.87-.54-.23.28-1.96s-.43-1.04-.24-2.48c0,0-.37.09-.94.16"></path>
    <path class="cls-44" d="m109.64,39.61c-.2.23-.47.4-.75.52-.28.13-.58.21-.89.23-.31.03-.62,0-.92-.08-.3-.07-.58-.22-.82-.4.3.05.58.11.87.13.28.03.56.02.84,0,.28-.03.56-.07.83-.14.28-.07.55-.16.84-.26"></path>
    <path class="cls-44" d="m113.62,37.89c-.07-.17-.15-.33-.25-.48-.05-.07-.1-.14-.16-.17-.03-.02-.04,0-.05-.01-.01.01-.03.02-.05.05-.07.11-.08.3-.08.47,0,.17,0,.35.02.53l-.03-.05c.06.07.1.13.13.21.03.08.05.18,0,.27-.05.09-.14.13-.21.15-.04,0-.08.01-.12.02h-.11c.07-.02.14-.05.21-.08.06-.04.11-.08.12-.13.02-.1-.07-.22-.16-.31l-.02-.02v-.03c-.04-.19-.06-.37-.06-.56,0-.09,0-.19.02-.29.02-.1.04-.2.11-.3.04-.05.09-.09.16-.12.08-.02.16,0,.2.05.09.08.14.17.18.25.07.18.12.36.13.54"></path>
    <path class="cls-13" d="m110.73,44.61c-.07-.45-.66-.44-1.63-.05-1.34.54-4.32,3.93-4.32,3.93,0,0,1.96,1.84,2.58,1.78,0,0,3.49-4.88,3.37-5.65"></path>
  </g>
  <g class="cls-17">
    <path class="cls-66" d="m110.33,44.28s-.14.88-1.34,2.78c-1.2,1.9-2.25,2.8-4.06,1.6,0,0,.59,2.66,2.25,2.27,1.66-.39,5.87-6.46,3.15-6.64"></path>
  </g>
  <g>
    <path class="cls-47" d="m24.15,47.71s7.17,2.85,7.36,2.34c0,0,.12-.6.75-.44.63.16.79.18,1.29.1.51-.08.93.11.77.47-.11.25-.66.49-1.1.34,0,0-.29.02-.49.07-.2.05-2.51.59-2.51.59,0,0-3.06-.74-6.37-2.25l.3-1.22Z"></path>
    <path class="cls-39" d="m31.34,50.44s0-.02.02-.06c.01-.04.03-.09.05-.15.02-.06.04-.13.06-.21.01-.04.03-.08.04-.12.01-.04.05-.08.07-.12.03-.03.06-.07.1-.1.04-.03.07-.06.12-.07.04-.02.08-.03.12-.04.04,0,.08-.01.11,0,.07,0,.12.02.16.03.04.01.06.02.06.02,0,0-.02,0-.06,0-.04,0-.09,0-.15.01-.03,0-.06.01-.09.03-.03,0-.06.03-.1.05-.03.02-.06.04-.09.07-.03.02-.05.06-.08.09-.02.03-.04.06-.06.1-.02.04-.03.08-.05.11-.03.08-.07.15-.1.2-.03.06-.06.1-.08.13-.02.03-.04.05-.04.05"></path>
    <path class="cls-51" d="m23.53,35.81c-.69-2.32-2.17-4.5-3.99-4.69-.38-.04-.79-.02-1.16-.09,0,0-.75-.16-.75-.16-3.09-.63-6.02,2.5-6.31,5.36-.16,1.6.36,3.18.5,4.77.09.97.24,2.15,0,3.11-.16.64-.63,1.12-.79,1.75-.51,1.93,1.29,2.94,1.42,4.7.1,1.43.33,2.03,1.37,3.02-.07-.27-.07-.57-.14-.86.96,1.82,3.34,1.87,5.08,1.5.73-.15,1.69-.37,2.25-.9.5-.47.37-.94.72-1.49.08.59.24,1.45.04,1.99.39-1.24,1.05-2.33,1.26-3.64.51-3.29-.23-6.75.63-9.97.4-1.51.33-2.89-.12-4.4"></path>
    <path class="cls-29" d="m21.77,38.55c-.07-.7-.08-1.41-.18-2.11-.04-.33-.02-.58-.16-.88-.14-.29-.32-.55-.49-.8-.28-.4-.69-.65-1.11-.9-.43-.25-.95-.41-1.44-.47-1.6-.21-3.64.75-4.04,2.42-.28,1.13-.3,2.06-.11,3.17-.07-.08-.13-.16-.19-.25-.88.15-1.2.61-.54,1.46.26.33.62.4.91.41.15.83.54,1.67,1.31,2.08.4.22,1.14.39,1.53.49.06.45.2,1.39.15,1.67-.22.94-1.75.77-2.61,1.06.15,1.69,2.33,3.05,3.9,2.54,1.61.31,3.3-.57,3.24-2.27-.91-.96-1.9-.42-2.23-1.32-.09-.28-.23-1.37-.23-1.82.38-.15,1.09-.4,1.46-.68.71-.5.99-1.38,1.04-2.22.29-.04.64-.15.86-.52.58-.98.13-1.39-.88-1.39-.06.11-.13.21-.2.32"></path>
    <path class="cls-51" d="m20.38,32.76c.31,1.1-.64,2.26-1.42,2.94.29-.53.52-1.07.48-1.69-.13.57-.48,1.26-.88,1.66-.71.68-2.1,1.14-3.14,1.18.07-.24.26-.63.38-.88-1.06.55-1.18,1.86-1.51,2.9-.71-.76-.91-1.73-.81-2.75.26-2.74,2.35-4.42,4.94-4.71l1.95,1.35Z"></path>
    <path class="cls-39" d="m18.23,40.29c.08,0,.15,0,.22-.02.03,0,.06-.02.09-.03l.09-.05h0s.07-.06.08-.09c0-.03,0-.04,0-.07-.03-.07-.1-.15-.18-.22-.08-.08-.18-.17-.25-.28-.07-.11-.12-.24-.1-.37.06.11.14.19.22.26.09.07.18.13.28.2.1.08.2.17.26.33.03.08.02.19-.03.27-.05.08-.12.12-.18.15h0s-.08.03-.13.04c-.04,0-.09,0-.13,0-.09-.01-.17-.05-.22-.11"></path>
    <path class="cls-46" d="m14.89,36.89s.03-.02.07-.04c.04-.03.1-.08.17-.12.03-.02.07-.04.1-.07.04-.02.08-.04.12-.06.04-.03.08-.04.13-.06.05-.02.09-.04.13-.06.09-.03.18-.06.28-.07.04,0,.09-.02.13-.02.04,0,.08,0,.12-.01.04,0,.08,0,.11,0,.04,0,.06,0,.09,0,.05,0,.08,0,.08,0,0,0-.02-.02-.06-.05-.02-.02-.05-.04-.08-.06-.03-.02-.06-.05-.11-.06-.09-.03-.19-.08-.31-.07-.06,0-.12,0-.18,0-.06.02-.12.03-.18.05-.06.02-.11.06-.17.08-.06.03-.1.07-.14.1-.09.07-.16.16-.21.24-.06.08-.06.15-.08.2-.01.05-.02.08-.02.08"></path>
    <path class="cls-46" d="m19.22,36.22s.03,0,.08-.01c.05,0,.13-.03.21-.04.04,0,.09,0,.13-.02.04-.01.09,0,.14,0,.05,0,.1-.01.15,0,.05,0,.1,0,.15.01l.14.03s.09.03.13.05c.04.02.09.03.12.06.03.03.07.05.11.07.04.02.06.05.08.07.03.02.05.04.07.06.04.03.07.06.07.06,0,0,0-.03-.01-.08,0-.03-.01-.06-.02-.1-.01-.04-.02-.09-.05-.12-.03-.04-.06-.09-.09-.13-.03-.05-.08-.08-.14-.12-.05-.03-.11-.08-.17-.09-.06-.02-.13-.04-.19-.05-.07,0-.13,0-.2,0-.07,0-.12.02-.18.03-.12.02-.22.09-.3.13-.08.05-.13.11-.17.14-.04.04-.06.06-.06.06"></path>
    <path class="cls-60" d="m17.28,40.9s.02.03.06.09c.04.05.11.13.2.19.09.07.21.14.34.2.07.02.14.05.22.06.08.02.15.03.23.03.08,0,.16,0,.24-.01.08,0,.15-.03.23-.06.14-.06.26-.14.34-.23.04-.04.07-.09.09-.13.03-.04.04-.08.05-.11.02-.06.03-.1.03-.1l-2.01.08Z"></path>
    <path d="m19.56,38.85c.01.17.15.29.32.28.17-.01.29-.15.28-.32-.01-.17-.15-.29-.32-.28-.17.01-.29.15-.28.32"></path>
    <path d="m15.99,39.07c.01.17.15.29.32.28.17-.01.29-.15.28-.32-.01-.17-.15-.29-.32-.28-.17.01-.29.15-.28.32"></path>
    <path class="cls-39" d="m17.95,43.17c.16-.03.31-.05.47-.06.16,0,.31,0,.47.03-.15.06-.31.09-.47.1-.16,0-.32,0-.48-.07"></path>
    <path class="cls-24" d="m20.01,44.93l1.83.13c.28.14,4.46,2.67,4.46,2.67,0,0-.41,1.8-1.17,2.32l-3.32-1.7-.44-1.88-1.37-1.55Z"></path>
    <path class="cls-24" d="m22.95,54.64c-.03-.08-.39-.93-.42-1-.23-.55-.36-1.99-.28-2.2.08-.21.77-.76.22-2.27-.55-1.51-.81-4.11-.81-4.11l-.98-.08-.94-.07s.4,1.22-1.09,1.37c0,0,0,0,0,0-.03,0-.05,0-.08,0-1.35.09-1.52-1.37-1.52-1.37l-.78.12s-1.86.57-1.83,1.14c.02.58.44,6.62.74,8.4,0,0,.32,1.23.32,1.24,1.12.26,5.23.6,7.45-1.18"></path>
    <path class="cls-30" d="m18.83,51.97c.18,0,.35-.02.52-.04l.52-.08c.17-.02.35-.05.53-.05.18,0,.36,0,.54.05-.35.05-.69.12-1.04.17-.18.02-.35.04-.53.04-.18,0-.37-.02-.53-.09"></path>
    <path class="cls-30" d="m14.82,49.32c.1.38.18.77.26,1.15.08.39.15.77.22,1.16.06.39.13.78.18,1.17.05.39.1.78.13,1.17-.1-.38-.18-.77-.26-1.15-.08-.39-.15-.77-.22-1.16-.06-.39-.13-.78-.18-1.17-.05-.39-.1-.78-.13-1.17"></path>
    <path class="cls-38" d="m30.94,85.35c0-.31.2-.32.16-.48-.11-.36-1.24-.06-1.58,0-.27.07-1.21.3-1.3.59-.11.34,1.52.88,1.89.84l.83-.95Z"></path>
    <path class="cls-29" d="m28.51,76.29c-1.41-7.16-2.84-15.45-2.84-15.45l-4.05.58,1.34,4.37s2.74,8.74,2.89,10.28c.02.19.07.47.15.81.86-.12,1.71-.31,2.5-.6"></path>
    <path class="cls-42" d="m34.84,87.72c-.1-.23-.98-.36-1.2-.42-.44-.11-.98-.27-1.47-.42-.18-.06-.35-.11-.51-.16-.25-.08-.47-.15-.62-.2-.44-.15-1.49-4.88-2.55-10.23-.79.29-1.64.48-2.5.6.57,2.46,2.51,8.38,3.2,10.64l.08.29.23.83c1.52,0,3.14-.03,4.61-.42.18-.05.87-.17.71-.51"></path>
    <path class="cls-20" d="m30.93,88.44c-.77.11-1.34.08-1.75-.02l.12.36s1.72.11,3.88-.28c1.94-.35,2.34-.56,1.9-.9-.87.72-3.32.74-4.15.85"></path>
    <path class="cls-61" d="m34.11,87.1c.34.13.64.26.8.37.07.04.13.08.18.12-.42.35-1.22.53-2.02.64.25-.47.63-.93,1.04-1.13"></path>
    <path class="cls-37" d="m31.49,86.28c-.08-.16-.22-.77-.35-1.24l.36,1.2s1.02.3,1.97.64l-.04.06c-.5.1-1.93-.66-1.93-.66"></path>
    <path class="cls-38" d="m30.49,87.01s-.34-1.03-.59-1.78c.86-.17,1.19-.35,1.19-.35l.05.16c.13.47.27,1.08.35,1.24,0,0,1.44.76,1.93.66l.04-.06c.22.08.44.16.64.23-.41.2-.79.66-1.04,1.13-.2.03-.41.05-.6.07-.03-.18-.06-.39-.16-.52-.37-.49-1.34-.36-1.82-.77"></path>
    <path class="cls-37" d="m32.31,87.78c-.37-.49-1.34-.36-1.82-.77-.05-.04-.34-1.03-.59-1.78-.43.09-.98.17-1.69.23l.54,1.63.44,1.33c.28.07.64.1,1.09.08.2,0,.42-.02.66-.06.33-.04.9-.07,1.53-.13-.03-.18-.06-.39-.16-.52"></path>
    <path class="cls-61" d="m30.09,85.92c.41-.11.78-.31,1.19-.42.11-.03.06-.2-.05-.17-.41.11-.78.31-1.19.42-.11.03-.06.2.05.17"></path>
    <path class="cls-61" d="m30.33,86.62c.43-.15.85-.34,1.27-.53.1-.05.01-.2-.09-.15-.4.19-.81.37-1.23.51-.1.04-.06.2.05.17"></path>
    <path class="cls-61" d="m30.82,87.21c.3-.29.64-.54,1-.74.1-.05.01-.2-.09-.15-.38.21-.73.47-1.04.77-.08.08.04.2.12.12"></path>
    <path class="cls-61" d="m31.59,87.52c.26-.3.58-.53.89-.79.08-.07-.04-.19-.12-.12-.31.26-.63.49-.89.79-.07.08.05.21.12.12"></path>
    <path class="cls-38" d="m25.35,87.37c0-.31.2-.32.16-.48-.11-.36-1.24-.06-1.58,0-.27.07-1.21.3-1.3.58-.11.34,1.52.88,1.89.84l.83-.95Z"></path>
    <path class="cls-29" d="m22.76,77.62c-1.37-7.02-2.72-14.88-2.72-14.88l-4.05.58,1.34,4.38s2.74,8.74,2.89,10.28c0,.07.02.15.03.24.81-.1,1.71-.32,2.51-.59"></path>
    <path class="cls-42" d="m29.2,89.62c-.1-.23-.98-.36-1.2-.42-.46-.12-1.01-.28-1.5-.43-.18-.06-.35-.11-.5-.16-.24-.08-.44-.14-.58-.19-.46-.16-1.56-5.22-2.66-10.8-.79.27-1.69.49-2.51.59.33,1.94,2.56,8.75,3.31,11.22l.08.29.23.83c1.52.01,3.14-.03,4.61-.42.18-.05.87-.17.72-.51"></path>
    <path class="cls-20" d="m25.35,90.46c-.77.11-1.34.08-1.75-.02l.12.36s1.72.1,3.88-.28c1.94-.35,2.34-.55,1.9-.9-.87.72-3.32.74-4.15.85"></path>
    <path class="cls-61" d="m28.52,89.13c.34.13.64.26.8.36.07.04.13.08.18.12-.42.35-1.22.53-2.02.64.25-.47.63-.93,1.04-1.13"></path>
    <path class="cls-37" d="m25.91,88.3c-.08-.16-.22-.77-.35-1.24l.36,1.2s1.02.3,1.97.64l-.04.06c-.5.1-1.93-.66-1.93-.66"></path>
    <path class="cls-38" d="m24.9,89.03s-.34-1.03-.59-1.78c.86-.17,1.19-.35,1.19-.35l.05.16c.13.47.27,1.08.35,1.24,0,0,1.44.76,1.93.66l.04-.06c.22.08.44.16.64.23-.41.2-.79.66-1.04,1.13-.2.03-.41.05-.6.07-.03-.18-.06-.39-.16-.52-.37-.49-1.34-.36-1.82-.77"></path>
    <path class="cls-37" d="m26.72,89.8c-.37-.49-1.34-.36-1.82-.77-.05-.04-.34-1.03-.59-1.78-.43.09-.98.17-1.69.23l.54,1.63.44,1.33c.28.07.64.1,1.09.08.2,0,.42-.02.66-.06.33-.04.9-.07,1.53-.13-.03-.18-.06-.39-.16-.52"></path>
    <path class="cls-61" d="m24.5,87.94c.41-.11.78-.31,1.19-.42.11-.03.06-.2-.05-.17-.41.11-.78.31-1.19.42-.11.03-.06.2.05.17"></path>
    <path class="cls-61" d="m24.75,88.64c.43-.15.85-.34,1.27-.53.1-.05.01-.2-.09-.15-.4.19-.81.37-1.23.51-.1.04-.06.2.05.17"></path>
    <path class="cls-61" d="m25.23,89.23c.3-.29.64-.54,1-.74.1-.05.01-.2-.09-.15-.38.21-.73.47-1.04.77-.08.08.04.2.12.12"></path>
    <path class="cls-61" d="m26,89.54c.26-.3.58-.54.89-.79.08-.07-.04-.19-.12-.12-.31.26-.63.49-.89.79-.07.08.05.21.12.12"></path>
    <path class="cls-64" d="m23.09,54.42c-.12-.18-.21-.35-.3-.51-.04-.07-.07-.13-.11-.19-1.86,2.15-6.03,2.13-7.18,2.09.07.3.13.52.15.63,1.06.26,2.86.08,3.91-.14,1.47-.3,2.64-.95,3.53-1.88"></path>
    <path class="cls-72" d="m23.09,54.42c-.89.93-2.06,1.58-3.53,1.88-1.05.22-2.85.4-3.91.14,0,.02,0,.03.01.05-.02,0-.05,0-.06,0-1.46,2.04.08,10.81.08,10.81.34.03.67.05.99.06l-.22-2.29,1.03,2.29c1.98-.05,3.71-.48,5.38-.9,5.15-1.62,5.28-2.43,5.34-2.31.03.06-3.04-8.98-5.1-9.74"></path>
    <path class="cls-26" d="m19.8,55.37c.38.87.72,1.76,1.05,2.65.33.89.64,1.79.94,2.69.29.9.57,1.81.82,2.73.25.92.48,1.84.66,2.77-.13-.46-.25-.92-.39-1.37-.13-.46-.26-.91-.4-1.36-.28-.91-.55-1.81-.85-2.71-.29-.9-.59-1.8-.9-2.7l-.93-2.69Z"></path>
    <path class="cls-26" d="m15.59,56.5c.33.04.67.06,1,.06.33,0,.67,0,1-.02.67-.04,1.33-.13,1.97-.3.65-.15,1.27-.39,1.86-.69l.44-.23.42-.28c.07-.05.14-.09.21-.14l.19-.16c.13-.11.26-.21.39-.32-.47.47-.99.93-1.59,1.24-.59.33-1.23.58-1.89.74-.66.16-1.33.25-2.01.27-.67.01-1.35-.03-2.01-.17"></path>
    <path class="cls-26" d="m15.71,60.16c.28-.18.54-.4.74-.66.2-.26.35-.55.45-.86.12-.3.15-.63.18-.96.02-.33.05-.66.02-1,.1.32.12.67.12,1.01,0,.34-.03.69-.16,1.01-.11.32-.28.64-.51.89-.23.26-.53.45-.84.57"></path>
    <path class="cls-26" d="m16.4,65.22c-.22-.7-.4-1.41-.57-2.13-.17-.72-.26-1.46-.27-2.19,0-.74.04-1.48.14-2.2.05-.36.11-.73.18-1.09.07-.36.15-.72.23-1.08-.1.73-.21,1.45-.28,2.18-.07.73-.12,1.46-.1,2.19,0,.36.03.73.06,1.09.04.36.11.72.17,1.08.07.36.14.72.21,1.08l.22,1.08Z"></path>
    <path class="cls-26" d="m22.43,54.98c.36.46.75.89,1.2,1.25.45.36.95.65,1.48.89-.58-.12-1.12-.39-1.59-.76-.46-.37-.85-.85-1.09-1.38"></path>
    <path class="cls-26" d="m20.79,55.93c.19.31.33.65.45.99.13.34.26.67.4,1.01.13.34.27.68.32,1.06.02.18.03.38-.03.56-.06.18-.21.33-.39.38.16-.09.28-.23.31-.4.04-.17.01-.35-.02-.52-.07-.35-.21-.68-.34-1.01-.14-.33-.27-.68-.37-1.03-.11-.35-.2-.69-.33-1.04"></path>
    <path class="cls-26" d="m17.49,55.84c.05.06.08.12.1.18.03.06.04.13.05.19.02.13.03.26,0,.4-.1-.11-.14-.25-.16-.38-.02-.13-.02-.26.01-.41"></path>
    <path class="cls-26" d="m16.82,55.94c.09.11.13.22.16.34.02.12.04.25,0,.39-.09-.11-.13-.22-.16-.34-.02-.12-.04-.25,0-.39"></path>
    <path class="cls-26" d="m22.13,54.46c.07,0,.12.05.16.09.04.04.07.09.1.14.05.1.08.2.09.33-.12-.05-.19-.15-.24-.25-.05-.1-.08-.19-.11-.31"></path>
    <path class="cls-26" d="m22.55,54.14c.1.04.16.12.21.19.04.08.08.16.08.27-.11-.03-.17-.1-.22-.18-.04-.08-.07-.17-.06-.28"></path>
    <path class="cls-70" d="m20.48,55.63c.02.08-.03.16-.11.18-.08.02-.16-.03-.18-.11-.02-.08.03-.16.11-.18.08-.02.16.03.18.11"></path>
    <path class="cls-30" d="m19.99,48.16c.04-.41-.49-.49-.81-.6-.77-.26-1.53-.54-2.27-.88-.04-.02-.07.03-.03.06.83.56,1.86.72,2.71,1.23.41.24-.67,2.07-.77,2.5-.11.45-2.45-1.31-2.7-1.51-1.21-.99-1.42-1.71-1.69-2.78-.02-.09.01.91.26,1.41.26.53.77,1.19,1.2,1.59.47.44,1.01.83,1.56,1.17.28.17,1.13.73,1.48.56.1-.05.14-.1.18-.21.1-.29.83-1.97.88-2.54"></path>
    <path class="cls-58" d="m108.54,53.08s.13-.05.3-.15c.09-.05.18-.11.28-.19.05-.04.1-.08.15-.12.05-.04.1-.09.15-.13.04-.04.1-.1.13-.14.04-.05.07-.1.09-.15.02-.05.02-.1,0-.13-.02-.04-.06-.07-.1-.09-.09-.04-.17-.05-.23-.05-.06,0-.09,0-.09,0,0,0,.03-.01.09-.02.06,0,.15-.02.26,0,.05.02.12.04.16.11.04.06.04.15.02.22-.02.07-.06.13-.1.19-.05.06-.09.1-.14.16-.05.05-.11.09-.16.14-.05.04-.11.08-.16.12-.05.04-.11.06-.16.09-.05.03-.11.05-.15.07-.19.07-.33.08-.33.08"></path>
    <path class="cls-58" d="m110.07,53.41s.02-.02.05-.05c.03-.03.08-.07.13-.13.05-.05.11-.12.17-.19.03-.04.05-.07.08-.11.02-.04.05-.08.06-.12.02-.05.03-.08.04-.13,0-.04,0-.09,0-.13,0-.08-.04-.16-.09-.19-.05-.04-.11-.03-.15,0-.04.02-.06.03-.06.03,0,0,0,0,.01-.01,0,0,.02-.02.04-.04.02-.01.04-.03.08-.04.03-.01.08-.01.12,0,.09.04.14.14.17.24,0,.05.01.11,0,.16,0,.05-.02.12-.04.16-.02.06-.05.1-.08.15-.03.04-.07.08-.1.12-.07.07-.14.13-.21.17-.13.08-.23.12-.23.12"></path>
    <path class="cls-58" d="m110.29,53.65s.11-.06.27-.16c.08-.05.17-.11.26-.18.04-.03.09-.08.13-.12l.06-.07.05-.07.03-.08.02-.08c0-.06,0-.1,0-.16-.01-.05-.02-.09-.05-.12-.03-.03-.06-.04-.1-.04-.08,0-.16.04-.21.07-.05.03-.08.04-.08.04,0,0,.02-.03.06-.06.04-.04.1-.09.21-.12.05-.01.13-.01.18.04.06.04.08.11.1.18.01.05.02.13.02.2,0,.03-.01.07-.02.1l-.04.1-.06.09-.07.08s-.1.09-.15.12c-.1.07-.2.12-.29.16-.18.07-.31.09-.31.09"></path>
    <g class="cls-50">
      <g class="cls-53">
        <path class="cls-3" d="m115.33,51.46c.06-.08.12-.12.19-.15.07-.03.14-.04.24-.03-.02.11-.1.16-.17.19-.08.03-.17.04-.26-.02"></path>
      </g>
    </g>
    <g class="cls-50">
      <g class="cls-36">
        <path class="cls-3" d="m114.47,50.75c.06-.12.17-.19.28-.24.11-.04.23-.07.37-.04-.09.1-.19.16-.29.21-.11.04-.22.08-.35.08"></path>
      </g>
    </g>
    <g class="cls-50">
      <path class="cls-3" d="m115.86,50.56c.01-.09.07-.14.12-.17.03-.01.06-.02.1-.02.04,0,.08,0,.12.04-.04.08-.08.12-.13.15-.05.02-.11.04-.2.01"></path>
    </g>
    <g class="cls-50">
      <g class="cls-63">
        <path class="cls-3" d="m112.76,51.03c.04-.13.14-.2.24-.24.1-.04.21-.06.34-.03-.08.1-.18.15-.27.19-.1.04-.19.06-.31.08"></path>
      </g>
    </g>
    <g class="cls-50">
      <g class="cls-23">
        <path class="cls-3" d="m112.26,51.59c0-.05.03-.09.05-.12.02-.03.05-.05.08-.07.06-.03.13-.05.23-.01-.03.09-.08.14-.14.17-.06.03-.12.05-.22.03"></path>
      </g>
    </g>
    <g class="cls-50">
      <g class="cls-32">
        <path class="cls-3" d="m112.55,52.27s.03-.08.05-.11c.02-.03.05-.04.08-.05.06-.02.13-.02.21.03-.04.08-.09.11-.15.14-.03,0-.06.02-.09.01-.03,0-.06,0-.11-.02"></path>
      </g>
    </g>
    <g class="cls-50">
      <g class="cls-57">
        <path class="cls-3" d="m114.25,51.92c.05-.1.11-.15.17-.19.07-.04.14-.07.24-.08,0,.11-.07.18-.15.23-.08.04-.16.07-.27.04"></path>
      </g>
    </g>
    <path class="cls-15" d="m112.86,51.25c.12-.06.26-.07.4-.05.13.02.26.07.38.13.23.13.43.31.57.53-.23-.12-.44-.26-.65-.38-.22-.12-.43-.21-.69-.24"></path>
    <path class="cls-15" d="m113.45,52.24c-.06-.15-.12-.26-.17-.39-.05-.13-.1-.26-.11-.42.14.09.22.22.28.36.03.07.05.15.05.22,0,.08,0,.16-.05.23"></path>
  </g>
  <g>
    <path class="cls-10" d="m1.5,51.68c4.67.96,12.84-.35,18.12-1.52,5.28-1.17,2.09,3.95,11.86,1.25,9.77-2.7,18.53,15.6,29.11,14.99,10.59-.61,18.1-15.59,23.87-14.15,5.78,1.43,9.44,3.04,13.15,1.07,3.71-1.97,10.85-2.2,18.12-1.02"></path>
    <path class="cls-7" d="m1.5,51.68c4.67.96,11.95-.35,17.23-1.52,5.28-1.17,2.98,3.95,12.75,1.25,9.77-2.7,18.53,15.6,29.11,14.99,10.59-.61,18.1-15.59,23.87-14.15,5.78,1.43,9.44,3.04,13.15,1.07,3.71-1.97,10.85-2.2,18.12-1.02"></path>
  </g>
  <g>
    <path class="cls-29" d="m19.83,48.62s1.16.77,3.52,1.53c1.89.62,3.22,1,3.3.99.08-.02.95-.63,1.32-.96.36-.33.78-.29.6.18-.18.46-.63.68-.35.99.28.31.75.91.93,1.21.18.3.14.66-.27.69,0,0,.13.55-.57.4,0,0-.03.37-.46.2,0,0-.31.59-1-.02-.69-.6-.63-1.44-1.07-1.6-.44-.16-3.39-.16-6.52-2l.58-1.63Z"></path>
    <path class="cls-39" d="m28,52.44s.05.06.12.16c.03.05.08.1.12.16.05.06.09.12.14.17.05.06.1.11.16.16.03.02.05.04.08.06.02.02.05.03.08.05.02.02.05.02.07.03.02,0,.04.01.06.02.03,0,.05.01.05.01,0,0-.02,0-.05.01-.02,0-.04,0-.07,0-.02,0-.06,0-.09-.01-.03-.01-.06-.02-.1-.03-.03-.02-.07-.03-.1-.06-.07-.04-.12-.1-.18-.16-.11-.12-.19-.26-.23-.38-.05-.11-.07-.19-.07-.19"></path>
    <path class="cls-39" d="m27.42,52.62s.04.08.1.2c.03.06.07.13.11.2.04.07.08.15.14.22.05.07.11.14.16.19.06.05.12.1.17.13.06.03.11.06.15.06.04.01.06.02.06.02,0,0-.09.02-.23-.02-.07-.02-.14-.06-.21-.12-.07-.06-.13-.13-.19-.2-.11-.15-.18-.33-.21-.46-.03-.13-.04-.23-.04-.23"></path>
    <path class="cls-39" d="m26.98,53.04s.04.07.1.17c.06.1.15.23.25.33.1.11.23.19.33.24.1.05.18.07.18.08,0,0-.08.01-.2-.02-.06-.01-.13-.03-.2-.07-.07-.04-.13-.09-.19-.15-.06-.06-.11-.13-.14-.19-.04-.07-.06-.13-.08-.19-.04-.12-.04-.2-.04-.2"></path>
    <path class="cls-47" d="m31.88,51.1s-.09-.53.5-.46c.59.07.9.48.92.88.02.4-.28.46-.28.46,0,0,.15.5-.45.54,0,0-.15.52-.84.31,0,0-.24.4-.71-.19-.37-.47-.25-.81-.1-.75,0,0,0-.52.53-.39,0,0-.12-.53.42-.42"></path>
    <path class="cls-39" d="m31.88,51.1s.07.06.18.15c.1.09.24.22.37.34.07.06.14.12.2.17.07.05.13.1.19.13.03.01.05.03.08.04.03,0,.05.02.07.03.04,0,.06.01.06.01,0,0-.02,0-.06,0-.02,0-.05,0-.08,0-.03,0-.06-.01-.1-.03-.07-.03-.14-.06-.22-.11-.07-.05-.15-.11-.22-.17-.14-.13-.26-.27-.34-.38-.08-.11-.13-.2-.13-.2"></path>
    <path class="cls-39" d="m31.46,51.51s.06.08.15.19c.04.06.1.12.16.19.06.07.12.14.19.21.06.07.14.13.2.19.04.03.07.05.1.08.03.02.07.04.1.06.03.01.06.03.09.04.03.02.05.02.07.03.04.01.06.02.06.02,0,0-.02,0-.07,0-.04,0-.11-.01-.18-.03-.07-.03-.15-.06-.23-.11-.08-.05-.15-.12-.23-.19-.14-.14-.25-.31-.31-.44-.07-.13-.1-.23-.1-.23"></path>
    <path class="cls-39" d="m30.93,51.9s.01.02.03.05c.01.03.04.07.07.12.03.05.07.1.11.17.05.05.09.12.14.18.05.06.1.12.15.16.06.05.1.11.15.13.09.07.16.12.16.12,0,0-.08-.02-.19-.07-.06-.02-.11-.07-.18-.11-.07-.04-.12-.11-.17-.17-.06-.06-.1-.13-.14-.2-.03-.07-.06-.13-.08-.19-.04-.12-.04-.2-.04-.2"></path>
    <path class="cls-34" d="m100.99,47.66c-.98.6-3.12,1.82-4.12,2.39-.87.49-1.81.89-2.72,1.3-.25.12-.52.21-.79.29-.48.06-.85-.12-1.27-.41-.32-.22-.74-.16-1.1-.15-.39.01-1.57-.13-1.68.41-.13.6,1.45.55,1.78.52-.02.01-1.54.71-1.4,1.38.08.36.39.35.65.27-.02.17.15.33.47.34.26,0,.55-.15.79-.3-.01.05-.02.09,0,.14.04.21.2.35.42.25.14-.06.29-.14.43-.24,0,.07.02.13.07.19.24.3.72-.15.91-.32.21-.19.5-.51.41-.81.36-.13.71-.29,1.05-.42.81-.34,1.59-.8,2.38-1.18.73-.36,1.47-.76,2.23-1.05.41-.15,1.89-.94,2.3-1.22-.2-.32-.67-1.25-.77-1.39"></path>
    <path class="cls-22" d="m90.32,53.66s.16-.09.38-.25c.11-.08.23-.18.35-.29.06-.06.12-.12.18-.18.06-.07.12-.13.18-.2.05-.06.11-.14.15-.21.04-.07.08-.14.1-.21.02-.07.02-.13-.01-.18-.03-.05-.09-.08-.14-.1-.12-.03-.24-.04-.31-.03-.08,0-.13,0-.13,0,0,0,.04-.02.12-.04.08-.02.19-.05.34-.03.07.01.16.04.23.12.07.08.08.2.05.29-.02.1-.06.19-.11.27-.05.09-.1.15-.16.23-.06.07-.13.14-.19.21-.07.07-.14.12-.2.18-.07.06-.14.1-.2.15-.07.05-.14.08-.19.11-.25.13-.43.16-.43.16"></path>
    <path class="cls-22" d="m91.58,53.7s.03-.03.09-.09c.06-.05.13-.13.22-.23.09-.1.19-.21.29-.34.05-.06.1-.13.14-.2.05-.07.08-.14.12-.22,0-.02.02-.04.02-.05l.02-.06s.02-.07.02-.11c0-.07,0-.14-.03-.19-.06-.1-.21-.11-.33-.08-.12.03-.22.08-.29.11-.07.04-.11.06-.11.06,0,0,.03-.03.09-.09.06-.05.15-.13.28-.18.06-.03.14-.05.23-.05.09,0,.2.04.26.13.06.09.08.2.07.3,0,.05-.01.1-.02.15l-.02.06s-.02.04-.03.07c-.04.08-.08.17-.14.24-.05.08-.11.15-.17.21-.06.06-.12.12-.17.17-.06.05-.11.1-.17.14-.21.16-.37.24-.37.24"></path>
    <path class="cls-22" d="m92.42,53.86s.02-.03.06-.07c.04-.04.09-.11.16-.19.06-.08.13-.17.2-.28.03-.05.06-.11.09-.16.02-.06.05-.12.06-.17.02-.07.03-.12.03-.18,0-.06,0-.12-.01-.17-.03-.11-.08-.21-.15-.24-.07-.04-.15-.02-.2.01-.05.03-.08.05-.08.05,0,0,0,0,.01-.02.01-.01.02-.04.04-.06.02-.02.05-.05.09-.07.04-.02.1-.03.17,0,.13.04.21.16.26.3.02.07.04.14.03.22,0,.07-.01.16-.03.22-.02.08-.06.14-.08.21-.04.06-.08.12-.11.17-.08.11-.17.19-.25.26-.16.13-.29.19-.29.19"></path>
    <path class="cls-22" d="m92.75,54.15s.14-.1.34-.25c.1-.08.21-.17.32-.28.05-.05.1-.12.15-.18l.06-.1.05-.1.04-.11v-.11c0-.07,0-.14-.02-.22-.02-.06-.05-.12-.09-.15-.04-.03-.09-.04-.14-.03-.11.02-.21.08-.26.12-.06.04-.09.07-.09.07,0,0,.02-.04.07-.1.05-.05.12-.14.26-.2.07-.03.17-.03.25.02.08.05.13.14.16.22.03.07.05.17.05.27,0,.05,0,.1-.02.14l-.04.14-.06.12-.08.11c-.06.07-.12.13-.18.19-.13.11-.25.19-.37.25-.23.12-.4.17-.4.17"></path>
    <path class="cls-22" d="m99.14,54.04s0,.01,0,.03c0,.02,0,.05-.01.09-.02.08-.06.18-.13.3-.04.06-.08.11-.12.18-.05.06-.1.12-.16.18-.12.12-.25.24-.38.35-.28.22-.59.41-.88.44-.07,0-.14,0-.19-.02-.06-.02-.09-.07-.11-.11-.02-.04-.02-.07-.02-.09,0-.02,0-.03,0-.03,0,0,0,.05.05.1.02.03.06.05.1.06.04.01.1,0,.16-.01.24-.07.52-.27.79-.48.14-.11.26-.22.39-.32.06-.06.11-.11.17-.16.05-.05.1-.1.14-.15.08-.1.15-.18.18-.25.04-.06.04-.11.04-.11"></path>
    <path class="cls-56" d="m105.18,48.84c-.95.72-2.38,1.77-3.36,2.45-.63.43-1.36.74-2.03,1.1-.45.24-.92.43-1.39.62-.09.01-.17,0-.25-.05-.27-.19-.56-.32-.86-.47-.47-.23-.89-.44-1.23-.24-.48.27-.09.44.45.81-.46.3-.89.62-1.34.96-.24.18-1.07.66-.9,1.07.16.38.59.2.85.04.01,0,.02-.01.03-.02-.09.22-.06.44.31.42.22-.01.43-.07.64-.17,0,0,0,0,0,0-.05.15.19.28.3.26.25-.04.49-.13.73-.26,0,.04,0,.08.03.11.13.19.42.05.57-.02.26-.13,1.09-.64,1.24-1.1.36-.12.71-.25,1.06-.39.82-.33,1.63-.7,2.4-1.14.83-.47,1.6-1.02,2.4-1.54.34-.22,1.52-1.04,1.83-1.3-.35-.28-1.35-.98-1.48-1.15"></path>
    <path class="cls-22" d="m96.25,54.26s-.06.06-.17.16c-.11.1-.27.25-.48.41-.1.08-.21.17-.33.26-.11.1-.25.18-.41.24-.08.03-.17.05-.27.05-.1,0-.21-.04-.28-.12-.04-.04-.07-.08-.09-.12l-.02-.03h0s0-.02,0-.02h0s0-.02,0-.02c0-.02-.02-.03-.01-.07,0-.14.05-.21.1-.3.11-.15.24-.27.37-.38.13-.11.27-.21.4-.31.26-.19.52-.35.73-.5.43-.28.73-.46.73-.46,0,0-.27.22-.68.54-.21.16-.44.34-.7.54-.13.1-.26.2-.38.31-.13.11-.25.23-.34.35-.04.06-.08.14-.07.18,0,0,0,.04,0,.05v.02s0,0,0,0c0,0,0,.02,0,0h0s.01.03.01.03c.02.03.04.06.06.08.09.1.24.09.38.04.14-.05.28-.12.4-.21.12-.08.24-.16.34-.24.21-.14.39-.27.51-.36.12-.09.19-.14.19-.14"></path>
    <path class="cls-22" d="m97.02,54.64s-.02.03-.06.09c-.04.05-.11.13-.19.21-.08.09-.19.18-.3.27-.06.04-.12.09-.19.13-.07.04-.14.08-.21.12-.08.03-.16.05-.24.08-.08.02-.15.03-.23.03-.08,0-.15,0-.23,0-.07,0-.15-.03-.2-.08-.06-.05-.08-.12-.08-.17,0-.05.01-.1.02-.13,0-.03.02-.06.03-.08,0-.02.01-.02.01-.02,0,0,0,.04-.01.11,0,.06,0,.17.08.21.08.05.21.04.35.01.07-.01.14-.03.21-.05.07-.03.14-.05.2-.08.07-.03.13-.07.2-.1.06-.04.13-.08.19-.11.12-.08.23-.16.33-.22.19-.14.32-.23.32-.23"></path>
    <path class="cls-22" d="m97.81,54.69s-.01.03-.04.09c-.03.05-.07.13-.13.22-.03.04-.06.09-.11.13-.04.04-.08.09-.13.14-.05.04-.1.09-.16.13-.06.04-.12.07-.18.11-.06.04-.13.05-.2.08-.03.01-.07.02-.1.03-.04,0-.07,0-.1.01-.06,0-.12.02-.19.01-.06,0-.12,0-.18-.02-.03,0-.05-.02-.08-.02-.02-.01-.04-.03-.06-.04-.04-.02-.06-.07-.07-.09-.03-.06-.01-.1-.01-.1,0,0,0,0,0,.02,0,.02.02.03.03.06.02.02.04.04.08.05.02,0,.03.01.05.02.02,0,.04,0,.07,0,.04.01.1,0,.15,0,.05,0,.11-.02.18-.03.03,0,.07-.01.09-.02.03-.01.06-.02.09-.03.06-.02.12-.03.18-.07.06-.03.11-.06.17-.09.05-.04.1-.07.15-.11.05-.04.09-.08.14-.11.05-.04.08-.07.12-.11.15-.13.24-.24.24-.24"></path>
    <polygon class="cls-25" points="75.89 53.04 69.9 62.72 73.18 79.9 73.31 87.66 52.46 88.03 52.33 80.26 55.19 63.01 48.66 53.51 75.89 53.04"></polygon>
    <polygon class="cls-52" points="62.26 51.83 48.47 52.07 48.66 53.51 62.28 53.27 62.26 51.83"></polygon>
    <path class="cls-27" d="m76.92,51.57l-29.32.51c-.88.02-1.6-.68-1.62-1.54-.01-.87.68-1.58,1.56-1.6l29.32-.51c.88-.02,1.6.68,1.62,1.54.02.87-.68,1.58-1.56,1.6"></path>
    <path class="cls-31" d="m73.62,48.48l-22.83.4s-.04-2.09-.05-2.7c-.01-.61.48-1.11,1.1-1.12l20.6-.36c.62-.01,1.12.48,1.14,1.08.01.61.05,2.7.05,2.7"></path>
    <path class="cls-54" d="m67.28,48.6l-10.16.18s-.03-1.52-.03-1.91c0-.39.31-.71.7-.72l8.72-.15c.4,0,.72.3.73.7,0,.39.03,1.91.03,1.91"></path>
    <path class="cls-43" d="m75.58,84.89l-1.33.02c-.22,0-.4-.17-.4-.39,0-.22.17-.4.39-.4l1.33-.02c.22,0,.4.17.4.39,0,.22-.17.4-.39.4"></path>
    <path class="cls-43" d="m74.47,89.65c-.66.01-1.2-.51-1.21-1.16l-.14-7.9c-.01-.65.51-1.19,1.17-1.2.66-.01,1.2.51,1.21,1.16l.14,7.9c.01.65-.51,1.19-1.17,1.2"></path>
    <path class="cls-43" d="m51.42,85.32l-1.32.02c-.22,0-.4-.17-.4-.39,0-.22.17-.4.39-.4l1.32-.02c.22,0,.4.17.4.39,0,.22-.17.4-.39.4"></path>
    <path class="cls-43" d="m51.37,90.06c-.66.01-1.2-.51-1.21-1.16l-.14-7.9c-.01-.65.51-1.19,1.17-1.2.66-.01,1.2.51,1.21,1.16l.14,7.9c.01.65-.51,1.19-1.17,1.2"></path>
    <g class="cls-14">
      <g class="cls-45">
        <g class="cls-68">
          <path class="cls-52" d="m65.25,87.81l-.18-10.23c-.02-1.29-1.1-2.32-2.41-2.3-1.31.02-2.35,1.09-2.33,2.38l.18,10.23,4.74-.08Z"></path>
        </g>
      </g>
    </g>
    <path class="cls-59" d="m72.44,44.7l-10.3.18,10.3-.18c.62-.01,1.12.48,1.14,1.08.01.61.05,2.7.05,2.7l-11.42.2,14.66-.26c.88-.02,1.6.68,1.62,1.54.01.87-.68,1.58-1.56,1.6h0c.88-.02,1.58-.73,1.56-1.6-.02-.87-.74-1.56-1.62-1.54l-3.24.06s-.04-2.09-.05-2.7c-.01-.61-.52-1.1-1.14-1.08m3.61,6.88h0l-.15,1.45-13.61.24,13.61-.24-5.99,9.72,3.27,17.15v.3s0,0,0,0v-.3s-3.28-17.15-3.28-17.15l5.99-9.72.15-1.45Z"></path>
    <path class="cls-11" d="m62.89,87.81l10.36-.14-.12-7.07c0-.14.02-.27.06-.39v-.3s-3.28-17.15-3.28-17.15l5.99-9.72-13.61-5.31.39,16.43"></path>
    <polygon class="cls-40" points="76.04 51.59 62.26 51.83 62.28 53.27 75.9 53.04 76.04 51.59"></polygon>
    <path class="cls-33" d="m76.86,48.43l-14.66.26.06,3.14,13.79-.24h0s.87-.02.87-.02c.88-.02,1.58-.73,1.56-1.6-.02-.87-.74-1.56-1.62-1.54"></path>
    <path class="cls-62" d="m72.43,44.7l-10.3.18.02,1.18,4.36-.08c.4,0,.72.3.73.7,0,.39.03,1.91.03,1.91l-5.08.09,11.42-.2s-.04-2.09-.05-2.7c-.01-.61-.52-1.1-1.14-1.08"></path>
    <path class="cls-59" d="m74.29,79.39h0c.66-.01,1.2.51,1.21,1.16l.06,3.56c.22,0,.4.17.4.39,0,.22-.17.4-.39.4l.06,3.56c.01.65-.51,1.19-1.17,1.2h0c.66-.01,1.18-.55,1.17-1.2l-.06-3.56c.22,0,.39-.18.39-.4,0-.22-.18-.39-.4-.39l-.06-3.56c-.01-.65-.55-1.17-1.21-1.16"></path>
    <path class="cls-67" d="m66.52,45.99l-4.36.08.05,2.62,5.08-.09s-.03-1.52-.03-1.91c0-.39-.33-.7-.73-.7"></path>
    <path class="cls-21" d="m75.57,84.11v.79c.23,0,.41-.18.4-.4,0-.22-.18-.39-.4-.39"></path>
    <path class="cls-21" d="m74.29,79.39c-.52,0-.96.35-1.11.82h0s0,0,0,0c-.04.12-.06.25-.06.39l.12,7.07h0s.01.83.01.83c.01.65.55,1.17,1.21,1.16.66-.01,1.18-.55,1.17-1.2l-.06-3.56v-.79s-.08-3.56-.08-3.56c-.01-.65-.55-1.17-1.21-1.16"></path>
    <g class="cls-14">
      <g class="cls-2">
        <g class="cls-41">
          <path class="cls-40" d="m62.67,75.28l.22,12.57c.43,0,2.33-.04,2.37-.04l-.18-10.23c-.02-1.29-1.1-2.32-2.41-2.3"></path>
        </g>
      </g>
    </g>
    <path class="cls-9" d="m54.79,64.81s5.59,2.08,15.48-.27"></path>
    <path class="cls-7" d="m54.8,64.8s5.58,2.11,15.47-.27"></path>
  </g>
</svg>
