<?xml version="1.0" encoding="UTF-8"?>
<svg xmlns="http://www.w3.org/2000/svg" id="dechetteries" viewBox="0 0 100 100">
  <defs>
    <style>
      .cls-1 {
        fill: #ea610d;
      }

      .cls-2 {
        fill: #fff;
      }

      .cls-3 {
        fill: #d2b6a5;
      }

      .cls-4 {
        fill: #b39788;
      }

      .cls-5 {
        fill: #ba998a;
      }

      .cls-6 {
        fill: #e15712;
      }

      .cls-7 {
        fill: #221819;
      }

      .cls-8 {
        fill: #765645;
      }

      .cls-9 {
        fill: #ca3f17;
      }

      .cls-10 {
        fill: #f2dace;
      }

      .cls-11 {
        fill: #ed7223;
      }

      .cls-12 {
        fill: #f9e1d4;
      }

      .cls-13 {
        fill: #e3c4b4;
      }

      .cls-14 {
        fill: #e5c9bc;
      }

      .cls-15 {
        fill: #ee7a21;
      }

      .cls-16 {
        fill: #fafafd;
      }

      .cls-17 {
        fill: #9d8172;
      }

      .cls-18 {
        fill: #b18a77;
      }

      .cls-19 {
        fill: #ead2c4;
      }

      .cls-20 {
        fill: #c8ac9c;
      }
    </style>
  </defs>
  <polygon class="cls-7" points="26 59.14 52.85 46.6 52.23 46.4 26 58.47 26 59.14"></polygon>
  <polygon class="cls-3" points="24.62 59.11 53.45 45.84 53.54 35.89 24.62 38.73 24.62 59.11"></polygon>
  <polygon class="cls-14" points="4.1 36.77 23.32 38.35 23.46 59.04 4.76 50.52 4.1 36.77"></polygon>
  <polygon class="cls-12" points="4.1 36.77 23.32 38.35 23.32 36.54 3.18 35.32 3.18 36.73 4.1 36.77"></polygon>
  <path class="cls-20" d="M15.17,55.27l7.39,3.37-.03-1.98-7.4-3.11,.03,1.72Zm-8.6-5.31l-2.64,.19,10.77,4.91-.03-1.7-4.95-2.08,.03,1.47-.47-.16-.03-1.5-2.69-1.13Z"></path>
  <polygon class="cls-12" points="3.93 50.15 3.93 51.37 24.62 60.53 24.62 36.48 23.32 36.54 23.46 59.04 3.93 50.15"></polygon>
  <polygon class="cls-12" points="25.79 55.88 35.65 51.82 37.16 53.05 25.79 58.33 25.79 55.88"></polygon>
  <polygon class="cls-12" points="37.71 50.98 43.74 48.6 45.45 49.37 37.73 52.79 37.71 50.98"></polygon>
  <polygon class="cls-12" points="45.84 47.77 49.63 45.95 51.11 46.74 45.82 49.19 45.84 47.77"></polygon>
  <polygon class="cls-4" points="37.5 37.38 37.16 53.05 35.65 51.82 35.72 37.44 37.5 37.38"></polygon>
  <polygon class="cls-4" points="45.89 36.64 45.45 49.37 43.74 48.6 44.01 36.65 45.89 36.64"></polygon>
  <polygon class="cls-4" points="51.11 46.74 51.07 36.19 49.66 36.28 49.63 45.95 51.11 46.74"></polygon>
  <polygon class="cls-4" points="52.21 36.91 53.17 36.82 53.17 38.46 51.7 38.67 51.7 38.22 52.79 38.08 52.78 37.26 52.21 36.91"></polygon>
  <polygon class="cls-4" points="51.72 39.52 53.14 39.29 53.14 42.56 51.69 43.19 51.69 42.45 52.61 42.09 52.61 39.95 51.69 40.16 51.69 40.16 51.72 39.52"></polygon>
  <polygon class="cls-4" points="51.66 43.96 53.12 43.41 53.12 45.36 51.66 44.56 51.66 43.96"></polygon>
  <polygon class="cls-13" points="53.81 35.86 53.81 34.77 24.62 36.48 24.62 38.73 53.81 35.86"></polygon>
  <polygon class="cls-5" points="53.81 34.77 35.17 34.35 35.17 35.86 53.81 34.77"></polygon>
  <polygon class="cls-17" points="35.17 34.35 3.18 35.32 23.32 36.54 24.62 36.48 35.17 35.86 35.17 34.35"></polygon>
  <polygon class="cls-8" points="35.62 53.76 35.62 54.18 37.14 54.4 37.72 54.1 37.73 52.79 37.16 53.05 35.62 53.76"></polygon>
  <polygon class="cls-18" points="37.16 53.05 37.14 54.4 37.72 54.11 37.73 52.79 37.16 53.05"></polygon>
  <polygon class="cls-8" points="44.44 49.83 44.44 50.11 45.44 50.26 45.82 50.06 45.82 49.19 45.45 49.36 44.44 49.83"></polygon>
  <polygon class="cls-18" points="45.45 49.36 45.44 50.25 45.82 50.06 45.82 49.19 45.45 49.36"></polygon>
  <polygon class="cls-10" points="4.82 50.08 4.1 36.77 3.64 36.75 4.38 50.11 4.82 50.08"></polygon>
  <polygon class="cls-20" points="4.82 50.08 6.57 49.95 5.95 37.57 8.97 37.7 9.02 37.17 4.1 36.77 4.82 50.08"></polygon>
  <polygon class="cls-20" points="9.75 52.74 9.45 37.21 14.38 37.61 14.38 38.15 11.71 38.22 11.71 52.15 9.75 52.74"></polygon>
  <polygon class="cls-20" points="15.17 37.68 15.17 55.28 17.43 54.52 17.43 38.67 22.57 39.12 22.64 38.29 15.17 37.68"></polygon>
  <polygon class="cls-8" points="50.13 47.37 50.13 47.64 51.13 47.79 51.51 47.59 51.51 46.73 51.14 46.9 50.13 47.37"></polygon>
  <polygon class="cls-18" points="51.14 46.9 51.13 47.79 51.51 47.59 51.51 46.73 51.14 46.9"></polygon>
  <polygon class="cls-19" points="25.79 55.88 25.79 38.62 24.62 38.73 24.62 59.11 35.62 54.04 35.62 53.76 25.79 58.33 25.79 55.88"></polygon>
  <polygon class="cls-18" points="24.62 60.53 25.99 59.82 26 58.47 24.62 59.11 24.62 60.53"></polygon>
  <polygon class="cls-7" points="60.13 74.14 96.6 55.3 95.76 55.02 60.15 73.14 60.13 74.14"></polygon>
  <polygon class="cls-3" points="58.25 74.11 97.38 54.19 97.32 40.09 58.93 44.58 58.25 74.11"></polygon>
  <polygon class="cls-14" points="31.78 42.17 57.21 44.06 56.67 74.03 31.72 61.82 31.78 42.17"></polygon>
  <polygon class="cls-12" points="31.78 42.17 57.21 44.06 57.27 41.52 30.65 40.15 30.55 42.14 31.78 42.17"></polygon>
  <path class="cls-20" d="M45.54,68.59l9.92,4.86,.03-2.93-9.91-4.45-.04,2.52Zm-11.34-7.63l-3.57,.33,14.29,6.99,.05-2.49-6.59-2.95-.05,2.14-.62-.22,.06-2.19-3.56-1.6Z"></path>
  <polygon class="cls-12" points="30.63 61.29 30.54 63.07 58.21 76.22 59 41.41 57.27 41.52 56.67 74.03 30.63 61.29"></polygon>
  <polygon class="cls-12" points="59.95 69.31 73.42 63.17 75.45 64.94 59.87 72.94 59.95 69.31"></polygon>
  <polygon class="cls-12" points="76.21 61.91 84.36 58.34 86.67 59.44 76.22 64.55 76.21 61.91"></polygon>
  <polygon class="cls-12" points="87.19 57.11 92.26 54.43 94.26 55.53 87.17 59.17 87.19 57.11"></polygon>
  <polygon class="cls-4" points="76.07 42.45 75.45 64.94 73.42 63.17 73.71 42.58 76.07 42.45"></polygon>
  <polygon class="cls-4" points="87.2 41.28 86.67 59.44 84.36 58.35 84.71 41.32 87.2 41.28"></polygon>
  <polygon class="cls-4" points="94.26 55.53 94.06 40.55 92.2 40.71 92.26 54.43 94.26 55.53"></polygon>
  <polygon class="cls-4" points="95.58 41.54 96.85 41.4 96.88 43.71 94.93 44.03 94.93 43.4 96.38 43.17 96.35 42.03 95.58 41.54"></polygon>
  <polygon class="cls-4" points="94.98 45.22 96.86 44.88 96.92 49.51 94.99 50.43 94.97 49.38 96.2 48.86 96.17 45.82 94.94 46.13 94.94 46.13 94.98 45.22"></polygon>
  <polygon class="cls-4" points="94.96 51.54 96.91 50.72 96.94 53.51 94.96 52.39 94.96 51.54"></polygon>
  <polygon class="cls-13" points="97.69 40.05 97.67 38.52 59 41.41 58.93 44.58 97.69 40.05"></polygon>
  <polygon class="cls-5" points="97.67 38.52 73.02 38.25 73 40.36 97.67 38.52"></polygon>
  <polygon class="cls-17" points="73.02 38.25 30.65 40.15 57.27 41.52 59 41.41 73 40.36 73.02 38.25"></polygon>
  <polygon class="cls-8" points="73.35 66.01 73.35 66.62 75.41 66.92 76.19 66.48 76.22 64.55 75.45 64.94 73.35 66.01"></polygon>
  <polygon class="cls-18" points="75.45 64.94 75.41 66.92 76.19 66.48 76.22 64.55 75.45 64.94"></polygon>
  <polygon class="cls-8" points="85.3 60.13 85.3 60.52 86.65 60.72 87.17 60.43 87.17 59.17 86.67 59.43 85.3 60.13"></polygon>
  <polygon class="cls-18" points="86.67 59.42 86.65 60.72 87.17 60.43 87.17 59.17 86.67 59.42"></polygon>
  <polygon class="cls-10" points="31.23 61.23 31.83 61.18 31.78 42.17 31.17 42.16 31.23 61.23"></polygon>
  <polygon class="cls-20" points="31.83 61.18 34.2 60.96 34.18 43.27 38.17 43.4 38.27 42.65 31.78 42.17 31.83 61.18"></polygon>
  <polygon class="cls-20" points="38.32 64.97 38.84 42.7 45.37 43.18 45.34 43.94 41.79 44.08 41.01 64.08 38.32 64.97"></polygon>
  <polygon class="cls-20" points="46.41 43.26 45.54 68.61 48.65 67.44 49.37 44.62 56.18 45.16 56.31 43.99 46.41 43.26"></polygon>
  <polygon class="cls-8" points="92.95 56.46 92.95 56.85 94.3 57.04 94.81 56.76 94.8 55.51 94.3 55.76 92.95 56.46"></polygon>
  <polygon class="cls-18" points="94.3 55.76 94.3 57.04 94.81 56.76 94.8 55.51 94.3 55.76"></polygon>
  <polygon class="cls-19" points="59.95 69.31 60.48 44.4 58.93 44.58 58.25 74.11 73.35 66.42 73.35 66.01 59.87 72.94 59.95 69.31"></polygon>
  <polygon class="cls-18" points="58.21 76.22 60.1 75.14 60.15 73.14 58.25 74.11 58.21 76.22"></polygon>
  <g>
    <path class="cls-9" d="M50.94,77.53c-.9,0-1.75-.1-2.39-.3-.98-.29-1.1-.67-1.1-.93v-.47c0-.25,.11-.62,1.02-.91l1.9-9.43c.03-.28,.32-.35,.56-.35s.54,.06,.56,.35l1.9,9.43c.91,.29,1.02,.65,1.02,.91v.47c0,.26-.11,.64-1.1,.93-.64,.19-1.49,.3-2.39,.3"></path>
    <path class="cls-6" d="M50.94,74.84c-1.84,0-3.34,.45-3.34,1v.47c0,.55,1.49,1,3.34,1s3.34-.45,3.34-1v-.47c0-.55-1.49-1-3.34-1"></path>
    <path class="cls-1" d="M53.41,75.75l-2.05-10.2h-.84l-2.06,10.23v.04s-.01,.03-.01,.03h0c0,.41,1.11,.75,2.49,.75s2.49-.33,2.49-.75c0-.03,0-.06-.02-.09"></path>
    <path class="cls-6" d="M51.36,65.54c0-.09-.19-.16-.42-.16s-.42,.07-.42,.16,.19,.16,.42,.16,.42-.07,.42-.16"></path>
    <path class="cls-1" d="M51.16,65.54s-.1-.08-.22-.08-.22,.04-.22,.08,.1,.08,.22,.08,.22-.04,.22-.08"></path>
    <path class="cls-2" d="M49.49,70.64l-.56,2.79c1.32,.45,2.69,.45,4.01,0l-.56-2.79c-.96,.23-1.93,.23-2.89,0"></path>
    <path class="cls-11" d="M48.45,75.84h0s0,0,0,0m0,0h0s0,0,0,0m0,0h0m0,0h0s0,0,0,0m0,0h0s0,0,0,0m0,0h0s0,0,0,0m0,0h0s0,0,0,0m0,0h0m0,0h0s0,0,0,0m0,0h0m0,0h0s0,0,0,0m0,0h0s0,0,0,0m0,0h0m0,0h0s0,0,0,0m0,0h0m0,0h0s0,0,0,0Zm0,0"></path>
    <path class="cls-15" d="M50.52,65.54h0l-2.06,10.23v.04s-.01,.03-.01,.03h0s0,0,0,0h0s0,.01,0,.01h0s0,0,0,0h0c.04,.21,.33,.39,.79,.51l.38-2.76c-.23-.05-.46-.12-.69-.19l.56-2.79c.18,.04,.35,.08,.53,.1l.7-5.06c-.11-.03-.19-.07-.2-.12h0s0,0,0,0h0s0,0,0,0h0Z"></path>
    <path class="cls-11" d="M50.52,65.54m0,0h0s0,0,0,0m0,0,0,0h0m0,0,0,0h0m0,0h0s0,0,0,0m0,0h0s0,0,0,0m0,0s0,0,0,0c0,0,0,0,0,0m0,0c.01,.05,.09,.1,.2,.12h0c-.11-.03-.19-.07-.2-.12"></path>
    <path class="cls-2" d="M49.49,70.64l-.56,2.79c.23,.08,.46,.14,.69,.19l.4-2.88c-.18-.03-.35-.06-.53-.1"></path>
    <path class="cls-9" d="M33.19,68.97c-.82,0-1.58-.1-2.16-.27-.89-.27-.99-.61-.99-.84v-.42c0-.23,.1-.56,.93-.82l1.72-8.54c.03-.26,.29-.31,.51-.31s.49,.06,.51,.31l1.72,8.54c.83,.26,.93,.59,.93,.82v.42c0,.23-.1,.58-.99,.84-.58,.17-1.35,.27-2.16,.27"></path>
    <path class="cls-6" d="M33.19,66.53c-1.67,0-3.02,.41-3.02,.91v.42c0,.5,1.35,.91,3.02,.91s3.02-.41,3.02-.91v-.42c0-.5-1.35-.91-3.02-.91"></path>
    <path class="cls-1" d="M35.43,67.35l-1.86-9.24h-.76l-1.86,9.26v.03s-.01,.02-.01,.02h0c0,.37,1.01,.68,2.25,.68s2.25-.3,2.25-.68c0-.03,0-.05-.02-.08"></path>
    <path class="cls-6" d="M33.57,58.11c0-.08-.17-.15-.38-.15s-.38,.07-.38,.15,.17,.15,.38,.15,.38-.07,.38-.15"></path>
    <path class="cls-1" d="M33.39,58.11s-.09-.08-.2-.08-.2,.03-.2,.08,.09,.08,.2,.08,.2-.03,.2-.08"></path>
    <path class="cls-2" d="M31.88,62.72l-.51,2.53c1.2,.41,2.44,.41,3.63,0l-.51-2.53c-.87,.21-1.75,.21-2.62,0"></path>
    <path class="cls-11" d="M30.94,67.43h0s0,0,0,0m0,0s0,0,0,0c0,0,0,0,0,0m0,0h0s0,0,0,0m0,0h0s0,0,0,0m0,0h0s0,0,0,0m0,0h0s0,0,0,0m0,0s0,0,0,0c0,0,0,0,0,0m0,0h0s0,0,0,0m0,0s0,0,0,0c0,0,0,0,0,0m0,0s0,0,0,0c0,0,0,0,0,0m0,0s0,0,0,0c0,0,0,0,0,0m0,0s0,0,0,0c0,0,0,0,0,0m0,0s0,0,0,0c0,0,0,0,0,0m0,0s0,0,0,0c0,0,0,0,0,0m0,0s0,0,0,0c0,0,0,0,0,0m0,0s0,0,0,0c0,0,0,0,0,0m0,0s0,0,0,0c0,0,0,0,0,0m0,0s0,0,0,0c0,0,0,0,0,0m0,0s0,0,0,0c0,0,0,0,0,0m0,0h0s0,0,0,0"></path>
    <path class="cls-15" d="M32.81,58.11h0l-1.86,9.26v.04s-.01,.02-.01,.02h0s0,.01,0,.01h0s0,.01,0,.01h0s0,0,0,0h0s0,0,0,0,0,0,0,0h0s0,0,0,0h0s0,0,0,0h0s0,0,0,0h0s0,0,0,0h0s0,0,0,0h0s0,0,0,0h0s0,0,0,0c0,0,0,0,0,0,0,0,0,0,0,0s0,0,0,0h0s0,0,0,0h0s0,0,0,0c.07,.16,.32,.3,.7,.41l.35-2.5c-.21-.05-.42-.1-.63-.18l.51-2.53c.16,.04,.32,.07,.48,.1l.63-4.58c-.1-.02-.17-.07-.18-.11h0s0,0,0,0h0Z"></path>
    <path class="cls-11" d="M32.81,58.11m0,0h0m0,0h0m0,0h0s0,0,0,0m0,0h0m0,0h0s0,0,0,0m0,0s0,0,0,0c0,0,0,0,0,0m0,0s.08,.09,.18,.11c-.1-.02-.17-.07-.18-.11"></path>
    <path class="cls-2" d="M31.88,62.72l-.51,2.53c.21,.07,.42,.13,.63,.18l.36-2.61c-.16-.03-.32-.06-.48-.1"></path>
    <path class="cls-9" d="M16.99,61.11c-.7,0-1.36-.08-1.86-.23-.76-.23-.85-.52-.85-.72v-.36c0-.2,.08-.48,.79-.7l1.48-7.33c.02-.22,.25-.27,.44-.27s.42,.05,.44,.27l1.47,7.33c.71,.23,.79,.51,.79,.7v.36c0,.2-.09,.49-.85,.72-.5,.15-1.16,.23-1.86,.23"></path>
    <path class="cls-6" d="M16.99,59.01c-1.43,0-2.59,.35-2.59,.78v.36c0,.43,1.16,.78,2.59,.78s2.59-.35,2.59-.78v-.36c0-.43-1.16-.78-2.59-.78"></path>
    <path class="cls-1" d="M18.91,59.72l-1.6-7.93h-.65l-1.6,7.95v.03s-.01,.02-.01,.02h0c0,.32,.87,.58,1.93,.58s1.94-.26,1.94-.58c0-.02,0-.05-.01-.07"></path>
    <path class="cls-6" d="M17.31,51.79c0-.07-.15-.13-.33-.13s-.33,.06-.33,.13,.15,.13,.33,.13,.33-.06,.33-.13"></path>
    <path class="cls-1" d="M17.15,51.79s-.08-.07-.17-.07-.17,.03-.17,.07,.08,.07,.17,.07,.17-.03,.17-.07"></path>
    <path class="cls-2" d="M15.86,55.75l-.44,2.17c1.03,.35,2.09,.35,3.12,0l-.44-2.17c-.74,.18-1.5,.18-2.25,0"></path>
    <path class="cls-11" d="M15.05,59.79h0s0,0,0,0m0,0h0s0,0,0,0m0,0s0,0,0,0c0,0,0,0,0,0m0,0h0s0,0,0,0m0,0h0s0,0,0,0m0,0h0s0,0,0,0m0,0h0s0,0,0,0m0,0h0s0,0,0,0m0,0h0s0,0,0,0m0,0s0,0,0,0c0,0,0,0,0,0m0,0h0m0,0h0m0,0h0m0,0,0,0h0"></path>
    <path class="cls-15" d="M16.66,51.79h0l-1.6,7.95v.03s0,.02,0,.02h0v.02h0s0,0,0,0h0s0,0,0,0h0s0,0,0,0h0s0,0,0,0h0s0,0,0,0h0s0,0,0,0h0s0,0,0,0h0s0,0,0,0h0s0,0,0,0c.05,.14,.27,.27,.61,.37l.3-2.15c-.18-.04-.36-.09-.54-.15l.44-2.17c.14,.03,.27,.06,.41,.08l.54-3.93c-.09-.02-.15-.05-.16-.1h0s0,0,0,0h0s0,0,0,0h0Z"></path>
    <path class="cls-11" d="M16.66,51.79m0,0h0m0,0h0m0,0h0m0,0h0s0,0,0,0m0,0h0m0,0h0s0,0,0,0m0,0h0m0,0s0,0,0,0c0,0,0,0,0,0m0,0s.07,.08,.16,.1c-.09-.02-.15-.05-.16-.1"></path>
    <path class="cls-2" d="M15.86,55.75l-.44,2.17c.18,.06,.36,.11,.54,.15l.31-2.24c-.14-.02-.28-.05-.41-.08"></path>
    <path class="cls-9" d="M5.61,55.04c-.56,0-1.09-.07-1.49-.19-.61-.18-.68-.42-.68-.58v-.29c0-.16,.07-.39,.64-.57l1.18-5.89c.02-.18,.2-.22,.35-.22s.34,.04,.35,.22l1.18,5.89c.57,.18,.64,.41,.64,.57v.29c0,.16-.07,.4-.68,.58-.4,.12-.93,.19-1.49,.19"></path>
    <path class="cls-6" d="M5.61,53.36c-1.15,0-2.09,.28-2.09,.63v.29c0,.35,.93,.63,2.09,.63s2.09-.28,2.09-.63v-.29c0-.35-.93-.63-2.09-.63"></path>
    <path class="cls-1" d="M7.15,53.93l-1.28-6.37h-.53l-1.29,6.39v.03s0,.02,0,.02h0c0,.26,.7,.47,1.55,.47s1.56-.21,1.56-.47v-.06Z"></path>
    <path class="cls-6" d="M5.87,47.56c0-.06-.12-.1-.26-.1s-.26,.05-.26,.1,.12,.1,.26,.1,.26-.05,.26-.1"></path>
    <path class="cls-1" d="M5.74,47.56s-.06-.05-.14-.05-.14,.02-.14,.05,.06,.05,.14,.05,.14-.02,.14-.05"></path>
    <path class="cls-2" d="M4.7,50.74l-.35,1.74c.83,.28,1.68,.28,2.51,0l-.35-1.74c-.6,.15-1.21,.15-1.81,0"></path>
    <path class="cls-11" d="M4.05,53.99h0s0,0,0,0m0,0h0s0,0,0,0m0,0h0s0,0,0,0m0,0h0s0,0,0,0m0,0h0m0,0h0s0,0,0,0m0,0h0s0,0,0,0m0,0h0s0,0,0,0m0,0h0"></path>
    <path class="cls-15" d="M5.34,47.56h0l-1.29,6.39v.02s0,.02,0,.02h0s0,.01,0,.01h0s0,0,0,0h0s0,0,0,0c0,0,0,0,0,0,.03,.12,.21,.23,.49,.31l.24-1.73c-.15-.03-.29-.07-.43-.12l.35-1.74c.11,.03,.22,.05,.33,.07l.44-3.16c-.07-.02-.11-.04-.13-.07,0,0,0,0,0,0,0,0,0,0,0,0h0s0,0,0,0h0"></path>
    <path class="cls-11" d="M5.34,47.56h0s0,0,0,0m0,0h0s0,0,0,0m0,0h0s0,0,0,0m0,0h0s0,0,0,0m0,0h0s0,0,0,0m0,0h0s0,0,0,0m0,0h0s0,0,0,0m0,0s0,0,0,0c0,0,0,0,0,0m0,0s.06,.06,.13,.07c-.07-.02-.11-.04-.13-.07"></path>
    <path class="cls-2" d="M4.7,50.74l-.35,1.74c.14,.05,.29,.09,.43,.12l.25-1.8c-.11-.02-.22-.04-.33-.07"></path>
  </g>
  <g>
    <path class="cls-16" d="M63.34,54.3c0-.21-.04-.36-.12-.47-.08-.1-.22-.13-.4-.09l-.6,.15s-.07,.03-.09,.06c-.02,.03-.03,.06-.03,.09v5.03s0,.06,.03,.08c.02,.02,.04,.03,.07,.02l.63-.21c.18-.06,.32-.17,.4-.32,.08-.15,.12-.33,.12-.54v-3.8Zm-.52-1.3c.25-.06,.45-.07,.63-.04,.17,.03,.31,.09,.42,.19,.11,.1,.19,.23,.24,.39,.05,.16,.07,.35,.07,.57v3.7c0,.43-.1,.81-.31,1.14-.21,.33-.55,.59-1.04,.76l-1.92,.67v-.25c0-.14,.02-.25,.05-.33,.04-.08,.09-.15,.15-.2,.07-.07,.11-.14,.11-.23v-5.08c0-.06-.01-.1-.04-.12-.03-.03-.05-.04-.08-.05-.06-.02-.11-.05-.14-.11-.03-.06-.05-.15-.05-.27v-.27l1.92-.45Z"></path>
    <path class="cls-16" d="M66.46,51.24s0,.02,0,.03l-.91,.94s-.02,.02-.02,0l-.19-.19s-.02,0,0-.03l.81-1.07s0-.02,.02,0l.3,.32Zm-.65,1.81s-.03,.06-.03,.1v1.77c0,.08,.04,.11,.12,.09l.91-.26s.05,0,.08,0c.03,.01,.04,.04,.04,.08v.47c0,.08-.04,.13-.11,.15l-.91,.27c-.08,.02-.12,.07-.12,.15v1.98c0,.08,.03,.11,.09,.09l.77-.26c.05-.02,.08-.06,.08-.14,0-.09,.03-.17,.1-.24,.07-.07,.16-.13,.27-.16l.28-.09v.85c0,.06-.02,.12-.05,.17-.04,.05-.08,.09-.14,.1l-.46,.16-1.51,.53-.48,.17v-.22c0-.13,.01-.23,.04-.3s.07-.14,.12-.19c.07-.06,.1-.13,.1-.22v-4.76c0-.05-.01-.09-.03-.11-.02-.02-.05-.04-.07-.05-.05-.01-.1-.05-.12-.11-.03-.06-.04-.14-.04-.26v-.25l2.45-.57c.06-.01,.11,0,.14,.03,.03,.03,.05,.07,.05,.11v.87l-.27,.07c-.1,.03-.19,.03-.26,.02-.07-.01-.11-.07-.11-.16,0-.03,0-.06-.02-.09-.01-.03-.04-.04-.08-.03l-.73,.18s-.05,.03-.07,.06"></path>
    <path class="cls-16" d="M68.89,57.63c-.17,.06-.33,.09-.48,.09-.15,0-.28-.03-.38-.09-.11-.07-.19-.17-.26-.3-.06-.14-.09-.31-.09-.51v-3.8c0-.21,.03-.4,.1-.57,.07-.17,.15-.32,.26-.45,.11-.13,.24-.23,.39-.31,.15-.08,.31-.14,.48-.18,.17-.04,.33-.05,.47-.04,.14,.01,.27,.06,.37,.13,.1,.07,.19,.18,.25,.31,.06,.13,.09,.3,.09,.5v.59l-.29,.08c-.11,.03-.2,.01-.27-.05-.07-.06-.11-.16-.11-.28v-.11c0-.21-.05-.35-.16-.41-.11-.06-.23-.08-.35-.05-.13,.03-.25,.11-.36,.22-.11,.12-.17,.29-.17,.5v3.69c0,.17,.05,.28,.15,.35,.1,.07,.22,.08,.35,.04,.06-.02,.13-.06,.19-.11,.06-.05,.12-.11,.17-.17,.05-.07,.09-.14,.12-.22,.03-.08,.05-.15,.05-.23v-.13c0-.12,.03-.24,.09-.34,.06-.11,.15-.18,.27-.22l.3-.09v.66c0,.2-.03,.38-.09,.54-.06,.16-.15,.31-.25,.43-.11,.13-.23,.24-.38,.33-.15,.09-.3,.17-.47,.23"></path>
    <path class="cls-16" d="M72.82,55.48h0c0,.06,0,.09,.01,.11,0,.02,.02,.03,.04,.04,.03,.02,.06,.05,.09,.09,.03,.04,.05,.11,.05,.19v.22l-1,.35v-.23c0-.08,.02-.16,.05-.23,.03-.07,.06-.12,.1-.16,.02-.02,.04-.05,.05-.07,0-.02,.02-.06,.02-.11v-1.78c0-.07-.03-.1-.09-.08l-.73,.22c-.06,.02-.09,.07-.09,.14v1.8h0c0,.06,0,.09,.02,.11,.01,.02,.03,.03,.04,.04,.03,.02,.07,.05,.1,.09,.03,.05,.05,.11,.05,.2v.23l-1.06,.37v-.23c0-.09,.02-.17,.05-.23,.03-.07,.07-.12,.1-.17,.02-.02,.04-.05,.05-.07,.01-.03,.02-.06,.02-.11h0v-4.3c0-.05,0-.09-.02-.1-.01-.02-.03-.03-.05-.05-.03-.02-.07-.06-.1-.11-.03-.05-.05-.12-.05-.21v-.23l1.06-.25v.22c0,.09-.02,.16-.05,.23-.03,.06-.07,.12-.1,.15-.02,.02-.03,.05-.04,.07-.01,.02-.02,.06-.02,.11v1.57s.01,.07,.03,.08c.02,.01,.04,.02,.06,0l.73-.21s.05-.03,.06-.05c.01-.03,.02-.05,.02-.08v-1.54c0-.05,0-.08-.02-.1,0-.02-.03-.03-.05-.05-.03-.02-.07-.06-.1-.1-.03-.05-.05-.11-.05-.2v-.22l1-.23v.21c0,.08-.02,.16-.05,.22-.03,.06-.06,.11-.09,.15-.02,.02-.03,.05-.04,.07,0,.02-.01,.06-.01,.11v4.1Z"></path>
    <path class="cls-16" d="M77.43,50.13s-.02,.05-.02,.08v1.45c0,.06,.03,.09,.08,.07l.63-.18s.04,0,.05,0c.02,.01,.03,.03,.03,.07v.38c0,.06-.03,.1-.08,.12l-.63,.19c-.05,.02-.08,.06-.08,.12v1.61c0,.06,.02,.09,.06,.08l.53-.18s.06-.05,.06-.11c0-.07,.02-.14,.07-.19,.05-.06,.11-.1,.19-.12l.2-.06v.7s-.01,.09-.04,.13c-.03,.04-.06,.07-.1,.08l-.32,.11-1.04,.36-.33,.12v-.18c0-.1,.01-.19,.03-.25,.02-.06,.05-.11,.09-.15,.05-.05,.07-.11,.07-.17v-3.87s0-.07-.02-.09c-.02-.02-.03-.03-.05-.04-.04-.01-.07-.05-.09-.09-.02-.05-.03-.12-.03-.21v-.2l1.7-.4s.07,0,.1,.02,.04,.06,.04,.09v.71l-.19,.05c-.07,.02-.13,.02-.18,0-.05-.01-.08-.06-.08-.13,0-.03,0-.05-.02-.07-.01-.02-.03-.03-.06-.02l-.51,.13s-.03,.02-.05,.04"></path>
    <path class="cls-16" d="M80.77,48.8s.04,.11,.04,.22v.55l-.25,.06s-.08,0-.1-.03c-.03-.03-.04-.09-.04-.15,0-.06-.02-.08-.05-.07l-.23,.06s-.04,.02-.05,.04c-.02,.02-.02,.05-.02,.09v3.6s0,.07,.01,.09c0,.01,.02,.03,.04,.04,.02,.02,.05,.05,.07,.09,.02,.04,.04,.1,.04,.17v.19l-.8,.28v-.19c0-.08,.01-.14,.04-.2,.03-.06,.05-.1,.08-.14,.01-.02,.03-.04,.03-.06,0-.02,.01-.05,.01-.1v-3.66s0-.05-.02-.06c-.02-.01-.03-.01-.05-.01l-.22,.05s-.03,.01-.05,.03c-.02,.02-.03,.04-.03,.08,0,.08-.02,.14-.05,.18-.03,.05-.08,.08-.16,.1l-.23,.06v-.6c0-.1,.02-.18,.06-.23,.04-.05,.11-.09,.19-.11l1.57-.37c.07-.02,.12,0,.15,.03"></path>
    <path class="cls-16" d="M82.81,48.32s.04,.11,.04,.21v.52l-.23,.06s-.07,0-.09-.03c-.02-.03-.03-.08-.03-.15,0-.05-.02-.08-.05-.07l-.21,.05s-.03,.02-.04,.04c-.01,.02-.02,.05-.02,.09v3.42s0,.07,.01,.08c.01,.01,.02,.03,.03,.04,.02,.02,.05,.05,.07,.08,.02,.04,.03,.09,.03,.16v.18l-.72,.25v-.18c0-.07,.01-.13,.04-.19,.02-.05,.05-.1,.07-.13,.01-.02,.02-.04,.03-.06,.01-.02,.01-.05,.01-.09v-3.47s0-.05-.02-.06c-.02-.01-.03-.01-.05-.01l-.19,.05s-.03,.01-.04,.03c-.02,.02-.02,.04-.02,.08,0,.07-.01,.13-.04,.17-.03,.04-.08,.07-.15,.09l-.21,.05v-.57c0-.1,.02-.17,.06-.22,.04-.05,.1-.08,.17-.1l1.42-.33c.07-.02,.11,0,.14,.03"></path>
    <path class="cls-16" d="M83.62,48.6s-.02,.04-.02,.07v1.25c0,.06,.02,.08,.06,.07l.47-.13s.03,0,.04,0c.01,0,.02,.03,.02,.06v.33c0,.05-.02,.09-.06,.1l-.47,.14s-.06,.05-.06,.1v1.39c0,.05,.02,.08,.05,.07l.4-.13s.04-.04,.04-.09c0-.06,.02-.12,.05-.16,.03-.05,.08-.08,.14-.1l.15-.05v.6s0,.08-.03,.11c-.02,.03-.04,.06-.07,.07l-.24,.08-.78,.27-.25,.09v-.16c0-.09,0-.16,.02-.21,.02-.05,.04-.09,.06-.12,.04-.04,.05-.09,.05-.14v-3.33s0-.06-.02-.08c-.01-.02-.02-.03-.04-.04-.03-.01-.05-.04-.06-.08-.02-.04-.02-.1-.02-.18v-.18l1.26-.29s.06,0,.07,.02c.02,.02,.03,.05,.03,.08v.62l-.14,.04c-.05,.01-.1,.02-.14,0s-.06-.05-.06-.12c0-.02,0-.05-.01-.06,0-.02-.02-.03-.04-.02l-.38,.09s-.03,.02-.04,.04"></path>
    <path class="cls-16" d="M88.6,47.87c0-.14-.02-.24-.05-.31-.04-.07-.1-.1-.18-.08l-.22,.06s-.06,.04-.06,.1v1.42s0,.03,.02,.04c.01,0,.02,.01,.03,0l.24-.07c.08-.02,.14-.08,.18-.17,.04-.09,.05-.21,.05-.34v-.65Zm.41,2.86s.04,.03,.06,.05c.02,.02,.03,.07,.03,.14v.23l-.3,.11c-.06,.02-.11,.01-.14-.03-.03-.04-.05-.11-.05-.19v-1.15c0-.14-.02-.24-.05-.3-.04-.07-.1-.09-.18-.06l-.24,.07s-.05,.04-.05,.1v1.25s0,.07,.01,.08c0,.01,.02,.03,.03,.04,.02,.02,.04,.04,.06,.08,.02,.04,.03,.09,.03,.16v.17l-.64,.22v-.17c0-.07,.01-.13,.03-.18,.02-.05,.04-.09,.06-.12,.01-.02,.02-.04,.03-.06,0-.02,.01-.05,.01-.09v-3.35s0-.06-.01-.07c0-.02-.02-.03-.03-.03-.02-.02-.04-.04-.06-.08-.02-.04-.03-.1-.03-.19v-.17l.79-.19c.11-.03,.2-.02,.27,0,.08,.03,.14,.08,.18,.16,.05,.07,.08,.17,.11,.28,.02,.11,.03,.24,.03,.39v.6c0,.13-.02,.24-.05,.35-.03,.11-.07,.21-.13,.29-.02,.04-.02,.08,0,.11,.06,.05,.1,.13,.12,.24,.03,.11,.04,.23,.04,.38v.86s0,.06,.01,.07c0,0,.02,.01,.03,.02"></path>
    <path class="cls-16" d="M89.7,50.38h0s0,.07,.01,.08c0,.01,.02,.02,.02,.03,.02,.02,.04,.04,.06,.08,.02,.04,.03,.09,.03,.15v.17l-.59,.21v-.17c0-.07,0-.12,.03-.17s.04-.09,.06-.12c.01-.02,.02-.03,.03-.05,0-.02,0-.04,0-.08h0v-3.2s0-.07,0-.08c0-.01-.01-.03-.03-.04-.02-.02-.04-.05-.06-.08-.02-.04-.03-.09-.03-.16v-.17l.59-.14v.16c0,.07,0,.12-.03,.17-.02,.05-.04,.08-.06,.11-.01,.02-.02,.04-.03,.05,0,.02,0,.04,0,.08v3.16Z"></path>
    <path class="cls-16" d="M90.42,46.99s-.02,.04-.02,.06v1.17c0,.05,.02,.07,.05,.06l.4-.11s.02,0,.04,0c.01,0,.02,.03,.02,.06v.31c0,.05-.02,.08-.05,.09l-.4,.12s-.05,.04-.05,.09v1.3c0,.05,.01,.07,.04,.06l.33-.11s.04-.04,.04-.08c0-.06,.01-.11,.05-.15,.03-.04,.07-.07,.12-.09l.13-.04v.57s0,.08-.03,.11c-.02,.03-.04,.05-.06,.06l-.2,.07-.66,.23-.21,.07v-.15c0-.08,0-.15,.02-.2,.01-.05,.03-.08,.05-.11,.03-.04,.05-.08,.05-.13v-3.12s0-.06-.01-.08c0-.02-.02-.03-.03-.04-.02-.01-.04-.04-.05-.08-.01-.04-.02-.1-.02-.17v-.16l1.07-.25s.05,0,.06,.02c.02,.02,.02,.05,.02,.08v.58l-.12,.03s-.08,.01-.12,0c-.03-.01-.05-.05-.05-.11,0-.02,0-.04-.01-.06,0-.02-.02-.03-.04-.02l-.32,.08s-.02,.01-.03,.03"></path>
  </g>
</svg>
