<?xml version="1.0" encoding="UTF-8"?>
<svg xmlns="http://www.w3.org/2000/svg" id="textiles" viewBox="0 0 100 100">
  <defs>
    <style>
      .cls-1 {
        fill: #fff;
      }

      .cls-2 {
        fill: #32160e;
      }

      .cls-3 {
        fill: #868686;
      }

      .cls-4 {
        fill: #ed7266;
      }

      .cls-5 {
        fill: #cfcfcf;
      }

      .cls-6 {
        fill: #1a1a1a;
      }

      .cls-7 {
        fill: #e3e3e2;
      }

      .cls-8 {
        fill: #bcbcbb;
      }

      .cls-9 {
        fill: #9c9b9b;
      }
    </style>
  </defs>
  <rect class="cls-8" x="25.22" y="17.72" width="50.96" height="72.71"></rect>
  <rect class="cls-7" x="25.22" y="14.85" width="50.96" height="2.8"></rect>
  <polygon class="cls-8" points="28.93 10.49 25.22 14.85 76.17 14.79 74.56 10.43 28.93 10.49"></polygon>
  <rect class="cls-3" x="27.78" y="21.27" width="46.01" height="12.85"></rect>
  <rect class="cls-5" x="27.78" y="39.01" width="46.01" height="45.7"></rect>
  <path id="path6606" class="cls-9" d="m50.59,22.14h.34c.25,0,.45.41.45.92v8.98c0,.51-.2.92-.45.92h-.34c-.25,0-.45-.41-.45-.92v-8.98c0-.51.2-.92.45-.92Z"></path>
  <g>
    <path class="cls-6" d="m47.45,69.66c.14,0,1.64.46,3.65.46s3.33-.37,3.33-.37l.55.46s-.59,3.11-4.11,3.11-4.06-3.29-4.06-3.29l.64-.37Z"></path>
    <path class="cls-1" d="m54.25,55.29c4.08-1.11,9.26,10.41,3.04,12.73-6.21,2.31-7.31-11.57-3.04-12.73Z"></path>
    <path class="cls-1" d="m48.21,55.29c-4.08-1.11-9.26,10.41-3.04,12.73,6.21,2.31,7.31-11.57,3.04-12.73Z"></path>
    <path class="cls-1" d="m53.32,69.98l-.21.42-.03.07s-.49.67-2.16.79c-.91.07-1.59-.34-2.01-.73-.36-.33-.54-.64-.54-.64,2.74.3,4.96.09,4.96.09Z"></path>
    <path class="cls-4" d="m53.29,72.66s-1.83,1.46-4.57.09c0,0,.52-.88,1.34-.82,0,0,0,0,.01,0,.81.06.99.4.99.4,0,0,.38-.51.96-.5.05,0,.11,0,.16.02.67.12,1.1.82,1.1.82Z"></path>
    <path class="cls-4" d="m53.29,72.66s-1.83,1.46-4.57.09c0,0,.52-.88,1.34-.82,0,0,0,0,.01,0-.23.15-.47.38-.56.73,1.4.82,2.95-.09,2.95-.09,0,0-.15-.45-.44-.75.05,0,.11,0,.16.02.67.12,1.1.82,1.1.82Z"></path>
    <path class="cls-6" d="m42.2,55.58c.33-.77.75-1.49,1.24-2.18.49-.69,1.07-1.34,1.79-1.88.36-.27.74-.55,1.2-.76.23-.1.47-.18.73-.22.26-.04.52-.04.78,0,.26.04.52.11.76.22.24.11.45.25.64.41.38.33.65.73.77,1.2.01.05-.02.11-.07.12-.02,0-.03,0-.05,0h0c-.46-.1-.84-.19-1.2-.23-.18-.02-.34-.03-.49-.03-.16,0-.3.01-.45.03-.29.04-.56.08-.89.12-.32.05-.67.13-.99.3-.33.16-.65.36-.96.58-.32.22-.63.46-.93.71-.61.51-1.18,1.08-1.73,1.68h0s-.09.04-.12,0c-.03-.03-.04-.07-.02-.1Z"></path>
    <path class="cls-6" d="m60.2,55.67c-.55-.6-1.12-1.17-1.73-1.68-.3-.25-.61-.49-.93-.71-.31-.22-.64-.42-.96-.58-.32-.16-.67-.25-.99-.3-.32-.05-.6-.09-.89-.12-.14-.02-.29-.03-.45-.03-.16,0-.32,0-.49.03-.35.03-.73.13-1.2.22h0c-.05.01-.11-.02-.12-.08,0-.02,0-.03,0-.05.12-.46.39-.87.77-1.2.19-.16.41-.3.64-.41.24-.11.49-.18.76-.22.26-.04.53-.04.78,0,.26.04.5.12.73.22.45.21.83.49,1.2.76.72.54,1.3,1.19,1.79,1.88.49.69.91,1.41,1.24,2.18.02.04,0,.1-.05.12-.04.01-.07,0-.1-.02h0Z"></path>
    <path class="cls-6" d="m54.34,55.49c2.15-.55,3.87,1.99,4.64,3.61,1.01,2.1,1.63,5.01.27,7.11-1.15,1.76-3.8,2.57-5.43,1.01-1.56-1.49-1.97-4.06-1.98-6.11,0-1.21.15-2.47.6-3.6.35-.87.94-1.75,1.89-2.02.18-.05-.04-.45-.18-.41-2.04.58-2.53,3.36-2.61,5.15-.11,2.3.31,4.97,1.79,6.82.61.76,1.46,1.34,2.46,1.42,1.17.09,2.42-.46,3.23-1.29,1.88-1.93,1.43-5.09.53-7.36-.53-1.34-1.31-2.64-2.36-3.63-.8-.75-1.9-1.4-3.04-1.1-.18.05.03.44.18.41Z"></path>
    <path class="cls-6" d="m48.15,55.09c-2.31-.59-4.17,2.16-4.99,3.91-1.06,2.25-1.64,5.3-.16,7.5,1.23,1.83,3.97,2.72,5.73,1.1,1.72-1.59,2.2-4.35,2.19-6.58,0-1.99-.46-5.28-2.77-5.94-.2-.06-.04.36.11.4,1.87.53,2.26,3.17,2.34,4.79.1,2.15-.27,4.63-1.61,6.39-.56.73-1.34,1.29-2.27,1.39-1.11.11-2.32-.39-3.09-1.17-1.79-1.79-1.28-4.87-.42-6.98.5-1.24,1.22-2.46,2.2-3.38.76-.71,1.78-1.32,2.86-1.05.2.05.04-.36-.11-.4Z"></path>
    <path class="cls-6" d="m48.37,57.65c-.32-.07-.64-.03-.96.08.44.29.55,1.22.23,2.2-.35,1.07-1.07,1.8-1.62,1.63-.49-.16-.67-.99-.45-1.94-.24.47-.43,1-.55,1.58-.49,2.25.22,4.32,1.59,4.61,1.36.29,2.86-1.29,3.35-3.55.49-2.25-.22-4.32-1.59-4.61Zm.14,6.82c-.41.58-.98.88-1.28.67-.3-.21-.2-.85.21-1.43.41-.58.98-.88,1.28-.67s.2.85-.21,1.43Z"></path>
    <path class="cls-6" d="m57.44,61.19c-.49-2.25-1.99-3.84-3.35-3.55-.06.01-.12.03-.18.05.01,0,.02,0,.04,0,.55.18.71,1.19.36,2.27-.35,1.07-1.07,1.8-1.62,1.63-.13-.04-.23-.13-.32-.25.02.3.07.6.13.91.49,2.25,1.99,3.84,3.35,3.55,1.36-.29,2.07-2.36,1.59-4.61Zm-.76,3.13c-.41.58-.98.88-1.28.67-.3-.21-.2-.85.21-1.43.41-.58.98-.88,1.28-.67.3.21.2.85-.21,1.43Z"></path>
    <path class="cls-6" d="m47.91,69.04c-.54.63-1.37,1.04-2.14,1.28-.26.08-.18.32.08.24.88-.28,1.81-.75,2.42-1.46.17-.2-.26-.19-.36-.06h0Z"></path>
    <path class="cls-6" d="m53.82,69.05c.53.84,1.44,1.47,2.43,1.6.29.04-.02-.21-.16-.23-.77-.1-1.46-.68-1.86-1.33-.07-.11-.5-.19-.4-.04h0Z"></path>
    <path class="cls-6" d="m47.27,69.76c.63.05,1.26.27,1.89.34,1.12.14,2.26.15,3.38.04.57-.06,1.27-.08,1.8-.29.1-.04-.07,0-.07.03,0,.06.31.26.37.3.14.11.11.05.11.18,0,.29-.24.69-.37.93-.29.54-.71,1.02-1.22,1.36-1.42.94-3.59.74-4.84-.4-.64-.58-1.14-1.44-1.28-2.29-.03.03-.06.06-.09.09.21-.12.43-.24.64-.37.25-.14-.16-.08-.25-.03-.21.12-.43.24-.64.37-.03.01-.1.05-.09.09.22,1.3,1.18,2.51,2.4,3,1.89.76,4.37.18,5.56-1.51.3-.42.55-.92.65-1.43,0-.01,0-.02-.01-.03-.24-.2-.44-.5-.77-.43-.65.13-1.29.24-1.96.29-1.1.08-2.2.05-3.29-.11-.51-.08-1.04-.26-1.55-.3-.1,0-.46.18-.35.19Z"></path>
    <path class="cls-2" d="m48.19,69.96c.48.94,1.65,1.37,2.65,1.4.93.02,2.24-.29,2.63-1.27.08-.2-.37-.27-.43-.11-.32.81-1.35,1.1-2.13,1.1-.84,0-1.86-.35-2.27-1.16-.08-.16-.53-.14-.44.04h0Z"></path>
    <path class="cls-2" d="m48.86,72.76c.2-.24.45-.52.74-.67.44-.24.99.06,1.32.39.09.09.3-.07.36-.13.32-.34.69-.55,1.12-.27.24.16.45.35.64.57.11.12.49-.12.41-.21-.29-.33-.72-.78-1.18-.81-.51-.04-1.02.39-1.34.74.12-.04.24-.09.36-.13-.42-.41-1.05-.65-1.61-.41-.46.2-.86.57-1.17.95-.16.19.27.08.35-.02h0Z"></path>
  </g>
</svg>
