<?xml version="1.0" encoding="UTF-8"?>
<svg xmlns="http://www.w3.org/2000/svg" id="consignes_de_tri" data-name="consignes de tri" viewBox="0 0 100 100">
  <defs>
    <style>
      .cls-1 {
        fill: #fff;
      }

      .cls-2 {
        fill: #ffd73d;
      }

      .cls-3 {
        fill: #f6bc01;
      }

      .cls-4 {
        fill: #e7b105;
      }

      .cls-5 {
        fill: #e4e0ce;
      }

      .cls-6 {
        fill: #1a1a1a;
      }
    </style>
  </defs>
  <g id="g4440">
    <g id="g6412">
      <g id="g6376">
        <path id="path6372" class="cls-6" d="m28.74,72.03c1.64,0,2.97,1.32,2.97,2.97v9.67c0,1.64-1.32,2.97-2.97,2.97s-2.97-1.32-2.97-2.97v-9.67c0-1.64,1.32-2.97,2.97-2.97Z"></path>
        <path id="path6374" class="cls-6" d="m72.86,72.03c1.64,0,2.97,1.32,2.97,2.97v9.67c0,1.64-1.32,2.97-2.97,2.97s-2.97-1.32-2.97-2.97v-9.67c0-1.64,1.32-2.97,2.97-2.97Z"></path>
      </g>
      <path id="path6378" class="cls-4" d="m22.22,18.31h57.16l-6.91,10.25H29.14l-6.91-10.25Z"></path>
      <path id="path6380" class="cls-3" d="m32.05,16.18h37.51c2.08,0,3.79,1.22,3.75,2.73l-2.06,68.74c-.04,1.37-1.52,2.48-3.4,2.48h-34.06c-1.89,0-3.36-1.11-3.4-2.48l-2.06-68.74c-.05-1.51,1.67-2.73,3.75-2.73h0Z"></path>
      <path id="path6382" class="cls-3" d="m27.79,10.13h46.02c.83,0,1.5.67,1.5,1.5v2.73c0,.83-.67,1.5-1.5,1.5H27.79c-.83,0-1.5-.67-1.5-1.5v-2.73c0-.83.67-1.5,1.5-1.5Z"></path>
      <g id="g6388">
        <path id="path6384" class="cls-4" d="m41.69,18.58h.42c.31,0,.57.25.57.57v5.56c0,.31-.25.57-.57.57h-.42c-.31,0-.57-.25-.57-.57v-5.56c0-.31.25-.57.57-.57Z"></path>
        <path id="path6386" class="cls-4" d="m59.49,18.58h.42c.31,0,.57.25.57.57v5.56c0,.31-.25.57-.57.57h-.42c-.31,0-.57-.25-.57-.57v-5.56c0-.31.25-.57.57-.57Z"></path>
      </g>
      <path id="path6390" class="cls-2" d="m20.8,14.17h59.99v5.55H20.8v-5.55Z"></path>
    </g>
  </g>
  <g>
    <path class="cls-5" d="m63,50.08c.1,1.18-.53,3.67-3.54,4.65-3.01.98-4.97-2.91-4.97-2.91,0,0,1.55,2.48,4.58,1.56,3.04-.93,3.93-3.3,3.93-3.3Z"></path>
    <path class="cls-1" d="m60.11,39.24c5.28.41,6.54,16.19-1.76,16.31-8.31.12-3.76-16.74,1.76-16.31Z"></path>
    <path class="cls-1" d="m60.08,60.61c-.05.18-2.94,10.34-12.54,8.7-6.45-1.11-7.9-6.89-8.14-10.67-.12-1.94.07-3.35.07-3.35,0,0,1.14-.69,1.89-.63,0,0-.4,7.44,7.73,8.82,6.67,1.13,9.8-1.53,10.7-2.51.18-.2.27-.33.29-.35Z"></path>
    <path d="m66.35,39.28c-.51-.88-1.07-1.73-1.68-2.51-.3-.39-.62-.77-.95-1.12-.33-.35-.67-.68-1.03-.96-.35-.29-.76-.49-1.14-.63-.38-.14-.71-.26-1.05-.38-.17-.06-.35-.11-.54-.16-.19-.04-.39-.07-.61-.1-.44-.05-.93-.03-1.53-.04h0c-.07,0-.13-.06-.13-.13,0-.02,0-.04.01-.06.27-.54.71-.97,1.26-1.27.27-.15.58-.26.89-.33.32-.07.65-.09.98-.07.33.02.66.09.96.21.3.12.58.28.83.46.5.37.9.82,1.27,1.24.75.85,1.28,1.8,1.7,2.77.42.98.75,1.97.95,2.99.01.06-.03.12-.09.13-.05,0-.09-.01-.12-.05h0Z"></path>
    <path d="m60.23,39.5c2.61.24,3.54,3.79,3.8,5.9.35,2.81-.02,6.28-2.12,8.39-1.81,1.81-5.49,2.28-7.04-.11-1.52-2.34-.92-5.8-.1-8.27.5-1.52,1.23-3.03,2.28-4.24.8-.93,1.9-1.75,3.18-1.67.2.01-.03-.5-.22-.51-2.8-.18-4.59,3.28-5.4,5.46-1.01,2.72-1.63,6.28-.22,8.98,1.4,2.67,4.98,3.09,7.29,1.32,2.51-1.92,3.05-5.61,2.8-8.55-.14-1.69-.56-3.41-1.41-4.89-.66-1.14-1.68-2.19-3.06-2.31-.19-.02.03.49.22.51Z"></path>
    <path d="m57.38,45.88c-.13-.03-.26,0-.39.05.18.13.25.51.16.92-.11.48-.39.82-.64.77-.24-.05-.36-.47-.26-.93-.16.29-.3.63-.38,1.01-.25,1.13.02,2.15.61,2.28.59.13,1.26-.68,1.51-1.82.25-1.13-.02-2.15-.61-2.28Z"></path>
    <path d="m38.99,48.39c3.21-.62,6.88.22,9.14,2.65.11.12,1.09.56,1.04.2-.36-2.41-1.99-4.65-4.22-5.68-.12-.06-.6-.25-.71-.1-.12.16.18.31.3.36.04.02.17.09.04.02.13.07.25.14.37.22.4.26.78.56,1.12.89,1.11,1.09,1.8,2.49,2.03,4.03.35.07.69.13,1.04.2-2.68-2.89-7.18-4.04-11.01-3.3-.25.05.01.27.1.33.2.13.52.24.76.19h0Z"></path>
    <path d="m42.4,50.56c1.71-.21,3.66.09,5.07,1.1.13.09.61-.13.52-.21-1.49-1.07-3.56-1.36-5.36-1.14-.16.02-.59.29-.23.25h0Z"></path>
    <path d="m38.42,56.3c1.1-1.17,2.93-1.87,4.56-1.27.19.07.6-.3.33-.4-1.88-.69-3.97.19-5.29,1.59-.26.27.24.26.4.09h0Z"></path>
    <path d="m39.7,55.45c.53-.31,1.16-.62,1.79-.61-.13-.09-.26-.19-.39-.28-.13,2.46,1.03,5.09,2.83,6.72,1.93,1.74,4.48,2.39,7.01,2.6,2.36.19,4.83-.08,6.96-1.18.89-.46,1.85-1.11,2.43-1.96-.17-.09-.34-.18-.51-.27-1.03,3.72-3.91,7.38-7.7,8.46-3.14.9-6.98.22-9.34-2.12-1.82-1.81-2.68-4.38-3-6.88-.19-1.49-.25-3.06-.05-4.56.03-.19-.49-.42-.53-.19-.18,1.35-.14,2.76,0,4.12.27,2.56,1.05,5.16,2.76,7.13,2.14,2.47,5.6,3.51,8.8,3.19,2.93-.29,5.42-1.91,7.17-4.22,1.04-1.37,1.93-3,2.4-4.66.06-.2-.38-.45-.51-.27-.42.61-1.07,1.1-1.68,1.49-1.75,1.12-3.85,1.57-5.9,1.59-2.59.03-5.44-.41-7.54-2.04-1.35-1.05-2.27-2.54-2.73-4.18-.23-.82-.39-1.72-.35-2.58,0-.17-.26-.28-.39-.28-.7-.02-1.4.31-1.99.65-.19.11.27.44.45.33Z"></path>
    <path d="m40.06,54.78c-.38,3.04.72,6.44,2.63,8.79.99,1.21,2.22,2.19,3.58,2.96.26.14.59-.07.26-.26-3.81-2.14-5.97-6.1-5.97-10.43,0-.32,0-.64.05-.95.03-.21-.52-.37-.55-.11h0Z"></path>
    <path d="m59.91,60.78s.07.04.12.07c.12.08.24.16.36.25.33.26.62.6.78.99.09.24.65.11.56-.11-.27-.68-.84-1.22-1.48-1.54-.21-.11-.65.18-.34.34h0Z"></path>
    <path d="m39.12,40.12c1.26-.24,2.55-.24,3.84-.07,1.29.18,2.59.57,3.77,1.28.59.35,1.18.72,1.72,1.19.53.47.97,1.04,1.27,1.68.07.16.14.32.2.49l.09.24c.03.08.05.17.07.25.04.17.09.33.13.5.03.17.05.34.07.51.02.17.04.34.03.51,0,.17,0,.34-.01.51,0,.17-.04.34-.07.51-.03.17-.07.34-.12.5-.02.06-.09.1-.15.08-.02,0-.04-.02-.06-.04h0c-.22-.28-.39-.55-.57-.82-.09-.13-.18-.26-.26-.39-.04-.06-.08-.13-.12-.19-.04-.06-.09-.12-.13-.18-.08-.12-.16-.25-.24-.37-.09-.12-.17-.23-.25-.35-.04-.06-.08-.12-.12-.17l-.13-.17c-.08-.11-.16-.23-.24-.33-.17-.21-.32-.44-.49-.65-.15-.22-.32-.43-.47-.66-.32-.44-.69-.87-1.13-1.22-.44-.36-.92-.67-1.43-.94-.51-.28-1.05-.52-1.62-.72-1.12-.41-2.34-.67-3.56-.77h0c-.06,0-.1-.06-.1-.12,0-.05.04-.09.09-.1Z"></path>
  </g>
</svg>
