<?xml version="1.0" encoding="UTF-8"?>
<svg xmlns="http://www.w3.org/2000/svg" id="etoiles" viewBox="0 0 100 100">
  <defs>
    <style>
      .cls-1 {
        fill: #987018;
      }

      .cls-2 {
        fill: #707070;
      }
    </style>
  </defs>
  <path class="cls-1" d="m52.96,62.69l-2.41-1.06c-.35-.15-.77,0-.92.36s0,.77.36.92l2.41,1.06c.09.04.19.06.28.06.38,0,.69-.3.7-.68,0-.28-.16-.53-.42-.64v-.02Z"></path>
  <path class="cls-2" d="m59.08,67.56l-2.11-8.69c-.05-.21,0-.43.15-.59l5.96-6.67c.73-.88.61-2.19-.27-2.92-.32-.26-.7-.42-1.11-.47l-8.92-.69c-.21-.01-.41-.13-.52-.32l-4.47-7.72c-.56-.97-1.8-1.3-2.77-.74-.39.23-.7.57-.87.99l-3.4,8.28c-.08.2-.25.34-.46.39l-8.74,1.87c-1.11.28-1.78,1.41-1.5,2.51.1.39.31.75.62,1.03l6.81,5.79c.16.14.24.35.23.56l-.91,8.93c-.1,1.14.75,2.14,1.89,2.24.04,0,.09,0,.13,0,.38,0,.75-.11,1.07-.3l7.59-4.69c.18-.1.4-.12.6-.04l8.18,3.62c1.06.43,2.27-.09,2.69-1.15.15-.38.19-.79.11-1.19l.02-.03Zm-1.56.98c-.19.17-.46.2-.69.1l-8.17-3.62c-.61-.27-1.32-.22-1.88.13l-7.59,4.69c-.34.17-.76.03-.92-.32-.05-.1-.07-.2-.07-.31l.91-8.89c.07-.66-.19-1.32-.69-1.76l-6.81-5.79c-.28-.23-.32-.63-.1-.91.09-.11.21-.18.34-.22l8.74-1.86c.65-.15,1.19-.6,1.45-1.21l3.4-8.28c.09-.23.31-.39.56-.41h.05c.23,0,.45.12.56.32l4.49,7.72c.34.58.94.95,1.61,1.01l8.91.69c.38.06.63.42.57.79-.02.11-.06.21-.13.3l-5.96,6.67c-.45.5-.62,1.18-.46,1.84l2.07,8.69c.06.23,0,.47-.18.63Z"></path>
  <path class="cls-2" d="m20.8,31.16l4.83,3.86c.29.23.64.36,1.01.36.24,0,.47-.05.69-.15.56-.26.93-.81.94-1.43l.14-6.15c0-.08.04-.15.1-.19l5.15-3.37c.75-.49.96-1.49.47-2.23-.19-.3-.48-.53-.82-.64l-5.81-2.07c-.07-.03-.12-.09-.14-.16l-1.68-5.94h0c-.26-.86-1.16-1.34-2.02-1.09-.31.09-.58.28-.79.53l-3.77,4.88c-.05.06-.12.1-.19.1l-6.15-.3c-.89-.03-1.64.68-1.66,1.57-.01.34.09.68.28.96l3.5,5.07c.03.07.03.15,0,.22l-2.19,5.76c-.22.57-.1,1.23.32,1.68.42.45,1.06.62,1.65.45l5.89-1.77c.09-.02.18,0,.24.08Zm-6.51.4c-.08.02-.17,0-.23-.06-.07-.06-.09-.16-.05-.25l2.19-5.75c.18-.51.1-1.09-.23-1.53l-3.45-5.07c-.05-.08-.05-.17,0-.25.04-.08.13-.13.21-.12l6.15.3c.54.03,1.05-.2,1.38-.63l3.73-4.89c.08-.1.22-.13.33-.05.04.03.07.07.09.12l1.61,5.94c.13.51.5.92.99,1.1l5.81,2.07c.09.03.15.1.15.19.01.09-.03.18-.1.23l-5.17,3.33c-.45.29-.72.78-.73,1.31l-.14,6.16c0,.09-.06.17-.14.21-.08.04-.18.03-.25-.03l-4.8-3.86c-.29-.23-.64-.35-1.01-.35-.16,0-.31.02-.46.06l-5.88,1.8Z"></path>
  <path class="cls-2" d="m78.82,41.69c.23.43.68.69,1.16.69h.06c.51-.02.96-.32,1.16-.79l1.67-3.86,4.14-.79c.51-.08.93-.45,1.06-.95.15-.5,0-1.04-.39-1.38l-3.15-2.76.54-4.22c.09-.73-.44-1.39-1.17-1.48-.29-.03-.57.03-.82.17l-3.62,2.15-3.84-1.81c-.45-.21-.99-.15-1.38.17-.4.31-.58.82-.47,1.32l.91,4.11-2.91,3.09c-.5.53-.48,1.37.05,1.87.21.2.49.33.78.36l4.18.4,2.03,3.73Zm-3.15-8.5c.3-.32.43-.76.34-1.19l-.88-4.04,3.75,1.77c.4.19.86.17,1.24-.06l3.58-2.12-.53,4.14c-.05.43.11.86.43,1.16l3.08,2.76-4.06.77c-.43.08-.79.36-.97.77l-1.67,3.79-1.99-3.63c-.21-.38-.59-.64-1.03-.69l-4.14-.41,2.85-3.01Z"></path>
  <path class="cls-2" d="m28.45,74.29l.53-4.14c.07-.51-.16-1-.59-1.28-.41-.28-.95-.29-1.38-.04l-3.56,2.07-3.8-1.78c-.66-.31-1.45-.02-1.76.64-.12.26-.16.55-.1.84l.93,4.04-2.87,3.05c-.5.53-.47,1.36.06,1.86.21.2.48.32.77.35l4.14.39,2.02,3.67c.23.42.67.69,1.15.69h.06c.5-.02.95-.32,1.15-.78l1.65-3.8,4.14-.78c.72-.13,1.19-.82,1.05-1.54-.05-.29-.2-.54-.42-.74l-3.18-2.73Zm-1.9,4.44c-.42.08-.78.36-.96.76l-1.64,3.73-1.95-3.57c-.2-.39-.59-.64-1.02-.69l-4.04-.41,2.76-2.96c.3-.32.42-.76.33-1.18l-.86-3.98,3.72,1.75c.39.19.85.17,1.23-.05l3.52-2.07-.52,4.07c-.06.43.1.86.43,1.15l3.03,2.71-4.02.74Z"></path>
  <path class="cls-2" d="m91.06,71.19l-4.83-.41-2.41-4.2c-.28-.46-.78-.72-1.32-.69-.54.03-1.01.37-1.22.87l-1.92,4.43-4.73,1c-.54.11-.97.53-1.1,1.07-.11.51.06,1.04.45,1.38l3.69,3.19-.52,4.83c-.07.55.18,1.08.65,1.38.23.14.5.22.77.22.26,0,.51-.07.73-.21l4.14-2.52,4.42,1.98c.72.32,1.56,0,1.88-.72.12-.28.15-.6.08-.9l-1.11-4.75,3.25-3.59c.53-.58.48-1.48-.1-2.01-.22-.2-.5-.33-.8-.36Zm-3.31,5c-.32.34-.44.82-.32,1.28l1.1,4.75h0l-4.42-1.98c-.42-.19-.91-.16-1.31.08l-4.2,2.48.52-4.83c.06-.46-.12-.93-.48-1.23l-3.66-3.22,4.68-.95c.46-.1.83-.41,1.01-.84l1.93-4.47,2.42,4.2c.24.4.65.66,1.11.69l4.83.46-3.2,3.59Z"></path>
  <path class="cls-1" d="m51.17,28.24c2.31.72,4.12,2.52,4.83,4.83.09.3.38.5.69.48.31.01.6-.18.69-.48.71-2.31,2.52-4.12,4.83-4.83.3-.09.5-.38.48-.69,0-.3-.2-.57-.48-.66-2.31-.72-4.11-2.52-4.83-4.83-.09-.3-.38-.5-.69-.49-.31-.01-.6.19-.69.49-.72,2.31-2.53,4.11-4.83,4.83-.29.09-.49.35-.49.66-.01.31.19.6.49.69Zm5.52-4.19c.81,1.49,2.04,2.72,3.53,3.53-1.5.81-2.73,2.04-3.53,3.53-.8-1.5-2.03-2.73-3.53-3.53,1.49-.81,2.72-2.03,3.53-3.53Z"></path>
  <path class="cls-1" d="m23.94,55.27c-.09-.3-.38-.5-.69-.48-.3,0-.57.2-.66.48-.36,1.17-1.27,2.08-2.44,2.44-.3.09-.5.38-.49.69-.01.31.19.6.49.69,1.16.36,2.07,1.27,2.44,2.44.09.29.35.49.66.49.31.01.6-.18.69-.48.36-1.17,1.27-2.08,2.44-2.44.3-.09.5-.38.48-.69.01-.31-.18-.6-.48-.69-1.17-.36-2.08-1.27-2.44-2.44Zm-.69,4.42c-.35-.52-.8-.97-1.32-1.32.52-.35.97-.8,1.32-1.32.35.52.8.97,1.33,1.32-.51.36-.95.8-1.3,1.32h-.03Z"></path>
  <path class="cls-1" d="m82.26,15.24c-.09-.3-.38-.5-.69-.48-.31-.01-.6.18-.69.48-.39,1.28-1.4,2.29-2.68,2.68-.37.11-.58.49-.47.86.07.23.24.4.47.47,1.28.39,2.29,1.4,2.68,2.68.09.3.38.5.69.48.31.01.6-.18.69-.48.4-1.28,1.4-2.28,2.68-2.68.37-.11.58-.49.47-.86-.07-.23-.24-.4-.47-.47-1.28-.4-2.28-1.4-2.68-2.68Zm-.69,4.88c-.4-.61-.93-1.14-1.54-1.54.61-.4,1.14-.93,1.54-1.54.4.61.92,1.14,1.53,1.54-.6.41-1.11.93-1.5,1.54h-.03Z"></path>
  <path class="cls-1" d="m71.69,60.65c-1.2-.37-2.14-1.31-2.51-2.51-.09-.3-.38-.5-.69-.48-.31-.01-.6.18-.69.48-.37,1.2-1.31,2.14-2.51,2.51-.3.09-.5.38-.49.69-.01.31.19.6.49.69,1.2.37,2.14,1.31,2.51,2.51.09.3.38.5.69.49.31.01.6-.19.69-.49.37-1.2,1.31-2.14,2.51-2.51.3-.09.5-.38.49-.69.01-.31-.19-.6-.49-.69Zm-3.17,2.07c-.37-.54-.84-1.01-1.38-1.38.54-.37,1.01-.84,1.38-1.38.37.54.84,1.01,1.38,1.38-.54.36-1.01.82-1.38,1.36v.02Z"></path>
  <path class="cls-1" d="m68.48,85.93c-2.01-.61-3.58-2.17-4.2-4.18-.09-.3-.38-.5-.69-.49-.31-.01-.6.19-.69.49-.61,2-2.18,3.56-4.18,4.18-.36.11-.57.5-.45.86.07.22.24.39.45.45,1.99.61,3.55,2.16,4.18,4.14.09.3.38.5.69.49.31.01.6-.19.69-.49.63-1.98,2.19-3.53,4.18-4.14.36-.11.57-.5.45-.86-.07-.22-.24-.39-.45-.45h.02Zm-4.83,3.56c-.69-1.21-1.69-2.21-2.91-2.9,1.21-.69,2.22-1.69,2.91-2.91.69,1.21,1.69,2.22,2.9,2.91-1.21.68-2.22,1.69-2.91,2.9h0Z"></path>
</svg>
