<?xml version="1.0" encoding="UTF-8"?>
<svg xmlns="http://www.w3.org/2000/svg" id="observatoire" viewBox="0 0 100 100">
  <defs>
    <style>
      .cls-1 {
        fill: #987018;
      }

      .cls-2 {
        fill: #707070;
      }
    </style>
  </defs>
  <path class="cls-2" d="m52.13,82h-2.2v-13.48c0-1.32-.14-2.63-.42-3.92-.1-.53-.61-.88-1.14-.78-.53.1-.88.61-.78,1.14,0,.02,0,.04.01.06.25,1.15.38,2.32.38,3.49v13.48h-3.42c-.54-.02-.99.4-1.02.93s.4.99.93,1.02c.03,0,.05,0,.08,0h6.59v4.85H12.69v-4.84h21.03c.54-.02.96-.48.93-1.02-.02-.51-.43-.91-.93-.93H11.71c-.54,0-.97.44-.97.97v6.79c0,.54.44.97.97.97h40.42c.54,0,.97-.43.98-.97h0v-6.79c0-.54-.44-.97-.97-.97h0Z"></path>
  <path class="cls-2" d="m39.39,83.95c.54.02.99-.4,1.02-.93s-.4-.99-.93-1.02c-.03,0-.05,0-.08,0h-.24c-.54-.02-.99.4-1.02.93s.4.99.93,1.02c.03,0,.05,0,.08,0h.24Z"></path>
  <path class="cls-2" d="m13.92,68.52v9.94c-.02.54.4.99.93,1.02.54.02.99-.4,1.02-.93,0-.03,0-.06,0-.08v-9.94c0-8.88,7.21-16.07,16.09-16.06,1.48,0,2.94.21,4.36.61.51.18,1.06-.1,1.24-.61s-.1-1.06-.61-1.24c-.04-.01-.07-.02-.11-.03-9.58-2.71-19.54,2.87-22.24,12.45-.45,1.59-.68,3.23-.68,4.88Z"></path>
  <path class="cls-1" d="m80.17,36.68c.48.25,1.07.06,1.31-.42,0,0,0,0,0,0,3.27-6.36.77-14.17-5.59-17.44-4.47-2.3-9.86-1.8-13.83,1.26-.41.35-.47.96-.12,1.37.33.39.9.46,1.31.17,4.81-3.71,11.71-2.83,15.43,1.98,2.61,3.38,3.03,7.96,1.07,11.76-.25.48-.06,1.07.42,1.31Z"></path>
  <path class="cls-1" d="m86.38,38.17c-.43.32-.52.94-.19,1.37,0,0,0,0,0,0,3.42,4.54,2.9,5.67,2.9,5.67-.16.19-1.88.34-6.78-2.49-4.23-2.44-9.4-6.25-14.55-10.72s-9.65-9.04-12.66-12.89c-3.49-4.44-3.59-6.17-3.42-6.36s1.85-.34,6.66,2.43c.46.29,1.06.15,1.34-.31.29-.46.15-1.06-.31-1.34-.02-.01-.04-.03-.06-.04-4.88-2.79-7.86-3.46-9.11-2.02-1.26,1.45-.16,4.35,3.36,8.84,1.25,1.6,2.75,3.32,4.44,5.09-2.71,6.62.46,14.19,7.08,16.9,3.63,1.48,7.73,1.25,11.16-.64.13-.07.24-.17.32-.29,1.67,1.16,3.28,2.19,4.77,3.05,3.26,1.89,5.69,2.83,7.32,2.83.84,0,1.47-.25,1.9-.74,1.21-1.4.32-3.98-2.82-8.13-.32-.43-.93-.53-1.36-.21,0,0,0,0,0,0Zm-23.61.46c-3.34-2.88-4.63-7.48-3.26-11.68,2.12,2.14,4.47,4.34,6.98,6.52,2.84,2.46,5.69,4.73,8.4,6.69-3.98,1.98-8.76,1.37-12.12-1.53h0Z"></path>
  <path class="cls-1" d="m82.57,56.67c-3.21-1.3-4.36-6.03-4.36-6.08-.12-.53-.64-.86-1.16-.74-.4.09-.7.42-.76.82-.69,4.76-4.14,5.92-4.27,5.97-.51.16-.8.71-.64,1.22.08.25.25.46.49.58.89.47,1.67,1.12,2.3,1.9.34.41.96.47,1.37.13.41-.34.47-.96.13-1.37-.43-.52-.91-1-1.43-1.42,1.39-.93,2.48-2.24,3.15-3.77.65,1.31,1.64,2.79,3.07,3.8-1.38,1.23-3.49,3.62-3.88,6.97-.06.53.32,1.02.85,1.08,0,0,0,0,0,0h.11c.49,0,.91-.37.97-.86.47-4.04,4.19-6.49,4.22-6.52.45-.29.58-.9.29-1.35-.11-.17-.27-.3-.45-.38h0Z"></path>
  <path class="cls-1" d="m38.61,31.15c-.06.53.32,1.02.86,1.08h.12c.49,0,.91-.37.97-.86.47-4.04,4.19-6.5,4.22-6.52.45-.29.59-.89.29-1.35-.11-.17-.27-.3-.45-.38-3.21-1.3-4.36-6.03-4.36-6.08-.12-.53-.64-.86-1.16-.74-.4.09-.7.42-.76.82-.68,4.76-4.14,5.93-4.28,5.97-.51.16-.8.71-.64,1.22.08.25.25.46.49.58.89.47,1.67,1.12,2.3,1.9.34.41.96.47,1.37.13s.47-.96.13-1.37c-.43-.52-.91-1-1.43-1.42,1.38-.93,2.47-2.24,3.14-3.77.65,1.31,1.64,2.79,3.07,3.8-1.37,1.23-3.48,3.62-3.87,6.97Z"></path>
  <path class="cls-2" d="m54.19,43.95c-.39-.37-1.01-.34-1.38.05-.35.37-.35.95,0,1.33l5.94,5.94-2.51,2.51-7.43-7.43h0l-1.59-1.59,2.51-2.51.61.61c.39.37,1.01.34,1.38-.05.35-.37.35-.95,0-1.33l-1.3-1.3c-.38-.38-1-.38-1.38,0l-3.89,3.88c-.38.38-.38,1,0,1.38,0,0,0,0,0,0l1.59,1.59-8.98,8.98c-.46-.31-.87-.56-1.22-.75-.48-.24-1.07-.05-1.31.43-.23.46-.07,1.02.37,1.28,2.25,1.23,6.91,4.97,8.05,8.44.21.5.79.72,1.28.51.44-.19.67-.66.57-1.12-.17-.51-.38-1-.64-1.48l6.94-6.94c.37-.39.34-1.01-.05-1.38-.37-.35-.95-.35-1.33,0l-6.63,6.63c-1.27-1.72-2.93-3.28-4.44-4.47l8.78-8.77,7.43,7.43c.38.38,1,.38,1.38,0h0s3.89-3.88,3.89-3.88c.38-.38.38-1,0-1.38,0,0,0,0,0,0l-6.62-6.63Z"></path>
</svg>
