<?xml version="1.0" encoding="UTF-8"?>
<svg xmlns="http://www.w3.org/2000/svg" id="orbite" viewBox="0 0 100 100">
  <defs>
    <style>
      .cls-1 {
        fill: #987018;
      }

      .cls-2 {
        fill: #707070;
      }
    </style>
  </defs>
  <path class="cls-1" d="m42.26,50.42c0,4.54,3.68,8.23,8.22,8.23,4.54,0,8.23-3.68,8.23-8.22s-3.68-8.23-8.22-8.23c0,0,0,0,0,0-4.54,0-8.22,3.68-8.23,8.22Zm15.13,0c0,3.81-3.09,6.91-6.9,6.91s-6.91-3.09-6.91-6.9c0-3.81,3.09-6.91,6.9-6.91,0,0,0,0,0,0,3.81,0,6.9,3.09,6.91,6.9Z"></path>
  <path class="cls-1" d="m17.6,30.6l-.04.08c-.19.31-.1.72.21.91,0,0,0,0,.01,0,.1.06.22.09.34.09.23,0,.45-.12.57-.32h0c2.49,1.26,5.52.26,6.78-2.23.9-1.79.66-3.94-.62-5.49h0c.26-.25.27-.67.02-.93-.25-.26-.67-.27-.93-.02l-.06.06c-2.3-1.57-5.43-.99-7,1.31-1.41,2.06-1.1,4.83.72,6.53Zm3.37-7.48c2.06,0,3.73,1.67,3.73,3.73s-1.67,3.73-3.73,3.73-3.73-1.67-3.73-3.73h0c0-2.06,1.67-3.73,3.73-3.73Z"></path>
  <path class="cls-1" d="m80.96,61.81c0-1.93-1.11-3.69-2.85-4.53v-.1c.09-.35-.12-.71-.48-.8-.35-.09-.71.12-.8.48h0c-.31-.06-.63-.09-.95-.09-2.78,0-5.05,2.24-5.06,5.02,0,1.58.73,3.07,1.99,4.03-.22.31-.14.74.17.95.31.22.74.14.95-.17l.05-.08c2.57,1.06,5.52-.16,6.59-2.73.25-.61.38-1.27.38-1.93v-.03Zm-5.05,3.73c-2.06,0-3.73-1.67-3.73-3.73s1.67-3.73,3.73-3.73,3.73,1.67,3.73,3.73c0,2.06-1.67,3.73-3.73,3.73Z"></path>
  <path class="cls-1" d="m78.29,29.92c.9,0,1.79-.25,2.56-.72h0c.12.18.33.28.54.28.13,0,.27-.04.38-.12.3-.21.37-.62.16-.92l-.05-.07c1.88-2.06,1.73-5.25-.33-7.13-1.8-1.64-4.52-1.76-6.45-.28l-.07-.05c-.28-.23-.7-.19-.93.09-.23.28-.19.7.09.93h0c-.62.85-.95,1.88-.94,2.93,0,2.79,2.25,5.05,5.04,5.06,0,0,0,0,0,0Zm3.73-5.05c0,2.06-1.67,3.73-3.73,3.73-2.06,0-3.73-1.67-3.73-3.73s1.67-3.73,3.73-3.73c2.06,0,3.73,1.67,3.73,3.73h0Z"></path>
  <path class="cls-2" d="m61.63,86.46c.09.28.36.47.66.46.07,0,.14-.01.2-.03.44-.15.86-.29,1.29-.45.34-.12.52-.5.4-.85-.12-.34-.5-.52-.84-.4,0,0,0,0,0,0-.41.15-.83.3-1.24.44-.35.1-.56.46-.46.81,0,0,0,.01,0,.02Z"></path>
  <path class="cls-2" d="m86.2,40.48c.11.42.22.85.33,1.27.07.3.35.52.66.51h.15c.35-.08.57-.44.49-.79-.11-.44-.22-.88-.34-1.32-.07-.36-.42-.59-.78-.52s-.59.42-.52.78c0,.03.02.06.03.09l-.02-.02Z"></path>
  <path class="cls-2" d="m86.94,60.79c.31.01.58-.19.66-.49.12-.44.23-.88.33-1.32.08-.36-.15-.73-.51-.81s-.73.15-.81.51h0c-.1.43-.2.86-.32,1.28-.09.35.12.71.47.81.06.01.12.02.18.02Z"></path>
  <path class="cls-2" d="m87.15,44.98c.07.43.12.86.17,1.32.04.34.32.59.66.59h.07c.36-.04.62-.37.58-.73,0,0,0,0,0,0-.05-.45-.11-.9-.17-1.32-.05-.36-.39-.62-.76-.56-.36.05-.62.39-.56.76v-.05Z"></path>
  <path class="cls-2" d="m86.16,62.7c-.34-.12-.72.05-.85.4-.15.41-.31.82-.47,1.22-.14.34.02.72.36.86,0,0,0,0,0,0,.08.03.16.05.24.05.27,0,.51-.16.61-.42.17-.42.33-.84.49-1.27.12-.34-.05-.72-.4-.85Z"></path>
  <path class="cls-2" d="m85.17,37.36c.1.26.34.43.61.43.08,0,.16-.02.24-.05.34-.13.51-.51.38-.85,0,0,0,0,0,0-.16-.42-.33-.85-.5-1.26-.14-.34-.53-.5-.86-.36-.34.14-.5.53-.36.86h0c.17.4.33.81.49,1.22Z"></path>
  <path class="cls-2" d="m57.74,88.1h.13c.45-.09.89-.18,1.32-.28.36-.08.58-.44.5-.79,0,0,0,0,0,0-.08-.36-.44-.58-.79-.5,0,0,0,0,0,0-.43.1-.86.19-1.29.27-.36.03-.63.36-.6.72s.36.63.72.6v-.02Z"></path>
  <path class="cls-2" d="m68.39,83.62c-.17-.32-.56-.45-.89-.29,0,0,0,0,0,0-.38.2-.78.4-1.18.59-.33.16-.47.55-.31.88.11.23.34.37.59.37.1,0,.19-.02.28-.06.42-.2.82-.4,1.23-.61.32-.17.45-.57.28-.89Z"></path>
  <path class="cls-2" d="m83.49,67.31c-.2.39-.41.77-.62,1.16-.18.32-.07.72.25.9.1.05.21.08.32.09.24,0,.46-.13.57-.34.22-.39.44-.79.66-1.19.17-.32.04-.72-.28-.89,0,0,0,0,0,0-.32-.17-.72-.05-.89.27,0,0,0,.01-.01.02Z"></path>
  <path class="cls-2" d="m82.9,31.11c-.31.18-.42.58-.24.9.22.38.43.77.66,1.16.11.21.34.35.58.35.11,0,.21-.03.31-.07.32-.17.45-.57.28-.89-.21-.4-.44-.81-.66-1.19-.18-.32-.58-.44-.9-.26,0,0-.02.01-.03.02Z"></path>
  <path class="cls-2" d="m88.51,55.64c.06-.45.11-.9.16-1.32.04-.36-.23-.69-.59-.73s-.69.23-.73.59c-.05.44-.09.87-.15,1.32-.05.36.2.69.56.75h.09c.35,0,.64-.27.66-.61Z"></path>
  <path class="cls-2" d="m80.91,73.38c.21,0,.4-.1.53-.26.27-.37.53-.74.79-1.12.18-.32.07-.72-.24-.9-.28-.16-.64-.09-.84.16-.24.36-.5.72-.76,1.07-.22.29-.16.71.14.92,0,0,0,0,0,0,.12.08.25.13.4.13Z"></path>
  <path class="cls-2" d="m70.7,82.92c.13,0,.25-.03.36-.1.38-.24.77-.5,1.14-.75.3-.2.39-.61.18-.92-.2-.3-.61-.39-.92-.18,0,0,0,0-.01,0-.36.25-.73.49-1.1.73-.31.2-.39.61-.2.91.12.19.33.3.55.3h0Z"></path>
  <path class="cls-2" d="m87.54,49.56v1.31c0,.36.3.66.66.66h0c.36,0,.66-.3.66-.66v-1.35c0-.36-.3-.66-.66-.66-.36,0-.66.29-.66.66,0,.01,0,.02,0,.03Z"></path>
  <path class="cls-2" d="m78.32,74.89c-.29.33-.58.66-.88.97-.26.26-.26.67,0,.93.12.12.29.18.46.18.18,0,.35-.08.48-.21.31-.33.62-.66.92-1,.23-.28.18-.7-.1-.93-.27-.21-.65-.19-.89.06h.03Z"></path>
  <path class="cls-2" d="m75.07,78.14c-.33.29-.66.57-1,.86-.28.23-.32.65-.09.93.13.15.31.24.51.24.15,0,.3-.05.42-.15.35-.29.66-.59,1.03-.88.28-.24.3-.66.06-.93,0,0,0,0,0,0-.24-.27-.66-.29-.93-.05Z"></path>
  <path class="cls-2" d="m20.67,74.2c.36,0,.66-.3.66-.66,0-.15-.05-.29-.14-.4-.26-.34-.51-.66-.77-1.02-.21-.29-.62-.36-.92-.15-.3.21-.37.62-.15.92,0,0,0,0,0,0,.26.36.52.71.79,1.05.12.16.32.26.52.26Z"></path>
  <path class="cls-2" d="m25.6,79.64c.33.28.66.56,1.02.84.12.09.26.14.41.15.2,0,.39-.09.51-.25.23-.28.18-.7-.1-.93,0,0,0,0,0,0-.33-.26-.66-.53-.98-.81-.28-.24-.69-.2-.93.07-.24.28-.2.69.07.93h0Z"></path>
  <path class="cls-2" d="m41.4,87.06c-.08.36.14.71.49.79,0,0,0,0,0,0,.43.1.86.18,1.29.27h.13c.36.03.69-.23.72-.6.03-.36-.23-.69-.6-.72-.42-.08-.83-.17-1.24-.26-.36-.08-.71.14-.79.5,0,0,0,.01,0,.02Z"></path>
  <path class="cls-2" d="m22.28,76.45c.29.32.6.64.91.95.12.13.29.2.47.2.17,0,.34-.07.46-.19.26-.26.26-.67,0-.93-.3-.3-.59-.61-.88-.92-.26-.25-.68-.24-.93.02-.23.24-.25.61-.04.87h0Z"></path>
  <path class="cls-2" d="m37.08,85.69c-.12.34.05.72.4.85.42.15.83.29,1.25.42.07.02.14.03.2.03.36.05.7-.2.76-.56.05-.36-.2-.7-.56-.76l-1.19-.38c-.34-.13-.72.04-.85.38,0,0,0,.01,0,.02Z"></path>
  <path class="cls-2" d="m33.25,84.72l1.18.57c.09.04.18.06.28.06.26,0,.49-.15.6-.38.15-.33,0-.72-.32-.88,0,0,0,0,0,0-.38-.17-.77-.36-1.14-.55-.32-.16-.72-.03-.88.29-.17.32-.04.72.29.89,0,0,0,0,0,0Z"></path>
  <path class="cls-2" d="m13.79,61.75c.09.29.36.48.66.46.07,0,.13,0,.2,0,.35-.11.54-.48.44-.83-.13-.4-.24-.81-.36-1.22-.11-.35-.48-.54-.82-.44-.33.1-.53.44-.45.78.09.4.21.8.34,1.24Z"></path>
  <path class="cls-2" d="m15.42,66.06c.11.24.35.39.61.39.09,0,.18-.02.26-.06.33-.15.48-.54.34-.87,0,0,0,0,0,0-.17-.38-.34-.78-.5-1.17-.12-.35-.49-.53-.84-.42-.35.12-.53.49-.42.84,0,.03.02.05.03.07.17.42.34.81.51,1.21Z"></path>
  <path class="cls-2" d="m13.25,44.3h.12c.32,0,.6-.22.66-.54.07-.42.16-.83.25-1.25.08-.36-.16-.72-.52-.8-.36-.08-.72.16-.8.52-.09.42-.18.86-.26,1.29-.07.36.16.7.52.77,0,0,.02,0,.03,0Z"></path>
  <path class="cls-2" d="m29.08,81.49c-.2.3-.12.71.18.92,0,0,0,0,0,0l1.11.69c.31.19.72.1.91-.21,0,0,0,0,0,0,.19-.31.09-.71-.22-.9-.36-.22-.72-.45-1.07-.66-.3-.2-.71-.13-.92.18,0,0,0,0,0,0Z"></path>
  <path class="cls-2" d="m14.01,57.04c-.07-.42-.14-.83-.2-1.25-.05-.36-.39-.62-.76-.56-.36.05-.62.39-.56.76.07.44.14.86.21,1.32.06.32.34.55.66.54h.12c.36-.06.6-.4.54-.76,0-.01,0-.03,0-.04Z"></path>
  <path class="cls-2" d="m18.05,68.37c-.18-.32-.59-.43-.91-.25s-.43.59-.25.91c.21.38.44.76.66,1.14.12.2.33.32.57.32.12,0,.23-.03.34-.09.31-.19.41-.59.23-.91,0,0,0,0,0,0-.22-.38-.43-.75-.63-1.12Z"></path>
  <path class="cls-2" d="m14.24,39.89c.06,0,.13,0,.19,0,.3.01.57-.18.66-.47.13-.4.26-.8.4-1.21.13-.34-.04-.72-.38-.85-.34-.13-.72.04-.85.38,0,.02-.01.03-.02.05-.15.41-.28.83-.41,1.25-.13.34.04.72.39.85,0,0,.02,0,.02,0Z"></path>
  <path class="cls-2" d="m15.76,35.63c.09.04.18.05.27.05.26,0,.5-.15.61-.39.17-.38.35-.77.53-1.15.2-.31.11-.72-.2-.91-.31-.2-.72-.11-.91.2-.03.04-.05.09-.07.14-.2.4-.38.79-.56,1.19-.14.33,0,.71.33.86Z"></path>
  <path class="cls-2" d="m12.85,53.33h0c.35-.02.62-.31.62-.66,0-.42-.05-.85-.05-1.27,0-.36-.3-.66-.66-.66s-.66.3-.66.66c0,.44,0,.88.05,1.32.02.36.34.64.7.61Z"></path>
  <path class="cls-2" d="m12.78,48.81h.07c.35,0,.64-.27.66-.62,0-.42.06-.85.1-1.26.03-.36-.23-.69-.6-.72-.36-.03-.69.23-.72.6h0c-.07.43-.1.87-.1,1.31-.02.36.24.66.59.7Z"></path>
  <path class="cls-1" d="m46.61,87.27c-.36-.04-.69.23-.73.59-.04.36.23.69.59.73h.08c.28,2.17,2.27,3.7,4.44,3.42,1.78-.23,3.19-1.63,3.42-3.42h.08c.36-.04.63-.36.59-.73-.04-.36-.36-.63-.73-.59h0c-.49-2.13-2.62-3.46-4.75-2.96-1.47.34-2.62,1.49-2.96,2.96h-.02Zm3.87-1.77c1.42,0,2.58,1.11,2.64,2.53h0v.07c0,1.46-1.18,2.64-2.64,2.64s-2.64-1.18-2.64-2.64c0-.02,0-.05,0-.07h0c.06-1.41,1.23-2.53,2.64-2.53Z"></path>
  <path class="cls-2" d="m39.3,15.04c.07,0,.13,0,.2,0,.42-.13.84-.26,1.26-.37.35-.11.54-.48.44-.82-.1-.33-.44-.53-.78-.45-.44.12-.88.24-1.32.38-.36.05-.62.39-.56.76.05.36.39.62.76.56v-.06Z"></path>
  <path class="cls-2" d="m30.78,18.91c.12,0,.24-.04.34-.1.38-.23.75-.46,1.14-.66.32-.18.43-.58.25-.9,0,0,0,0,0,0-.18-.32-.58-.43-.9-.25-.4.22-.79.46-1.18.69-.31.19-.4.6-.21.91,0,0,0,0,0,0,.12.19.33.31.56.31Z"></path>
  <path class="cls-2" d="m34.92,16.71c.09,0,.19-.02.27-.06.4-.18.81-.36,1.21-.53.34-.14.5-.52.36-.86-.14-.34-.52-.5-.86-.37,0,0,0,0,0,0-.42.18-.84.36-1.25.54-.34.14-.49.53-.35.87.11.25.35.41.62.4Z"></path>
  <path class="cls-2" d="m43.88,13.93h.12c.43-.07.86-.15,1.32-.2.36-.05.62-.39.57-.75s-.39-.62-.75-.57c-.45.06-.9.13-1.32.21-.36.03-.64.35-.6.72s.35.64.72.6h-.05Z"></path>
  <path class="cls-2" d="m26.95,21.6c.15,0,.29-.05.41-.15l1.04-.81c.31-.19.4-.6.21-.91-.19-.31-.6-.4-.91-.21-.03.02-.06.04-.08.06-.36.27-.73.55-1.08.83-.28.23-.33.64-.1.93.13.16.32.25.52.25h0Z"></path>
  <path class="cls-2" d="m66.45,16.96c.4.19.79.39,1.18.59.09.05.2.07.3.07.36-.03.64-.34.61-.7-.01-.21-.13-.4-.3-.51-.4-.21-.81-.42-1.22-.61-.32-.18-.72-.07-.9.25-.18.32-.07.72.25.9.03.02.06.03.09.04v-.03Z"></path>
  <path class="cls-2" d="m62.18,15.24c.42.14.83.28,1.24.44.08.05.17.08.26.08.36.05.7-.2.76-.56.05-.36-.2-.7-.56-.76-.44-.16-.88-.31-1.32-.46-.35-.11-.72.07-.84.42-.11.35.07.72.42.84h.03Z"></path>
  <path class="cls-2" d="m48.5,13.41h0c.44,0,.88,0,1.32-.04.36,0,.66-.3.66-.66s-.3-.66-.66-.66c-.46,0-.91,0-1.37.05-.36,0-.65.31-.64.68,0,.36.31.65.68.64h.01Z"></path>
  <path class="cls-2" d="m57.74,14.06c.43.09.86.18,1.28.28.05,0,.11,0,.16,0,.36.04.69-.22.73-.59s-.22-.69-.59-.73c-.44-.11-.88-.2-1.32-.29-.36-.07-.71.16-.78.52,0,0,0,0,0,0-.09.35.13.71.48.8.01,0,.02,0,.03,0Z"></path>
  <path class="cls-2" d="m53.16,13.45c.44,0,.88.07,1.32.12h.07c.36.02.67-.26.69-.63.02-.36-.26-.67-.63-.69-.45-.05-.9-.09-1.35-.12-.36-.03-.68.25-.71.61-.03.36.25.68.61.71h0Z"></path>
  <path class="cls-2" d="m70.47,19.21c.37.24.73.48,1.1.73.11.08.24.12.38.12.36,0,.66-.3.66-.66,0-.22-.11-.42-.28-.54-.38-.26-.75-.51-1.14-.76-.31-.2-.71-.11-.91.2-.2.31-.11.71.2.91Z"></path>
  <path class="cls-1" d="m46.52,23.55h.09c.53,2.12,2.68,3.41,4.81,2.88,1.42-.36,2.52-1.46,2.88-2.88h.15c.36.03.68-.25.71-.61s-.25-.68-.61-.71h-.09c0-2.19-1.77-3.97-3.96-3.97-2.19,0-3.97,1.77-3.97,3.96h-.09c-.36.03-.64.34-.61.71s.34.64.71.61h0Zm3.96-3.58c1.46,0,2.64,1.18,2.64,2.64v.11h0c-.18,1.45-1.5,2.48-2.94,2.3-1.2-.15-2.15-1.1-2.3-2.3h0v-.11c0-1.44,1.16-2.62,2.6-2.64Z"></path>
  <path class="cls-2" d="m27.19,66.27c.13,0,.25-.04.36-.11.3-.2.38-.6.19-.9-.23-.36-.46-.73-.66-1.11-.2-.31-.6-.4-.91-.2-.29.18-.39.56-.23.86.23.39.47.77.72,1.16.12.18.32.29.53.3Z"></path>
  <path class="cls-2" d="m46.24,77.23c-.43-.07-.85-.14-1.27-.23-.36-.07-.72.16-.79.53-.07.36.16.72.53.79h0c.44.09.88.17,1.32.24h.11c.36.03.68-.25.71-.61.03-.36-.25-.68-.61-.71h.01Z"></path>
  <path class="cls-2" d="m22.09,52.59c.03.34.32.61.66.61h.05c.36-.02.64-.34.61-.7,0,0,0,0,0,0,0-.43-.05-.86-.07-1.32,0-.36-.3-.66-.66-.66s-.66.3-.66.66c0,.51.07.97.07,1.42Z"></path>
  <path class="cls-2" d="m70.87,70.27c.32-.32.66-.66.92-1,.27-.25.28-.67.03-.93-.25-.27-.67-.28-.93-.03-.03.03-.06.06-.08.1-.29.32-.58.66-.88.95-.26.26-.26.67,0,.93.12.12.29.19.46.19.18,0,.36-.07.48-.2Z"></path>
  <path class="cls-2" d="m33.47,73.07c.36.01.67-.27.69-.63,0-.22-.1-.44-.28-.57-.34-.26-.66-.53-1-.82-.28-.24-.7-.2-.93.08,0,0,0,0,0,0-.25.27-.23.69.04.93,0,0,.01.01.02.02.34.29.7.57,1.06.86.12.09.27.14.42.13Z"></path>
  <path class="cls-2" d="m42.02,24.59c.07,0,.13-.01.2-.03.42-.13.83-.25,1.25-.36.35-.09.56-.45.47-.81,0,0,0,0,0,0-.1-.35-.46-.55-.81-.46-.44.11-.88.24-1.32.38-.35.11-.53.49-.42.83.09.27.34.45.63.45h0Z"></path>
  <path class="cls-2" d="m25.14,37.45c-.21.4-.41.81-.59,1.22-.15.33,0,.72.33.87.09.04.18.06.27.06.26,0,.49-.15.6-.39.18-.39.37-.78.56-1.16.2-.31.11-.71-.2-.91-.31-.2-.71-.11-.91.2-.02.04-.04.08-.06.12Z"></path>
  <path class="cls-2" d="m23.49,57.78c.05,0,.11,0,.16,0,.35-.09.57-.45.48-.8-.11-.42-.2-.85-.28-1.27-.07-.36-.42-.59-.77-.52-.36.07-.59.42-.52.77,0,0,0,0,0,0,.09.44.18.88.3,1.32.08.29.34.49.64.49Z"></path>
  <path class="cls-2" d="m25.1,60.05c-.13-.34-.51-.51-.85-.38,0,0,0,0,0,0-.34.13-.51.51-.38.85,0,0,0,0,0,0,.16.44.33.86.51,1.27.1.24.34.39.6.4.09,0,.18-.02.26-.06.33-.14.49-.53.34-.86-.19-.4-.34-.8-.49-1.21Z"></path>
  <path class="cls-2" d="m22.28,46.48c-.07.45-.12.9-.16,1.35-.03.36.24.68.6.71,0,0,.02,0,.02,0h.06c.34,0,.63-.26.66-.6.04-.44.09-.86.15-1.32.05-.36-.21-.69-.57-.74-.36-.06-.7.18-.76.54,0,.02,0,.04,0,.06Z"></path>
  <path class="cls-2" d="m24.15,41.41c-.35-.11-.71.08-.83.43-.14.44-.27.88-.38,1.32-.08.35.12.7.46.79.05,0,.11,0,.17,0,.31,0,.58-.2.66-.5.11-.42.23-.83.36-1.25.09-.34-.11-.7-.45-.8Z"></path>
  <path class="cls-2" d="m62.64,74.7c-.32.17-.44.56-.28.88.11.22.34.36.59.36.1,0,.2-.02.29-.07.41-.2.81-.42,1.2-.66.32-.18.43-.59.24-.9-.18-.32-.59-.43-.9-.24-.38.23-.77.45-1.15.63Z"></path>
  <path class="cls-2" d="m58.4,76.38c-.36.05-.62.39-.56.76.05.36.39.62.76.56.07,0,.13-.01.19-.03.44-.13.87-.27,1.32-.43.34-.13.51-.52.37-.86-.13-.33-.49-.49-.82-.38-.4.12-.81.26-1.25.38Z"></path>
  <path class="cls-2" d="m48.78,78.18c0,.36.3.66.66.66h1.35c.36,0,.66-.3.66-.66s-.3-.66-.66-.66h-1.33c-.36-.01-.67.27-.69.63,0,0,0,.02,0,.03Z"></path>
  <path class="cls-2" d="m30.32,31.93c.18,0,.35-.07.48-.2.3-.32.61-.62.92-.92.26-.25.27-.67.02-.93s-.67-.27-.93-.02c-.33.32-.66.66-.96.96-.25.26-.24.68.02.93.12.12.29.18.46.18h0Z"></path>
  <path class="cls-2" d="m41.83,76.16c-.41-.13-.82-.28-1.21-.44-.33-.15-.72,0-.87.34s0,.72.34.87c.02,0,.04.01.05.02.42.17.85.32,1.28.46.07.01.14.01.2,0,.36.06.71-.19.77-.55.06-.36-.19-.71-.55-.77h0v.07Z"></path>
  <path class="cls-2" d="m27.65,33.42c-.27.36-.54.73-.79,1.11-.2.3-.12.71.18.91.3.2.71.13.92-.18,0,0,0,0,0,0,.24-.36.5-.71.75-1.06.24-.27.21-.69-.06-.93s-.69-.21-.93.06c-.02.03-.04.05-.06.08h0Z"></path>
  <path class="cls-2" d="m28.7,68.7c.29.35.59.66.9,1.02.13.14.3.21.49.21.16,0,.32-.07.44-.18.27-.25.28-.66.04-.93-.29-.32-.58-.66-.86-.97-.21-.3-.63-.36-.92-.15s-.36.63-.15.92c.02.03.04.05.06.07Z"></path>
  <path class="cls-2" d="m53.43,78.08c.04.33.33.58.66.57h.09c.45-.06.9-.13,1.32-.21.36-.06.61-.41.54-.78-.06-.36-.41-.61-.78-.54-.43.08-.85.15-1.32.2-.35.07-.58.41-.51.76Z"></path>
  <path class="cls-2" d="m33.79,28.84c.14,0,.28-.05.4-.13.35-.26.7-.51,1.06-.75.3-.2.38-.62.18-.92s-.62-.38-.92-.18c-.37.26-.74.52-1.11.79-.29.22-.35.63-.13.92.12.17.32.26.53.26Z"></path>
  <path class="cls-2" d="m37.94,75.25c.17-.32.05-.72-.27-.89-.38-.2-.75-.42-1.12-.66-.29-.21-.71-.15-.92.15-.21.29-.15.71.15.92.04.03.08.05.12.07.38.23.78.46,1.18.66.31.16.69.05.87-.24Z"></path>
  <path class="cls-2" d="m37.72,26.37c.11,0,.21-.03.3-.08.38-.2.77-.38,1.17-.57.33-.15.48-.54.33-.87s-.54-.48-.87-.33h0c-.42.19-.83.39-1.23.6-.32.17-.45.56-.29.89.11.22.34.36.59.36h0Z"></path>
  <path class="cls-2" d="m68.47,71.63c-.23-.28-.64-.33-.93-.1,0,0,0,0,0,0-.34.27-.66.53-1.02.79-.3.21-.36.63-.15.92,0,0,0,0,0,0,.22.29.63.36.92.14,0,0,0,0,0,0,.36-.26.73-.54,1.08-.83.28-.23.33-.64.1-.92Z"></path>
  <path class="cls-2" d="m57.6,24.22c.43.12.85.24,1.27.38.07.02.14.03.2.03.36.06.71-.19.76-.56s-.19-.71-.56-.76c-.44-.14-.89-.27-1.32-.4-.35-.11-.72.09-.82.44-.11.35.09.72.44.82.01,0,.03,0,.04.01l-.02.03Z"></path>
  <path class="cls-2" d="m77.89,42.68c-.08-.36-.44-.58-.79-.5-.36.08-.58.44-.5.79,0,.02.01.04.02.07.12.42.22.85.32,1.32.07.31.35.52.66.51.05,0,.1,0,.15,0,.36-.08.58-.44.5-.79,0,0,0,0,0,0-.11-.51-.23-.96-.36-1.41Z"></path>
  <path class="cls-2" d="m67.07,28.96c.12.09.26.14.4.14.36,0,.66-.29.66-.66,0-.21-.09-.4-.26-.53-.37-.28-.75-.56-1.13-.83-.29-.22-.7-.17-.93.12s-.17.7.12.93c.02.01.04.03.06.04.36.22.72.49,1.07.79Z"></path>
  <path class="cls-2" d="m78.27,51.66c-.36-.02-.68.25-.7.61,0,.44-.07.88-.13,1.32-.04.36.22.69.58.73,0,0,0,0,0,0h.07c.34,0,.62-.25.66-.58.05-.46.09-.92.13-1.39.02-.36-.25-.67-.61-.69Z"></path>
  <path class="cls-2" d="m78.8,47.48c-.04-.36-.36-.63-.73-.59-.36.04-.63.36-.59.73.04.44.08.88.1,1.32,0,.36.3.66.66.66h0c.36,0,.66-.29.66-.66,0-.01,0-.02,0-.03-.03-.5-.03-.96-.1-1.42Z"></path>
  <path class="cls-2" d="m61.98,25.82c.4.18.8.38,1.19.59.09.05.2.08.3.08.36,0,.66-.3.66-.66,0-.24-.13-.46-.35-.58-.41-.22-.83-.43-1.25-.63-.33-.15-.72,0-.88.32-.15.33,0,.72.32.88h0Z"></path>
  <path class="cls-2" d="m76.16,38.11c-.16-.33-.55-.47-.88-.31-.33.16-.47.55-.31.88,0,0,0,0,0,0,.19.4.38.81.55,1.21.1.24.34.4.61.4.09,0,.18-.02.26-.05.34-.14.49-.53.35-.86-.18-.43-.37-.85-.57-1.27Z"></path>
  <path class="cls-2" d="m72.6,34.67c.26.36.51.73.75,1.1.12.19.33.3.55.3.36,0,.66-.29.67-.65,0-.13-.04-.25-.1-.36-.26-.39-.51-.78-.79-1.16-.21-.3-.62-.37-.92-.15,0,0,0,0,0,0-.29.21-.36.62-.15.92Z"></path>
  <path class="cls-2" d="m70.51,32.09c.12.13.3.21.48.21.17,0,.33-.06.45-.17.27-.25.29-.66.04-.93,0,0,0,0,0,0-.32-.34-.66-.66-.97-1-.24-.28-.66-.3-.93-.07s-.3.66-.07.93c.02.03.05.05.07.07.31.31.62.63.92.96Z"></path>
  <path class="cls-1" d="m34.93,63.16c.56,0,1.11-.12,1.62-.36l.09.11c.12.14.3.22.49.22.16,0,.32-.06.44-.17.25-.23.28-.62.07-.89,1.6-1.49,1.68-4,.19-5.6-1.01-1.08-2.54-1.51-3.97-1.11-.15-.33-.55-.47-.88-.32-.28.13-.43.44-.36.75,0,.05,0,.09.05.13-1.79,1.25-2.23,3.72-.98,5.52.74,1.06,1.94,1.69,3.23,1.69v.03Zm0-6.6c1.46,0,2.64,1.18,2.64,2.64s-1.18,2.64-2.64,2.64-2.64-1.18-2.64-2.64c0-1.46,1.18-2.63,2.64-2.63h0Z"></path>
  <path class="cls-2" d="m64.46,62.4c.2,0,.39-.09.51-.24.29-.35.57-.72.83-1.09.21-.29.16-.7-.13-.92-.3-.21-.71-.14-.92.16-.24.35-.5.66-.77,1.02-.23.28-.19.7.1.93,0,0,0,0,0,0,.11.09.24.14.38.15Z"></path>
  <path class="cls-2" d="m56.89,34.31c.4.16.79.33,1.17.51.09.04.19.07.28.07.36,0,.66-.29.66-.66,0-.25-.14-.49-.37-.6-.4-.2-.83-.38-1.25-.55-.34-.14-.72.03-.86.37s.03.72.37.86h0Z"></path>
  <path class="cls-2" d="m41,64.92c-.36-.23-.71-.48-1.04-.73-.3-.22-.72-.16-.94.14s-.16.72.14.94c.36.28.74.54,1.12.79.31.2.72.11.92-.19s.11-.72-.19-.92h0v-.03Z"></path>
  <path class="cls-2" d="m63.98,39.52c.26.33.52.66.76,1.02.12.18.33.29.55.28.13,0,.27-.04.38-.12.3-.21.37-.62.17-.92-.26-.37-.53-.74-.82-1.1-.23-.28-.64-.33-.93-.1,0,0,0,0,0,0-.28.23-.33.64-.1.92Z"></path>
  <path class="cls-2" d="m45,66.86c-.4-.13-.8-.28-1.19-.45-.34-.14-.72.02-.86.36-.14.34.02.72.36.86.42.17.85.34,1.28.48.07,0,.14,0,.21,0,.36.06.71-.19.76-.56.06-.36-.19-.71-.56-.76h0v.07Z"></path>
  <path class="cls-2" d="m61.77,37.27c.12.1.27.16.43.17.36,0,.66-.3.66-.66,0-.19-.08-.38-.23-.5-.34-.3-.71-.59-1.07-.86-.29-.22-.71-.16-.92.14,0,0,0,0,0,0-.22.29-.16.71.14.92,0,0,0,0,0,0,.34.25.67.52,1,.79Z"></path>
  <path class="cls-2" d="m61.12,65.59c.14,0,.28-.05.39-.13.37-.27.73-.55,1.08-.85.28-.24.3-.67.06-.94s-.67-.3-.94-.06c-.32.28-.66.54-1,.79-.3.21-.36.63-.15.92,0,0,0,0,0,0,.13.18.34.28.56.27Z"></path>
  <path class="cls-2" d="m58.89,66.34c-.16-.33-.55-.47-.88-.31,0,0,0,0,0,0-.38.18-.77.36-1.17.51-.34.13-.51.52-.37.86.1.25.34.42.62.42.08,0,.17-.02.24-.05.42-.17.85-.36,1.25-.55.33-.16.47-.55.31-.88Z"></path>
  <path class="cls-2" d="m66.78,44.52c.09.26.34.44.62.44.08,0,.15-.01.22-.04.34-.12.52-.5.4-.85-.15-.43-.33-.86-.51-1.27-.13-.34-.51-.51-.85-.38-.34.13-.51.51-.38.85,0,.03.02.05.03.07.17.39.33.81.48,1.18Z"></path>
  <path class="cls-2" d="m66.61,58.42c.09.04.18.06.27.06.26,0,.5-.15.61-.39.18-.41.36-.84.51-1.27.11-.35-.07-.72-.42-.83-.33-.11-.69.06-.82.38-.15.4-.3.79-.48,1.18-.15.33,0,.72.33.87Z"></path>
  <path class="cls-2" d="m68.87,53.51c.07-.44.13-.9.18-1.32.03-.36-.23-.68-.6-.72,0,0,0,0,0,0-.36-.03-.68.23-.71.59-.04.42-.1.85-.17,1.26-.04.34.2.66.54.72h.11c.32,0,.59-.22.65-.53Z"></path>
  <path class="cls-2" d="m67.58,47.6c.07.42.13.84.16,1.26.03.34.32.6.66.6h.06c.35-.03.62-.34.6-.69-.04-.46-.1-.91-.17-1.36-.06-.36-.4-.61-.77-.55s-.61.4-.55.77v-.03Z"></path>
  <path class="cls-2" d="m32.59,52.99h.07c.36-.04.63-.36.59-.72,0,0,0,0,0,0-.05-.42-.07-.85-.09-1.27-.01-.36-.32-.65-.68-.64s-.65.32-.64.68c0,.46.05.91.09,1.37.04.34.32.59.66.59Z"></path>
  <path class="cls-2" d="m32.29,46.28c-.1.44-.18.89-.25,1.32-.05.36.2.69.55.75h.1c.33,0,.61-.24.66-.57.07-.42.15-.84.24-1.25.09-.35-.12-.71-.47-.8s-.71.12-.8.47c0,.01,0,.03,0,.04v.04Z"></path>
  <path class="cls-2" d="m34.56,43.55c.17-.39.36-.78.55-1.15.1-.35-.1-.72-.45-.82-.25-.07-.52,0-.69.2-.21.4-.41.82-.59,1.23-.15.33,0,.72.34.87,0,0,0,0,0,0,.08.03.17.05.26.05.25-.01.47-.17.57-.4Z"></path>
  <path class="cls-2" d="m40.33,34.77c-.38.25-.76.51-1.12.79-.29.22-.35.63-.13.92.13.17.32.27.53.26.14,0,.28-.05.4-.14.34-.26.66-.5,1.04-.73.31-.2.39-.61.19-.91-.2-.31-.61-.39-.91-.19h0Z"></path>
  <path class="cls-2" d="m48.14,33.24c.42-.06.85-.1,1.27-.13.36-.02.64-.33.62-.7h0c-.02-.36-.34-.64-.7-.62-.46,0-.91.07-1.36.13-.36.05-.61.38-.57.74.04.33.33.58.66.57h.08Z"></path>
  <path class="cls-2" d="m43.61,34.45c.09,0,.17-.02.25-.05.39-.17.79-.31,1.19-.44.35-.12.53-.49.42-.84,0,0,0,0,0,0-.12-.34-.49-.53-.83-.42-.43.14-.86.3-1.29.48-.34.14-.49.53-.35.87.1.24.34.4.61.4h0Z"></path>
  <path class="cls-2" d="m53.78,67.43c-.42.08-.84.15-1.26.2-.36.04-.62.37-.58.73,0,0,0,0,0,0,.04.33.32.58.66.58h.08c.45-.06.9-.13,1.35-.21.36-.07.6-.42.53-.79-.07-.36-.42-.6-.79-.53v.02Z"></path>
  <path class="cls-2" d="m53.85,33.42h.13c.36.04.69-.23.73-.59s-.23-.69-.59-.73c-.45-.09-.9-.17-1.32-.22-.36-.04-.7.22-.74.58-.04.36.22.7.58.74h0c.38.07.81.13,1.22.22Z"></path>
  <path class="cls-2" d="m49.36,67.71c-.42,0-.85-.07-1.27-.13-.36-.05-.7.21-.75.57-.05.36.21.7.57.75.45.06.9.11,1.36.13h.04c.36.01.67-.27.68-.64.01-.36-.27-.67-.64-.68h0Z"></path>
  <path class="cls-2" d="m36.84,39.73c.26-.34.54-.66.83-.98.23-.28.18-.7-.1-.93-.26-.21-.64-.19-.88.04-.3.33-.6.66-.88,1.04-.22.29-.17.7.11.92.12.09.26.14.41.15.2,0,.39-.09.51-.25Z"></path>
</svg>
