<?xml version="1.0" encoding="UTF-8"?>
<svg xmlns="http://www.w3.org/2000/svg" id="agenda" viewBox="0 0 100 100">
  <defs>
    <style>
      .cls-1 {
        fill: #987018;
      }

      .cls-2 {
        fill: #707070;
      }
    </style>
  </defs>
  <path class="cls-1" d="m60,11.28c-.54-.02-1,.4-1.02.94-.02.54.4,1,.94,1.02.03,0,.06,0,.08,0h.3c.54.02,1-.4,1.02-.94s-.4-1-.94-1.02c-.03,0-.06,0-.08,0h-.3Z"></path>
  <path class="cls-2" d="m67.2,11.28h-1.54c-.54-.02-1,.4-1.02.94-.02.54.4,1,.94,1.02.03,0,.06,0,.08,0h.56v76.09h-25.59c-.54.02-.96.48-.94,1.02.02.51.43.91.94.94h26.58c.54,0,.98-.44.98-.98V12.26c0-.54-.44-.98-.98-.98Z"></path>
  <path class="cls-1" d="m32.89,89.33h-.2c-.54-.02-1,.4-1.02.94s.4,1,.94,1.02c.03,0,.06,0,.08,0h.2c.54.02,1-.4,1.02-.94s-.4-1-.94-1.02c-.03,0-.06,0-.08,0Z"></path>
  <path class="cls-2" d="m24.74,89.33h-7.81V13.24h36.89c.54.02,1-.4,1.02-.94s-.4-1-.94-1.02c-.03,0-.06,0-.08,0H15.95c-.54,0-.98.44-.98.98v78.05c0,.54.44.98.98.98h8.79c.54.02,1-.4,1.02-.94.02-.54-.4-1-.94-1.02-.03,0-.06,0-.08,0h0Z"></path>
  <path class="cls-2" d="m90.57,19.41c-.18-.27-.48-.44-.81-.44h-2.7v-6.7c0-.54-.44-.98-.98-.98h-2.42c-.54.02-.96.48-.94,1.02.02.51.43.91.94.94h1.44v5.72h-4.34v-6.7c0-.54-.44-.98-.97-.98h-2.42c-.54-.02-1,.4-1.02.94-.02.54.4,1,.94,1.02.03,0,.06,0,.08,0h1.44v5.72h-1.44c-.54-.02-1,.4-1.02.94-.02.54.4,1,.94,1.02.03,0,.06,0,.08,0h10.88l-2.45,5.54c-.11.25-.11.54,0,.79l2.45,5.54h-13.79V12.26c0-.54-.43-.97-.97-.98h-2.42c-.54-.02-1,.4-1.02.94-.02.54.4,1,.94,1.02.03,0,.06,0,.08,0h1.44v76.09h-1.44c-.54-.02-1,.4-1.02.94s.4,1,.94,1.02c.03,0,.06,0,.08,0h2.42c.54,0,.98-.44.98-.97h0v-55.56h4.34v54.58h-1.44c-.54-.02-1,.4-1.02.94s.4,1,.94,1.02c.03,0,.06,0,.08,0h2.42c.54,0,.98-.44.98-.97h0v-55.55h4.34v54.58h-1.44c-.54.02-.96.48-.94,1.02.02.51.43.91.94.94h2.42c.54,0,.98-.44.98-.98v-55.55h2.7c.54,0,.98-.44.98-.98,0-.14-.03-.27-.08-.39l-2.89-6.52,2.88-6.52c.13-.3.1-.65-.08-.93Z"></path>
  <path class="cls-1" d="m41.55,64.64c7.42,0,13.43-6.02,13.43-13.44,0-.28,0-.56-.03-.84,4.81-3.16,8.56-6.64,7.42-9.12-.77-1.69-3.32-2.1-7.82-1.28-.53.1-.88.61-.79,1.14s.61.88,1.14.79c4.25-.78,5.54-.14,5.69.17.16.35-.29,1.89-4.18,4.88-.81.63-1.71,1.26-2.68,1.9-.25.05-.47.19-.61.4-3.32,2.1-6.78,3.96-10.36,5.58-5.4,2.47-10.69,4.31-14.89,5.17-4.81.99-6.27.31-6.42-.03s.28-1.86,4.1-4.81c.42-.34.47-.96.13-1.38-.33-.4-.9-.47-1.32-.17-3.9,3.01-5.48,5.42-4.68,7.17.51,1.12,1.87,1.68,4.05,1.68,1.53-.03,3.05-.22,4.55-.55,1.25-.26,2.6-.6,4.01-1.02,2.49,2.41,5.81,3.75,9.27,3.76Zm2.02-8.05c3.24-1.49,6.39-3.16,9.45-5-.2,6.32-5.49,11.28-11.81,11.08-2.46-.08-4.83-.94-6.75-2.47,3.1-1.04,6.15-2.25,9.12-3.62h0Z"></path>
  <path class="cls-1" d="m36.42,41c4.71-2.39,10.45-1.23,13.86,2.8.36.4.98.43,1.38.06.38-.35.43-.93.11-1.33-4.8-5.64-13.26-6.31-18.9-1.51-3.96,3.37-5.61,8.74-4.23,13.75.12.42.51.71.94.7.09,0,.18-.01.26-.03.52-.14.83-.68.68-1.2,0,0,0,0,0,0-1.43-5.25,1.03-10.79,5.89-13.24Z"></path>
</svg>
