<?xml version="1.0" encoding="utf-8"?>
<!-- Generator: Adobe Illustrator 25.2.2, SVG Export Plug-In . SVG Version: 6.00 Build 0)  -->
<svg version="1.1" id="Calque_1" xmlns="http://www.w3.org/2000/svg" xmlns:xlink="http://www.w3.org/1999/xlink" x="0px" y="0px"
	 viewBox="0 0 46 46" style="enable-background:new 0 0 46 46;" xml:space="preserve">
<style type="text/css">
	.st0{fill:#FFFFFF;}
	.st1{fill:#F37952;}
	.st2{fill:#101418;}
	.st3{fill:#F47851;}
</style>
<path class="st0" d="M35.42,23.26c0,6.74-5.47,12.21-12.21,12.21C16.47,35.47,11,30,11,23.26c0-6.74,5.47-12.21,12.21-12.21
	C29.96,11.04,35.42,16.51,35.42,23.26"/>
<path class="st1" d="M23.21,9.05c-0.88,0-1.57,0.63-2.18,1.18c-0.38,0.35-0.78,0.7-1.1,0.79c-0.09,0.02-0.19,0.03-0.31,0.03
	c-0.32,0-0.7-0.08-1.1-0.17c-0.44-0.09-0.9-0.19-1.35-0.19c-0.42,0-0.77,0.08-1.07,0.26c-0.75,0.43-1.03,1.31-1.28,2.08
	c-0.16,0.5-0.33,1.02-0.57,1.26c-0.25,0.25-0.76,0.41-1.26,0.57c-0.77,0.25-1.65,0.53-2.08,1.28c-0.43,0.74-0.24,1.63-0.07,2.42
	c0.11,0.52,0.22,1.06,0.13,1.41c-0.09,0.32-0.44,0.72-0.79,1.1C9.63,21.68,9,22.37,9,23.26s0.63,1.57,1.18,2.18
	c0.35,0.38,0.7,0.78,0.79,1.1c0.09,0.35-0.02,0.89-0.13,1.41c-0.17,0.79-0.36,1.68,0.07,2.42c0.43,0.75,1.31,1.03,2.08,1.28
	c0.5,0.16,1.02,0.33,1.26,0.57c0.25,0.25,0.41,0.76,0.57,1.26c0.25,0.77,0.53,1.65,1.28,2.08c0.3,0.17,0.65,0.26,1.07,0.26
	c0.45,0,0.91-0.1,1.35-0.19c0.4-0.09,0.78-0.17,1.1-0.17c0.12,0,0.22,0.01,0.31,0.03c0.32,0.09,0.72,0.44,1.1,0.79
	c0.61,0.55,1.3,1.18,2.18,1.18c0.88,0,1.57-0.63,2.18-1.18c0.38-0.35,0.78-0.7,1.1-0.79c0.09-0.02,0.19-0.03,0.31-0.03
	c0.32,0,0.7,0.08,1.1,0.17c0.44,0.09,0.9,0.19,1.35,0.19c0.42,0,0.77-0.08,1.07-0.26c0.75-0.43,1.03-1.31,1.28-2.08
	c0.16-0.5,0.33-1.02,0.57-1.26c0.25-0.25,0.76-0.41,1.26-0.57c0.77-0.25,1.65-0.53,2.08-1.28c0.43-0.74,0.24-1.63,0.07-2.42
	c-0.11-0.52-0.22-1.06-0.13-1.41c0.09-0.32,0.44-0.72,0.79-1.1c0.55-0.61,1.18-1.3,1.18-2.18s-0.63-1.57-1.18-2.18
	c-0.35-0.38-0.7-0.78-0.79-1.1c-0.09-0.35,0.02-0.89,0.13-1.41c0.17-0.79,0.36-1.68-0.07-2.42c-0.43-0.75-1.31-1.03-2.08-1.28
	c-0.5-0.16-1.02-0.33-1.26-0.57c-0.25-0.25-0.41-0.76-0.57-1.26c-0.25-0.77-0.53-1.65-1.28-2.08c-0.3-0.17-0.65-0.26-1.07-0.26
	c-0.45,0-0.91,0.1-1.35,0.19c-0.4,0.09-0.78,0.17-1.1,0.17c-0.12,0-0.22-0.01-0.31-0.03c-0.32-0.09-0.72-0.44-1.1-0.79
	C24.78,9.67,24.09,9.05,23.21,9.05 M23.21,9.69c1.15,0,2.06,1.66,3.12,1.94c0.15,0.04,0.31,0.06,0.47,0.06
	c0.77,0,1.69-0.36,2.45-0.36c0.28,0,0.53,0.05,0.75,0.17c0.97,0.56,0.93,2.46,1.72,3.24c0.79,0.79,2.68,0.75,3.24,1.72
	c0.55,0.96-0.42,2.58-0.13,3.67c0.28,1.06,1.94,1.97,1.94,3.12c0,1.15-1.66,2.06-1.94,3.12c-0.29,1.09,0.68,2.71,0.13,3.67
	c-0.56,0.97-2.46,0.93-3.24,1.72c-0.79,0.79-0.75,2.68-1.72,3.24c-0.22,0.13-0.47,0.17-0.75,0.17c-0.76,0-1.68-0.36-2.45-0.36
	c-0.17,0-0.32,0.02-0.47,0.06c-1.06,0.28-1.97,1.94-3.12,1.94c-1.15,0-2.06-1.66-3.12-1.94c-0.15-0.04-0.31-0.06-0.47-0.06
	c-0.77,0-1.69,0.36-2.45,0.36c-0.28,0-0.53-0.05-0.75-0.17c-0.97-0.56-0.93-2.46-1.72-3.24c-0.79-0.79-2.68-0.75-3.24-1.72
	c-0.55-0.96,0.42-2.58,0.13-3.67c-0.28-1.06-1.94-1.97-1.94-3.12c0-1.15,1.66-2.06,1.94-3.12c0.29-1.09-0.68-2.71-0.13-3.67
	c0.56-0.97,2.46-0.93,3.24-1.72c0.79-0.79,0.75-2.68,1.72-3.24c0.22-0.13,0.47-0.17,0.75-0.17c0.76,0,1.68,0.36,2.45,0.36
	c0.16,0,0.32-0.02,0.47-0.06C21.15,11.35,22.07,9.69,23.21,9.69"/>
<path class="st1" d="M23.21,4.78c-1.08,0-1.96,0.79-2.73,1.5c-0.52,0.47-1.06,0.96-1.53,1.08c-0.13,0.04-0.28,0.05-0.45,0.05
	c-0.44,0-0.95-0.11-1.49-0.22c-0.57-0.12-1.17-0.25-1.73-0.25c-0.51,0-0.94,0.1-1.31,0.31c-0.91,0.53-1.26,1.59-1.59,2.63
	c-0.22,0.68-0.45,1.38-0.8,1.74c-0.36,0.36-1.06,0.59-1.74,0.8c-1.03,0.33-2.1,0.68-2.63,1.59c-0.52,0.9-0.29,1.99-0.07,3.04
	c0.15,0.71,0.3,1.44,0.17,1.94C7.19,19.47,6.7,20,6.23,20.52c-0.7,0.77-1.5,1.65-1.5,2.73c0,1.08,0.79,1.96,1.5,2.73
	c0.47,0.52,0.96,1.06,1.08,1.53c0.13,0.5-0.02,1.24-0.17,1.94c-0.22,1.05-0.45,2.14,0.07,3.04c0.53,0.91,1.59,1.26,2.63,1.59
	c0.68,0.22,1.38,0.45,1.74,0.8c0.36,0.36,0.59,1.06,0.8,1.74c0.33,1.03,0.68,2.1,1.59,2.63c0.37,0.21,0.79,0.31,1.31,0.31
	c0.57,0,1.16-0.13,1.73-0.25c0.54-0.11,1.05-0.22,1.49-0.22c0.18,0,0.32,0.02,0.46,0.05c0.47,0.13,1.01,0.61,1.53,1.08
	c0.77,0.7,1.65,1.5,2.73,1.5c1.08,0,1.96-0.79,2.73-1.5c0.52-0.47,1.06-0.96,1.53-1.08c0.13-0.04,0.28-0.05,0.45-0.05
	c0.44,0,0.95,0.11,1.49,0.22c0.57,0.12,1.17,0.25,1.73,0.25c0.51,0,0.94-0.1,1.31-0.31c0.91-0.53,1.26-1.59,1.59-2.63
	c0.22-0.68,0.45-1.38,0.8-1.74c0.36-0.36,1.06-0.59,1.74-0.8c1.03-0.33,2.1-0.68,2.63-1.59c0.52-0.9,0.29-1.99,0.07-3.04
	c-0.15-0.71-0.3-1.44-0.17-1.94c0.13-0.47,0.61-1.01,1.08-1.53c0.7-0.77,1.5-1.65,1.5-2.73c0-1.08-0.79-1.96-1.5-2.73
	C39.72,20,39.24,19.47,39.11,19c-0.13-0.5,0.02-1.24,0.17-1.94c0.22-1.05,0.45-2.14-0.07-3.04c-0.53-0.91-1.59-1.26-2.63-1.59
	c-0.68-0.22-1.38-0.45-1.74-0.8c-0.36-0.36-0.59-1.06-0.8-1.74c-0.33-1.03-0.68-2.1-1.59-2.63c-0.37-0.21-0.79-0.31-1.31-0.31
	c-0.57,0-1.16,0.13-1.73,0.25c-0.54,0.11-1.05,0.22-1.49,0.22c-0.18,0-0.32-0.02-0.46-0.05C27,7.23,26.47,6.74,25.95,6.27
	C25.17,5.57,24.29,4.78,23.21,4.78 M23.21,5.42c1.51,0,2.71,2.18,4.1,2.55c0.2,0.05,0.4,0.07,0.62,0.07c1.01,0,2.22-0.47,3.22-0.47
	c0.36,0,0.7,0.06,0.99,0.23c1.28,0.74,1.23,3.23,2.26,4.26c1.04,1.04,3.53,0.99,4.26,2.26c0.73,1.26-0.55,3.39-0.17,4.82
	c0.37,1.39,2.55,2.59,2.55,4.1s-2.18,2.71-2.55,4.1c-0.38,1.44,0.9,3.57,0.17,4.82c-0.74,1.28-3.23,1.23-4.26,2.26
	c-1.04,1.04-0.99,3.53-2.26,4.26c-0.29,0.17-0.62,0.23-0.99,0.23c-1,0-2.21-0.47-3.22-0.47c-0.22,0-0.42,0.02-0.62,0.07
	c-1.39,0.37-2.59,2.55-4.1,2.55c-1.51,0-2.71-2.18-4.1-2.55c-0.2-0.05-0.4-0.07-0.62-0.07c-1.01,0-2.22,0.47-3.22,0.47
	c-0.36,0-0.7-0.06-0.99-0.23c-1.28-0.74-1.23-3.23-2.26-4.26c-1.04-1.04-3.53-0.99-4.26-2.26c-0.73-1.26,0.55-3.39,0.17-4.82
	c-0.37-1.39-2.55-2.59-2.55-4.1s2.18-2.71,2.55-4.1c0.38-1.44-0.9-3.57-0.17-4.82c0.74-1.28,3.23-1.23,4.26-2.26
	c1.04-1.04,0.99-3.53,2.26-4.26c0.29-0.17,0.62-0.23,0.99-0.23c1,0,2.21,0.47,3.22,0.47c0.22,0,0.42-0.02,0.62-0.07
	C20.51,7.6,21.71,5.42,23.21,5.42"/>
<path class="st1" d="M23.21,0.51c-1.28,0-2.3,0.92-3.29,1.81c-0.66,0.59-1.34,1.21-1.96,1.37c-0.18,0.05-0.37,0.07-0.6,0.07
	c-0.56,0-1.2-0.13-1.87-0.28c-0.7-0.15-1.43-0.3-2.11-0.3c-0.61,0-1.11,0.12-1.54,0.37c-1.08,0.63-1.5,1.92-1.9,3.17
	C9.66,7.58,9.37,8.47,8.9,8.94C8.43,9.41,7.54,9.7,6.68,9.98c-1.25,0.4-2.54,0.82-3.17,1.9c-0.62,1.06-0.34,2.38-0.07,3.66
	c0.19,0.89,0.39,1.82,0.21,2.48c-0.17,0.62-0.78,1.3-1.37,1.96c-0.89,0.99-1.81,2-1.81,3.29c0,1.28,0.92,2.3,1.81,3.29
	c0.59,0.66,1.21,1.34,1.37,1.96c0.18,0.66-0.02,1.58-0.21,2.48c-0.27,1.27-0.55,2.59,0.07,3.66c0.63,1.08,1.92,1.5,3.17,1.9
	c0.86,0.28,1.75,0.56,2.22,1.03c0.47,0.47,0.76,1.36,1.03,2.22c0.4,1.25,0.82,2.54,1.9,3.17c0.43,0.25,0.93,0.37,1.54,0.37
	c0.68,0,1.41-0.15,2.11-0.3c0.67-0.14,1.31-0.28,1.87-0.28c0.23,0,0.43,0.02,0.6,0.07c0.62,0.17,1.3,0.78,1.96,1.37
	c0.99,0.89,2.01,1.81,3.29,1.81c1.28,0,2.3-0.92,3.29-1.81c0.66-0.59,1.34-1.21,1.96-1.37c0.18-0.05,0.37-0.07,0.6-0.07
	c0.56,0,1.2,0.13,1.87,0.28c0.7,0.15,1.43,0.3,2.11,0.3c0.61,0,1.11-0.12,1.54-0.37c1.08-0.63,1.5-1.92,1.9-3.17
	c0.28-0.86,0.56-1.75,1.03-2.22c0.47-0.47,1.36-0.76,2.22-1.03c1.25-0.4,2.54-0.82,3.17-1.9c0.62-1.06,0.34-2.38,0.07-3.66
	c-0.19-0.89-0.39-1.82-0.21-2.48c0.17-0.62,0.78-1.3,1.37-1.96c0.89-0.99,1.81-2.01,1.81-3.29c0-1.28-0.92-2.3-1.81-3.29
	c-0.59-0.66-1.21-1.34-1.37-1.96c-0.18-0.66,0.02-1.58,0.21-2.48c0.27-1.27,0.55-2.59-0.07-3.66c-0.63-1.08-1.92-1.5-3.17-1.9
	C38.88,9.7,38,9.41,37.53,8.94c-0.47-0.47-0.76-1.36-1.03-2.22c-0.4-1.25-0.82-2.54-1.9-3.17c-0.43-0.25-0.93-0.37-1.54-0.37
	c-0.69,0-1.41,0.15-2.11,0.3c-0.67,0.14-1.31,0.28-1.87,0.28c-0.23,0-0.43-0.02-0.6-0.07c-0.62-0.17-1.3-0.78-1.96-1.37
	C25.51,1.43,24.49,0.51,23.21,0.51 M23.21,1.15c1.87,0,3.35,2.71,5.08,3.17c0.24,0.06,0.5,0.09,0.77,0.09
	c1.26,0,2.75-0.58,3.99-0.58c0.45,0,0.86,0.08,1.22,0.28c1.58,0.92,1.52,4,2.81,5.28c1.28,1.28,4.37,1.22,5.28,2.81
	c0.9,1.56-0.68,4.2-0.21,5.98c0.46,1.72,3.17,3.21,3.17,5.08s-2.71,3.35-3.17,5.08c-0.48,1.78,1.11,4.42,0.21,5.98
	c-0.92,1.58-4,1.52-5.29,2.81c-1.28,1.28-1.22,4.37-2.81,5.28c-0.36,0.21-0.77,0.28-1.22,0.28c-1.24,0-2.73-0.58-3.99-0.58
	c-0.27,0-0.53,0.03-0.77,0.09c-1.72,0.46-3.21,3.17-5.08,3.17c-1.87,0-3.35-2.71-5.08-3.17c-0.24-0.06-0.5-0.09-0.77-0.09
	c-1.26,0-2.75,0.58-3.99,0.58c-0.45,0-0.86-0.08-1.22-0.28c-1.58-0.92-1.52-4-2.81-5.28c-1.28-1.28-4.37-1.22-5.28-2.81
	c-0.9-1.56,0.68-4.2,0.21-5.98c-0.46-1.72-3.17-3.21-3.17-5.08s2.71-3.35,3.17-5.08c0.48-1.78-1.11-4.42-0.21-5.98
	c0.92-1.58,4-1.52,5.29-2.81c1.28-1.28,1.22-4.37,2.81-5.28c0.36-0.21,0.77-0.28,1.22-0.28c1.24,0,2.73,0.58,3.99,0.58
	c0.27,0,0.53-0.03,0.77-0.09C19.86,3.86,21.35,1.15,23.21,1.15"/>
<path class="st2" d="M14.73,18.68c0.43,0,0.69-0.14,0.69-0.58c0-0.43-0.29-0.57-0.69-0.57h-0.82v1.15H14.73z M14.45,18.89h-0.54
	v1.17h-0.23V17.3h1.04c0.52,0,0.91,0.23,0.92,0.8c0,0.57-0.43,0.79-0.92,0.79h-0.01l0.92,1.17h-0.28L14.45,18.89z"/>
<polygon class="st2" points="18.51,18.56 19.9,18.56 19.9,18.79 18.51,18.79 18.51,19.83 20.01,19.83 20.01,20.06 18.28,20.06 
	18.28,17.3 20.01,17.3 20.01,17.53 18.51,17.53 "/>
<rect x="23.04" y="17.3" class="st2" width="0.23" height="2.76"/>
<polygon class="st2" points="26.24,17.62 26.24,20.06 26.01,20.06 26.01,17.3 26.35,17.3 27.27,19.38 28.19,17.3 28.53,17.3 
	28.53,20.06 28.3,20.06 28.3,17.62 27.38,19.68 27.16,19.68 "/>
<path class="st2" d="M31.9,18.51c0.48,0.09,1,0.2,0.97,0.86c-0.02,0.48-0.5,0.73-0.99,0.73c-0.41,0-0.84-0.18-0.99-0.53l0.21-0.09
	c0.12,0.27,0.46,0.4,0.79,0.4c0.37,0,0.72-0.16,0.75-0.5c0.03-0.46-0.37-0.55-0.8-0.64c-0.46-0.09-0.93-0.2-0.91-0.76
	c0.02-0.46,0.48-0.7,0.96-0.7c0.41,0,0.82,0.17,0.98,0.52l-0.21,0.09c-0.11-0.26-0.45-0.39-0.77-0.39c-0.36,0-0.71,0.15-0.73,0.48
	C31.12,18.35,31.49,18.43,31.9,18.51"/>
<path class="st3" d="M15.13,22.79c-0.09-0.21-0.31-0.3-0.52-0.3c-0.25,0-0.49,0.14-0.49,0.38v1.01c0,0.25,0.25,0.37,0.51,0.37
	c0.26,0,0.52-0.12,0.52-0.37v-0.13h-0.63v-0.56h1.19v0.69c0,0.61-0.54,0.92-1.08,0.92c-0.54,0-1.08-0.3-1.08-0.92v-1.01
	c0-0.6,0.54-0.91,1.08-0.91c0.37,0,0.76,0.15,0.97,0.59L15.13,22.79z"/>
<path class="st3" d="M18.94,23.22c0.25,0,0.41-0.1,0.41-0.34c0-0.23-0.17-0.32-0.41-0.31h-0.51v0.65H18.94z M18.63,23.75h-0.2v1.01
	h-0.58v-2.76h1.09c0.55,0,0.97,0.25,0.99,0.88c0,0.51-0.23,0.75-0.63,0.83l0.82,1.05h-0.71L18.63,23.75z"/>
<path class="st3" d="M28.04,23.99c-0.03-0.18-0.08-0.53-0.08-0.59v-1.41h0.57v2.76h-0.61l-0.84-1.45l-0.17-0.37l-0.04,0.01
	l0.07,0.47v1.35h-0.58v-2.76h0.57l0.87,1.51L28,24L28.04,23.99z"/>
<path class="st3" d="M31.81,24.18c0.25,0,0.48-0.08,0.48-0.3v-0.98c0-0.23-0.23-0.32-0.48-0.32h-0.44v1.61H31.81z M31.81,21.99
	c0.55,0,1.05,0.27,1.05,0.9v0.98c0,0.62-0.51,0.88-1.05,0.88H30.8v-2.76H31.81z"/>
<path class="st3" d="M15.61,28.68c-0.24,0.39-0.62,0.58-0.98,0.58c-0.53,0-1.08-0.31-1.08-0.92v-1.01c0-0.6,0.54-0.92,1.08-0.92
	c0.37,0,0.77,0.19,0.96,0.59l-0.46,0.25c-0.11-0.21-0.33-0.3-0.54-0.3c-0.25,0-0.47,0.14-0.47,0.37v1.01c0,0.23,0.22,0.36,0.46,0.36
	c0.21,0,0.43-0.09,0.54-0.3L15.61,28.68z"/>
<polygon class="st3" points="17.56,27.55 18.75,27.55 18.75,28.11 17.56,28.11 17.56,28.66 18.86,28.66 18.86,29.22 16.98,29.22 
	16.98,26.45 18.86,26.45 18.86,27.01 17.56,27.01 "/>
<path class="st3" d="M22.02,28.45c-0.03-0.18-0.08-0.53-0.08-0.59v-1.41h0.57v2.76H21.9l-0.84-1.45l-0.17-0.37l-0.04,0.01l0.07,0.47
	v1.35h-0.58v-2.76h0.57l0.87,1.51l0.2,0.5L22.02,28.45z"/>
<polygon class="st3" points="25.27,27.03 25.27,29.22 24.69,29.22 24.69,27.03 23.9,27.03 23.9,26.45 26.06,26.45 26.06,27.03 "/>
<path class="st3" d="M28.54,27.68c0.25,0,0.41-0.1,0.41-0.34c0-0.23-0.17-0.32-0.41-0.31h-0.51v0.65H28.54z M28.23,28.21h-0.2v1.01
	h-0.58v-2.76h1.09c0.55,0,0.97,0.25,0.99,0.88c0,0.51-0.23,0.75-0.63,0.83l0.82,1.05h-0.71L28.23,28.21z"/>
<polygon class="st3" points="31.58,27.55 32.77,27.55 32.77,28.11 31.58,28.11 31.58,28.66 32.88,28.66 32.88,29.22 31.01,29.22 
	31.01,26.45 32.88,26.45 32.88,27.01 31.58,27.01 "/>
<polygon class="st3" points="23.16,21.83 21.53,24.64 22.19,24.64 23.16,22.97 24.12,24.64 24.78,24.64 "/>
<path class="st3" d="M23,24.02c-0.09,0.09-0.09,0.23,0,0.32c0.09,0.09,0.23,0.09,0.32,0c0.09-0.09,0.09-0.23,0-0.32
	C23.23,23.93,23.09,23.93,23,24.02"/>
</svg>
