<?xml version="1.0" encoding="utf-8"?>
<!-- Generator: Adobe Illustrator 25.2.2, SVG Export Plug-In . SVG Version: 6.00 Build 0)  -->
<svg version="1.1" id="Calque_1" xmlns="http://www.w3.org/2000/svg" xmlns:xlink="http://www.w3.org/1999/xlink" x="0px" y="0px"
	 viewBox="0 0 46 46" style="enable-background:new 0 0 46 46;" xml:space="preserve">
<style type="text/css">
	.st0{fill:none;stroke:#FFC548;stroke-width:0.75;stroke-miterlimit:10;}
	.st1{fill:#FFFFFF;}
	.st2{fill:#101418;}
	.st3{fill:#FFC548;}
</style>
<path class="st0" d="M15.26,43.82C24.18,44.5,34.4,38,34,28.28c-0.07-0.99-0.23-1.89-0.51-2.83c-0.26-0.81-0.65-1.47-1.07-2.21
	c-0.37-0.53-0.77-1-1.24-1.44c-0.53-0.46-1.13-0.89-1.78-1.2c-0.54-0.27-1.08-0.35-1.61-0.49c-0.55-0.08-1.13-0.05-1.69,0.05
	c-0.98,0.2-1.93,0.67-2.33,1.54c-1.13,2.26-2.47,4.88-5.46,4.49c-1.71-0.21-3.17-1.1-4.26-2.42c-0.57-0.67-0.99-1.41-1.33-2.19
	c-0.15-0.44-0.3-0.89-0.45-1.33c-0.75-2.86-0.29-5.7,0.89-8.25c1.08-2.28,2.7-4.15,4.78-5.72c1.96-1.42,3.84-2.3,6.11-3.02
	c0.58-0.16,1.13-0.27,1.68-0.37c1.62-0.21,3.11-0.4,4.71-0.36 M31.86,43.35c0,0,1.05-1.02,2.78-3.16
	c4.63-5.82,5.82-15.18,0.26-20.86c-1.21-1.18-2.64-2.12-4.31-2.63c-0.64-0.18-1.31-0.25-1.99-0.32c-0.38-0.02-0.78,0.02-1.16,0
	c-0.48,0.07-0.88,0.11-1.32,0.26c-0.37,0.12-0.67,0.25-0.98,0.39c-0.28,0.21-0.59,0.35-0.86,0.56c-0.53,0.37-0.84,0.83-1.22,1.32
	c-0.26,0.35-0.38,0.81-0.53,1.21c-0.14,0.52-0.22,1.07-0.02,1.53c1.13,2.55,1.6,5.63-1.17,7.31c-1.35,0.83-2.82,1.15-4.37,1
	c-3.45-0.37-6.26-2.55-7.91-5.57c-0.94-1.71-1.48-3.46-1.69-5.4c-0.12-0.69-0.1-1.39-0.09-2.09c0.15-2.38,0.66-4.68,1.64-6.87
	c0.34-0.7,0.67-1.41,1.07-2.09c1.09-1.82,2.49-3.27,3.92-4.77 M43.49,31.17c0,0-0.03-1.25-0.26-3.98
	c-0.61-7.43-6.35-14.98-14.29-15.17c-1.48,0-2.85,0.24-4.22,0.8c-1.45,0.59-2.65,1.54-3.58,2.78c-0.16,0.26-0.35,0.57-0.51,0.83
	c-0.52,1.02-0.71,2.16-0.63,3.28c0.11,0.55,0.23,1.05,0.55,1.56c0.41,0.61,0.89,1.18,1.54,1.49c0.65,0.32,1.3,0.44,1.93,0.81
	c2.68,1.68,2.41,5.36,0.55,7.53c-0.44,0.47-0.86,0.89-1.33,1.28c-0.61,0.41-1.14,0.78-1.83,1.09c-0.68,0.25-1.27,0.47-1.98,0.64
	c-0.76,0.15-1.43,0.22-2.21,0.23c-2.18-0.01-4.27-0.57-6.17-1.62c-1.79-1.01-3.25-2.22-4.47-3.85C5.94,28,5.41,27.21,4.87,26.3
	c-0.38-0.66-0.66-1.28-0.97-1.98c-0.22-0.6-0.38-1.17-0.6-1.77c-0.31-1.02-0.51-1.99-0.61-3.08c-0.26-2.75-0.23-4.2-0.23-4.2
	 M43.11,14.33c-5.56-6.81-16.97-9.82-23.8-3.1c-1.65,1.61-2.72,3.7-2.98,6.03c-0.03,0.57-0.03,1.08,0.02,1.61
	c0.04,0.4,0.19,0.84,0.28,1.26c0.18,0.52,0.44,1.01,0.7,1.49c0.28,0.43,0.61,0.75,0.99,1.09c1.02,0.84,2.44,1.33,3.51,0.72
	c2.99-1.6,6.57-0.73,7.51,2.65c0.24,0.86,0.34,1.61,0.34,2.44c-0.03,0.57-0.11,1.11-0.21,1.71c-0.15,0.71-0.39,1.33-0.7,1.97
	c-0.9,1.83-2.19,3.32-3.98,4.49c-2.01,1.21-4.03,1.97-6.3,2.18c-0.88,0.11-1.71,0.11-2.58,0.03c-1.41-0.16-2.78-0.44-4.11-0.82
	c-2.16-0.71-4.2-1.75-6-3.22c-1-0.9-2.02-1.74-2.93-2.74 M23.23,45.22c8.56-2.6,15.74-12.35,11.85-21.26
	c-0.42-0.9-0.9-1.68-1.5-2.45c-0.54-0.66-1.14-1.14-1.79-1.68c-0.54-0.36-1.08-0.66-1.68-0.9c-0.66-0.24-1.38-0.42-2.09-0.48
	c-0.6-0.06-1.14,0.06-1.68,0.12c-0.54,0.12-1.08,0.36-1.56,0.66c-0.84,0.54-1.56,1.32-1.62,2.27c-0.24,2.51-0.54,5.44-3.47,6.16
	c-1.68,0.42-3.35,0.12-4.85-0.72c-0.78-0.42-1.44-0.96-2.03-1.56c-0.3-0.36-0.6-0.72-0.9-1.08c-1.73-2.39-2.33-5.2-2.15-8.02
	c0.18-2.51,1.02-4.85,2.39-7.06c1.32-2.03,2.75-3.53,4.61-5.03c0.48-0.36,0.96-0.66,1.44-0.96c1.44-0.78,2.75-1.5,4.27-2.04
	 M38.54,38.78c0,0,0.61-1.33,1.45-3.95c2.21-7.1-0.06-16.25-7.3-19.54c-1.56-0.66-3.23-1.02-4.97-0.9
	c-0.66,0.06-1.32,0.24-1.97,0.42c-0.36,0.12-0.72,0.3-1.08,0.42c-0.42,0.24-0.78,0.42-1.14,0.72c-0.3,0.24-0.54,0.48-0.78,0.72
	c-0.18,0.3-0.42,0.54-0.6,0.84c-0.36,0.54-0.48,1.08-0.66,1.68c-0.12,0.42-0.06,0.9-0.06,1.32c0.06,0.54,0.18,1.08,0.54,1.44
	c1.97,1.97,3.53,4.67,1.56,7.24c-0.96,1.26-2.21,2.09-3.71,2.51c-3.35,0.9-6.76-0.12-9.39-2.33c-1.5-1.26-2.63-2.69-3.53-4.43
	c-0.36-0.6-0.6-1.26-0.84-1.91c-0.72-2.27-1.08-4.61-0.96-7c0.06-0.78,0.12-1.56,0.24-2.33c0.36-2.09,1.14-3.95,1.93-5.87
	 M44.98,23.22c0,0-0.48-1.15-1.68-3.62c-3.26-6.7-11.33-11.67-18.81-8.98c-1.38,0.54-2.57,1.26-3.65,2.27
	c-1.14,1.08-1.91,2.39-2.33,3.89c-0.06,0.3-0.12,0.66-0.18,0.96c-0.12,1.14,0.12,2.27,0.6,3.29c0.3,0.48,0.6,0.9,1.08,1.26
	c0.6,0.42,1.26,0.78,1.97,0.84c0.72,0.06,1.38-0.06,2.09,0.06c3.11,0.6,4.19,4.13,3.23,6.82c-0.24,0.6-0.48,1.14-0.78,1.68
	c-0.42,0.6-0.78,1.14-1.32,1.68c-0.54,0.48-1.02,0.9-1.62,1.32c-0.66,0.42-1.26,0.72-1.97,1.02c-2.03,0.78-4.19,1.02-6.34,0.72
	c-2.03-0.3-3.83-0.9-5.56-1.97c-0.9-0.6-1.67-1.14-2.51-1.79c-0.6-0.48-1.08-0.96-1.62-1.5c-0.42-0.48-0.78-0.96-1.2-1.44
	c-0.66-0.84-1.2-1.68-1.68-2.65c-1.24-2.46-1.73-3.83-1.73-3.83 M38.53,7.66c-7.64-4.34-19.37-3.02-23.31,5.71
	c-0.96,2.09-1.2,4.43-0.6,6.7c0.18,0.54,0.36,1.02,0.6,1.5c0.18,0.36,0.48,0.72,0.72,1.08c0.36,0.42,0.78,0.78,1.2,1.14
	c0.42,0.3,0.84,0.48,1.32,0.66c1.26,0.42,2.75,0.36,3.53-0.6c2.21-2.57,5.86-3.05,7.96-0.24c0.54,0.72,0.9,1.38,1.2,2.15
	c0.18,0.54,0.3,1.08,0.42,1.67c0.12,0.72,0.12,1.38,0.06,2.09c-0.18,2.03-0.84,3.89-2.09,5.62c-1.44,1.85-3.05,3.29-5.09,4.31
	c-0.78,0.42-1.56,0.72-2.39,0.96c-1.38,0.36-2.75,0.6-4.13,0.72c-2.27,0.12-4.55-0.12-6.76-0.84c-1.26-0.48-2.51-0.9-3.72-1.5"/>
<path class="st1" d="M14.12,23.22c0-4.89,3.97-8.86,8.86-8.86c4.89,0,8.86,3.97,8.86,8.86c0,4.89-3.97,8.86-8.86,8.86
	C18.08,32.08,14.12,28.11,14.12,23.22"/>
<path class="st1" d="M34.7,23.22c0,6.47-5.25,11.72-11.72,11.72s-11.72-5.25-11.72-11.72c0-6.47,5.25-11.72,11.72-11.72
	S34.7,16.75,34.7,23.22"/>
<path class="st2" d="M14.67,18.62c0.41,0,0.66-0.13,0.66-0.55c0-0.42-0.28-0.55-0.66-0.55h-0.78v1.1H14.67z M14.41,18.82h-0.52v1.12
	h-0.22v-2.65h1c0.5,0,0.88,0.22,0.89,0.77c0,0.55-0.41,0.76-0.88,0.76h-0.01l0.89,1.12h-0.27L14.41,18.82z"/>
<polygon class="st2" points="18.49,18.51 19.82,18.51 19.82,18.73 18.49,18.73 18.49,19.72 19.93,19.72 19.93,19.94 18.27,19.94 
	18.27,17.29 19.93,17.29 19.93,17.51 18.49,17.51 "/>
<rect x="22.65" y="17.29" class="st2" width="0.22" height="2.65"/>
<polygon class="st2" points="25.82,17.6 25.82,19.94 25.6,19.94 25.6,17.29 25.92,17.29 26.81,19.3 27.69,17.29 28.01,17.29 
	28.01,19.94 27.79,19.94 27.79,17.6 26.91,19.58 26.7,19.58 "/>
<path class="st2" d="M31.15,18.46c0.46,0.09,0.96,0.19,0.93,0.82c-0.02,0.46-0.48,0.7-0.95,0.7c-0.4,0-0.8-0.17-0.95-0.51l0.2-0.09
	c0.11,0.25,0.44,0.38,0.76,0.38c0.35,0,0.69-0.16,0.72-0.48c0.03-0.44-0.36-0.53-0.76-0.61c-0.44-0.09-0.89-0.19-0.88-0.73
	c0.01-0.45,0.46-0.67,0.92-0.67c0.39,0,0.79,0.16,0.94,0.5l-0.2,0.09c-0.11-0.25-0.43-0.37-0.74-0.37c-0.34,0-0.68,0.15-0.7,0.46
	C30.4,18.31,30.76,18.39,31.15,18.46"/>
<path class="st3" d="M15.06,22.56c-0.09-0.2-0.3-0.29-0.5-0.29c-0.24,0-0.47,0.13-0.47,0.37v0.97c0,0.24,0.24,0.35,0.49,0.35
	c0.25,0,0.5-0.12,0.5-0.35v-0.13h-0.6v-0.54h1.14v0.66c0,0.59-0.52,0.88-1.03,0.89c-0.52,0-1.04-0.29-1.04-0.89v-0.97
	c0-0.58,0.52-0.87,1.03-0.87c0.36,0,0.73,0.15,0.93,0.56L15.06,22.56z"/>
<path class="st3" d="M18.71,22.98c0.24,0,0.4-0.1,0.4-0.33c0-0.22-0.16-0.3-0.4-0.3h-0.49v0.63H18.71z M18.42,23.48h-0.19v0.97
	h-0.55V21.8h1.04c0.53,0,0.93,0.24,0.95,0.85c0,0.49-0.22,0.72-0.6,0.8l0.79,1.01h-0.68L18.42,23.48z"/>
<path class="st3" d="M27.44,23.72c-0.03-0.17-0.07-0.51-0.08-0.56V21.8h0.55v2.65h-0.59l-0.81-1.39l-0.16-0.36l-0.04,0.01l0.07,0.45
	v1.29h-0.55V21.8h0.54l0.84,1.45l0.19,0.48L27.44,23.72z"/>
<path class="st3" d="M31.07,23.9c0.24,0,0.46-0.08,0.46-0.29v-0.94c0-0.22-0.22-0.31-0.46-0.31h-0.42v1.54H31.07z M31.07,21.8
	c0.52,0,1.01,0.26,1.01,0.86v0.94c0,0.6-0.49,0.85-1.01,0.85h-0.97V21.8H31.07z"/>
<path class="st3" d="M15.52,28.22c-0.23,0.37-0.59,0.55-0.94,0.55c-0.51,0-1.04-0.3-1.04-0.88v-0.97c0-0.58,0.52-0.88,1.04-0.88
	c0.35,0,0.74,0.18,0.92,0.57l-0.44,0.24c-0.11-0.2-0.32-0.29-0.52-0.28c-0.24,0-0.45,0.13-0.45,0.36v0.97
	c0,0.22,0.21,0.34,0.44,0.35c0.2,0,0.42-0.09,0.52-0.29L15.52,28.22z"/>
<polygon class="st3" points="17.39,27.14 18.53,27.14 18.53,27.67 17.39,27.67 17.39,28.2 18.63,28.2 18.63,28.73 16.83,28.73 
	16.83,26.08 18.63,26.08 18.63,26.62 17.39,26.62 "/>
<path class="st3" d="M21.67,28c-0.03-0.17-0.07-0.51-0.08-0.56v-1.36h0.55v2.65h-0.59l-0.81-1.39l-0.16-0.36l-0.04,0.01l0.07,0.45
	v1.29h-0.55v-2.65h0.54l0.84,1.45l0.19,0.48L21.67,28z"/>
<polygon class="st3" points="24.79,26.63 24.79,28.73 24.23,28.73 24.23,26.63 23.47,26.63 23.47,26.08 25.55,26.08 25.55,26.63 "/>
<path class="st3" d="M27.93,27.26c0.24,0,0.4-0.1,0.4-0.33c0-0.22-0.16-0.3-0.4-0.3h-0.49v0.63H27.93z M27.63,27.76h-0.19v0.97
	h-0.55v-2.65h1.04c0.53,0,0.93,0.24,0.95,0.85c0,0.49-0.22,0.72-0.6,0.8l0.79,1.01h-0.68L27.63,27.76z"/>
<polygon class="st3" points="30.85,27.14 31.99,27.14 31.99,27.67 30.85,27.67 30.85,28.2 32.09,28.2 32.09,28.73 30.29,28.73 
	30.29,26.08 32.09,26.08 32.09,26.62 30.85,26.62 "/>
<polygon class="st3" points="22.76,21.64 21.2,24.34 21.83,24.34 22.76,22.74 23.69,24.34 24.32,24.34 "/>
<path class="st3" d="M22.61,23.75c-0.08,0.08-0.08,0.22,0,0.31c0.08,0.08,0.22,0.08,0.31,0c0.08-0.08,0.08-0.22,0-0.31
	C22.83,23.66,22.69,23.66,22.61,23.75"/>
</svg>
