<?xml version="1.0" encoding="utf-8"?>
<!-- Generator: Adobe Illustrator 25.2.2, SVG Export Plug-In . SVG Version: 6.00 Build 0)  -->
<svg version="1.1" xmlns="http://www.w3.org/2000/svg" xmlns:xlink="http://www.w3.org/1999/xlink" x="0px" y="0px"
	 viewBox="0 0 46 46" style="enable-background:new 0 0 46 46;" xml:space="preserve">
<style type="text/css">
	.st0{fill:none;stroke:#42C1C7;stroke-width:0.75;stroke-miterlimit:10;}
	.st1{fill:#FFFFFF;}
	.st2{fill:#101418;}
	.st3{fill:#42C1C7;}
</style>
<g id="UCPA">
	<path class="st0" d="M22.42,23.5c0,0.87,0.71,1.58,1.58,1.58c0.87,0,1.58-0.71,1.58-1.58 M19.27,23.5c0,2.61,2.12,4.73,4.73,4.73
		c2.61,0,4.73-2.12,4.73-4.73 M16.12,23.5c0,4.36,3.53,7.88,7.88,7.88c4.36,0,7.88-3.53,7.88-7.88 M12.96,23.5
		c0,6.1,4.94,11.04,11.04,11.04c6.1,0,11.04-4.94,11.04-11.04 M9.81,23.5c0,7.84,6.35,14.19,14.19,14.19
		c7.84,0,14.19-6.35,14.19-14.19 M6.66,23.5c0,9.59,7.76,17.35,17.35,17.35s17.35-7.76,17.35-17.35 M3.5,23.5
		C3.5,34.83,12.67,44,24,44c11.33,0,20.5-9.17,20.5-20.5 M27.15,23.5c0,1.74-1.41,3.15-3.15,3.15c-1.74,0-3.15-1.41-3.15-3.15
		 M30.31,23.5c0,3.49-2.82,6.31-6.31,6.31c-3.49,0-6.31-2.82-6.31-6.31 M33.46,23.5c0,5.23-4.23,9.46-9.46,9.46
		c-5.23,0-9.46-4.23-9.46-9.46 M36.62,23.5c0,6.97-5.64,12.62-12.61,12.62c-6.97,0-12.62-5.64-12.62-12.62 M39.77,23.5
		c0,8.72-7.05,15.77-15.77,15.77c-8.72,0-15.77-7.05-15.77-15.77 M42.92,23.5c0,10.46-8.46,18.92-18.92,18.92
		c-10.46,0-18.92-8.46-18.92-18.92 M19.27,23.5c0-1.74,1.41-3.15,3.15-3.15c1.74,0,3.15,1.41,3.15,3.15 M16.12,23.5
		c0-3.49,2.82-6.31,6.31-6.31c3.49,0,6.31,2.82,6.31,6.31 M12.96,23.5c0-5.23,4.23-9.46,9.46-9.46c5.23,0,9.46,4.23,9.46,9.46
		 M9.81,23.5c0-6.97,5.64-12.62,12.61-12.62s12.61,5.64,12.61,12.62 M6.65,23.5c0-8.72,7.05-15.77,15.77-15.77
		c8.72,0,15.77,7.05,15.77,15.77 M3.5,23.5c0-10.46,8.46-18.92,18.92-18.92c10.46,0,18.92,8.46,18.92,18.92 M24,23.5
		c0-0.87-0.71-1.58-1.58-1.58c-0.87,0-1.58,0.71-1.58,1.58 M27.15,23.5c0-2.61-2.12-4.73-4.73-4.73s-4.73,2.12-4.73,4.73
		 M30.31,23.5c0-4.36-3.53-7.88-7.88-7.88c-4.36,0-7.88,3.53-7.88,7.88 M33.46,23.5c0-6.1-4.94-11.04-11.04-11.04
		S11.39,17.4,11.39,23.5 M36.61,23.5c0-7.84-6.35-14.19-14.19-14.19c-7.84,0-14.19,6.35-14.19,14.19 M39.77,23.5
		c0-9.59-7.76-17.35-17.35-17.35S5.08,13.91,5.08,23.5 M42.92,23.5c0-11.33-9.17-20.5-20.5-20.5c-11.33,0-20.5,9.17-20.5,20.5"/>
	<path class="st1" d="M34.54,23.5c0,6.26-5.07,11.33-11.33,11.33c-6.26,0-11.33-5.07-11.33-11.33c0-6.26,5.07-11.33,11.33-11.33
		C29.47,12.17,34.54,17.24,34.54,23.5"/>
	<path class="st2" d="M15.18,19.05c0.39,0,0.64-0.13,0.64-0.54c0-0.4-0.27-0.53-0.64-0.53h-0.76v1.07H15.18z M14.93,19.25h-0.5v1.09
		h-0.21v-2.56h0.97c0.48,0,0.85,0.21,0.86,0.75c0,0.53-0.39,0.73-0.85,0.73h-0.01l0.86,1.09h-0.26L14.93,19.25z"/>
	<polygon class="st2" points="18.87,18.94 20.16,18.94 20.16,19.16 18.87,19.16 18.87,20.12 20.27,20.12 20.27,20.33 18.66,20.33 
		18.66,17.77 20.27,17.77 20.27,17.98 18.87,17.98 	"/>
	<rect x="22.93" y="17.77" class="st2" width="0.21" height="2.56"/>
	<polygon class="st2" points="25.87,18.07 25.87,20.33 25.65,20.33 25.65,17.77 25.96,17.77 26.82,19.71 27.68,17.77 27.99,17.77 
		27.99,20.33 27.77,20.33 27.77,18.07 26.92,19.98 26.72,19.98 	"/>
	<path class="st2" d="M31.11,18.9c0.44,0.09,0.93,0.18,0.9,0.8c-0.02,0.45-0.46,0.67-0.92,0.67c-0.38,0-0.78-0.17-0.92-0.5l0.2-0.09
		c0.11,0.25,0.42,0.37,0.73,0.37c0.34,0,0.67-0.15,0.69-0.47c0.03-0.43-0.34-0.51-0.74-0.59c-0.42-0.09-0.86-0.18-0.85-0.71
		c0.01-0.43,0.45-0.65,0.89-0.65c0.38,0,0.76,0.16,0.9,0.48l-0.19,0.09c-0.1-0.24-0.42-0.36-0.71-0.36c-0.33,0-0.65,0.14-0.68,0.44
		C30.39,18.75,30.74,18.83,31.11,18.9"/>
	<path class="st3" d="M15.55,22.86c-0.08-0.2-0.29-0.28-0.48-0.28c-0.23,0-0.46,0.13-0.46,0.35v0.93c0,0.23,0.24,0.34,0.47,0.34
		c0.24,0,0.48-0.11,0.48-0.34v-0.12h-0.58v-0.52h1.1v0.64c0,0.57-0.5,0.85-1,0.86c-0.5,0-1.01-0.28-1.01-0.86v-0.93
		c0-0.56,0.5-0.84,1-0.84c0.35,0,0.71,0.14,0.9,0.54L15.55,22.86z"/>
	<path class="st3" d="M19.09,23.27c0.24,0,0.38-0.09,0.38-0.32c0-0.22-0.16-0.29-0.38-0.29h-0.47v0.6H19.09z M18.8,23.75h-0.19v0.94
		h-0.54v-2.56h1.01c0.51,0,0.9,0.24,0.92,0.82c0,0.47-0.21,0.7-0.58,0.77l0.76,0.97h-0.65L18.8,23.75z"/>
	<path class="st3" d="M27.53,23.98c-0.03-0.17-0.07-0.49-0.08-0.54v-1.31h0.53v2.56h-0.57l-0.78-1.35L26.48,23L26.44,23l0.07,0.44
		v1.25h-0.54v-2.56h0.52l0.81,1.4l0.18,0.46L27.53,23.98z"/>
	<path class="st3" d="M31.03,24.16c0.23,0,0.44-0.08,0.44-0.28v-0.91c0-0.21-0.21-0.3-0.44-0.3h-0.41v1.49H31.03z M31.03,22.13
		c0.51,0,0.98,0.25,0.98,0.83v0.91c0,0.58-0.47,0.82-0.98,0.82h-0.94v-2.56H31.03z"/>
	<path class="st3" d="M16,28.33c-0.22,0.36-0.57,0.54-0.91,0.54c-0.5,0-1.01-0.29-1.01-0.85v-0.93c0-0.56,0.5-0.85,1.01-0.85
		c0.34,0,0.72,0.17,0.89,0.55l-0.43,0.23c-0.1-0.19-0.31-0.28-0.5-0.27c-0.23,0-0.44,0.13-0.44,0.34v0.93c0,0.21,0.2,0.33,0.43,0.34
		c0.19,0,0.4-0.08,0.5-0.28L16,28.33z"/>
	<polygon class="st3" points="17.81,27.29 18.91,27.29 18.91,27.8 17.81,27.8 17.81,28.31 19.01,28.31 19.01,28.83 17.27,28.83 
		17.27,26.26 19.01,26.26 19.01,26.78 17.81,26.78 	"/>
	<path class="st3" d="M21.95,28.12c-0.03-0.17-0.07-0.49-0.08-0.54v-1.31h0.53v2.56h-0.57l-0.78-1.35l-0.16-0.35l-0.04,0.01
		l0.07,0.44v1.25H20.4v-2.56h0.52l0.81,1.4l0.18,0.46L21.95,28.12z"/>
	<polygon class="st3" points="24.96,26.8 24.96,28.83 24.43,28.83 24.43,26.8 23.69,26.8 23.69,26.26 25.7,26.26 25.7,26.8 	"/>
	<path class="st3" d="M28,27.41c0.24,0,0.38-0.09,0.38-0.32c0-0.22-0.16-0.29-0.38-0.29h-0.47v0.6H28z M27.71,27.89h-0.19v0.94
		h-0.54v-2.56H28c0.51,0,0.9,0.24,0.92,0.82c0,0.47-0.21,0.7-0.58,0.77l0.76,0.97h-0.65L27.71,27.89z"/>
	<polygon class="st3" points="30.82,27.29 31.92,27.29 31.92,27.8 30.82,27.8 30.82,28.31 32.02,28.31 32.02,28.83 30.29,28.83 
		30.29,26.26 32.02,26.26 32.02,26.78 30.82,26.78 	"/>
	<polygon class="st3" points="23,21.97 21.5,24.58 22.11,24.58 23,23.03 23.9,24.58 24.51,24.58 	"/>
	<path class="st3" d="M22.86,24.01c-0.08,0.08-0.08,0.21,0,0.3c0.08,0.08,0.21,0.08,0.3,0c0.08-0.08,0.08-0.21,0-0.3
		C23.07,23.93,22.94,23.93,22.86,24.01"/>
</g>
<g id="PROMENADES">
</g>
<g id="ARENA_1_">
</g>
<g id="LOGEMENTS">
</g>
<g id="LOGOTYPE">
</g>
</svg>
