<?xml version="1.0" encoding="UTF-8"?>
<svg xmlns="http://www.w3.org/2000/svg" id="constellation-02" viewBox="0 0 100 100">
  <defs>
    <style>
      .cls-1 {
        fill: #987018;
      }

      .cls-2 {
        fill: #707070;
      }
    </style>
  </defs>
  <path class="cls-2" d="m80.48,60.57c-.51-.21-1.09.03-1.31.54l-4.81,11.53c-2.21-.39-4.32,1.09-4.71,3.3-.39,2.21,1.09,4.32,3.3,4.71,2.21.39,4.32-1.09,4.71-3.3.26-1.47-.31-2.97-1.48-3.89l4.83-11.58c.21-.51-.02-1.09-.53-1.31Zm-6.82,18.13c-1.14,0-2.07-.92-2.07-2.07s.92-2.07,2.07-2.07,2.07.92,2.07,2.07h0c0,1.14-.93,2.06-2.07,2.07Z"></path>
  <path class="cls-2" d="m69.18,49.98c.19-.52-.08-1.09-.6-1.28,0,0,0,0,0,0l-.24-.09c-.52-.19-1.09.08-1.28.6-.19.52.08,1.09.6,1.28l.24.09c.11.04.22.06.34.06.42,0,.79-.26.94-.66Z"></path>
  <path class="cls-2" d="m59.5,46.44c-.19.52.08,1.09.59,1.28,0,0,0,0,0,0l3.71,1.36c.52.19,1.09-.08,1.28-.6,0,0,0,0,0,0,.19-.52-.07-1.09-.59-1.28,0,0,0,0,0,0l-3.71-1.35c-.52-.19-1.09.07-1.28.59Z"></path>
  <path class="cls-2" d="m46.04,36.01c-.4.37-.43,1.01-.05,1.41,0,0,0,0,0,0l4.49,4.83c-1.06,1.62-.72,3.77.79,4.99l-1.87,7.09c-.14.53.18,1.08.71,1.22,0,0,0,0,0,0,.08.02.17.03.25.03.45,0,.85-.31.97-.75l1.79-6.8c.17.02.34.04.51.04,2.08.05,3.8-1.6,3.85-3.68s-1.6-3.8-3.68-3.85c-.05,0-.11,0-.16,0-.57,0-1.14.13-1.65.39l-4.53-4.86c-.37-.4-1.01-.43-1.41-.05,0,0,0,0,0,0Zm9.35,8.29c0,.97-.79,1.77-1.76,1.77-.27,0-.53-.06-.77-.18h0c-.88-.43-1.24-1.49-.81-2.36.43-.88,1.49-1.24,2.36-.81.61.3.99.91.99,1.59h0Z"></path>
  <path class="cls-2" d="m36.41,25.12c-.41.37-.45,1-.09,1.41l2.92,3.3c-.98,1.6-.47,3.69,1.13,4.67,1.6.98,3.69.47,4.67-1.13.98-1.6.47-3.69-1.13-4.67-.96-.59-2.15-.66-3.17-.19l-2.92-3.3c-.37-.41-1-.45-1.41-.09Zm7.11,6.47c0,.77-.61,1.39-1.38,1.39s-1.39-.61-1.39-1.38c0-.4.17-.78.47-1.04h0c.25-.22.58-.35.91-.35.76,0,1.38.61,1.39,1.37h0Z"></path>
  <path class="cls-2" d="m18.97,15.15c.74,0,1.41.43,1.73,1.1.24.49.84.7,1.34.45.48-.24.68-.8.47-1.29-.91-1.95-3.23-2.8-5.18-1.89-1.95.91-2.8,3.23-1.89,5.18.64,1.37,2.02,2.25,3.53,2.26.8,0,1.57-.24,2.23-.7.46-.3.59-.92.28-1.38s-.92-.59-1.38-.28c-.01,0-.03.02-.04.03-.32.22-.7.34-1.08.34-1.05-.03-1.88-.91-1.84-1.96.03-1.01.84-1.81,1.84-1.84h0Z"></path>
  <path class="cls-2" d="m36.14,20.95c0-1.87-1.51-3.38-3.37-3.38-1.2,0-2.32.64-2.92,1.67l-4-1.19c-.52-.18-1.09.1-1.27.63-.18.52.1,1.09.63,1.27.02,0,.05.02.07.02l4.11,1.22c.12,1.86,1.73,3.27,3.59,3.15,1.78-.12,3.17-1.6,3.16-3.39Zm-3.38,1.39c-.76,0-1.39-.62-1.39-1.39s.62-1.39,1.39-1.39,1.39.62,1.39,1.39h0c0,.76-.62,1.38-1.39,1.39Z"></path>
  <path class="cls-2" d="m51.47,64.39l15.13,9.45c.48.27,1.09.11,1.36-.37.26-.45.12-1.03-.31-1.32l-15.01-9.37c.5-1.27.3-2.71-.54-3.79-.35-.43-.98-.49-1.41-.14-.41.33-.49.93-.18,1.36.26.33.39.74.39,1.16,0,1.05-.85,1.9-1.9,1.9-1.05,0-1.9-.85-1.9-1.9,0-.74.43-1.41,1.09-1.72.5-.24.71-.83.48-1.33-.24-.5-.83-.71-1.33-.48-1.95.92-2.78,3.24-1.86,5.19.64,1.36,2.02,2.23,3.52,2.23.89,0,1.76-.3,2.45-.87Z"></path>
  <path class="cls-2" d="m82.82,50.88c-1.34,0-2.58.69-3.29,1.82l-6.77-2.47c-.52-.19-1.09.08-1.28.6-.19.52.08,1.09.6,1.28l6.85,2.5c0,.06,0,.12,0,.18,0,.71.19,1.4.56,2.01.28.47.9.62,1.37.34s.62-.9.34-1.37h0c-.54-.9-.25-2.07.65-2.61.9-.54,2.07-.25,2.61.65.54.9.25,2.07-.65,2.61-.06.04-.13.07-.19.1-.5.23-.72.82-.5,1.32.16.36.52.59.91.59.14,0,.28-.03.41-.09,1.96-.89,2.83-3.2,1.94-5.16-.63-1.39-2.02-2.29-3.55-2.29h0Z"></path>
  <path class="cls-1" d="m12.96,38.67c.91.48,1.71,1.14,2.35,1.95.34.43.97.51,1.4.16.43-.34.51-.97.16-1.4-.01-.01-.02-.03-.03-.04-.44-.53-.93-1.02-1.46-1.45,1.42-.95,2.54-2.29,3.23-3.86.67,1.34,1.68,2.86,3.15,3.89-1.42,1.26-3.57,3.7-3.97,7.15-.06.54.33,1.03.87,1.1.04,0,.08,0,.12,0,.51,0,.93-.38.99-.88.48-4.14,4.29-6.65,4.32-6.67.46-.3.6-.91.3-1.38-.11-.17-.27-.31-.46-.39-3.28-1.34-4.47-6.17-4.47-6.22-.12-.54-.65-.88-1.19-.76-.41.09-.72.43-.77.84-.7,4.88-4.23,6.07-4.37,6.12-.53.16-.82.72-.66,1.25.08.26.26.47.5.59h0Z"></path>
  <path class="cls-1" d="m88.43,17.65c.46-.3.6-.92.3-1.38-.11-.17-.27-.31-.46-.39-3.28-1.33-4.47-6.17-4.47-6.22-.12-.54-.65-.88-1.19-.76-.41.09-.72.43-.77.84-.71,4.87-4.23,6.06-4.38,6.11-.53.16-.82.72-.66,1.25.08.26.26.47.5.59.82.43,1.55,1.01,2.16,1.72.35.43.98.49,1.41.14s.49-.98.14-1.41c-.02-.02-.03-.04-.05-.06-.38-.43-.79-.82-1.23-1.18,1.42-.95,2.54-2.29,3.23-3.86.67,1.34,1.68,2.86,3.15,3.89-1.42,1.26-3.57,3.7-3.97,7.15-.06.55.33,1.04.87,1.11,0,0,0,0,0,0h.12c.51,0,.93-.38.99-.88.48-4.14,4.28-6.65,4.32-6.68Z"></path>
  <path class="cls-1" d="m40.05,87.77c-.06.55.33,1.04.88,1.11.04,0,.08,0,.12,0,.51,0,.93-.38.99-.88.48-4.14,4.29-6.65,4.32-6.67.46-.3.6-.91.3-1.38-.11-.17-.27-.31-.46-.39-3.28-1.34-4.47-6.17-4.47-6.22-.12-.54-.65-.88-1.19-.76-.41.09-.72.43-.77.84-.7,4.87-4.23,6.06-4.38,6.11-.53.16-.82.72-.66,1.25.08.26.26.47.5.59.96.52,1.81,1.23,2.47,2.09.35.43.97.5,1.4.15.43-.35.5-.97.15-1.4h0c-.48-.6-1.02-1.15-1.61-1.63,1.42-.95,2.54-2.29,3.23-3.85.67,1.34,1.68,2.85,3.15,3.89-1.41,1.27-3.57,3.71-3.97,7.15Z"></path>
  <path class="cls-1" d="m57.41,22.4c-.53-.16-1.09.13-1.25.66-.15.49.09,1.02.57,1.22l.12.04c.51.21,1.09-.03,1.31-.53s-.03-1.09-.53-1.31c-.03-.01-.06-.02-.09-.03l-.12-.04Z"></path>
  <path class="cls-1" d="m32.32,53.64l-.12-.04c-.51-.21-1.09.03-1.3.54s.03,1.09.54,1.3c.03.01.05.02.08.03l.12.04c.53.17,1.09-.12,1.26-.65.16-.5-.09-1.03-.57-1.23Z"></path>
  <path class="cls-1" d="m85.5,77.25c-.52-.17-1.09.11-1.26.63-.17.5.09,1.04.57,1.24l.12.04c.11.04.23.06.34.06.55,0,1-.45.99-1,0-.42-.26-.79-.65-.93l-.12-.04Z"></path>
</svg>
