<?xml version="1.0" encoding="UTF-8"?>
<svg xmlns="http://www.w3.org/2000/svg" id="constellation-01" viewBox="0 0 100 100">
  <defs>
    <style>
      .cls-1 {
        fill: #987018;
      }

      .cls-2 {
        fill: #707070;
      }
    </style>
  </defs>
  <g>
    <path class="cls-2" d="m44.5,51.5H15.78c-2,0-3.63,1.63-3.63,3.63v28.72c0,2,1.63,3.63,3.63,3.63h28.72c2,0,3.63-1.63,3.63-3.63v-28.72c0-2-1.63-3.63-3.63-3.63Zm0,34.65H15.78c-1.27,0-2.3-1.03-2.3-2.3v-28.72c0-1.27,1.03-2.3,2.3-2.3h28.72c1.27,0,2.3,1.03,2.3,2.3v27.82h-11.35c-.37,0-.66.3-.66.66s.3.66.66.66h11.31c-.2,1.06-1.14,1.87-2.26,1.87Z"></path>
    <path class="cls-1" d="m32.15,82.95h-4.82c-.37,0-.66.3-.66.66s.3.66.66.66h4.82c.37,0,.66-.3.66-.66s-.3-.66-.66-.66Z"></path>
  </g>
  <g>
    <path class="cls-1" d="m29.91,76.59c4.37,0,7.9-3.54,7.9-7.91,0-.16,0-.33-.02-.49,2.83-1.86,5.04-3.91,4.37-5.37-.45-.99-1.96-1.24-4.6-.75-.31.06-.52.36-.46.67s.36.52.67.46c2.5-.46,3.26-.08,3.35.1.09.21-.17,1.11-2.46,2.87-.48.37-1.01.74-1.58,1.12-.15.03-.27.11-.36.23-1.95,1.24-3.99,2.33-6.1,3.28-3.18,1.45-6.29,2.53-8.76,3.04-2.83.58-3.69.19-3.78-.02s.16-1.1,2.41-2.83c.24-.2.28-.57.08-.81-.19-.23-.53-.28-.78-.1-2.3,1.77-3.22,3.19-2.76,4.22.3.66,1.1.99,2.38.99.9-.02,1.8-.13,2.68-.32.74-.15,1.53-.35,2.36-.6,1.46,1.42,3.42,2.21,5.46,2.21Zm1.19-4.74c1.91-.88,3.76-1.86,5.56-2.94-.12,3.72-3.23,6.64-6.95,6.52-1.45-.05-2.84-.56-3.97-1.46,1.83-.61,3.62-1.32,5.37-2.13h0Z"></path>
    <path class="cls-1" d="m26.89,62.68c2.77-1.41,6.15-.72,8.16,1.65.21.23.58.25.81.04.22-.2.25-.55.06-.78-2.83-3.32-7.81-3.71-11.12-.89-2.33,1.99-3.3,5.14-2.49,8.1.07.25.3.42.56.41.05,0,.1,0,.15-.02.31-.08.49-.4.4-.71,0,0,0,0,0,0-.84-3.09.61-6.35,3.47-7.8Z"></path>
  </g>
  <g>
    <path class="cls-2" d="m60.38,77.62c.1.02.21-.02.28-.1l3.99-5.02c.1-.12.08-.3-.04-.39-.12-.1-.3-.08-.39.04h0l-3.99,5.02c-.1.12-.08.3.04.39.03.03.07.04.11.05h0Z"></path>
    <path class="cls-2" d="m70.52,79.94c.15.04.3-.06.34-.21.01-.04,0-.09,0-.13l-2.88-11.14h.05c.55-.09.98-.52,1.06-1.06l.07-.45,5.22-.6.04.29c.02.11.1.2.21.23.03,0,.06,0,.08,0l3.38-.26c.15-.02.27-.15.25-.3-.01-.15-.14-.26-.29-.25l-3.12.24-.64-4.08,3.92-.93.12.81c.02.11.1.2.21.23.03,0,.07,0,.11,0,.15-.02.26-.17.23-.32l-.36-2.31.9-.14.05.34c.02.15.17.26.32.23.15-.02.26-.17.23-.32l-.1-.61c-.02-.15-.16-.25-.31-.23l-1.45.23c-.15.02-.26.17-.23.32l.19,1.23-4.21,1c-.14.03-.23.17-.21.31l.59,3.75-6.53.75c-.15.02-.26.17-.23.32.02.14.15.25.3.23l.76-.09-.05.3c-.05.31-.29.55-.6.59l-1.66.26c-.11.02-.22.01-.33,0h-.02c-.2-.05-.39-.16-.52-.32-.1-.12-.27-.14-.39-.04-.12.1-.14.27-.04.39h0c.12.15.27.27.44.36l-6.57,8.31c-.1.12-.08.29.04.39.12.1.29.08.39-.04,0,0,0,0,0,0l6.7-8.47c.13.01.25.01.38,0l.9-.14-2.25,9.82c-.03.15.06.3.21.33.15.03.3-.06.33-.21l2.09-9.11,2.67,10.34c.03.1.11.18.21.2Z"></path>
    <path class="cls-2" d="m67.52,72.99c-.15.04-.24.19-.2.34,0,0,0,0,0,0l1.61,6.1c.04.15.19.24.34.21.15-.04.24-.19.21-.34,0,0,0,0,0-.01l-1.61-6.1c-.04-.15-.19-.24-.34-.2Z"></path>
    <path class="cls-2" d="m64.25,78.22l1.91-8.33c.03-.15-.07-.3-.22-.32-.14-.03-.28.06-.32.2l-1.91,8.33c-.03.15.07.3.22.32.14.03.28-.06.32-.2Z"></path>
    <path class="cls-1" d="m66.4,67.25s.06,0,.09,0h.09c.15-.03.26-.18.23-.33-.02-.14-.15-.25-.3-.23h-.09c-.15.03-.26.17-.24.32.01.12.1.21.21.24Z"></path>
    <path class="cls-1" d="m78.74,62.92c-.15.02-.26.17-.23.32,0,0,0,0,0,0l.02.11c.02.15.17.26.32.23.15-.02.26-.17.23-.32l-.02-.11c-.02-.15-.17-.26-.32-.23,0,0,0,0,0,0Z"></path>
    <path class="cls-1" d="m79.33,67.96s.07.04.1.05c.03,0,.07,0,.1,0l1.45-.23c.15-.02.26-.17.23-.32,0,0,0,0,0,0l-1.04-6.68c-.02-.15-.17-.26-.32-.23-.15.02-.26.17-.23.32l1,6.41-.9.14-.48-3.05c-.02-.15-.16-.26-.31-.24s-.26.16-.24.31c0,0,0,.01,0,.02l.52,3.32c.01.07.05.14.11.18Z"></path>
    <path class="cls-2" d="m59.48,67.6s.07,0,.1,0l2.67-.42.04.28c.02.11.1.2.21.23.03,0,.06,0,.09,0l2.76-.31c.15-.02.26-.16.24-.31s-.16-.26-.31-.24h0l-2.49.29-.05-.29h0l-.27-1.7,10.42-2.06c.15-.04.24-.19.21-.33-.03-.14-.17-.23-.32-.21l-5.73,1.13-.14-.92c-.02-.15-.16-.26-.31-.24-.15.02-.26.16-.24.31,0,0,0,.01,0,.02l.14.95-.9.18-.24-1.54,2.66-.57c.14-.03.24-.17.22-.32l-.13-.81c-.02-.15-.17-.26-.32-.23-.15.02-.26.17-.23.32l.09.55-3.78.82-.21-1.33,3.72-1.27.03.21c.02.15.17.26.32.23.15-.02.26-.17.23-.32h0l-.08-.54c-.02-.15-.17-.26-.32-.23-.02,0-.03,0-.05.01l-4.25,1.45c-.13.04-.21.17-.19.31l.29,1.86c.02.11.1.2.21.23.04,0,.08,0,.12,0l1.13-.24.24,1.53-2.97.59c-.15.03-.24.17-.22.32l.26,1.69-2.5.39-.54-.79,2.04-.32c.15-.02.26-.17.23-.32,0,0,0,0,0,0l-.39-2.51c-.02-.15-.17-.26-.32-.23l-1.33.21c-.15.02-.26.17-.23.32l.19,1.21c.02.15.15.26.31.25s.26-.15.25-.31c0,0,0-.02,0-.02l-.15-.94.78-.12.31,1.95-2.2.34c-.15.02-.26.17-.23.32,0,.04.02.08.05.11l.89,1.3c.04.06.1.1.17.11Z"></path>
    <path class="cls-2" d="m86.43,54.39l-27.99-6.43c-1.95-.45-3.9.77-4.35,2.72l-6.43,27.99c-.45,1.95.77,3.9,2.72,4.35l27.99,6.43c1.95.45,3.9-.77,4.35-2.72l6.43-27.99c.45-1.95-.77-3.9-2.72-4.35Zm-7.75,33.77l-27.99-6.43c-1.24-.28-2.01-1.52-1.73-2.76l6.43-27.99c.28-1.24,1.52-2.01,2.76-1.73l27.99,6.43c1.24.28,2.01,1.52,1.73,2.76l-6.28,27.34-15.21-3.49c-.36-.08-.71.14-.79.5s.14.71.5.79l15.12,3.47c-.49.86-1.5,1.34-2.51,1.1Z"></path>
  </g>
  <g id="Calque_14" data-name="Calque 14">
    <path class="cls-2" d="m38.93,52.07l28.3-4.89c1.97-.34,3.3-2.22,2.96-4.19l-4.89-28.3c-.34-1.97-2.22-3.3-4.19-2.96l-28.3,4.89c-1.97.34-3.3,2.22-2.96,4.19l4.89,28.3c.34,1.97,2.22,3.3,4.19,2.96Zm-5.9-34.14l28.3-4.89c1.25-.22,2.44.63,2.66,1.88l4.89,28.3c.22,1.25-.63,2.44-1.88,2.66l-28.3,4.89c-1.25.22-2.44-.63-2.66-1.88l-4.6-26.61c.07.01.15.02.22,0l8.61-1.49c.36-.06.6-.41.54-.77s-.41-.6-.77-.54l-8.61,1.49c-.08.01-.15.04-.21.08l-.08-.46c-.22-1.25.63-2.44,1.88-2.66Z"></path>
    <path class="cls-2" d="m51.58,41.15c.3.38.78.56,1.25.48h.06c.49-.11.88-.49,1-.97l.98-4.04,3.9-1.47c.49-.16.83-.6.88-1.11.07-.51-.18-1.01-.62-1.28l-3.53-2.16-.19-4.2c-.04-.73-.66-1.28-1.39-1.25-.28.02-.55.12-.77.3l-3.17,2.7-4.05-1.12c-.48-.13-.99.02-1.32.39-.34.37-.43.9-.24,1.36l1.58,3.85-2.32,3.51c-.4.6-.24,1.42.37,1.82.24.16.53.24.82.22l4.14-.31,2.61,3.29Zm-4.5-7.76c.24-.36.29-.82.13-1.22l-1.54-3.79,3.95,1.09c.42.12.86.02,1.2-.26l3.13-2.67.18,4.13c.03.43.26.82.62,1.06l3.47,2.17-3.83,1.44c-.41.15-.71.49-.81.91l-.99,3.98-2.56-3.2c-.27-.34-.69-.53-1.12-.5l-4.11.29,2.27-3.41Z"></path>
    <path class="cls-1" d="m37.76,45.52c1.71.22,3.2,1.27,3.99,2.81.1.2.33.3.54.26.22-.03.4-.2.43-.42.22-1.71,1.27-3.21,2.81-3.99.2-.1.3-.33.26-.54-.04-.21-.21-.37-.42-.4-1.71-.22-3.2-1.28-3.99-2.81-.1-.2-.33-.31-.55-.26-.22.03-.4.21-.43.43-.23,1.71-1.28,3.2-2.81,3.99-.19.1-.3.31-.27.52.03.22.21.4.43.43Zm3.38-3.62c.75.95,1.77,1.67,2.92,2.05-.96.75-1.67,1.76-2.06,2.92-.75-.96-1.76-1.67-2.91-2.06.95-.75,1.67-1.76,2.05-2.91Z"></path>
    <path class="cls-1" d="m58.61,17.92c-.1-.2-.33-.3-.54-.26-.22.03-.4.2-.43.42-.12.95-.7,1.78-1.56,2.21-.24.12-.35.41-.23.66.07.15.22.25.39.27.95.12,1.78.7,2.21,1.56.1.2.33.3.54.26.22-.03.4-.2.43-.42.12-.95.71-1.78,1.56-2.21.24-.12.35-.41.23-.66-.07-.15-.22-.25-.39-.27-.95-.12-1.78-.71-2.21-1.56Zm.11,3.52c-.36-.38-.79-.69-1.27-.9.38-.36.69-.79.9-1.27.36.38.79.69,1.27.9-.37.36-.67.79-.87,1.27h-.02Z"></path>
  </g>
</svg>
