<?xml version="1.0" encoding="UTF-8"?>
<svg xmlns="http://www.w3.org/2000/svg" viewBox="0 0 100 100">
  <defs>
    <style>
      .cls-1 {
        fill: #987018;
      }

      .cls-2 {
        fill: #707070;
      }
    </style>
  </defs>
  <g id="eclipse">
    <path class="cls-2" d="m81.03,12.55H23.72c-3.84,0-6.96,3.12-6.96,6.96v64.05c0,3.26,2.65,5.9,5.9,5.9h58.36c.44,0,.79-.35.79-.79V13.34c0-.44-.35-.79-.79-.79Zm-62.69,6.96c0-2.97,2.41-5.38,5.38-5.38h1.18v54.67c0,.44.35.79.79.79s.79-.35.79-.79V14.13h53.76v63.53H26.48v-2.56c0-.44-.35-.79-.79-.79s-.79.35-.79.79v2.56h-2.23c-1.71,0-3.25.73-4.32,1.89V19.5Zm61.9,68.38H22.67c-2.38,0-4.32-1.94-4.32-4.32s1.94-4.33,4.32-4.33h57.57v8.65Zm-56.96-6.05c0-.44.35-.79.79-.79h50.41c.44,0,.79.35.79.79s-.35.79-.79.79H24.07c-.44,0-.79-.35-.79-.79Zm0,3.24c0-.44.35-.79.79-.79h50.41c.44,0,.79.35.79.79s-.35.79-.79.79H24.07c-.44,0-.79-.35-.79-.79Z"></path>
  </g>
  <g id="observatoire">
    <path class="cls-1" d="m68.09,42.6c.36.18.8.04.98-.31,0,0,0,0,0,0,2.45-4.76.57-10.61-4.19-13.06-3.34-1.72-7.38-1.35-10.36.95-.31.26-.35.72-.09,1.03.24.29.67.35.98.13,3.6-2.78,8.77-2.12,11.55,1.48,1.95,2.53,2.27,5.96.8,8.8-.19.36-.04.8.31.98Z"></path>
    <path class="cls-1" d="m72.73,43.71c-.32.24-.39.7-.14,1.02h0c2.56,3.4,2.17,4.24,2.17,4.25-.12.14-1.41.25-5.07-1.86-3.17-1.83-7.04-4.68-10.9-8.03s-7.22-6.77-9.48-9.65c-2.61-3.33-2.68-4.62-2.56-4.76s1.39-.25,4.99,1.82c.34.21.79.11,1.01-.23.21-.34.11-.79-.23-1.01-.02,0-.03-.02-.05-.03-3.65-2.09-5.88-2.59-6.82-1.51-.94,1.08-.12,3.25,2.52,6.62.94,1.19,2.06,2.48,3.32,3.81-2.03,4.96.35,10.62,5.3,12.65,2.72,1.11,5.79.93,8.36-.48.1-.05.18-.13.24-.22,1.25.87,2.46,1.64,3.57,2.28,2.44,1.41,4.26,2.12,5.48,2.12.63,0,1.1-.19,1.42-.56.91-1.05.24-2.98-2.11-6.09-.24-.32-.7-.39-1.02-.15,0,0,0,0,0,0Zm-17.68.35c-2.5-2.16-3.46-5.6-2.44-8.74,1.59,1.6,3.35,3.25,5.23,4.88,2.13,1.85,4.26,3.54,6.29,5.01-2.98,1.48-6.56,1.03-9.07-1.15h0Z"></path>
    <path class="cls-1" d="m66.84,63.74c.35-3.03,3.14-4.86,3.16-4.88.34-.22.44-.67.22-1.01-.08-.13-.2-.22-.34-.28h0c-2.4-.97-3.27-4.51-3.27-4.55-.09-.39-.48-.64-.87-.56-.3.07-.53.31-.57.62-.52,3.56-3.1,4.43-3.2,4.47-.39.12-.6.53-.48.91.06.19.19.35.37.44.66.35,1.25.84,1.72,1.42.26.31.72.35,1.03.09.31-.26.35-.72.09-1.03-.32-.39-.68-.75-1.07-1.06,1.04-.7,1.86-1.68,2.36-2.82.49.98,1.23,2.09,2.3,2.85-1.04.92-2.61,2.71-2.9,5.22"></path>
    <path class="cls-1" d="m36.97,38.45c-.05.4.24.76.64.81h.09c.37,0,.68-.28.72-.65.35-3.03,3.14-4.86,3.16-4.88.34-.22.44-.67.22-1.01-.08-.13-.2-.22-.34-.28-2.4-.98-3.27-4.52-3.27-4.55-.09-.39-.48-.64-.87-.56-.3.07-.53.31-.57.62-.51,3.57-3.1,4.44-3.2,4.47-.39.12-.6.53-.48.91.06.19.19.35.37.43.66.35,1.25.84,1.72,1.42.26.31.72.35,1.03.09s.35-.72.09-1.03c-.32-.39-.68-.75-1.07-1.06,1.04-.7,1.85-1.68,2.35-2.82.49.98,1.23,2.09,2.3,2.85-1.03.92-2.6,2.71-2.9,5.22Z"></path>
  </g>
  <g id="etoiles">
    <path class="cls-2" d="m41.84,64.02l3.19,2.55c.19.15.42.24.67.24.16,0,.31-.03.46-.1.37-.17.61-.54.62-.94l.1-4.06c0-.05.03-.1.07-.13l3.4-2.22c.49-.32.63-.98.31-1.48-.13-.2-.32-.35-.54-.43l-3.84-1.37s-.08-.06-.1-.1l-1.11-3.92h0c-.17-.57-.77-.89-1.33-.72-.2.06-.39.18-.52.35l-2.49,3.22s-.08.06-.13.06l-4.06-.2c-.59-.02-1.08.45-1.1,1.03,0,.23.06.45.19.63l2.31,3.35s.02.1,0,.15l-1.45,3.81c-.15.38-.06.81.21,1.11.28.3.7.41,1.09.3l3.89-1.17c.06-.01.12,0,.16.05Zm-4.3.26c-.06.02-.11,0-.15-.04-.04-.04-.06-.11-.03-.16l1.45-3.8c.12-.34.06-.72-.15-1.01l-2.28-3.35s-.03-.11,0-.16c.03-.05.08-.08.14-.08l4.06.2c.35.02.7-.13.91-.41l2.47-3.23c.05-.07.15-.08.22-.03.03.02.05.05.06.08l1.07,3.92c.09.33.33.61.65.73l3.84,1.37c.06.02.1.07.1.13,0,.06-.02.12-.07.15l-3.41,2.2c-.3.19-.48.51-.48.87l-.1,4.07c0,.06-.04.11-.09.14-.05.03-.12.02-.16-.02l-3.17-2.55c-.19-.15-.42-.23-.67-.23-.1,0-.21.01-.31.04l-3.88,1.19Z"></path>
  </g>
</svg>
